G04 #@! TF.GenerationSoftware,KiCad,Pcbnew,5.0.2-bee76a0~70~ubuntu18.04.1*
G04 #@! TF.CreationDate,2019-12-03T11:06:18+01:00*
G04 #@! TF.ProjectId,instrumnet,696e7374-7275-46d6-9e65-742e6b696361,rev?*
G04 #@! TF.SameCoordinates,Original*
G04 #@! TF.FileFunction,Soldermask,Bot*
G04 #@! TF.FilePolarity,Negative*
%FSLAX46Y46*%
G04 Gerber Fmt 4.6, Leading zero omitted, Abs format (unit mm)*
G04 Created by KiCad (PCBNEW 5.0.2-bee76a0~70~ubuntu18.04.1) date Tue 03 Dec 2019 11:06:18 AM CET*
%MOMM*%
%LPD*%
G01*
G04 APERTURE LIST*
%ADD10C,0.150000*%
%ADD11C,0.100000*%
G04 APERTURE END LIST*
D10*
X125000000Y-64000000D02*
X144500000Y-64000000D01*
X125000000Y-142000000D02*
X125000000Y-64000000D01*
X144400000Y-142000000D02*
X125000000Y-142000000D01*
X144500000Y-64000000D02*
X144400000Y-142000000D01*
D11*
G36*
X138235734Y-138393232D02*
X138445202Y-138479996D01*
X138633723Y-138605962D01*
X138794038Y-138766277D01*
X138920004Y-138954798D01*
X139006768Y-139164266D01*
X139051000Y-139386635D01*
X139051000Y-139613365D01*
X139006768Y-139835734D01*
X138920004Y-140045202D01*
X138794038Y-140233723D01*
X138633723Y-140394038D01*
X138445202Y-140520004D01*
X138235734Y-140606768D01*
X138013365Y-140651000D01*
X137786635Y-140651000D01*
X137564266Y-140606768D01*
X137354798Y-140520004D01*
X137166277Y-140394038D01*
X137005962Y-140233723D01*
X136879996Y-140045202D01*
X136793232Y-139835734D01*
X136749000Y-139613365D01*
X136749000Y-139386635D01*
X136793232Y-139164266D01*
X136879996Y-138954798D01*
X137005962Y-138766277D01*
X137166277Y-138605962D01*
X137354798Y-138479996D01*
X137564266Y-138393232D01*
X137786635Y-138349000D01*
X138013365Y-138349000D01*
X138235734Y-138393232D01*
X138235734Y-138393232D01*
G37*
G36*
X143941000Y-136901000D02*
X142139000Y-136901000D01*
X142139000Y-135099000D01*
X143941000Y-135099000D01*
X143941000Y-136901000D01*
X143941000Y-136901000D01*
G37*
G36*
X137401000Y-136901000D02*
X135599000Y-136901000D01*
X135599000Y-135099000D01*
X137401000Y-135099000D01*
X137401000Y-136901000D01*
X137401000Y-136901000D01*
G37*
G36*
X140610442Y-135105518D02*
X140676627Y-135112037D01*
X140789853Y-135146384D01*
X140846467Y-135163557D01*
X140985087Y-135237652D01*
X141002991Y-135247222D01*
X141038729Y-135276552D01*
X141140186Y-135359814D01*
X141223448Y-135461271D01*
X141252778Y-135497009D01*
X141252779Y-135497011D01*
X141336443Y-135653533D01*
X141336443Y-135653534D01*
X141387963Y-135823373D01*
X141405359Y-136000000D01*
X141387963Y-136176627D01*
X141353616Y-136289853D01*
X141336443Y-136346467D01*
X141262348Y-136485087D01*
X141252778Y-136502991D01*
X141223448Y-136538729D01*
X141140186Y-136640186D01*
X141038729Y-136723448D01*
X141002991Y-136752778D01*
X141002989Y-136752779D01*
X140846467Y-136836443D01*
X140789853Y-136853616D01*
X140676627Y-136887963D01*
X140610442Y-136894482D01*
X140544260Y-136901000D01*
X140455740Y-136901000D01*
X140389558Y-136894482D01*
X140323373Y-136887963D01*
X140210147Y-136853616D01*
X140153533Y-136836443D01*
X139997011Y-136752779D01*
X139997009Y-136752778D01*
X139961271Y-136723448D01*
X139859814Y-136640186D01*
X139776552Y-136538729D01*
X139747222Y-136502991D01*
X139737652Y-136485087D01*
X139663557Y-136346467D01*
X139646384Y-136289853D01*
X139612037Y-136176627D01*
X139594641Y-136000000D01*
X139612037Y-135823373D01*
X139663557Y-135653534D01*
X139663557Y-135653533D01*
X139747221Y-135497011D01*
X139747222Y-135497009D01*
X139776552Y-135461271D01*
X139859814Y-135359814D01*
X139961271Y-135276552D01*
X139997009Y-135247222D01*
X140014913Y-135237652D01*
X140153533Y-135163557D01*
X140210147Y-135146384D01*
X140323373Y-135112037D01*
X140389558Y-135105518D01*
X140455740Y-135099000D01*
X140544260Y-135099000D01*
X140610442Y-135105518D01*
X140610442Y-135105518D01*
G37*
G36*
X134070442Y-135105518D02*
X134136627Y-135112037D01*
X134249853Y-135146384D01*
X134306467Y-135163557D01*
X134445087Y-135237652D01*
X134462991Y-135247222D01*
X134498729Y-135276552D01*
X134600186Y-135359814D01*
X134683448Y-135461271D01*
X134712778Y-135497009D01*
X134712779Y-135497011D01*
X134796443Y-135653533D01*
X134796443Y-135653534D01*
X134847963Y-135823373D01*
X134865359Y-136000000D01*
X134847963Y-136176627D01*
X134813616Y-136289853D01*
X134796443Y-136346467D01*
X134722348Y-136485087D01*
X134712778Y-136502991D01*
X134683448Y-136538729D01*
X134600186Y-136640186D01*
X134498729Y-136723448D01*
X134462991Y-136752778D01*
X134462989Y-136752779D01*
X134306467Y-136836443D01*
X134249853Y-136853616D01*
X134136627Y-136887963D01*
X134070442Y-136894482D01*
X134004260Y-136901000D01*
X133915740Y-136901000D01*
X133849558Y-136894482D01*
X133783373Y-136887963D01*
X133670147Y-136853616D01*
X133613533Y-136836443D01*
X133457011Y-136752779D01*
X133457009Y-136752778D01*
X133421271Y-136723448D01*
X133319814Y-136640186D01*
X133236552Y-136538729D01*
X133207222Y-136502991D01*
X133197652Y-136485087D01*
X133123557Y-136346467D01*
X133106384Y-136289853D01*
X133072037Y-136176627D01*
X133054641Y-136000000D01*
X133072037Y-135823373D01*
X133123557Y-135653534D01*
X133123557Y-135653533D01*
X133207221Y-135497011D01*
X133207222Y-135497009D01*
X133236552Y-135461271D01*
X133319814Y-135359814D01*
X133421271Y-135276552D01*
X133457009Y-135247222D01*
X133474913Y-135237652D01*
X133613533Y-135163557D01*
X133670147Y-135146384D01*
X133783373Y-135112037D01*
X133849558Y-135105518D01*
X133915740Y-135099000D01*
X134004260Y-135099000D01*
X134070442Y-135105518D01*
X134070442Y-135105518D01*
G37*
G36*
X131331000Y-134531000D02*
X129229000Y-134531000D01*
X129229000Y-132429000D01*
X131331000Y-132429000D01*
X131331000Y-134531000D01*
X131331000Y-134531000D01*
G37*
G36*
X137401000Y-134301000D02*
X135599000Y-134301000D01*
X135599000Y-132199000D01*
X137401000Y-132199000D01*
X137401000Y-134301000D01*
X137401000Y-134301000D01*
G37*
G36*
X134901000Y-134301000D02*
X133099000Y-134301000D01*
X133099000Y-132199000D01*
X134901000Y-132199000D01*
X134901000Y-134301000D01*
X134901000Y-134301000D01*
G37*
G36*
X141401000Y-134301000D02*
X139599000Y-134301000D01*
X139599000Y-132199000D01*
X141401000Y-132199000D01*
X141401000Y-134301000D01*
X141401000Y-134301000D01*
G37*
G36*
X143901000Y-134301000D02*
X142099000Y-134301000D01*
X142099000Y-132199000D01*
X143901000Y-132199000D01*
X143901000Y-134301000D01*
X143901000Y-134301000D01*
G37*
G36*
X131331000Y-131531000D02*
X129229000Y-131531000D01*
X129229000Y-129429000D01*
X131331000Y-129429000D01*
X131331000Y-131531000D01*
X131331000Y-131531000D01*
G37*
G36*
X141401000Y-130301000D02*
X139599000Y-130301000D01*
X139599000Y-128199000D01*
X141401000Y-128199000D01*
X141401000Y-130301000D01*
X141401000Y-130301000D01*
G37*
G36*
X143901000Y-130301000D02*
X142099000Y-130301000D01*
X142099000Y-128199000D01*
X143901000Y-128199000D01*
X143901000Y-130301000D01*
X143901000Y-130301000D01*
G37*
G36*
X134901000Y-130301000D02*
X133099000Y-130301000D01*
X133099000Y-128199000D01*
X134901000Y-128199000D01*
X134901000Y-130301000D01*
X134901000Y-130301000D01*
G37*
G36*
X137401000Y-130301000D02*
X135599000Y-130301000D01*
X135599000Y-128199000D01*
X137401000Y-128199000D01*
X137401000Y-130301000D01*
X137401000Y-130301000D01*
G37*
G36*
X131331000Y-128531000D02*
X129229000Y-128531000D01*
X129229000Y-126429000D01*
X131331000Y-126429000D01*
X131331000Y-128531000D01*
X131331000Y-128531000D01*
G37*
G36*
X133811000Y-127826000D02*
X133109000Y-127826000D01*
X133109000Y-126174000D01*
X133811000Y-126174000D01*
X133811000Y-127826000D01*
X133811000Y-127826000D01*
G37*
G36*
X135081000Y-127826000D02*
X134379000Y-127826000D01*
X134379000Y-126174000D01*
X135081000Y-126174000D01*
X135081000Y-127826000D01*
X135081000Y-127826000D01*
G37*
G36*
X136351000Y-127826000D02*
X135649000Y-127826000D01*
X135649000Y-126174000D01*
X136351000Y-126174000D01*
X136351000Y-127826000D01*
X136351000Y-127826000D01*
G37*
G36*
X137621000Y-127826000D02*
X136919000Y-127826000D01*
X136919000Y-126174000D01*
X137621000Y-126174000D01*
X137621000Y-127826000D01*
X137621000Y-127826000D01*
G37*
G36*
X143871000Y-127476000D02*
X143169000Y-127476000D01*
X143169000Y-125824000D01*
X143871000Y-125824000D01*
X143871000Y-127476000D01*
X143871000Y-127476000D01*
G37*
G36*
X142601000Y-127476000D02*
X141899000Y-127476000D01*
X141899000Y-125824000D01*
X142601000Y-125824000D01*
X142601000Y-127476000D01*
X142601000Y-127476000D01*
G37*
G36*
X141331000Y-127476000D02*
X140629000Y-127476000D01*
X140629000Y-125824000D01*
X141331000Y-125824000D01*
X141331000Y-127476000D01*
X141331000Y-127476000D01*
G37*
G36*
X140061000Y-127476000D02*
X139359000Y-127476000D01*
X139359000Y-125824000D01*
X140061000Y-125824000D01*
X140061000Y-127476000D01*
X140061000Y-127476000D01*
G37*
G36*
X136591000Y-125526000D02*
X134139000Y-125526000D01*
X134139000Y-123074000D01*
X136591000Y-123074000D01*
X136591000Y-125526000D01*
X136591000Y-125526000D01*
G37*
G36*
X142841000Y-125176000D02*
X140389000Y-125176000D01*
X140389000Y-122724000D01*
X142841000Y-122724000D01*
X142841000Y-125176000D01*
X142841000Y-125176000D01*
G37*
G36*
X133811000Y-122426000D02*
X133109000Y-122426000D01*
X133109000Y-120774000D01*
X133811000Y-120774000D01*
X133811000Y-122426000D01*
X133811000Y-122426000D01*
G37*
G36*
X135081000Y-122426000D02*
X134379000Y-122426000D01*
X134379000Y-120774000D01*
X135081000Y-120774000D01*
X135081000Y-122426000D01*
X135081000Y-122426000D01*
G37*
G36*
X136351000Y-122426000D02*
X135649000Y-122426000D01*
X135649000Y-120774000D01*
X136351000Y-120774000D01*
X136351000Y-122426000D01*
X136351000Y-122426000D01*
G37*
G36*
X137621000Y-122426000D02*
X136919000Y-122426000D01*
X136919000Y-120774000D01*
X137621000Y-120774000D01*
X137621000Y-122426000D01*
X137621000Y-122426000D01*
G37*
G36*
X142601000Y-122076000D02*
X141899000Y-122076000D01*
X141899000Y-120424000D01*
X142601000Y-120424000D01*
X142601000Y-122076000D01*
X142601000Y-122076000D01*
G37*
G36*
X140061000Y-122076000D02*
X139359000Y-122076000D01*
X139359000Y-120424000D01*
X140061000Y-120424000D01*
X140061000Y-122076000D01*
X140061000Y-122076000D01*
G37*
G36*
X141331000Y-122076000D02*
X140629000Y-122076000D01*
X140629000Y-120424000D01*
X141331000Y-120424000D01*
X141331000Y-122076000D01*
X141331000Y-122076000D01*
G37*
G36*
X143871000Y-122076000D02*
X143169000Y-122076000D01*
X143169000Y-120424000D01*
X143871000Y-120424000D01*
X143871000Y-122076000D01*
X143871000Y-122076000D01*
G37*
G36*
X137801000Y-119451000D02*
X136199000Y-119451000D01*
X136199000Y-118049000D01*
X137801000Y-118049000D01*
X137801000Y-119451000D01*
X137801000Y-119451000D01*
G37*
G36*
X135101000Y-119451000D02*
X133499000Y-119451000D01*
X133499000Y-118049000D01*
X135101000Y-118049000D01*
X135101000Y-119451000D01*
X135101000Y-119451000D01*
G37*
G36*
X143501000Y-119451000D02*
X141899000Y-119451000D01*
X141899000Y-118049000D01*
X143501000Y-118049000D01*
X143501000Y-119451000D01*
X143501000Y-119451000D01*
G37*
G36*
X140801000Y-119451000D02*
X139199000Y-119451000D01*
X139199000Y-118049000D01*
X140801000Y-118049000D01*
X140801000Y-119451000D01*
X140801000Y-119451000D01*
G37*
G36*
X134551000Y-115451000D02*
X132949000Y-115451000D01*
X132949000Y-114049000D01*
X134551000Y-114049000D01*
X134551000Y-115451000D01*
X134551000Y-115451000D01*
G37*
G36*
X137251000Y-115451000D02*
X135649000Y-115451000D01*
X135649000Y-114049000D01*
X137251000Y-114049000D01*
X137251000Y-115451000D01*
X137251000Y-115451000D01*
G37*
G36*
X144051000Y-114051000D02*
X141949000Y-114051000D01*
X141949000Y-111949000D01*
X144051000Y-111949000D01*
X144051000Y-114051000D01*
X144051000Y-114051000D01*
G37*
G36*
X136651000Y-113551000D02*
X134849000Y-113551000D01*
X134849000Y-111449000D01*
X136651000Y-111449000D01*
X136651000Y-113551000D01*
X136651000Y-113551000D01*
G37*
G36*
X127181000Y-113131000D02*
X125479000Y-113131000D01*
X125479000Y-111029000D01*
X127181000Y-111029000D01*
X127181000Y-113131000D01*
X127181000Y-113131000D01*
G37*
G36*
X144051000Y-110051000D02*
X141949000Y-110051000D01*
X141949000Y-107949000D01*
X144051000Y-107949000D01*
X144051000Y-110051000D01*
X144051000Y-110051000D01*
G37*
G36*
X136651000Y-109551000D02*
X134849000Y-109551000D01*
X134849000Y-107449000D01*
X136651000Y-107449000D01*
X136651000Y-109551000D01*
X136651000Y-109551000D01*
G37*
G36*
X127181000Y-109131000D02*
X125479000Y-109131000D01*
X125479000Y-107029000D01*
X127181000Y-107029000D01*
X127181000Y-109131000D01*
X127181000Y-109131000D01*
G37*
G36*
X133051000Y-106551000D02*
X130949000Y-106551000D01*
X130949000Y-104449000D01*
X133051000Y-104449000D01*
X133051000Y-106551000D01*
X133051000Y-106551000D01*
G37*
G36*
X144051000Y-106051000D02*
X141949000Y-106051000D01*
X141949000Y-103949000D01*
X144051000Y-103949000D01*
X144051000Y-106051000D01*
X144051000Y-106051000D01*
G37*
G36*
X144051000Y-102051000D02*
X141949000Y-102051000D01*
X141949000Y-99949000D01*
X144051000Y-99949000D01*
X144051000Y-102051000D01*
X144051000Y-102051000D01*
G37*
G36*
X137051000Y-102051000D02*
X134949000Y-102051000D01*
X134949000Y-99949000D01*
X137051000Y-99949000D01*
X137051000Y-102051000D01*
X137051000Y-102051000D01*
G37*
G36*
X133051000Y-102051000D02*
X130949000Y-102051000D01*
X130949000Y-99949000D01*
X133051000Y-99949000D01*
X133051000Y-102051000D01*
X133051000Y-102051000D01*
G37*
G36*
X144051000Y-98051000D02*
X141949000Y-98051000D01*
X141949000Y-95949000D01*
X144051000Y-95949000D01*
X144051000Y-98051000D01*
X144051000Y-98051000D01*
G37*
G36*
X144051000Y-94051000D02*
X141949000Y-94051000D01*
X141949000Y-91949000D01*
X144051000Y-91949000D01*
X144051000Y-94051000D01*
X144051000Y-94051000D01*
G37*
G36*
X127881000Y-89481000D02*
X125779000Y-89481000D01*
X125779000Y-87779000D01*
X127881000Y-87779000D01*
X127881000Y-89481000D01*
X127881000Y-89481000D01*
G37*
G36*
X131881000Y-89481000D02*
X129779000Y-89481000D01*
X129779000Y-87779000D01*
X131881000Y-87779000D01*
X131881000Y-89481000D01*
X131881000Y-89481000D01*
G37*
G36*
X136671000Y-87651000D02*
X135069000Y-87651000D01*
X135069000Y-84249000D01*
X136671000Y-84249000D01*
X136671000Y-87651000D01*
X136671000Y-87651000D01*
G37*
G36*
X132141000Y-87321000D02*
X130039000Y-87321000D01*
X130039000Y-85619000D01*
X132141000Y-85619000D01*
X132141000Y-87321000D01*
X132141000Y-87321000D01*
G37*
G36*
X128141000Y-87321000D02*
X126039000Y-87321000D01*
X126039000Y-85619000D01*
X128141000Y-85619000D01*
X128141000Y-87321000D01*
X128141000Y-87321000D01*
G37*
G36*
X128141000Y-85321000D02*
X126039000Y-85321000D01*
X126039000Y-83619000D01*
X128141000Y-83619000D01*
X128141000Y-85321000D01*
X128141000Y-85321000D01*
G37*
G36*
X132141000Y-85321000D02*
X130039000Y-85321000D01*
X130039000Y-83619000D01*
X132141000Y-83619000D01*
X132141000Y-85321000D01*
X132141000Y-85321000D01*
G37*
G36*
X128071000Y-82746000D02*
X126409000Y-82746000D01*
X126409000Y-80094000D01*
X128071000Y-80094000D01*
X128071000Y-82746000D01*
X128071000Y-82746000D01*
G37*
G36*
X130771000Y-82746000D02*
X129109000Y-82746000D01*
X129109000Y-81994000D01*
X130771000Y-81994000D01*
X130771000Y-82746000D01*
X130771000Y-82746000D01*
G37*
G36*
X136671000Y-82151000D02*
X135069000Y-82151000D01*
X135069000Y-78749000D01*
X136671000Y-78749000D01*
X136671000Y-82151000D01*
X136671000Y-82151000D01*
G37*
G36*
X130771000Y-80846000D02*
X129109000Y-80846000D01*
X129109000Y-80094000D01*
X130771000Y-80094000D01*
X130771000Y-80846000D01*
X130771000Y-80846000D01*
G37*
G36*
X132711000Y-78551000D02*
X130609000Y-78551000D01*
X130609000Y-76849000D01*
X132711000Y-76849000D01*
X132711000Y-78551000D01*
X132711000Y-78551000D01*
G37*
G36*
X128711000Y-78551000D02*
X126609000Y-78551000D01*
X126609000Y-76849000D01*
X128711000Y-76849000D01*
X128711000Y-78551000D01*
X128711000Y-78551000D01*
G37*
G36*
X127121000Y-76241000D02*
X125319000Y-76241000D01*
X125319000Y-74139000D01*
X127121000Y-74139000D01*
X127121000Y-76241000D01*
X127121000Y-76241000D01*
G37*
G36*
X143821000Y-76141000D02*
X142019000Y-76141000D01*
X142019000Y-74339000D01*
X143821000Y-74339000D01*
X143821000Y-76141000D01*
X143821000Y-76141000D01*
G37*
G36*
X140490443Y-74345519D02*
X140556627Y-74352037D01*
X140669853Y-74386384D01*
X140726467Y-74403557D01*
X140850423Y-74469814D01*
X140882991Y-74487222D01*
X140918729Y-74516552D01*
X141020186Y-74599814D01*
X141103448Y-74701271D01*
X141132778Y-74737009D01*
X141132779Y-74737011D01*
X141216443Y-74893533D01*
X141216443Y-74893534D01*
X141267963Y-75063373D01*
X141285359Y-75240000D01*
X141267963Y-75416627D01*
X141233616Y-75529853D01*
X141216443Y-75586467D01*
X141202266Y-75612989D01*
X141132778Y-75742991D01*
X141126873Y-75750186D01*
X141020186Y-75880186D01*
X140939450Y-75946443D01*
X140882991Y-75992778D01*
X140882989Y-75992779D01*
X140726467Y-76076443D01*
X140669853Y-76093616D01*
X140556627Y-76127963D01*
X140490443Y-76134481D01*
X140424260Y-76141000D01*
X140335740Y-76141000D01*
X140269557Y-76134481D01*
X140203373Y-76127963D01*
X140090147Y-76093616D01*
X140033533Y-76076443D01*
X139877011Y-75992779D01*
X139877009Y-75992778D01*
X139820550Y-75946443D01*
X139739814Y-75880186D01*
X139633127Y-75750186D01*
X139627222Y-75742991D01*
X139557734Y-75612989D01*
X139543557Y-75586467D01*
X139526384Y-75529853D01*
X139492037Y-75416627D01*
X139474641Y-75240000D01*
X139492037Y-75063373D01*
X139543557Y-74893534D01*
X139543557Y-74893533D01*
X139627221Y-74737011D01*
X139627222Y-74737009D01*
X139656552Y-74701271D01*
X139739814Y-74599814D01*
X139841271Y-74516552D01*
X139877009Y-74487222D01*
X139909577Y-74469814D01*
X140033533Y-74403557D01*
X140090147Y-74386384D01*
X140203373Y-74352037D01*
X140269557Y-74345519D01*
X140335740Y-74339000D01*
X140424260Y-74339000D01*
X140490443Y-74345519D01*
X140490443Y-74345519D01*
G37*
G36*
X133711000Y-76011000D02*
X131909000Y-76011000D01*
X131909000Y-74209000D01*
X133711000Y-74209000D01*
X133711000Y-76011000D01*
X133711000Y-76011000D01*
G37*
G36*
X135460443Y-74215519D02*
X135526627Y-74222037D01*
X135639853Y-74256384D01*
X135696467Y-74273557D01*
X135818900Y-74339000D01*
X135852991Y-74357222D01*
X135888729Y-74386552D01*
X135990186Y-74469814D01*
X136073448Y-74571271D01*
X136102778Y-74607009D01*
X136102779Y-74607011D01*
X136186443Y-74763533D01*
X136186443Y-74763534D01*
X136237963Y-74933373D01*
X136255359Y-75110000D01*
X136237963Y-75286627D01*
X136203616Y-75399853D01*
X136186443Y-75456467D01*
X136112348Y-75595087D01*
X136102778Y-75612991D01*
X136073448Y-75648729D01*
X135990186Y-75750186D01*
X135888729Y-75833448D01*
X135852991Y-75862778D01*
X135852989Y-75862779D01*
X135696467Y-75946443D01*
X135639853Y-75963616D01*
X135526627Y-75997963D01*
X135460443Y-76004481D01*
X135394260Y-76011000D01*
X135305740Y-76011000D01*
X135239557Y-76004481D01*
X135173373Y-75997963D01*
X135060147Y-75963616D01*
X135003533Y-75946443D01*
X134847011Y-75862779D01*
X134847009Y-75862778D01*
X134811271Y-75833448D01*
X134709814Y-75750186D01*
X134626552Y-75648729D01*
X134597222Y-75612991D01*
X134587652Y-75595087D01*
X134513557Y-75456467D01*
X134496384Y-75399853D01*
X134462037Y-75286627D01*
X134444641Y-75110000D01*
X134462037Y-74933373D01*
X134513557Y-74763534D01*
X134513557Y-74763533D01*
X134597221Y-74607011D01*
X134597222Y-74607009D01*
X134626552Y-74571271D01*
X134709814Y-74469814D01*
X134811271Y-74386552D01*
X134847009Y-74357222D01*
X134881100Y-74339000D01*
X135003533Y-74273557D01*
X135060147Y-74256384D01*
X135173373Y-74222037D01*
X135239557Y-74215519D01*
X135305740Y-74209000D01*
X135394260Y-74209000D01*
X135460443Y-74215519D01*
X135460443Y-74215519D01*
G37*
G36*
X130211000Y-75601000D02*
X128109000Y-75601000D01*
X128109000Y-73499000D01*
X130211000Y-73499000D01*
X130211000Y-75601000D01*
X130211000Y-75601000D01*
G37*
G36*
X128811000Y-72551000D02*
X127509000Y-72551000D01*
X127509000Y-69449000D01*
X128811000Y-69449000D01*
X128811000Y-72551000D01*
X128811000Y-72551000D01*
G37*
G36*
X130811000Y-72551000D02*
X129509000Y-72551000D01*
X129509000Y-69449000D01*
X130811000Y-69449000D01*
X130811000Y-72551000D01*
X130811000Y-72551000D01*
G37*
G36*
X127121000Y-72241000D02*
X125319000Y-72241000D01*
X125319000Y-70139000D01*
X127121000Y-70139000D01*
X127121000Y-72241000D01*
X127121000Y-72241000D01*
G37*
G36*
X130110442Y-67185518D02*
X130176627Y-67192037D01*
X130289853Y-67226384D01*
X130346467Y-67243557D01*
X130485087Y-67317652D01*
X130502991Y-67327222D01*
X130538729Y-67356552D01*
X130640186Y-67439814D01*
X130723448Y-67541271D01*
X130752778Y-67577009D01*
X130752779Y-67577011D01*
X130836443Y-67733533D01*
X130836443Y-67733534D01*
X130887963Y-67903373D01*
X130905359Y-68080000D01*
X130887963Y-68256627D01*
X130853616Y-68369853D01*
X130836443Y-68426467D01*
X130762348Y-68565087D01*
X130752778Y-68582991D01*
X130723448Y-68618729D01*
X130640186Y-68720186D01*
X130538729Y-68803448D01*
X130502991Y-68832778D01*
X130502989Y-68832779D01*
X130346467Y-68916443D01*
X130289853Y-68933616D01*
X130176627Y-68967963D01*
X130110442Y-68974482D01*
X130044260Y-68981000D01*
X129955740Y-68981000D01*
X129889558Y-68974482D01*
X129823373Y-68967963D01*
X129710147Y-68933616D01*
X129653533Y-68916443D01*
X129497011Y-68832779D01*
X129497009Y-68832778D01*
X129461271Y-68803448D01*
X129359814Y-68720186D01*
X129276552Y-68618729D01*
X129247222Y-68582991D01*
X129237652Y-68565087D01*
X129163557Y-68426467D01*
X129146384Y-68369853D01*
X129112037Y-68256627D01*
X129094641Y-68080000D01*
X129112037Y-67903373D01*
X129163557Y-67733534D01*
X129163557Y-67733533D01*
X129247221Y-67577011D01*
X129247222Y-67577009D01*
X129276552Y-67541271D01*
X129359814Y-67439814D01*
X129461271Y-67356552D01*
X129497009Y-67327222D01*
X129514913Y-67317652D01*
X129653533Y-67243557D01*
X129710147Y-67226384D01*
X129823373Y-67192037D01*
X129889558Y-67185518D01*
X129955740Y-67179000D01*
X130044260Y-67179000D01*
X130110442Y-67185518D01*
X130110442Y-67185518D01*
G37*
G36*
X128361000Y-68981000D02*
X126559000Y-68981000D01*
X126559000Y-67179000D01*
X128361000Y-67179000D01*
X128361000Y-68981000D01*
X128361000Y-68981000D01*
G37*
G36*
X138235734Y-64993232D02*
X138445202Y-65079996D01*
X138633723Y-65205962D01*
X138794038Y-65366277D01*
X138920004Y-65554798D01*
X139006768Y-65764266D01*
X139051000Y-65986635D01*
X139051000Y-66213365D01*
X139006768Y-66435734D01*
X138920004Y-66645202D01*
X138794038Y-66833723D01*
X138633723Y-66994038D01*
X138445202Y-67120004D01*
X138235734Y-67206768D01*
X138013365Y-67251000D01*
X137786635Y-67251000D01*
X137564266Y-67206768D01*
X137354798Y-67120004D01*
X137166277Y-66994038D01*
X137005962Y-66833723D01*
X136879996Y-66645202D01*
X136793232Y-66435734D01*
X136749000Y-66213365D01*
X136749000Y-65986635D01*
X136793232Y-65764266D01*
X136879996Y-65554798D01*
X137005962Y-65366277D01*
X137166277Y-65205962D01*
X137354798Y-65079996D01*
X137564266Y-64993232D01*
X137786635Y-64949000D01*
X138013365Y-64949000D01*
X138235734Y-64993232D01*
X138235734Y-64993232D01*
G37*
G36*
X130110443Y-64645519D02*
X130176627Y-64652037D01*
X130289853Y-64686384D01*
X130346467Y-64703557D01*
X130485087Y-64777652D01*
X130502991Y-64787222D01*
X130538729Y-64816552D01*
X130640186Y-64899814D01*
X130716851Y-64993232D01*
X130752778Y-65037009D01*
X130752779Y-65037011D01*
X130836443Y-65193533D01*
X130840213Y-65205962D01*
X130887963Y-65363373D01*
X130905359Y-65540000D01*
X130887963Y-65716627D01*
X130873512Y-65764266D01*
X130836443Y-65886467D01*
X130782901Y-65986635D01*
X130752778Y-66042991D01*
X130723448Y-66078729D01*
X130640186Y-66180186D01*
X130538729Y-66263448D01*
X130502991Y-66292778D01*
X130502989Y-66292779D01*
X130346467Y-66376443D01*
X130289853Y-66393616D01*
X130176627Y-66427963D01*
X130110443Y-66434481D01*
X130044260Y-66441000D01*
X129955740Y-66441000D01*
X129889557Y-66434481D01*
X129823373Y-66427963D01*
X129710147Y-66393616D01*
X129653533Y-66376443D01*
X129497011Y-66292779D01*
X129497009Y-66292778D01*
X129461271Y-66263448D01*
X129359814Y-66180186D01*
X129276552Y-66078729D01*
X129247222Y-66042991D01*
X129217099Y-65986635D01*
X129163557Y-65886467D01*
X129126488Y-65764266D01*
X129112037Y-65716627D01*
X129094641Y-65540000D01*
X129112037Y-65363373D01*
X129159787Y-65205962D01*
X129163557Y-65193533D01*
X129247221Y-65037011D01*
X129247222Y-65037009D01*
X129283149Y-64993232D01*
X129359814Y-64899814D01*
X129461271Y-64816552D01*
X129497009Y-64787222D01*
X129514913Y-64777652D01*
X129653533Y-64703557D01*
X129710147Y-64686384D01*
X129823373Y-64652037D01*
X129889557Y-64645519D01*
X129955740Y-64639000D01*
X130044260Y-64639000D01*
X130110443Y-64645519D01*
X130110443Y-64645519D01*
G37*
G36*
X127570443Y-64645519D02*
X127636627Y-64652037D01*
X127749853Y-64686384D01*
X127806467Y-64703557D01*
X127945087Y-64777652D01*
X127962991Y-64787222D01*
X127998729Y-64816552D01*
X128100186Y-64899814D01*
X128176851Y-64993232D01*
X128212778Y-65037009D01*
X128212779Y-65037011D01*
X128296443Y-65193533D01*
X128300213Y-65205962D01*
X128347963Y-65363373D01*
X128365359Y-65540000D01*
X128347963Y-65716627D01*
X128333512Y-65764266D01*
X128296443Y-65886467D01*
X128242901Y-65986635D01*
X128212778Y-66042991D01*
X128183448Y-66078729D01*
X128100186Y-66180186D01*
X127998729Y-66263448D01*
X127962991Y-66292778D01*
X127962989Y-66292779D01*
X127806467Y-66376443D01*
X127749853Y-66393616D01*
X127636627Y-66427963D01*
X127570443Y-66434481D01*
X127504260Y-66441000D01*
X127415740Y-66441000D01*
X127349557Y-66434481D01*
X127283373Y-66427963D01*
X127170147Y-66393616D01*
X127113533Y-66376443D01*
X126957011Y-66292779D01*
X126957009Y-66292778D01*
X126921271Y-66263448D01*
X126819814Y-66180186D01*
X126736552Y-66078729D01*
X126707222Y-66042991D01*
X126677099Y-65986635D01*
X126623557Y-65886467D01*
X126586488Y-65764266D01*
X126572037Y-65716627D01*
X126554641Y-65540000D01*
X126572037Y-65363373D01*
X126619787Y-65205962D01*
X126623557Y-65193533D01*
X126707221Y-65037011D01*
X126707222Y-65037009D01*
X126743149Y-64993232D01*
X126819814Y-64899814D01*
X126921271Y-64816552D01*
X126957009Y-64787222D01*
X126974913Y-64777652D01*
X127113533Y-64703557D01*
X127170147Y-64686384D01*
X127283373Y-64652037D01*
X127349557Y-64645519D01*
X127415740Y-64639000D01*
X127504260Y-64639000D01*
X127570443Y-64645519D01*
X127570443Y-64645519D01*
G37*
M02*
