G04 #@! TF.GenerationSoftware,KiCad,Pcbnew,5.0.2-bee76a0~70~ubuntu18.04.1*
G04 #@! TF.CreationDate,2019-12-03T11:06:18+01:00*
G04 #@! TF.ProjectId,instrumnet,696e7374-7275-46d6-9e65-742e6b696361,rev?*
G04 #@! TF.SameCoordinates,Original*
G04 #@! TF.FileFunction,Copper,L1,Top*
G04 #@! TF.FilePolarity,Positive*
%FSLAX46Y46*%
G04 Gerber Fmt 4.6, Leading zero omitted, Abs format (unit mm)*
G04 Created by KiCad (PCBNEW 5.0.2-bee76a0~70~ubuntu18.04.1) date Tue 03 Dec 2019 11:06:18 AM CET*
%MOMM*%
%LPD*%
G01*
G04 APERTURE LIST*
G04 #@! TA.AperFunction,NonConductor*
%ADD10C,0.150000*%
G04 #@! TD*
G04 #@! TA.AperFunction,SMDPad,CuDef*
%ADD11R,1.500000X1.250000*%
G04 #@! TD*
G04 #@! TA.AperFunction,SMDPad,CuDef*
%ADD12R,1.600000X2.000000*%
G04 #@! TD*
G04 #@! TA.AperFunction,SMDPad,CuDef*
%ADD13R,2.000000X1.600000*%
G04 #@! TD*
G04 #@! TA.AperFunction,SMDPad,CuDef*
%ADD14R,1.500000X1.300000*%
G04 #@! TD*
G04 #@! TA.AperFunction,SMDPad,CuDef*
%ADD15R,1.300000X1.500000*%
G04 #@! TD*
G04 #@! TA.AperFunction,SMDPad,CuDef*
%ADD16R,2.000000X2.000000*%
G04 #@! TD*
G04 #@! TA.AperFunction,SMDPad,CuDef*
%ADD17R,1.200000X3.000000*%
G04 #@! TD*
G04 #@! TA.AperFunction,ComponentPad*
%ADD18R,1.700000X1.700000*%
G04 #@! TD*
G04 #@! TA.AperFunction,ComponentPad*
%ADD19O,1.700000X1.700000*%
G04 #@! TD*
G04 #@! TA.AperFunction,SMDPad,CuDef*
%ADD20R,2.000000X1.700000*%
G04 #@! TD*
G04 #@! TA.AperFunction,SMDPad,CuDef*
%ADD21R,0.500000X1.500000*%
G04 #@! TD*
G04 #@! TA.AperFunction,SMDPad,CuDef*
%ADD22R,0.600000X1.550000*%
G04 #@! TD*
G04 #@! TA.AperFunction,SMDPad,CuDef*
%ADD23R,1.200000X1.800000*%
G04 #@! TD*
G04 #@! TA.AperFunction,SMDPad,CuDef*
%ADD24R,1.600000X0.550000*%
G04 #@! TD*
G04 #@! TA.AperFunction,SMDPad,CuDef*
%ADD25R,0.550000X1.600000*%
G04 #@! TD*
G04 #@! TA.AperFunction,SMDPad,CuDef*
%ADD26R,1.560000X0.650000*%
G04 #@! TD*
G04 #@! TA.AperFunction,SMDPad,CuDef*
%ADD27R,3.000000X1.200000*%
G04 #@! TD*
G04 #@! TA.AperFunction,SMDPad,CuDef*
%ADD28R,0.600000X1.500000*%
G04 #@! TD*
G04 #@! TA.AperFunction,ViaPad*
%ADD29C,0.800000*%
G04 #@! TD*
G04 #@! TA.AperFunction,Conductor*
%ADD30C,0.250000*%
G04 #@! TD*
G04 #@! TA.AperFunction,Conductor*
%ADD31C,1.000000*%
G04 #@! TD*
G04 #@! TA.AperFunction,Conductor*
%ADD32C,0.500000*%
G04 #@! TD*
G04 #@! TA.AperFunction,Conductor*
%ADD33C,0.750000*%
G04 #@! TD*
G04 APERTURE END LIST*
D10*
X125000000Y-64000000D02*
X144500000Y-64000000D01*
X125000000Y-142000000D02*
X125000000Y-64000000D01*
X144400000Y-142000000D02*
X125000000Y-142000000D01*
X144500000Y-64000000D02*
X144400000Y-142000000D01*
D11*
G04 #@! TO.P,C13,2*
G04 #@! TO.N,GND*
X138000000Y-103500000D03*
G04 #@! TO.P,C13,1*
G04 #@! TO.N,Net-(C13-Pad1)*
X140500000Y-103500000D03*
G04 #@! TD*
D12*
G04 #@! TO.P,C12,1*
G04 #@! TO.N,+3V3*
X126600000Y-127400000D03*
G04 #@! TO.P,C12,2*
G04 #@! TO.N,GND*
X126600000Y-123400000D03*
G04 #@! TD*
D13*
G04 #@! TO.P,C14,2*
G04 #@! TO.N,GND*
X133040000Y-116930000D03*
G04 #@! TO.P,C14,1*
G04 #@! TO.N,Net-(C13-Pad1)*
X137040000Y-116930000D03*
G04 #@! TD*
D12*
G04 #@! TO.P,C7,1*
G04 #@! TO.N,+3V3*
X126190000Y-110400000D03*
G04 #@! TO.P,C7,2*
G04 #@! TO.N,GND*
X126190000Y-114400000D03*
G04 #@! TD*
G04 #@! TO.P,C10,2*
G04 #@! TO.N,GND*
X129500000Y-91540000D03*
G04 #@! TO.P,C10,1*
G04 #@! TO.N,+5V*
X129500000Y-87540000D03*
G04 #@! TD*
G04 #@! TO.P,C9,1*
G04 #@! TO.N,+5V*
X137830000Y-77970000D03*
G04 #@! TO.P,C9,2*
G04 #@! TO.N,GND*
X137830000Y-73970000D03*
G04 #@! TD*
G04 #@! TO.P,C6,1*
G04 #@! TO.N,+3V3*
X128250000Y-110420000D03*
G04 #@! TO.P,C6,2*
G04 #@! TO.N,GND*
X128250000Y-114420000D03*
G04 #@! TD*
D13*
G04 #@! TO.P,C5,2*
G04 #@! TO.N,GND*
X130380000Y-101110000D03*
G04 #@! TO.P,C5,1*
G04 #@! TO.N,Net-(C5-Pad1)*
X126380000Y-101110000D03*
G04 #@! TD*
D12*
G04 #@! TO.P,C4,1*
G04 #@! TO.N,Net-(C4-Pad1)*
X142090000Y-127110000D03*
G04 #@! TO.P,C4,2*
G04 #@! TO.N,Net-(C4-Pad2)*
X142090000Y-123110000D03*
G04 #@! TD*
G04 #@! TO.P,C3,2*
G04 #@! TO.N,Net-(C3-Pad2)*
X135210000Y-123020000D03*
G04 #@! TO.P,C3,1*
G04 #@! TO.N,Net-(C3-Pad1)*
X135210000Y-127020000D03*
G04 #@! TD*
D11*
G04 #@! TO.P,C15,2*
G04 #@! TO.N,GND*
X126180000Y-119610000D03*
G04 #@! TO.P,C15,1*
G04 #@! TO.N,reset*
X128680000Y-119610000D03*
G04 #@! TD*
D14*
G04 #@! TO.P,Ri2cSDA1,2*
G04 #@! TO.N,sda*
X129640000Y-131350000D03*
G04 #@! TO.P,Ri2cSDA1,1*
G04 #@! TO.N,+3V3*
X126940000Y-131350000D03*
G04 #@! TD*
G04 #@! TO.P,Ri2cSCL1,2*
G04 #@! TO.N,scl*
X129600000Y-134550000D03*
G04 #@! TO.P,Ri2cSCL1,1*
G04 #@! TO.N,+3V3*
X126900000Y-134550000D03*
G04 #@! TD*
G04 #@! TO.P,R14,2*
G04 #@! TO.N,reset*
X128930000Y-117110000D03*
G04 #@! TO.P,R14,1*
G04 #@! TO.N,+3V3*
X126230000Y-117110000D03*
G04 #@! TD*
G04 #@! TO.P,R1,2*
G04 #@! TO.N,txd_3v3*
X141500000Y-99500000D03*
G04 #@! TO.P,R1,1*
G04 #@! TO.N,+3V3*
X138800000Y-99500000D03*
G04 #@! TD*
G04 #@! TO.P,R2,2*
G04 #@! TO.N,rxd_3v3*
X129110000Y-99210000D03*
G04 #@! TO.P,R2,1*
G04 #@! TO.N,+3V3*
X126410000Y-99210000D03*
G04 #@! TD*
G04 #@! TO.P,R3,2*
G04 #@! TO.N,txd*
X135700000Y-94500000D03*
G04 #@! TO.P,R3,1*
G04 #@! TO.N,+5V*
X133000000Y-94500000D03*
G04 #@! TD*
G04 #@! TO.P,R4,2*
G04 #@! TO.N,rxd*
X135650000Y-96900000D03*
G04 #@! TO.P,R4,1*
G04 #@! TO.N,+5V*
X132950000Y-96900000D03*
G04 #@! TD*
G04 #@! TO.P,R6,2*
G04 #@! TO.N,/in+*
X134850000Y-83900000D03*
G04 #@! TO.P,R6,1*
G04 #@! TO.N,/in-*
X137550000Y-83900000D03*
G04 #@! TD*
G04 #@! TO.P,R7,2*
G04 #@! TO.N,/out+*
X142550000Y-83900000D03*
G04 #@! TO.P,R7,1*
G04 #@! TO.N,/out-*
X139850000Y-83900000D03*
G04 #@! TD*
D15*
G04 #@! TO.P,R5,2*
G04 #@! TO.N,Net-(R5-Pad2)*
X132330000Y-90990000D03*
G04 #@! TO.P,R5,1*
G04 #@! TO.N,+5V*
X132330000Y-88290000D03*
G04 #@! TD*
G04 #@! TO.P,R9,2*
G04 #@! TO.N,GND*
X136810000Y-68910000D03*
G04 #@! TO.P,R9,1*
G04 #@! TO.N,/in-*
X136810000Y-71610000D03*
G04 #@! TD*
D14*
G04 #@! TO.P,R10,2*
G04 #@! TO.N,/out+*
X142690000Y-81490000D03*
G04 #@! TO.P,R10,1*
G04 #@! TO.N,+5V*
X139990000Y-81490000D03*
G04 #@! TD*
D15*
G04 #@! TO.P,R11,2*
G04 #@! TO.N,GND*
X138840000Y-68910000D03*
G04 #@! TO.P,R11,1*
G04 #@! TO.N,/out-*
X138840000Y-71610000D03*
G04 #@! TD*
D14*
G04 #@! TO.P,R8,2*
G04 #@! TO.N,/in+*
X135330000Y-81780000D03*
G04 #@! TO.P,R8,1*
G04 #@! TO.N,+5V*
X132630000Y-81780000D03*
G04 #@! TD*
D16*
G04 #@! TO.P,D1,3*
G04 #@! TO.N,GND*
X135280000Y-129690000D03*
D17*
G04 #@! TO.P,D1,2*
G04 #@! TO.N,Net-(D1-Pad2)*
X136280000Y-133240000D03*
G04 #@! TO.P,D1,1*
G04 #@! TO.N,Net-(D1-Pad1)*
X134280000Y-133240000D03*
G04 #@! TD*
G04 #@! TO.P,D2,1*
G04 #@! TO.N,Net-(D2-Pad1)*
X140780000Y-133240000D03*
G04 #@! TO.P,D2,2*
G04 #@! TO.N,Net-(D2-Pad2)*
X142780000Y-133240000D03*
D16*
G04 #@! TO.P,D2,3*
G04 #@! TO.N,GND*
X141780000Y-129690000D03*
G04 #@! TD*
D18*
G04 #@! TO.P,458_IN1,1*
G04 #@! TO.N,/in+*
X132810000Y-75110000D03*
D19*
G04 #@! TO.P,458_IN1,2*
G04 #@! TO.N,/in-*
X135350000Y-75110000D03*
G04 #@! TD*
G04 #@! TO.P,485_OUT1,2*
G04 #@! TO.N,/out-*
X140380000Y-75240000D03*
D18*
G04 #@! TO.P,485_OUT1,1*
G04 #@! TO.N,/out+*
X142920000Y-75240000D03*
G04 #@! TD*
D19*
G04 #@! TO.P,J1,4*
G04 #@! TO.N,GND*
X130000000Y-65540000D03*
G04 #@! TO.P,J1,3*
X130000000Y-68080000D03*
G04 #@! TO.P,J1,2*
G04 #@! TO.N,Net-(D7-Pad1)*
X127460000Y-65540000D03*
D18*
G04 #@! TO.P,J1,1*
X127460000Y-68080000D03*
G04 #@! TD*
D20*
G04 #@! TO.P,L6,1*
G04 #@! TO.N,+3V3*
X131750000Y-103250000D03*
G04 #@! TO.P,L6,2*
G04 #@! TO.N,Net-(C13-Pad1)*
X135750000Y-103250000D03*
G04 #@! TD*
D21*
G04 #@! TO.P,Y1,3*
G04 #@! TO.N,Net-(U5-Pad7)*
X138800000Y-116827138D03*
G04 #@! TO.P,Y1,1*
G04 #@! TO.N,Net-(U5-Pad8)*
X141200000Y-116827138D03*
G04 #@! TO.P,Y1,2*
G04 #@! TO.N,GND*
X140000000Y-116827138D03*
G04 #@! TD*
D18*
G04 #@! TO.P,J3,1*
G04 #@! TO.N,Net-(D2-Pad2)*
X143040000Y-136000000D03*
D19*
G04 #@! TO.P,J3,2*
G04 #@! TO.N,Net-(D2-Pad1)*
X140500000Y-136000000D03*
G04 #@! TD*
G04 #@! TO.P,J2,2*
G04 #@! TO.N,Net-(D1-Pad1)*
X133960000Y-136000000D03*
D18*
G04 #@! TO.P,J2,1*
G04 #@! TO.N,Net-(D1-Pad2)*
X136500000Y-136000000D03*
G04 #@! TD*
D22*
G04 #@! TO.P,J7,1*
G04 #@! TO.N,GND*
X127100000Y-136800000D03*
G04 #@! TO.P,J7,2*
G04 #@! TO.N,+3V3*
X128100000Y-136800000D03*
G04 #@! TO.P,J7,3*
G04 #@! TO.N,sda*
X129100000Y-136800000D03*
G04 #@! TO.P,J7,4*
G04 #@! TO.N,scl*
X130100000Y-136800000D03*
D23*
G04 #@! TO.P,J7,MP*
G04 #@! TO.N,N/C*
X125800000Y-140675000D03*
X131400000Y-140675000D03*
G04 #@! TD*
D24*
G04 #@! TO.P,U5,32*
G04 #@! TO.N,led*
X133950000Y-112750000D03*
G04 #@! TO.P,U5,31*
G04 #@! TO.N,txd_3v3*
X133950000Y-111950000D03*
G04 #@! TO.P,U5,30*
G04 #@! TO.N,rxd_3v3*
X133950000Y-111150000D03*
G04 #@! TO.P,U5,29*
G04 #@! TO.N,reset*
X133950000Y-110350000D03*
G04 #@! TO.P,U5,28*
G04 #@! TO.N,scl*
X133950000Y-109550000D03*
G04 #@! TO.P,U5,27*
G04 #@! TO.N,sda*
X133950000Y-108750000D03*
G04 #@! TO.P,U5,26*
G04 #@! TO.N,Net-(U5-Pad26)*
X133950000Y-107950000D03*
G04 #@! TO.P,U5,25*
G04 #@! TO.N,Net-(TP4-Pad1)*
X133950000Y-107150000D03*
D25*
G04 #@! TO.P,U5,24*
G04 #@! TO.N,Net-(TP3-Pad1)*
X135400000Y-105700000D03*
G04 #@! TO.P,U5,23*
G04 #@! TO.N,Net-(TP2-Pad1)*
X136200000Y-105700000D03*
G04 #@! TO.P,U5,22*
G04 #@! TO.N,Net-(U5-Pad22)*
X137000000Y-105700000D03*
G04 #@! TO.P,U5,21*
G04 #@! TO.N,GND*
X137800000Y-105700000D03*
G04 #@! TO.P,U5,20*
G04 #@! TO.N,Net-(C13-Pad1)*
X138600000Y-105700000D03*
G04 #@! TO.P,U5,19*
G04 #@! TO.N,Net-(U5-Pad19)*
X139400000Y-105700000D03*
G04 #@! TO.P,U5,18*
G04 #@! TO.N,Net-(C13-Pad1)*
X140200000Y-105700000D03*
G04 #@! TO.P,U5,17*
G04 #@! TO.N,sck*
X141000000Y-105700000D03*
D24*
G04 #@! TO.P,U5,16*
G04 #@! TO.N,miso*
X142450000Y-107150000D03*
G04 #@! TO.P,U5,15*
G04 #@! TO.N,mosi*
X142450000Y-107950000D03*
G04 #@! TO.P,U5,14*
G04 #@! TO.N,Net-(U5-Pad14)*
X142450000Y-108750000D03*
G04 #@! TO.P,U5,13*
G04 #@! TO.N,Net-(U5-Pad13)*
X142450000Y-109550000D03*
G04 #@! TO.P,U5,12*
G04 #@! TO.N,Net-(U5-Pad12)*
X142450000Y-110350000D03*
G04 #@! TO.P,U5,11*
G04 #@! TO.N,cs_1*
X142450000Y-111150000D03*
G04 #@! TO.P,U5,10*
G04 #@! TO.N,cs_0*
X142450000Y-111950000D03*
G04 #@! TO.P,U5,9*
G04 #@! TO.N,do*
X142450000Y-112750000D03*
D25*
G04 #@! TO.P,U5,8*
G04 #@! TO.N,Net-(U5-Pad8)*
X141000000Y-114200000D03*
G04 #@! TO.P,U5,7*
G04 #@! TO.N,Net-(U5-Pad7)*
X140200000Y-114200000D03*
G04 #@! TO.P,U5,6*
G04 #@! TO.N,Net-(C13-Pad1)*
X139400000Y-114200000D03*
G04 #@! TO.P,U5,5*
G04 #@! TO.N,GND*
X138600000Y-114200000D03*
G04 #@! TO.P,U5,4*
G04 #@! TO.N,Net-(C13-Pad1)*
X137800000Y-114200000D03*
G04 #@! TO.P,U5,3*
G04 #@! TO.N,GND*
X137000000Y-114200000D03*
G04 #@! TO.P,U5,2*
G04 #@! TO.N,Net-(U5-Pad2)*
X136200000Y-114200000D03*
G04 #@! TO.P,U5,1*
G04 #@! TO.N,Net-(U5-Pad1)*
X135400000Y-114200000D03*
G04 #@! TD*
D26*
G04 #@! TO.P,U1,1*
G04 #@! TO.N,+5V*
X129100000Y-105950000D03*
G04 #@! TO.P,U1,2*
G04 #@! TO.N,GND*
X129100000Y-105000000D03*
G04 #@! TO.P,U1,3*
G04 #@! TO.N,+5V*
X129100000Y-104050000D03*
G04 #@! TO.P,U1,4*
G04 #@! TO.N,Net-(C5-Pad1)*
X126400000Y-104050000D03*
G04 #@! TO.P,U1,5*
G04 #@! TO.N,+3V3*
X126400000Y-105950000D03*
G04 #@! TD*
D16*
G04 #@! TO.P,Q2,3*
G04 #@! TO.N,rxd*
X130500000Y-95500000D03*
D27*
G04 #@! TO.P,Q2,2*
G04 #@! TO.N,rxd_3v3*
X126950000Y-96500000D03*
G04 #@! TO.P,Q2,1*
G04 #@! TO.N,+3V3*
X126950000Y-94500000D03*
G04 #@! TD*
G04 #@! TO.P,Q1,1*
G04 #@! TO.N,+3V3*
X142050000Y-96500000D03*
G04 #@! TO.P,Q1,2*
G04 #@! TO.N,txd_3v3*
X142050000Y-94500000D03*
D16*
G04 #@! TO.P,Q1,3*
G04 #@! TO.N,txd*
X138500000Y-95500000D03*
G04 #@! TD*
D28*
G04 #@! TO.P,U4,14*
G04 #@! TO.N,+5V*
X134480000Y-86150000D03*
G04 #@! TO.P,U4,13*
G04 #@! TO.N,Net-(U4-Pad13)*
X135750000Y-86150000D03*
G04 #@! TO.P,U4,12*
G04 #@! TO.N,/in+*
X137020000Y-86150000D03*
G04 #@! TO.P,U4,11*
G04 #@! TO.N,/in-*
X138290000Y-86150000D03*
G04 #@! TO.P,U4,10*
G04 #@! TO.N,/out-*
X139560000Y-86150000D03*
G04 #@! TO.P,U4,9*
G04 #@! TO.N,/out+*
X140830000Y-86150000D03*
G04 #@! TO.P,U4,8*
G04 #@! TO.N,N/C*
X142100000Y-86150000D03*
G04 #@! TO.P,U4,7*
G04 #@! TO.N,GND*
X142100000Y-91550000D03*
G04 #@! TO.P,U4,6*
X140830000Y-91550000D03*
G04 #@! TO.P,U4,5*
G04 #@! TO.N,txd*
X139560000Y-91550000D03*
G04 #@! TO.P,U4,4*
G04 #@! TO.N,Net-(R5-Pad2)*
X138290000Y-91550000D03*
G04 #@! TO.P,U4,3*
G04 #@! TO.N,GND*
X137020000Y-91550000D03*
G04 #@! TO.P,U4,2*
G04 #@! TO.N,rxd*
X135750000Y-91550000D03*
G04 #@! TO.P,U4,1*
G04 #@! TO.N,Net-(U4-Pad1)*
X134480000Y-91550000D03*
G04 #@! TD*
D16*
G04 #@! TO.P,D6,3*
G04 #@! TO.N,GND*
X133560000Y-68060000D03*
D17*
G04 #@! TO.P,D6,2*
G04 #@! TO.N,/in-*
X134560000Y-71610000D03*
G04 #@! TO.P,D6,1*
G04 #@! TO.N,/in+*
X132560000Y-71610000D03*
G04 #@! TD*
G04 #@! TO.P,D8,1*
G04 #@! TO.N,/out-*
X140730000Y-71580000D03*
G04 #@! TO.P,D8,2*
G04 #@! TO.N,/out+*
X142730000Y-71580000D03*
D16*
G04 #@! TO.P,D8,3*
G04 #@! TO.N,GND*
X141730000Y-68030000D03*
G04 #@! TD*
D29*
G04 #@! TO.N,GND*
X138589855Y-101975010D03*
X125850000Y-136300000D03*
X142859849Y-114710000D03*
X135115000Y-116010000D03*
X137090000Y-92920000D03*
X140780000Y-92870000D03*
X135420000Y-68910000D03*
X140090000Y-68030000D03*
X138110000Y-128550000D03*
X138500009Y-130000008D03*
X138610000Y-115477136D03*
X131100000Y-81500000D03*
X128630000Y-81500000D03*
X128572875Y-83077214D03*
X128700010Y-79759758D03*
X127350000Y-79544998D03*
X127300000Y-83295002D03*
X131270000Y-83030000D03*
X131141408Y-79717897D03*
X126090000Y-105000000D03*
X126990000Y-105010000D03*
X127900000Y-105000000D03*
X126087050Y-81266858D03*
X143825000Y-127649998D03*
X128495403Y-113036994D03*
X135890000Y-78150000D03*
X137920000Y-75680000D03*
X140417390Y-115800860D03*
X128016000Y-121412000D03*
X128900010Y-101200000D03*
X129000000Y-85700000D03*
X130100000Y-93300000D03*
X131300000Y-123600000D03*
X132430000Y-131080000D03*
X131310000Y-120110000D03*
G04 #@! TO.N,+3V3*
X141120000Y-97570000D03*
X137430000Y-99200000D03*
X138950000Y-126660000D03*
X126180000Y-98120000D03*
X132700000Y-127050000D03*
X128900000Y-107420000D03*
X129730000Y-102800000D03*
X127862000Y-138412000D03*
X126840000Y-130060000D03*
X125775000Y-133586000D03*
X126699990Y-92964999D03*
X127680000Y-106775000D03*
X127560000Y-108080000D03*
G04 #@! TO.N,+5V*
X139280000Y-77960000D03*
X133450000Y-87170000D03*
X132570000Y-85950000D03*
X128800000Y-89300000D03*
X132630000Y-84300000D03*
X127800000Y-103000000D03*
X127700000Y-90900000D03*
X128100000Y-90100000D03*
G04 #@! TO.N,Net-(C4-Pad2)*
X143823515Y-119869562D03*
G04 #@! TO.N,Net-(C4-Pad1)*
X138800000Y-125080000D03*
G04 #@! TO.N,Net-(C3-Pad2)*
X137140002Y-124850000D03*
G04 #@! TO.N,Net-(C3-Pad1)*
X132545010Y-129290000D03*
G04 #@! TO.N,rxd_3v3*
X129725447Y-111188387D03*
X132589221Y-111248571D03*
G04 #@! TO.N,txd_3v3*
X130243232Y-112045842D03*
X132593265Y-112250000D03*
G04 #@! TO.N,do*
X138500000Y-120000000D03*
G04 #@! TO.N,cs_1*
X138500000Y-123250000D03*
G04 #@! TO.N,cs_0*
X138500000Y-121500000D03*
G04 #@! TO.N,sck*
X142000000Y-103250000D03*
G04 #@! TO.N,miso*
X143250000Y-98750000D03*
G04 #@! TO.N,mosi*
X143500000Y-102750000D03*
G04 #@! TO.N,reset*
X131820000Y-115320000D03*
X142864135Y-116210245D03*
X128890000Y-118250000D03*
G04 #@! TO.N,Net-(TP4-Pad1)*
X134348801Y-106158752D03*
G04 #@! TO.N,Net-(TP3-Pad1)*
X134077813Y-105021443D03*
G04 #@! TO.N,Net-(TP2-Pad1)*
X134250022Y-101739827D03*
G04 #@! TO.N,led*
X133840000Y-113620000D03*
G04 #@! TD*
D30*
G04 #@! TO.N,GND*
X137800000Y-103700000D02*
X138000000Y-103500000D01*
X137800000Y-105700000D02*
X137800000Y-103700000D01*
X138000000Y-103500000D02*
X138000000Y-102564865D01*
X138189856Y-102375009D02*
X138589855Y-101975010D01*
X138000000Y-102564865D02*
X138189856Y-102375009D01*
X136924999Y-115325001D02*
X137000000Y-115250000D01*
X135799999Y-115325001D02*
X136924999Y-115325001D01*
X137000000Y-115250000D02*
X137000000Y-114200000D01*
X127100000Y-136800000D02*
X126350000Y-136800000D01*
X126350000Y-136800000D02*
X125850000Y-136300000D01*
X128440000Y-113650000D02*
X127360000Y-113650000D01*
X134000000Y-117000000D02*
X134125000Y-117000000D01*
X135115000Y-116010000D02*
X135799999Y-115325001D01*
X142100000Y-91550000D02*
X140830000Y-91550000D01*
X137020000Y-91550000D02*
X137020000Y-92850000D01*
X137020000Y-92850000D02*
X137090000Y-92920000D01*
X140830000Y-91550000D02*
X140830000Y-92820000D01*
X140830000Y-92820000D02*
X140780000Y-92870000D01*
X138360000Y-68910000D02*
X138840000Y-68910000D01*
X136810000Y-68910000D02*
X136810000Y-69010000D01*
X136810000Y-68910000D02*
X135420000Y-68910000D01*
X135420000Y-68910000D02*
X134410000Y-68910000D01*
D31*
X139050017Y-129450000D02*
X138900008Y-129600009D01*
X137950001Y-129450000D02*
X138100010Y-129600009D01*
X141750000Y-129450000D02*
X139050017Y-129450000D01*
X138100010Y-129600009D02*
X138500009Y-130000008D01*
X138900008Y-129600009D02*
X138500009Y-130000008D01*
X135250000Y-129450000D02*
X137950001Y-129450000D01*
D30*
X138600000Y-114200000D02*
X138600000Y-115467136D01*
X138600000Y-115467136D02*
X138610000Y-115477136D01*
D32*
X131100000Y-79759305D02*
X131141408Y-79717897D01*
X129100000Y-105000000D02*
X127900000Y-105000000D01*
D33*
X129100000Y-105000000D02*
X126090000Y-105000000D01*
D30*
X126190000Y-113775000D02*
X126190000Y-113650000D01*
X134290000Y-116930000D02*
X135115000Y-116105000D01*
X135115000Y-116105000D02*
X135115000Y-116010000D01*
X133040000Y-116930000D02*
X134290000Y-116930000D01*
D32*
X128230000Y-114400000D02*
X128250000Y-114420000D01*
X126190000Y-114400000D02*
X128230000Y-114400000D01*
X128495403Y-114174597D02*
X128495403Y-113602679D01*
X128250000Y-114420000D02*
X128495403Y-114174597D01*
X128495403Y-113602679D02*
X128495403Y-113036994D01*
X126180000Y-121430000D02*
X126390000Y-121640000D01*
X126180000Y-119610000D02*
X126180000Y-121430000D01*
X137830000Y-73970000D02*
X137830000Y-75590000D01*
X137830000Y-75590000D02*
X137920000Y-75680000D01*
D31*
X130020000Y-68060000D02*
X130000000Y-68080000D01*
X133560000Y-68060000D02*
X130020000Y-68060000D01*
X134010000Y-68060000D02*
X134570000Y-68620000D01*
X133560000Y-68060000D02*
X134010000Y-68060000D01*
X134410000Y-68910000D02*
X133560000Y-68060000D01*
X136810000Y-68910000D02*
X134410000Y-68910000D01*
X139210000Y-68910000D02*
X140090000Y-68030000D01*
X138840000Y-68910000D02*
X139210000Y-68910000D01*
X140090000Y-68030000D02*
X141730000Y-68030000D01*
D30*
X140000000Y-116218250D02*
X140417390Y-115800860D01*
X140000000Y-116827138D02*
X140000000Y-116218250D01*
X126390000Y-121640000D02*
X127788000Y-121640000D01*
X127788000Y-121640000D02*
X128016000Y-121412000D01*
D32*
X130290000Y-101200000D02*
X129465695Y-101200000D01*
X130380000Y-101110000D02*
X130290000Y-101200000D01*
D30*
X129500000Y-90790000D02*
X129500000Y-90895695D01*
X129401492Y-90994203D02*
X128950571Y-90994203D01*
D32*
X129465695Y-101200000D02*
X128900010Y-101200000D01*
D30*
X129500000Y-90895695D02*
X129401492Y-90994203D01*
X129500000Y-91540000D02*
X129500000Y-92700000D01*
X129500000Y-92700000D02*
X130100000Y-93300000D01*
D31*
X126600000Y-120030000D02*
X126180000Y-119610000D01*
X126698000Y-121412000D02*
X128016000Y-121412000D01*
X126600000Y-121510000D02*
X126698000Y-121412000D01*
X126600000Y-123400000D02*
X126600000Y-121510000D01*
X126600000Y-121510000D02*
X126600000Y-120030000D01*
D32*
X133780000Y-129690000D02*
X132730000Y-130740000D01*
X135280000Y-129690000D02*
X133780000Y-129690000D01*
X132730000Y-130740000D02*
X132080000Y-130740000D01*
X132080000Y-130740000D02*
X131230000Y-129890000D01*
D31*
X131230000Y-129890000D02*
X131230000Y-128030000D01*
X131230000Y-128030000D02*
X131230000Y-123670000D01*
X131230000Y-123670000D02*
X131300000Y-123600000D01*
X133820000Y-129690000D02*
X132430000Y-131080000D01*
X135280000Y-129690000D02*
X133820000Y-129690000D01*
X131240000Y-129890000D02*
X132430000Y-131080000D01*
X131230000Y-129890000D02*
X131240000Y-129890000D01*
X131300000Y-120120000D02*
X131310000Y-120110000D01*
X131300000Y-123600000D02*
X131300000Y-120120000D01*
D30*
G04 #@! TO.N,+3V3*
X127000000Y-134550000D02*
X126900000Y-134550000D01*
X128100000Y-135650000D02*
X127000000Y-134550000D01*
X128100000Y-136800000D02*
X128100000Y-135650000D01*
X126850000Y-132250000D02*
X126900000Y-132300000D01*
X142050000Y-96500000D02*
X142050000Y-96640000D01*
X142050000Y-96640000D02*
X141120000Y-97570000D01*
X137730000Y-99500000D02*
X137430000Y-99200000D01*
X138800000Y-99500000D02*
X137730000Y-99500000D01*
X126850000Y-130050000D02*
X126850000Y-131180000D01*
X126850000Y-131180000D02*
X126850000Y-132250000D01*
X126800000Y-99500000D02*
X126800000Y-98740000D01*
X126800000Y-98740000D02*
X126180000Y-98120000D01*
D32*
X131750000Y-104600000D02*
X131400000Y-104950000D01*
X131750000Y-103250000D02*
X131750000Y-104600000D01*
X131400000Y-104950000D02*
X131400000Y-105910000D01*
X126855000Y-105950000D02*
X126400000Y-105950000D01*
X127680000Y-106775000D02*
X126855000Y-105950000D01*
X131400000Y-105910000D02*
X130535000Y-106775000D01*
X128250000Y-110420000D02*
X128250000Y-108920000D01*
X128250000Y-108920000D02*
X128900000Y-108270000D01*
X130535000Y-106775000D02*
X128900000Y-106775000D01*
X128900000Y-106775000D02*
X127680000Y-106775000D01*
X128900000Y-108270000D02*
X128900000Y-107420000D01*
X128900000Y-107420000D02*
X128900000Y-106775000D01*
X128230000Y-110400000D02*
X128250000Y-110420000D01*
X126190000Y-110400000D02*
X128230000Y-110400000D01*
X129500001Y-113059999D02*
X129480000Y-113039998D01*
X129500001Y-115780001D02*
X129500001Y-113059999D01*
X129410001Y-115870001D02*
X129500001Y-115780001D01*
X127569999Y-115870001D02*
X129410001Y-115870001D01*
X126230000Y-117110000D02*
X126330000Y-117110000D01*
X126330000Y-117110000D02*
X127569999Y-115870001D01*
X129480000Y-112540612D02*
X128875446Y-111936058D01*
X129480000Y-113039998D02*
X129480000Y-112540612D01*
X128875446Y-111936058D02*
X128875446Y-111045446D01*
X128875446Y-111045446D02*
X128250000Y-110420000D01*
X131750000Y-103250000D02*
X130180000Y-103250000D01*
X130180000Y-103250000D02*
X129730000Y-102800000D01*
D30*
X128100000Y-136800000D02*
X128100000Y-138174000D01*
X128100000Y-138174000D02*
X127862000Y-138412000D01*
X126900000Y-133586000D02*
X125775000Y-133586000D01*
X126900000Y-134550000D02*
X126900000Y-133586000D01*
X126900000Y-133586000D02*
X126900000Y-132300000D01*
X126950000Y-93215009D02*
X126699990Y-92964999D01*
X126950000Y-94500000D02*
X126950000Y-93215009D01*
D31*
X126600000Y-134250000D02*
X126900000Y-134550000D01*
X126600000Y-127400000D02*
X126600000Y-134250000D01*
X125775000Y-133425000D02*
X126900000Y-132300000D01*
X125775000Y-133586000D02*
X125775000Y-133425000D01*
X128900000Y-107420000D02*
X128325000Y-107420000D01*
X128325000Y-107420000D02*
X127680000Y-106775000D01*
X128900000Y-107420000D02*
X128220000Y-107420000D01*
X128220000Y-107420000D02*
X127560000Y-108080000D01*
D30*
G04 #@! TO.N,+5V*
X132330000Y-88290000D02*
X130930000Y-88290000D01*
X130930000Y-88290000D02*
X129500000Y-88290000D01*
D33*
X132330000Y-88290000D02*
X131030000Y-88290000D01*
X131030000Y-88290000D02*
X129500000Y-88290000D01*
X133000000Y-94500000D02*
X133000000Y-94610000D01*
D31*
X137840000Y-77960000D02*
X137830000Y-77970000D01*
X139280000Y-77960000D02*
X137840000Y-77960000D01*
X139990000Y-80130000D02*
X137830000Y-77970000D01*
X139990000Y-81490000D02*
X139990000Y-80130000D01*
X132570000Y-88050000D02*
X132330000Y-88290000D01*
X134470000Y-86150000D02*
X133450000Y-87170000D01*
X134480000Y-86150000D02*
X134470000Y-86150000D01*
D33*
X133450000Y-87170000D02*
X132330000Y-88290000D01*
D31*
X129660000Y-87540000D02*
X130410000Y-88290000D01*
X129500000Y-87540000D02*
X129660000Y-87540000D01*
X129500000Y-87540000D02*
X129500000Y-88090002D01*
X129500000Y-88090002D02*
X128430002Y-89160000D01*
D32*
X129930000Y-104050000D02*
X130440000Y-104560000D01*
X129100000Y-104050000D02*
X129930000Y-104050000D01*
X130440000Y-104560000D02*
X130440000Y-105880036D01*
X130440000Y-105880036D02*
X130370036Y-105950000D01*
X130370036Y-105950000D02*
X129100000Y-105950000D01*
X128645000Y-104050000D02*
X129100000Y-104050000D01*
D31*
X132630000Y-84300000D02*
X134480000Y-86150000D01*
X132630000Y-81780000D02*
X132630000Y-84300000D01*
D32*
X129100000Y-104050000D02*
X128850000Y-104050000D01*
X128850000Y-104050000D02*
X127800000Y-103000000D01*
X130660001Y-90089999D02*
X130750001Y-90179999D01*
X130149999Y-88550001D02*
X130149999Y-90089999D01*
X130149999Y-90089999D02*
X130660001Y-90089999D01*
X130750001Y-90179999D02*
X130750001Y-92250001D01*
X130410000Y-88290000D02*
X130149999Y-88550001D01*
X130750001Y-92250001D02*
X133000000Y-94500000D01*
X133000000Y-96850000D02*
X132950000Y-96900000D01*
X133000000Y-94500000D02*
X133000000Y-96850000D01*
D30*
G04 #@! TO.N,Net-(C4-Pad2)*
X142090000Y-123110000D02*
X142090000Y-121603077D01*
X142090000Y-121603077D02*
X143823515Y-119869562D01*
G04 #@! TO.N,Net-(C4-Pad1)*
X142090000Y-127110000D02*
X140830000Y-127110000D01*
X140830000Y-127110000D02*
X138800000Y-125080000D01*
G04 #@! TO.N,Net-(C3-Pad2)*
X135790000Y-124850000D02*
X136574317Y-124850000D01*
X136574317Y-124850000D02*
X137140002Y-124850000D01*
X135210000Y-124270000D02*
X135790000Y-124850000D01*
X135210000Y-123020000D02*
X135210000Y-124270000D01*
G04 #@! TO.N,Net-(C3-Pad1)*
X132545010Y-128724315D02*
X132545010Y-129290000D01*
X132545010Y-128579990D02*
X132545010Y-128724315D01*
X134125000Y-127000000D02*
X132545010Y-128579990D01*
X134250000Y-127000000D02*
X134125000Y-127000000D01*
X134270000Y-127020000D02*
X134250000Y-127000000D01*
X135210000Y-127020000D02*
X134270000Y-127020000D01*
G04 #@! TO.N,rxd*
X135750000Y-91550000D02*
X135750000Y-92550000D01*
X134624999Y-93675001D02*
X134624999Y-95473171D01*
X135750000Y-92550000D02*
X134624999Y-93675001D01*
D32*
X130500000Y-97000000D02*
X130500000Y-95500000D01*
X131550000Y-98050000D02*
X130500000Y-97000000D01*
X134400000Y-98050000D02*
X131550000Y-98050000D01*
X135550000Y-96900000D02*
X134400000Y-98050000D01*
D30*
X134624999Y-95974999D02*
X134624999Y-95473171D01*
X135550000Y-96900000D02*
X134624999Y-95974999D01*
X135650000Y-96900000D02*
X135550000Y-96900000D01*
G04 #@! TO.N,txd*
X135700000Y-95400000D02*
X135700000Y-94500000D01*
X135800000Y-95500000D02*
X135700000Y-95400000D01*
X138500000Y-95500000D02*
X135800000Y-95500000D01*
X139560000Y-94440000D02*
X138500000Y-95500000D01*
X139560000Y-91550000D02*
X139560000Y-94440000D01*
G04 #@! TO.N,rxd_3v3*
X129500000Y-99500000D02*
X129600000Y-99500000D01*
X132687792Y-111150000D02*
X132589221Y-111248571D01*
X133950000Y-111150000D02*
X132687792Y-111150000D01*
X130110000Y-99210000D02*
X129110000Y-99210000D01*
X133075001Y-101275001D02*
X131010000Y-99210000D01*
X133075001Y-104314840D02*
X133075001Y-101275001D01*
X131010000Y-99210000D02*
X130110000Y-99210000D01*
X132902800Y-104487041D02*
X133075001Y-104314840D01*
X129725447Y-108888142D02*
X132902800Y-105710789D01*
X129725447Y-111188387D02*
X129725447Y-108888142D01*
X132902800Y-105710789D02*
X132902800Y-104487041D01*
D32*
X129110000Y-98660000D02*
X126950000Y-96500000D01*
X129110000Y-99210000D02*
X129110000Y-98660000D01*
D30*
G04 #@! TO.N,txd_3v3*
X141500000Y-99500000D02*
X141400000Y-99500000D01*
X141400000Y-99500000D02*
X140424999Y-98524999D01*
X140224999Y-95425001D02*
X140224999Y-98499998D01*
X140224999Y-98499998D02*
X140250000Y-98524999D01*
X142050000Y-94500000D02*
X141150000Y-94500000D01*
X140424999Y-98524999D02*
X140250000Y-98524999D01*
X141150000Y-94500000D02*
X140224999Y-95425001D01*
X133950000Y-111950000D02*
X132893265Y-111950000D01*
X132893265Y-111950000D02*
X132593265Y-112250000D01*
X133352811Y-106147189D02*
X130500000Y-109000000D01*
X133352811Y-104718602D02*
X133352811Y-106147189D01*
X140250000Y-98524999D02*
X140199999Y-98474998D01*
X130500000Y-109000000D02*
X130500000Y-111789074D01*
X133525012Y-101291984D02*
X133525012Y-104546401D01*
X130500000Y-111789074D02*
X130243232Y-112045842D01*
X133525012Y-104546401D02*
X133352811Y-104718602D01*
X140199999Y-98474998D02*
X136341998Y-98474998D01*
X136341998Y-98474998D02*
X133525012Y-101291984D01*
G04 #@! TO.N,Net-(R5-Pad2)*
X138290000Y-91100000D02*
X138290000Y-91550000D01*
X133404998Y-90990000D02*
X133919999Y-90474999D01*
X133919999Y-90474999D02*
X137664999Y-90474999D01*
X137664999Y-90474999D02*
X138290000Y-91100000D01*
X132330000Y-90990000D02*
X133404998Y-90990000D01*
D32*
G04 #@! TO.N,Net-(C5-Pad1)*
X126380000Y-104030000D02*
X126400000Y-104050000D01*
X126380000Y-101110000D02*
X126380000Y-104030000D01*
D30*
X126500000Y-102250000D02*
X126500000Y-103950000D01*
X126500000Y-103950000D02*
X126400000Y-104050000D01*
G04 #@! TO.N,do*
X139000000Y-120250000D02*
X138850001Y-120250000D01*
X138750000Y-120250000D02*
X138500000Y-120000000D01*
X139000000Y-120250000D02*
X138750000Y-120250000D01*
X142450000Y-112750000D02*
X142450000Y-113275000D01*
X139343590Y-120250000D02*
X139000000Y-120250000D01*
X142134477Y-113590523D02*
X142134477Y-117459113D01*
X142134477Y-117459113D02*
X139343590Y-120250000D01*
X142450000Y-113275000D02*
X142134477Y-113590523D01*
D31*
G04 #@! TO.N,Net-(D1-Pad2)*
X136500000Y-133460000D02*
X136280000Y-133240000D01*
X136500000Y-136000000D02*
X136500000Y-133460000D01*
G04 #@! TO.N,Net-(D2-Pad2)*
X143040000Y-133500000D02*
X142780000Y-133240000D01*
X143040000Y-136000000D02*
X143040000Y-133500000D01*
D30*
G04 #@! TO.N,scl*
X130100000Y-135050000D02*
X130100000Y-136800000D01*
X129600000Y-134550000D02*
X130100000Y-135050000D01*
X130194991Y-122561420D02*
X130474989Y-122281422D01*
X130980009Y-113018478D02*
X131418244Y-112580243D01*
X131400022Y-110622800D02*
X132472822Y-109550000D01*
X130474989Y-122281422D02*
X130474989Y-119778270D01*
X129600000Y-133650000D02*
X130734989Y-132515011D01*
X129600000Y-134550000D02*
X129600000Y-133650000D01*
X132900000Y-109550000D02*
X133950000Y-109550000D01*
X130194991Y-130021732D02*
X130194991Y-122561420D01*
X130474989Y-119778270D02*
X130980009Y-119273250D01*
X131400022Y-111493219D02*
X131400022Y-110622800D01*
X132472822Y-109550000D02*
X132900000Y-109550000D01*
X131418244Y-112580243D02*
X131418244Y-111511441D01*
X131418244Y-111511441D02*
X131400022Y-111493219D01*
X130980009Y-119273250D02*
X130980009Y-113018478D01*
X130734989Y-130561730D02*
X130194991Y-130021732D01*
X130734989Y-132515011D02*
X130734989Y-130561730D01*
G04 #@! TO.N,sda*
X128524999Y-135460001D02*
X129100000Y-136035002D01*
X128524999Y-132365001D02*
X128524999Y-135460001D01*
X129540000Y-131350000D02*
X128524999Y-132365001D01*
X129100000Y-136035002D02*
X129100000Y-136800000D01*
X129640000Y-131350000D02*
X129540000Y-131350000D01*
X130500000Y-112862076D02*
X130500000Y-119116849D01*
X130024978Y-119591870D02*
X130024978Y-122095022D01*
X132636411Y-108750000D02*
X130950011Y-110436400D01*
X130968233Y-112393843D02*
X130500000Y-112862076D01*
X129600000Y-126850000D02*
X129600000Y-131400000D01*
X130950011Y-110436400D02*
X130950011Y-111679619D01*
X130024978Y-122095022D02*
X129600000Y-122520000D01*
X130950011Y-111679619D02*
X130968233Y-111697841D01*
X130500000Y-119116849D02*
X130024978Y-119591870D01*
X133950000Y-108750000D02*
X132636411Y-108750000D01*
X130968233Y-111697841D02*
X130968233Y-112393843D01*
X129600000Y-122520000D02*
X129600000Y-126850000D01*
G04 #@! TO.N,cs_1*
X144025012Y-114004893D02*
X144025012Y-111675012D01*
X144032883Y-114012720D02*
X144025012Y-114004893D01*
X144025012Y-111675012D02*
X143500000Y-111150000D01*
X144041326Y-117708674D02*
X144041326Y-116968115D01*
X143500000Y-111150000D02*
X142450000Y-111150000D01*
X144041326Y-116968115D02*
X144032883Y-114012720D01*
X138500000Y-123250000D02*
X144041326Y-117708674D01*
G04 #@! TO.N,cs_0*
X143590782Y-117315629D02*
X143590782Y-116782266D01*
X143583407Y-114200405D02*
X143575001Y-114191999D01*
X143500000Y-111950000D02*
X142450000Y-111950000D01*
X143575001Y-114191999D02*
X143575001Y-112025001D01*
X143590782Y-116782266D02*
X143583407Y-114200405D01*
X139406411Y-121500000D02*
X143590782Y-117315629D01*
X138500000Y-121500000D02*
X139406411Y-121500000D01*
X143575001Y-112025001D02*
X143500000Y-111950000D01*
G04 #@! TO.N,Net-(U5-Pad8)*
X141525000Y-115250000D02*
X141000000Y-114725000D01*
X141000000Y-114725000D02*
X141000000Y-114200000D01*
X141525000Y-115502138D02*
X141525000Y-115250000D01*
X141200000Y-115827138D02*
X141525000Y-115502138D01*
X141200000Y-116827138D02*
X141200000Y-115827138D01*
G04 #@! TO.N,Net-(U5-Pad7)*
X138800000Y-116460002D02*
X138800000Y-116827138D01*
X139424990Y-115827138D02*
X139424990Y-115823826D01*
X139300000Y-115827138D02*
X139424990Y-115827138D01*
X138800000Y-116827138D02*
X138800000Y-116327138D01*
X138800000Y-116327138D02*
X139300000Y-115827138D01*
X140012884Y-115132362D02*
X139424990Y-115720256D01*
X140200000Y-114875001D02*
X140012884Y-115132362D01*
X140200000Y-114200000D02*
X140200000Y-114875001D01*
X139424990Y-115720256D02*
X139424990Y-115827138D01*
G04 #@! TO.N,sck*
X141000000Y-105700000D02*
X141000000Y-105175000D01*
X141000000Y-105175000D02*
X142000000Y-104175000D01*
X142000000Y-104175000D02*
X142000000Y-103250000D01*
G04 #@! TO.N,miso*
X142774998Y-106300002D02*
X142774998Y-99225002D01*
X142774998Y-99225002D02*
X142850001Y-99149999D01*
X142450000Y-106625000D02*
X142774998Y-106300002D01*
X142850001Y-99149999D02*
X143250000Y-98750000D01*
X142450000Y-107150000D02*
X142450000Y-106625000D01*
G04 #@! TO.N,mosi*
X143575001Y-107874999D02*
X143575001Y-102825001D01*
X143500000Y-107950000D02*
X143575001Y-107874999D01*
X143575001Y-102825001D02*
X143500000Y-102750000D01*
X142450000Y-107950000D02*
X143500000Y-107950000D01*
G04 #@! TO.N,reset*
X131850033Y-115334282D02*
X131750000Y-115434315D01*
X128930000Y-118210000D02*
X128890000Y-118250000D01*
X128930000Y-117110000D02*
X128930000Y-118210000D01*
X128890000Y-119400000D02*
X128680000Y-119610000D01*
X128890000Y-118250000D02*
X128890000Y-119400000D01*
X131820000Y-115885685D02*
X131820000Y-115320000D01*
X131714999Y-115990686D02*
X131820000Y-115885685D01*
X131714999Y-118314999D02*
X131714999Y-115990686D01*
X133970000Y-120570000D02*
X131714999Y-118314999D01*
X137996998Y-120570000D02*
X133970000Y-120570000D01*
X142864135Y-116210245D02*
X142864135Y-116775930D01*
X142830000Y-116810065D02*
X142830000Y-117400000D01*
X138151999Y-120725001D02*
X137996998Y-120570000D01*
X142864135Y-116775930D02*
X142830000Y-116810065D01*
X142830000Y-117400000D02*
X139504999Y-120725001D01*
X139504999Y-120725001D02*
X138151999Y-120725001D01*
X131850033Y-111306819D02*
X131868255Y-111325041D01*
X131850033Y-110826963D02*
X131850033Y-111306819D01*
X132326996Y-110350000D02*
X131850033Y-110826963D01*
X131868255Y-114706060D02*
X131820000Y-114754315D01*
X131820000Y-114754315D02*
X131820000Y-115320000D01*
X133950000Y-110350000D02*
X132326996Y-110350000D01*
X131868255Y-111325041D02*
X131868255Y-114706060D01*
D31*
G04 #@! TO.N,Net-(D1-Pad1)*
X133960000Y-133560000D02*
X134280000Y-133240000D01*
X133960000Y-136000000D02*
X133960000Y-133560000D01*
G04 #@! TO.N,Net-(D2-Pad1)*
X140500000Y-133520000D02*
X140780000Y-133240000D01*
X140500000Y-136000000D02*
X140500000Y-133520000D01*
D30*
G04 #@! TO.N,Net-(TP4-Pad1)*
X133950000Y-106557553D02*
X134348801Y-106158752D01*
X133950000Y-107150000D02*
X133950000Y-106557553D01*
G04 #@! TO.N,Net-(TP3-Pad1)*
X135400000Y-105700000D02*
X135121442Y-105421442D01*
X134477812Y-105421442D02*
X134077813Y-105021443D01*
X135121442Y-105421442D02*
X134477812Y-105421442D01*
G04 #@! TO.N,Net-(TP2-Pad1)*
X136200000Y-104650000D02*
X136124999Y-104574999D01*
X136124999Y-104574999D02*
X134734817Y-104574999D01*
X134250022Y-102305512D02*
X134250022Y-101739827D01*
X136200000Y-105700000D02*
X136200000Y-104650000D01*
X134250022Y-104090204D02*
X134250022Y-102305512D01*
X134734817Y-104574999D02*
X134250022Y-104090204D01*
G04 #@! TO.N,led*
X133950000Y-112750000D02*
X133950000Y-113510000D01*
X133950000Y-113510000D02*
X133840000Y-113620000D01*
G04 #@! TO.N,/in-*
X138290000Y-84640000D02*
X137550000Y-83900000D01*
X138290000Y-86150000D02*
X138290000Y-84640000D01*
D32*
X134500001Y-75959999D02*
X134500001Y-78310001D01*
X137550000Y-81360000D02*
X137550000Y-83900000D01*
X135350000Y-75110000D02*
X134500001Y-75959999D01*
X134500001Y-78310001D02*
X137550000Y-81360000D01*
D31*
X136810000Y-71610000D02*
X134560000Y-71610000D01*
X134560000Y-74320000D02*
X135350000Y-75110000D01*
X134560000Y-71610000D02*
X134560000Y-74320000D01*
D30*
G04 #@! TO.N,/in+*
X136120000Y-84800000D02*
X135850000Y-84800000D01*
X137020000Y-85700000D02*
X136120000Y-84800000D01*
X134950000Y-83900000D02*
X134850000Y-83900000D01*
X135850000Y-84800000D02*
X134950000Y-83900000D01*
X137020000Y-86150000D02*
X137020000Y-85700000D01*
X134850000Y-81650000D02*
X134850000Y-83900000D01*
X132890000Y-75110000D02*
X132810000Y-75110000D01*
D32*
X132810000Y-76460000D02*
X132820000Y-76470000D01*
X132810000Y-75110000D02*
X132810000Y-76460000D01*
X135330000Y-80630000D02*
X135330000Y-81780000D01*
X132820000Y-78120000D02*
X135330000Y-80630000D01*
X132820000Y-76470000D02*
X132820000Y-78120000D01*
D31*
X132560000Y-74860000D02*
X132810000Y-75110000D01*
X132560000Y-71610000D02*
X132560000Y-74860000D01*
D30*
G04 #@! TO.N,/out-*
X139850000Y-85860000D02*
X139560000Y-86150000D01*
X139850000Y-83900000D02*
X139850000Y-85860000D01*
X140380000Y-75240000D02*
X140380000Y-76442081D01*
D32*
X140380000Y-75240000D02*
X140380000Y-77990000D01*
X139950000Y-83900000D02*
X139850000Y-83900000D01*
X141190001Y-78800001D02*
X141190001Y-82659999D01*
X141190001Y-82659999D02*
X139950000Y-83900000D01*
X140380000Y-77990000D02*
X141190001Y-78800001D01*
D31*
X140700000Y-71610000D02*
X140730000Y-71580000D01*
X138840000Y-71610000D02*
X140700000Y-71610000D01*
X140730000Y-74890000D02*
X140380000Y-75240000D01*
X140730000Y-71580000D02*
X140730000Y-74890000D01*
D30*
G04 #@! TO.N,/out+*
X142550000Y-83980000D02*
X142550000Y-83900000D01*
X140830000Y-85700000D02*
X142550000Y-83980000D01*
X142820000Y-81360000D02*
X142690000Y-81490000D01*
X142690000Y-83760000D02*
X142550000Y-83900000D01*
X142690000Y-81490000D02*
X142690000Y-83760000D01*
D32*
X140830000Y-85700000D02*
X140830000Y-86150000D01*
X142920000Y-83610000D02*
X140830000Y-85700000D01*
X142920000Y-75240000D02*
X142920000Y-83610000D01*
D31*
X142730000Y-75050000D02*
X142920000Y-75240000D01*
X142730000Y-71580000D02*
X142730000Y-75050000D01*
D30*
G04 #@! TO.N,Net-(C13-Pad1)*
X140500000Y-103500000D02*
X140200000Y-103800000D01*
X138750000Y-104500000D02*
X140200000Y-104500000D01*
X138600000Y-104650000D02*
X138750000Y-104500000D01*
X138600000Y-105700000D02*
X138600000Y-104650000D01*
X140200000Y-103800000D02*
X140200000Y-104500000D01*
X140200000Y-104500000D02*
X140200000Y-105700000D01*
X138600000Y-112350000D02*
X138600000Y-106750000D01*
X137800000Y-113150000D02*
X138600000Y-112350000D01*
X138600000Y-106750000D02*
X138600000Y-105700000D01*
X137800000Y-114200000D02*
X137800000Y-113150000D01*
X139400000Y-113150000D02*
X138600000Y-112350000D01*
X139400000Y-114200000D02*
X139400000Y-113150000D01*
X137800000Y-115250000D02*
X137800000Y-114200000D01*
X137800000Y-115825000D02*
X137800000Y-115250000D01*
X136625000Y-117000000D02*
X137800000Y-115825000D01*
X136500000Y-117000000D02*
X136625000Y-117000000D01*
X137040000Y-116790000D02*
X137710000Y-116120000D01*
X137040000Y-116930000D02*
X137040000Y-116790000D01*
D32*
X138050000Y-101100000D02*
X135900000Y-103250000D01*
X139225000Y-101100000D02*
X138050000Y-101100000D01*
X140500000Y-103500000D02*
X140500000Y-102375000D01*
X135900000Y-103250000D02*
X135750000Y-103250000D01*
X140500000Y-102375000D02*
X139225000Y-101100000D01*
G04 #@! TD*
M02*
