G04 #@! TF.GenerationSoftware,KiCad,Pcbnew,5.0.2-bee76a0~70~ubuntu18.04.1*
G04 #@! TF.CreationDate,2019-12-03T11:06:18+01:00*
G04 #@! TF.ProjectId,instrumnet,696e7374-7275-46d6-9e65-742e6b696361,rev?*
G04 #@! TF.SameCoordinates,Original*
G04 #@! TF.FileFunction,Legend,Top*
G04 #@! TF.FilePolarity,Positive*
%FSLAX46Y46*%
G04 Gerber Fmt 4.6, Leading zero omitted, Abs format (unit mm)*
G04 Created by KiCad (PCBNEW 5.0.2-bee76a0~70~ubuntu18.04.1) date Tue 03 Dec 2019 11:06:18 AM CET*
%MOMM*%
%LPD*%
G01*
G04 APERTURE LIST*
%ADD10C,0.250000*%
%ADD11C,0.200000*%
%ADD12C,0.187500*%
%ADD13C,0.150000*%
%ADD14C,0.120000*%
%ADD15C,0.062500*%
%ADD16C,0.075000*%
%ADD17C,0.125000*%
G04 APERTURE END LIST*
D10*
X129152380Y-78779538D02*
X128152380Y-78654538D01*
X128152380Y-78273586D01*
X128200000Y-78184300D01*
X128247619Y-78142633D01*
X128342857Y-78106919D01*
X128485714Y-78124776D01*
X128580952Y-78184300D01*
X128628571Y-78237872D01*
X128676190Y-78339062D01*
X128676190Y-78720014D01*
X128866666Y-77791443D02*
X128866666Y-77315252D01*
X129152380Y-77922395D02*
X128152380Y-77464062D01*
X129152380Y-77255729D01*
X129152380Y-76922395D02*
X128152380Y-76797395D01*
X129152380Y-76446205D02*
X128152380Y-76321205D01*
X129152380Y-75874776D01*
X128152380Y-75749776D01*
X128152380Y-75416443D02*
X128152380Y-74845014D01*
X129152380Y-75255729D02*
X128152380Y-75130729D01*
X129152380Y-74065252D02*
X128676190Y-74339062D01*
X129152380Y-74636681D02*
X128152380Y-74511681D01*
X128152380Y-74130729D01*
X128200000Y-74041443D01*
X128247619Y-73999776D01*
X128342857Y-73964062D01*
X128485714Y-73981919D01*
X128580952Y-74041443D01*
X128628571Y-74095014D01*
X128676190Y-74196205D01*
X128676190Y-74577157D01*
X128628571Y-73571205D02*
X128628571Y-73237872D01*
X129152380Y-73160491D02*
X129152380Y-73636681D01*
X128152380Y-73511681D01*
X128152380Y-73035491D01*
X128152380Y-71987872D02*
X129152380Y-71779538D01*
X128152380Y-71321205D01*
X128152380Y-70797395D02*
X128152380Y-70702157D01*
X128200000Y-70612872D01*
X128247619Y-70571205D01*
X128342857Y-70535491D01*
X128533333Y-70511681D01*
X128771428Y-70541443D01*
X128961904Y-70612872D01*
X129057142Y-70672395D01*
X129104761Y-70725967D01*
X129152380Y-70827157D01*
X129152380Y-70922395D01*
X129104761Y-71011681D01*
X129057142Y-71053348D01*
X128961904Y-71089062D01*
X128771428Y-71112872D01*
X128533333Y-71083110D01*
X128342857Y-71011681D01*
X128247619Y-70952157D01*
X128200000Y-70898586D01*
X128152380Y-70797395D01*
D11*
X141210000Y-83000000D02*
X141200000Y-82600000D01*
X144100000Y-82600000D02*
X136200000Y-82600000D01*
X136190000Y-83040000D02*
X136200000Y-82600000D01*
X143980000Y-79400000D02*
X140410000Y-79440000D01*
X144100000Y-82600000D02*
X143980000Y-79400000D01*
D12*
X140914285Y-79009285D02*
X140664285Y-78652142D01*
X140485714Y-79009285D02*
X140485714Y-78259285D01*
X140771428Y-78259285D01*
X140842857Y-78295000D01*
X140878571Y-78330714D01*
X140914285Y-78402142D01*
X140914285Y-78509285D01*
X140878571Y-78580714D01*
X140842857Y-78616428D01*
X140771428Y-78652142D01*
X140485714Y-78652142D01*
X141128571Y-78509285D02*
X141414285Y-78509285D01*
X141235714Y-78259285D02*
X141235714Y-78902142D01*
X141271428Y-78973571D01*
X141342857Y-79009285D01*
X141414285Y-79009285D01*
X141950000Y-78973571D02*
X141878571Y-79009285D01*
X141735714Y-79009285D01*
X141664285Y-78973571D01*
X141628571Y-78902142D01*
X141628571Y-78616428D01*
X141664285Y-78545000D01*
X141735714Y-78509285D01*
X141878571Y-78509285D01*
X141950000Y-78545000D01*
X141985714Y-78616428D01*
X141985714Y-78687857D01*
X141628571Y-78759285D01*
X142307142Y-79009285D02*
X142307142Y-78509285D01*
X142307142Y-78652142D02*
X142342857Y-78580714D01*
X142378571Y-78545000D01*
X142450000Y-78509285D01*
X142521428Y-78509285D01*
X142771428Y-79009285D02*
X142771428Y-78509285D01*
X142771428Y-78580714D02*
X142807142Y-78545000D01*
X142878571Y-78509285D01*
X142985714Y-78509285D01*
X143057142Y-78545000D01*
X143092857Y-78616428D01*
X143092857Y-79009285D01*
X143092857Y-78616428D02*
X143128571Y-78545000D01*
X143200000Y-78509285D01*
X143307142Y-78509285D01*
X143378571Y-78545000D01*
X143414285Y-78616428D01*
X143414285Y-79009285D01*
X136707142Y-67539285D02*
X136778571Y-67503571D01*
X136814285Y-67467857D01*
X136850000Y-67396428D01*
X136850000Y-67182142D01*
X136814285Y-67110714D01*
X136778571Y-67075000D01*
X136707142Y-67039285D01*
X136600000Y-67039285D01*
X136528571Y-67075000D01*
X136492857Y-67110714D01*
X136457142Y-67182142D01*
X136457142Y-67396428D01*
X136492857Y-67467857D01*
X136528571Y-67503571D01*
X136600000Y-67539285D01*
X136707142Y-67539285D01*
X136135714Y-67039285D02*
X136135714Y-67789285D01*
X136135714Y-67075000D02*
X136064285Y-67039285D01*
X135921428Y-67039285D01*
X135850000Y-67075000D01*
X135814285Y-67110714D01*
X135778571Y-67182142D01*
X135778571Y-67396428D01*
X135814285Y-67467857D01*
X135850000Y-67503571D01*
X135921428Y-67539285D01*
X136064285Y-67539285D01*
X136135714Y-67503571D01*
X135564285Y-67039285D02*
X135278571Y-67039285D01*
X135457142Y-66789285D02*
X135457142Y-67432142D01*
X135421428Y-67503571D01*
X135350000Y-67539285D01*
X135278571Y-67539285D01*
D13*
X125000000Y-64000000D02*
X144500000Y-64000000D01*
D11*
X135082843Y-89900000D02*
G75*
G03X135082843Y-89900000I-282843J0D01*
G01*
D12*
X135101060Y-121339285D02*
X135194810Y-120589285D01*
X135529631Y-121339285D02*
X135261774Y-120910714D01*
X135623381Y-120589285D02*
X135141238Y-121017857D01*
X135886774Y-121053571D02*
X136458203Y-121053571D01*
X136734988Y-120839285D02*
X137020703Y-120839285D01*
X136873381Y-120589285D02*
X136793024Y-121232142D01*
X136819810Y-121303571D01*
X136886774Y-121339285D01*
X136958203Y-121339285D01*
X137199274Y-120839285D02*
X137315345Y-121339285D01*
X137556417Y-120839285D02*
X137315345Y-121339285D01*
X137221595Y-121517857D01*
X137181417Y-121553571D01*
X137105524Y-121589285D01*
X137842131Y-120839285D02*
X137748381Y-121589285D01*
X137837667Y-120875000D02*
X137913560Y-120839285D01*
X138056417Y-120839285D01*
X138123381Y-120875000D01*
X138154631Y-120910714D01*
X138181417Y-120982142D01*
X138154631Y-121196428D01*
X138109988Y-121267857D01*
X138069810Y-121303571D01*
X137993917Y-121339285D01*
X137851060Y-121339285D01*
X137784095Y-121303571D01*
X138748381Y-121303571D02*
X138672488Y-121339285D01*
X138529631Y-121339285D01*
X138462667Y-121303571D01*
X138435881Y-121232142D01*
X138471595Y-120946428D01*
X138516238Y-120875000D01*
X138592131Y-120839285D01*
X138734988Y-120839285D01*
X138801953Y-120875000D01*
X138828738Y-120946428D01*
X138819810Y-121017857D01*
X138453738Y-121089285D01*
X139672488Y-121339285D02*
X139734988Y-120839285D01*
X139766238Y-120589285D02*
X139726060Y-120625000D01*
X139757310Y-120660714D01*
X139797488Y-120625000D01*
X139766238Y-120589285D01*
X139757310Y-120660714D01*
X140092131Y-120839285D02*
X140029631Y-121339285D01*
X140083203Y-120910714D02*
X140123381Y-120875000D01*
X140199274Y-120839285D01*
X140306417Y-120839285D01*
X140373381Y-120875000D01*
X140400167Y-120946428D01*
X140351060Y-121339285D01*
X140770703Y-120839285D02*
X140676953Y-121589285D01*
X140766238Y-120875000D02*
X140842131Y-120839285D01*
X140984988Y-120839285D01*
X141051953Y-120875000D01*
X141083203Y-120910714D01*
X141109988Y-120982142D01*
X141083203Y-121196428D01*
X141038560Y-121267857D01*
X140998381Y-121303571D01*
X140922488Y-121339285D01*
X140779631Y-121339285D01*
X140712667Y-121303571D01*
X141770703Y-120839285D02*
X141708203Y-121339285D01*
X141449274Y-120839285D02*
X141400167Y-121232142D01*
X141426953Y-121303571D01*
X141493917Y-121339285D01*
X141601060Y-121339285D01*
X141676953Y-121303571D01*
X141717131Y-121267857D01*
X142020703Y-120839285D02*
X142306417Y-120839285D01*
X142159095Y-120589285D02*
X142078738Y-121232142D01*
X142105524Y-121303571D01*
X142172488Y-121339285D01*
X142243917Y-121339285D01*
D11*
X132500000Y-120250000D02*
X133250000Y-120250000D01*
X143760000Y-120230000D02*
X131340000Y-120230000D01*
X131470000Y-100750000D02*
X143720000Y-100750000D01*
D13*
X125000000Y-142000000D02*
X125000000Y-64000000D01*
X144400000Y-142000000D02*
X125000000Y-142000000D01*
X144500000Y-64000000D02*
X144400000Y-142000000D01*
D14*
G04 #@! TO.C,C13*
X139750000Y-102650000D02*
X138750000Y-102650000D01*
X138750000Y-104350000D02*
X139750000Y-104350000D01*
G04 #@! TO.C,C12*
X125580000Y-124400000D02*
X125580000Y-126400000D01*
X127620000Y-126400000D02*
X127620000Y-124400000D01*
G04 #@! TO.C,C14*
X136040000Y-115910000D02*
X134040000Y-115910000D01*
X134040000Y-117950000D02*
X136040000Y-117950000D01*
G04 #@! TO.C,C7*
X127210000Y-113400000D02*
X127210000Y-111400000D01*
X125170000Y-111400000D02*
X125170000Y-113400000D01*
G04 #@! TO.C,C10*
X128480000Y-88540000D02*
X128480000Y-90540000D01*
X130520000Y-90540000D02*
X130520000Y-88540000D01*
G04 #@! TO.C,C9*
X136810000Y-74970000D02*
X136810000Y-76970000D01*
X138850000Y-76970000D02*
X138850000Y-74970000D01*
G04 #@! TO.C,C6*
X129270000Y-113420000D02*
X129270000Y-111420000D01*
X127230000Y-111420000D02*
X127230000Y-113420000D01*
G04 #@! TO.C,C5*
X127380000Y-102130000D02*
X129380000Y-102130000D01*
X129380000Y-100090000D02*
X127380000Y-100090000D01*
G04 #@! TO.C,C4*
X141070000Y-124110000D02*
X141070000Y-126110000D01*
X143110000Y-126110000D02*
X143110000Y-124110000D01*
G04 #@! TO.C,C3*
X136230000Y-126020000D02*
X136230000Y-124020000D01*
X134190000Y-124020000D02*
X134190000Y-126020000D01*
G04 #@! TO.C,C15*
X127930000Y-118760000D02*
X126930000Y-118760000D01*
X126930000Y-120460000D02*
X127930000Y-120460000D01*
G04 #@! TO.C,Ri2cSDA1*
X127690000Y-130470000D02*
X128890000Y-130470000D01*
X128890000Y-132230000D02*
X127690000Y-132230000D01*
G04 #@! TO.C,Ri2cSCL1*
X127650000Y-133670000D02*
X128850000Y-133670000D01*
X128850000Y-135430000D02*
X127650000Y-135430000D01*
G04 #@! TO.C,R14*
X126980000Y-116230000D02*
X128180000Y-116230000D01*
X128180000Y-117990000D02*
X126980000Y-117990000D01*
G04 #@! TO.C,R1*
X139550000Y-98620000D02*
X140750000Y-98620000D01*
X140750000Y-100380000D02*
X139550000Y-100380000D01*
G04 #@! TO.C,R2*
X127160000Y-98330000D02*
X128360000Y-98330000D01*
X128360000Y-100090000D02*
X127160000Y-100090000D01*
G04 #@! TO.C,R3*
X133750000Y-93620000D02*
X134950000Y-93620000D01*
X134950000Y-95380000D02*
X133750000Y-95380000D01*
G04 #@! TO.C,R4*
X133700000Y-96020000D02*
X134900000Y-96020000D01*
X134900000Y-97780000D02*
X133700000Y-97780000D01*
G04 #@! TO.C,R6*
X136800000Y-84780000D02*
X135600000Y-84780000D01*
X135600000Y-83020000D02*
X136800000Y-83020000D01*
G04 #@! TO.C,R7*
X140600000Y-83020000D02*
X141800000Y-83020000D01*
X141800000Y-84780000D02*
X140600000Y-84780000D01*
G04 #@! TO.C,R5*
X133210000Y-89040000D02*
X133210000Y-90240000D01*
X131450000Y-90240000D02*
X131450000Y-89040000D01*
G04 #@! TO.C,R9*
X135930000Y-70860000D02*
X135930000Y-69660000D01*
X137690000Y-69660000D02*
X137690000Y-70860000D01*
G04 #@! TO.C,R10*
X140740000Y-80610000D02*
X141940000Y-80610000D01*
X141940000Y-82370000D02*
X140740000Y-82370000D01*
G04 #@! TO.C,R11*
X137960000Y-70860000D02*
X137960000Y-69660000D01*
X139720000Y-69660000D02*
X139720000Y-70860000D01*
G04 #@! TO.C,R8*
X133380000Y-80900000D02*
X134580000Y-80900000D01*
X134580000Y-82660000D02*
X133380000Y-82660000D01*
G04 #@! TO.C,D1*
X136860000Y-130480000D02*
X136860000Y-131940000D01*
X133700000Y-130480000D02*
X133700000Y-132640000D01*
X133700000Y-130480000D02*
X134630000Y-130480000D01*
X136860000Y-130480000D02*
X135930000Y-130480000D01*
G04 #@! TO.C,D2*
X143360000Y-130480000D02*
X142430000Y-130480000D01*
X140200000Y-130480000D02*
X141130000Y-130480000D01*
X140200000Y-130480000D02*
X140200000Y-132640000D01*
X143360000Y-130480000D02*
X143360000Y-131940000D01*
G04 #@! TO.C,458_IN1*
X136680000Y-76440000D02*
X136680000Y-73780000D01*
X134080000Y-76440000D02*
X136680000Y-76440000D01*
X134080000Y-73780000D02*
X136680000Y-73780000D01*
X134080000Y-76440000D02*
X134080000Y-73780000D01*
X132810000Y-76440000D02*
X131480000Y-76440000D01*
X131480000Y-76440000D02*
X131480000Y-75110000D01*
G04 #@! TO.C,485_OUT1*
X144250000Y-73910000D02*
X144250000Y-75240000D01*
X142920000Y-73910000D02*
X144250000Y-73910000D01*
X141650000Y-73910000D02*
X141650000Y-76570000D01*
X141650000Y-76570000D02*
X139050000Y-76570000D01*
X141650000Y-73910000D02*
X139050000Y-73910000D01*
X139050000Y-73910000D02*
X139050000Y-76570000D01*
G04 #@! TO.C,J1*
X126130000Y-69410000D02*
X126130000Y-68080000D01*
X127460000Y-69410000D02*
X126130000Y-69410000D01*
X126130000Y-66810000D02*
X126130000Y-64210000D01*
X128730000Y-66810000D02*
X126130000Y-66810000D01*
X128730000Y-69410000D02*
X128730000Y-66810000D01*
X126130000Y-64210000D02*
X131330000Y-64210000D01*
X128730000Y-69410000D02*
X131330000Y-69410000D01*
X131330000Y-69410000D02*
X131330000Y-64210000D01*
G04 #@! TO.C,L6*
X134750000Y-104320000D02*
X132750000Y-104320000D01*
X132750000Y-102180000D02*
X134750000Y-102180000D01*
D13*
G04 #@! TO.C,Y1*
X141600000Y-116827138D02*
X141600000Y-117477138D01*
X141600000Y-116177138D02*
X141600000Y-116827138D01*
X141600000Y-116177138D02*
X138400000Y-116177138D01*
X138400000Y-116177138D02*
X138400000Y-116827138D01*
X138400000Y-116827138D02*
X138400000Y-117477138D01*
X141600000Y-117477138D02*
X138400000Y-117477138D01*
D14*
G04 #@! TO.C,J3*
X139170000Y-134670000D02*
X139170000Y-137330000D01*
X141770000Y-134670000D02*
X139170000Y-134670000D01*
X141770000Y-137330000D02*
X139170000Y-137330000D01*
X141770000Y-134670000D02*
X141770000Y-137330000D01*
X143040000Y-134670000D02*
X144370000Y-134670000D01*
X144370000Y-134670000D02*
X144370000Y-136000000D01*
G04 #@! TO.C,J2*
X137830000Y-134670000D02*
X137830000Y-136000000D01*
X136500000Y-134670000D02*
X137830000Y-134670000D01*
X135230000Y-134670000D02*
X135230000Y-137330000D01*
X135230000Y-137330000D02*
X132630000Y-137330000D01*
X135230000Y-134670000D02*
X132630000Y-134670000D01*
X132630000Y-134670000D02*
X132630000Y-137330000D01*
G04 #@! TO.C,J7*
X125490000Y-139515000D02*
X125490000Y-137015000D01*
X125490000Y-137015000D02*
X126540000Y-137015000D01*
X126540000Y-137015000D02*
X126540000Y-136025000D01*
X131710000Y-139515000D02*
X131710000Y-137015000D01*
X131710000Y-137015000D02*
X130660000Y-137015000D01*
X126660000Y-141485000D02*
X130540000Y-141485000D01*
D13*
G04 #@! TO.C,U5*
X134800000Y-113575000D02*
X134800000Y-115000000D01*
X134575000Y-106325000D02*
X134575000Y-106650001D01*
X141825000Y-106325000D02*
X141825000Y-106650001D01*
X141825000Y-113575000D02*
X141825000Y-113249999D01*
X134575000Y-113575000D02*
X134575000Y-113249999D01*
X141825000Y-113575000D02*
X141499999Y-113575000D01*
X141825000Y-106325000D02*
X141499999Y-106325000D01*
X134575000Y-106325000D02*
X134900001Y-106325000D01*
X134575000Y-113575000D02*
X134800000Y-113575000D01*
D14*
G04 #@! TO.C,U1*
X128650000Y-103390000D02*
X126850000Y-103390000D01*
X126850000Y-106610000D02*
X129300000Y-106610000D01*
G04 #@! TO.C,Q2*
X129710000Y-97080000D02*
X128250000Y-97080000D01*
X129710000Y-93920000D02*
X127550000Y-93920000D01*
X129710000Y-93920000D02*
X129710000Y-94850000D01*
X129710000Y-97080000D02*
X129710000Y-96150000D01*
G04 #@! TO.C,Q1*
X139290000Y-93920000D02*
X139290000Y-94850000D01*
X139290000Y-97080000D02*
X139290000Y-96150000D01*
X139290000Y-97080000D02*
X141450000Y-97080000D01*
X139290000Y-93920000D02*
X140750000Y-93920000D01*
D13*
G04 #@! TO.C,U4*
X133865000Y-90925000D02*
X133865000Y-92300000D01*
X142740000Y-90925000D02*
X142740000Y-86775000D01*
X133840000Y-90925000D02*
X133840000Y-86775000D01*
X142740000Y-90925000D02*
X142625000Y-90925000D01*
X142740000Y-86775000D02*
X142625000Y-86775000D01*
X133840000Y-86775000D02*
X133955000Y-86775000D01*
X133840000Y-90925000D02*
X133865000Y-90925000D01*
D14*
G04 #@! TO.C,D6*
X135140000Y-68850000D02*
X135140000Y-70310000D01*
X131980000Y-68850000D02*
X131980000Y-71010000D01*
X131980000Y-68850000D02*
X132910000Y-68850000D01*
X135140000Y-68850000D02*
X134210000Y-68850000D01*
G04 #@! TO.C,D8*
X143310000Y-68820000D02*
X142380000Y-68820000D01*
X140150000Y-68820000D02*
X141080000Y-68820000D01*
X140150000Y-68820000D02*
X140150000Y-70980000D01*
X143310000Y-68820000D02*
X143310000Y-70280000D01*
G04 #@! TD*
G04 #@! TO.C,C13*
D13*
X139757142Y-102157142D02*
X139709523Y-102204761D01*
X139566666Y-102252380D01*
X139471428Y-102252380D01*
X139328571Y-102204761D01*
X139233333Y-102109523D01*
X139185714Y-102014285D01*
X139138095Y-101823809D01*
X139138095Y-101680952D01*
X139185714Y-101490476D01*
X139233333Y-101395238D01*
X139328571Y-101300000D01*
X139471428Y-101252380D01*
X139566666Y-101252380D01*
X139709523Y-101300000D01*
X139757142Y-101347619D01*
X140709523Y-102252380D02*
X140138095Y-102252380D01*
X140423809Y-102252380D02*
X140423809Y-101252380D01*
X140328571Y-101395238D01*
X140233333Y-101490476D01*
X140138095Y-101538095D01*
X141042857Y-101252380D02*
X141661904Y-101252380D01*
X141328571Y-101633333D01*
X141471428Y-101633333D01*
X141566666Y-101680952D01*
X141614285Y-101728571D01*
X141661904Y-101823809D01*
X141661904Y-102061904D01*
X141614285Y-102157142D01*
X141566666Y-102204761D01*
X141471428Y-102252380D01*
X141185714Y-102252380D01*
X141090476Y-102204761D01*
X141042857Y-102157142D01*
G04 #@! TO.C,C12*
X126850000Y-125850000D02*
X126883333Y-125883333D01*
X126916666Y-125983333D01*
X126916666Y-126050000D01*
X126883333Y-126150000D01*
X126816666Y-126216666D01*
X126750000Y-126250000D01*
X126616666Y-126283333D01*
X126516666Y-126283333D01*
X126383333Y-126250000D01*
X126316666Y-126216666D01*
X126250000Y-126150000D01*
X126216666Y-126050000D01*
X126216666Y-125983333D01*
X126250000Y-125883333D01*
X126283333Y-125850000D01*
X126916666Y-125183333D02*
X126916666Y-125583333D01*
X126916666Y-125383333D02*
X126216666Y-125383333D01*
X126316666Y-125450000D01*
X126383333Y-125516666D01*
X126416666Y-125583333D01*
X126283333Y-124916666D02*
X126250000Y-124883333D01*
X126216666Y-124816666D01*
X126216666Y-124650000D01*
X126250000Y-124583333D01*
X126283333Y-124550000D01*
X126350000Y-124516666D01*
X126416666Y-124516666D01*
X126516666Y-124550000D01*
X126916666Y-124950000D01*
X126916666Y-124516666D01*
X128967142Y-126288571D02*
X129014761Y-126240952D01*
X129062380Y-126288571D01*
X129014761Y-126336190D01*
X128967142Y-126288571D01*
X129062380Y-126288571D01*
X129062380Y-125288571D02*
X129062380Y-125860000D01*
X129062380Y-125574285D02*
X128062380Y-125574285D01*
X128205238Y-125669523D01*
X128300476Y-125764761D01*
X128348095Y-125860000D01*
X128395714Y-124431428D02*
X129062380Y-124431428D01*
X128395714Y-124860000D02*
X128919523Y-124860000D01*
X129014761Y-124812380D01*
X129062380Y-124717142D01*
X129062380Y-124574285D01*
X129014761Y-124479047D01*
X128967142Y-124431428D01*
G04 #@! TO.C,C14*
X134590000Y-117180000D02*
X134556666Y-117213333D01*
X134456666Y-117246666D01*
X134390000Y-117246666D01*
X134290000Y-117213333D01*
X134223333Y-117146666D01*
X134190000Y-117080000D01*
X134156666Y-116946666D01*
X134156666Y-116846666D01*
X134190000Y-116713333D01*
X134223333Y-116646666D01*
X134290000Y-116580000D01*
X134390000Y-116546666D01*
X134456666Y-116546666D01*
X134556666Y-116580000D01*
X134590000Y-116613333D01*
X135256666Y-117246666D02*
X134856666Y-117246666D01*
X135056666Y-117246666D02*
X135056666Y-116546666D01*
X134990000Y-116646666D01*
X134923333Y-116713333D01*
X134856666Y-116746666D01*
X135856666Y-116780000D02*
X135856666Y-117246666D01*
X135690000Y-116513333D02*
X135523333Y-117013333D01*
X135956666Y-117013333D01*
X139011428Y-117387142D02*
X139059047Y-117434761D01*
X139011428Y-117482380D01*
X138963809Y-117434761D01*
X139011428Y-117387142D01*
X139011428Y-117482380D01*
X140011428Y-117482380D02*
X139440000Y-117482380D01*
X139725714Y-117482380D02*
X139725714Y-116482380D01*
X139630476Y-116625238D01*
X139535238Y-116720476D01*
X139440000Y-116768095D01*
X140868571Y-116815714D02*
X140868571Y-117482380D01*
X140440000Y-116815714D02*
X140440000Y-117339523D01*
X140487619Y-117434761D01*
X140582857Y-117482380D01*
X140725714Y-117482380D01*
X140820952Y-117434761D01*
X140868571Y-117387142D01*
G04 #@! TO.C,C7*
X130652380Y-114642857D02*
X130652380Y-115214285D01*
X130652380Y-114928571D02*
X129652380Y-114928571D01*
X129795238Y-115023809D01*
X129890476Y-115119047D01*
X129938095Y-115214285D01*
X129652380Y-114023809D02*
X129652380Y-113928571D01*
X129700000Y-113833333D01*
X129747619Y-113785714D01*
X129842857Y-113738095D01*
X130033333Y-113690476D01*
X130271428Y-113690476D01*
X130461904Y-113738095D01*
X130557142Y-113785714D01*
X130604761Y-113833333D01*
X130652380Y-113928571D01*
X130652380Y-114023809D01*
X130604761Y-114119047D01*
X130557142Y-114166666D01*
X130461904Y-114214285D01*
X130271428Y-114261904D01*
X130033333Y-114261904D01*
X129842857Y-114214285D01*
X129747619Y-114166666D01*
X129700000Y-114119047D01*
X129652380Y-114023809D01*
X129985714Y-112833333D02*
X130652380Y-112833333D01*
X129985714Y-113261904D02*
X130509523Y-113261904D01*
X130604761Y-113214285D01*
X130652380Y-113119047D01*
X130652380Y-112976190D01*
X130604761Y-112880952D01*
X130557142Y-112833333D01*
X126450714Y-112518333D02*
X126485476Y-112552142D01*
X126520238Y-112653571D01*
X126520238Y-112721190D01*
X126485476Y-112822619D01*
X126415952Y-112890238D01*
X126346428Y-112924047D01*
X126207380Y-112957857D01*
X126103095Y-112957857D01*
X125964047Y-112924047D01*
X125894523Y-112890238D01*
X125825000Y-112822619D01*
X125790238Y-112721190D01*
X125790238Y-112653571D01*
X125825000Y-112552142D01*
X125859761Y-112518333D01*
X125790238Y-112281666D02*
X125790238Y-111808333D01*
X126520238Y-112112619D01*
G04 #@! TO.C,C10*
X127857142Y-89028571D02*
X127904761Y-88980952D01*
X127952380Y-89028571D01*
X127904761Y-89076190D01*
X127857142Y-89028571D01*
X127952380Y-89028571D01*
X127952380Y-88028571D02*
X127952380Y-88600000D01*
X127952380Y-88314285D02*
X126952380Y-88314285D01*
X127095238Y-88409523D01*
X127190476Y-88504761D01*
X127238095Y-88600000D01*
X127285714Y-87171428D02*
X127952380Y-87171428D01*
X127285714Y-87600000D02*
X127809523Y-87600000D01*
X127904761Y-87552380D01*
X127952380Y-87457142D01*
X127952380Y-87314285D01*
X127904761Y-87219047D01*
X127857142Y-87171428D01*
X129760714Y-89996428D02*
X129795476Y-90030238D01*
X129830238Y-90131666D01*
X129830238Y-90199285D01*
X129795476Y-90300714D01*
X129725952Y-90368333D01*
X129656428Y-90402142D01*
X129517380Y-90435952D01*
X129413095Y-90435952D01*
X129274047Y-90402142D01*
X129204523Y-90368333D01*
X129135000Y-90300714D01*
X129100238Y-90199285D01*
X129100238Y-90131666D01*
X129135000Y-90030238D01*
X129169761Y-89996428D01*
X129830238Y-89320238D02*
X129830238Y-89725952D01*
X129830238Y-89523095D02*
X129100238Y-89523095D01*
X129204523Y-89590714D01*
X129274047Y-89658333D01*
X129308809Y-89725952D01*
X129100238Y-88880714D02*
X129100238Y-88813095D01*
X129135000Y-88745476D01*
X129169761Y-88711666D01*
X129239285Y-88677857D01*
X129378333Y-88644047D01*
X129552142Y-88644047D01*
X129691190Y-88677857D01*
X129760714Y-88711666D01*
X129795476Y-88745476D01*
X129830238Y-88813095D01*
X129830238Y-88880714D01*
X129795476Y-88948333D01*
X129760714Y-88982142D01*
X129691190Y-89015952D01*
X129552142Y-89049761D01*
X129378333Y-89049761D01*
X129239285Y-89015952D01*
X129169761Y-88982142D01*
X129135000Y-88948333D01*
X129100238Y-88880714D01*
G04 #@! TO.C,C9*
X140187142Y-76898571D02*
X140234761Y-76850952D01*
X140282380Y-76898571D01*
X140234761Y-76946190D01*
X140187142Y-76898571D01*
X140282380Y-76898571D01*
X140282380Y-75898571D02*
X140282380Y-76470000D01*
X140282380Y-76184285D02*
X139282380Y-76184285D01*
X139425238Y-76279523D01*
X139520476Y-76374761D01*
X139568095Y-76470000D01*
X139615714Y-75041428D02*
X140282380Y-75041428D01*
X139615714Y-75470000D02*
X140139523Y-75470000D01*
X140234761Y-75422380D01*
X140282380Y-75327142D01*
X140282380Y-75184285D01*
X140234761Y-75089047D01*
X140187142Y-75041428D01*
X138090714Y-76088333D02*
X138125476Y-76122142D01*
X138160238Y-76223571D01*
X138160238Y-76291190D01*
X138125476Y-76392619D01*
X138055952Y-76460238D01*
X137986428Y-76494047D01*
X137847380Y-76527857D01*
X137743095Y-76527857D01*
X137604047Y-76494047D01*
X137534523Y-76460238D01*
X137465000Y-76392619D01*
X137430238Y-76291190D01*
X137430238Y-76223571D01*
X137465000Y-76122142D01*
X137499761Y-76088333D01*
X138160238Y-75750238D02*
X138160238Y-75615000D01*
X138125476Y-75547380D01*
X138090714Y-75513571D01*
X137986428Y-75445952D01*
X137847380Y-75412142D01*
X137569285Y-75412142D01*
X137499761Y-75445952D01*
X137465000Y-75479761D01*
X137430238Y-75547380D01*
X137430238Y-75682619D01*
X137465000Y-75750238D01*
X137499761Y-75784047D01*
X137569285Y-75817857D01*
X137743095Y-75817857D01*
X137812619Y-75784047D01*
X137847380Y-75750238D01*
X137882142Y-75682619D01*
X137882142Y-75547380D01*
X137847380Y-75479761D01*
X137812619Y-75445952D01*
X137743095Y-75412142D01*
G04 #@! TO.C,C6*
X128510714Y-112538333D02*
X128545476Y-112572142D01*
X128580238Y-112673571D01*
X128580238Y-112741190D01*
X128545476Y-112842619D01*
X128475952Y-112910238D01*
X128406428Y-112944047D01*
X128267380Y-112977857D01*
X128163095Y-112977857D01*
X128024047Y-112944047D01*
X127954523Y-112910238D01*
X127885000Y-112842619D01*
X127850238Y-112741190D01*
X127850238Y-112673571D01*
X127885000Y-112572142D01*
X127919761Y-112538333D01*
X127850238Y-111929761D02*
X127850238Y-112065000D01*
X127885000Y-112132619D01*
X127919761Y-112166428D01*
X128024047Y-112234047D01*
X128163095Y-112267857D01*
X128441190Y-112267857D01*
X128510714Y-112234047D01*
X128545476Y-112200238D01*
X128580238Y-112132619D01*
X128580238Y-111997380D01*
X128545476Y-111929761D01*
X128510714Y-111895952D01*
X128441190Y-111862142D01*
X128267380Y-111862142D01*
X128197857Y-111895952D01*
X128163095Y-111929761D01*
X128128333Y-111997380D01*
X128128333Y-112132619D01*
X128163095Y-112200238D01*
X128197857Y-112234047D01*
X128267380Y-112267857D01*
G04 #@! TO.C,C5*
X130957142Y-99852380D02*
X130385714Y-99852380D01*
X130671428Y-99852380D02*
X130671428Y-98852380D01*
X130576190Y-98995238D01*
X130480952Y-99090476D01*
X130385714Y-99138095D01*
X131576190Y-98852380D02*
X131671428Y-98852380D01*
X131766666Y-98900000D01*
X131814285Y-98947619D01*
X131861904Y-99042857D01*
X131909523Y-99233333D01*
X131909523Y-99471428D01*
X131861904Y-99661904D01*
X131814285Y-99757142D01*
X131766666Y-99804761D01*
X131671428Y-99852380D01*
X131576190Y-99852380D01*
X131480952Y-99804761D01*
X131433333Y-99757142D01*
X131385714Y-99661904D01*
X131338095Y-99471428D01*
X131338095Y-99233333D01*
X131385714Y-99042857D01*
X131433333Y-98947619D01*
X131480952Y-98900000D01*
X131576190Y-98852380D01*
X132338095Y-99185714D02*
X132338095Y-99852380D01*
X132338095Y-99280952D02*
X132385714Y-99233333D01*
X132480952Y-99185714D01*
X132623809Y-99185714D01*
X132719047Y-99233333D01*
X132766666Y-99328571D01*
X132766666Y-99852380D01*
X128081666Y-101060714D02*
X128047857Y-101095476D01*
X127946428Y-101130238D01*
X127878809Y-101130238D01*
X127777380Y-101095476D01*
X127709761Y-101025952D01*
X127675952Y-100956428D01*
X127642142Y-100817380D01*
X127642142Y-100713095D01*
X127675952Y-100574047D01*
X127709761Y-100504523D01*
X127777380Y-100435000D01*
X127878809Y-100400238D01*
X127946428Y-100400238D01*
X128047857Y-100435000D01*
X128081666Y-100469761D01*
X128724047Y-100400238D02*
X128385952Y-100400238D01*
X128352142Y-100747857D01*
X128385952Y-100713095D01*
X128453571Y-100678333D01*
X128622619Y-100678333D01*
X128690238Y-100713095D01*
X128724047Y-100747857D01*
X128757857Y-100817380D01*
X128757857Y-100991190D01*
X128724047Y-101060714D01*
X128690238Y-101095476D01*
X128622619Y-101130238D01*
X128453571Y-101130238D01*
X128385952Y-101095476D01*
X128352142Y-101060714D01*
G04 #@! TO.C,C4*
X140652380Y-125142857D02*
X140652380Y-125714285D01*
X140652380Y-125428571D02*
X139652380Y-125428571D01*
X139795238Y-125523809D01*
X139890476Y-125619047D01*
X139938095Y-125714285D01*
X139652380Y-124523809D02*
X139652380Y-124428571D01*
X139700000Y-124333333D01*
X139747619Y-124285714D01*
X139842857Y-124238095D01*
X140033333Y-124190476D01*
X140271428Y-124190476D01*
X140461904Y-124238095D01*
X140557142Y-124285714D01*
X140604761Y-124333333D01*
X140652380Y-124428571D01*
X140652380Y-124523809D01*
X140604761Y-124619047D01*
X140557142Y-124666666D01*
X140461904Y-124714285D01*
X140271428Y-124761904D01*
X140033333Y-124761904D01*
X139842857Y-124714285D01*
X139747619Y-124666666D01*
X139700000Y-124619047D01*
X139652380Y-124523809D01*
X139985714Y-123761904D02*
X140652380Y-123761904D01*
X140080952Y-123761904D02*
X140033333Y-123714285D01*
X139985714Y-123619047D01*
X139985714Y-123476190D01*
X140033333Y-123380952D01*
X140128571Y-123333333D01*
X140652380Y-123333333D01*
X142350714Y-125228333D02*
X142385476Y-125262142D01*
X142420238Y-125363571D01*
X142420238Y-125431190D01*
X142385476Y-125532619D01*
X142315952Y-125600238D01*
X142246428Y-125634047D01*
X142107380Y-125667857D01*
X142003095Y-125667857D01*
X141864047Y-125634047D01*
X141794523Y-125600238D01*
X141725000Y-125532619D01*
X141690238Y-125431190D01*
X141690238Y-125363571D01*
X141725000Y-125262142D01*
X141759761Y-125228333D01*
X141933571Y-124619761D02*
X142420238Y-124619761D01*
X141655476Y-124788809D02*
X142176904Y-124957857D01*
X142176904Y-124518333D01*
G04 #@! TO.C,C3*
X133752380Y-125242857D02*
X133752380Y-125814285D01*
X133752380Y-125528571D02*
X132752380Y-125528571D01*
X132895238Y-125623809D01*
X132990476Y-125719047D01*
X133038095Y-125814285D01*
X132752380Y-124623809D02*
X132752380Y-124528571D01*
X132800000Y-124433333D01*
X132847619Y-124385714D01*
X132942857Y-124338095D01*
X133133333Y-124290476D01*
X133371428Y-124290476D01*
X133561904Y-124338095D01*
X133657142Y-124385714D01*
X133704761Y-124433333D01*
X133752380Y-124528571D01*
X133752380Y-124623809D01*
X133704761Y-124719047D01*
X133657142Y-124766666D01*
X133561904Y-124814285D01*
X133371428Y-124861904D01*
X133133333Y-124861904D01*
X132942857Y-124814285D01*
X132847619Y-124766666D01*
X132800000Y-124719047D01*
X132752380Y-124623809D01*
X133085714Y-123861904D02*
X133752380Y-123861904D01*
X133180952Y-123861904D02*
X133133333Y-123814285D01*
X133085714Y-123719047D01*
X133085714Y-123576190D01*
X133133333Y-123480952D01*
X133228571Y-123433333D01*
X133752380Y-123433333D01*
X135470714Y-125138333D02*
X135505476Y-125172142D01*
X135540238Y-125273571D01*
X135540238Y-125341190D01*
X135505476Y-125442619D01*
X135435952Y-125510238D01*
X135366428Y-125544047D01*
X135227380Y-125577857D01*
X135123095Y-125577857D01*
X134984047Y-125544047D01*
X134914523Y-125510238D01*
X134845000Y-125442619D01*
X134810238Y-125341190D01*
X134810238Y-125273571D01*
X134845000Y-125172142D01*
X134879761Y-125138333D01*
X134810238Y-124901666D02*
X134810238Y-124462142D01*
X135088333Y-124698809D01*
X135088333Y-124597380D01*
X135123095Y-124529761D01*
X135157857Y-124495952D01*
X135227380Y-124462142D01*
X135401190Y-124462142D01*
X135470714Y-124495952D01*
X135505476Y-124529761D01*
X135540238Y-124597380D01*
X135540238Y-124800238D01*
X135505476Y-124867857D01*
X135470714Y-124901666D01*
G04 #@! TO.C,C15*
X128933333Y-121762380D02*
X128361904Y-121762380D01*
X128647619Y-121762380D02*
X128647619Y-120762380D01*
X128552380Y-120905238D01*
X128457142Y-121000476D01*
X128361904Y-121048095D01*
X129790476Y-121095714D02*
X129790476Y-121762380D01*
X129361904Y-121095714D02*
X129361904Y-121619523D01*
X129409523Y-121714761D01*
X129504761Y-121762380D01*
X129647619Y-121762380D01*
X129742857Y-121714761D01*
X129790476Y-121667142D01*
D15*
X127547857Y-119822142D02*
X127563571Y-119837857D01*
X127579285Y-119885000D01*
X127579285Y-119916428D01*
X127563571Y-119963571D01*
X127532142Y-119995000D01*
X127500714Y-120010714D01*
X127437857Y-120026428D01*
X127390714Y-120026428D01*
X127327857Y-120010714D01*
X127296428Y-119995000D01*
X127265000Y-119963571D01*
X127249285Y-119916428D01*
X127249285Y-119885000D01*
X127265000Y-119837857D01*
X127280714Y-119822142D01*
X127579285Y-119507857D02*
X127579285Y-119696428D01*
X127579285Y-119602142D02*
X127249285Y-119602142D01*
X127296428Y-119633571D01*
X127327857Y-119665000D01*
X127343571Y-119696428D01*
X127249285Y-119209285D02*
X127249285Y-119366428D01*
X127406428Y-119382142D01*
X127390714Y-119366428D01*
X127375000Y-119335000D01*
X127375000Y-119256428D01*
X127390714Y-119225000D01*
X127406428Y-119209285D01*
X127437857Y-119193571D01*
X127516428Y-119193571D01*
X127547857Y-119209285D01*
X127563571Y-119225000D01*
X127579285Y-119256428D01*
X127579285Y-119335000D01*
X127563571Y-119366428D01*
X127547857Y-119382142D01*
G04 #@! TO.C,Ri2cSDA1*
D13*
X131250714Y-131689285D02*
X130822142Y-131689285D01*
X131036428Y-131689285D02*
X131036428Y-130939285D01*
X130965000Y-131046428D01*
X130893571Y-131117857D01*
X130822142Y-131153571D01*
X131572142Y-131689285D02*
X131572142Y-130939285D01*
X131643571Y-131403571D02*
X131857857Y-131689285D01*
X131857857Y-131189285D02*
X131572142Y-131475000D01*
D16*
X126932857Y-131576190D02*
X126766190Y-131338095D01*
X126647142Y-131576190D02*
X126647142Y-131076190D01*
X126837619Y-131076190D01*
X126885238Y-131100000D01*
X126909047Y-131123809D01*
X126932857Y-131171428D01*
X126932857Y-131242857D01*
X126909047Y-131290476D01*
X126885238Y-131314285D01*
X126837619Y-131338095D01*
X126647142Y-131338095D01*
X127147142Y-131576190D02*
X127147142Y-131242857D01*
X127147142Y-131076190D02*
X127123333Y-131100000D01*
X127147142Y-131123809D01*
X127170952Y-131100000D01*
X127147142Y-131076190D01*
X127147142Y-131123809D01*
X127361428Y-131123809D02*
X127385238Y-131100000D01*
X127432857Y-131076190D01*
X127551904Y-131076190D01*
X127599523Y-131100000D01*
X127623333Y-131123809D01*
X127647142Y-131171428D01*
X127647142Y-131219047D01*
X127623333Y-131290476D01*
X127337619Y-131576190D01*
X127647142Y-131576190D01*
X128075714Y-131552380D02*
X128028095Y-131576190D01*
X127932857Y-131576190D01*
X127885238Y-131552380D01*
X127861428Y-131528571D01*
X127837619Y-131480952D01*
X127837619Y-131338095D01*
X127861428Y-131290476D01*
X127885238Y-131266666D01*
X127932857Y-131242857D01*
X128028095Y-131242857D01*
X128075714Y-131266666D01*
X128266190Y-131552380D02*
X128337619Y-131576190D01*
X128456666Y-131576190D01*
X128504285Y-131552380D01*
X128528095Y-131528571D01*
X128551904Y-131480952D01*
X128551904Y-131433333D01*
X128528095Y-131385714D01*
X128504285Y-131361904D01*
X128456666Y-131338095D01*
X128361428Y-131314285D01*
X128313809Y-131290476D01*
X128290000Y-131266666D01*
X128266190Y-131219047D01*
X128266190Y-131171428D01*
X128290000Y-131123809D01*
X128313809Y-131100000D01*
X128361428Y-131076190D01*
X128480476Y-131076190D01*
X128551904Y-131100000D01*
X128766190Y-131576190D02*
X128766190Y-131076190D01*
X128885238Y-131076190D01*
X128956666Y-131100000D01*
X129004285Y-131147619D01*
X129028095Y-131195238D01*
X129051904Y-131290476D01*
X129051904Y-131361904D01*
X129028095Y-131457142D01*
X129004285Y-131504761D01*
X128956666Y-131552380D01*
X128885238Y-131576190D01*
X128766190Y-131576190D01*
X129242380Y-131433333D02*
X129480476Y-131433333D01*
X129194761Y-131576190D02*
X129361428Y-131076190D01*
X129528095Y-131576190D01*
X129956666Y-131576190D02*
X129670952Y-131576190D01*
X129813809Y-131576190D02*
X129813809Y-131076190D01*
X129766190Y-131147619D01*
X129718571Y-131195238D01*
X129670952Y-131219047D01*
G04 #@! TO.C,Ri2cSCL1*
D13*
X131210714Y-134939285D02*
X130782142Y-134939285D01*
X130996428Y-134939285D02*
X130996428Y-134189285D01*
X130925000Y-134296428D01*
X130853571Y-134367857D01*
X130782142Y-134403571D01*
X131532142Y-134939285D02*
X131532142Y-134189285D01*
X131603571Y-134653571D02*
X131817857Y-134939285D01*
X131817857Y-134439285D02*
X131532142Y-134725000D01*
D16*
X126904761Y-134776190D02*
X126738095Y-134538095D01*
X126619047Y-134776190D02*
X126619047Y-134276190D01*
X126809523Y-134276190D01*
X126857142Y-134300000D01*
X126880952Y-134323809D01*
X126904761Y-134371428D01*
X126904761Y-134442857D01*
X126880952Y-134490476D01*
X126857142Y-134514285D01*
X126809523Y-134538095D01*
X126619047Y-134538095D01*
X127119047Y-134776190D02*
X127119047Y-134442857D01*
X127119047Y-134276190D02*
X127095238Y-134300000D01*
X127119047Y-134323809D01*
X127142857Y-134300000D01*
X127119047Y-134276190D01*
X127119047Y-134323809D01*
X127333333Y-134323809D02*
X127357142Y-134300000D01*
X127404761Y-134276190D01*
X127523809Y-134276190D01*
X127571428Y-134300000D01*
X127595238Y-134323809D01*
X127619047Y-134371428D01*
X127619047Y-134419047D01*
X127595238Y-134490476D01*
X127309523Y-134776190D01*
X127619047Y-134776190D01*
X128047619Y-134752380D02*
X128000000Y-134776190D01*
X127904761Y-134776190D01*
X127857142Y-134752380D01*
X127833333Y-134728571D01*
X127809523Y-134680952D01*
X127809523Y-134538095D01*
X127833333Y-134490476D01*
X127857142Y-134466666D01*
X127904761Y-134442857D01*
X128000000Y-134442857D01*
X128047619Y-134466666D01*
X128238095Y-134752380D02*
X128309523Y-134776190D01*
X128428571Y-134776190D01*
X128476190Y-134752380D01*
X128500000Y-134728571D01*
X128523809Y-134680952D01*
X128523809Y-134633333D01*
X128500000Y-134585714D01*
X128476190Y-134561904D01*
X128428571Y-134538095D01*
X128333333Y-134514285D01*
X128285714Y-134490476D01*
X128261904Y-134466666D01*
X128238095Y-134419047D01*
X128238095Y-134371428D01*
X128261904Y-134323809D01*
X128285714Y-134300000D01*
X128333333Y-134276190D01*
X128452380Y-134276190D01*
X128523809Y-134300000D01*
X129023809Y-134728571D02*
X129000000Y-134752380D01*
X128928571Y-134776190D01*
X128880952Y-134776190D01*
X128809523Y-134752380D01*
X128761904Y-134704761D01*
X128738095Y-134657142D01*
X128714285Y-134561904D01*
X128714285Y-134490476D01*
X128738095Y-134395238D01*
X128761904Y-134347619D01*
X128809523Y-134300000D01*
X128880952Y-134276190D01*
X128928571Y-134276190D01*
X129000000Y-134300000D01*
X129023809Y-134323809D01*
X129476190Y-134776190D02*
X129238095Y-134776190D01*
X129238095Y-134276190D01*
X129904761Y-134776190D02*
X129619047Y-134776190D01*
X129761904Y-134776190D02*
X129761904Y-134276190D01*
X129714285Y-134347619D01*
X129666666Y-134395238D01*
X129619047Y-134419047D01*
G04 #@! TO.C,R14*
D13*
X130339285Y-117696428D02*
X130839285Y-117696428D01*
X130053571Y-117875000D02*
X130589285Y-118053571D01*
X130589285Y-117589285D01*
X130767857Y-117303571D02*
X130803571Y-117267857D01*
X130839285Y-117303571D01*
X130803571Y-117339285D01*
X130767857Y-117303571D01*
X130839285Y-117303571D01*
X130089285Y-117017857D02*
X130089285Y-116517857D01*
X130839285Y-116839285D01*
X130839285Y-116232142D02*
X130089285Y-116232142D01*
X130553571Y-116160714D02*
X130839285Y-115946428D01*
X130339285Y-115946428D02*
X130625000Y-116232142D01*
D16*
X127258571Y-117336190D02*
X127091904Y-117098095D01*
X126972857Y-117336190D02*
X126972857Y-116836190D01*
X127163333Y-116836190D01*
X127210952Y-116860000D01*
X127234761Y-116883809D01*
X127258571Y-116931428D01*
X127258571Y-117002857D01*
X127234761Y-117050476D01*
X127210952Y-117074285D01*
X127163333Y-117098095D01*
X126972857Y-117098095D01*
X127734761Y-117336190D02*
X127449047Y-117336190D01*
X127591904Y-117336190D02*
X127591904Y-116836190D01*
X127544285Y-116907619D01*
X127496666Y-116955238D01*
X127449047Y-116979047D01*
X128163333Y-117002857D02*
X128163333Y-117336190D01*
X128044285Y-116812380D02*
X127925238Y-117169523D01*
X128234761Y-117169523D01*
G04 #@! TO.C,R1*
D13*
X139253571Y-98239285D02*
X138825000Y-98239285D01*
X139039285Y-98239285D02*
X139039285Y-97489285D01*
X138967857Y-97596428D01*
X138896428Y-97667857D01*
X138825000Y-97703571D01*
X139717857Y-97489285D02*
X139789285Y-97489285D01*
X139860714Y-97525000D01*
X139896428Y-97560714D01*
X139932142Y-97632142D01*
X139967857Y-97775000D01*
X139967857Y-97953571D01*
X139932142Y-98096428D01*
X139896428Y-98167857D01*
X139860714Y-98203571D01*
X139789285Y-98239285D01*
X139717857Y-98239285D01*
X139646428Y-98203571D01*
X139610714Y-98167857D01*
X139575000Y-98096428D01*
X139539285Y-97953571D01*
X139539285Y-97775000D01*
X139575000Y-97632142D01*
X139610714Y-97560714D01*
X139646428Y-97525000D01*
X139717857Y-97489285D01*
X140289285Y-98239285D02*
X140289285Y-97489285D01*
X140360714Y-97953571D02*
X140575000Y-98239285D01*
X140575000Y-97739285D02*
X140289285Y-98025000D01*
D16*
X140066666Y-99726190D02*
X139900000Y-99488095D01*
X139780952Y-99726190D02*
X139780952Y-99226190D01*
X139971428Y-99226190D01*
X140019047Y-99250000D01*
X140042857Y-99273809D01*
X140066666Y-99321428D01*
X140066666Y-99392857D01*
X140042857Y-99440476D01*
X140019047Y-99464285D01*
X139971428Y-99488095D01*
X139780952Y-99488095D01*
X140542857Y-99726190D02*
X140257142Y-99726190D01*
X140400000Y-99726190D02*
X140400000Y-99226190D01*
X140352380Y-99297619D01*
X140304761Y-99345238D01*
X140257142Y-99369047D01*
G04 #@! TO.C,R2*
D13*
X127363571Y-97949285D02*
X126935000Y-97949285D01*
X127149285Y-97949285D02*
X127149285Y-97199285D01*
X127077857Y-97306428D01*
X127006428Y-97377857D01*
X126935000Y-97413571D01*
X127827857Y-97199285D02*
X127899285Y-97199285D01*
X127970714Y-97235000D01*
X128006428Y-97270714D01*
X128042142Y-97342142D01*
X128077857Y-97485000D01*
X128077857Y-97663571D01*
X128042142Y-97806428D01*
X128006428Y-97877857D01*
X127970714Y-97913571D01*
X127899285Y-97949285D01*
X127827857Y-97949285D01*
X127756428Y-97913571D01*
X127720714Y-97877857D01*
X127685000Y-97806428D01*
X127649285Y-97663571D01*
X127649285Y-97485000D01*
X127685000Y-97342142D01*
X127720714Y-97270714D01*
X127756428Y-97235000D01*
X127827857Y-97199285D01*
X128399285Y-97949285D02*
X128399285Y-97199285D01*
X128470714Y-97663571D02*
X128685000Y-97949285D01*
X128685000Y-97449285D02*
X128399285Y-97735000D01*
D16*
X127676666Y-99436190D02*
X127510000Y-99198095D01*
X127390952Y-99436190D02*
X127390952Y-98936190D01*
X127581428Y-98936190D01*
X127629047Y-98960000D01*
X127652857Y-98983809D01*
X127676666Y-99031428D01*
X127676666Y-99102857D01*
X127652857Y-99150476D01*
X127629047Y-99174285D01*
X127581428Y-99198095D01*
X127390952Y-99198095D01*
X127867142Y-98983809D02*
X127890952Y-98960000D01*
X127938571Y-98936190D01*
X128057619Y-98936190D01*
X128105238Y-98960000D01*
X128129047Y-98983809D01*
X128152857Y-99031428D01*
X128152857Y-99079047D01*
X128129047Y-99150476D01*
X127843333Y-99436190D01*
X128152857Y-99436190D01*
G04 #@! TO.C,R3*
D13*
X133953571Y-93339285D02*
X133525000Y-93339285D01*
X133739285Y-93339285D02*
X133739285Y-92589285D01*
X133667857Y-92696428D01*
X133596428Y-92767857D01*
X133525000Y-92803571D01*
X134417857Y-92589285D02*
X134489285Y-92589285D01*
X134560714Y-92625000D01*
X134596428Y-92660714D01*
X134632142Y-92732142D01*
X134667857Y-92875000D01*
X134667857Y-93053571D01*
X134632142Y-93196428D01*
X134596428Y-93267857D01*
X134560714Y-93303571D01*
X134489285Y-93339285D01*
X134417857Y-93339285D01*
X134346428Y-93303571D01*
X134310714Y-93267857D01*
X134275000Y-93196428D01*
X134239285Y-93053571D01*
X134239285Y-92875000D01*
X134275000Y-92732142D01*
X134310714Y-92660714D01*
X134346428Y-92625000D01*
X134417857Y-92589285D01*
X134989285Y-93339285D02*
X134989285Y-92589285D01*
X135060714Y-93053571D02*
X135275000Y-93339285D01*
X135275000Y-92839285D02*
X134989285Y-93125000D01*
D16*
X134266666Y-94726190D02*
X134100000Y-94488095D01*
X133980952Y-94726190D02*
X133980952Y-94226190D01*
X134171428Y-94226190D01*
X134219047Y-94250000D01*
X134242857Y-94273809D01*
X134266666Y-94321428D01*
X134266666Y-94392857D01*
X134242857Y-94440476D01*
X134219047Y-94464285D01*
X134171428Y-94488095D01*
X133980952Y-94488095D01*
X134433333Y-94226190D02*
X134742857Y-94226190D01*
X134576190Y-94416666D01*
X134647619Y-94416666D01*
X134695238Y-94440476D01*
X134719047Y-94464285D01*
X134742857Y-94511904D01*
X134742857Y-94630952D01*
X134719047Y-94678571D01*
X134695238Y-94702380D01*
X134647619Y-94726190D01*
X134504761Y-94726190D01*
X134457142Y-94702380D01*
X134433333Y-94678571D01*
G04 #@! TO.C,R4*
D13*
X133953571Y-98939285D02*
X133525000Y-98939285D01*
X133739285Y-98939285D02*
X133739285Y-98189285D01*
X133667857Y-98296428D01*
X133596428Y-98367857D01*
X133525000Y-98403571D01*
X134417857Y-98189285D02*
X134489285Y-98189285D01*
X134560714Y-98225000D01*
X134596428Y-98260714D01*
X134632142Y-98332142D01*
X134667857Y-98475000D01*
X134667857Y-98653571D01*
X134632142Y-98796428D01*
X134596428Y-98867857D01*
X134560714Y-98903571D01*
X134489285Y-98939285D01*
X134417857Y-98939285D01*
X134346428Y-98903571D01*
X134310714Y-98867857D01*
X134275000Y-98796428D01*
X134239285Y-98653571D01*
X134239285Y-98475000D01*
X134275000Y-98332142D01*
X134310714Y-98260714D01*
X134346428Y-98225000D01*
X134417857Y-98189285D01*
X134989285Y-98939285D02*
X134989285Y-98189285D01*
X135060714Y-98653571D02*
X135275000Y-98939285D01*
X135275000Y-98439285D02*
X134989285Y-98725000D01*
D16*
X134216666Y-97126190D02*
X134050000Y-96888095D01*
X133930952Y-97126190D02*
X133930952Y-96626190D01*
X134121428Y-96626190D01*
X134169047Y-96650000D01*
X134192857Y-96673809D01*
X134216666Y-96721428D01*
X134216666Y-96792857D01*
X134192857Y-96840476D01*
X134169047Y-96864285D01*
X134121428Y-96888095D01*
X133930952Y-96888095D01*
X134645238Y-96792857D02*
X134645238Y-97126190D01*
X134526190Y-96602380D02*
X134407142Y-96959523D01*
X134716666Y-96959523D01*
G04 #@! TO.C,R6*
X136116666Y-84126190D02*
X135950000Y-83888095D01*
X135830952Y-84126190D02*
X135830952Y-83626190D01*
X136021428Y-83626190D01*
X136069047Y-83650000D01*
X136092857Y-83673809D01*
X136116666Y-83721428D01*
X136116666Y-83792857D01*
X136092857Y-83840476D01*
X136069047Y-83864285D01*
X136021428Y-83888095D01*
X135830952Y-83888095D01*
X136545238Y-83626190D02*
X136450000Y-83626190D01*
X136402380Y-83650000D01*
X136378571Y-83673809D01*
X136330952Y-83745238D01*
X136307142Y-83840476D01*
X136307142Y-84030952D01*
X136330952Y-84078571D01*
X136354761Y-84102380D01*
X136402380Y-84126190D01*
X136497619Y-84126190D01*
X136545238Y-84102380D01*
X136569047Y-84078571D01*
X136592857Y-84030952D01*
X136592857Y-83911904D01*
X136569047Y-83864285D01*
X136545238Y-83840476D01*
X136497619Y-83816666D01*
X136402380Y-83816666D01*
X136354761Y-83840476D01*
X136330952Y-83864285D01*
X136307142Y-83911904D01*
G04 #@! TO.C,R7*
X141116666Y-84126190D02*
X140950000Y-83888095D01*
X140830952Y-84126190D02*
X140830952Y-83626190D01*
X141021428Y-83626190D01*
X141069047Y-83650000D01*
X141092857Y-83673809D01*
X141116666Y-83721428D01*
X141116666Y-83792857D01*
X141092857Y-83840476D01*
X141069047Y-83864285D01*
X141021428Y-83888095D01*
X140830952Y-83888095D01*
X141283333Y-83626190D02*
X141616666Y-83626190D01*
X141402380Y-84126190D01*
G04 #@! TO.C,R5*
D13*
X132739285Y-86589285D02*
X132739285Y-87017857D01*
X132739285Y-86803571D02*
X131989285Y-86803571D01*
X132096428Y-86875000D01*
X132167857Y-86946428D01*
X132203571Y-87017857D01*
X132739285Y-86267857D02*
X131989285Y-86267857D01*
X132453571Y-86196428D02*
X132739285Y-85982142D01*
X132239285Y-85982142D02*
X132525000Y-86267857D01*
D16*
X132556190Y-89723333D02*
X132318095Y-89890000D01*
X132556190Y-90009047D02*
X132056190Y-90009047D01*
X132056190Y-89818571D01*
X132080000Y-89770952D01*
X132103809Y-89747142D01*
X132151428Y-89723333D01*
X132222857Y-89723333D01*
X132270476Y-89747142D01*
X132294285Y-89770952D01*
X132318095Y-89818571D01*
X132318095Y-90009047D01*
X132056190Y-89270952D02*
X132056190Y-89509047D01*
X132294285Y-89532857D01*
X132270476Y-89509047D01*
X132246666Y-89461428D01*
X132246666Y-89342380D01*
X132270476Y-89294761D01*
X132294285Y-89270952D01*
X132341904Y-89247142D01*
X132460952Y-89247142D01*
X132508571Y-89270952D01*
X132532380Y-89294761D01*
X132556190Y-89342380D01*
X132556190Y-89461428D01*
X132532380Y-89509047D01*
X132508571Y-89532857D01*
G04 #@! TO.C,R9*
X137036190Y-70343333D02*
X136798095Y-70510000D01*
X137036190Y-70629047D02*
X136536190Y-70629047D01*
X136536190Y-70438571D01*
X136560000Y-70390952D01*
X136583809Y-70367142D01*
X136631428Y-70343333D01*
X136702857Y-70343333D01*
X136750476Y-70367142D01*
X136774285Y-70390952D01*
X136798095Y-70438571D01*
X136798095Y-70629047D01*
X137036190Y-70105238D02*
X137036190Y-70010000D01*
X137012380Y-69962380D01*
X136988571Y-69938571D01*
X136917142Y-69890952D01*
X136821904Y-69867142D01*
X136631428Y-69867142D01*
X136583809Y-69890952D01*
X136560000Y-69914761D01*
X136536190Y-69962380D01*
X136536190Y-70057619D01*
X136560000Y-70105238D01*
X136583809Y-70129047D01*
X136631428Y-70152857D01*
X136750476Y-70152857D01*
X136798095Y-70129047D01*
X136821904Y-70105238D01*
X136845714Y-70057619D01*
X136845714Y-69962380D01*
X136821904Y-69914761D01*
X136798095Y-69890952D01*
X136750476Y-69867142D01*
G04 #@! TO.C,R10*
X141018571Y-81716190D02*
X140851904Y-81478095D01*
X140732857Y-81716190D02*
X140732857Y-81216190D01*
X140923333Y-81216190D01*
X140970952Y-81240000D01*
X140994761Y-81263809D01*
X141018571Y-81311428D01*
X141018571Y-81382857D01*
X140994761Y-81430476D01*
X140970952Y-81454285D01*
X140923333Y-81478095D01*
X140732857Y-81478095D01*
X141494761Y-81716190D02*
X141209047Y-81716190D01*
X141351904Y-81716190D02*
X141351904Y-81216190D01*
X141304285Y-81287619D01*
X141256666Y-81335238D01*
X141209047Y-81359047D01*
X141804285Y-81216190D02*
X141851904Y-81216190D01*
X141899523Y-81240000D01*
X141923333Y-81263809D01*
X141947142Y-81311428D01*
X141970952Y-81406666D01*
X141970952Y-81525714D01*
X141947142Y-81620952D01*
X141923333Y-81668571D01*
X141899523Y-81692380D01*
X141851904Y-81716190D01*
X141804285Y-81716190D01*
X141756666Y-81692380D01*
X141732857Y-81668571D01*
X141709047Y-81620952D01*
X141685238Y-81525714D01*
X141685238Y-81406666D01*
X141709047Y-81311428D01*
X141732857Y-81263809D01*
X141756666Y-81240000D01*
X141804285Y-81216190D01*
G04 #@! TO.C,R11*
X139066190Y-70581428D02*
X138828095Y-70748095D01*
X139066190Y-70867142D02*
X138566190Y-70867142D01*
X138566190Y-70676666D01*
X138590000Y-70629047D01*
X138613809Y-70605238D01*
X138661428Y-70581428D01*
X138732857Y-70581428D01*
X138780476Y-70605238D01*
X138804285Y-70629047D01*
X138828095Y-70676666D01*
X138828095Y-70867142D01*
X139066190Y-70105238D02*
X139066190Y-70390952D01*
X139066190Y-70248095D02*
X138566190Y-70248095D01*
X138637619Y-70295714D01*
X138685238Y-70343333D01*
X138709047Y-70390952D01*
X139066190Y-69629047D02*
X139066190Y-69914761D01*
X139066190Y-69771904D02*
X138566190Y-69771904D01*
X138637619Y-69819523D01*
X138685238Y-69867142D01*
X138709047Y-69914761D01*
G04 #@! TO.C,R8*
D13*
X135650714Y-80389285D02*
X135579285Y-80353571D01*
X135543571Y-80317857D01*
X135507857Y-80246428D01*
X135507857Y-80032142D01*
X135543571Y-79960714D01*
X135579285Y-79925000D01*
X135650714Y-79889285D01*
X135757857Y-79889285D01*
X135829285Y-79925000D01*
X135865000Y-79960714D01*
X135900714Y-80032142D01*
X135900714Y-80246428D01*
X135865000Y-80317857D01*
X135829285Y-80353571D01*
X135757857Y-80389285D01*
X135650714Y-80389285D01*
X136222142Y-79889285D02*
X136222142Y-80639285D01*
X136222142Y-79925000D02*
X136293571Y-79889285D01*
X136436428Y-79889285D01*
X136507857Y-79925000D01*
X136543571Y-79960714D01*
X136579285Y-80032142D01*
X136579285Y-80246428D01*
X136543571Y-80317857D01*
X136507857Y-80353571D01*
X136436428Y-80389285D01*
X136293571Y-80389285D01*
X136222142Y-80353571D01*
X136793571Y-79889285D02*
X137079285Y-79889285D01*
X136900714Y-79639285D02*
X136900714Y-80282142D01*
X136936428Y-80353571D01*
X137007857Y-80389285D01*
X137079285Y-80389285D01*
X137150714Y-80460714D02*
X137722142Y-80460714D01*
X137900714Y-80389285D02*
X137900714Y-79639285D01*
X138222142Y-80389285D02*
X138222142Y-79996428D01*
X138186428Y-79925000D01*
X138115000Y-79889285D01*
X138007857Y-79889285D01*
X137936428Y-79925000D01*
X137900714Y-79960714D01*
X138579285Y-80389285D02*
X138579285Y-79889285D01*
X138579285Y-79639285D02*
X138543571Y-79675000D01*
X138579285Y-79710714D01*
X138615000Y-79675000D01*
X138579285Y-79639285D01*
X138579285Y-79710714D01*
X139257857Y-79889285D02*
X139257857Y-80496428D01*
X139222142Y-80567857D01*
X139186428Y-80603571D01*
X139115000Y-80639285D01*
X139007857Y-80639285D01*
X138936428Y-80603571D01*
X139257857Y-80353571D02*
X139186428Y-80389285D01*
X139043571Y-80389285D01*
X138972142Y-80353571D01*
X138936428Y-80317857D01*
X138900714Y-80246428D01*
X138900714Y-80032142D01*
X138936428Y-79960714D01*
X138972142Y-79925000D01*
X139043571Y-79889285D01*
X139186428Y-79889285D01*
X139257857Y-79925000D01*
X139615000Y-80389285D02*
X139615000Y-79639285D01*
X139936428Y-80389285D02*
X139936428Y-79996428D01*
X139900714Y-79925000D01*
X139829285Y-79889285D01*
X139722142Y-79889285D01*
X139650714Y-79925000D01*
X139615000Y-79960714D01*
D16*
X133896666Y-82006190D02*
X133730000Y-81768095D01*
X133610952Y-82006190D02*
X133610952Y-81506190D01*
X133801428Y-81506190D01*
X133849047Y-81530000D01*
X133872857Y-81553809D01*
X133896666Y-81601428D01*
X133896666Y-81672857D01*
X133872857Y-81720476D01*
X133849047Y-81744285D01*
X133801428Y-81768095D01*
X133610952Y-81768095D01*
X134182380Y-81720476D02*
X134134761Y-81696666D01*
X134110952Y-81672857D01*
X134087142Y-81625238D01*
X134087142Y-81601428D01*
X134110952Y-81553809D01*
X134134761Y-81530000D01*
X134182380Y-81506190D01*
X134277619Y-81506190D01*
X134325238Y-81530000D01*
X134349047Y-81553809D01*
X134372857Y-81601428D01*
X134372857Y-81625238D01*
X134349047Y-81672857D01*
X134325238Y-81696666D01*
X134277619Y-81720476D01*
X134182380Y-81720476D01*
X134134761Y-81744285D01*
X134110952Y-81768095D01*
X134087142Y-81815714D01*
X134087142Y-81910952D01*
X134110952Y-81958571D01*
X134134761Y-81982380D01*
X134182380Y-82006190D01*
X134277619Y-82006190D01*
X134325238Y-81982380D01*
X134349047Y-81958571D01*
X134372857Y-81910952D01*
X134372857Y-81815714D01*
X134349047Y-81768095D01*
X134325238Y-81744285D01*
X134277619Y-81720476D01*
G04 #@! TO.C,D1*
D13*
X133232380Y-133478095D02*
X132232380Y-133478095D01*
X132232380Y-133240000D01*
X132280000Y-133097142D01*
X132375238Y-133001904D01*
X132470476Y-132954285D01*
X132660952Y-132906666D01*
X132803809Y-132906666D01*
X132994285Y-132954285D01*
X133089523Y-133001904D01*
X133184761Y-133097142D01*
X133232380Y-133240000D01*
X133232380Y-133478095D01*
X133232380Y-131954285D02*
X133232380Y-132525714D01*
X133232380Y-132240000D02*
X132232380Y-132240000D01*
X132375238Y-132335238D01*
X132470476Y-132430476D01*
X132518095Y-132525714D01*
G04 #@! TO.C,D2*
X139482380Y-133478095D02*
X138482380Y-133478095D01*
X138482380Y-133240000D01*
X138530000Y-133097142D01*
X138625238Y-133001904D01*
X138720476Y-132954285D01*
X138910952Y-132906666D01*
X139053809Y-132906666D01*
X139244285Y-132954285D01*
X139339523Y-133001904D01*
X139434761Y-133097142D01*
X139482380Y-133240000D01*
X139482380Y-133478095D01*
X138577619Y-132525714D02*
X138530000Y-132478095D01*
X138482380Y-132382857D01*
X138482380Y-132144761D01*
X138530000Y-132049523D01*
X138577619Y-132001904D01*
X138672857Y-131954285D01*
X138768095Y-131954285D01*
X138910952Y-132001904D01*
X139482380Y-132573333D01*
X139482380Y-131954285D01*
G04 #@! TO.C,L6*
D17*
X134102380Y-104023809D02*
X133102380Y-104023809D01*
X133483333Y-104023809D02*
X133435714Y-103976190D01*
X133435714Y-103880952D01*
X133483333Y-103833333D01*
X133530952Y-103809523D01*
X133626190Y-103785714D01*
X133911904Y-103785714D01*
X134007142Y-103809523D01*
X134054761Y-103833333D01*
X134102380Y-103880952D01*
X134102380Y-103976190D01*
X134054761Y-104023809D01*
X134054761Y-103380952D02*
X134102380Y-103428571D01*
X134102380Y-103523809D01*
X134054761Y-103571428D01*
X133959523Y-103595238D01*
X133578571Y-103595238D01*
X133483333Y-103571428D01*
X133435714Y-103523809D01*
X133435714Y-103428571D01*
X133483333Y-103380952D01*
X133578571Y-103357142D01*
X133673809Y-103357142D01*
X133769047Y-103595238D01*
X134102380Y-102928571D02*
X133578571Y-102928571D01*
X133483333Y-102952380D01*
X133435714Y-103000000D01*
X133435714Y-103095238D01*
X133483333Y-103142857D01*
X134054761Y-102928571D02*
X134102380Y-102976190D01*
X134102380Y-103095238D01*
X134054761Y-103142857D01*
X133959523Y-103166666D01*
X133864285Y-103166666D01*
X133769047Y-103142857D01*
X133721428Y-103095238D01*
X133721428Y-102976190D01*
X133673809Y-102928571D01*
X134102380Y-102476190D02*
X133102380Y-102476190D01*
X134054761Y-102476190D02*
X134102380Y-102523809D01*
X134102380Y-102619047D01*
X134054761Y-102666666D01*
X134007142Y-102690476D01*
X133911904Y-102714285D01*
X133626190Y-102714285D01*
X133530952Y-102690476D01*
X133483333Y-102666666D01*
X133435714Y-102619047D01*
X133435714Y-102523809D01*
X133483333Y-102476190D01*
G04 #@! TO.C,Y1*
D13*
X140423809Y-118876190D02*
X140423809Y-119352380D01*
X140090476Y-118352380D02*
X140423809Y-118876190D01*
X140757142Y-118352380D01*
X141614285Y-119352380D02*
X141042857Y-119352380D01*
X141328571Y-119352380D02*
X141328571Y-118352380D01*
X141233333Y-118495238D01*
X141138095Y-118590476D01*
X141042857Y-118638095D01*
G04 #@! TO.C,J7*
X128266666Y-138952380D02*
X128266666Y-139666666D01*
X128219047Y-139809523D01*
X128123809Y-139904761D01*
X127980952Y-139952380D01*
X127885714Y-139952380D01*
X128647619Y-138952380D02*
X129314285Y-138952380D01*
X128885714Y-139952380D01*
G04 #@! TO.C,Q2*
X131104761Y-94247619D02*
X131009523Y-94200000D01*
X130914285Y-94104761D01*
X130771428Y-93961904D01*
X130676190Y-93914285D01*
X130580952Y-93914285D01*
X130628571Y-94152380D02*
X130533333Y-94104761D01*
X130438095Y-94009523D01*
X130390476Y-93819047D01*
X130390476Y-93485714D01*
X130438095Y-93295238D01*
X130533333Y-93200000D01*
X130628571Y-93152380D01*
X130819047Y-93152380D01*
X130914285Y-93200000D01*
X131009523Y-93295238D01*
X131057142Y-93485714D01*
X131057142Y-93819047D01*
X131009523Y-94009523D01*
X130914285Y-94104761D01*
X130819047Y-94152380D01*
X130628571Y-94152380D01*
X131438095Y-93247619D02*
X131485714Y-93200000D01*
X131580952Y-93152380D01*
X131819047Y-93152380D01*
X131914285Y-93200000D01*
X131961904Y-93247619D01*
X132009523Y-93342857D01*
X132009523Y-93438095D01*
X131961904Y-93580952D01*
X131390476Y-94152380D01*
X132009523Y-94152380D01*
G04 #@! TO.C,Q1*
X143304761Y-93447619D02*
X143209523Y-93400000D01*
X143114285Y-93304761D01*
X142971428Y-93161904D01*
X142876190Y-93114285D01*
X142780952Y-93114285D01*
X142828571Y-93352380D02*
X142733333Y-93304761D01*
X142638095Y-93209523D01*
X142590476Y-93019047D01*
X142590476Y-92685714D01*
X142638095Y-92495238D01*
X142733333Y-92400000D01*
X142828571Y-92352380D01*
X143019047Y-92352380D01*
X143114285Y-92400000D01*
X143209523Y-92495238D01*
X143257142Y-92685714D01*
X143257142Y-93019047D01*
X143209523Y-93209523D01*
X143114285Y-93304761D01*
X143019047Y-93352380D01*
X142828571Y-93352380D01*
X144209523Y-93352380D02*
X143638095Y-93352380D01*
X143923809Y-93352380D02*
X143923809Y-92352380D01*
X143828571Y-92495238D01*
X143733333Y-92590476D01*
X143638095Y-92638095D01*
G04 #@! TO.C,U4*
X141252380Y-89661904D02*
X142061904Y-89661904D01*
X142157142Y-89614285D01*
X142204761Y-89566666D01*
X142252380Y-89471428D01*
X142252380Y-89280952D01*
X142204761Y-89185714D01*
X142157142Y-89138095D01*
X142061904Y-89090476D01*
X141252380Y-89090476D01*
X141585714Y-88185714D02*
X142252380Y-88185714D01*
X141204761Y-88423809D02*
X141919047Y-88661904D01*
X141919047Y-88042857D01*
G04 #@! TO.C,D6*
X132731904Y-66782380D02*
X132731904Y-65782380D01*
X132970000Y-65782380D01*
X133112857Y-65830000D01*
X133208095Y-65925238D01*
X133255714Y-66020476D01*
X133303333Y-66210952D01*
X133303333Y-66353809D01*
X133255714Y-66544285D01*
X133208095Y-66639523D01*
X133112857Y-66734761D01*
X132970000Y-66782380D01*
X132731904Y-66782380D01*
X134160476Y-65782380D02*
X133970000Y-65782380D01*
X133874761Y-65830000D01*
X133827142Y-65877619D01*
X133731904Y-66020476D01*
X133684285Y-66210952D01*
X133684285Y-66591904D01*
X133731904Y-66687142D01*
X133779523Y-66734761D01*
X133874761Y-66782380D01*
X134065238Y-66782380D01*
X134160476Y-66734761D01*
X134208095Y-66687142D01*
X134255714Y-66591904D01*
X134255714Y-66353809D01*
X134208095Y-66258571D01*
X134160476Y-66210952D01*
X134065238Y-66163333D01*
X133874761Y-66163333D01*
X133779523Y-66210952D01*
X133731904Y-66258571D01*
X133684285Y-66353809D01*
G04 #@! TO.C,D8*
X140831904Y-66762380D02*
X140831904Y-65762380D01*
X141070000Y-65762380D01*
X141212857Y-65810000D01*
X141308095Y-65905238D01*
X141355714Y-66000476D01*
X141403333Y-66190952D01*
X141403333Y-66333809D01*
X141355714Y-66524285D01*
X141308095Y-66619523D01*
X141212857Y-66714761D01*
X141070000Y-66762380D01*
X140831904Y-66762380D01*
X141974761Y-66190952D02*
X141879523Y-66143333D01*
X141831904Y-66095714D01*
X141784285Y-66000476D01*
X141784285Y-65952857D01*
X141831904Y-65857619D01*
X141879523Y-65810000D01*
X141974761Y-65762380D01*
X142165238Y-65762380D01*
X142260476Y-65810000D01*
X142308095Y-65857619D01*
X142355714Y-65952857D01*
X142355714Y-66000476D01*
X142308095Y-66095714D01*
X142260476Y-66143333D01*
X142165238Y-66190952D01*
X141974761Y-66190952D01*
X141879523Y-66238571D01*
X141831904Y-66286190D01*
X141784285Y-66381428D01*
X141784285Y-66571904D01*
X141831904Y-66667142D01*
X141879523Y-66714761D01*
X141974761Y-66762380D01*
X142165238Y-66762380D01*
X142260476Y-66714761D01*
X142308095Y-66667142D01*
X142355714Y-66571904D01*
X142355714Y-66381428D01*
X142308095Y-66286190D01*
X142260476Y-66238571D01*
X142165238Y-66190952D01*
G04 #@! TD*
M02*
