M48
;DRILL file {KiCad 5.0.2-bee76a0~70~ubuntu18.04.1} date Tue 03 Dec 2019 11:07:01 AM CET
;FORMAT={-:-/ absolute / inch / decimal}
FMAT,2
INCH,TZ
T1C0.0157
T2C0.0394
%
G90
G05
T1
X4.9518Y-5.2593
X4.9547Y-5.3661
X4.9641Y-3.1995
X4.9642Y-4.1339
X4.9677Y-3.863
X4.9882Y-3.66
X4.9937Y-5.1205
X4.9996Y-4.1343
X5.0118Y-3.2793
X5.0138Y-3.1317
X5.022Y-4.2551
X5.0268Y-4.2037
X5.0276Y-3.5787
X5.0315Y-4.0551
X5.0339Y-5.4493
X5.0354Y-4.1339
X5.04Y-4.78
X5.0433Y-3.5472
X5.0589Y-4.4503
X5.0619Y-3.2708
X5.0642Y-3.2087
X5.0669Y-3.1401
X5.0709Y-3.5157
X5.0744Y-4.6555
X5.0748Y-4.2291
X5.0748Y-3.9843
X5.0787Y-3.374
X5.1073Y-4.3775
X5.1075Y-4.0472
X5.122Y-3.6732
X5.1277Y-4.4113
X5.1614Y-3.2087
X5.163Y-3.1385
X5.1681Y-3.2689
X5.1693Y-4.8661
X5.1697Y-4.7287
X5.1898Y-4.5402
X5.2138Y-5.1606
X5.2183Y-5.0902
X5.2193Y-3.3839
X5.22Y-4.3799
X5.2202Y-4.4193
X5.2217Y-3.3189
X5.2244Y-5.002
X5.2539Y-3.4319
X5.2693Y-4.4732
X5.2787Y-4.1347
X5.2854Y-4.0055
X5.2893Y-4.1795
X5.3195Y-4.5673
X5.3315Y-2.713
X5.35Y-3.0768
X5.3972Y-3.6583
X5.3992Y-4.9154
X5.4106Y-3.9055
X5.4299Y-2.9795
X5.4374Y-5.061
X5.4528Y-4.7244
X5.4528Y-4.7835
X5.4528Y-4.8524
X5.4528Y-5.1181
X5.4563Y-4.0148
X5.4571Y-4.5463
X5.4646Y-4.9244
X5.4705Y-4.9866
X5.4835Y-3.0693
X5.5154Y-2.6783
X5.5282Y-4.5591
X5.5425Y-3.6563
X5.5559Y-3.8413
X5.5906Y-4.065
X5.6244Y-4.5161
X5.6246Y-4.5752
X5.6398Y-3.8878
X5.6496Y-4.0453
X5.6623Y-4.7193
X5.6624Y-5.0256
T2
X5.5268Y-2.9622
X5.6268Y-2.9622
X5.2287Y-2.9571
X5.3287Y-2.9571
X5.5315Y-5.3543
X5.6315Y-5.3543
X5.0181Y-2.5803
X5.0181Y-2.6803
X5.1181Y-2.5803
X5.1181Y-2.6803
X5.274Y-5.3543
X5.374Y-5.3543
T0
M30
