G04 #@! TF.GenerationSoftware,KiCad,Pcbnew,5.0.2-bee76a0~70~ubuntu18.04.1*
G04 #@! TF.CreationDate,2019-12-03T11:06:18+01:00*
G04 #@! TF.ProjectId,instrumnet,696e7374-7275-46d6-9e65-742e6b696361,rev?*
G04 #@! TF.SameCoordinates,Original*
G04 #@! TF.FileFunction,Copper,L4,Bot*
G04 #@! TF.FilePolarity,Positive*
%FSLAX46Y46*%
G04 Gerber Fmt 4.6, Leading zero omitted, Abs format (unit mm)*
G04 Created by KiCad (PCBNEW 5.0.2-bee76a0~70~ubuntu18.04.1) date Tue 03 Dec 2019 11:06:18 AM CET*
%MOMM*%
%LPD*%
G01*
G04 APERTURE LIST*
G04 #@! TA.AperFunction,NonConductor*
%ADD10C,0.150000*%
G04 #@! TD*
G04 #@! TA.AperFunction,SMDPad,CuDef*
%ADD11R,1.500000X3.300000*%
G04 #@! TD*
G04 #@! TA.AperFunction,SMDPad,CuDef*
%ADD12R,2.000000X1.600000*%
G04 #@! TD*
G04 #@! TA.AperFunction,SMDPad,CuDef*
%ADD13R,1.600000X2.000000*%
G04 #@! TD*
G04 #@! TA.AperFunction,SMDPad,CuDef*
%ADD14R,1.700000X2.000000*%
G04 #@! TD*
G04 #@! TA.AperFunction,SMDPad,CuDef*
%ADD15R,1.500000X1.300000*%
G04 #@! TD*
G04 #@! TA.AperFunction,SMDPad,CuDef*
%ADD16R,2.000000X2.000000*%
G04 #@! TD*
G04 #@! TA.AperFunction,ComponentPad*
%ADD17R,1.700000X1.700000*%
G04 #@! TD*
G04 #@! TA.AperFunction,ComponentPad*
%ADD18O,1.700000X1.700000*%
G04 #@! TD*
G04 #@! TA.AperFunction,SMDPad,CuDef*
%ADD19R,1.200000X3.000000*%
G04 #@! TD*
G04 #@! TA.AperFunction,SMDPad,CuDef*
%ADD20R,1.560000X0.650000*%
G04 #@! TD*
G04 #@! TA.AperFunction,SMDPad,CuDef*
%ADD21R,0.600000X1.550000*%
G04 #@! TD*
G04 #@! TA.AperFunction,SMDPad,CuDef*
%ADD22R,1.175000X1.175000*%
G04 #@! TD*
G04 #@! TA.AperFunction,ViaPad*
%ADD23C,0.800000*%
G04 #@! TD*
G04 #@! TA.AperFunction,Conductor*
%ADD24C,0.250000*%
G04 #@! TD*
G04 #@! TA.AperFunction,Conductor*
%ADD25C,1.000000*%
G04 #@! TD*
G04 #@! TA.AperFunction,Conductor*
%ADD26C,0.500000*%
G04 #@! TD*
G04 APERTURE END LIST*
D10*
X125000000Y-64000000D02*
X144500000Y-64000000D01*
X125000000Y-142000000D02*
X125000000Y-64000000D01*
X144400000Y-142000000D02*
X125000000Y-142000000D01*
X144500000Y-64000000D02*
X144400000Y-142000000D01*
D11*
G04 #@! TO.P,C11,2*
G04 #@! TO.N,GND*
X135870000Y-80450000D03*
G04 #@! TO.P,C11,1*
G04 #@! TO.N,+5V*
X135870000Y-85950000D03*
G04 #@! TD*
D12*
G04 #@! TO.P,C18,1*
G04 #@! TO.N,+5V*
X131090000Y-86470000D03*
G04 #@! TO.P,C18,2*
G04 #@! TO.N,GND*
X127090000Y-86470000D03*
G04 #@! TD*
G04 #@! TO.P,C19,2*
G04 #@! TO.N,GND*
X127090000Y-84470000D03*
G04 #@! TO.P,C19,1*
G04 #@! TO.N,+5V*
X131090000Y-84470000D03*
G04 #@! TD*
G04 #@! TO.P,C17,1*
G04 #@! TO.N,Net-(C17-Pad1)*
X131660000Y-77700000D03*
G04 #@! TO.P,C17,2*
G04 #@! TO.N,GND*
X127660000Y-77700000D03*
G04 #@! TD*
G04 #@! TO.P,C16,2*
G04 #@! TO.N,GND*
X130830000Y-88630000D03*
G04 #@! TO.P,C16,1*
G04 #@! TO.N,Net-(C16-Pad1)*
X126830000Y-88630000D03*
G04 #@! TD*
D13*
G04 #@! TO.P,C8,2*
G04 #@! TO.N,GND*
X126330000Y-112080000D03*
G04 #@! TO.P,C8,1*
G04 #@! TO.N,+3V3*
X126330000Y-108080000D03*
G04 #@! TD*
D14*
G04 #@! TO.P,L5,1*
G04 #@! TO.N,Net-(C16-Pad1)*
X126220000Y-75190000D03*
G04 #@! TO.P,L5,2*
G04 #@! TO.N,Net-(D7-Pad1)*
X126220000Y-71190000D03*
G04 #@! TD*
D15*
G04 #@! TO.P,Rled1,2*
G04 #@! TO.N,Net-(D3-Pad2)*
X136450000Y-114750000D03*
G04 #@! TO.P,Rled1,1*
G04 #@! TO.N,led*
X133750000Y-114750000D03*
G04 #@! TD*
G04 #@! TO.P,R13,2*
G04 #@! TO.N,Net-(R13-Pad2)*
X140000000Y-118750000D03*
G04 #@! TO.P,R13,1*
G04 #@! TO.N,sck*
X142700000Y-118750000D03*
G04 #@! TD*
G04 #@! TO.P,R12,2*
G04 #@! TO.N,Net-(R12-Pad2)*
X134300000Y-118750000D03*
G04 #@! TO.P,R12,1*
G04 #@! TO.N,sck*
X137000000Y-118750000D03*
G04 #@! TD*
D14*
G04 #@! TO.P,D3,2*
G04 #@! TO.N,Net-(D3-Pad2)*
X135750000Y-112500000D03*
G04 #@! TO.P,D3,1*
G04 #@! TO.N,GND*
X135750000Y-108500000D03*
G04 #@! TD*
D16*
G04 #@! TO.P,TP12,1*
G04 #@! TO.N,reset*
X143000000Y-109000000D03*
G04 #@! TD*
G04 #@! TO.P,TP1,1*
G04 #@! TO.N,GND*
X143000000Y-113000000D03*
G04 #@! TD*
G04 #@! TO.P,TP2,1*
G04 #@! TO.N,Net-(TP2-Pad1)*
X136000000Y-101000000D03*
G04 #@! TD*
G04 #@! TO.P,TP3,1*
G04 #@! TO.N,Net-(TP3-Pad1)*
X132000000Y-101000000D03*
G04 #@! TD*
G04 #@! TO.P,TP4,1*
G04 #@! TO.N,Net-(TP4-Pad1)*
X132000000Y-105500000D03*
G04 #@! TD*
G04 #@! TO.P,TP5,1*
G04 #@! TO.N,do*
X130280000Y-127480000D03*
G04 #@! TD*
G04 #@! TO.P,TP6,1*
G04 #@! TO.N,cs_0*
X130280000Y-130480000D03*
G04 #@! TD*
G04 #@! TO.P,TP7,1*
G04 #@! TO.N,cs_1*
X130280000Y-133480000D03*
G04 #@! TD*
G04 #@! TO.P,TP8,1*
G04 #@! TO.N,+3V3*
X143000000Y-93000000D03*
G04 #@! TD*
G04 #@! TO.P,TP9,1*
G04 #@! TO.N,miso*
X143000000Y-97000000D03*
G04 #@! TD*
G04 #@! TO.P,TP10,1*
G04 #@! TO.N,mosi*
X143000000Y-101000000D03*
G04 #@! TD*
G04 #@! TO.P,TP11,1*
G04 #@! TO.N,sck*
X143000000Y-105000000D03*
G04 #@! TD*
D17*
G04 #@! TO.P,458_IN1,1*
G04 #@! TO.N,/in+*
X132810000Y-75110000D03*
D18*
G04 #@! TO.P,458_IN1,2*
G04 #@! TO.N,/in-*
X135350000Y-75110000D03*
G04 #@! TD*
G04 #@! TO.P,485_OUT1,2*
G04 #@! TO.N,/out-*
X140380000Y-75240000D03*
D17*
G04 #@! TO.P,485_OUT1,1*
G04 #@! TO.N,/out+*
X142920000Y-75240000D03*
G04 #@! TD*
D18*
G04 #@! TO.P,J1,4*
G04 #@! TO.N,GND*
X130000000Y-65540000D03*
G04 #@! TO.P,J1,3*
X130000000Y-68080000D03*
G04 #@! TO.P,J1,2*
G04 #@! TO.N,Net-(D7-Pad1)*
X127460000Y-65540000D03*
D17*
G04 #@! TO.P,J1,1*
X127460000Y-68080000D03*
G04 #@! TD*
D16*
G04 #@! TO.P,D7,3*
G04 #@! TO.N,N/C*
X129160000Y-74550000D03*
D19*
G04 #@! TO.P,D7,2*
G04 #@! TO.N,GND*
X130160000Y-71000000D03*
G04 #@! TO.P,D7,1*
G04 #@! TO.N,Net-(D7-Pad1)*
X128160000Y-71000000D03*
G04 #@! TD*
D20*
G04 #@! TO.P,U6,1*
G04 #@! TO.N,Net-(C16-Pad1)*
X127240000Y-82370000D03*
G04 #@! TO.P,U6,2*
G04 #@! TO.N,GND*
X127240000Y-81420000D03*
G04 #@! TO.P,U6,3*
G04 #@! TO.N,Net-(C16-Pad1)*
X127240000Y-80470000D03*
G04 #@! TO.P,U6,4*
G04 #@! TO.N,Net-(C17-Pad1)*
X129940000Y-80470000D03*
G04 #@! TO.P,U6,5*
G04 #@! TO.N,+5V*
X129940000Y-82370000D03*
G04 #@! TD*
D17*
G04 #@! TO.P,J3,1*
G04 #@! TO.N,Net-(D2-Pad2)*
X143040000Y-136000000D03*
D18*
G04 #@! TO.P,J3,2*
G04 #@! TO.N,Net-(D2-Pad1)*
X140500000Y-136000000D03*
G04 #@! TD*
G04 #@! TO.P,J2,2*
G04 #@! TO.N,Net-(D1-Pad1)*
X133960000Y-136000000D03*
D17*
G04 #@! TO.P,J2,1*
G04 #@! TO.N,Net-(D1-Pad2)*
X136500000Y-136000000D03*
G04 #@! TD*
D21*
G04 #@! TO.P,U2,1*
G04 #@! TO.N,GND*
X137270000Y-127000000D03*
G04 #@! TO.P,U2,2*
G04 #@! TO.N,Net-(C3-Pad2)*
X136000000Y-127000000D03*
G04 #@! TO.P,U2,3*
G04 #@! TO.N,Net-(C3-Pad1)*
X134730000Y-127000000D03*
G04 #@! TO.P,U2,4*
G04 #@! TO.N,+3V3*
X133460000Y-127000000D03*
G04 #@! TO.P,U2,5*
G04 #@! TO.N,Net-(R12-Pad2)*
X133460000Y-121600000D03*
G04 #@! TO.P,U2,6*
G04 #@! TO.N,cs_0*
X134730000Y-121600000D03*
G04 #@! TO.P,U2,7*
G04 #@! TO.N,do*
X136000000Y-121600000D03*
G04 #@! TO.P,U2,8*
G04 #@! TO.N,N/C*
X137270000Y-121600000D03*
D22*
G04 #@! TO.P,U2,9*
X134777500Y-123712500D03*
X135952500Y-123712500D03*
X134777500Y-124887500D03*
X135952500Y-124887500D03*
G04 #@! TD*
G04 #@! TO.P,U3,9*
G04 #@! TO.N,N/C*
X142202500Y-124537500D03*
X141027500Y-124537500D03*
X142202500Y-123362500D03*
X141027500Y-123362500D03*
D21*
G04 #@! TO.P,U3,8*
X143520000Y-121250000D03*
G04 #@! TO.P,U3,7*
G04 #@! TO.N,do*
X142250000Y-121250000D03*
G04 #@! TO.P,U3,6*
G04 #@! TO.N,cs_1*
X140980000Y-121250000D03*
G04 #@! TO.P,U3,5*
G04 #@! TO.N,Net-(R13-Pad2)*
X139710000Y-121250000D03*
G04 #@! TO.P,U3,4*
G04 #@! TO.N,+3V3*
X139710000Y-126650000D03*
G04 #@! TO.P,U3,3*
G04 #@! TO.N,Net-(C4-Pad1)*
X140980000Y-126650000D03*
G04 #@! TO.P,U3,2*
G04 #@! TO.N,Net-(C4-Pad2)*
X142250000Y-126650000D03*
G04 #@! TO.P,U3,1*
G04 #@! TO.N,GND*
X143520000Y-126650000D03*
G04 #@! TD*
D14*
G04 #@! TO.P,L1,2*
G04 #@! TO.N,Net-(D1-Pad1)*
X134000000Y-133250000D03*
G04 #@! TO.P,L1,1*
G04 #@! TO.N,Net-(C3-Pad1)*
X134000000Y-129250000D03*
G04 #@! TD*
G04 #@! TO.P,L2,1*
G04 #@! TO.N,Net-(D1-Pad2)*
X136500000Y-133250000D03*
G04 #@! TO.P,L2,2*
G04 #@! TO.N,Net-(C3-Pad2)*
X136500000Y-129250000D03*
G04 #@! TD*
G04 #@! TO.P,L3,2*
G04 #@! TO.N,Net-(D2-Pad1)*
X140500000Y-133250000D03*
G04 #@! TO.P,L3,1*
G04 #@! TO.N,Net-(C4-Pad1)*
X140500000Y-129250000D03*
G04 #@! TD*
G04 #@! TO.P,L4,1*
G04 #@! TO.N,Net-(D2-Pad2)*
X143000000Y-133250000D03*
G04 #@! TO.P,L4,2*
G04 #@! TO.N,Net-(C4-Pad2)*
X143000000Y-129250000D03*
G04 #@! TD*
D23*
G04 #@! TO.N,GND*
X138589855Y-101975010D03*
X125850000Y-136300000D03*
X142859849Y-114710000D03*
X135115000Y-116010000D03*
X137090000Y-92920000D03*
X140780000Y-92870000D03*
X135420000Y-68910000D03*
X140090000Y-68030000D03*
X138110000Y-128550000D03*
X138500009Y-130000008D03*
X138610000Y-115477136D03*
X131100000Y-81500000D03*
X128630000Y-81500000D03*
X128572875Y-83077214D03*
X128700010Y-79759758D03*
X127350000Y-79544998D03*
X127300000Y-83295002D03*
X131270000Y-83030000D03*
X131141408Y-79717897D03*
X126090000Y-105000000D03*
X126990000Y-105010000D03*
X127900000Y-105000000D03*
X126087050Y-81266858D03*
X143825000Y-127649998D03*
X128495403Y-113036994D03*
X135890000Y-78150000D03*
X137920000Y-75680000D03*
X140417390Y-115800860D03*
X128016000Y-121412000D03*
X128900010Y-101200000D03*
X129000000Y-85700000D03*
X130100000Y-93300000D03*
X131300000Y-123600000D03*
X132430000Y-131080000D03*
X131310000Y-120110000D03*
G04 #@! TO.N,+3V3*
X141120000Y-97570000D03*
X137430000Y-99200000D03*
X138950000Y-126660000D03*
X126180000Y-98120000D03*
X132700000Y-127050000D03*
X128900000Y-107420000D03*
X129730000Y-102800000D03*
X127862000Y-138412000D03*
X126840000Y-130060000D03*
X125775000Y-133586000D03*
X126699990Y-92964999D03*
X127680000Y-106775000D03*
X127560000Y-108080000D03*
G04 #@! TO.N,+5V*
X139280000Y-77960000D03*
X133450000Y-87170000D03*
X132570000Y-85950000D03*
X128800000Y-89300000D03*
X132630000Y-84300000D03*
X127800000Y-103000000D03*
X127700000Y-90900000D03*
X128100000Y-90100000D03*
G04 #@! TO.N,Net-(C4-Pad2)*
X143823515Y-119869562D03*
G04 #@! TO.N,Net-(C4-Pad1)*
X138800000Y-125080000D03*
G04 #@! TO.N,Net-(C3-Pad2)*
X137140002Y-124850000D03*
G04 #@! TO.N,Net-(C3-Pad1)*
X132545010Y-129290000D03*
G04 #@! TO.N,rxd_3v3*
X129725447Y-111188387D03*
X132589221Y-111248571D03*
G04 #@! TO.N,txd_3v3*
X130243232Y-112045842D03*
X132593265Y-112250000D03*
G04 #@! TO.N,do*
X138500000Y-120000000D03*
G04 #@! TO.N,cs_1*
X138500000Y-123250000D03*
G04 #@! TO.N,cs_0*
X138500000Y-121500000D03*
G04 #@! TO.N,sck*
X142000000Y-103250000D03*
G04 #@! TO.N,miso*
X143250000Y-98750000D03*
G04 #@! TO.N,mosi*
X143500000Y-102750000D03*
G04 #@! TO.N,reset*
X131820000Y-115320000D03*
X142864135Y-116210245D03*
X128890000Y-118250000D03*
G04 #@! TO.N,Net-(TP4-Pad1)*
X134348801Y-106158752D03*
G04 #@! TO.N,Net-(TP3-Pad1)*
X134077813Y-105021443D03*
G04 #@! TO.N,Net-(TP2-Pad1)*
X134250022Y-101739827D03*
G04 #@! TO.N,led*
X133840000Y-113620000D03*
G04 #@! TD*
D24*
G04 #@! TO.N,GND*
X136850000Y-108500000D02*
X137790000Y-107560000D01*
X135750000Y-108500000D02*
X136850000Y-108500000D01*
X137790000Y-107560000D02*
X137790000Y-103850000D01*
X138589855Y-103050145D02*
X138589855Y-101975010D01*
X137790000Y-103850000D02*
X138589855Y-103050145D01*
X143000000Y-114569849D02*
X142859849Y-114710000D01*
X143000000Y-113000000D02*
X143000000Y-114569849D01*
X128490000Y-83595000D02*
X127615000Y-84470000D01*
X127615000Y-84470000D02*
X127490000Y-84470000D01*
X128490000Y-81640000D02*
X128490000Y-83595000D01*
X128270000Y-81420000D02*
X128490000Y-81640000D01*
X127240000Y-81420000D02*
X128270000Y-81420000D01*
D25*
X127490000Y-86470000D02*
X127490000Y-84470000D01*
X126690000Y-84470000D02*
X127840000Y-84470000D01*
D24*
X137270000Y-127710000D02*
X138110000Y-128550000D01*
X137270000Y-127000000D02*
X137270000Y-127710000D01*
X143520000Y-126650000D02*
X143520000Y-127675000D01*
D26*
X128285002Y-81500000D02*
X128490000Y-81500000D01*
X128205002Y-81420000D02*
X128285002Y-81500000D01*
D24*
X128490000Y-81640000D02*
X128490000Y-81500000D01*
D26*
X128490000Y-79470000D02*
X127490000Y-78470000D01*
X128490000Y-83470000D02*
X127490000Y-84470000D01*
X128490000Y-81135002D02*
X128490000Y-80710000D01*
X128490000Y-81500000D02*
X128490000Y-80710000D01*
X128205002Y-81420000D02*
X128490000Y-81135002D01*
X128490000Y-80710000D02*
X128490000Y-79470000D01*
X128490000Y-81704998D02*
X128490000Y-82370000D01*
X128205002Y-81420000D02*
X128490000Y-81704998D01*
X127240000Y-81420000D02*
X128205002Y-81420000D01*
X128490000Y-81500000D02*
X128490000Y-82370000D01*
X128490000Y-81640000D02*
X128630000Y-81500000D01*
X128630000Y-81500000D02*
X129466484Y-81500000D01*
X128350000Y-81500000D02*
X128270000Y-81420000D01*
X129466484Y-81500000D02*
X128350000Y-81500000D01*
X130333507Y-81419991D02*
X129546493Y-81419991D01*
X129546493Y-81419991D02*
X129466484Y-81500000D01*
X130413517Y-81500000D02*
X130333507Y-81419991D01*
X131100000Y-81500000D02*
X130413517Y-81500000D01*
X128630000Y-81500000D02*
X128630000Y-83020089D01*
X128490000Y-82370000D02*
X128572875Y-83077214D01*
X128630000Y-83020089D02*
X128572875Y-83077214D01*
X128572875Y-83077214D02*
X128490000Y-83470000D01*
X128630000Y-81500000D02*
X128630000Y-79829768D01*
X128630000Y-79829768D02*
X128700010Y-79759758D01*
X128700010Y-79759758D02*
X128485250Y-79544998D01*
X128485250Y-79544998D02*
X127350000Y-79544998D01*
X128230000Y-83295002D02*
X127300000Y-83295002D01*
X128700010Y-79759758D02*
X128700010Y-82824992D01*
X128700010Y-82824992D02*
X128230000Y-83295002D01*
X127848940Y-104948940D02*
X127900000Y-105000000D01*
X131260000Y-81660000D02*
X131260000Y-83120000D01*
X131100000Y-81500000D02*
X131260000Y-81660000D01*
X131541407Y-81058593D02*
X131541407Y-80117896D01*
X131541407Y-80117896D02*
X131141408Y-79717897D01*
X131100000Y-81500000D02*
X131541407Y-81058593D01*
X127240000Y-81420000D02*
X126240192Y-81420000D01*
X126240192Y-81420000D02*
X126087050Y-81266858D01*
D25*
X129650000Y-68430000D02*
X130000000Y-68080000D01*
X127730002Y-86470000D02*
X127090000Y-86470000D01*
X130830000Y-88630000D02*
X129890002Y-88630000D01*
D24*
X143520000Y-127675000D02*
X143799998Y-127675000D01*
X143799998Y-127675000D02*
X143825000Y-127649998D01*
D26*
X127538409Y-112080000D02*
X128495403Y-113036994D01*
X126330000Y-112080000D02*
X127538409Y-112080000D01*
D25*
X132150000Y-80450000D02*
X131255001Y-81344999D01*
X135870000Y-80450000D02*
X132150000Y-80450000D01*
X135870000Y-80450000D02*
X135870000Y-78170000D01*
X135870000Y-78170000D02*
X135890000Y-78150000D01*
X130000000Y-70840000D02*
X130160000Y-71000000D01*
X130000000Y-68080000D02*
X130000000Y-70840000D01*
X130000000Y-68080000D02*
X130000000Y-65540000D01*
D26*
X130830000Y-90030000D02*
X130900000Y-90100000D01*
X130830000Y-88630000D02*
X130830000Y-90030000D01*
X129100000Y-85800000D02*
X129000000Y-85700000D01*
D25*
X129890002Y-88630000D02*
X129100000Y-87839998D01*
D26*
X129100000Y-87839998D02*
X129100000Y-85800000D01*
D25*
X129100000Y-87839998D02*
X127730002Y-86470000D01*
D24*
G04 #@! TO.N,+3V3*
X141120000Y-97004315D02*
X141120000Y-97570000D01*
X141120000Y-93630000D02*
X141120000Y-97004315D01*
X141750000Y-93000000D02*
X141120000Y-93630000D01*
X143000000Y-93000000D02*
X141750000Y-93000000D01*
X133460000Y-127000000D02*
X132750000Y-127000000D01*
X132750000Y-127000000D02*
X132700000Y-127050000D01*
X138960000Y-126650000D02*
X138950000Y-126660000D01*
X139710000Y-126650000D02*
X138960000Y-126650000D01*
D26*
X128240000Y-108080000D02*
X128900000Y-107420000D01*
X126330000Y-108080000D02*
X127560000Y-108080000D01*
X127560000Y-108080000D02*
X128240000Y-108080000D01*
D25*
G04 #@! TO.N,+5V*
X132570000Y-85950000D02*
X131090000Y-84470000D01*
X135870000Y-85950000D02*
X132570000Y-85950000D01*
X131090000Y-86470000D02*
X132050000Y-86470000D01*
X132050000Y-86470000D02*
X132570000Y-85950000D01*
X129940000Y-83320000D02*
X131090000Y-84470000D01*
X129940000Y-82370000D02*
X129940000Y-83320000D01*
D26*
X127800000Y-92400000D02*
X127800000Y-91000000D01*
X127800000Y-91000000D02*
X127700000Y-90900000D01*
D25*
X127800000Y-103000000D02*
X127800000Y-92400000D01*
X127800000Y-92400000D02*
X127800000Y-90400000D01*
D26*
X127700000Y-90900000D02*
X127700000Y-90402581D01*
X127700000Y-90402581D02*
X128201137Y-89901444D01*
X128800000Y-89400000D02*
X128100000Y-90100000D01*
X128800000Y-89300000D02*
X128800000Y-89400000D01*
D25*
X131260000Y-84300000D02*
X131090000Y-84470000D01*
X132630000Y-84300000D02*
X131260000Y-84300000D01*
X132750000Y-86470000D02*
X131090000Y-86470000D01*
X133450000Y-87170000D02*
X132750000Y-86470000D01*
X132630000Y-86350000D02*
X133450000Y-87170000D01*
X132630000Y-84300000D02*
X132630000Y-86350000D01*
D24*
G04 #@! TO.N,Net-(C4-Pad2)*
X142250000Y-128500000D02*
X143000000Y-129250000D01*
X142250000Y-126650000D02*
X142250000Y-128500000D01*
X143745882Y-129995882D02*
X143000000Y-129250000D01*
X142250000Y-126175000D02*
X142250000Y-126650000D01*
X143115001Y-125309999D02*
X142250000Y-126175000D01*
X143115001Y-122514999D02*
X143115001Y-125309999D01*
X142894999Y-122294997D02*
X143115001Y-122514999D01*
X142894999Y-120232393D02*
X142894999Y-122294997D01*
X143257830Y-119869562D02*
X142894999Y-120232393D01*
X143823515Y-119869562D02*
X143257830Y-119869562D01*
G04 #@! TO.N,Net-(C4-Pad1)*
X140980000Y-128770000D02*
X140500000Y-129250000D01*
X140980000Y-126650000D02*
X140980000Y-128770000D01*
X140980000Y-126650000D02*
X140980000Y-126175000D01*
X140980000Y-126175000D02*
X139885000Y-125080000D01*
X139885000Y-125080000D02*
X138800000Y-125080000D01*
G04 #@! TO.N,Net-(C3-Pad2)*
X136000000Y-128750000D02*
X136500000Y-129250000D01*
X136000000Y-127000000D02*
X136000000Y-128750000D01*
X137097301Y-129847301D02*
X136500000Y-129250000D01*
X137097301Y-130953334D02*
X137097301Y-129847301D01*
X137140002Y-125384998D02*
X137140002Y-124850000D01*
X136000000Y-127000000D02*
X136000000Y-126525000D01*
X136000000Y-126525000D02*
X137140002Y-125384998D01*
G04 #@! TO.N,Net-(C3-Pad1)*
X134000000Y-128755000D02*
X134000000Y-129250000D01*
X134730000Y-128025000D02*
X134000000Y-128755000D01*
X134730000Y-127000000D02*
X134730000Y-128025000D01*
X134000000Y-129250000D02*
X132585010Y-129250000D01*
X132585010Y-129250000D02*
X132545010Y-129290000D01*
G04 #@! TO.N,rxd_3v3*
X129725447Y-111188387D02*
X132529037Y-111188387D01*
X132529037Y-111188387D02*
X132589221Y-111248571D01*
G04 #@! TO.N,txd_3v3*
X132389107Y-112045842D02*
X132593265Y-112250000D01*
X130243232Y-112045842D02*
X132389107Y-112045842D01*
G04 #@! TO.N,do*
X142250000Y-120225000D02*
X141250000Y-119225000D01*
X142250000Y-121250000D02*
X142250000Y-120225000D01*
X141250000Y-118014998D02*
X140985002Y-117750000D01*
X141250000Y-119225000D02*
X141250000Y-118014998D01*
X138075001Y-118689997D02*
X138075001Y-119660001D01*
X140985002Y-117750000D02*
X139014998Y-117750000D01*
X139014998Y-117750000D02*
X138075001Y-118689997D01*
X138075001Y-119660001D02*
X137485002Y-120250000D01*
X137485002Y-120250000D02*
X136875000Y-120250000D01*
X136875000Y-120250000D02*
X136000000Y-121125000D01*
X136000000Y-121125000D02*
X136000000Y-121600000D01*
X138500000Y-120000000D02*
X138160001Y-119660001D01*
X138160001Y-119660001D02*
X138075001Y-119660001D01*
X130280000Y-126230000D02*
X132210000Y-124300000D01*
X130280000Y-127480000D02*
X130280000Y-126230000D01*
X132210000Y-118854998D02*
X133810000Y-117254998D01*
X132210000Y-124300000D02*
X132210000Y-118854998D01*
X133810000Y-117254998D02*
X134944998Y-117254998D01*
X135924999Y-118234999D02*
X135924999Y-120499999D01*
X136000000Y-120575000D02*
X136000000Y-121600000D01*
X135924999Y-120499999D02*
X136000000Y-120575000D01*
X134944998Y-117254998D02*
X135924999Y-118234999D01*
G04 #@! TO.N,Net-(D3-Pad2)*
X135750000Y-114050000D02*
X136450000Y-114750000D01*
X135750000Y-112500000D02*
X135750000Y-114050000D01*
G04 #@! TO.N,Net-(D1-Pad2)*
X136500000Y-133250000D02*
X136500000Y-136000000D01*
G04 #@! TO.N,Net-(D2-Pad2)*
X143000000Y-135960000D02*
X143040000Y-136000000D01*
X143000000Y-133250000D02*
X143000000Y-135960000D01*
G04 #@! TO.N,cs_1*
X133590000Y-131678335D02*
X133428335Y-131678335D01*
X138065001Y-123684999D02*
X138065001Y-127431997D01*
X138500000Y-123250000D02*
X138065001Y-123684999D01*
X138065001Y-127431997D02*
X138835002Y-128201998D01*
X138835002Y-128201998D02*
X138835002Y-128898002D01*
X138458002Y-129275002D02*
X137774999Y-129275002D01*
X137774999Y-129275002D02*
X137774999Y-131348638D01*
X140980000Y-121725000D02*
X139455000Y-123250000D01*
X139455000Y-123250000D02*
X138500000Y-123250000D01*
X140980000Y-121725000D02*
X140980000Y-121250000D01*
X137774999Y-131348638D02*
X137445302Y-131678335D01*
X138835002Y-128898002D02*
X138458002Y-129275002D01*
X137445302Y-131678335D02*
X133590000Y-131678335D01*
X130280000Y-133480000D02*
X131103002Y-133480000D01*
X132904667Y-131678335D02*
X133590000Y-131678335D01*
X131103002Y-133480000D02*
X132904667Y-131678335D01*
G04 #@! TO.N,cs_0*
X138500000Y-122030002D02*
X138500000Y-121500000D01*
X134730000Y-122075000D02*
X135355001Y-122700001D01*
X137830001Y-122700001D02*
X138500000Y-122030002D01*
X135355001Y-122700001D02*
X137830001Y-122700001D01*
X134730000Y-121600000D02*
X134730000Y-122075000D01*
X132660011Y-124486400D02*
X132660011Y-124144989D01*
X132660011Y-124144989D02*
X134730000Y-122075000D01*
X131820000Y-125326411D02*
X132660011Y-124486400D01*
X131820000Y-130190000D02*
X131820000Y-125326411D01*
X131530000Y-130480000D02*
X131820000Y-130190000D01*
X130280000Y-130480000D02*
X131530000Y-130480000D01*
G04 #@! TO.N,sck*
X138550011Y-117299989D02*
X137100000Y-118750000D01*
X142149989Y-117299989D02*
X138550011Y-117299989D01*
X137100000Y-118750000D02*
X137000000Y-118750000D01*
X142700000Y-117850000D02*
X142149989Y-117299989D01*
X142700000Y-118750000D02*
X142700000Y-117850000D01*
X142000000Y-103250000D02*
X142000000Y-104000000D01*
X142000000Y-104000000D02*
X143000000Y-105000000D01*
X143000000Y-106250000D02*
X141187001Y-108062999D01*
X141187001Y-116337001D02*
X142149989Y-117299989D01*
X143000000Y-105000000D02*
X143000000Y-106250000D01*
X141187001Y-108062999D02*
X141187001Y-116337001D01*
G04 #@! TO.N,Net-(C17-Pad1)*
X129940000Y-78520000D02*
X129990000Y-78470000D01*
D25*
X130760000Y-77700000D02*
X129940000Y-78520000D01*
X131660000Y-77700000D02*
X130760000Y-77700000D01*
X129940000Y-78520000D02*
X129940000Y-80469981D01*
G04 #@! TO.N,Net-(D7-Pad1)*
X127650000Y-68270000D02*
X127460000Y-68080000D01*
X127460000Y-65540000D02*
X127460000Y-68080000D01*
X128160000Y-68780000D02*
X127460000Y-68080000D01*
X128160000Y-71000000D02*
X128160000Y-68780000D01*
X127970000Y-71190000D02*
X128160000Y-71000000D01*
X126220000Y-71190000D02*
X127970000Y-71190000D01*
D24*
G04 #@! TO.N,miso*
X143250000Y-97250000D02*
X143000000Y-97000000D01*
X143250000Y-98750000D02*
X143250000Y-97250000D01*
G04 #@! TO.N,mosi*
X143500000Y-101500000D02*
X143000000Y-101000000D01*
X143500000Y-102750000D02*
X143500000Y-101500000D01*
G04 #@! TO.N,reset*
X143000000Y-109000000D02*
X143000000Y-110250000D01*
X141674999Y-111575001D02*
X141674999Y-115124999D01*
X143000000Y-110250000D02*
X141674999Y-111575001D01*
X142760245Y-116210245D02*
X142864135Y-116210245D01*
X141674999Y-115124999D02*
X142760245Y-116210245D01*
X131820000Y-115320000D02*
X128890000Y-118250000D01*
G04 #@! TO.N,Net-(C16-Pad1)*
X126210000Y-80470000D02*
X126170000Y-80430000D01*
X127240000Y-80470000D02*
X126210000Y-80470000D01*
X126170000Y-80430000D02*
X125470000Y-80430000D01*
X125470000Y-80430000D02*
X125290000Y-80610000D01*
X126117190Y-82370000D02*
X127240000Y-82370000D01*
X125362049Y-81614859D02*
X126117190Y-82370000D01*
X125362049Y-81522049D02*
X125362049Y-81614859D01*
X125290000Y-81450000D02*
X125362049Y-81522049D01*
X125290000Y-80610000D02*
X125290000Y-81450000D01*
X126630000Y-88630000D02*
X125610000Y-87610000D01*
X126830000Y-88630000D02*
X126630000Y-88630000D01*
X125610000Y-83545000D02*
X126785000Y-82370000D01*
X126785000Y-82370000D02*
X127240000Y-82370000D01*
X125610000Y-87610000D02*
X125610000Y-83545000D01*
D26*
X126785000Y-80470000D02*
X127240000Y-80470000D01*
X125960000Y-76950000D02*
X125960000Y-79645000D01*
X126220000Y-76690000D02*
X125960000Y-76950000D01*
X125960000Y-79645000D02*
X126785000Y-80470000D01*
X126220000Y-75190000D02*
X126220000Y-76690000D01*
D24*
G04 #@! TO.N,Net-(D1-Pad1)*
X134000000Y-135960000D02*
X133960000Y-136000000D01*
X134000000Y-133250000D02*
X134000000Y-135960000D01*
G04 #@! TO.N,Net-(R13-Pad2)*
X140000000Y-120960000D02*
X139710000Y-121250000D01*
X140000000Y-118750000D02*
X140000000Y-120960000D01*
G04 #@! TO.N,Net-(R12-Pad2)*
X133460000Y-120575000D02*
X133460000Y-121600000D01*
X134300000Y-118750000D02*
X134300000Y-119650000D01*
X134300000Y-119650000D02*
X133460000Y-120490000D01*
X133460000Y-120490000D02*
X133460000Y-120575000D01*
G04 #@! TO.N,Net-(D2-Pad1)*
X140500000Y-133250000D02*
X140500000Y-136000000D01*
G04 #@! TO.N,Net-(TP4-Pad1)*
X133908752Y-106158752D02*
X134348801Y-106158752D01*
X133250000Y-105500000D02*
X133908752Y-106158752D01*
X132000000Y-105500000D02*
X133250000Y-105500000D01*
G04 #@! TO.N,Net-(TP3-Pad1)*
X132000000Y-101000000D02*
X132000000Y-102943630D01*
X132000000Y-102943630D02*
X133677814Y-104621444D01*
X133677814Y-104621444D02*
X134077813Y-105021443D01*
G04 #@! TO.N,Net-(TP2-Pad1)*
X134250022Y-101499978D02*
X134250022Y-101739827D01*
X136000000Y-101000000D02*
X134750000Y-101000000D01*
X134750000Y-101000000D02*
X134250022Y-101499978D01*
G04 #@! TO.N,led*
X133840000Y-114660000D02*
X133750000Y-114750000D01*
X133840000Y-113620000D02*
X133840000Y-114660000D01*
G04 #@! TD*
M02*
