G04 #@! TF.GenerationSoftware,KiCad,Pcbnew,5.0.2-bee76a0~70~ubuntu18.04.1*
G04 #@! TF.CreationDate,2019-12-03T11:06:18+01:00*
G04 #@! TF.ProjectId,instrumnet,696e7374-7275-46d6-9e65-742e6b696361,rev?*
G04 #@! TF.SameCoordinates,Original*
G04 #@! TF.FileFunction,Copper,L2,Inr*
G04 #@! TF.FilePolarity,Positive*
%FSLAX46Y46*%
G04 Gerber Fmt 4.6, Leading zero omitted, Abs format (unit mm)*
G04 Created by KiCad (PCBNEW 5.0.2-bee76a0~70~ubuntu18.04.1) date Tue 03 Dec 2019 11:06:18 AM CET*
%MOMM*%
%LPD*%
G01*
G04 APERTURE LIST*
G04 #@! TA.AperFunction,NonConductor*
%ADD10C,0.150000*%
G04 #@! TD*
G04 #@! TA.AperFunction,ViaPad*
%ADD11R,1.700000X1.700000*%
G04 #@! TD*
G04 #@! TA.AperFunction,ViaPad*
%ADD12O,1.700000X1.700000*%
G04 #@! TD*
G04 #@! TA.AperFunction,ViaPad*
%ADD13C,0.800000*%
G04 #@! TD*
G04 #@! TA.AperFunction,Conductor*
%ADD14C,0.254000*%
G04 #@! TD*
G04 APERTURE END LIST*
D10*
X125000000Y-64000000D02*
X144500000Y-64000000D01*
X125000000Y-142000000D02*
X125000000Y-64000000D01*
X144400000Y-142000000D02*
X125000000Y-142000000D01*
X144500000Y-64000000D02*
X144400000Y-142000000D01*
D11*
G04 #@! TO.N,/in+*
G04 #@! TO.C,458_IN1*
X132810000Y-75110000D03*
D12*
G04 #@! TO.N,/in-*
X135350000Y-75110000D03*
G04 #@! TD*
G04 #@! TO.N,/out-*
G04 #@! TO.C,485_OUT1*
X140380000Y-75240000D03*
D11*
G04 #@! TO.N,/out+*
X142920000Y-75240000D03*
G04 #@! TD*
D12*
G04 #@! TO.N,GND*
G04 #@! TO.C,J1*
X130000000Y-65540000D03*
X130000000Y-68080000D03*
G04 #@! TO.N,Net-(D7-Pad1)*
X127460000Y-65540000D03*
D11*
X127460000Y-68080000D03*
G04 #@! TD*
G04 #@! TO.N,Net-(D2-Pad2)*
G04 #@! TO.C,J3*
X143040000Y-136000000D03*
D12*
G04 #@! TO.N,Net-(D2-Pad1)*
X140500000Y-136000000D03*
G04 #@! TD*
G04 #@! TO.N,Net-(D1-Pad1)*
G04 #@! TO.C,J2*
X133960000Y-136000000D03*
D11*
G04 #@! TO.N,Net-(D1-Pad2)*
X136500000Y-136000000D03*
G04 #@! TD*
D13*
G04 #@! TO.N,GND*
X138589855Y-101975010D03*
X125850000Y-136300000D03*
X142859849Y-114710000D03*
X135115000Y-116010000D03*
X137090000Y-92920000D03*
X140780000Y-92870000D03*
X135420000Y-68910000D03*
X140090000Y-68030000D03*
X138110000Y-128550000D03*
X138500009Y-130000008D03*
X138610000Y-115477136D03*
X131100000Y-81500000D03*
X128630000Y-81500000D03*
X128572875Y-83077214D03*
X128700010Y-79759758D03*
X127350000Y-79544998D03*
X127300000Y-83295002D03*
X131270000Y-83030000D03*
X131141408Y-79717897D03*
X126090000Y-105000000D03*
X126990000Y-105010000D03*
X127900000Y-105000000D03*
X126087050Y-81266858D03*
X143825000Y-127649998D03*
X128495403Y-113036994D03*
X135890000Y-78150000D03*
X137920000Y-75680000D03*
X140417390Y-115800860D03*
X128016000Y-121412000D03*
X128900010Y-101200000D03*
X129000000Y-85700000D03*
X130100000Y-93300000D03*
X131300000Y-123600000D03*
X132430000Y-131080000D03*
X131310000Y-120110000D03*
G04 #@! TO.N,+3V3*
X141120000Y-97570000D03*
X137430000Y-99200000D03*
X138950000Y-126660000D03*
X126180000Y-98120000D03*
X132700000Y-127050000D03*
X128900000Y-107420000D03*
X129730000Y-102800000D03*
X127862000Y-138412000D03*
X126840000Y-130060000D03*
X125775000Y-133586000D03*
X126699990Y-92964999D03*
X127680000Y-106775000D03*
X127560000Y-108080000D03*
G04 #@! TO.N,+5V*
X139280000Y-77960000D03*
X133450000Y-87170000D03*
X132570000Y-85950000D03*
X128800000Y-89300000D03*
X132630000Y-84300000D03*
X127800000Y-103000000D03*
X127700000Y-90900000D03*
X128100000Y-90100000D03*
G04 #@! TO.N,Net-(C4-Pad2)*
X143823515Y-119869562D03*
G04 #@! TO.N,Net-(C4-Pad1)*
X138800000Y-125080000D03*
G04 #@! TO.N,Net-(C3-Pad2)*
X137140002Y-124850000D03*
G04 #@! TO.N,Net-(C3-Pad1)*
X132545010Y-129290000D03*
G04 #@! TO.N,rxd_3v3*
X129725447Y-111188387D03*
X132589221Y-111248571D03*
G04 #@! TO.N,txd_3v3*
X130243232Y-112045842D03*
X132593265Y-112250000D03*
G04 #@! TO.N,do*
X138500000Y-120000000D03*
G04 #@! TO.N,cs_1*
X138500000Y-123250000D03*
G04 #@! TO.N,cs_0*
X138500000Y-121500000D03*
G04 #@! TO.N,sck*
X142000000Y-103250000D03*
G04 #@! TO.N,miso*
X143250000Y-98750000D03*
G04 #@! TO.N,mosi*
X143500000Y-102750000D03*
G04 #@! TO.N,reset*
X131820000Y-115320000D03*
X142864135Y-116210245D03*
X128890000Y-118250000D03*
G04 #@! TO.N,Net-(TP4-Pad1)*
X134348801Y-106158752D03*
G04 #@! TO.N,Net-(TP3-Pad1)*
X134077813Y-105021443D03*
G04 #@! TO.N,Net-(TP2-Pad1)*
X134250022Y-101739827D03*
G04 #@! TO.N,led*
X133840000Y-113620000D03*
G04 #@! TD*
D14*
G04 #@! TO.N,GND*
G36*
X126061161Y-64960582D02*
X125945908Y-65540000D01*
X126061161Y-66119418D01*
X126389375Y-66610625D01*
X126407619Y-66622816D01*
X126362235Y-66631843D01*
X126152191Y-66772191D01*
X126011843Y-66982235D01*
X125962560Y-67230000D01*
X125962560Y-68930000D01*
X126011843Y-69177765D01*
X126152191Y-69387809D01*
X126362235Y-69528157D01*
X126610000Y-69577440D01*
X128310000Y-69577440D01*
X128557765Y-69528157D01*
X128767809Y-69387809D01*
X128908157Y-69177765D01*
X128928739Y-69074292D01*
X129233076Y-69351645D01*
X129643110Y-69521476D01*
X129873000Y-69400155D01*
X129873000Y-68207000D01*
X130127000Y-68207000D01*
X130127000Y-69400155D01*
X130356890Y-69521476D01*
X130766924Y-69351645D01*
X131195183Y-68961358D01*
X131441486Y-68436892D01*
X131320819Y-68207000D01*
X130127000Y-68207000D01*
X129873000Y-68207000D01*
X129853000Y-68207000D01*
X129853000Y-67953000D01*
X129873000Y-67953000D01*
X129873000Y-65667000D01*
X130127000Y-65667000D01*
X130127000Y-67953000D01*
X131320819Y-67953000D01*
X131441486Y-67723108D01*
X131195183Y-67198642D01*
X130768729Y-66810000D01*
X131195183Y-66421358D01*
X131441486Y-65896892D01*
X131320819Y-65667000D01*
X130127000Y-65667000D01*
X129873000Y-65667000D01*
X129853000Y-65667000D01*
X129853000Y-65413000D01*
X129873000Y-65413000D01*
X129873000Y-65393000D01*
X130127000Y-65393000D01*
X130127000Y-65413000D01*
X131320819Y-65413000D01*
X131441486Y-65183108D01*
X131219302Y-64710000D01*
X136836339Y-64710000D01*
X136429138Y-65117201D01*
X136165000Y-65754887D01*
X136165000Y-66445113D01*
X136429138Y-67082799D01*
X136917201Y-67570862D01*
X137554887Y-67835000D01*
X138245113Y-67835000D01*
X138882799Y-67570862D01*
X139370862Y-67082799D01*
X139635000Y-66445113D01*
X139635000Y-65754887D01*
X139370862Y-65117201D01*
X138963661Y-64710000D01*
X143789090Y-64710000D01*
X143777508Y-73744053D01*
X143770000Y-73742560D01*
X142070000Y-73742560D01*
X141822235Y-73791843D01*
X141612191Y-73932191D01*
X141471843Y-74142235D01*
X141462816Y-74187619D01*
X141450625Y-74169375D01*
X140959418Y-73841161D01*
X140526256Y-73755000D01*
X140233744Y-73755000D01*
X139800582Y-73841161D01*
X139309375Y-74169375D01*
X138981161Y-74660582D01*
X138865908Y-75240000D01*
X138981161Y-75819418D01*
X139309375Y-76310625D01*
X139800582Y-76638839D01*
X140233744Y-76725000D01*
X140526256Y-76725000D01*
X140959418Y-76638839D01*
X141450625Y-76310625D01*
X141462816Y-76292381D01*
X141471843Y-76337765D01*
X141612191Y-76547809D01*
X141822235Y-76688157D01*
X142070000Y-76737440D01*
X143770000Y-76737440D01*
X143773671Y-76736710D01*
X143746621Y-97835431D01*
X143455874Y-97715000D01*
X143044126Y-97715000D01*
X142663720Y-97872569D01*
X142372569Y-98163720D01*
X142215000Y-98544126D01*
X142215000Y-98955874D01*
X142372569Y-99336280D01*
X142663720Y-99627431D01*
X143044126Y-99785000D01*
X143455874Y-99785000D01*
X143744275Y-99665541D01*
X143741628Y-101729810D01*
X143705874Y-101715000D01*
X143294126Y-101715000D01*
X142913720Y-101872569D01*
X142622569Y-102163720D01*
X142543415Y-102354814D01*
X142205874Y-102215000D01*
X141794126Y-102215000D01*
X141413720Y-102372569D01*
X141122569Y-102663720D01*
X140965000Y-103044126D01*
X140965000Y-103455874D01*
X141122569Y-103836280D01*
X141413720Y-104127431D01*
X141794126Y-104285000D01*
X142205874Y-104285000D01*
X142586280Y-104127431D01*
X142877431Y-103836280D01*
X142956585Y-103645186D01*
X143294126Y-103785000D01*
X143705874Y-103785000D01*
X143739011Y-103771274D01*
X143723838Y-115606237D01*
X143450415Y-115332814D01*
X143070009Y-115175245D01*
X142658261Y-115175245D01*
X142277855Y-115332814D01*
X141986704Y-115623965D01*
X141829135Y-116004371D01*
X141829135Y-116416119D01*
X141986704Y-116796525D01*
X142277855Y-117087676D01*
X142658261Y-117245245D01*
X143070009Y-117245245D01*
X143450415Y-117087676D01*
X143722287Y-116815804D01*
X143719699Y-118834562D01*
X143617641Y-118834562D01*
X143237235Y-118992131D01*
X142946084Y-119283282D01*
X142788515Y-119663688D01*
X142788515Y-120075436D01*
X142946084Y-120455842D01*
X143237235Y-120746993D01*
X143617641Y-120904562D01*
X143717045Y-120904562D01*
X143699612Y-134502560D01*
X142190000Y-134502560D01*
X141942235Y-134551843D01*
X141732191Y-134692191D01*
X141591843Y-134902235D01*
X141582816Y-134947619D01*
X141570625Y-134929375D01*
X141079418Y-134601161D01*
X140646256Y-134515000D01*
X140353744Y-134515000D01*
X139920582Y-134601161D01*
X139429375Y-134929375D01*
X139101161Y-135420582D01*
X138985908Y-136000000D01*
X139101161Y-136579418D01*
X139429375Y-137070625D01*
X139920582Y-137398839D01*
X140353744Y-137485000D01*
X140646256Y-137485000D01*
X141079418Y-137398839D01*
X141570625Y-137070625D01*
X141582816Y-137052381D01*
X141591843Y-137097765D01*
X141732191Y-137307809D01*
X141942235Y-137448157D01*
X142190000Y-137497440D01*
X143695772Y-137497440D01*
X143690910Y-141290000D01*
X125710000Y-141290000D01*
X125710000Y-138206126D01*
X126827000Y-138206126D01*
X126827000Y-138617874D01*
X126984569Y-138998280D01*
X127275720Y-139289431D01*
X127656126Y-139447000D01*
X128067874Y-139447000D01*
X128448280Y-139289431D01*
X128582824Y-139154887D01*
X136165000Y-139154887D01*
X136165000Y-139845113D01*
X136429138Y-140482799D01*
X136917201Y-140970862D01*
X137554887Y-141235000D01*
X138245113Y-141235000D01*
X138882799Y-140970862D01*
X139370862Y-140482799D01*
X139635000Y-139845113D01*
X139635000Y-139154887D01*
X139370862Y-138517201D01*
X138882799Y-138029138D01*
X138245113Y-137765000D01*
X137554887Y-137765000D01*
X136917201Y-138029138D01*
X136429138Y-138517201D01*
X136165000Y-139154887D01*
X128582824Y-139154887D01*
X128739431Y-138998280D01*
X128897000Y-138617874D01*
X128897000Y-138206126D01*
X128739431Y-137825720D01*
X128448280Y-137534569D01*
X128067874Y-137377000D01*
X127656126Y-137377000D01*
X127275720Y-137534569D01*
X126984569Y-137825720D01*
X126827000Y-138206126D01*
X125710000Y-138206126D01*
X125710000Y-136000000D01*
X132445908Y-136000000D01*
X132561161Y-136579418D01*
X132889375Y-137070625D01*
X133380582Y-137398839D01*
X133813744Y-137485000D01*
X134106256Y-137485000D01*
X134539418Y-137398839D01*
X135030625Y-137070625D01*
X135042816Y-137052381D01*
X135051843Y-137097765D01*
X135192191Y-137307809D01*
X135402235Y-137448157D01*
X135650000Y-137497440D01*
X137350000Y-137497440D01*
X137597765Y-137448157D01*
X137807809Y-137307809D01*
X137948157Y-137097765D01*
X137997440Y-136850000D01*
X137997440Y-135150000D01*
X137948157Y-134902235D01*
X137807809Y-134692191D01*
X137597765Y-134551843D01*
X137350000Y-134502560D01*
X135650000Y-134502560D01*
X135402235Y-134551843D01*
X135192191Y-134692191D01*
X135051843Y-134902235D01*
X135042816Y-134947619D01*
X135030625Y-134929375D01*
X134539418Y-134601161D01*
X134106256Y-134515000D01*
X133813744Y-134515000D01*
X133380582Y-134601161D01*
X132889375Y-134929375D01*
X132561161Y-135420582D01*
X132445908Y-136000000D01*
X125710000Y-136000000D01*
X125710000Y-134621000D01*
X125980874Y-134621000D01*
X126361280Y-134463431D01*
X126652431Y-134172280D01*
X126810000Y-133791874D01*
X126810000Y-133380126D01*
X126652431Y-132999720D01*
X126361280Y-132708569D01*
X125980874Y-132551000D01*
X125710000Y-132551000D01*
X125710000Y-129854126D01*
X125805000Y-129854126D01*
X125805000Y-130265874D01*
X125962569Y-130646280D01*
X126253720Y-130937431D01*
X126634126Y-131095000D01*
X127045874Y-131095000D01*
X127426280Y-130937431D01*
X127717431Y-130646280D01*
X127875000Y-130265874D01*
X127875000Y-129854126D01*
X127717431Y-129473720D01*
X127426280Y-129182569D01*
X127188618Y-129084126D01*
X131510010Y-129084126D01*
X131510010Y-129495874D01*
X131667579Y-129876280D01*
X131958730Y-130167431D01*
X132339136Y-130325000D01*
X132750884Y-130325000D01*
X133131290Y-130167431D01*
X133422441Y-129876280D01*
X133580010Y-129495874D01*
X133580010Y-129084126D01*
X133422441Y-128703720D01*
X133131290Y-128412569D01*
X132750884Y-128255000D01*
X132339136Y-128255000D01*
X131958730Y-128412569D01*
X131667579Y-128703720D01*
X131510010Y-129084126D01*
X127188618Y-129084126D01*
X127045874Y-129025000D01*
X126634126Y-129025000D01*
X126253720Y-129182569D01*
X125962569Y-129473720D01*
X125805000Y-129854126D01*
X125710000Y-129854126D01*
X125710000Y-126844126D01*
X131665000Y-126844126D01*
X131665000Y-127255874D01*
X131822569Y-127636280D01*
X132113720Y-127927431D01*
X132494126Y-128085000D01*
X132905874Y-128085000D01*
X133286280Y-127927431D01*
X133577431Y-127636280D01*
X133735000Y-127255874D01*
X133735000Y-126844126D01*
X133577431Y-126463720D01*
X133286280Y-126172569D01*
X132905874Y-126015000D01*
X132494126Y-126015000D01*
X132113720Y-126172569D01*
X131822569Y-126463720D01*
X131665000Y-126844126D01*
X125710000Y-126844126D01*
X125710000Y-124644126D01*
X136105002Y-124644126D01*
X136105002Y-125055874D01*
X136262571Y-125436280D01*
X136553722Y-125727431D01*
X136934128Y-125885000D01*
X137345876Y-125885000D01*
X137726282Y-125727431D01*
X137882989Y-125570724D01*
X137922569Y-125666280D01*
X138201289Y-125945000D01*
X138072569Y-126073720D01*
X137915000Y-126454126D01*
X137915000Y-126865874D01*
X138072569Y-127246280D01*
X138363720Y-127537431D01*
X138744126Y-127695000D01*
X139155874Y-127695000D01*
X139536280Y-127537431D01*
X139827431Y-127246280D01*
X139985000Y-126865874D01*
X139985000Y-126454126D01*
X139827431Y-126073720D01*
X139548711Y-125795000D01*
X139677431Y-125666280D01*
X139835000Y-125285874D01*
X139835000Y-124874126D01*
X139677431Y-124493720D01*
X139386280Y-124202569D01*
X139121017Y-124092694D01*
X139377431Y-123836280D01*
X139535000Y-123455874D01*
X139535000Y-123044126D01*
X139377431Y-122663720D01*
X139088711Y-122375000D01*
X139377431Y-122086280D01*
X139535000Y-121705874D01*
X139535000Y-121294126D01*
X139377431Y-120913720D01*
X139213711Y-120750000D01*
X139377431Y-120586280D01*
X139535000Y-120205874D01*
X139535000Y-119794126D01*
X139377431Y-119413720D01*
X139086280Y-119122569D01*
X138705874Y-118965000D01*
X138294126Y-118965000D01*
X137913720Y-119122569D01*
X137622569Y-119413720D01*
X137465000Y-119794126D01*
X137465000Y-120205874D01*
X137622569Y-120586280D01*
X137786289Y-120750000D01*
X137622569Y-120913720D01*
X137465000Y-121294126D01*
X137465000Y-121705874D01*
X137622569Y-122086280D01*
X137911289Y-122375000D01*
X137622569Y-122663720D01*
X137465000Y-123044126D01*
X137465000Y-123455874D01*
X137622569Y-123836280D01*
X137913720Y-124127431D01*
X138178983Y-124237306D01*
X138057013Y-124359276D01*
X138017433Y-124263720D01*
X137726282Y-123972569D01*
X137345876Y-123815000D01*
X136934128Y-123815000D01*
X136553722Y-123972569D01*
X136262571Y-124263720D01*
X136105002Y-124644126D01*
X125710000Y-124644126D01*
X125710000Y-118044126D01*
X127855000Y-118044126D01*
X127855000Y-118455874D01*
X128012569Y-118836280D01*
X128303720Y-119127431D01*
X128684126Y-119285000D01*
X129095874Y-119285000D01*
X129476280Y-119127431D01*
X129767431Y-118836280D01*
X129925000Y-118455874D01*
X129925000Y-118044126D01*
X129767431Y-117663720D01*
X129476280Y-117372569D01*
X129095874Y-117215000D01*
X128684126Y-117215000D01*
X128303720Y-117372569D01*
X128012569Y-117663720D01*
X127855000Y-118044126D01*
X125710000Y-118044126D01*
X125710000Y-115114126D01*
X130785000Y-115114126D01*
X130785000Y-115525874D01*
X130942569Y-115906280D01*
X131233720Y-116197431D01*
X131614126Y-116355000D01*
X132025874Y-116355000D01*
X132406280Y-116197431D01*
X132697431Y-115906280D01*
X132855000Y-115525874D01*
X132855000Y-115114126D01*
X132697431Y-114733720D01*
X132406280Y-114442569D01*
X132025874Y-114285000D01*
X131614126Y-114285000D01*
X131233720Y-114442569D01*
X130942569Y-114733720D01*
X130785000Y-115114126D01*
X125710000Y-115114126D01*
X125710000Y-110982513D01*
X128690447Y-110982513D01*
X128690447Y-111394261D01*
X128848016Y-111774667D01*
X129139167Y-112065818D01*
X129208232Y-112094426D01*
X129208232Y-112251716D01*
X129365801Y-112632122D01*
X129656952Y-112923273D01*
X130037358Y-113080842D01*
X130449106Y-113080842D01*
X130829512Y-112923273D01*
X131120663Y-112632122D01*
X131278232Y-112251716D01*
X131278232Y-111839968D01*
X131120663Y-111459562D01*
X130829512Y-111168411D01*
X130760447Y-111139803D01*
X130760447Y-111042697D01*
X131554221Y-111042697D01*
X131554221Y-111454445D01*
X131678370Y-111754167D01*
X131558265Y-112044126D01*
X131558265Y-112455874D01*
X131715834Y-112836280D01*
X132006985Y-113127431D01*
X132387391Y-113285000D01*
X132799139Y-113285000D01*
X132870777Y-113255327D01*
X132805000Y-113414126D01*
X132805000Y-113825874D01*
X132962569Y-114206280D01*
X133253720Y-114497431D01*
X133634126Y-114655000D01*
X134045874Y-114655000D01*
X134426280Y-114497431D01*
X134717431Y-114206280D01*
X134875000Y-113825874D01*
X134875000Y-113414126D01*
X134717431Y-113033720D01*
X134426280Y-112742569D01*
X134045874Y-112585000D01*
X133634126Y-112585000D01*
X133562488Y-112614673D01*
X133628265Y-112455874D01*
X133628265Y-112044126D01*
X133504116Y-111744404D01*
X133624221Y-111454445D01*
X133624221Y-111042697D01*
X133466652Y-110662291D01*
X133175501Y-110371140D01*
X132795095Y-110213571D01*
X132383347Y-110213571D01*
X132002941Y-110371140D01*
X131711790Y-110662291D01*
X131554221Y-111042697D01*
X130760447Y-111042697D01*
X130760447Y-110982513D01*
X130602878Y-110602107D01*
X130311727Y-110310956D01*
X129931321Y-110153387D01*
X129519573Y-110153387D01*
X129139167Y-110310956D01*
X128848016Y-110602107D01*
X128690447Y-110982513D01*
X125710000Y-110982513D01*
X125710000Y-107874126D01*
X126525000Y-107874126D01*
X126525000Y-108285874D01*
X126682569Y-108666280D01*
X126973720Y-108957431D01*
X127354126Y-109115000D01*
X127765874Y-109115000D01*
X128146280Y-108957431D01*
X128437431Y-108666280D01*
X128549722Y-108395186D01*
X128694126Y-108455000D01*
X129105874Y-108455000D01*
X129486280Y-108297431D01*
X129777431Y-108006280D01*
X129935000Y-107625874D01*
X129935000Y-107214126D01*
X129777431Y-106833720D01*
X129486280Y-106542569D01*
X129105874Y-106385000D01*
X128694126Y-106385000D01*
X128646845Y-106404584D01*
X128557431Y-106188720D01*
X128266280Y-105897569D01*
X127885874Y-105740000D01*
X127474126Y-105740000D01*
X127093720Y-105897569D01*
X126802569Y-106188720D01*
X126645000Y-106569126D01*
X126645000Y-106980874D01*
X126802569Y-107361280D01*
X126808789Y-107367500D01*
X126682569Y-107493720D01*
X126525000Y-107874126D01*
X125710000Y-107874126D01*
X125710000Y-104815569D01*
X133042813Y-104815569D01*
X133042813Y-105227317D01*
X133200382Y-105607723D01*
X133381675Y-105789016D01*
X133313801Y-105952878D01*
X133313801Y-106364626D01*
X133471370Y-106745032D01*
X133762521Y-107036183D01*
X134142927Y-107193752D01*
X134554675Y-107193752D01*
X134935081Y-107036183D01*
X135226232Y-106745032D01*
X135383801Y-106364626D01*
X135383801Y-105952878D01*
X135226232Y-105572472D01*
X135044939Y-105391179D01*
X135112813Y-105227317D01*
X135112813Y-104815569D01*
X134955244Y-104435163D01*
X134664093Y-104144012D01*
X134283687Y-103986443D01*
X133871939Y-103986443D01*
X133491533Y-104144012D01*
X133200382Y-104435163D01*
X133042813Y-104815569D01*
X125710000Y-104815569D01*
X125710000Y-102794126D01*
X126765000Y-102794126D01*
X126765000Y-103205874D01*
X126922569Y-103586280D01*
X127213720Y-103877431D01*
X127594126Y-104035000D01*
X128005874Y-104035000D01*
X128386280Y-103877431D01*
X128677431Y-103586280D01*
X128806421Y-103274869D01*
X128852569Y-103386280D01*
X129143720Y-103677431D01*
X129524126Y-103835000D01*
X129935874Y-103835000D01*
X130316280Y-103677431D01*
X130607431Y-103386280D01*
X130765000Y-103005874D01*
X130765000Y-102594126D01*
X130607431Y-102213720D01*
X130316280Y-101922569D01*
X129935874Y-101765000D01*
X129524126Y-101765000D01*
X129143720Y-101922569D01*
X128852569Y-102213720D01*
X128723579Y-102525131D01*
X128677431Y-102413720D01*
X128386280Y-102122569D01*
X128005874Y-101965000D01*
X127594126Y-101965000D01*
X127213720Y-102122569D01*
X126922569Y-102413720D01*
X126765000Y-102794126D01*
X125710000Y-102794126D01*
X125710000Y-101533953D01*
X133215022Y-101533953D01*
X133215022Y-101945701D01*
X133372591Y-102326107D01*
X133663742Y-102617258D01*
X134044148Y-102774827D01*
X134455896Y-102774827D01*
X134836302Y-102617258D01*
X135127453Y-102326107D01*
X135285022Y-101945701D01*
X135285022Y-101533953D01*
X135127453Y-101153547D01*
X134836302Y-100862396D01*
X134455896Y-100704827D01*
X134044148Y-100704827D01*
X133663742Y-100862396D01*
X133372591Y-101153547D01*
X133215022Y-101533953D01*
X125710000Y-101533953D01*
X125710000Y-99045596D01*
X125974126Y-99155000D01*
X126385874Y-99155000D01*
X126766280Y-98997431D01*
X126769585Y-98994126D01*
X136395000Y-98994126D01*
X136395000Y-99405874D01*
X136552569Y-99786280D01*
X136843720Y-100077431D01*
X137224126Y-100235000D01*
X137635874Y-100235000D01*
X138016280Y-100077431D01*
X138307431Y-99786280D01*
X138465000Y-99405874D01*
X138465000Y-98994126D01*
X138307431Y-98613720D01*
X138016280Y-98322569D01*
X137635874Y-98165000D01*
X137224126Y-98165000D01*
X136843720Y-98322569D01*
X136552569Y-98613720D01*
X136395000Y-98994126D01*
X126769585Y-98994126D01*
X127057431Y-98706280D01*
X127215000Y-98325874D01*
X127215000Y-97914126D01*
X127057431Y-97533720D01*
X126887837Y-97364126D01*
X140085000Y-97364126D01*
X140085000Y-97775874D01*
X140242569Y-98156280D01*
X140533720Y-98447431D01*
X140914126Y-98605000D01*
X141325874Y-98605000D01*
X141706280Y-98447431D01*
X141997431Y-98156280D01*
X142155000Y-97775874D01*
X142155000Y-97364126D01*
X141997431Y-96983720D01*
X141706280Y-96692569D01*
X141325874Y-96535000D01*
X140914126Y-96535000D01*
X140533720Y-96692569D01*
X140242569Y-96983720D01*
X140085000Y-97364126D01*
X126887837Y-97364126D01*
X126766280Y-97242569D01*
X126385874Y-97085000D01*
X125974126Y-97085000D01*
X125710000Y-97194404D01*
X125710000Y-93279537D01*
X125822559Y-93551279D01*
X126113710Y-93842430D01*
X126494116Y-93999999D01*
X126905864Y-93999999D01*
X127286270Y-93842430D01*
X127577421Y-93551279D01*
X127734990Y-93170873D01*
X127734990Y-92759125D01*
X127577421Y-92378719D01*
X127286270Y-92087568D01*
X126905864Y-91929999D01*
X126494116Y-91929999D01*
X126113710Y-92087568D01*
X125822559Y-92378719D01*
X125710000Y-92650461D01*
X125710000Y-90694126D01*
X126665000Y-90694126D01*
X126665000Y-91105874D01*
X126822569Y-91486280D01*
X127113720Y-91777431D01*
X127494126Y-91935000D01*
X127905874Y-91935000D01*
X128286280Y-91777431D01*
X128577431Y-91486280D01*
X128735000Y-91105874D01*
X128735000Y-90928711D01*
X128977431Y-90686280D01*
X129135000Y-90305874D01*
X129135000Y-90281514D01*
X129386280Y-90177431D01*
X129677431Y-89886280D01*
X129835000Y-89505874D01*
X129835000Y-89094126D01*
X129677431Y-88713720D01*
X129386280Y-88422569D01*
X129005874Y-88265000D01*
X128594126Y-88265000D01*
X128213720Y-88422569D01*
X127922569Y-88713720D01*
X127765000Y-89094126D01*
X127765000Y-89118486D01*
X127513720Y-89222569D01*
X127222569Y-89513720D01*
X127065000Y-89894126D01*
X127065000Y-90071289D01*
X126822569Y-90313720D01*
X126665000Y-90694126D01*
X125710000Y-90694126D01*
X125710000Y-85744126D01*
X131535000Y-85744126D01*
X131535000Y-86155874D01*
X131692569Y-86536280D01*
X131983720Y-86827431D01*
X132364126Y-86985000D01*
X132415000Y-86985000D01*
X132415000Y-87375874D01*
X132572569Y-87756280D01*
X132863720Y-88047431D01*
X133244126Y-88205000D01*
X133655874Y-88205000D01*
X134036280Y-88047431D01*
X134327431Y-87756280D01*
X134485000Y-87375874D01*
X134485000Y-86964126D01*
X134327431Y-86583720D01*
X134036280Y-86292569D01*
X133655874Y-86135000D01*
X133605000Y-86135000D01*
X133605000Y-85744126D01*
X133447431Y-85363720D01*
X133238711Y-85155000D01*
X133507431Y-84886280D01*
X133665000Y-84505874D01*
X133665000Y-84094126D01*
X133507431Y-83713720D01*
X133216280Y-83422569D01*
X132835874Y-83265000D01*
X132424126Y-83265000D01*
X132043720Y-83422569D01*
X131752569Y-83713720D01*
X131595000Y-84094126D01*
X131595000Y-84505874D01*
X131752569Y-84886280D01*
X131961289Y-85095000D01*
X131692569Y-85363720D01*
X131535000Y-85744126D01*
X125710000Y-85744126D01*
X125710000Y-77754126D01*
X138245000Y-77754126D01*
X138245000Y-78165874D01*
X138402569Y-78546280D01*
X138693720Y-78837431D01*
X139074126Y-78995000D01*
X139485874Y-78995000D01*
X139866280Y-78837431D01*
X140157431Y-78546280D01*
X140315000Y-78165874D01*
X140315000Y-77754126D01*
X140157431Y-77373720D01*
X139866280Y-77082569D01*
X139485874Y-76925000D01*
X139074126Y-76925000D01*
X138693720Y-77082569D01*
X138402569Y-77373720D01*
X138245000Y-77754126D01*
X125710000Y-77754126D01*
X125710000Y-74260000D01*
X131312560Y-74260000D01*
X131312560Y-75960000D01*
X131361843Y-76207765D01*
X131502191Y-76417809D01*
X131712235Y-76558157D01*
X131960000Y-76607440D01*
X133660000Y-76607440D01*
X133907765Y-76558157D01*
X134117809Y-76417809D01*
X134258157Y-76207765D01*
X134267184Y-76162381D01*
X134279375Y-76180625D01*
X134770582Y-76508839D01*
X135203744Y-76595000D01*
X135496256Y-76595000D01*
X135929418Y-76508839D01*
X136420625Y-76180625D01*
X136748839Y-75689418D01*
X136864092Y-75110000D01*
X136748839Y-74530582D01*
X136420625Y-74039375D01*
X135929418Y-73711161D01*
X135496256Y-73625000D01*
X135203744Y-73625000D01*
X134770582Y-73711161D01*
X134279375Y-74039375D01*
X134267184Y-74057619D01*
X134258157Y-74012235D01*
X134117809Y-73802191D01*
X133907765Y-73661843D01*
X133660000Y-73612560D01*
X131960000Y-73612560D01*
X131712235Y-73661843D01*
X131502191Y-73802191D01*
X131361843Y-74012235D01*
X131312560Y-74260000D01*
X125710000Y-74260000D01*
X125710000Y-64710000D01*
X126228595Y-64710000D01*
X126061161Y-64960582D01*
X126061161Y-64960582D01*
G37*
X126061161Y-64960582D02*
X125945908Y-65540000D01*
X126061161Y-66119418D01*
X126389375Y-66610625D01*
X126407619Y-66622816D01*
X126362235Y-66631843D01*
X126152191Y-66772191D01*
X126011843Y-66982235D01*
X125962560Y-67230000D01*
X125962560Y-68930000D01*
X126011843Y-69177765D01*
X126152191Y-69387809D01*
X126362235Y-69528157D01*
X126610000Y-69577440D01*
X128310000Y-69577440D01*
X128557765Y-69528157D01*
X128767809Y-69387809D01*
X128908157Y-69177765D01*
X128928739Y-69074292D01*
X129233076Y-69351645D01*
X129643110Y-69521476D01*
X129873000Y-69400155D01*
X129873000Y-68207000D01*
X130127000Y-68207000D01*
X130127000Y-69400155D01*
X130356890Y-69521476D01*
X130766924Y-69351645D01*
X131195183Y-68961358D01*
X131441486Y-68436892D01*
X131320819Y-68207000D01*
X130127000Y-68207000D01*
X129873000Y-68207000D01*
X129853000Y-68207000D01*
X129853000Y-67953000D01*
X129873000Y-67953000D01*
X129873000Y-65667000D01*
X130127000Y-65667000D01*
X130127000Y-67953000D01*
X131320819Y-67953000D01*
X131441486Y-67723108D01*
X131195183Y-67198642D01*
X130768729Y-66810000D01*
X131195183Y-66421358D01*
X131441486Y-65896892D01*
X131320819Y-65667000D01*
X130127000Y-65667000D01*
X129873000Y-65667000D01*
X129853000Y-65667000D01*
X129853000Y-65413000D01*
X129873000Y-65413000D01*
X129873000Y-65393000D01*
X130127000Y-65393000D01*
X130127000Y-65413000D01*
X131320819Y-65413000D01*
X131441486Y-65183108D01*
X131219302Y-64710000D01*
X136836339Y-64710000D01*
X136429138Y-65117201D01*
X136165000Y-65754887D01*
X136165000Y-66445113D01*
X136429138Y-67082799D01*
X136917201Y-67570862D01*
X137554887Y-67835000D01*
X138245113Y-67835000D01*
X138882799Y-67570862D01*
X139370862Y-67082799D01*
X139635000Y-66445113D01*
X139635000Y-65754887D01*
X139370862Y-65117201D01*
X138963661Y-64710000D01*
X143789090Y-64710000D01*
X143777508Y-73744053D01*
X143770000Y-73742560D01*
X142070000Y-73742560D01*
X141822235Y-73791843D01*
X141612191Y-73932191D01*
X141471843Y-74142235D01*
X141462816Y-74187619D01*
X141450625Y-74169375D01*
X140959418Y-73841161D01*
X140526256Y-73755000D01*
X140233744Y-73755000D01*
X139800582Y-73841161D01*
X139309375Y-74169375D01*
X138981161Y-74660582D01*
X138865908Y-75240000D01*
X138981161Y-75819418D01*
X139309375Y-76310625D01*
X139800582Y-76638839D01*
X140233744Y-76725000D01*
X140526256Y-76725000D01*
X140959418Y-76638839D01*
X141450625Y-76310625D01*
X141462816Y-76292381D01*
X141471843Y-76337765D01*
X141612191Y-76547809D01*
X141822235Y-76688157D01*
X142070000Y-76737440D01*
X143770000Y-76737440D01*
X143773671Y-76736710D01*
X143746621Y-97835431D01*
X143455874Y-97715000D01*
X143044126Y-97715000D01*
X142663720Y-97872569D01*
X142372569Y-98163720D01*
X142215000Y-98544126D01*
X142215000Y-98955874D01*
X142372569Y-99336280D01*
X142663720Y-99627431D01*
X143044126Y-99785000D01*
X143455874Y-99785000D01*
X143744275Y-99665541D01*
X143741628Y-101729810D01*
X143705874Y-101715000D01*
X143294126Y-101715000D01*
X142913720Y-101872569D01*
X142622569Y-102163720D01*
X142543415Y-102354814D01*
X142205874Y-102215000D01*
X141794126Y-102215000D01*
X141413720Y-102372569D01*
X141122569Y-102663720D01*
X140965000Y-103044126D01*
X140965000Y-103455874D01*
X141122569Y-103836280D01*
X141413720Y-104127431D01*
X141794126Y-104285000D01*
X142205874Y-104285000D01*
X142586280Y-104127431D01*
X142877431Y-103836280D01*
X142956585Y-103645186D01*
X143294126Y-103785000D01*
X143705874Y-103785000D01*
X143739011Y-103771274D01*
X143723838Y-115606237D01*
X143450415Y-115332814D01*
X143070009Y-115175245D01*
X142658261Y-115175245D01*
X142277855Y-115332814D01*
X141986704Y-115623965D01*
X141829135Y-116004371D01*
X141829135Y-116416119D01*
X141986704Y-116796525D01*
X142277855Y-117087676D01*
X142658261Y-117245245D01*
X143070009Y-117245245D01*
X143450415Y-117087676D01*
X143722287Y-116815804D01*
X143719699Y-118834562D01*
X143617641Y-118834562D01*
X143237235Y-118992131D01*
X142946084Y-119283282D01*
X142788515Y-119663688D01*
X142788515Y-120075436D01*
X142946084Y-120455842D01*
X143237235Y-120746993D01*
X143617641Y-120904562D01*
X143717045Y-120904562D01*
X143699612Y-134502560D01*
X142190000Y-134502560D01*
X141942235Y-134551843D01*
X141732191Y-134692191D01*
X141591843Y-134902235D01*
X141582816Y-134947619D01*
X141570625Y-134929375D01*
X141079418Y-134601161D01*
X140646256Y-134515000D01*
X140353744Y-134515000D01*
X139920582Y-134601161D01*
X139429375Y-134929375D01*
X139101161Y-135420582D01*
X138985908Y-136000000D01*
X139101161Y-136579418D01*
X139429375Y-137070625D01*
X139920582Y-137398839D01*
X140353744Y-137485000D01*
X140646256Y-137485000D01*
X141079418Y-137398839D01*
X141570625Y-137070625D01*
X141582816Y-137052381D01*
X141591843Y-137097765D01*
X141732191Y-137307809D01*
X141942235Y-137448157D01*
X142190000Y-137497440D01*
X143695772Y-137497440D01*
X143690910Y-141290000D01*
X125710000Y-141290000D01*
X125710000Y-138206126D01*
X126827000Y-138206126D01*
X126827000Y-138617874D01*
X126984569Y-138998280D01*
X127275720Y-139289431D01*
X127656126Y-139447000D01*
X128067874Y-139447000D01*
X128448280Y-139289431D01*
X128582824Y-139154887D01*
X136165000Y-139154887D01*
X136165000Y-139845113D01*
X136429138Y-140482799D01*
X136917201Y-140970862D01*
X137554887Y-141235000D01*
X138245113Y-141235000D01*
X138882799Y-140970862D01*
X139370862Y-140482799D01*
X139635000Y-139845113D01*
X139635000Y-139154887D01*
X139370862Y-138517201D01*
X138882799Y-138029138D01*
X138245113Y-137765000D01*
X137554887Y-137765000D01*
X136917201Y-138029138D01*
X136429138Y-138517201D01*
X136165000Y-139154887D01*
X128582824Y-139154887D01*
X128739431Y-138998280D01*
X128897000Y-138617874D01*
X128897000Y-138206126D01*
X128739431Y-137825720D01*
X128448280Y-137534569D01*
X128067874Y-137377000D01*
X127656126Y-137377000D01*
X127275720Y-137534569D01*
X126984569Y-137825720D01*
X126827000Y-138206126D01*
X125710000Y-138206126D01*
X125710000Y-136000000D01*
X132445908Y-136000000D01*
X132561161Y-136579418D01*
X132889375Y-137070625D01*
X133380582Y-137398839D01*
X133813744Y-137485000D01*
X134106256Y-137485000D01*
X134539418Y-137398839D01*
X135030625Y-137070625D01*
X135042816Y-137052381D01*
X135051843Y-137097765D01*
X135192191Y-137307809D01*
X135402235Y-137448157D01*
X135650000Y-137497440D01*
X137350000Y-137497440D01*
X137597765Y-137448157D01*
X137807809Y-137307809D01*
X137948157Y-137097765D01*
X137997440Y-136850000D01*
X137997440Y-135150000D01*
X137948157Y-134902235D01*
X137807809Y-134692191D01*
X137597765Y-134551843D01*
X137350000Y-134502560D01*
X135650000Y-134502560D01*
X135402235Y-134551843D01*
X135192191Y-134692191D01*
X135051843Y-134902235D01*
X135042816Y-134947619D01*
X135030625Y-134929375D01*
X134539418Y-134601161D01*
X134106256Y-134515000D01*
X133813744Y-134515000D01*
X133380582Y-134601161D01*
X132889375Y-134929375D01*
X132561161Y-135420582D01*
X132445908Y-136000000D01*
X125710000Y-136000000D01*
X125710000Y-134621000D01*
X125980874Y-134621000D01*
X126361280Y-134463431D01*
X126652431Y-134172280D01*
X126810000Y-133791874D01*
X126810000Y-133380126D01*
X126652431Y-132999720D01*
X126361280Y-132708569D01*
X125980874Y-132551000D01*
X125710000Y-132551000D01*
X125710000Y-129854126D01*
X125805000Y-129854126D01*
X125805000Y-130265874D01*
X125962569Y-130646280D01*
X126253720Y-130937431D01*
X126634126Y-131095000D01*
X127045874Y-131095000D01*
X127426280Y-130937431D01*
X127717431Y-130646280D01*
X127875000Y-130265874D01*
X127875000Y-129854126D01*
X127717431Y-129473720D01*
X127426280Y-129182569D01*
X127188618Y-129084126D01*
X131510010Y-129084126D01*
X131510010Y-129495874D01*
X131667579Y-129876280D01*
X131958730Y-130167431D01*
X132339136Y-130325000D01*
X132750884Y-130325000D01*
X133131290Y-130167431D01*
X133422441Y-129876280D01*
X133580010Y-129495874D01*
X133580010Y-129084126D01*
X133422441Y-128703720D01*
X133131290Y-128412569D01*
X132750884Y-128255000D01*
X132339136Y-128255000D01*
X131958730Y-128412569D01*
X131667579Y-128703720D01*
X131510010Y-129084126D01*
X127188618Y-129084126D01*
X127045874Y-129025000D01*
X126634126Y-129025000D01*
X126253720Y-129182569D01*
X125962569Y-129473720D01*
X125805000Y-129854126D01*
X125710000Y-129854126D01*
X125710000Y-126844126D01*
X131665000Y-126844126D01*
X131665000Y-127255874D01*
X131822569Y-127636280D01*
X132113720Y-127927431D01*
X132494126Y-128085000D01*
X132905874Y-128085000D01*
X133286280Y-127927431D01*
X133577431Y-127636280D01*
X133735000Y-127255874D01*
X133735000Y-126844126D01*
X133577431Y-126463720D01*
X133286280Y-126172569D01*
X132905874Y-126015000D01*
X132494126Y-126015000D01*
X132113720Y-126172569D01*
X131822569Y-126463720D01*
X131665000Y-126844126D01*
X125710000Y-126844126D01*
X125710000Y-124644126D01*
X136105002Y-124644126D01*
X136105002Y-125055874D01*
X136262571Y-125436280D01*
X136553722Y-125727431D01*
X136934128Y-125885000D01*
X137345876Y-125885000D01*
X137726282Y-125727431D01*
X137882989Y-125570724D01*
X137922569Y-125666280D01*
X138201289Y-125945000D01*
X138072569Y-126073720D01*
X137915000Y-126454126D01*
X137915000Y-126865874D01*
X138072569Y-127246280D01*
X138363720Y-127537431D01*
X138744126Y-127695000D01*
X139155874Y-127695000D01*
X139536280Y-127537431D01*
X139827431Y-127246280D01*
X139985000Y-126865874D01*
X139985000Y-126454126D01*
X139827431Y-126073720D01*
X139548711Y-125795000D01*
X139677431Y-125666280D01*
X139835000Y-125285874D01*
X139835000Y-124874126D01*
X139677431Y-124493720D01*
X139386280Y-124202569D01*
X139121017Y-124092694D01*
X139377431Y-123836280D01*
X139535000Y-123455874D01*
X139535000Y-123044126D01*
X139377431Y-122663720D01*
X139088711Y-122375000D01*
X139377431Y-122086280D01*
X139535000Y-121705874D01*
X139535000Y-121294126D01*
X139377431Y-120913720D01*
X139213711Y-120750000D01*
X139377431Y-120586280D01*
X139535000Y-120205874D01*
X139535000Y-119794126D01*
X139377431Y-119413720D01*
X139086280Y-119122569D01*
X138705874Y-118965000D01*
X138294126Y-118965000D01*
X137913720Y-119122569D01*
X137622569Y-119413720D01*
X137465000Y-119794126D01*
X137465000Y-120205874D01*
X137622569Y-120586280D01*
X137786289Y-120750000D01*
X137622569Y-120913720D01*
X137465000Y-121294126D01*
X137465000Y-121705874D01*
X137622569Y-122086280D01*
X137911289Y-122375000D01*
X137622569Y-122663720D01*
X137465000Y-123044126D01*
X137465000Y-123455874D01*
X137622569Y-123836280D01*
X137913720Y-124127431D01*
X138178983Y-124237306D01*
X138057013Y-124359276D01*
X138017433Y-124263720D01*
X137726282Y-123972569D01*
X137345876Y-123815000D01*
X136934128Y-123815000D01*
X136553722Y-123972569D01*
X136262571Y-124263720D01*
X136105002Y-124644126D01*
X125710000Y-124644126D01*
X125710000Y-118044126D01*
X127855000Y-118044126D01*
X127855000Y-118455874D01*
X128012569Y-118836280D01*
X128303720Y-119127431D01*
X128684126Y-119285000D01*
X129095874Y-119285000D01*
X129476280Y-119127431D01*
X129767431Y-118836280D01*
X129925000Y-118455874D01*
X129925000Y-118044126D01*
X129767431Y-117663720D01*
X129476280Y-117372569D01*
X129095874Y-117215000D01*
X128684126Y-117215000D01*
X128303720Y-117372569D01*
X128012569Y-117663720D01*
X127855000Y-118044126D01*
X125710000Y-118044126D01*
X125710000Y-115114126D01*
X130785000Y-115114126D01*
X130785000Y-115525874D01*
X130942569Y-115906280D01*
X131233720Y-116197431D01*
X131614126Y-116355000D01*
X132025874Y-116355000D01*
X132406280Y-116197431D01*
X132697431Y-115906280D01*
X132855000Y-115525874D01*
X132855000Y-115114126D01*
X132697431Y-114733720D01*
X132406280Y-114442569D01*
X132025874Y-114285000D01*
X131614126Y-114285000D01*
X131233720Y-114442569D01*
X130942569Y-114733720D01*
X130785000Y-115114126D01*
X125710000Y-115114126D01*
X125710000Y-110982513D01*
X128690447Y-110982513D01*
X128690447Y-111394261D01*
X128848016Y-111774667D01*
X129139167Y-112065818D01*
X129208232Y-112094426D01*
X129208232Y-112251716D01*
X129365801Y-112632122D01*
X129656952Y-112923273D01*
X130037358Y-113080842D01*
X130449106Y-113080842D01*
X130829512Y-112923273D01*
X131120663Y-112632122D01*
X131278232Y-112251716D01*
X131278232Y-111839968D01*
X131120663Y-111459562D01*
X130829512Y-111168411D01*
X130760447Y-111139803D01*
X130760447Y-111042697D01*
X131554221Y-111042697D01*
X131554221Y-111454445D01*
X131678370Y-111754167D01*
X131558265Y-112044126D01*
X131558265Y-112455874D01*
X131715834Y-112836280D01*
X132006985Y-113127431D01*
X132387391Y-113285000D01*
X132799139Y-113285000D01*
X132870777Y-113255327D01*
X132805000Y-113414126D01*
X132805000Y-113825874D01*
X132962569Y-114206280D01*
X133253720Y-114497431D01*
X133634126Y-114655000D01*
X134045874Y-114655000D01*
X134426280Y-114497431D01*
X134717431Y-114206280D01*
X134875000Y-113825874D01*
X134875000Y-113414126D01*
X134717431Y-113033720D01*
X134426280Y-112742569D01*
X134045874Y-112585000D01*
X133634126Y-112585000D01*
X133562488Y-112614673D01*
X133628265Y-112455874D01*
X133628265Y-112044126D01*
X133504116Y-111744404D01*
X133624221Y-111454445D01*
X133624221Y-111042697D01*
X133466652Y-110662291D01*
X133175501Y-110371140D01*
X132795095Y-110213571D01*
X132383347Y-110213571D01*
X132002941Y-110371140D01*
X131711790Y-110662291D01*
X131554221Y-111042697D01*
X130760447Y-111042697D01*
X130760447Y-110982513D01*
X130602878Y-110602107D01*
X130311727Y-110310956D01*
X129931321Y-110153387D01*
X129519573Y-110153387D01*
X129139167Y-110310956D01*
X128848016Y-110602107D01*
X128690447Y-110982513D01*
X125710000Y-110982513D01*
X125710000Y-107874126D01*
X126525000Y-107874126D01*
X126525000Y-108285874D01*
X126682569Y-108666280D01*
X126973720Y-108957431D01*
X127354126Y-109115000D01*
X127765874Y-109115000D01*
X128146280Y-108957431D01*
X128437431Y-108666280D01*
X128549722Y-108395186D01*
X128694126Y-108455000D01*
X129105874Y-108455000D01*
X129486280Y-108297431D01*
X129777431Y-108006280D01*
X129935000Y-107625874D01*
X129935000Y-107214126D01*
X129777431Y-106833720D01*
X129486280Y-106542569D01*
X129105874Y-106385000D01*
X128694126Y-106385000D01*
X128646845Y-106404584D01*
X128557431Y-106188720D01*
X128266280Y-105897569D01*
X127885874Y-105740000D01*
X127474126Y-105740000D01*
X127093720Y-105897569D01*
X126802569Y-106188720D01*
X126645000Y-106569126D01*
X126645000Y-106980874D01*
X126802569Y-107361280D01*
X126808789Y-107367500D01*
X126682569Y-107493720D01*
X126525000Y-107874126D01*
X125710000Y-107874126D01*
X125710000Y-104815569D01*
X133042813Y-104815569D01*
X133042813Y-105227317D01*
X133200382Y-105607723D01*
X133381675Y-105789016D01*
X133313801Y-105952878D01*
X133313801Y-106364626D01*
X133471370Y-106745032D01*
X133762521Y-107036183D01*
X134142927Y-107193752D01*
X134554675Y-107193752D01*
X134935081Y-107036183D01*
X135226232Y-106745032D01*
X135383801Y-106364626D01*
X135383801Y-105952878D01*
X135226232Y-105572472D01*
X135044939Y-105391179D01*
X135112813Y-105227317D01*
X135112813Y-104815569D01*
X134955244Y-104435163D01*
X134664093Y-104144012D01*
X134283687Y-103986443D01*
X133871939Y-103986443D01*
X133491533Y-104144012D01*
X133200382Y-104435163D01*
X133042813Y-104815569D01*
X125710000Y-104815569D01*
X125710000Y-102794126D01*
X126765000Y-102794126D01*
X126765000Y-103205874D01*
X126922569Y-103586280D01*
X127213720Y-103877431D01*
X127594126Y-104035000D01*
X128005874Y-104035000D01*
X128386280Y-103877431D01*
X128677431Y-103586280D01*
X128806421Y-103274869D01*
X128852569Y-103386280D01*
X129143720Y-103677431D01*
X129524126Y-103835000D01*
X129935874Y-103835000D01*
X130316280Y-103677431D01*
X130607431Y-103386280D01*
X130765000Y-103005874D01*
X130765000Y-102594126D01*
X130607431Y-102213720D01*
X130316280Y-101922569D01*
X129935874Y-101765000D01*
X129524126Y-101765000D01*
X129143720Y-101922569D01*
X128852569Y-102213720D01*
X128723579Y-102525131D01*
X128677431Y-102413720D01*
X128386280Y-102122569D01*
X128005874Y-101965000D01*
X127594126Y-101965000D01*
X127213720Y-102122569D01*
X126922569Y-102413720D01*
X126765000Y-102794126D01*
X125710000Y-102794126D01*
X125710000Y-101533953D01*
X133215022Y-101533953D01*
X133215022Y-101945701D01*
X133372591Y-102326107D01*
X133663742Y-102617258D01*
X134044148Y-102774827D01*
X134455896Y-102774827D01*
X134836302Y-102617258D01*
X135127453Y-102326107D01*
X135285022Y-101945701D01*
X135285022Y-101533953D01*
X135127453Y-101153547D01*
X134836302Y-100862396D01*
X134455896Y-100704827D01*
X134044148Y-100704827D01*
X133663742Y-100862396D01*
X133372591Y-101153547D01*
X133215022Y-101533953D01*
X125710000Y-101533953D01*
X125710000Y-99045596D01*
X125974126Y-99155000D01*
X126385874Y-99155000D01*
X126766280Y-98997431D01*
X126769585Y-98994126D01*
X136395000Y-98994126D01*
X136395000Y-99405874D01*
X136552569Y-99786280D01*
X136843720Y-100077431D01*
X137224126Y-100235000D01*
X137635874Y-100235000D01*
X138016280Y-100077431D01*
X138307431Y-99786280D01*
X138465000Y-99405874D01*
X138465000Y-98994126D01*
X138307431Y-98613720D01*
X138016280Y-98322569D01*
X137635874Y-98165000D01*
X137224126Y-98165000D01*
X136843720Y-98322569D01*
X136552569Y-98613720D01*
X136395000Y-98994126D01*
X126769585Y-98994126D01*
X127057431Y-98706280D01*
X127215000Y-98325874D01*
X127215000Y-97914126D01*
X127057431Y-97533720D01*
X126887837Y-97364126D01*
X140085000Y-97364126D01*
X140085000Y-97775874D01*
X140242569Y-98156280D01*
X140533720Y-98447431D01*
X140914126Y-98605000D01*
X141325874Y-98605000D01*
X141706280Y-98447431D01*
X141997431Y-98156280D01*
X142155000Y-97775874D01*
X142155000Y-97364126D01*
X141997431Y-96983720D01*
X141706280Y-96692569D01*
X141325874Y-96535000D01*
X140914126Y-96535000D01*
X140533720Y-96692569D01*
X140242569Y-96983720D01*
X140085000Y-97364126D01*
X126887837Y-97364126D01*
X126766280Y-97242569D01*
X126385874Y-97085000D01*
X125974126Y-97085000D01*
X125710000Y-97194404D01*
X125710000Y-93279537D01*
X125822559Y-93551279D01*
X126113710Y-93842430D01*
X126494116Y-93999999D01*
X126905864Y-93999999D01*
X127286270Y-93842430D01*
X127577421Y-93551279D01*
X127734990Y-93170873D01*
X127734990Y-92759125D01*
X127577421Y-92378719D01*
X127286270Y-92087568D01*
X126905864Y-91929999D01*
X126494116Y-91929999D01*
X126113710Y-92087568D01*
X125822559Y-92378719D01*
X125710000Y-92650461D01*
X125710000Y-90694126D01*
X126665000Y-90694126D01*
X126665000Y-91105874D01*
X126822569Y-91486280D01*
X127113720Y-91777431D01*
X127494126Y-91935000D01*
X127905874Y-91935000D01*
X128286280Y-91777431D01*
X128577431Y-91486280D01*
X128735000Y-91105874D01*
X128735000Y-90928711D01*
X128977431Y-90686280D01*
X129135000Y-90305874D01*
X129135000Y-90281514D01*
X129386280Y-90177431D01*
X129677431Y-89886280D01*
X129835000Y-89505874D01*
X129835000Y-89094126D01*
X129677431Y-88713720D01*
X129386280Y-88422569D01*
X129005874Y-88265000D01*
X128594126Y-88265000D01*
X128213720Y-88422569D01*
X127922569Y-88713720D01*
X127765000Y-89094126D01*
X127765000Y-89118486D01*
X127513720Y-89222569D01*
X127222569Y-89513720D01*
X127065000Y-89894126D01*
X127065000Y-90071289D01*
X126822569Y-90313720D01*
X126665000Y-90694126D01*
X125710000Y-90694126D01*
X125710000Y-85744126D01*
X131535000Y-85744126D01*
X131535000Y-86155874D01*
X131692569Y-86536280D01*
X131983720Y-86827431D01*
X132364126Y-86985000D01*
X132415000Y-86985000D01*
X132415000Y-87375874D01*
X132572569Y-87756280D01*
X132863720Y-88047431D01*
X133244126Y-88205000D01*
X133655874Y-88205000D01*
X134036280Y-88047431D01*
X134327431Y-87756280D01*
X134485000Y-87375874D01*
X134485000Y-86964126D01*
X134327431Y-86583720D01*
X134036280Y-86292569D01*
X133655874Y-86135000D01*
X133605000Y-86135000D01*
X133605000Y-85744126D01*
X133447431Y-85363720D01*
X133238711Y-85155000D01*
X133507431Y-84886280D01*
X133665000Y-84505874D01*
X133665000Y-84094126D01*
X133507431Y-83713720D01*
X133216280Y-83422569D01*
X132835874Y-83265000D01*
X132424126Y-83265000D01*
X132043720Y-83422569D01*
X131752569Y-83713720D01*
X131595000Y-84094126D01*
X131595000Y-84505874D01*
X131752569Y-84886280D01*
X131961289Y-85095000D01*
X131692569Y-85363720D01*
X131535000Y-85744126D01*
X125710000Y-85744126D01*
X125710000Y-77754126D01*
X138245000Y-77754126D01*
X138245000Y-78165874D01*
X138402569Y-78546280D01*
X138693720Y-78837431D01*
X139074126Y-78995000D01*
X139485874Y-78995000D01*
X139866280Y-78837431D01*
X140157431Y-78546280D01*
X140315000Y-78165874D01*
X140315000Y-77754126D01*
X140157431Y-77373720D01*
X139866280Y-77082569D01*
X139485874Y-76925000D01*
X139074126Y-76925000D01*
X138693720Y-77082569D01*
X138402569Y-77373720D01*
X138245000Y-77754126D01*
X125710000Y-77754126D01*
X125710000Y-74260000D01*
X131312560Y-74260000D01*
X131312560Y-75960000D01*
X131361843Y-76207765D01*
X131502191Y-76417809D01*
X131712235Y-76558157D01*
X131960000Y-76607440D01*
X133660000Y-76607440D01*
X133907765Y-76558157D01*
X134117809Y-76417809D01*
X134258157Y-76207765D01*
X134267184Y-76162381D01*
X134279375Y-76180625D01*
X134770582Y-76508839D01*
X135203744Y-76595000D01*
X135496256Y-76595000D01*
X135929418Y-76508839D01*
X136420625Y-76180625D01*
X136748839Y-75689418D01*
X136864092Y-75110000D01*
X136748839Y-74530582D01*
X136420625Y-74039375D01*
X135929418Y-73711161D01*
X135496256Y-73625000D01*
X135203744Y-73625000D01*
X134770582Y-73711161D01*
X134279375Y-74039375D01*
X134267184Y-74057619D01*
X134258157Y-74012235D01*
X134117809Y-73802191D01*
X133907765Y-73661843D01*
X133660000Y-73612560D01*
X131960000Y-73612560D01*
X131712235Y-73661843D01*
X131502191Y-73802191D01*
X131361843Y-74012235D01*
X131312560Y-74260000D01*
X125710000Y-74260000D01*
X125710000Y-64710000D01*
X126228595Y-64710000D01*
X126061161Y-64960582D01*
G04 #@! TD*
M02*
