G04 #@! TF.GenerationSoftware,KiCad,Pcbnew,5.0.2-bee76a0~70~ubuntu18.04.1*
G04 #@! TF.CreationDate,2019-12-03T11:06:18+01:00*
G04 #@! TF.ProjectId,instrumnet,696e7374-7275-46d6-9e65-742e6b696361,rev?*
G04 #@! TF.SameCoordinates,Original*
G04 #@! TF.FileFunction,Copper,L3,Inr*
G04 #@! TF.FilePolarity,Positive*
%FSLAX46Y46*%
G04 Gerber Fmt 4.6, Leading zero omitted, Abs format (unit mm)*
G04 Created by KiCad (PCBNEW 5.0.2-bee76a0~70~ubuntu18.04.1) date Tue 03 Dec 2019 11:06:18 AM CET*
%MOMM*%
%LPD*%
G01*
G04 APERTURE LIST*
G04 #@! TA.AperFunction,NonConductor*
%ADD10C,0.150000*%
G04 #@! TD*
G04 #@! TA.AperFunction,ViaPad*
%ADD11R,1.700000X1.700000*%
G04 #@! TD*
G04 #@! TA.AperFunction,ViaPad*
%ADD12O,1.700000X1.700000*%
G04 #@! TD*
G04 #@! TA.AperFunction,ViaPad*
%ADD13C,0.800000*%
G04 #@! TD*
G04 #@! TA.AperFunction,Conductor*
%ADD14C,0.254000*%
G04 #@! TD*
G04 APERTURE END LIST*
D10*
X125000000Y-64000000D02*
X144500000Y-64000000D01*
X125000000Y-142000000D02*
X125000000Y-64000000D01*
X144400000Y-142000000D02*
X125000000Y-142000000D01*
X144500000Y-64000000D02*
X144400000Y-142000000D01*
D11*
G04 #@! TO.N,/in+*
G04 #@! TO.C,458_IN1*
X132810000Y-75110000D03*
D12*
G04 #@! TO.N,/in-*
X135350000Y-75110000D03*
G04 #@! TD*
G04 #@! TO.N,/out-*
G04 #@! TO.C,485_OUT1*
X140380000Y-75240000D03*
D11*
G04 #@! TO.N,/out+*
X142920000Y-75240000D03*
G04 #@! TD*
D12*
G04 #@! TO.N,GND*
G04 #@! TO.C,J1*
X130000000Y-65540000D03*
X130000000Y-68080000D03*
G04 #@! TO.N,Net-(D7-Pad1)*
X127460000Y-65540000D03*
D11*
X127460000Y-68080000D03*
G04 #@! TD*
G04 #@! TO.N,Net-(D2-Pad2)*
G04 #@! TO.C,J3*
X143040000Y-136000000D03*
D12*
G04 #@! TO.N,Net-(D2-Pad1)*
X140500000Y-136000000D03*
G04 #@! TD*
G04 #@! TO.N,Net-(D1-Pad1)*
G04 #@! TO.C,J2*
X133960000Y-136000000D03*
D11*
G04 #@! TO.N,Net-(D1-Pad2)*
X136500000Y-136000000D03*
G04 #@! TD*
D13*
G04 #@! TO.N,GND*
X138589855Y-101975010D03*
X125850000Y-136300000D03*
X142859849Y-114710000D03*
X135115000Y-116010000D03*
X137090000Y-92920000D03*
X140780000Y-92870000D03*
X135420000Y-68910000D03*
X140090000Y-68030000D03*
X138110000Y-128550000D03*
X138500009Y-130000008D03*
X138610000Y-115477136D03*
X131100000Y-81500000D03*
X128630000Y-81500000D03*
X128572875Y-83077214D03*
X128700010Y-79759758D03*
X127350000Y-79544998D03*
X127300000Y-83295002D03*
X131270000Y-83030000D03*
X131141408Y-79717897D03*
X126090000Y-105000000D03*
X126990000Y-105010000D03*
X127900000Y-105000000D03*
X126087050Y-81266858D03*
X143825000Y-127649998D03*
X128495403Y-113036994D03*
X135890000Y-78150000D03*
X137920000Y-75680000D03*
X140417390Y-115800860D03*
X128016000Y-121412000D03*
X128900010Y-101200000D03*
X129000000Y-85700000D03*
X130100000Y-93300000D03*
X131300000Y-123600000D03*
X132430000Y-131080000D03*
X131310000Y-120110000D03*
G04 #@! TO.N,+3V3*
X141120000Y-97570000D03*
X137430000Y-99200000D03*
X138950000Y-126660000D03*
X126180000Y-98120000D03*
X132700000Y-127050000D03*
X128900000Y-107420000D03*
X129730000Y-102800000D03*
X127862000Y-138412000D03*
X126840000Y-130060000D03*
X125775000Y-133586000D03*
X126699990Y-92964999D03*
X127680000Y-106775000D03*
X127560000Y-108080000D03*
G04 #@! TO.N,+5V*
X139280000Y-77960000D03*
X133450000Y-87170000D03*
X132570000Y-85950000D03*
X128800000Y-89300000D03*
X132630000Y-84300000D03*
X127800000Y-103000000D03*
X127700000Y-90900000D03*
X128100000Y-90100000D03*
G04 #@! TO.N,Net-(C4-Pad2)*
X143823515Y-119869562D03*
G04 #@! TO.N,Net-(C4-Pad1)*
X138800000Y-125080000D03*
G04 #@! TO.N,Net-(C3-Pad2)*
X137140002Y-124850000D03*
G04 #@! TO.N,Net-(C3-Pad1)*
X132545010Y-129290000D03*
G04 #@! TO.N,rxd_3v3*
X129725447Y-111188387D03*
X132589221Y-111248571D03*
G04 #@! TO.N,txd_3v3*
X130243232Y-112045842D03*
X132593265Y-112250000D03*
G04 #@! TO.N,do*
X138500000Y-120000000D03*
G04 #@! TO.N,cs_1*
X138500000Y-123250000D03*
G04 #@! TO.N,cs_0*
X138500000Y-121500000D03*
G04 #@! TO.N,sck*
X142000000Y-103250000D03*
G04 #@! TO.N,miso*
X143250000Y-98750000D03*
G04 #@! TO.N,mosi*
X143500000Y-102750000D03*
G04 #@! TO.N,reset*
X131820000Y-115320000D03*
X142864135Y-116210245D03*
X128890000Y-118250000D03*
G04 #@! TO.N,Net-(TP4-Pad1)*
X134348801Y-106158752D03*
G04 #@! TO.N,Net-(TP3-Pad1)*
X134077813Y-105021443D03*
G04 #@! TO.N,Net-(TP2-Pad1)*
X134250022Y-101739827D03*
G04 #@! TO.N,led*
X133840000Y-113620000D03*
G04 #@! TD*
D14*
G04 #@! TO.N,+3V3*
G36*
X129222569Y-92713720D02*
X129065000Y-93094126D01*
X129065000Y-93505874D01*
X129222569Y-93886280D01*
X129513720Y-94177431D01*
X129894126Y-94335000D01*
X130305874Y-94335000D01*
X130686280Y-94177431D01*
X130977431Y-93886280D01*
X131135000Y-93505874D01*
X131135000Y-93094126D01*
X130977431Y-92713720D01*
X130890711Y-92627000D01*
X136091089Y-92627000D01*
X136055000Y-92714126D01*
X136055000Y-93125874D01*
X136212569Y-93506280D01*
X136503720Y-93797431D01*
X136884126Y-93955000D01*
X137295874Y-93955000D01*
X137676280Y-93797431D01*
X137967431Y-93506280D01*
X138125000Y-93125874D01*
X138125000Y-92714126D01*
X138088911Y-92627000D01*
X139760378Y-92627000D01*
X139745000Y-92664126D01*
X139745000Y-93075874D01*
X139902569Y-93456280D01*
X140193720Y-93747431D01*
X140574126Y-93905000D01*
X140985874Y-93905000D01*
X141366280Y-93747431D01*
X141657431Y-93456280D01*
X141815000Y-93075874D01*
X141815000Y-92664126D01*
X141799622Y-92627000D01*
X143753299Y-92627000D01*
X143746621Y-97835431D01*
X143455874Y-97715000D01*
X143044126Y-97715000D01*
X142663720Y-97872569D01*
X142372569Y-98163720D01*
X142215000Y-98544126D01*
X142215000Y-98955874D01*
X142372569Y-99336280D01*
X142663720Y-99627431D01*
X143044126Y-99785000D01*
X143455874Y-99785000D01*
X143744275Y-99665541D01*
X143741628Y-101729810D01*
X143705874Y-101715000D01*
X143294126Y-101715000D01*
X142913720Y-101872569D01*
X142622569Y-102163720D01*
X142543415Y-102354814D01*
X142205874Y-102215000D01*
X141794126Y-102215000D01*
X141413720Y-102372569D01*
X141122569Y-102663720D01*
X140965000Y-103044126D01*
X140965000Y-103455874D01*
X141122569Y-103836280D01*
X141413720Y-104127431D01*
X141794126Y-104285000D01*
X142205874Y-104285000D01*
X142586280Y-104127431D01*
X142877431Y-103836280D01*
X142956585Y-103645186D01*
X143294126Y-103785000D01*
X143705874Y-103785000D01*
X143739011Y-103771274D01*
X143725753Y-114112193D01*
X143446129Y-113832569D01*
X143065723Y-113675000D01*
X142653975Y-113675000D01*
X142273569Y-113832569D01*
X141982418Y-114123720D01*
X141824849Y-114504126D01*
X141824849Y-114915874D01*
X141982418Y-115296280D01*
X142148404Y-115462266D01*
X141986704Y-115623965D01*
X141829135Y-116004371D01*
X141829135Y-116416119D01*
X141986704Y-116796525D01*
X142277855Y-117087676D01*
X142658261Y-117245245D01*
X143070009Y-117245245D01*
X143450415Y-117087676D01*
X143722287Y-116815804D01*
X143719699Y-118834562D01*
X143617641Y-118834562D01*
X143237235Y-118992131D01*
X142946084Y-119283282D01*
X142788515Y-119663688D01*
X142788515Y-120075436D01*
X142946084Y-120455842D01*
X143237235Y-120746993D01*
X143617641Y-120904562D01*
X143717045Y-120904562D01*
X143709724Y-126614998D01*
X143619126Y-126614998D01*
X143238720Y-126772567D01*
X142947569Y-127063718D01*
X142790000Y-127444124D01*
X142790000Y-127855872D01*
X142947569Y-128236278D01*
X143238720Y-128527429D01*
X143619126Y-128684998D01*
X143707070Y-128684998D01*
X143699612Y-134502560D01*
X142190000Y-134502560D01*
X141942235Y-134551843D01*
X141732191Y-134692191D01*
X141591843Y-134902235D01*
X141582816Y-134947619D01*
X141570625Y-134929375D01*
X141079418Y-134601161D01*
X140646256Y-134515000D01*
X140353744Y-134515000D01*
X139920582Y-134601161D01*
X139429375Y-134929375D01*
X139101161Y-135420582D01*
X138985908Y-136000000D01*
X139101161Y-136579418D01*
X139429375Y-137070625D01*
X139920582Y-137398839D01*
X140353744Y-137485000D01*
X140646256Y-137485000D01*
X141079418Y-137398839D01*
X141570625Y-137070625D01*
X141582816Y-137052381D01*
X141591843Y-137097765D01*
X141732191Y-137307809D01*
X141942235Y-137448157D01*
X142190000Y-137497440D01*
X143695772Y-137497440D01*
X143690910Y-141290000D01*
X125710000Y-141290000D01*
X125710000Y-139154887D01*
X136165000Y-139154887D01*
X136165000Y-139845113D01*
X136429138Y-140482799D01*
X136917201Y-140970862D01*
X137554887Y-141235000D01*
X138245113Y-141235000D01*
X138882799Y-140970862D01*
X139370862Y-140482799D01*
X139635000Y-139845113D01*
X139635000Y-139154887D01*
X139370862Y-138517201D01*
X138882799Y-138029138D01*
X138245113Y-137765000D01*
X137554887Y-137765000D01*
X136917201Y-138029138D01*
X136429138Y-138517201D01*
X136165000Y-139154887D01*
X125710000Y-139154887D01*
X125710000Y-137335000D01*
X126055874Y-137335000D01*
X126436280Y-137177431D01*
X126727431Y-136886280D01*
X126885000Y-136505874D01*
X126885000Y-136094126D01*
X126846012Y-136000000D01*
X132445908Y-136000000D01*
X132561161Y-136579418D01*
X132889375Y-137070625D01*
X133380582Y-137398839D01*
X133813744Y-137485000D01*
X134106256Y-137485000D01*
X134539418Y-137398839D01*
X135030625Y-137070625D01*
X135042816Y-137052381D01*
X135051843Y-137097765D01*
X135192191Y-137307809D01*
X135402235Y-137448157D01*
X135650000Y-137497440D01*
X137350000Y-137497440D01*
X137597765Y-137448157D01*
X137807809Y-137307809D01*
X137948157Y-137097765D01*
X137997440Y-136850000D01*
X137997440Y-135150000D01*
X137948157Y-134902235D01*
X137807809Y-134692191D01*
X137597765Y-134551843D01*
X137350000Y-134502560D01*
X135650000Y-134502560D01*
X135402235Y-134551843D01*
X135192191Y-134692191D01*
X135051843Y-134902235D01*
X135042816Y-134947619D01*
X135030625Y-134929375D01*
X134539418Y-134601161D01*
X134106256Y-134515000D01*
X133813744Y-134515000D01*
X133380582Y-134601161D01*
X132889375Y-134929375D01*
X132561161Y-135420582D01*
X132445908Y-136000000D01*
X126846012Y-136000000D01*
X126727431Y-135713720D01*
X126436280Y-135422569D01*
X126055874Y-135265000D01*
X125710000Y-135265000D01*
X125710000Y-130874126D01*
X131395000Y-130874126D01*
X131395000Y-131285874D01*
X131552569Y-131666280D01*
X131843720Y-131957431D01*
X132224126Y-132115000D01*
X132635874Y-132115000D01*
X133016280Y-131957431D01*
X133307431Y-131666280D01*
X133465000Y-131285874D01*
X133465000Y-130874126D01*
X133307431Y-130493720D01*
X133025119Y-130211408D01*
X133131290Y-130167431D01*
X133422441Y-129876280D01*
X133580010Y-129495874D01*
X133580010Y-129084126D01*
X133422441Y-128703720D01*
X133131290Y-128412569D01*
X132966054Y-128344126D01*
X137075000Y-128344126D01*
X137075000Y-128755874D01*
X137232569Y-129136280D01*
X137523720Y-129427431D01*
X137603256Y-129460376D01*
X137465009Y-129794134D01*
X137465009Y-130205882D01*
X137622578Y-130586288D01*
X137913729Y-130877439D01*
X138294135Y-131035008D01*
X138705883Y-131035008D01*
X139086289Y-130877439D01*
X139377440Y-130586288D01*
X139535009Y-130205882D01*
X139535009Y-129794134D01*
X139377440Y-129413728D01*
X139086289Y-129122577D01*
X139006753Y-129089632D01*
X139145000Y-128755874D01*
X139145000Y-128344126D01*
X138987431Y-127963720D01*
X138696280Y-127672569D01*
X138315874Y-127515000D01*
X137904126Y-127515000D01*
X137523720Y-127672569D01*
X137232569Y-127963720D01*
X137075000Y-128344126D01*
X132966054Y-128344126D01*
X132750884Y-128255000D01*
X132339136Y-128255000D01*
X131958730Y-128412569D01*
X131667579Y-128703720D01*
X131510010Y-129084126D01*
X131510010Y-129495874D01*
X131667579Y-129876280D01*
X131949891Y-130158592D01*
X131843720Y-130202569D01*
X131552569Y-130493720D01*
X131395000Y-130874126D01*
X125710000Y-130874126D01*
X125710000Y-124644126D01*
X136105002Y-124644126D01*
X136105002Y-125055874D01*
X136262571Y-125436280D01*
X136553722Y-125727431D01*
X136934128Y-125885000D01*
X137345876Y-125885000D01*
X137726282Y-125727431D01*
X137882989Y-125570724D01*
X137922569Y-125666280D01*
X138213720Y-125957431D01*
X138594126Y-126115000D01*
X139005874Y-126115000D01*
X139386280Y-125957431D01*
X139677431Y-125666280D01*
X139835000Y-125285874D01*
X139835000Y-124874126D01*
X139677431Y-124493720D01*
X139386280Y-124202569D01*
X139121017Y-124092694D01*
X139377431Y-123836280D01*
X139535000Y-123455874D01*
X139535000Y-123044126D01*
X139377431Y-122663720D01*
X139088711Y-122375000D01*
X139377431Y-122086280D01*
X139535000Y-121705874D01*
X139535000Y-121294126D01*
X139377431Y-120913720D01*
X139213711Y-120750000D01*
X139377431Y-120586280D01*
X139535000Y-120205874D01*
X139535000Y-119794126D01*
X139377431Y-119413720D01*
X139086280Y-119122569D01*
X138705874Y-118965000D01*
X138294126Y-118965000D01*
X137913720Y-119122569D01*
X137622569Y-119413720D01*
X137465000Y-119794126D01*
X137465000Y-120205874D01*
X137622569Y-120586280D01*
X137786289Y-120750000D01*
X137622569Y-120913720D01*
X137465000Y-121294126D01*
X137465000Y-121705874D01*
X137622569Y-122086280D01*
X137911289Y-122375000D01*
X137622569Y-122663720D01*
X137465000Y-123044126D01*
X137465000Y-123455874D01*
X137622569Y-123836280D01*
X137913720Y-124127431D01*
X138178983Y-124237306D01*
X138057013Y-124359276D01*
X138017433Y-124263720D01*
X137726282Y-123972569D01*
X137345876Y-123815000D01*
X136934128Y-123815000D01*
X136553722Y-123972569D01*
X136262571Y-124263720D01*
X136105002Y-124644126D01*
X125710000Y-124644126D01*
X125710000Y-123394126D01*
X130265000Y-123394126D01*
X130265000Y-123805874D01*
X130422569Y-124186280D01*
X130713720Y-124477431D01*
X131094126Y-124635000D01*
X131505874Y-124635000D01*
X131886280Y-124477431D01*
X132177431Y-124186280D01*
X132335000Y-123805874D01*
X132335000Y-123394126D01*
X132177431Y-123013720D01*
X131886280Y-122722569D01*
X131505874Y-122565000D01*
X131094126Y-122565000D01*
X130713720Y-122722569D01*
X130422569Y-123013720D01*
X130265000Y-123394126D01*
X125710000Y-123394126D01*
X125710000Y-121206126D01*
X126981000Y-121206126D01*
X126981000Y-121617874D01*
X127138569Y-121998280D01*
X127429720Y-122289431D01*
X127810126Y-122447000D01*
X128221874Y-122447000D01*
X128602280Y-122289431D01*
X128893431Y-121998280D01*
X129051000Y-121617874D01*
X129051000Y-121206126D01*
X128893431Y-120825720D01*
X128602280Y-120534569D01*
X128221874Y-120377000D01*
X127810126Y-120377000D01*
X127429720Y-120534569D01*
X127138569Y-120825720D01*
X126981000Y-121206126D01*
X125710000Y-121206126D01*
X125710000Y-119904126D01*
X130275000Y-119904126D01*
X130275000Y-120315874D01*
X130432569Y-120696280D01*
X130723720Y-120987431D01*
X131104126Y-121145000D01*
X131515874Y-121145000D01*
X131896280Y-120987431D01*
X132187431Y-120696280D01*
X132345000Y-120315874D01*
X132345000Y-119904126D01*
X132187431Y-119523720D01*
X131896280Y-119232569D01*
X131515874Y-119075000D01*
X131104126Y-119075000D01*
X130723720Y-119232569D01*
X130432569Y-119523720D01*
X130275000Y-119904126D01*
X125710000Y-119904126D01*
X125710000Y-118044126D01*
X127855000Y-118044126D01*
X127855000Y-118455874D01*
X128012569Y-118836280D01*
X128303720Y-119127431D01*
X128684126Y-119285000D01*
X129095874Y-119285000D01*
X129476280Y-119127431D01*
X129767431Y-118836280D01*
X129925000Y-118455874D01*
X129925000Y-118044126D01*
X129767431Y-117663720D01*
X129476280Y-117372569D01*
X129095874Y-117215000D01*
X128684126Y-117215000D01*
X128303720Y-117372569D01*
X128012569Y-117663720D01*
X127855000Y-118044126D01*
X125710000Y-118044126D01*
X125710000Y-115114126D01*
X130785000Y-115114126D01*
X130785000Y-115525874D01*
X130942569Y-115906280D01*
X131233720Y-116197431D01*
X131614126Y-116355000D01*
X132025874Y-116355000D01*
X132406280Y-116197431D01*
X132697431Y-115906280D01*
X132739744Y-115804126D01*
X134080000Y-115804126D01*
X134080000Y-116215874D01*
X134237569Y-116596280D01*
X134528720Y-116887431D01*
X134909126Y-117045000D01*
X135320874Y-117045000D01*
X135701280Y-116887431D01*
X135992431Y-116596280D01*
X136150000Y-116215874D01*
X136150000Y-115804126D01*
X135992431Y-115423720D01*
X135839973Y-115271262D01*
X137575000Y-115271262D01*
X137575000Y-115683010D01*
X137732569Y-116063416D01*
X138023720Y-116354567D01*
X138404126Y-116512136D01*
X138815874Y-116512136D01*
X139196280Y-116354567D01*
X139429758Y-116121089D01*
X139539959Y-116387140D01*
X139831110Y-116678291D01*
X140211516Y-116835860D01*
X140623264Y-116835860D01*
X141003670Y-116678291D01*
X141294821Y-116387140D01*
X141452390Y-116006734D01*
X141452390Y-115594986D01*
X141294821Y-115214580D01*
X141003670Y-114923429D01*
X140623264Y-114765860D01*
X140211516Y-114765860D01*
X139831110Y-114923429D01*
X139597632Y-115156907D01*
X139487431Y-114890856D01*
X139196280Y-114599705D01*
X138815874Y-114442136D01*
X138404126Y-114442136D01*
X138023720Y-114599705D01*
X137732569Y-114890856D01*
X137575000Y-115271262D01*
X135839973Y-115271262D01*
X135701280Y-115132569D01*
X135320874Y-114975000D01*
X134909126Y-114975000D01*
X134528720Y-115132569D01*
X134237569Y-115423720D01*
X134080000Y-115804126D01*
X132739744Y-115804126D01*
X132855000Y-115525874D01*
X132855000Y-115114126D01*
X132697431Y-114733720D01*
X132406280Y-114442569D01*
X132025874Y-114285000D01*
X131614126Y-114285000D01*
X131233720Y-114442569D01*
X130942569Y-114733720D01*
X130785000Y-115114126D01*
X125710000Y-115114126D01*
X125710000Y-112831120D01*
X127460403Y-112831120D01*
X127460403Y-113242868D01*
X127617972Y-113623274D01*
X127909123Y-113914425D01*
X128289529Y-114071994D01*
X128701277Y-114071994D01*
X129081683Y-113914425D01*
X129372834Y-113623274D01*
X129530403Y-113242868D01*
X129530403Y-112831120D01*
X129506081Y-112772402D01*
X129656952Y-112923273D01*
X130037358Y-113080842D01*
X130449106Y-113080842D01*
X130829512Y-112923273D01*
X131120663Y-112632122D01*
X131278232Y-112251716D01*
X131278232Y-111839968D01*
X131120663Y-111459562D01*
X130829512Y-111168411D01*
X130760447Y-111139803D01*
X130760447Y-111042697D01*
X131554221Y-111042697D01*
X131554221Y-111454445D01*
X131678370Y-111754167D01*
X131558265Y-112044126D01*
X131558265Y-112455874D01*
X131715834Y-112836280D01*
X132006985Y-113127431D01*
X132387391Y-113285000D01*
X132799139Y-113285000D01*
X132870777Y-113255327D01*
X132805000Y-113414126D01*
X132805000Y-113825874D01*
X132962569Y-114206280D01*
X133253720Y-114497431D01*
X133634126Y-114655000D01*
X134045874Y-114655000D01*
X134426280Y-114497431D01*
X134717431Y-114206280D01*
X134875000Y-113825874D01*
X134875000Y-113414126D01*
X134717431Y-113033720D01*
X134426280Y-112742569D01*
X134045874Y-112585000D01*
X133634126Y-112585000D01*
X133562488Y-112614673D01*
X133628265Y-112455874D01*
X133628265Y-112044126D01*
X133504116Y-111744404D01*
X133624221Y-111454445D01*
X133624221Y-111042697D01*
X133466652Y-110662291D01*
X133175501Y-110371140D01*
X132795095Y-110213571D01*
X132383347Y-110213571D01*
X132002941Y-110371140D01*
X131711790Y-110662291D01*
X131554221Y-111042697D01*
X130760447Y-111042697D01*
X130760447Y-110982513D01*
X130602878Y-110602107D01*
X130311727Y-110310956D01*
X129931321Y-110153387D01*
X129519573Y-110153387D01*
X129139167Y-110310956D01*
X128848016Y-110602107D01*
X128690447Y-110982513D01*
X128690447Y-111394261D01*
X128848016Y-111774667D01*
X129139167Y-112065818D01*
X129208232Y-112094426D01*
X129208232Y-112251716D01*
X129232554Y-112310434D01*
X129081683Y-112159563D01*
X128701277Y-112001994D01*
X128289529Y-112001994D01*
X127909123Y-112159563D01*
X127617972Y-112450714D01*
X127460403Y-112831120D01*
X125710000Y-112831120D01*
X125710000Y-105962875D01*
X125884126Y-106035000D01*
X126295874Y-106035000D01*
X126527929Y-105938880D01*
X126784126Y-106045000D01*
X127195874Y-106045000D01*
X127457071Y-105936809D01*
X127694126Y-106035000D01*
X128105874Y-106035000D01*
X128486280Y-105877431D01*
X128777431Y-105586280D01*
X128935000Y-105205874D01*
X128935000Y-104815569D01*
X133042813Y-104815569D01*
X133042813Y-105227317D01*
X133200382Y-105607723D01*
X133381675Y-105789016D01*
X133313801Y-105952878D01*
X133313801Y-106364626D01*
X133471370Y-106745032D01*
X133762521Y-107036183D01*
X134142927Y-107193752D01*
X134554675Y-107193752D01*
X134935081Y-107036183D01*
X135226232Y-106745032D01*
X135383801Y-106364626D01*
X135383801Y-105952878D01*
X135226232Y-105572472D01*
X135044939Y-105391179D01*
X135112813Y-105227317D01*
X135112813Y-104815569D01*
X134955244Y-104435163D01*
X134664093Y-104144012D01*
X134283687Y-103986443D01*
X133871939Y-103986443D01*
X133491533Y-104144012D01*
X133200382Y-104435163D01*
X133042813Y-104815569D01*
X128935000Y-104815569D01*
X128935000Y-104794126D01*
X128777431Y-104413720D01*
X128486280Y-104122569D01*
X128140372Y-103979289D01*
X128386280Y-103877431D01*
X128677431Y-103586280D01*
X128835000Y-103205874D01*
X128835000Y-102794126D01*
X128677431Y-102413720D01*
X128386280Y-102122569D01*
X128005874Y-101965000D01*
X127594126Y-101965000D01*
X127213720Y-102122569D01*
X126922569Y-102413720D01*
X126765000Y-102794126D01*
X126765000Y-103205874D01*
X126922569Y-103586280D01*
X127213720Y-103877431D01*
X127559628Y-104020711D01*
X127432929Y-104073191D01*
X127195874Y-103975000D01*
X126784126Y-103975000D01*
X126552071Y-104071120D01*
X126295874Y-103965000D01*
X125884126Y-103965000D01*
X125710000Y-104037125D01*
X125710000Y-100994126D01*
X127865010Y-100994126D01*
X127865010Y-101405874D01*
X128022579Y-101786280D01*
X128313730Y-102077431D01*
X128694136Y-102235000D01*
X129105884Y-102235000D01*
X129486290Y-102077431D01*
X129777441Y-101786280D01*
X129881958Y-101533953D01*
X133215022Y-101533953D01*
X133215022Y-101945701D01*
X133372591Y-102326107D01*
X133663742Y-102617258D01*
X134044148Y-102774827D01*
X134455896Y-102774827D01*
X134836302Y-102617258D01*
X135127453Y-102326107D01*
X135285022Y-101945701D01*
X135285022Y-101769136D01*
X137554855Y-101769136D01*
X137554855Y-102180884D01*
X137712424Y-102561290D01*
X138003575Y-102852441D01*
X138383981Y-103010010D01*
X138795729Y-103010010D01*
X139176135Y-102852441D01*
X139467286Y-102561290D01*
X139624855Y-102180884D01*
X139624855Y-101769136D01*
X139467286Y-101388730D01*
X139176135Y-101097579D01*
X138795729Y-100940010D01*
X138383981Y-100940010D01*
X138003575Y-101097579D01*
X137712424Y-101388730D01*
X137554855Y-101769136D01*
X135285022Y-101769136D01*
X135285022Y-101533953D01*
X135127453Y-101153547D01*
X134836302Y-100862396D01*
X134455896Y-100704827D01*
X134044148Y-100704827D01*
X133663742Y-100862396D01*
X133372591Y-101153547D01*
X133215022Y-101533953D01*
X129881958Y-101533953D01*
X129935010Y-101405874D01*
X129935010Y-100994126D01*
X129777441Y-100613720D01*
X129486290Y-100322569D01*
X129105884Y-100165000D01*
X128694136Y-100165000D01*
X128313730Y-100322569D01*
X128022579Y-100613720D01*
X127865010Y-100994126D01*
X125710000Y-100994126D01*
X125710000Y-92627000D01*
X129309289Y-92627000D01*
X129222569Y-92713720D01*
X129222569Y-92713720D01*
G37*
X129222569Y-92713720D02*
X129065000Y-93094126D01*
X129065000Y-93505874D01*
X129222569Y-93886280D01*
X129513720Y-94177431D01*
X129894126Y-94335000D01*
X130305874Y-94335000D01*
X130686280Y-94177431D01*
X130977431Y-93886280D01*
X131135000Y-93505874D01*
X131135000Y-93094126D01*
X130977431Y-92713720D01*
X130890711Y-92627000D01*
X136091089Y-92627000D01*
X136055000Y-92714126D01*
X136055000Y-93125874D01*
X136212569Y-93506280D01*
X136503720Y-93797431D01*
X136884126Y-93955000D01*
X137295874Y-93955000D01*
X137676280Y-93797431D01*
X137967431Y-93506280D01*
X138125000Y-93125874D01*
X138125000Y-92714126D01*
X138088911Y-92627000D01*
X139760378Y-92627000D01*
X139745000Y-92664126D01*
X139745000Y-93075874D01*
X139902569Y-93456280D01*
X140193720Y-93747431D01*
X140574126Y-93905000D01*
X140985874Y-93905000D01*
X141366280Y-93747431D01*
X141657431Y-93456280D01*
X141815000Y-93075874D01*
X141815000Y-92664126D01*
X141799622Y-92627000D01*
X143753299Y-92627000D01*
X143746621Y-97835431D01*
X143455874Y-97715000D01*
X143044126Y-97715000D01*
X142663720Y-97872569D01*
X142372569Y-98163720D01*
X142215000Y-98544126D01*
X142215000Y-98955874D01*
X142372569Y-99336280D01*
X142663720Y-99627431D01*
X143044126Y-99785000D01*
X143455874Y-99785000D01*
X143744275Y-99665541D01*
X143741628Y-101729810D01*
X143705874Y-101715000D01*
X143294126Y-101715000D01*
X142913720Y-101872569D01*
X142622569Y-102163720D01*
X142543415Y-102354814D01*
X142205874Y-102215000D01*
X141794126Y-102215000D01*
X141413720Y-102372569D01*
X141122569Y-102663720D01*
X140965000Y-103044126D01*
X140965000Y-103455874D01*
X141122569Y-103836280D01*
X141413720Y-104127431D01*
X141794126Y-104285000D01*
X142205874Y-104285000D01*
X142586280Y-104127431D01*
X142877431Y-103836280D01*
X142956585Y-103645186D01*
X143294126Y-103785000D01*
X143705874Y-103785000D01*
X143739011Y-103771274D01*
X143725753Y-114112193D01*
X143446129Y-113832569D01*
X143065723Y-113675000D01*
X142653975Y-113675000D01*
X142273569Y-113832569D01*
X141982418Y-114123720D01*
X141824849Y-114504126D01*
X141824849Y-114915874D01*
X141982418Y-115296280D01*
X142148404Y-115462266D01*
X141986704Y-115623965D01*
X141829135Y-116004371D01*
X141829135Y-116416119D01*
X141986704Y-116796525D01*
X142277855Y-117087676D01*
X142658261Y-117245245D01*
X143070009Y-117245245D01*
X143450415Y-117087676D01*
X143722287Y-116815804D01*
X143719699Y-118834562D01*
X143617641Y-118834562D01*
X143237235Y-118992131D01*
X142946084Y-119283282D01*
X142788515Y-119663688D01*
X142788515Y-120075436D01*
X142946084Y-120455842D01*
X143237235Y-120746993D01*
X143617641Y-120904562D01*
X143717045Y-120904562D01*
X143709724Y-126614998D01*
X143619126Y-126614998D01*
X143238720Y-126772567D01*
X142947569Y-127063718D01*
X142790000Y-127444124D01*
X142790000Y-127855872D01*
X142947569Y-128236278D01*
X143238720Y-128527429D01*
X143619126Y-128684998D01*
X143707070Y-128684998D01*
X143699612Y-134502560D01*
X142190000Y-134502560D01*
X141942235Y-134551843D01*
X141732191Y-134692191D01*
X141591843Y-134902235D01*
X141582816Y-134947619D01*
X141570625Y-134929375D01*
X141079418Y-134601161D01*
X140646256Y-134515000D01*
X140353744Y-134515000D01*
X139920582Y-134601161D01*
X139429375Y-134929375D01*
X139101161Y-135420582D01*
X138985908Y-136000000D01*
X139101161Y-136579418D01*
X139429375Y-137070625D01*
X139920582Y-137398839D01*
X140353744Y-137485000D01*
X140646256Y-137485000D01*
X141079418Y-137398839D01*
X141570625Y-137070625D01*
X141582816Y-137052381D01*
X141591843Y-137097765D01*
X141732191Y-137307809D01*
X141942235Y-137448157D01*
X142190000Y-137497440D01*
X143695772Y-137497440D01*
X143690910Y-141290000D01*
X125710000Y-141290000D01*
X125710000Y-139154887D01*
X136165000Y-139154887D01*
X136165000Y-139845113D01*
X136429138Y-140482799D01*
X136917201Y-140970862D01*
X137554887Y-141235000D01*
X138245113Y-141235000D01*
X138882799Y-140970862D01*
X139370862Y-140482799D01*
X139635000Y-139845113D01*
X139635000Y-139154887D01*
X139370862Y-138517201D01*
X138882799Y-138029138D01*
X138245113Y-137765000D01*
X137554887Y-137765000D01*
X136917201Y-138029138D01*
X136429138Y-138517201D01*
X136165000Y-139154887D01*
X125710000Y-139154887D01*
X125710000Y-137335000D01*
X126055874Y-137335000D01*
X126436280Y-137177431D01*
X126727431Y-136886280D01*
X126885000Y-136505874D01*
X126885000Y-136094126D01*
X126846012Y-136000000D01*
X132445908Y-136000000D01*
X132561161Y-136579418D01*
X132889375Y-137070625D01*
X133380582Y-137398839D01*
X133813744Y-137485000D01*
X134106256Y-137485000D01*
X134539418Y-137398839D01*
X135030625Y-137070625D01*
X135042816Y-137052381D01*
X135051843Y-137097765D01*
X135192191Y-137307809D01*
X135402235Y-137448157D01*
X135650000Y-137497440D01*
X137350000Y-137497440D01*
X137597765Y-137448157D01*
X137807809Y-137307809D01*
X137948157Y-137097765D01*
X137997440Y-136850000D01*
X137997440Y-135150000D01*
X137948157Y-134902235D01*
X137807809Y-134692191D01*
X137597765Y-134551843D01*
X137350000Y-134502560D01*
X135650000Y-134502560D01*
X135402235Y-134551843D01*
X135192191Y-134692191D01*
X135051843Y-134902235D01*
X135042816Y-134947619D01*
X135030625Y-134929375D01*
X134539418Y-134601161D01*
X134106256Y-134515000D01*
X133813744Y-134515000D01*
X133380582Y-134601161D01*
X132889375Y-134929375D01*
X132561161Y-135420582D01*
X132445908Y-136000000D01*
X126846012Y-136000000D01*
X126727431Y-135713720D01*
X126436280Y-135422569D01*
X126055874Y-135265000D01*
X125710000Y-135265000D01*
X125710000Y-130874126D01*
X131395000Y-130874126D01*
X131395000Y-131285874D01*
X131552569Y-131666280D01*
X131843720Y-131957431D01*
X132224126Y-132115000D01*
X132635874Y-132115000D01*
X133016280Y-131957431D01*
X133307431Y-131666280D01*
X133465000Y-131285874D01*
X133465000Y-130874126D01*
X133307431Y-130493720D01*
X133025119Y-130211408D01*
X133131290Y-130167431D01*
X133422441Y-129876280D01*
X133580010Y-129495874D01*
X133580010Y-129084126D01*
X133422441Y-128703720D01*
X133131290Y-128412569D01*
X132966054Y-128344126D01*
X137075000Y-128344126D01*
X137075000Y-128755874D01*
X137232569Y-129136280D01*
X137523720Y-129427431D01*
X137603256Y-129460376D01*
X137465009Y-129794134D01*
X137465009Y-130205882D01*
X137622578Y-130586288D01*
X137913729Y-130877439D01*
X138294135Y-131035008D01*
X138705883Y-131035008D01*
X139086289Y-130877439D01*
X139377440Y-130586288D01*
X139535009Y-130205882D01*
X139535009Y-129794134D01*
X139377440Y-129413728D01*
X139086289Y-129122577D01*
X139006753Y-129089632D01*
X139145000Y-128755874D01*
X139145000Y-128344126D01*
X138987431Y-127963720D01*
X138696280Y-127672569D01*
X138315874Y-127515000D01*
X137904126Y-127515000D01*
X137523720Y-127672569D01*
X137232569Y-127963720D01*
X137075000Y-128344126D01*
X132966054Y-128344126D01*
X132750884Y-128255000D01*
X132339136Y-128255000D01*
X131958730Y-128412569D01*
X131667579Y-128703720D01*
X131510010Y-129084126D01*
X131510010Y-129495874D01*
X131667579Y-129876280D01*
X131949891Y-130158592D01*
X131843720Y-130202569D01*
X131552569Y-130493720D01*
X131395000Y-130874126D01*
X125710000Y-130874126D01*
X125710000Y-124644126D01*
X136105002Y-124644126D01*
X136105002Y-125055874D01*
X136262571Y-125436280D01*
X136553722Y-125727431D01*
X136934128Y-125885000D01*
X137345876Y-125885000D01*
X137726282Y-125727431D01*
X137882989Y-125570724D01*
X137922569Y-125666280D01*
X138213720Y-125957431D01*
X138594126Y-126115000D01*
X139005874Y-126115000D01*
X139386280Y-125957431D01*
X139677431Y-125666280D01*
X139835000Y-125285874D01*
X139835000Y-124874126D01*
X139677431Y-124493720D01*
X139386280Y-124202569D01*
X139121017Y-124092694D01*
X139377431Y-123836280D01*
X139535000Y-123455874D01*
X139535000Y-123044126D01*
X139377431Y-122663720D01*
X139088711Y-122375000D01*
X139377431Y-122086280D01*
X139535000Y-121705874D01*
X139535000Y-121294126D01*
X139377431Y-120913720D01*
X139213711Y-120750000D01*
X139377431Y-120586280D01*
X139535000Y-120205874D01*
X139535000Y-119794126D01*
X139377431Y-119413720D01*
X139086280Y-119122569D01*
X138705874Y-118965000D01*
X138294126Y-118965000D01*
X137913720Y-119122569D01*
X137622569Y-119413720D01*
X137465000Y-119794126D01*
X137465000Y-120205874D01*
X137622569Y-120586280D01*
X137786289Y-120750000D01*
X137622569Y-120913720D01*
X137465000Y-121294126D01*
X137465000Y-121705874D01*
X137622569Y-122086280D01*
X137911289Y-122375000D01*
X137622569Y-122663720D01*
X137465000Y-123044126D01*
X137465000Y-123455874D01*
X137622569Y-123836280D01*
X137913720Y-124127431D01*
X138178983Y-124237306D01*
X138057013Y-124359276D01*
X138017433Y-124263720D01*
X137726282Y-123972569D01*
X137345876Y-123815000D01*
X136934128Y-123815000D01*
X136553722Y-123972569D01*
X136262571Y-124263720D01*
X136105002Y-124644126D01*
X125710000Y-124644126D01*
X125710000Y-123394126D01*
X130265000Y-123394126D01*
X130265000Y-123805874D01*
X130422569Y-124186280D01*
X130713720Y-124477431D01*
X131094126Y-124635000D01*
X131505874Y-124635000D01*
X131886280Y-124477431D01*
X132177431Y-124186280D01*
X132335000Y-123805874D01*
X132335000Y-123394126D01*
X132177431Y-123013720D01*
X131886280Y-122722569D01*
X131505874Y-122565000D01*
X131094126Y-122565000D01*
X130713720Y-122722569D01*
X130422569Y-123013720D01*
X130265000Y-123394126D01*
X125710000Y-123394126D01*
X125710000Y-121206126D01*
X126981000Y-121206126D01*
X126981000Y-121617874D01*
X127138569Y-121998280D01*
X127429720Y-122289431D01*
X127810126Y-122447000D01*
X128221874Y-122447000D01*
X128602280Y-122289431D01*
X128893431Y-121998280D01*
X129051000Y-121617874D01*
X129051000Y-121206126D01*
X128893431Y-120825720D01*
X128602280Y-120534569D01*
X128221874Y-120377000D01*
X127810126Y-120377000D01*
X127429720Y-120534569D01*
X127138569Y-120825720D01*
X126981000Y-121206126D01*
X125710000Y-121206126D01*
X125710000Y-119904126D01*
X130275000Y-119904126D01*
X130275000Y-120315874D01*
X130432569Y-120696280D01*
X130723720Y-120987431D01*
X131104126Y-121145000D01*
X131515874Y-121145000D01*
X131896280Y-120987431D01*
X132187431Y-120696280D01*
X132345000Y-120315874D01*
X132345000Y-119904126D01*
X132187431Y-119523720D01*
X131896280Y-119232569D01*
X131515874Y-119075000D01*
X131104126Y-119075000D01*
X130723720Y-119232569D01*
X130432569Y-119523720D01*
X130275000Y-119904126D01*
X125710000Y-119904126D01*
X125710000Y-118044126D01*
X127855000Y-118044126D01*
X127855000Y-118455874D01*
X128012569Y-118836280D01*
X128303720Y-119127431D01*
X128684126Y-119285000D01*
X129095874Y-119285000D01*
X129476280Y-119127431D01*
X129767431Y-118836280D01*
X129925000Y-118455874D01*
X129925000Y-118044126D01*
X129767431Y-117663720D01*
X129476280Y-117372569D01*
X129095874Y-117215000D01*
X128684126Y-117215000D01*
X128303720Y-117372569D01*
X128012569Y-117663720D01*
X127855000Y-118044126D01*
X125710000Y-118044126D01*
X125710000Y-115114126D01*
X130785000Y-115114126D01*
X130785000Y-115525874D01*
X130942569Y-115906280D01*
X131233720Y-116197431D01*
X131614126Y-116355000D01*
X132025874Y-116355000D01*
X132406280Y-116197431D01*
X132697431Y-115906280D01*
X132739744Y-115804126D01*
X134080000Y-115804126D01*
X134080000Y-116215874D01*
X134237569Y-116596280D01*
X134528720Y-116887431D01*
X134909126Y-117045000D01*
X135320874Y-117045000D01*
X135701280Y-116887431D01*
X135992431Y-116596280D01*
X136150000Y-116215874D01*
X136150000Y-115804126D01*
X135992431Y-115423720D01*
X135839973Y-115271262D01*
X137575000Y-115271262D01*
X137575000Y-115683010D01*
X137732569Y-116063416D01*
X138023720Y-116354567D01*
X138404126Y-116512136D01*
X138815874Y-116512136D01*
X139196280Y-116354567D01*
X139429758Y-116121089D01*
X139539959Y-116387140D01*
X139831110Y-116678291D01*
X140211516Y-116835860D01*
X140623264Y-116835860D01*
X141003670Y-116678291D01*
X141294821Y-116387140D01*
X141452390Y-116006734D01*
X141452390Y-115594986D01*
X141294821Y-115214580D01*
X141003670Y-114923429D01*
X140623264Y-114765860D01*
X140211516Y-114765860D01*
X139831110Y-114923429D01*
X139597632Y-115156907D01*
X139487431Y-114890856D01*
X139196280Y-114599705D01*
X138815874Y-114442136D01*
X138404126Y-114442136D01*
X138023720Y-114599705D01*
X137732569Y-114890856D01*
X137575000Y-115271262D01*
X135839973Y-115271262D01*
X135701280Y-115132569D01*
X135320874Y-114975000D01*
X134909126Y-114975000D01*
X134528720Y-115132569D01*
X134237569Y-115423720D01*
X134080000Y-115804126D01*
X132739744Y-115804126D01*
X132855000Y-115525874D01*
X132855000Y-115114126D01*
X132697431Y-114733720D01*
X132406280Y-114442569D01*
X132025874Y-114285000D01*
X131614126Y-114285000D01*
X131233720Y-114442569D01*
X130942569Y-114733720D01*
X130785000Y-115114126D01*
X125710000Y-115114126D01*
X125710000Y-112831120D01*
X127460403Y-112831120D01*
X127460403Y-113242868D01*
X127617972Y-113623274D01*
X127909123Y-113914425D01*
X128289529Y-114071994D01*
X128701277Y-114071994D01*
X129081683Y-113914425D01*
X129372834Y-113623274D01*
X129530403Y-113242868D01*
X129530403Y-112831120D01*
X129506081Y-112772402D01*
X129656952Y-112923273D01*
X130037358Y-113080842D01*
X130449106Y-113080842D01*
X130829512Y-112923273D01*
X131120663Y-112632122D01*
X131278232Y-112251716D01*
X131278232Y-111839968D01*
X131120663Y-111459562D01*
X130829512Y-111168411D01*
X130760447Y-111139803D01*
X130760447Y-111042697D01*
X131554221Y-111042697D01*
X131554221Y-111454445D01*
X131678370Y-111754167D01*
X131558265Y-112044126D01*
X131558265Y-112455874D01*
X131715834Y-112836280D01*
X132006985Y-113127431D01*
X132387391Y-113285000D01*
X132799139Y-113285000D01*
X132870777Y-113255327D01*
X132805000Y-113414126D01*
X132805000Y-113825874D01*
X132962569Y-114206280D01*
X133253720Y-114497431D01*
X133634126Y-114655000D01*
X134045874Y-114655000D01*
X134426280Y-114497431D01*
X134717431Y-114206280D01*
X134875000Y-113825874D01*
X134875000Y-113414126D01*
X134717431Y-113033720D01*
X134426280Y-112742569D01*
X134045874Y-112585000D01*
X133634126Y-112585000D01*
X133562488Y-112614673D01*
X133628265Y-112455874D01*
X133628265Y-112044126D01*
X133504116Y-111744404D01*
X133624221Y-111454445D01*
X133624221Y-111042697D01*
X133466652Y-110662291D01*
X133175501Y-110371140D01*
X132795095Y-110213571D01*
X132383347Y-110213571D01*
X132002941Y-110371140D01*
X131711790Y-110662291D01*
X131554221Y-111042697D01*
X130760447Y-111042697D01*
X130760447Y-110982513D01*
X130602878Y-110602107D01*
X130311727Y-110310956D01*
X129931321Y-110153387D01*
X129519573Y-110153387D01*
X129139167Y-110310956D01*
X128848016Y-110602107D01*
X128690447Y-110982513D01*
X128690447Y-111394261D01*
X128848016Y-111774667D01*
X129139167Y-112065818D01*
X129208232Y-112094426D01*
X129208232Y-112251716D01*
X129232554Y-112310434D01*
X129081683Y-112159563D01*
X128701277Y-112001994D01*
X128289529Y-112001994D01*
X127909123Y-112159563D01*
X127617972Y-112450714D01*
X127460403Y-112831120D01*
X125710000Y-112831120D01*
X125710000Y-105962875D01*
X125884126Y-106035000D01*
X126295874Y-106035000D01*
X126527929Y-105938880D01*
X126784126Y-106045000D01*
X127195874Y-106045000D01*
X127457071Y-105936809D01*
X127694126Y-106035000D01*
X128105874Y-106035000D01*
X128486280Y-105877431D01*
X128777431Y-105586280D01*
X128935000Y-105205874D01*
X128935000Y-104815569D01*
X133042813Y-104815569D01*
X133042813Y-105227317D01*
X133200382Y-105607723D01*
X133381675Y-105789016D01*
X133313801Y-105952878D01*
X133313801Y-106364626D01*
X133471370Y-106745032D01*
X133762521Y-107036183D01*
X134142927Y-107193752D01*
X134554675Y-107193752D01*
X134935081Y-107036183D01*
X135226232Y-106745032D01*
X135383801Y-106364626D01*
X135383801Y-105952878D01*
X135226232Y-105572472D01*
X135044939Y-105391179D01*
X135112813Y-105227317D01*
X135112813Y-104815569D01*
X134955244Y-104435163D01*
X134664093Y-104144012D01*
X134283687Y-103986443D01*
X133871939Y-103986443D01*
X133491533Y-104144012D01*
X133200382Y-104435163D01*
X133042813Y-104815569D01*
X128935000Y-104815569D01*
X128935000Y-104794126D01*
X128777431Y-104413720D01*
X128486280Y-104122569D01*
X128140372Y-103979289D01*
X128386280Y-103877431D01*
X128677431Y-103586280D01*
X128835000Y-103205874D01*
X128835000Y-102794126D01*
X128677431Y-102413720D01*
X128386280Y-102122569D01*
X128005874Y-101965000D01*
X127594126Y-101965000D01*
X127213720Y-102122569D01*
X126922569Y-102413720D01*
X126765000Y-102794126D01*
X126765000Y-103205874D01*
X126922569Y-103586280D01*
X127213720Y-103877431D01*
X127559628Y-104020711D01*
X127432929Y-104073191D01*
X127195874Y-103975000D01*
X126784126Y-103975000D01*
X126552071Y-104071120D01*
X126295874Y-103965000D01*
X125884126Y-103965000D01*
X125710000Y-104037125D01*
X125710000Y-100994126D01*
X127865010Y-100994126D01*
X127865010Y-101405874D01*
X128022579Y-101786280D01*
X128313730Y-102077431D01*
X128694136Y-102235000D01*
X129105884Y-102235000D01*
X129486290Y-102077431D01*
X129777441Y-101786280D01*
X129881958Y-101533953D01*
X133215022Y-101533953D01*
X133215022Y-101945701D01*
X133372591Y-102326107D01*
X133663742Y-102617258D01*
X134044148Y-102774827D01*
X134455896Y-102774827D01*
X134836302Y-102617258D01*
X135127453Y-102326107D01*
X135285022Y-101945701D01*
X135285022Y-101769136D01*
X137554855Y-101769136D01*
X137554855Y-102180884D01*
X137712424Y-102561290D01*
X138003575Y-102852441D01*
X138383981Y-103010010D01*
X138795729Y-103010010D01*
X139176135Y-102852441D01*
X139467286Y-102561290D01*
X139624855Y-102180884D01*
X139624855Y-101769136D01*
X139467286Y-101388730D01*
X139176135Y-101097579D01*
X138795729Y-100940010D01*
X138383981Y-100940010D01*
X138003575Y-101097579D01*
X137712424Y-101388730D01*
X137554855Y-101769136D01*
X135285022Y-101769136D01*
X135285022Y-101533953D01*
X135127453Y-101153547D01*
X134836302Y-100862396D01*
X134455896Y-100704827D01*
X134044148Y-100704827D01*
X133663742Y-100862396D01*
X133372591Y-101153547D01*
X133215022Y-101533953D01*
X129881958Y-101533953D01*
X129935010Y-101405874D01*
X129935010Y-100994126D01*
X129777441Y-100613720D01*
X129486290Y-100322569D01*
X129105884Y-100165000D01*
X128694136Y-100165000D01*
X128313730Y-100322569D01*
X128022579Y-100613720D01*
X127865010Y-100994126D01*
X125710000Y-100994126D01*
X125710000Y-92627000D01*
X129309289Y-92627000D01*
X129222569Y-92713720D01*
G04 #@! TO.N,+5V*
G36*
X135496753Y-77192612D02*
X135303720Y-77272569D01*
X135012569Y-77563720D01*
X134855000Y-77944126D01*
X134855000Y-78355874D01*
X135012569Y-78736280D01*
X135303720Y-79027431D01*
X135684126Y-79185000D01*
X136095874Y-79185000D01*
X136476280Y-79027431D01*
X136767431Y-78736280D01*
X136925000Y-78355874D01*
X136925000Y-77944126D01*
X136767431Y-77563720D01*
X136476280Y-77272569D01*
X136286078Y-77193785D01*
X143773071Y-77204910D01*
X143754906Y-91373000D01*
X125710000Y-91373000D01*
X125710000Y-85494126D01*
X127965000Y-85494126D01*
X127965000Y-85905874D01*
X128122569Y-86286280D01*
X128413720Y-86577431D01*
X128794126Y-86735000D01*
X129205874Y-86735000D01*
X129586280Y-86577431D01*
X129877431Y-86286280D01*
X130035000Y-85905874D01*
X130035000Y-85494126D01*
X129877431Y-85113720D01*
X129586280Y-84822569D01*
X129205874Y-84665000D01*
X128794126Y-84665000D01*
X128413720Y-84822569D01*
X128122569Y-85113720D01*
X127965000Y-85494126D01*
X125710000Y-85494126D01*
X125710000Y-83089128D01*
X126265000Y-83089128D01*
X126265000Y-83500876D01*
X126422569Y-83881282D01*
X126713720Y-84172433D01*
X127094126Y-84330002D01*
X127505874Y-84330002D01*
X127886280Y-84172433D01*
X128069661Y-83989052D01*
X128367001Y-84112214D01*
X128778749Y-84112214D01*
X129159155Y-83954645D01*
X129450306Y-83663494D01*
X129607875Y-83283088D01*
X129607875Y-82871340D01*
X129450306Y-82490934D01*
X129276542Y-82317170D01*
X129507431Y-82086280D01*
X129665000Y-81705874D01*
X129665000Y-81294126D01*
X130065000Y-81294126D01*
X130065000Y-81705874D01*
X130222569Y-82086280D01*
X130486289Y-82350000D01*
X130392569Y-82443720D01*
X130235000Y-82824126D01*
X130235000Y-83235874D01*
X130392569Y-83616280D01*
X130683720Y-83907431D01*
X131064126Y-84065000D01*
X131475874Y-84065000D01*
X131856280Y-83907431D01*
X132147431Y-83616280D01*
X132305000Y-83235874D01*
X132305000Y-82824126D01*
X132147431Y-82443720D01*
X131883711Y-82180000D01*
X131977431Y-82086280D01*
X132135000Y-81705874D01*
X132135000Y-81294126D01*
X131977431Y-80913720D01*
X131686280Y-80622569D01*
X131674101Y-80617524D01*
X131727688Y-80595328D01*
X132018839Y-80304177D01*
X132176408Y-79923771D01*
X132176408Y-79512023D01*
X132018839Y-79131617D01*
X131727688Y-78840466D01*
X131347282Y-78682897D01*
X130935534Y-78682897D01*
X130555128Y-78840466D01*
X130263977Y-79131617D01*
X130106408Y-79512023D01*
X130106408Y-79923771D01*
X130263977Y-80304177D01*
X130555128Y-80595328D01*
X130567307Y-80600373D01*
X130513720Y-80622569D01*
X130222569Y-80913720D01*
X130065000Y-81294126D01*
X129665000Y-81294126D01*
X129507431Y-80913720D01*
X129247123Y-80653412D01*
X129286290Y-80637189D01*
X129577441Y-80346038D01*
X129735010Y-79965632D01*
X129735010Y-79553884D01*
X129577441Y-79173478D01*
X129286290Y-78882327D01*
X128905884Y-78724758D01*
X128494136Y-78724758D01*
X128140112Y-78871399D01*
X127936280Y-78667567D01*
X127555874Y-78509998D01*
X127144126Y-78509998D01*
X126763720Y-78667567D01*
X126472569Y-78958718D01*
X126315000Y-79339124D01*
X126315000Y-79750872D01*
X126472569Y-80131278D01*
X126763720Y-80422429D01*
X127144126Y-80579998D01*
X127555874Y-80579998D01*
X127909898Y-80433357D01*
X128082887Y-80606346D01*
X128043720Y-80622569D01*
X127752569Y-80913720D01*
X127595000Y-81294126D01*
X127595000Y-81705874D01*
X127752569Y-82086280D01*
X127926334Y-82260045D01*
X127803214Y-82383164D01*
X127505874Y-82260002D01*
X127094126Y-82260002D01*
X126713720Y-82417571D01*
X126422569Y-82708722D01*
X126265000Y-83089128D01*
X125710000Y-83089128D01*
X125710000Y-82230955D01*
X125881176Y-82301858D01*
X126292924Y-82301858D01*
X126673330Y-82144289D01*
X126964481Y-81853138D01*
X127122050Y-81472732D01*
X127122050Y-81060984D01*
X126964481Y-80680578D01*
X126673330Y-80389427D01*
X126292924Y-80231858D01*
X125881176Y-80231858D01*
X125710000Y-80302761D01*
X125710000Y-77178070D01*
X135496753Y-77192612D01*
X135496753Y-77192612D01*
G37*
X135496753Y-77192612D02*
X135303720Y-77272569D01*
X135012569Y-77563720D01*
X134855000Y-77944126D01*
X134855000Y-78355874D01*
X135012569Y-78736280D01*
X135303720Y-79027431D01*
X135684126Y-79185000D01*
X136095874Y-79185000D01*
X136476280Y-79027431D01*
X136767431Y-78736280D01*
X136925000Y-78355874D01*
X136925000Y-77944126D01*
X136767431Y-77563720D01*
X136476280Y-77272569D01*
X136286078Y-77193785D01*
X143773071Y-77204910D01*
X143754906Y-91373000D01*
X125710000Y-91373000D01*
X125710000Y-85494126D01*
X127965000Y-85494126D01*
X127965000Y-85905874D01*
X128122569Y-86286280D01*
X128413720Y-86577431D01*
X128794126Y-86735000D01*
X129205874Y-86735000D01*
X129586280Y-86577431D01*
X129877431Y-86286280D01*
X130035000Y-85905874D01*
X130035000Y-85494126D01*
X129877431Y-85113720D01*
X129586280Y-84822569D01*
X129205874Y-84665000D01*
X128794126Y-84665000D01*
X128413720Y-84822569D01*
X128122569Y-85113720D01*
X127965000Y-85494126D01*
X125710000Y-85494126D01*
X125710000Y-83089128D01*
X126265000Y-83089128D01*
X126265000Y-83500876D01*
X126422569Y-83881282D01*
X126713720Y-84172433D01*
X127094126Y-84330002D01*
X127505874Y-84330002D01*
X127886280Y-84172433D01*
X128069661Y-83989052D01*
X128367001Y-84112214D01*
X128778749Y-84112214D01*
X129159155Y-83954645D01*
X129450306Y-83663494D01*
X129607875Y-83283088D01*
X129607875Y-82871340D01*
X129450306Y-82490934D01*
X129276542Y-82317170D01*
X129507431Y-82086280D01*
X129665000Y-81705874D01*
X129665000Y-81294126D01*
X130065000Y-81294126D01*
X130065000Y-81705874D01*
X130222569Y-82086280D01*
X130486289Y-82350000D01*
X130392569Y-82443720D01*
X130235000Y-82824126D01*
X130235000Y-83235874D01*
X130392569Y-83616280D01*
X130683720Y-83907431D01*
X131064126Y-84065000D01*
X131475874Y-84065000D01*
X131856280Y-83907431D01*
X132147431Y-83616280D01*
X132305000Y-83235874D01*
X132305000Y-82824126D01*
X132147431Y-82443720D01*
X131883711Y-82180000D01*
X131977431Y-82086280D01*
X132135000Y-81705874D01*
X132135000Y-81294126D01*
X131977431Y-80913720D01*
X131686280Y-80622569D01*
X131674101Y-80617524D01*
X131727688Y-80595328D01*
X132018839Y-80304177D01*
X132176408Y-79923771D01*
X132176408Y-79512023D01*
X132018839Y-79131617D01*
X131727688Y-78840466D01*
X131347282Y-78682897D01*
X130935534Y-78682897D01*
X130555128Y-78840466D01*
X130263977Y-79131617D01*
X130106408Y-79512023D01*
X130106408Y-79923771D01*
X130263977Y-80304177D01*
X130555128Y-80595328D01*
X130567307Y-80600373D01*
X130513720Y-80622569D01*
X130222569Y-80913720D01*
X130065000Y-81294126D01*
X129665000Y-81294126D01*
X129507431Y-80913720D01*
X129247123Y-80653412D01*
X129286290Y-80637189D01*
X129577441Y-80346038D01*
X129735010Y-79965632D01*
X129735010Y-79553884D01*
X129577441Y-79173478D01*
X129286290Y-78882327D01*
X128905884Y-78724758D01*
X128494136Y-78724758D01*
X128140112Y-78871399D01*
X127936280Y-78667567D01*
X127555874Y-78509998D01*
X127144126Y-78509998D01*
X126763720Y-78667567D01*
X126472569Y-78958718D01*
X126315000Y-79339124D01*
X126315000Y-79750872D01*
X126472569Y-80131278D01*
X126763720Y-80422429D01*
X127144126Y-80579998D01*
X127555874Y-80579998D01*
X127909898Y-80433357D01*
X128082887Y-80606346D01*
X128043720Y-80622569D01*
X127752569Y-80913720D01*
X127595000Y-81294126D01*
X127595000Y-81705874D01*
X127752569Y-82086280D01*
X127926334Y-82260045D01*
X127803214Y-82383164D01*
X127505874Y-82260002D01*
X127094126Y-82260002D01*
X126713720Y-82417571D01*
X126422569Y-82708722D01*
X126265000Y-83089128D01*
X125710000Y-83089128D01*
X125710000Y-82230955D01*
X125881176Y-82301858D01*
X126292924Y-82301858D01*
X126673330Y-82144289D01*
X126964481Y-81853138D01*
X127122050Y-81472732D01*
X127122050Y-81060984D01*
X126964481Y-80680578D01*
X126673330Y-80389427D01*
X126292924Y-80231858D01*
X125881176Y-80231858D01*
X125710000Y-80302761D01*
X125710000Y-77178070D01*
X135496753Y-77192612D01*
G04 #@! TD*
M02*
