%FSLAX45Y45*%
G04 Gerber Fmt 4.5, Leading zero omitted, Abs format (unit mm)*
G04 Created by KiCad (PCBNEW (6.0.6)) date 2022-09-05 13:44:15*
%MOMM*%
%LPD*%
G01*
G04 APERTURE LIST*
%TA.AperFunction,Profile*%
%ADD10C,0.150000*%
%TD*%
%TA.AperFunction,Profile*%
%ADD11C,0.100000*%
%TD*%
%ADD12C,0.200000*%
%ADD13C,0.320000*%
G04 APERTURE END LIST*
D10*
X14420000Y-3245000D02*
X14420000Y-15400000D01*
X12420000Y-15400000D02*
X12420000Y-3245000D01*
D11*
X12420000Y-15400000D02*
X14420000Y-15400000D01*
D10*
X12420000Y-3245000D02*
X14420000Y-3245000D01*
D12*
D13*
X12630000Y-4540000D02*
X12950000Y-4860000D01*
X12950000Y-4540000D02*
X12630000Y-4860000D01*
X14040000Y-14980000D02*
X14360000Y-15300000D01*
X14360000Y-14980000D02*
X14040000Y-15300000D01*
D12*
X12670119Y-15717976D02*
X12670119Y-15517976D01*
X12717738Y-15517976D01*
X12746309Y-15527500D01*
X12765357Y-15546548D01*
X12774881Y-15565595D01*
X12784405Y-15603690D01*
X12784405Y-15632262D01*
X12774881Y-15670357D01*
X12765357Y-15689405D01*
X12746309Y-15708452D01*
X12717738Y-15717976D01*
X12670119Y-15717976D01*
X12870119Y-15717976D02*
X12870119Y-15584643D01*
X12870119Y-15622738D02*
X12879643Y-15603690D01*
X12889167Y-15594167D01*
X12908214Y-15584643D01*
X12927262Y-15584643D01*
X12993928Y-15717976D02*
X12993928Y-15584643D01*
X12993928Y-15517976D02*
X12984405Y-15527500D01*
X12993928Y-15537024D01*
X13003452Y-15527500D01*
X12993928Y-15517976D01*
X12993928Y-15537024D01*
X13117738Y-15717976D02*
X13098690Y-15708452D01*
X13089167Y-15689405D01*
X13089167Y-15517976D01*
X13222500Y-15717976D02*
X13203452Y-15708452D01*
X13193928Y-15689405D01*
X13193928Y-15517976D01*
X13451071Y-15717976D02*
X13451071Y-15517976D01*
X13517738Y-15660833D01*
X13584405Y-15517976D01*
X13584405Y-15717976D01*
X13765357Y-15717976D02*
X13765357Y-15613214D01*
X13755833Y-15594167D01*
X13736786Y-15584643D01*
X13698690Y-15584643D01*
X13679643Y-15594167D01*
X13765357Y-15708452D02*
X13746309Y-15717976D01*
X13698690Y-15717976D01*
X13679643Y-15708452D01*
X13670119Y-15689405D01*
X13670119Y-15670357D01*
X13679643Y-15651309D01*
X13698690Y-15641786D01*
X13746309Y-15641786D01*
X13765357Y-15632262D01*
X13860595Y-15584643D02*
X13860595Y-15784643D01*
X13860595Y-15594167D02*
X13879643Y-15584643D01*
X13917738Y-15584643D01*
X13936786Y-15594167D01*
X13946309Y-15603690D01*
X13955833Y-15622738D01*
X13955833Y-15679881D01*
X13946309Y-15698928D01*
X13936786Y-15708452D01*
X13917738Y-15717976D01*
X13879643Y-15717976D01*
X13860595Y-15708452D01*
X14041548Y-15698928D02*
X14051071Y-15708452D01*
X14041548Y-15717976D01*
X14032024Y-15708452D01*
X14041548Y-15698928D01*
X14041548Y-15717976D01*
X14041548Y-15594167D02*
X14051071Y-15603690D01*
X14041548Y-15613214D01*
X14032024Y-15603690D01*
X14041548Y-15594167D01*
X14041548Y-15613214D01*
X12212500Y-15947500D02*
X12412500Y-16147500D01*
X12412500Y-15947500D02*
X12212500Y-16147500D01*
X12651071Y-15937976D02*
X12774881Y-15937976D01*
X12708214Y-16014167D01*
X12736786Y-16014167D01*
X12755833Y-16023690D01*
X12765357Y-16033214D01*
X12774881Y-16052262D01*
X12774881Y-16099881D01*
X12765357Y-16118928D01*
X12755833Y-16128452D01*
X12736786Y-16137976D01*
X12679643Y-16137976D01*
X12660595Y-16128452D01*
X12651071Y-16118928D01*
X12860595Y-16118928D02*
X12870119Y-16128452D01*
X12860595Y-16137976D01*
X12851071Y-16128452D01*
X12860595Y-16118928D01*
X12860595Y-16137976D01*
X12946309Y-15957024D02*
X12955833Y-15947500D01*
X12974881Y-15937976D01*
X13022500Y-15937976D01*
X13041548Y-15947500D01*
X13051071Y-15957024D01*
X13060595Y-15976071D01*
X13060595Y-15995119D01*
X13051071Y-16023690D01*
X12936786Y-16137976D01*
X13060595Y-16137976D01*
X13184405Y-15937976D02*
X13203452Y-15937976D01*
X13222500Y-15947500D01*
X13232024Y-15957024D01*
X13241548Y-15976071D01*
X13251071Y-16014167D01*
X13251071Y-16061786D01*
X13241548Y-16099881D01*
X13232024Y-16118928D01*
X13222500Y-16128452D01*
X13203452Y-16137976D01*
X13184405Y-16137976D01*
X13165357Y-16128452D01*
X13155833Y-16118928D01*
X13146309Y-16099881D01*
X13136786Y-16061786D01*
X13136786Y-16014167D01*
X13146309Y-15976071D01*
X13155833Y-15957024D01*
X13165357Y-15947500D01*
X13184405Y-15937976D01*
X13374881Y-15937976D02*
X13393928Y-15937976D01*
X13412976Y-15947500D01*
X13422500Y-15957024D01*
X13432024Y-15976071D01*
X13441548Y-16014167D01*
X13441548Y-16061786D01*
X13432024Y-16099881D01*
X13422500Y-16118928D01*
X13412976Y-16128452D01*
X13393928Y-16137976D01*
X13374881Y-16137976D01*
X13355833Y-16128452D01*
X13346309Y-16118928D01*
X13336786Y-16099881D01*
X13327262Y-16061786D01*
X13327262Y-16014167D01*
X13336786Y-15976071D01*
X13346309Y-15957024D01*
X13355833Y-15947500D01*
X13374881Y-15937976D01*
X13527262Y-16137976D02*
X13527262Y-16004643D01*
X13527262Y-16023690D02*
X13536786Y-16014167D01*
X13555833Y-16004643D01*
X13584405Y-16004643D01*
X13603452Y-16014167D01*
X13612976Y-16033214D01*
X13612976Y-16137976D01*
X13612976Y-16033214D02*
X13622500Y-16014167D01*
X13641548Y-16004643D01*
X13670119Y-16004643D01*
X13689167Y-16014167D01*
X13698690Y-16033214D01*
X13698690Y-16137976D01*
X13793928Y-16137976D02*
X13793928Y-16004643D01*
X13793928Y-16023690D02*
X13803452Y-16014167D01*
X13822500Y-16004643D01*
X13851071Y-16004643D01*
X13870119Y-16014167D01*
X13879643Y-16033214D01*
X13879643Y-16137976D01*
X13879643Y-16033214D02*
X13889167Y-16014167D01*
X13908214Y-16004643D01*
X13936786Y-16004643D01*
X13955833Y-16014167D01*
X13965357Y-16033214D01*
X13965357Y-16137976D01*
X14355833Y-15928452D02*
X14184405Y-16185595D01*
X14612976Y-15937976D02*
X14632024Y-15937976D01*
X14651071Y-15947500D01*
X14660595Y-15957024D01*
X14670119Y-15976071D01*
X14679643Y-16014167D01*
X14679643Y-16061786D01*
X14670119Y-16099881D01*
X14660595Y-16118928D01*
X14651071Y-16128452D01*
X14632024Y-16137976D01*
X14612976Y-16137976D01*
X14593928Y-16128452D01*
X14584405Y-16118928D01*
X14574881Y-16099881D01*
X14565357Y-16061786D01*
X14565357Y-16014167D01*
X14574881Y-15976071D01*
X14584405Y-15957024D01*
X14593928Y-15947500D01*
X14612976Y-15937976D01*
X14765357Y-16118928D02*
X14774881Y-16128452D01*
X14765357Y-16137976D01*
X14755833Y-16128452D01*
X14765357Y-16118928D01*
X14765357Y-16137976D01*
X14965357Y-16137976D02*
X14851071Y-16137976D01*
X14908214Y-16137976D02*
X14908214Y-15937976D01*
X14889167Y-15966548D01*
X14870119Y-15985595D01*
X14851071Y-15995119D01*
X15041548Y-15957024D02*
X15051071Y-15947500D01*
X15070119Y-15937976D01*
X15117738Y-15937976D01*
X15136786Y-15947500D01*
X15146309Y-15957024D01*
X15155833Y-15976071D01*
X15155833Y-15995119D01*
X15146309Y-16023690D01*
X15032024Y-16137976D01*
X15155833Y-16137976D01*
X15327262Y-15937976D02*
X15289167Y-15937976D01*
X15270119Y-15947500D01*
X15260595Y-15957024D01*
X15241548Y-15985595D01*
X15232024Y-16023690D01*
X15232024Y-16099881D01*
X15241548Y-16118928D01*
X15251071Y-16128452D01*
X15270119Y-16137976D01*
X15308214Y-16137976D01*
X15327262Y-16128452D01*
X15336786Y-16118928D01*
X15346309Y-16099881D01*
X15346309Y-16052262D01*
X15336786Y-16033214D01*
X15327262Y-16023690D01*
X15308214Y-16014167D01*
X15270119Y-16014167D01*
X15251071Y-16023690D01*
X15241548Y-16033214D01*
X15232024Y-16052262D01*
X15470119Y-15937976D02*
X15489167Y-15937976D01*
X15508214Y-15947500D01*
X15517738Y-15957024D01*
X15527262Y-15976071D01*
X15536786Y-16014167D01*
X15536786Y-16061786D01*
X15527262Y-16099881D01*
X15517738Y-16118928D01*
X15508214Y-16128452D01*
X15489167Y-16137976D01*
X15470119Y-16137976D01*
X15451071Y-16128452D01*
X15441548Y-16118928D01*
X15432024Y-16099881D01*
X15422500Y-16061786D01*
X15422500Y-16014167D01*
X15432024Y-15976071D01*
X15441548Y-15957024D01*
X15451071Y-15947500D01*
X15470119Y-15937976D01*
X15612976Y-15937976D02*
X15612976Y-15976071D01*
X15689167Y-15937976D02*
X15689167Y-15976071D01*
X15984405Y-16214167D02*
X15974881Y-16204643D01*
X15955833Y-16176071D01*
X15946309Y-16157024D01*
X15936786Y-16128452D01*
X15927262Y-16080833D01*
X15927262Y-16042738D01*
X15936786Y-15995119D01*
X15946309Y-15966548D01*
X15955833Y-15947500D01*
X15974881Y-15918928D01*
X15984405Y-15909405D01*
X16051071Y-15957024D02*
X16060595Y-15947500D01*
X16079643Y-15937976D01*
X16127262Y-15937976D01*
X16146309Y-15947500D01*
X16155833Y-15957024D01*
X16165357Y-15976071D01*
X16165357Y-15995119D01*
X16155833Y-16023690D01*
X16041548Y-16137976D01*
X16165357Y-16137976D01*
X16403452Y-16137976D02*
X16403452Y-15937976D01*
X16489167Y-16137976D02*
X16489167Y-16033214D01*
X16479643Y-16014167D01*
X16460595Y-16004643D01*
X16432024Y-16004643D01*
X16412976Y-16014167D01*
X16403452Y-16023690D01*
X16612976Y-16137976D02*
X16593928Y-16128452D01*
X16584405Y-16118928D01*
X16574881Y-16099881D01*
X16574881Y-16042738D01*
X16584405Y-16023690D01*
X16593928Y-16014167D01*
X16612976Y-16004643D01*
X16641548Y-16004643D01*
X16660595Y-16014167D01*
X16670119Y-16023690D01*
X16679643Y-16042738D01*
X16679643Y-16099881D01*
X16670119Y-16118928D01*
X16660595Y-16128452D01*
X16641548Y-16137976D01*
X16612976Y-16137976D01*
X16793929Y-16137976D02*
X16774881Y-16128452D01*
X16765357Y-16109405D01*
X16765357Y-15937976D01*
X16946310Y-16128452D02*
X16927262Y-16137976D01*
X16889167Y-16137976D01*
X16870119Y-16128452D01*
X16860595Y-16109405D01*
X16860595Y-16033214D01*
X16870119Y-16014167D01*
X16889167Y-16004643D01*
X16927262Y-16004643D01*
X16946310Y-16014167D01*
X16955833Y-16033214D01*
X16955833Y-16052262D01*
X16860595Y-16071309D01*
X17032024Y-16128452D02*
X17051071Y-16137976D01*
X17089167Y-16137976D01*
X17108214Y-16128452D01*
X17117738Y-16109405D01*
X17117738Y-16099881D01*
X17108214Y-16080833D01*
X17089167Y-16071309D01*
X17060595Y-16071309D01*
X17041548Y-16061786D01*
X17032024Y-16042738D01*
X17032024Y-16033214D01*
X17041548Y-16014167D01*
X17060595Y-16004643D01*
X17089167Y-16004643D01*
X17108214Y-16014167D01*
X17184405Y-16214167D02*
X17193929Y-16204643D01*
X17212976Y-16176071D01*
X17222500Y-16157024D01*
X17232024Y-16128452D01*
X17241548Y-16080833D01*
X17241548Y-16042738D01*
X17232024Y-15995119D01*
X17222500Y-15966548D01*
X17212976Y-15947500D01*
X17193929Y-15918928D01*
X17184405Y-15909405D01*
X17546310Y-16214167D02*
X17536786Y-16204643D01*
X17517738Y-16176071D01*
X17508214Y-16157024D01*
X17498690Y-16128452D01*
X17489167Y-16080833D01*
X17489167Y-16042738D01*
X17498690Y-15995119D01*
X17508214Y-15966548D01*
X17517738Y-15947500D01*
X17536786Y-15918928D01*
X17546310Y-15909405D01*
X17622500Y-16004643D02*
X17622500Y-16137976D01*
X17622500Y-16023690D02*
X17632024Y-16014167D01*
X17651071Y-16004643D01*
X17679643Y-16004643D01*
X17698690Y-16014167D01*
X17708214Y-16033214D01*
X17708214Y-16137976D01*
X17832024Y-16137976D02*
X17812976Y-16128452D01*
X17803452Y-16118928D01*
X17793929Y-16099881D01*
X17793929Y-16042738D01*
X17803452Y-16023690D01*
X17812976Y-16014167D01*
X17832024Y-16004643D01*
X17860595Y-16004643D01*
X17879643Y-16014167D01*
X17889167Y-16023690D01*
X17898690Y-16042738D01*
X17898690Y-16099881D01*
X17889167Y-16118928D01*
X17879643Y-16128452D01*
X17860595Y-16137976D01*
X17832024Y-16137976D01*
X17955833Y-16004643D02*
X18032024Y-16004643D01*
X17984405Y-15937976D02*
X17984405Y-16109405D01*
X17993929Y-16128452D01*
X18012976Y-16137976D01*
X18032024Y-16137976D01*
X18251071Y-16004643D02*
X18251071Y-16204643D01*
X18251071Y-16014167D02*
X18270119Y-16004643D01*
X18308214Y-16004643D01*
X18327262Y-16014167D01*
X18336786Y-16023690D01*
X18346310Y-16042738D01*
X18346310Y-16099881D01*
X18336786Y-16118928D01*
X18327262Y-16128452D01*
X18308214Y-16137976D01*
X18270119Y-16137976D01*
X18251071Y-16128452D01*
X18460595Y-16137976D02*
X18441548Y-16128452D01*
X18432024Y-16109405D01*
X18432024Y-15937976D01*
X18622500Y-16137976D02*
X18622500Y-16033214D01*
X18612976Y-16014167D01*
X18593929Y-16004643D01*
X18555833Y-16004643D01*
X18536786Y-16014167D01*
X18622500Y-16128452D02*
X18603452Y-16137976D01*
X18555833Y-16137976D01*
X18536786Y-16128452D01*
X18527262Y-16109405D01*
X18527262Y-16090357D01*
X18536786Y-16071309D01*
X18555833Y-16061786D01*
X18603452Y-16061786D01*
X18622500Y-16052262D01*
X18689167Y-16004643D02*
X18765357Y-16004643D01*
X18717738Y-15937976D02*
X18717738Y-16109405D01*
X18727262Y-16128452D01*
X18746310Y-16137976D01*
X18765357Y-16137976D01*
X18908214Y-16128452D02*
X18889167Y-16137976D01*
X18851071Y-16137976D01*
X18832024Y-16128452D01*
X18822500Y-16109405D01*
X18822500Y-16033214D01*
X18832024Y-16014167D01*
X18851071Y-16004643D01*
X18889167Y-16004643D01*
X18908214Y-16014167D01*
X18917738Y-16033214D01*
X18917738Y-16052262D01*
X18822500Y-16071309D01*
X19089167Y-16137976D02*
X19089167Y-15937976D01*
X19089167Y-16128452D02*
X19070119Y-16137976D01*
X19032024Y-16137976D01*
X19012976Y-16128452D01*
X19003452Y-16118928D01*
X18993929Y-16099881D01*
X18993929Y-16042738D01*
X19003452Y-16023690D01*
X19012976Y-16014167D01*
X19032024Y-16004643D01*
X19070119Y-16004643D01*
X19089167Y-16014167D01*
X19165357Y-16214167D02*
X19174881Y-16204643D01*
X19193929Y-16176071D01*
X19203452Y-16157024D01*
X19212976Y-16128452D01*
X19222500Y-16080833D01*
X19222500Y-16042738D01*
X19212976Y-15995119D01*
X19203452Y-15966548D01*
X19193929Y-15947500D01*
X19174881Y-15918928D01*
X19165357Y-15909405D01*
M02*
