G04 #@! TF.GenerationSoftware,KiCad,Pcbnew,(6.0.6)*
G04 #@! TF.CreationDate,2022-09-05T13:44:10+02:00*
G04 #@! TF.ProjectId,PAINTREv4,5041494e-5452-4457-9634-2e6b69636164,rev?*
G04 #@! TF.SameCoordinates,Original*
G04 #@! TF.FileFunction,Legend,Top*
G04 #@! TF.FilePolarity,Positive*
%FSLAX46Y46*%
G04 Gerber Fmt 4.6, Leading zero omitted, Abs format (unit mm)*
G04 Created by KiCad (PCBNEW (6.0.6)) date 2022-09-05 13:44:10*
%MOMM*%
%LPD*%
G01*
G04 APERTURE LIST*
G04 Aperture macros list*
%AMRoundRect*
0 Rectangle with rounded corners*
0 $1 Rounding radius*
0 $2 $3 $4 $5 $6 $7 $8 $9 X,Y pos of 4 corners*
0 Add a 4 corners polygon primitive as box body*
4,1,4,$2,$3,$4,$5,$6,$7,$8,$9,$2,$3,0*
0 Add four circle primitives for the rounded corners*
1,1,$1+$1,$2,$3*
1,1,$1+$1,$4,$5*
1,1,$1+$1,$6,$7*
1,1,$1+$1,$8,$9*
0 Add four rect primitives between the rounded corners*
20,1,$1+$1,$2,$3,$4,$5,0*
20,1,$1+$1,$4,$5,$6,$7,0*
20,1,$1+$1,$6,$7,$8,$9,0*
20,1,$1+$1,$8,$9,$2,$3,0*%
G04 Aperture macros list end*
%ADD10C,0.150000*%
%ADD11C,0.300000*%
%ADD12C,0.125000*%
%ADD13C,0.120000*%
%ADD14C,0.127000*%
%ADD15C,0.200000*%
%ADD16R,1.600000X1.800000*%
%ADD17R,1.600000X2.000000*%
%ADD18RoundRect,0.218750X-0.218750X-0.256250X0.218750X-0.256250X0.218750X0.256250X-0.218750X0.256250X0*%
%ADD19C,3.200000*%
%ADD20R,1.350000X1.350000*%
%ADD21O,1.350000X1.350000*%
%ADD22R,1.800000X1.200000*%
%ADD23R,1.550000X0.600000*%
%ADD24RoundRect,0.218750X0.218750X0.256250X-0.218750X0.256250X-0.218750X-0.256250X0.218750X-0.256250X0*%
%ADD25RoundRect,0.225000X0.225000X0.250000X-0.225000X0.250000X-0.225000X-0.250000X0.225000X-0.250000X0*%
%ADD26RoundRect,0.225000X-0.250000X0.225000X-0.250000X-0.225000X0.250000X-0.225000X0.250000X0.225000X0*%
%ADD27RoundRect,0.250000X0.400000X1.075000X-0.400000X1.075000X-0.400000X-1.075000X0.400000X-1.075000X0*%
%ADD28RoundRect,0.225000X-0.225000X-0.250000X0.225000X-0.250000X0.225000X0.250000X-0.225000X0.250000X0*%
%ADD29RoundRect,0.150000X0.825000X0.150000X-0.825000X0.150000X-0.825000X-0.150000X0.825000X-0.150000X0*%
%ADD30R,1.700000X1.700000*%
%ADD31O,1.700000X1.700000*%
%ADD32RoundRect,0.218750X-0.256250X0.218750X-0.256250X-0.218750X0.256250X-0.218750X0.256250X0.218750X0*%
%ADD33R,1.600000X1.600000*%
%ADD34O,1.600000X1.600000*%
%ADD35R,0.330000X0.710000*%
%ADD36R,0.310000X0.660000*%
%ADD37RoundRect,0.225000X0.250000X-0.225000X0.250000X0.225000X-0.250000X0.225000X-0.250000X-0.225000X0*%
%ADD38R,1.200000X3.000000*%
%ADD39R,2.000000X2.000000*%
G04 APERTURE END LIST*
D10*
X126116517Y-152404761D02*
X126015327Y-152452380D01*
X125824851Y-152452380D01*
X125735565Y-152404761D01*
X125693898Y-152357142D01*
X125658184Y-152261904D01*
X125693898Y-151976190D01*
X125753422Y-151880952D01*
X125806994Y-151833333D01*
X125908184Y-151785714D01*
X126098660Y-151785714D01*
X126187946Y-151833333D01*
X126681994Y-152452380D02*
X126592708Y-152404761D01*
X126556994Y-152309523D01*
X126664136Y-151452380D01*
X127491517Y-152452380D02*
X127556994Y-151928571D01*
X127521279Y-151833333D01*
X127431994Y-151785714D01*
X127241517Y-151785714D01*
X127140327Y-151833333D01*
X127497470Y-152404761D02*
X127396279Y-152452380D01*
X127158184Y-152452380D01*
X127068898Y-152404761D01*
X127033184Y-152309523D01*
X127045089Y-152214285D01*
X127104613Y-152119047D01*
X127205803Y-152071428D01*
X127443898Y-152071428D01*
X127545089Y-152023809D01*
X128051041Y-151785714D02*
X127967708Y-152452380D01*
X128039136Y-151880952D02*
X128092708Y-151833333D01*
X128193898Y-151785714D01*
X128336755Y-151785714D01*
X128426041Y-151833333D01*
X128461755Y-151928571D01*
X128396279Y-152452380D01*
X129551041Y-151976190D02*
X129509375Y-151928571D01*
X129420089Y-151880952D01*
X129324851Y-151880952D01*
X129223660Y-151928571D01*
X129170089Y-151976190D01*
X129110565Y-152071428D01*
X129098660Y-152166666D01*
X129134375Y-152261904D01*
X129176041Y-152309523D01*
X129265327Y-152357142D01*
X129360565Y-152357142D01*
X129461755Y-152309523D01*
X129515327Y-152261904D01*
X129562946Y-151880952D02*
X129515327Y-152261904D01*
X129556994Y-152309523D01*
X129604613Y-152309523D01*
X129705803Y-152261904D01*
X129765327Y-152166666D01*
X129795089Y-151928571D01*
X129717708Y-151785714D01*
X129586755Y-151690476D01*
X129402232Y-151642857D01*
X129205803Y-151690476D01*
X129051041Y-151785714D01*
X128937946Y-151928571D01*
X128866517Y-152119047D01*
X128890327Y-152309523D01*
X128967708Y-152452380D01*
X129098660Y-152547619D01*
X129283184Y-152595238D01*
X129479613Y-152547619D01*
X129634375Y-152452380D01*
X130670089Y-151785714D02*
X130568898Y-152595238D01*
X130509375Y-152690476D01*
X130455803Y-152738095D01*
X130354613Y-152785714D01*
X130211755Y-152785714D01*
X130122470Y-152738095D01*
X130592708Y-152404761D02*
X130491517Y-152452380D01*
X130301041Y-152452380D01*
X130211755Y-152404761D01*
X130170089Y-152357142D01*
X130134375Y-152261904D01*
X130170089Y-151976190D01*
X130229613Y-151880952D01*
X130283184Y-151833333D01*
X130384375Y-151785714D01*
X130574851Y-151785714D01*
X130664136Y-151833333D01*
X131449851Y-152404761D02*
X131348660Y-152452380D01*
X131158184Y-152452380D01*
X131068898Y-152404761D01*
X131033184Y-152309523D01*
X131080803Y-151928571D01*
X131140327Y-151833333D01*
X131241517Y-151785714D01*
X131431994Y-151785714D01*
X131521279Y-151833333D01*
X131556994Y-151928571D01*
X131545089Y-152023809D01*
X131056994Y-152119047D01*
X132431994Y-151785714D02*
X132348660Y-152452380D01*
X132003422Y-151785714D02*
X131937946Y-152309523D01*
X131973660Y-152404761D01*
X132062946Y-152452380D01*
X132205803Y-152452380D01*
X132306994Y-152404761D01*
X132360565Y-152357142D01*
X132783184Y-152404761D02*
X132872470Y-152452380D01*
X133062946Y-152452380D01*
X133164136Y-152404761D01*
X133223660Y-152309523D01*
X133229613Y-152261904D01*
X133193898Y-152166666D01*
X133104613Y-152119047D01*
X132961755Y-152119047D01*
X132872470Y-152071428D01*
X132836755Y-151976190D01*
X132842708Y-151928571D01*
X132902232Y-151833333D01*
X133003422Y-151785714D01*
X133146279Y-151785714D01*
X133235565Y-151833333D01*
X133646279Y-152357142D02*
X133687946Y-152404761D01*
X133634375Y-152452380D01*
X133592708Y-152404761D01*
X133646279Y-152357142D01*
X133634375Y-152452380D01*
X134539136Y-152452380D02*
X134664136Y-151452380D01*
X134545089Y-152404761D02*
X134443898Y-152452380D01*
X134253422Y-152452380D01*
X134164136Y-152404761D01*
X134122470Y-152357142D01*
X134086755Y-152261904D01*
X134122470Y-151976190D01*
X134181994Y-151880952D01*
X134235565Y-151833333D01*
X134336755Y-151785714D01*
X134527232Y-151785714D01*
X134616517Y-151833333D01*
X135015327Y-152452380D02*
X135140327Y-151452380D01*
X135158184Y-152071428D02*
X135396279Y-152452380D01*
X135479613Y-151785714D02*
X135051041Y-152166666D01*
X143715000Y-36800000D02*
X143715000Y-35050000D01*
X128665000Y-32890000D02*
X129665000Y-32890000D01*
X139250000Y-45400000D02*
G75*
G03*
X139250000Y-45400000I-250000J0D01*
G01*
X131665000Y-32900000D02*
X131665000Y-35000000D01*
X127605000Y-33950000D02*
X127615000Y-35000000D01*
X139715000Y-35000000D02*
X139715000Y-32900000D01*
X127615000Y-35000000D02*
X129665000Y-35000000D01*
X135715000Y-36800000D02*
X135715000Y-32900000D01*
X142019047Y-147671428D02*
X142780952Y-147671428D01*
D11*
X125822276Y-150678571D02*
X126009776Y-149178571D01*
X126581205Y-149178571D01*
X126715133Y-149250000D01*
X126777633Y-149321428D01*
X126831205Y-149464285D01*
X126804419Y-149678571D01*
X126715133Y-149821428D01*
X126634776Y-149892857D01*
X126482991Y-149964285D01*
X125911562Y-149964285D01*
X127304419Y-150250000D02*
X128018705Y-150250000D01*
X127107991Y-150678571D02*
X127795491Y-149178571D01*
X128107991Y-150678571D01*
X128607991Y-150678571D02*
X128795491Y-149178571D01*
X129322276Y-150678571D02*
X129509776Y-149178571D01*
X130179419Y-150678571D01*
X130366919Y-149178571D01*
X130866919Y-149178571D02*
X131724062Y-149178571D01*
X131107991Y-150678571D02*
X131295491Y-149178571D01*
X132893705Y-150678571D02*
X132482991Y-149964285D01*
X132036562Y-150678571D02*
X132224062Y-149178571D01*
X132795491Y-149178571D01*
X132929419Y-149250000D01*
X132991919Y-149321428D01*
X133045491Y-149464285D01*
X133018705Y-149678571D01*
X132929419Y-149821428D01*
X132849062Y-149892857D01*
X132697276Y-149964285D01*
X132125848Y-149964285D01*
X133634776Y-149892857D02*
X134134776Y-149892857D01*
X134250848Y-150678571D02*
X133536562Y-150678571D01*
X133724062Y-149178571D01*
X134438348Y-149178571D01*
X136018705Y-149678571D02*
X136250848Y-150678571D01*
X136732991Y-149678571D01*
X137947276Y-149678571D02*
X137822276Y-150678571D01*
X137661562Y-149107142D02*
X137170491Y-150178571D01*
X138099062Y-150178571D01*
D10*
X141104761Y-124206011D02*
X141104761Y-122967916D01*
X141866666Y-123729821D01*
X141866666Y-123444107D01*
X141961904Y-123265535D01*
X142057142Y-123182202D01*
X142247619Y-123110773D01*
X142723809Y-123170297D01*
X142914285Y-123289345D01*
X143009523Y-123396488D01*
X143104761Y-123598869D01*
X143104761Y-124170297D01*
X143009523Y-124348869D01*
X142914285Y-124432202D01*
X136205892Y-36733333D02*
X137158273Y-36733333D01*
X135943988Y-37304761D02*
X136860654Y-35304761D01*
X137277321Y-37304761D01*
X141771428Y-114641726D02*
X143104761Y-114808392D01*
X141009523Y-115022678D02*
X142438095Y-115677440D01*
X142438095Y-114439345D01*
X133419047Y-36471428D02*
X134180952Y-36471428D01*
X140904761Y-106063154D02*
X140904761Y-107015535D01*
X141857142Y-107229821D01*
X141761904Y-107122678D01*
X141666666Y-106920297D01*
X141666666Y-106444107D01*
X141761904Y-106265535D01*
X141857142Y-106182202D01*
X142047619Y-106110773D01*
X142523809Y-106170297D01*
X142714285Y-106289345D01*
X142809523Y-106396488D01*
X142904761Y-106598869D01*
X142904761Y-107075059D01*
X142809523Y-107253630D01*
X142714285Y-107336964D01*
X129219047Y-35771428D02*
X129980952Y-35771428D01*
X129600000Y-36152380D02*
X129600000Y-35390476D01*
X139723809Y-37552380D02*
X139390476Y-37076190D01*
X139152380Y-37552380D02*
X139152380Y-36552380D01*
X139533333Y-36552380D01*
X139628571Y-36600000D01*
X139676190Y-36647619D01*
X139723809Y-36742857D01*
X139723809Y-36885714D01*
X139676190Y-36980952D01*
X139628571Y-37028571D01*
X139533333Y-37076190D01*
X139152380Y-37076190D01*
X140009523Y-36885714D02*
X140390476Y-36885714D01*
X140152380Y-36552380D02*
X140152380Y-37409523D01*
X140200000Y-37504761D01*
X140295238Y-37552380D01*
X140390476Y-37552380D01*
X142929761Y-140017916D02*
X142929761Y-141160773D01*
X142929761Y-140589345D02*
X140929761Y-140339345D01*
X141215476Y-140565535D01*
X141405952Y-140779821D01*
X141501190Y-140982202D01*
X141295238Y-132534583D02*
X141200000Y-132427440D01*
X141104761Y-132225059D01*
X141104761Y-131748869D01*
X141200000Y-131570297D01*
X141295238Y-131486964D01*
X141485714Y-131415535D01*
X141676190Y-131439345D01*
X141961904Y-131570297D01*
X143104761Y-132856011D01*
X143104761Y-131617916D01*
X142984464Y-36257142D02*
X143258273Y-36352380D01*
X143341607Y-36447619D01*
X143413035Y-36638095D01*
X143377321Y-36923809D01*
X143258273Y-37114285D01*
X143151130Y-37209523D01*
X142948750Y-37304761D01*
X142186845Y-37304761D01*
X142436845Y-35304761D01*
X143103511Y-35304761D01*
X143282083Y-35400000D01*
X143365416Y-35495238D01*
X143436845Y-35685714D01*
X143413035Y-35876190D01*
X143293988Y-36066666D01*
X143186845Y-36161904D01*
X142984464Y-36257142D01*
X142317797Y-36257142D01*
D12*
X125821190Y-39882380D02*
X125821190Y-38882380D01*
X125821190Y-39263333D02*
X125868809Y-39215714D01*
X125964047Y-39215714D01*
X126011666Y-39263333D01*
X126035476Y-39310952D01*
X126059285Y-39406190D01*
X126059285Y-39691904D01*
X126035476Y-39787142D01*
X126011666Y-39834761D01*
X125964047Y-39882380D01*
X125868809Y-39882380D01*
X125821190Y-39834761D01*
X126464047Y-39834761D02*
X126416428Y-39882380D01*
X126321190Y-39882380D01*
X126273571Y-39834761D01*
X126249761Y-39739523D01*
X126249761Y-39358571D01*
X126273571Y-39263333D01*
X126321190Y-39215714D01*
X126416428Y-39215714D01*
X126464047Y-39263333D01*
X126487857Y-39358571D01*
X126487857Y-39453809D01*
X126249761Y-39549047D01*
X126916428Y-39882380D02*
X126916428Y-39358571D01*
X126892619Y-39263333D01*
X126845000Y-39215714D01*
X126749761Y-39215714D01*
X126702142Y-39263333D01*
X126916428Y-39834761D02*
X126868809Y-39882380D01*
X126749761Y-39882380D01*
X126702142Y-39834761D01*
X126678333Y-39739523D01*
X126678333Y-39644285D01*
X126702142Y-39549047D01*
X126749761Y-39501428D01*
X126868809Y-39501428D01*
X126916428Y-39453809D01*
X127368809Y-39882380D02*
X127368809Y-38882380D01*
X127368809Y-39834761D02*
X127321190Y-39882380D01*
X127225952Y-39882380D01*
X127178333Y-39834761D01*
X127154523Y-39787142D01*
X127130714Y-39691904D01*
X127130714Y-39406190D01*
X127154523Y-39310952D01*
X127178333Y-39263333D01*
X127225952Y-39215714D01*
X127321190Y-39215714D01*
X127368809Y-39263333D01*
D10*
X134260714Y-46118333D02*
X134295476Y-46152142D01*
X134330238Y-46253571D01*
X134330238Y-46321190D01*
X134295476Y-46422619D01*
X134225952Y-46490238D01*
X134156428Y-46524047D01*
X134017380Y-46557857D01*
X133913095Y-46557857D01*
X133774047Y-46524047D01*
X133704523Y-46490238D01*
X133635000Y-46422619D01*
X133600238Y-46321190D01*
X133600238Y-46253571D01*
X133635000Y-46152142D01*
X133669761Y-46118333D01*
X133600238Y-45881666D02*
X133600238Y-45408333D01*
X134330238Y-45712619D01*
X135166666Y-104178571D02*
X134833333Y-104178571D01*
X134833333Y-104702380D02*
X134833333Y-103702380D01*
X135309523Y-103702380D01*
X136214285Y-104702380D02*
X135642857Y-104702380D01*
X135928571Y-104702380D02*
X135928571Y-103702380D01*
X135833333Y-103845238D01*
X135738095Y-103940476D01*
X135642857Y-103988095D01*
X125617380Y-34283333D02*
X126331666Y-34283333D01*
X126474523Y-34330952D01*
X126569761Y-34426190D01*
X126617380Y-34569047D01*
X126617380Y-34664285D01*
X126617380Y-33283333D02*
X126617380Y-33854761D01*
X126617380Y-33569047D02*
X125617380Y-33569047D01*
X125760238Y-33664285D01*
X125855476Y-33759523D01*
X125903095Y-33854761D01*
X125452380Y-130261904D02*
X126261904Y-130261904D01*
X126357142Y-130214285D01*
X126404761Y-130166666D01*
X126452380Y-130071428D01*
X126452380Y-129880952D01*
X126404761Y-129785714D01*
X126357142Y-129738095D01*
X126261904Y-129690476D01*
X125452380Y-129690476D01*
X125452380Y-129309523D02*
X125452380Y-128690476D01*
X125833333Y-129023809D01*
X125833333Y-128880952D01*
X125880952Y-128785714D01*
X125928571Y-128738095D01*
X126023809Y-128690476D01*
X126261904Y-128690476D01*
X126357142Y-128738095D01*
X126404761Y-128785714D01*
X126452380Y-128880952D01*
X126452380Y-129166666D01*
X126404761Y-129261904D01*
X126357142Y-129309523D01*
X126685714Y-52566666D02*
X127161904Y-52566666D01*
X126590476Y-52852380D02*
X126923809Y-51852380D01*
X127257142Y-52852380D01*
X128114285Y-52852380D02*
X127542857Y-52852380D01*
X127828571Y-52852380D02*
X127828571Y-51852380D01*
X127733333Y-51995238D01*
X127638095Y-52090476D01*
X127542857Y-52138095D01*
X125452380Y-138861904D02*
X126261904Y-138861904D01*
X126357142Y-138814285D01*
X126404761Y-138766666D01*
X126452380Y-138671428D01*
X126452380Y-138480952D01*
X126404761Y-138385714D01*
X126357142Y-138338095D01*
X126261904Y-138290476D01*
X125452380Y-138290476D01*
X125547619Y-137861904D02*
X125500000Y-137814285D01*
X125452380Y-137719047D01*
X125452380Y-137480952D01*
X125500000Y-137385714D01*
X125547619Y-137338095D01*
X125642857Y-137290476D01*
X125738095Y-137290476D01*
X125880952Y-137338095D01*
X126452380Y-137909523D01*
X126452380Y-137290476D01*
X125452380Y-121761904D02*
X126261904Y-121761904D01*
X126357142Y-121714285D01*
X126404761Y-121666666D01*
X126452380Y-121571428D01*
X126452380Y-121380952D01*
X126404761Y-121285714D01*
X126357142Y-121238095D01*
X126261904Y-121190476D01*
X125452380Y-121190476D01*
X125785714Y-120285714D02*
X126452380Y-120285714D01*
X125404761Y-120523809D02*
X126119047Y-120761904D01*
X126119047Y-120142857D01*
X141849523Y-44687619D02*
X142367619Y-44687619D01*
X142428571Y-44657142D01*
X142459047Y-44626666D01*
X142489523Y-44565714D01*
X142489523Y-44443809D01*
X142459047Y-44382857D01*
X142428571Y-44352380D01*
X142367619Y-44321904D01*
X141849523Y-44321904D01*
X141849523Y-43742857D02*
X141849523Y-43864761D01*
X141880000Y-43925714D01*
X141910476Y-43956190D01*
X142001904Y-44017142D01*
X142123809Y-44047619D01*
X142367619Y-44047619D01*
X142428571Y-44017142D01*
X142459047Y-43986666D01*
X142489523Y-43925714D01*
X142489523Y-43803809D01*
X142459047Y-43742857D01*
X142428571Y-43712380D01*
X142367619Y-43681904D01*
X142215238Y-43681904D01*
X142154285Y-43712380D01*
X142123809Y-43742857D01*
X142093333Y-43803809D01*
X142093333Y-43925714D01*
X142123809Y-43986666D01*
X142154285Y-44017142D01*
X142215238Y-44047619D01*
X125452380Y-113561904D02*
X126261904Y-113561904D01*
X126357142Y-113514285D01*
X126404761Y-113466666D01*
X126452380Y-113371428D01*
X126452380Y-113180952D01*
X126404761Y-113085714D01*
X126357142Y-113038095D01*
X126261904Y-112990476D01*
X125452380Y-112990476D01*
X125452380Y-112038095D02*
X125452380Y-112514285D01*
X125928571Y-112561904D01*
X125880952Y-112514285D01*
X125833333Y-112419047D01*
X125833333Y-112180952D01*
X125880952Y-112085714D01*
X125928571Y-112038095D01*
X126023809Y-111990476D01*
X126261904Y-111990476D01*
X126357142Y-112038095D01*
X126404761Y-112085714D01*
X126452380Y-112180952D01*
X126452380Y-112419047D01*
X126404761Y-112514285D01*
X126357142Y-112561904D01*
X125452380Y-147461904D02*
X126261904Y-147461904D01*
X126357142Y-147414285D01*
X126404761Y-147366666D01*
X126452380Y-147271428D01*
X126452380Y-147080952D01*
X126404761Y-146985714D01*
X126357142Y-146938095D01*
X126261904Y-146890476D01*
X125452380Y-146890476D01*
X126452380Y-145890476D02*
X126452380Y-146461904D01*
X126452380Y-146176190D02*
X125452380Y-146176190D01*
X125595238Y-146271428D01*
X125690476Y-146366666D01*
X125738095Y-146461904D01*
D13*
X125545000Y-40480000D02*
X125545000Y-38480000D01*
X127685000Y-38480000D02*
X127685000Y-40480000D01*
X135020000Y-47000000D02*
X135020000Y-45000000D01*
X132980000Y-45000000D02*
X132980000Y-47000000D01*
X135237221Y-103110000D02*
X135562779Y-103110000D01*
X135237221Y-102090000D02*
X135562779Y-102090000D01*
X135237221Y-101310000D02*
X135562779Y-101310000D01*
X135237221Y-100290000D02*
X135562779Y-100290000D01*
X132149721Y-99710000D02*
X132475279Y-99710000D01*
X132149721Y-98690000D02*
X132475279Y-98690000D01*
X132137221Y-100290000D02*
X132462779Y-100290000D01*
X132137221Y-101310000D02*
X132462779Y-101310000D01*
X135249721Y-99710000D02*
X135575279Y-99710000D01*
X135249721Y-98690000D02*
X135575279Y-98690000D01*
X127605000Y-32890000D02*
X128665000Y-32890000D01*
X127605000Y-33950000D02*
X127605000Y-32890000D01*
X143725000Y-35010000D02*
X143725000Y-32890000D01*
X129665000Y-32890000D02*
X143725000Y-32890000D01*
X129665000Y-35010000D02*
X129665000Y-32890000D01*
X129665000Y-35010000D02*
X143725000Y-35010000D01*
X139425000Y-104400000D02*
X139425000Y-104400000D01*
X138925000Y-98900000D02*
X140125000Y-98900000D01*
X140125000Y-104400000D02*
X140125000Y-103900000D01*
X141275000Y-98400000D02*
X138925000Y-98400000D01*
X140125000Y-103900000D02*
X140125000Y-104400000D01*
X138925000Y-103900000D02*
X140125000Y-103900000D01*
X139425000Y-103900000D02*
X139425000Y-103900000D01*
X140125000Y-103900000D02*
X140125000Y-103900000D01*
X140125000Y-103900000D02*
X138925000Y-103900000D01*
X143175000Y-103300000D02*
X143175000Y-99500000D01*
X140125000Y-98400000D02*
X140125000Y-98400000D01*
X139425000Y-98900000D02*
X139425000Y-98400000D01*
X140125000Y-98900000D02*
X140125000Y-98900000D01*
X140125000Y-103900000D02*
X140125000Y-103900000D01*
X138925000Y-98900000D02*
X138925000Y-98900000D01*
X138925000Y-103900000D02*
X138925000Y-103900000D01*
X139425000Y-104400000D02*
X139425000Y-103900000D01*
X138925000Y-98400000D02*
X138925000Y-99300000D01*
X141275000Y-104400000D02*
X138925000Y-104400000D01*
X140125000Y-98900000D02*
X140125000Y-98400000D01*
X140125000Y-104400000D02*
X140125000Y-104400000D01*
X139425000Y-98400000D02*
X139425000Y-98400000D01*
X139425000Y-98900000D02*
X139425000Y-98900000D01*
X139425000Y-98400000D02*
X139425000Y-98900000D01*
X140125000Y-98900000D02*
X138925000Y-98900000D01*
X140125000Y-98900000D02*
X140125000Y-98900000D01*
X140125000Y-98400000D02*
X140125000Y-98900000D01*
X139425000Y-103900000D02*
X139425000Y-104400000D01*
X138925000Y-104400000D02*
X138925000Y-103500000D01*
X138600000Y-103900000D02*
G75*
G03*
X138600000Y-103900000I-250000J0D01*
G01*
X140090279Y-48540000D02*
X139764721Y-48540000D01*
X140090279Y-49560000D02*
X139764721Y-49560000D01*
X138622580Y-126696000D02*
X138341420Y-126696000D01*
X138622580Y-127716000D02*
X138341420Y-127716000D01*
X129698721Y-123521000D02*
X130024279Y-123521000D01*
X129698721Y-124541000D02*
X130024279Y-124541000D01*
X135394000Y-146170420D02*
X135394000Y-146451580D01*
X136414000Y-146170420D02*
X136414000Y-146451580D01*
X140473737Y-38455000D02*
X139026263Y-38455000D01*
X140473737Y-35745000D02*
X139026263Y-35745000D01*
X135394000Y-142842420D02*
X135394000Y-143123580D01*
X136414000Y-142842420D02*
X136414000Y-143123580D01*
X133010420Y-115240000D02*
X133291580Y-115240000D01*
X133010420Y-116260000D02*
X133291580Y-116260000D01*
X130903000Y-125154000D02*
X128953000Y-125154000D01*
X130903000Y-130274000D02*
X134353000Y-130274000D01*
X130903000Y-125154000D02*
X132853000Y-125154000D01*
X130903000Y-130274000D02*
X128953000Y-130274000D01*
X135394000Y-137507420D02*
X135394000Y-137788580D01*
X136414000Y-137507420D02*
X136414000Y-137788580D01*
X133010420Y-140835000D02*
X133291580Y-140835000D01*
X133010420Y-141855000D02*
X133291580Y-141855000D01*
X138606779Y-142744000D02*
X138281221Y-142744000D01*
X138606779Y-141724000D02*
X138281221Y-141724000D01*
X129648721Y-106640000D02*
X129974279Y-106640000D01*
X129648721Y-107660000D02*
X129974279Y-107660000D01*
X135369000Y-108647420D02*
X135369000Y-108928580D01*
X136389000Y-108647420D02*
X136389000Y-108928580D01*
X138597580Y-118410000D02*
X138316420Y-118410000D01*
X138597580Y-119430000D02*
X138316420Y-119430000D01*
X138303420Y-110855000D02*
X138584580Y-110855000D01*
X138303420Y-109835000D02*
X138584580Y-109835000D01*
X140695000Y-127480000D02*
X140695000Y-130080000D01*
X143355000Y-127480000D02*
X143355000Y-130080000D01*
X142025000Y-124880000D02*
X143355000Y-124880000D01*
X143355000Y-124880000D02*
X143355000Y-126210000D01*
X140695000Y-130080000D02*
X143355000Y-130080000D01*
X140695000Y-127480000D02*
X143355000Y-127480000D01*
X141620000Y-40337221D02*
X141620000Y-40662779D01*
X140600000Y-40337221D02*
X140600000Y-40662779D01*
X129673721Y-132172000D02*
X129999279Y-132172000D01*
X129673721Y-133192000D02*
X129999279Y-133192000D01*
X142025000Y-116340000D02*
X143355000Y-116340000D01*
X143355000Y-118940000D02*
X143355000Y-121540000D01*
X143355000Y-116340000D02*
X143355000Y-117670000D01*
X140695000Y-118940000D02*
X140695000Y-121540000D01*
X140695000Y-118940000D02*
X143355000Y-118940000D01*
X140695000Y-121540000D02*
X143355000Y-121540000D01*
X133035420Y-123521000D02*
X133316580Y-123521000D01*
X133035420Y-124541000D02*
X133316580Y-124541000D01*
X138581779Y-108549000D02*
X138256221Y-108549000D01*
X138581779Y-107529000D02*
X138256221Y-107529000D01*
X135419000Y-128856420D02*
X135419000Y-129137580D01*
X136439000Y-128856420D02*
X136439000Y-129137580D01*
X125600000Y-56270000D02*
X125600000Y-94500000D01*
X125600000Y-51060000D02*
X125600000Y-53730000D01*
X140970000Y-91830000D02*
X143640000Y-91830000D01*
X143640000Y-94500000D02*
X143640000Y-51060000D01*
X128270000Y-56270000D02*
X128270000Y-53730000D01*
X143640000Y-51060000D02*
X125600000Y-51060000D01*
X125600000Y-94500000D02*
X143640000Y-94500000D01*
X140970000Y-53730000D02*
X140970000Y-91830000D01*
X128270000Y-53730000D02*
X125600000Y-53730000D01*
X128270000Y-91830000D02*
X125600000Y-91830000D01*
X128270000Y-56270000D02*
X125600000Y-56270000D01*
X140970000Y-53730000D02*
X143640000Y-53730000D01*
X128270000Y-56270000D02*
X128270000Y-91830000D01*
X136414000Y-134179420D02*
X136414000Y-134460580D01*
X135394000Y-134179420D02*
X135394000Y-134460580D01*
X143355000Y-133277000D02*
X143355000Y-134607000D01*
X142025000Y-133277000D02*
X143355000Y-133277000D01*
X140695000Y-138477000D02*
X143355000Y-138477000D01*
X140695000Y-135877000D02*
X143355000Y-135877000D01*
X140695000Y-135877000D02*
X140695000Y-138477000D01*
X143355000Y-135877000D02*
X143355000Y-138477000D01*
X130878000Y-138925000D02*
X134328000Y-138925000D01*
X130878000Y-138925000D02*
X128928000Y-138925000D01*
X130878000Y-133805000D02*
X132828000Y-133805000D01*
X130878000Y-133805000D02*
X128928000Y-133805000D01*
X138631779Y-125430000D02*
X138306221Y-125430000D01*
X138631779Y-124410000D02*
X138306221Y-124410000D01*
X138606779Y-133061000D02*
X138281221Y-133061000D01*
X138606779Y-134081000D02*
X138281221Y-134081000D01*
X138597580Y-145030000D02*
X138316420Y-145030000D01*
X138597580Y-144010000D02*
X138316420Y-144010000D01*
X136414000Y-117242420D02*
X136414000Y-117523580D01*
X135394000Y-117242420D02*
X135394000Y-117523580D01*
X130878000Y-116868000D02*
X128928000Y-116868000D01*
X130878000Y-116868000D02*
X132828000Y-116868000D01*
X130878000Y-121988000D02*
X134328000Y-121988000D01*
X130878000Y-121988000D02*
X128928000Y-121988000D01*
X140670000Y-147120000D02*
X140670000Y-145790000D01*
X142000000Y-147120000D02*
X140670000Y-147120000D01*
X143330000Y-141920000D02*
X140670000Y-141920000D01*
X143330000Y-144520000D02*
X143330000Y-141920000D01*
X143330000Y-144520000D02*
X140670000Y-144520000D01*
X140670000Y-144520000D02*
X140670000Y-141920000D01*
X140695000Y-112965000D02*
X143355000Y-112965000D01*
X143355000Y-107765000D02*
X143355000Y-109095000D01*
X140695000Y-110365000D02*
X143355000Y-110365000D01*
X143355000Y-110365000D02*
X143355000Y-112965000D01*
X140695000Y-110365000D02*
X140695000Y-112965000D01*
X142025000Y-107765000D02*
X143355000Y-107765000D01*
X135369000Y-111975420D02*
X135369000Y-112256580D01*
X136389000Y-111975420D02*
X136389000Y-112256580D01*
X138556279Y-112355000D02*
X138230721Y-112355000D01*
X138556279Y-113375000D02*
X138230721Y-113375000D01*
X138730000Y-40367221D02*
X138730000Y-40692779D01*
X139750000Y-40367221D02*
X139750000Y-40692779D01*
D14*
X139115000Y-44900000D02*
X139115000Y-43700000D01*
X141590000Y-44900000D02*
X141590000Y-43700000D01*
D15*
X139590000Y-45900000D02*
G75*
G03*
X139590000Y-45900000I-100000J0D01*
G01*
D13*
X129673721Y-141855000D02*
X129999279Y-141855000D01*
X129673721Y-140835000D02*
X129999279Y-140835000D01*
X138581279Y-120950000D02*
X138255721Y-120950000D01*
X138581279Y-121970000D02*
X138255721Y-121970000D01*
G36*
X133256621Y-57094915D02*
G01*
X133317777Y-57216514D01*
X133331129Y-57257098D01*
X133395428Y-57405587D01*
X133478247Y-57517501D01*
X133501061Y-57535849D01*
X133618871Y-57580074D01*
X133820607Y-57619907D01*
X134088630Y-57653624D01*
X134405303Y-57679495D01*
X134752985Y-57695796D01*
X135114038Y-57700797D01*
X135181213Y-57700343D01*
X135597010Y-57709269D01*
X135933641Y-57748427D01*
X136210218Y-57822284D01*
X136445852Y-57935304D01*
X136579942Y-58027137D01*
X136794348Y-58241453D01*
X136968946Y-58514527D01*
X137100689Y-58827337D01*
X137186528Y-59160863D01*
X137223414Y-59496081D01*
X137208299Y-59813970D01*
X137138135Y-60095508D01*
X137009872Y-60321672D01*
X136956785Y-60378560D01*
X136833670Y-60477072D01*
X136688239Y-60553225D01*
X136500765Y-60613314D01*
X136251520Y-60663638D01*
X135920778Y-60710492D01*
X135914400Y-60711287D01*
X135695135Y-60732453D01*
X135419515Y-60749841D01*
X135107210Y-60763185D01*
X134777887Y-60772220D01*
X134451218Y-60776680D01*
X134146871Y-60776299D01*
X133884517Y-60770812D01*
X133683824Y-60759953D01*
X133564463Y-60743458D01*
X133562919Y-60743035D01*
X133465895Y-60727002D01*
X133405839Y-60763865D01*
X133349569Y-60875028D01*
X133346338Y-60882735D01*
X133276168Y-61017570D01*
X133212279Y-61059949D01*
X133154266Y-61028133D01*
X133141965Y-60967582D01*
X133131659Y-60824914D01*
X133124244Y-60619608D01*
X133120616Y-60371141D01*
X133120400Y-60291533D01*
X133121986Y-60006245D01*
X133127787Y-59807978D01*
X133139365Y-59682188D01*
X133158281Y-59614329D01*
X133186098Y-59589858D01*
X133195868Y-59588800D01*
X133258709Y-59637047D01*
X133316279Y-59771704D01*
X133329318Y-59819064D01*
X133373638Y-59959610D01*
X133436280Y-60054048D01*
X133538988Y-60116833D01*
X133703508Y-60162425D01*
X133897387Y-60196736D01*
X134061619Y-60215419D01*
X134260640Y-60222578D01*
X134511146Y-60217921D01*
X134829830Y-60201152D01*
X135212844Y-60173588D01*
X135637608Y-60138366D01*
X135973240Y-60104338D01*
X136232105Y-60068070D01*
X136426567Y-60026130D01*
X136568989Y-59975082D01*
X136671735Y-59911495D01*
X136747168Y-59831934D01*
X136807653Y-59732966D01*
X136809028Y-59730314D01*
X136857555Y-59595252D01*
X136874493Y-59421836D01*
X136867068Y-59222854D01*
X136808446Y-58880455D01*
X136681681Y-58607155D01*
X136478591Y-58390032D01*
X136246982Y-58243625D01*
X136129512Y-58185037D01*
X136030106Y-58143981D01*
X135927694Y-58117649D01*
X135801206Y-58103237D01*
X135629571Y-58097939D01*
X135391718Y-58098949D01*
X135181874Y-58101800D01*
X134823655Y-58101497D01*
X134470060Y-58091259D01*
X134140752Y-58072493D01*
X133855392Y-58046603D01*
X133633643Y-58014995D01*
X133501761Y-57981709D01*
X133432205Y-57996197D01*
X133363220Y-58101193D01*
X133346572Y-58138975D01*
X133279960Y-58271291D01*
X133226953Y-58313492D01*
X133186459Y-58263183D01*
X133157385Y-58117966D01*
X133138641Y-57875447D01*
X133131536Y-57666949D01*
X133127199Y-57402776D01*
X133129636Y-57224472D01*
X133140396Y-57116440D01*
X133161031Y-57063081D01*
X133192997Y-57048800D01*
X133256621Y-57094915D01*
G37*
G36*
X133001840Y-92438685D02*
G01*
X133055231Y-92502010D01*
X133244690Y-92687522D01*
X133448019Y-92787402D01*
X133650826Y-92797945D01*
X133838718Y-92715444D01*
X133850187Y-92706682D01*
X133994332Y-92627236D01*
X134118625Y-92642236D01*
X134240441Y-92754442D01*
X134252819Y-92770664D01*
X134319015Y-92880343D01*
X134320627Y-92977318D01*
X134291505Y-93059467D01*
X134179651Y-93206644D01*
X134073222Y-93265902D01*
X133943677Y-93305482D01*
X133842039Y-93312135D01*
X133721854Y-93283993D01*
X133615596Y-93247520D01*
X133305248Y-93083416D01*
X133035552Y-92829442D01*
X132922461Y-92677007D01*
X132834919Y-92538089D01*
X132801226Y-92457485D01*
X132815157Y-92411575D01*
X132846609Y-92389256D01*
X132919771Y-92378047D01*
X133001840Y-92438685D01*
G37*
G36*
X136373317Y-80677926D02*
G01*
X136594147Y-80824132D01*
X136787786Y-81047995D01*
X136948574Y-81343553D01*
X137070851Y-81704847D01*
X137148957Y-82125916D01*
X137172817Y-82416581D01*
X137177154Y-82684700D01*
X137167487Y-82944293D01*
X137146114Y-83176205D01*
X137115332Y-83361279D01*
X137077437Y-83480359D01*
X137041056Y-83515382D01*
X136982814Y-83489173D01*
X136869961Y-83422044D01*
X136778000Y-83362414D01*
X136585320Y-83252750D01*
X136366425Y-83154611D01*
X136282700Y-83124754D01*
X136115672Y-83060727D01*
X136032854Y-82997834D01*
X136016000Y-82944295D01*
X136025139Y-82897354D01*
X136065934Y-82869911D01*
X136158449Y-82857897D01*
X136322748Y-82857242D01*
X136432758Y-82859761D01*
X136849517Y-82870777D01*
X136892648Y-82723288D01*
X136917351Y-82540164D01*
X136911150Y-82301668D01*
X136878259Y-82047768D01*
X136822890Y-81818429D01*
X136787250Y-81723565D01*
X136640607Y-81467589D01*
X136469233Y-81306318D01*
X136266814Y-81234543D01*
X136188640Y-81229600D01*
X136022315Y-81249545D01*
X135873918Y-81316409D01*
X135733593Y-81440736D01*
X135591483Y-81633068D01*
X135437735Y-81903948D01*
X135303336Y-82176662D01*
X135092084Y-82584365D01*
X134885231Y-82898322D01*
X134675194Y-83125678D01*
X134454395Y-83273579D01*
X134215255Y-83349169D01*
X134044977Y-83362916D01*
X133832001Y-83314286D01*
X133621754Y-83173480D01*
X133424281Y-82949656D01*
X133249624Y-82651975D01*
X133237572Y-82626600D01*
X133179515Y-82496203D01*
X133139777Y-82381346D01*
X133114907Y-82258058D01*
X133101456Y-82102366D01*
X133095973Y-81890299D01*
X133095000Y-81636000D01*
X133097730Y-81375061D01*
X133105202Y-81145194D01*
X133116341Y-80968408D01*
X133130069Y-80866708D01*
X133133096Y-80857154D01*
X133163390Y-80802585D01*
X133209434Y-80797428D01*
X133300287Y-80844262D01*
X133353384Y-80876709D01*
X133508667Y-80956749D01*
X133706494Y-81038265D01*
X133823287Y-81078202D01*
X134016209Y-81153182D01*
X134110974Y-81224723D01*
X134111020Y-81288095D01*
X134019782Y-81338569D01*
X133840696Y-81371415D01*
X133602574Y-81382000D01*
X133460296Y-81390978D01*
X133387542Y-81427546D01*
X133355618Y-81496300D01*
X133322885Y-81757239D01*
X133350588Y-82031666D01*
X133429729Y-82295284D01*
X133551308Y-82523794D01*
X133706327Y-82692899D01*
X133823891Y-82760667D01*
X134031790Y-82789524D01*
X134239755Y-82720129D01*
X134444020Y-82555760D01*
X134640815Y-82299692D01*
X134826373Y-81955201D01*
X134873961Y-81847681D01*
X135046598Y-81471057D01*
X135209708Y-81180923D01*
X135372328Y-80963879D01*
X135543495Y-80806526D01*
X135604285Y-80764850D01*
X135872726Y-80642324D01*
X136130957Y-80615337D01*
X136373317Y-80677926D01*
G37*
G36*
X133258774Y-61516524D02*
G01*
X133316099Y-61650327D01*
X133328512Y-61695463D01*
X133377024Y-61853327D01*
X133441982Y-61955266D01*
X133547710Y-62020390D01*
X133718527Y-62067811D01*
X133830399Y-62089826D01*
X133973923Y-62110930D01*
X134128497Y-62119924D01*
X134314947Y-62116199D01*
X134554099Y-62099142D01*
X134866778Y-62068142D01*
X134976614Y-62056188D01*
X135420650Y-62013783D01*
X135781204Y-61995247D01*
X136073670Y-62001087D01*
X136313441Y-62031806D01*
X136515913Y-62087910D01*
X136568303Y-62108355D01*
X136734367Y-62166406D01*
X136835122Y-62167102D01*
X136891448Y-62106884D01*
X136910177Y-62050058D01*
X136964091Y-61950772D01*
X137025444Y-61936393D01*
X137058753Y-61955284D01*
X137082752Y-62007250D01*
X137099432Y-62107461D01*
X137110784Y-62271083D01*
X137118796Y-62513287D01*
X137122288Y-62674472D01*
X137126609Y-62960860D01*
X137125686Y-63159725D01*
X137118282Y-63285064D01*
X137103162Y-63350875D01*
X137079089Y-63371156D01*
X137061067Y-63367777D01*
X137005989Y-63305978D01*
X136944412Y-63177732D01*
X136907056Y-63068156D01*
X136854190Y-62908286D01*
X136794173Y-62813549D01*
X136697196Y-62750033D01*
X136587277Y-62704416D01*
X136362030Y-62648442D01*
X136048887Y-62617784D01*
X135658374Y-62612543D01*
X135201017Y-62632821D01*
X134687341Y-62678717D01*
X134625717Y-62685576D01*
X133972034Y-62759753D01*
X134191507Y-62852964D01*
X134325893Y-62902990D01*
X134530762Y-62970795D01*
X134778534Y-63047578D01*
X135041633Y-63124537D01*
X135048390Y-63126450D01*
X135332177Y-63212928D01*
X135620713Y-63311411D01*
X135878418Y-63409182D01*
X136054858Y-63486190D01*
X136276707Y-63610776D01*
X136503492Y-63766600D01*
X136718372Y-63938610D01*
X136904510Y-64111754D01*
X137045066Y-64270983D01*
X137123201Y-64401245D01*
X137133600Y-64450391D01*
X137119805Y-64539918D01*
X137066095Y-64548993D01*
X137044700Y-64541084D01*
X136758916Y-64475932D01*
X136421499Y-64495250D01*
X136036010Y-64598203D01*
X135606006Y-64783958D01*
X135304800Y-64948425D01*
X135042490Y-65098218D01*
X134749495Y-65259052D01*
X134473792Y-65404800D01*
X134368687Y-65458234D01*
X133915174Y-65684800D01*
X134168388Y-65684800D01*
X134326275Y-65675339D01*
X134549468Y-65649832D01*
X134803736Y-65612594D01*
X134974600Y-65583200D01*
X135409191Y-65518553D01*
X135805985Y-65489325D01*
X136148065Y-65495735D01*
X136418512Y-65538004D01*
X136498600Y-65563368D01*
X136680908Y-65631062D01*
X136791997Y-65661928D01*
X136855562Y-65655386D01*
X136895299Y-65610856D01*
X136923360Y-65552962D01*
X136973911Y-65461825D01*
X137019385Y-65453919D01*
X137061808Y-65489636D01*
X137095701Y-65545765D01*
X137116423Y-65643882D01*
X137125623Y-65801672D01*
X137124948Y-66036820D01*
X137122649Y-66142104D01*
X137115440Y-66389384D01*
X137106683Y-66549542D01*
X137093481Y-66637047D01*
X137072935Y-66666368D01*
X137042146Y-66651973D01*
X137023935Y-66634847D01*
X136960331Y-66530177D01*
X136911712Y-66380561D01*
X136905934Y-66350730D01*
X136854328Y-66177305D01*
X136754490Y-66053157D01*
X136584781Y-65956295D01*
X136476991Y-65914737D01*
X136186815Y-65853439D01*
X135812050Y-65843746D01*
X135355595Y-65885610D01*
X135025400Y-65938800D01*
X134620684Y-66000272D01*
X134243715Y-66032894D01*
X133915108Y-66035903D01*
X133655475Y-66008534D01*
X133586326Y-65992102D01*
X133472441Y-65967340D01*
X133408754Y-65993823D01*
X133356144Y-66091908D01*
X133345348Y-66117503D01*
X133275095Y-66238778D01*
X133203407Y-66264220D01*
X133196586Y-66261965D01*
X133161425Y-66228959D01*
X133138607Y-66151016D01*
X133125895Y-66011303D01*
X133121050Y-65792988D01*
X133120801Y-65692064D01*
X133121202Y-65151400D01*
X133438301Y-65144508D01*
X133625374Y-65131077D01*
X133810957Y-65094835D01*
X134011319Y-65029264D01*
X134242727Y-64927845D01*
X134521450Y-64784058D01*
X134863755Y-64591384D01*
X134964327Y-64532972D01*
X135223397Y-64385176D01*
X135477668Y-64246076D01*
X135702241Y-64128899D01*
X135872217Y-64046876D01*
X135909208Y-64030952D01*
X136193800Y-63914235D01*
X135959836Y-63809785D01*
X135820545Y-63755911D01*
X135610709Y-63684904D01*
X135357977Y-63605717D01*
X135089998Y-63527302D01*
X135070836Y-63521920D01*
X134520365Y-63347963D01*
X134046210Y-63156731D01*
X133656755Y-62952065D01*
X133361225Y-62738548D01*
X133120400Y-62526565D01*
X133120400Y-61997482D01*
X133122814Y-61754636D01*
X133131610Y-61596981D01*
X133149116Y-61508190D01*
X133177662Y-61471936D01*
X133195868Y-61468400D01*
X133258774Y-61516524D01*
G37*
G36*
X133196135Y-88170651D02*
G01*
X133257838Y-88234551D01*
X133317817Y-88357661D01*
X133331357Y-88398260D01*
X133382604Y-88536101D01*
X133435879Y-88631435D01*
X133447863Y-88644129D01*
X133554589Y-88690184D01*
X133747725Y-88730163D01*
X134012175Y-88762414D01*
X134332845Y-88785287D01*
X134694641Y-88797128D01*
X134857799Y-88798416D01*
X135332494Y-88810049D01*
X135722772Y-88847019D01*
X136043544Y-88913295D01*
X136309719Y-89012843D01*
X136536208Y-89149633D01*
X136698616Y-89288321D01*
X136924138Y-89573399D01*
X137089963Y-89919131D01*
X137191403Y-90300752D01*
X137223773Y-90693499D01*
X137182385Y-91072606D01*
X137089984Y-91356231D01*
X136930771Y-91610848D01*
X136708901Y-91796919D01*
X136415642Y-91920128D01*
X136138826Y-91975328D01*
X136013871Y-91979028D01*
X135807687Y-91971002D01*
X135539732Y-91953126D01*
X135229461Y-91927273D01*
X134896333Y-91895319D01*
X134559805Y-91859138D01*
X134239332Y-91820605D01*
X133954372Y-91781594D01*
X133724383Y-91743979D01*
X133710366Y-91741356D01*
X133563387Y-91714287D01*
X133463795Y-91697318D01*
X133441074Y-91694400D01*
X133410048Y-91736259D01*
X133359501Y-91840060D01*
X133345726Y-91872200D01*
X133279416Y-91987483D01*
X133209451Y-92047544D01*
X133195918Y-92050000D01*
X133165422Y-92035334D01*
X133144174Y-91981688D01*
X133130636Y-91874584D01*
X133123272Y-91699548D01*
X133120544Y-91442102D01*
X133120400Y-91338800D01*
X133122125Y-91049517D01*
X133128251Y-90847793D01*
X133140198Y-90719630D01*
X133159389Y-90651029D01*
X133187247Y-90627992D01*
X133192660Y-90627600D01*
X133252740Y-90671404D01*
X133312687Y-90780351D01*
X133326280Y-90818100D01*
X133379760Y-90965438D01*
X133440879Y-91058069D01*
X133535587Y-91115020D01*
X133689835Y-91155315D01*
X133818275Y-91178807D01*
X134047003Y-91212981D01*
X134331693Y-91247060D01*
X134651824Y-91279476D01*
X134986874Y-91308661D01*
X135316322Y-91333047D01*
X135619646Y-91351068D01*
X135876325Y-91361155D01*
X136065839Y-91361740D01*
X136142653Y-91356370D01*
X136431281Y-91272717D01*
X136655123Y-91115206D01*
X136805931Y-90893134D01*
X136875457Y-90615800D01*
X136879237Y-90526000D01*
X136836588Y-90152082D01*
X136711699Y-89834203D01*
X136508084Y-89577344D01*
X136229257Y-89386488D01*
X136016000Y-89302208D01*
X135910108Y-89282848D01*
X135721969Y-89261647D01*
X135470874Y-89240245D01*
X135176117Y-89220279D01*
X134856991Y-89203388D01*
X134847600Y-89202962D01*
X134523118Y-89187159D01*
X134217731Y-89170157D01*
X133952063Y-89153267D01*
X133746743Y-89137799D01*
X133622697Y-89125107D01*
X133478811Y-89108990D01*
X133401819Y-89123576D01*
X133358328Y-89183295D01*
X133333240Y-89250182D01*
X133273885Y-89358610D01*
X133204251Y-89408095D01*
X133199242Y-89408400D01*
X133165960Y-89394951D01*
X133143378Y-89344206D01*
X133129555Y-89240568D01*
X133122549Y-89068437D01*
X133120420Y-88812216D01*
X133120400Y-88774994D01*
X133121957Y-88509468D01*
X133127859Y-88330790D01*
X133139950Y-88224238D01*
X133160075Y-88175091D01*
X133190080Y-88168626D01*
X133196135Y-88170651D01*
G37*
G36*
X133123369Y-72391374D02*
G01*
X133131701Y-72102174D01*
X133144533Y-71868035D01*
X133161002Y-71706120D01*
X133174431Y-71644407D01*
X133313764Y-71414704D01*
X133533670Y-71240722D01*
X133827729Y-71125693D01*
X134189522Y-71072849D01*
X134315907Y-71069600D01*
X134608419Y-71102574D01*
X134835446Y-71206942D01*
X135011034Y-71390872D01*
X135084663Y-71516677D01*
X135194727Y-71734335D01*
X135364063Y-71586329D01*
X135627171Y-71382147D01*
X135925872Y-71191548D01*
X136224590Y-71035312D01*
X136473188Y-70938477D01*
X136701808Y-70858758D01*
X136841808Y-70775705D01*
X136905518Y-70674509D01*
X136905268Y-70540366D01*
X136882330Y-70447160D01*
X136770663Y-70224428D01*
X136577541Y-70003933D01*
X136321823Y-69804027D01*
X136085343Y-69671494D01*
X135902967Y-69601006D01*
X135646707Y-69523749D01*
X135343275Y-69447180D01*
X135076200Y-69389780D01*
X134661353Y-69301999D01*
X134327831Y-69216686D01*
X134055819Y-69126620D01*
X133825504Y-69024582D01*
X133617073Y-68903349D01*
X133480323Y-68808174D01*
X133417196Y-68758200D01*
X133922079Y-68758200D01*
X134219540Y-68848848D01*
X134423279Y-68903419D01*
X134674099Y-68960125D01*
X134918480Y-69006885D01*
X134923600Y-69007747D01*
X135113296Y-69040054D01*
X135259167Y-69065777D01*
X135336665Y-69080556D01*
X135342900Y-69082198D01*
X135348119Y-69037572D01*
X135352297Y-68912059D01*
X135354935Y-68726373D01*
X135355600Y-68557566D01*
X135355600Y-68026733D01*
X134638839Y-68392466D01*
X133922079Y-68758200D01*
X133417196Y-68758200D01*
X133278050Y-68648045D01*
X133151708Y-68515811D01*
X133087018Y-68392629D01*
X133069662Y-68266239D01*
X133074663Y-68209889D01*
X133102793Y-68175185D01*
X133173855Y-68156881D01*
X133307650Y-68149732D01*
X133514162Y-68148494D01*
X133655852Y-68148069D01*
X133774958Y-68143418D01*
X133884865Y-68129365D01*
X133998961Y-68100733D01*
X134130632Y-68052346D01*
X134293264Y-67979028D01*
X134500244Y-67875603D01*
X134764958Y-67736894D01*
X135100794Y-67557724D01*
X135254000Y-67475731D01*
X135687919Y-67260295D01*
X136054529Y-67115090D01*
X136358489Y-67038630D01*
X136604458Y-67029430D01*
X136638978Y-67034139D01*
X136764969Y-67047542D01*
X136835434Y-67017671D01*
X136889941Y-66921713D01*
X136908114Y-66878981D01*
X136964926Y-66763058D01*
X137012415Y-66729208D01*
X137059835Y-66753621D01*
X137091261Y-66825503D01*
X137115130Y-66968941D01*
X137131452Y-67163285D01*
X137140240Y-67387885D01*
X137141505Y-67622091D01*
X137135259Y-67845253D01*
X137121514Y-68036721D01*
X137100282Y-68175845D01*
X137071574Y-68241974D01*
X137058989Y-68243780D01*
X137002052Y-68181170D01*
X136942505Y-68054920D01*
X136917804Y-67979434D01*
X136830926Y-67777354D01*
X136725714Y-67677372D01*
X136558598Y-67636137D01*
X136326615Y-67645770D01*
X136051663Y-67704280D01*
X135901700Y-67752385D01*
X135660400Y-67838470D01*
X135660400Y-69131320D01*
X135850900Y-69191697D01*
X136085346Y-69287398D01*
X136344178Y-69425846D01*
X136578154Y-69579773D01*
X136642197Y-69629881D01*
X136769195Y-69722137D01*
X136850155Y-69737726D01*
X136906866Y-69675628D01*
X136932499Y-69616278D01*
X136980434Y-69527997D01*
X137033647Y-69527459D01*
X137050267Y-69539680D01*
X137079977Y-69599875D01*
X137104640Y-69732139D01*
X137125239Y-69945062D01*
X137142756Y-70247232D01*
X137149688Y-70409348D01*
X137161227Y-70762590D01*
X137162060Y-71027892D01*
X137148947Y-71218639D01*
X137118648Y-71348217D01*
X137067926Y-71430010D01*
X136993540Y-71477405D01*
X136892253Y-71503786D01*
X136884530Y-71505114D01*
X136542389Y-71583322D01*
X136209653Y-71696733D01*
X135903840Y-71835975D01*
X135642465Y-71991678D01*
X135443047Y-72154470D01*
X135323102Y-72314981D01*
X135309609Y-72347638D01*
X135257313Y-72523346D01*
X135257117Y-72621921D01*
X135315256Y-72656885D01*
X135437963Y-72641763D01*
X135444500Y-72640262D01*
X135789745Y-72595652D01*
X136151398Y-72609555D01*
X136485109Y-72679060D01*
X136584878Y-72715069D01*
X136874357Y-72834127D01*
X136928633Y-72678432D01*
X136971130Y-72577498D01*
X137011456Y-72560562D01*
X137059749Y-72599577D01*
X137091204Y-72649129D01*
X137111920Y-72734134D01*
X137123205Y-72870902D01*
X137126365Y-73075743D01*
X137122710Y-73364967D01*
X137122394Y-73380805D01*
X137115983Y-73659236D01*
X137108493Y-73849619D01*
X137097773Y-73965499D01*
X137081672Y-74020424D01*
X137058039Y-74027939D01*
X137024722Y-74001590D01*
X137023935Y-74000803D01*
X136960333Y-73896166D01*
X136911714Y-73746569D01*
X136905934Y-73716730D01*
X136822956Y-73502937D01*
X136657409Y-73344989D01*
X136411951Y-73243425D01*
X136089240Y-73198784D01*
X135691933Y-73211603D01*
X135222690Y-73282421D01*
X135000000Y-73330712D01*
X134713655Y-73393856D01*
X134485477Y-73431903D01*
X134276282Y-73448835D01*
X134046885Y-73448632D01*
X133898108Y-73442669D01*
X133380416Y-73417651D01*
X133329429Y-73563913D01*
X133271460Y-73668349D01*
X133199421Y-73679853D01*
X133171024Y-73656278D01*
X133150200Y-73601546D01*
X133135838Y-73502171D01*
X133126830Y-73344668D01*
X133122069Y-73115553D01*
X133120446Y-72801339D01*
X133120429Y-72771400D01*
X133399800Y-72771400D01*
X133628400Y-72833944D01*
X133884070Y-72872028D01*
X134204083Y-72869846D01*
X134559939Y-72828398D01*
X134733300Y-72795241D01*
X135000000Y-72737581D01*
X134999810Y-72398890D01*
X134972459Y-72104849D01*
X134893150Y-71883532D01*
X134765444Y-71742426D01*
X134666858Y-71699322D01*
X134499304Y-71683216D01*
X134275220Y-71695372D01*
X134034356Y-71731600D01*
X133816460Y-71787711D01*
X133811051Y-71789536D01*
X133607196Y-71894019D01*
X133476725Y-72050830D01*
X133411473Y-72273240D01*
X133400163Y-72457138D01*
X133399800Y-72771400D01*
X133120429Y-72771400D01*
X133120400Y-72718472D01*
X133123369Y-72391374D01*
G37*
G36*
X133138600Y-78531424D02*
G01*
X133164267Y-78296872D01*
X133205895Y-78119013D01*
X133266893Y-77982930D01*
X133350668Y-77873709D01*
X133452223Y-77782999D01*
X133656191Y-77667824D01*
X133931230Y-77577124D01*
X134248206Y-77518580D01*
X134525998Y-77499867D01*
X134787859Y-77513122D01*
X134980863Y-77570461D01*
X135131120Y-77688027D01*
X135264740Y-77881963D01*
X135323677Y-77993041D01*
X135397945Y-78154292D01*
X135442257Y-78298858D01*
X135464177Y-78464307D01*
X135471269Y-78688205D01*
X135471513Y-78727372D01*
X135473471Y-79172200D01*
X135836994Y-79155813D01*
X136137088Y-79160744D01*
X136405351Y-79211397D01*
X136513056Y-79244713D01*
X136676467Y-79298705D01*
X136797402Y-79336682D01*
X136847627Y-79350000D01*
X136877440Y-79307580D01*
X136920386Y-79204324D01*
X136924385Y-79193018D01*
X136980014Y-79089306D01*
X137040324Y-79056581D01*
X137043654Y-79057489D01*
X137071469Y-79097434D01*
X137092493Y-79203102D01*
X137107773Y-79384712D01*
X137118357Y-79652485D01*
X137122258Y-79824071D01*
X137125696Y-80134850D01*
X137121220Y-80353730D01*
X137107009Y-80490226D01*
X137081245Y-80553855D01*
X137042108Y-80554133D01*
X136991966Y-80505700D01*
X136948053Y-80415494D01*
X136908945Y-80277254D01*
X136904515Y-80255020D01*
X136858389Y-80108671D01*
X136791843Y-79998285D01*
X136783147Y-79989658D01*
X136579536Y-79867766D01*
X136294798Y-79791705D01*
X135938844Y-79762204D01*
X135521587Y-79779990D01*
X135052939Y-79845793D01*
X134989101Y-79857846D01*
X134600678Y-79919539D01*
X134232856Y-79952170D01*
X133908505Y-79954867D01*
X133650491Y-79926758D01*
X133586326Y-79911302D01*
X133472441Y-79886540D01*
X133408754Y-79913023D01*
X133356144Y-80011108D01*
X133345348Y-80036703D01*
X133275095Y-80157978D01*
X133203407Y-80183420D01*
X133196586Y-80181165D01*
X133168970Y-80156231D01*
X133148795Y-80096880D01*
X133135009Y-79989815D01*
X133126564Y-79821734D01*
X133122409Y-79579341D01*
X133121495Y-79249334D01*
X133121515Y-79230264D01*
X133124098Y-78974797D01*
X133377132Y-78974797D01*
X133385535Y-79142821D01*
X133415409Y-79234298D01*
X133512025Y-79302448D01*
X133688886Y-79348675D01*
X133926887Y-79372339D01*
X134206926Y-79372795D01*
X134509901Y-79349402D01*
X134816710Y-79301519D01*
X134898400Y-79284156D01*
X135177800Y-79221033D01*
X135193025Y-78930251D01*
X135180124Y-78648361D01*
X135108457Y-78413871D01*
X135004345Y-78242989D01*
X134864442Y-78139011D01*
X134674330Y-78097614D01*
X134419590Y-78114474D01*
X134230442Y-78150596D01*
X133910298Y-78239919D01*
X133678723Y-78348750D01*
X133523427Y-78484345D01*
X133447543Y-78612880D01*
X133398504Y-78784553D01*
X133377132Y-78974797D01*
X133124098Y-78974797D01*
X133125485Y-78837583D01*
X133138600Y-78531424D01*
G37*
G36*
X132928027Y-93355555D02*
G01*
X133064551Y-93447215D01*
X133145457Y-93517460D01*
X133362022Y-93673068D01*
X133566672Y-93732466D01*
X133754046Y-93694920D01*
X133865923Y-93616416D01*
X133963234Y-93543631D01*
X134051683Y-93541598D01*
X134111517Y-93564992D01*
X134241801Y-93670244D01*
X134303814Y-93815964D01*
X134297701Y-93971905D01*
X134223602Y-94107822D01*
X134108603Y-94184510D01*
X133942708Y-94227313D01*
X133778522Y-94217326D01*
X133580891Y-94150518D01*
X133501400Y-94114875D01*
X133282277Y-93979466D01*
X133063885Y-93789813D01*
X132883837Y-93581051D01*
X132817602Y-93476140D01*
X132786987Y-93388617D01*
X132827764Y-93343793D01*
X132839601Y-93338907D01*
X132928027Y-93355555D01*
G37*
G36*
X133354992Y-54325179D02*
G01*
X133528051Y-54378858D01*
X133714994Y-54448242D01*
X133890313Y-54523592D01*
X134028495Y-54595165D01*
X134104029Y-54653222D01*
X134111000Y-54669856D01*
X134064392Y-54715879D01*
X133922301Y-54755455D01*
X133746041Y-54782151D01*
X133381082Y-54826902D01*
X133347709Y-55024435D01*
X133331820Y-55329630D01*
X133380882Y-55624141D01*
X133486394Y-55885518D01*
X133639851Y-56091313D01*
X133793735Y-56201982D01*
X134014677Y-56265811D01*
X134226216Y-56234515D01*
X134430582Y-56106568D01*
X134630004Y-55880440D01*
X134826710Y-55554606D01*
X134873561Y-55461811D01*
X135036851Y-55145562D01*
X135180162Y-54910647D01*
X135315288Y-54741895D01*
X135454020Y-54624137D01*
X135578302Y-54555186D01*
X135883357Y-54468175D01*
X136187574Y-54482060D01*
X136466325Y-54587113D01*
X136733743Y-54790789D01*
X136940847Y-55073392D01*
X137085799Y-55430761D01*
X137166760Y-55858736D01*
X137184400Y-56211902D01*
X137176342Y-56482597D01*
X137154307Y-56735145D01*
X137121503Y-56948451D01*
X137081137Y-57101424D01*
X137038431Y-57171825D01*
X136977624Y-57162728D01*
X136865586Y-57115780D01*
X136828779Y-57096971D01*
X136683359Y-57029259D01*
X136488824Y-56950746D01*
X136330749Y-56893552D01*
X136148283Y-56823770D01*
X136051288Y-56764758D01*
X136025575Y-56707529D01*
X136026510Y-56700842D01*
X136052918Y-56657483D01*
X136124943Y-56629396D01*
X136261849Y-56612181D01*
X136457656Y-56602300D01*
X136872788Y-56587601D01*
X136906601Y-56316971D01*
X136915011Y-55982473D01*
X136859206Y-55680670D01*
X136747620Y-55423770D01*
X136588684Y-55223978D01*
X136390829Y-55093500D01*
X136162488Y-55044543D01*
X136035012Y-55055260D01*
X135893694Y-55097529D01*
X135767545Y-55177320D01*
X135644075Y-55308346D01*
X135510794Y-55504321D01*
X135355210Y-55778958D01*
X135326119Y-55833560D01*
X135120950Y-56191777D01*
X134928539Y-56461403D01*
X134738830Y-56652853D01*
X134541769Y-56776541D01*
X134357512Y-56836924D01*
X134054775Y-56858285D01*
X133787543Y-56784939D01*
X133554188Y-56616152D01*
X133381199Y-56397006D01*
X133239408Y-56136767D01*
X133144440Y-55864498D01*
X133091224Y-55556036D01*
X133074687Y-55187217D01*
X133079110Y-54957618D01*
X133091700Y-54717652D01*
X133109940Y-54513848D01*
X133131345Y-54368306D01*
X133152577Y-54303902D01*
X133221331Y-54296947D01*
X133354992Y-54325179D01*
G37*
G36*
X133206799Y-84605786D02*
G01*
X133319844Y-84665236D01*
X133390754Y-84705403D01*
X133565531Y-84791150D01*
X133777963Y-84874565D01*
X133895100Y-84912208D01*
X134085734Y-84981402D01*
X134178192Y-85047690D01*
X134175883Y-85106435D01*
X134082217Y-85152995D01*
X133900603Y-85182732D01*
X133689993Y-85191306D01*
X133421387Y-85192000D01*
X133435993Y-85658364D01*
X133450600Y-86124729D01*
X133603000Y-86169694D01*
X133708088Y-86184964D01*
X133891604Y-86195917D01*
X134130434Y-86201757D01*
X134401467Y-86201691D01*
X134492000Y-86200277D01*
X134971526Y-86192161D01*
X135362073Y-86188761D01*
X135676172Y-86190553D01*
X135926357Y-86198016D01*
X136125157Y-86211626D01*
X136285107Y-86231863D01*
X136418738Y-86259203D01*
X136481018Y-86276102D01*
X136639809Y-86321340D01*
X136756115Y-86351937D01*
X136797836Y-86360400D01*
X136834267Y-86318344D01*
X136888120Y-86213791D01*
X136903595Y-86178125D01*
X136968152Y-86064140D01*
X137031347Y-86016073D01*
X137043977Y-86017202D01*
X137070717Y-86056158D01*
X137091144Y-86159611D01*
X137106210Y-86337584D01*
X137116869Y-86600095D01*
X137122213Y-86839148D01*
X137125842Y-87156321D01*
X137123491Y-87382468D01*
X137114528Y-87528019D01*
X137098322Y-87603406D01*
X137075042Y-87619347D01*
X137013776Y-87578279D01*
X136959045Y-87486953D01*
X136900361Y-87325156D01*
X136869877Y-87224000D01*
X136824412Y-87091396D01*
X136765503Y-87009161D01*
X136663570Y-86949239D01*
X136524000Y-86895959D01*
X136426308Y-86864592D01*
X136321854Y-86840441D01*
X136196047Y-86822541D01*
X136034297Y-86809927D01*
X135822014Y-86801634D01*
X135544607Y-86796696D01*
X135187485Y-86794150D01*
X134974600Y-86793471D01*
X134617717Y-86790935D01*
X134288058Y-86785422D01*
X134001323Y-86777448D01*
X133773213Y-86767526D01*
X133619429Y-86756171D01*
X133562834Y-86747187D01*
X133421068Y-86703948D01*
X133450600Y-87605000D01*
X133816049Y-87782800D01*
X134033650Y-87900462D01*
X134156096Y-87995125D01*
X134184349Y-88049500D01*
X134163639Y-88105783D01*
X134086519Y-88130500D01*
X133937505Y-88125820D01*
X133780800Y-88106020D01*
X133657112Y-88085070D01*
X133484167Y-88052458D01*
X133387100Y-88033095D01*
X133120400Y-87978713D01*
X133120400Y-86280556D01*
X133121235Y-85876709D01*
X133123608Y-85507203D01*
X133127316Y-85183801D01*
X133132159Y-84918265D01*
X133137935Y-84722359D01*
X133144443Y-84607847D01*
X133149454Y-84582400D01*
X133206799Y-84605786D01*
G37*
G36*
X136293812Y-74154168D02*
G01*
X136463433Y-74218101D01*
X136644769Y-74301814D01*
X136812345Y-74395058D01*
X136892300Y-74448807D01*
X137133600Y-74626587D01*
X137133600Y-75997693D01*
X137132452Y-76433614D01*
X137128419Y-76775697D01*
X137120619Y-77031687D01*
X137108168Y-77209327D01*
X137090184Y-77316359D01*
X137065783Y-77360529D01*
X137034083Y-77349578D01*
X136994200Y-77291250D01*
X136987496Y-77278964D01*
X136945702Y-77168792D01*
X136907718Y-77019520D01*
X136904478Y-77002885D01*
X136818211Y-76796564D01*
X136647977Y-76646049D01*
X136394845Y-76551542D01*
X136059884Y-76513246D01*
X135644162Y-76531364D01*
X135148748Y-76606100D01*
X134987963Y-76638899D01*
X134686409Y-76699686D01*
X134446423Y-76736418D01*
X134231770Y-76752559D01*
X134006217Y-76751572D01*
X133873152Y-76745472D01*
X133380871Y-76718345D01*
X133329656Y-76865261D01*
X133271707Y-76970066D01*
X133199421Y-76981853D01*
X133175524Y-76961948D01*
X133156896Y-76915327D01*
X133142905Y-76830840D01*
X133132921Y-76697340D01*
X133126314Y-76503679D01*
X133122451Y-76238708D01*
X133120703Y-75891280D01*
X133120400Y-75585364D01*
X133121424Y-75224730D01*
X133124313Y-74899788D01*
X133128790Y-74623652D01*
X133134580Y-74409438D01*
X133141405Y-74270260D01*
X133148989Y-74219232D01*
X133149189Y-74219200D01*
X133203936Y-74247263D01*
X133306012Y-74317450D01*
X133345446Y-74346933D01*
X133493430Y-74438261D01*
X133683694Y-74528493D01*
X133786556Y-74567681D01*
X133969604Y-74643023D01*
X134051420Y-74709993D01*
X134032048Y-74768297D01*
X133911535Y-74817642D01*
X133742699Y-74850416D01*
X133425199Y-74897432D01*
X133425200Y-75494514D01*
X133425200Y-76091596D01*
X133711371Y-76151005D01*
X134052308Y-76184045D01*
X134438694Y-76157201D01*
X134758700Y-76093438D01*
X134949200Y-76044083D01*
X134949200Y-75614241D01*
X134947685Y-75405488D01*
X134939580Y-75278190D01*
X134919536Y-75212215D01*
X134882210Y-75187425D01*
X134834900Y-75183706D01*
X134648952Y-75162872D01*
X134528895Y-75108056D01*
X134492000Y-75037424D01*
X134513392Y-74994404D01*
X134587147Y-74953251D01*
X134727629Y-74908701D01*
X134949205Y-74855490D01*
X135046255Y-74834342D01*
X135274122Y-74789441D01*
X135467096Y-74758724D01*
X135602668Y-74745314D01*
X135655855Y-74749791D01*
X135708329Y-74813081D01*
X135666708Y-74883733D01*
X135528164Y-74965693D01*
X135488047Y-74984023D01*
X135349382Y-75058508D01*
X135254052Y-75133969D01*
X135234047Y-75163122D01*
X135218882Y-75251485D01*
X135207873Y-75408769D01*
X135203230Y-75602313D01*
X135203200Y-75619084D01*
X135203200Y-75994660D01*
X135368300Y-75957830D01*
X135497005Y-75940655D01*
X135690455Y-75928099D01*
X135911825Y-75922357D01*
X135965200Y-75922238D01*
X136216558Y-75929903D01*
X136400684Y-75955005D01*
X136551267Y-76003248D01*
X136612900Y-76031927D01*
X136828800Y-76140379D01*
X136828800Y-74836717D01*
X136612900Y-74651022D01*
X136463508Y-74529213D01*
X136320940Y-74423643D01*
X136258893Y-74383052D01*
X136141889Y-74290455D01*
X136081032Y-74195976D01*
X136091620Y-74126646D01*
X136161383Y-74120266D01*
X136293812Y-74154168D01*
G37*
G36*
X133354349Y-51843575D02*
G01*
X133582050Y-51924067D01*
X133816751Y-52065100D01*
X134036454Y-52253007D01*
X134219159Y-52474122D01*
X134244921Y-52513973D01*
X134310692Y-52662975D01*
X134303343Y-52754782D01*
X134239903Y-52779055D01*
X134137404Y-52725455D01*
X134049031Y-52632904D01*
X133887631Y-52479607D01*
X133704134Y-52384699D01*
X133521510Y-52352522D01*
X133362730Y-52387417D01*
X133257012Y-52483202D01*
X133173080Y-52565413D01*
X133072313Y-52556798D01*
X132942841Y-52456251D01*
X132940290Y-52453709D01*
X132833681Y-52291103D01*
X132819284Y-52126796D01*
X132890077Y-51980886D01*
X133039041Y-51873471D01*
X133155648Y-51837290D01*
X133354349Y-51843575D01*
G37*
G36*
X133442776Y-52860085D02*
G01*
X133619037Y-52919615D01*
X133800539Y-53034620D01*
X133998885Y-53204978D01*
X134179238Y-53398569D01*
X134267842Y-53517850D01*
X134322882Y-53619386D01*
X134315371Y-53684658D01*
X134283938Y-53721814D01*
X134234704Y-53750792D01*
X134171930Y-53733356D01*
X134075071Y-53659195D01*
X133974257Y-53566367D01*
X133759147Y-53403253D01*
X133560709Y-53335218D01*
X133383570Y-53363082D01*
X133272799Y-53442000D01*
X133169330Y-53524668D01*
X133080282Y-53528552D01*
X132973734Y-53451435D01*
X132940290Y-53418909D01*
X132842289Y-53266243D01*
X132819791Y-53100171D01*
X132874863Y-52953390D01*
X132908500Y-52916473D01*
X133042353Y-52853518D01*
X133232236Y-52834774D01*
X133442776Y-52860085D01*
G37*
X138581279Y-137887000D02*
X138255721Y-137887000D01*
X138581279Y-138907000D02*
X138255721Y-138907000D01*
X138581279Y-146550000D02*
X138255721Y-146550000D01*
X138581279Y-147570000D02*
X138255721Y-147570000D01*
X138606279Y-129236000D02*
X138280721Y-129236000D01*
X138606279Y-130256000D02*
X138280721Y-130256000D01*
X138597580Y-136367000D02*
X138316420Y-136367000D01*
X138597580Y-135347000D02*
X138316420Y-135347000D01*
X130853000Y-113393000D02*
X134303000Y-113393000D01*
X130853000Y-108273000D02*
X132803000Y-108273000D01*
X130853000Y-108273000D02*
X128903000Y-108273000D01*
X130853000Y-113393000D02*
X128903000Y-113393000D01*
X136510000Y-44837221D02*
X136510000Y-45162779D01*
X135490000Y-44837221D02*
X135490000Y-45162779D01*
X133010420Y-132172000D02*
X133291580Y-132172000D01*
X133010420Y-133192000D02*
X133291580Y-133192000D01*
X132985420Y-106640000D02*
X133266580Y-106640000D01*
X132985420Y-107660000D02*
X133266580Y-107660000D01*
X129673721Y-116260000D02*
X129999279Y-116260000D01*
X129673721Y-115240000D02*
X129999279Y-115240000D01*
X136414000Y-120570420D02*
X136414000Y-120851580D01*
X135394000Y-120570420D02*
X135394000Y-120851580D01*
X137490000Y-45140580D02*
X137490000Y-44859420D01*
X138510000Y-45140580D02*
X138510000Y-44859420D01*
X130878000Y-142468000D02*
X128928000Y-142468000D01*
X130878000Y-147588000D02*
X134328000Y-147588000D01*
X130878000Y-147588000D02*
X128928000Y-147588000D01*
X130878000Y-142468000D02*
X132828000Y-142468000D01*
X138606779Y-117144000D02*
X138281221Y-117144000D01*
X138606779Y-116124000D02*
X138281221Y-116124000D01*
X135419000Y-125528420D02*
X135419000Y-125809580D01*
X136439000Y-125528420D02*
X136439000Y-125809580D01*
X128335000Y-38140000D02*
X129265000Y-38140000D01*
X131495000Y-38140000D02*
X131495000Y-39600000D01*
X131495000Y-38140000D02*
X130565000Y-38140000D01*
X128335000Y-38140000D02*
X128335000Y-40300000D01*
%LPC*%
D16*
X126615000Y-40880000D03*
X126615000Y-38080000D03*
D17*
X134000000Y-44000000D03*
X134000000Y-48000000D03*
D18*
X134612500Y-102600000D03*
X136187500Y-102600000D03*
X134612500Y-100800000D03*
X136187500Y-100800000D03*
X131525000Y-99200000D03*
X133100000Y-99200000D03*
X131512500Y-100800000D03*
X133087500Y-100800000D03*
X134625000Y-99200000D03*
X136200000Y-99200000D03*
D19*
X142000000Y-151400000D03*
D20*
X128665000Y-33950000D03*
D21*
X130665000Y-33950000D03*
X132665000Y-33950000D03*
X134665000Y-33950000D03*
X136665000Y-33950000D03*
X138665000Y-33950000D03*
X140665000Y-33950000D03*
X142665000Y-33950000D03*
D22*
X142475000Y-98600000D03*
X142475000Y-104200000D03*
D23*
X138600000Y-102900000D03*
X138600000Y-101900000D03*
X138600000Y-100900000D03*
X138600000Y-99900000D03*
D24*
X140715000Y-49050000D03*
X139140000Y-49050000D03*
D25*
X139257000Y-127206000D03*
X137707000Y-127206000D03*
D18*
X129074000Y-124031000D03*
X130649000Y-124031000D03*
D26*
X135904000Y-145536000D03*
X135904000Y-147086000D03*
D27*
X141300000Y-37100000D03*
X138200000Y-37100000D03*
D26*
X135904000Y-142208000D03*
X135904000Y-143758000D03*
D28*
X132376000Y-115750000D03*
X133926000Y-115750000D03*
D29*
X133378000Y-129619000D03*
X133378000Y-128349000D03*
X133378000Y-127079000D03*
X133378000Y-125809000D03*
X128428000Y-125809000D03*
X128428000Y-127079000D03*
X128428000Y-128349000D03*
X128428000Y-129619000D03*
D26*
X135904000Y-136873000D03*
X135904000Y-138423000D03*
D28*
X132376000Y-141345000D03*
X133926000Y-141345000D03*
D24*
X139231500Y-142234000D03*
X137656500Y-142234000D03*
D18*
X129024000Y-107150000D03*
X130599000Y-107150000D03*
D26*
X135879000Y-108013000D03*
X135879000Y-109563000D03*
D25*
X139232000Y-118920000D03*
X137682000Y-118920000D03*
D28*
X137669000Y-110345000D03*
X139219000Y-110345000D03*
D30*
X142025000Y-126210000D03*
D31*
X142025000Y-128750000D03*
D32*
X141110000Y-39712500D03*
X141110000Y-41287500D03*
D18*
X129049000Y-132682000D03*
X130624000Y-132682000D03*
D30*
X142025000Y-117670000D03*
D31*
X142025000Y-120210000D03*
D19*
X127900000Y-47000000D03*
D28*
X132401000Y-124031000D03*
X133951000Y-124031000D03*
D24*
X139206500Y-108039000D03*
X137631500Y-108039000D03*
D26*
X135929000Y-128222000D03*
X135929000Y-129772000D03*
D33*
X127000000Y-55000000D03*
D34*
X127000000Y-57540000D03*
X127000000Y-60080000D03*
X127000000Y-62620000D03*
X127000000Y-65160000D03*
X127000000Y-67700000D03*
X127000000Y-70240000D03*
X127000000Y-72780000D03*
X127000000Y-75320000D03*
X127000000Y-77860000D03*
X127000000Y-80400000D03*
X127000000Y-82940000D03*
X127000000Y-85480000D03*
X127000000Y-88020000D03*
X127000000Y-90560000D03*
X142240000Y-90560000D03*
X142240000Y-88020000D03*
X142240000Y-85480000D03*
X142240000Y-82940000D03*
X142240000Y-80400000D03*
X142240000Y-77860000D03*
X142240000Y-75320000D03*
X142240000Y-72780000D03*
X142240000Y-70240000D03*
X142240000Y-67700000D03*
X142240000Y-65160000D03*
X142240000Y-62620000D03*
X142240000Y-60080000D03*
X142240000Y-57540000D03*
X142240000Y-55000000D03*
D26*
X135904000Y-133545000D03*
X135904000Y-135095000D03*
D30*
X142025000Y-134607000D03*
D31*
X142025000Y-137147000D03*
D29*
X133353000Y-138270000D03*
X133353000Y-137000000D03*
X133353000Y-135730000D03*
X133353000Y-134460000D03*
X128403000Y-134460000D03*
X128403000Y-135730000D03*
X128403000Y-137000000D03*
X128403000Y-138270000D03*
D24*
X139256500Y-124920000D03*
X137681500Y-124920000D03*
X139231500Y-133571000D03*
X137656500Y-133571000D03*
D25*
X139232000Y-144520000D03*
X137682000Y-144520000D03*
D26*
X135904000Y-116608000D03*
X135904000Y-118158000D03*
D29*
X133353000Y-121333000D03*
X133353000Y-120063000D03*
X133353000Y-118793000D03*
X133353000Y-117523000D03*
X128403000Y-117523000D03*
X128403000Y-118793000D03*
X128403000Y-120063000D03*
X128403000Y-121333000D03*
D30*
X142000000Y-145790000D03*
D31*
X142000000Y-143250000D03*
D30*
X142025000Y-109095000D03*
D31*
X142025000Y-111635000D03*
D26*
X135879000Y-111341000D03*
X135879000Y-112891000D03*
D24*
X139181000Y-112865000D03*
X137606000Y-112865000D03*
D32*
X139240000Y-39742500D03*
X139240000Y-41317500D03*
D35*
X139590000Y-45035000D03*
D36*
X140090000Y-45035000D03*
X140590000Y-45035000D03*
X141090000Y-45035000D03*
X141090000Y-43565000D03*
X140590000Y-43565000D03*
X140090000Y-43565000D03*
X139590000Y-43565000D03*
D18*
X129049000Y-141345000D03*
X130624000Y-141345000D03*
D24*
X139206000Y-121460000D03*
X137631000Y-121460000D03*
X139206000Y-138397000D03*
X137631000Y-138397000D03*
X139206000Y-147060000D03*
X137631000Y-147060000D03*
X139231000Y-129746000D03*
X137656000Y-129746000D03*
D25*
X139232000Y-135857000D03*
X137682000Y-135857000D03*
D29*
X133328000Y-112738000D03*
X133328000Y-111468000D03*
X133328000Y-110198000D03*
X133328000Y-108928000D03*
X128378000Y-108928000D03*
X128378000Y-110198000D03*
X128378000Y-111468000D03*
X128378000Y-112738000D03*
D32*
X136000000Y-44212500D03*
X136000000Y-45787500D03*
D28*
X132376000Y-132682000D03*
X133926000Y-132682000D03*
X132351000Y-107150000D03*
X133901000Y-107150000D03*
D18*
X129049000Y-115750000D03*
X130624000Y-115750000D03*
D26*
X135904000Y-119936000D03*
X135904000Y-121486000D03*
D37*
X138000000Y-45775000D03*
X138000000Y-44225000D03*
D29*
X133353000Y-146933000D03*
X133353000Y-145663000D03*
X133353000Y-144393000D03*
X133353000Y-143123000D03*
X128403000Y-143123000D03*
X128403000Y-144393000D03*
X128403000Y-145663000D03*
X128403000Y-146933000D03*
D24*
X139231500Y-116634000D03*
X137656500Y-116634000D03*
D26*
X135929000Y-124894000D03*
X135929000Y-126444000D03*
D38*
X128915000Y-40900000D03*
X130915000Y-40900000D03*
D39*
X129915000Y-37350000D03*
M02*
