G04 #@! TF.GenerationSoftware,KiCad,Pcbnew,(6.0.6)*
G04 #@! TF.CreationDate,2022-09-05T13:44:10+02:00*
G04 #@! TF.ProjectId,PAINTREv4,5041494e-5452-4457-9634-2e6b69636164,rev?*
G04 #@! TF.SameCoordinates,Original*
G04 #@! TF.FileFunction,Copper,L4,Bot*
G04 #@! TF.FilePolarity,Positive*
%FSLAX46Y46*%
G04 Gerber Fmt 4.6, Leading zero omitted, Abs format (unit mm)*
G04 Created by KiCad (PCBNEW (6.0.6)) date 2022-09-05 13:44:10*
%MOMM*%
%LPD*%
G01*
G04 APERTURE LIST*
G04 #@! TA.AperFunction,ComponentPad*
%ADD10R,1.350000X1.350000*%
G04 #@! TD*
G04 #@! TA.AperFunction,ComponentPad*
%ADD11O,1.350000X1.350000*%
G04 #@! TD*
G04 #@! TA.AperFunction,ComponentPad*
%ADD12R,1.700000X1.700000*%
G04 #@! TD*
G04 #@! TA.AperFunction,ComponentPad*
%ADD13O,1.700000X1.700000*%
G04 #@! TD*
G04 #@! TA.AperFunction,ComponentPad*
%ADD14R,1.600000X1.600000*%
G04 #@! TD*
G04 #@! TA.AperFunction,ComponentPad*
%ADD15O,1.600000X1.600000*%
G04 #@! TD*
G04 #@! TA.AperFunction,ViaPad*
%ADD16C,0.800000*%
G04 #@! TD*
G04 #@! TA.AperFunction,Conductor*
%ADD17C,1.000000*%
G04 #@! TD*
G04 #@! TA.AperFunction,Conductor*
%ADD18C,0.300000*%
G04 #@! TD*
G04 #@! TA.AperFunction,Conductor*
%ADD19C,0.250000*%
G04 #@! TD*
G04 APERTURE END LIST*
D10*
X128665000Y-33950000D03*
D11*
X130665000Y-33950000D03*
X132665000Y-33950000D03*
X134665000Y-33950000D03*
X136665000Y-33950000D03*
X138665000Y-33950000D03*
X140665000Y-33950000D03*
X142665000Y-33950000D03*
D12*
X142025000Y-126210000D03*
D13*
X142025000Y-128750000D03*
D12*
X142025000Y-117670000D03*
D13*
X142025000Y-120210000D03*
D14*
X127000000Y-55000000D03*
D15*
X127000000Y-57540000D03*
X127000000Y-60080000D03*
X127000000Y-62620000D03*
X127000000Y-65160000D03*
X127000000Y-67700000D03*
X127000000Y-70240000D03*
X127000000Y-72780000D03*
X127000000Y-75320000D03*
X127000000Y-77860000D03*
X127000000Y-80400000D03*
X127000000Y-82940000D03*
X127000000Y-85480000D03*
X127000000Y-88020000D03*
X127000000Y-90560000D03*
X142240000Y-90560000D03*
X142240000Y-88020000D03*
X142240000Y-85480000D03*
X142240000Y-82940000D03*
X142240000Y-80400000D03*
X142240000Y-77860000D03*
X142240000Y-75320000D03*
X142240000Y-72780000D03*
X142240000Y-70240000D03*
X142240000Y-67700000D03*
X142240000Y-65160000D03*
X142240000Y-62620000D03*
X142240000Y-60080000D03*
X142240000Y-57540000D03*
X142240000Y-55000000D03*
D12*
X142025000Y-134607000D03*
D13*
X142025000Y-137147000D03*
D12*
X142000000Y-145790000D03*
D13*
X142000000Y-143250000D03*
D12*
X142025000Y-109095000D03*
D13*
X142025000Y-111635000D03*
D16*
X134000000Y-113965000D03*
X133915000Y-35800000D03*
X142750000Y-43550000D03*
X129880000Y-62620000D03*
X135750000Y-106845000D03*
X131200000Y-62600000D03*
X133500000Y-122500000D03*
X133915000Y-38700000D03*
X137815000Y-49000000D03*
X140500000Y-101000000D03*
X141750000Y-101000000D03*
X135215000Y-35800000D03*
X135750000Y-123500000D03*
X139250000Y-46250000D03*
X137300000Y-57500000D03*
X132515000Y-35800000D03*
X138760000Y-57540000D03*
X133500000Y-131000000D03*
X134000000Y-148500000D03*
X135500000Y-140750000D03*
X132515000Y-37300000D03*
X133915000Y-37300000D03*
X132815000Y-39800000D03*
X133750000Y-139500000D03*
X135215000Y-37000000D03*
X140160000Y-57540000D03*
X128680000Y-62620000D03*
X135750000Y-132250000D03*
X142750000Y-44750000D03*
X142750000Y-42450000D03*
X141750000Y-102000000D03*
X138500000Y-99000000D03*
X140000000Y-99000000D03*
X125000000Y-144500000D03*
X127830000Y-141726000D03*
X127830000Y-115635000D03*
X127805000Y-107531000D03*
X127830000Y-124670000D03*
X127750000Y-95000000D03*
X127830000Y-133063000D03*
X142200000Y-95100000D03*
X128250000Y-93250000D03*
X126750000Y-110345000D03*
X125750000Y-135750000D03*
X126500000Y-127000000D03*
X135600000Y-62500000D03*
X132500000Y-105845000D03*
X132000000Y-122750000D03*
X137000000Y-62500000D03*
X135600000Y-64000000D03*
X137240000Y-40880000D03*
X133100000Y-102600000D03*
X136815000Y-41800000D03*
X132250000Y-140250000D03*
X135600000Y-61000000D03*
X132125000Y-102125000D03*
X132000000Y-131250000D03*
X132000000Y-114215000D03*
X137227500Y-42812500D03*
X130903000Y-128222000D03*
X130878000Y-119936000D03*
X130878000Y-136873000D03*
X130878000Y-145536000D03*
X130853000Y-111341000D03*
X126500000Y-93500000D03*
X127105500Y-118573773D03*
X138250000Y-47750000D03*
X141815000Y-49000000D03*
X142715000Y-47000000D03*
D17*
X140160000Y-57540000D02*
X138760000Y-57540000D01*
X142240000Y-57540000D02*
X140160000Y-57540000D01*
X138760000Y-57540000D02*
X137340000Y-57540000D01*
X128680000Y-62620000D02*
X129880000Y-62620000D01*
X129880000Y-62620000D02*
X131180000Y-62620000D01*
X127000000Y-62620000D02*
X128680000Y-62620000D01*
X131180000Y-62620000D02*
X131200000Y-62600000D01*
X137340000Y-57540000D02*
X137300000Y-57500000D01*
D18*
X142240000Y-70240000D02*
X138500000Y-73980000D01*
X138500000Y-73980000D02*
X138500000Y-99000000D01*
X142240000Y-72780000D02*
X140000000Y-75020000D01*
X140000000Y-75020000D02*
X140000000Y-99000000D01*
D19*
X124676997Y-77643003D02*
X127000000Y-75320000D01*
X125000000Y-144500000D02*
X124676997Y-144176997D01*
X124676997Y-144176997D02*
X124676997Y-77643003D01*
X142200000Y-95100000D02*
X142240000Y-95060000D01*
X127830000Y-107556000D02*
X127805000Y-107531000D01*
X127805000Y-95055000D02*
X127750000Y-95000000D01*
X127830000Y-124670000D02*
X127830000Y-116170000D01*
X127830000Y-116170000D02*
X127830000Y-108211000D01*
X142240000Y-95060000D02*
X142240000Y-90560000D01*
X127830000Y-141726000D02*
X127830000Y-124670000D01*
X127805000Y-108186000D02*
X127805000Y-95055000D01*
X126750000Y-107250000D02*
X126750000Y-94750000D01*
X126750000Y-110345000D02*
X126750000Y-106595000D01*
X126750000Y-94750000D02*
X128250000Y-93250000D01*
X125126498Y-79733502D02*
X125126498Y-135126498D01*
X125126498Y-135126498D02*
X125750000Y-135750000D01*
X127000000Y-77860000D02*
X125126498Y-79733502D01*
X125575999Y-81824001D02*
X125575999Y-126075999D01*
X127000000Y-80400000D02*
X125575999Y-81824001D01*
X125575999Y-126075999D02*
X126500000Y-127000000D01*
X130878000Y-145536000D02*
X130878000Y-112021000D01*
X130878000Y-111366000D02*
X130853000Y-111341000D01*
X130853000Y-94413000D02*
X127000000Y-90560000D01*
X130853000Y-111996000D02*
X130853000Y-94413000D01*
X126025500Y-107088810D02*
X126025500Y-117493773D01*
X126025500Y-117493773D02*
X127105500Y-118573773D01*
X126025500Y-107088810D02*
X126025500Y-93974500D01*
X126025500Y-93974500D02*
X126500000Y-93500000D01*
X138000000Y-47500000D02*
X138250000Y-47750000D01*
X137040000Y-47500000D02*
X138000000Y-47500000D01*
X127000000Y-57540000D02*
X137040000Y-47500000D01*
D18*
X129010000Y-70240000D02*
X134000000Y-65250000D01*
X141000000Y-49000000D02*
X141815000Y-49000000D01*
X134000000Y-56000000D02*
X141000000Y-49000000D01*
X134000000Y-65250000D02*
X134000000Y-56000000D01*
X127000000Y-70240000D02*
X129010000Y-70240000D01*
D19*
X127000000Y-55000000D02*
X135000000Y-47000000D01*
X138500000Y-47000000D02*
X142715000Y-47000000D01*
X135000000Y-47000000D02*
X138500000Y-47000000D01*
M02*
