G04 #@! TF.GenerationSoftware,KiCad,Pcbnew,(6.0.6)*
G04 #@! TF.CreationDate,2022-09-05T13:44:10+02:00*
G04 #@! TF.ProjectId,PAINTREv4,5041494e-5452-4457-9634-2e6b69636164,rev?*
G04 #@! TF.SameCoordinates,Original*
G04 #@! TF.FileFunction,AssemblyDrawing,Top*
%FSLAX46Y46*%
G04 Gerber Fmt 4.6, Leading zero omitted, Abs format (unit mm)*
G04 Created by KiCad (PCBNEW (6.0.6)) date 2022-09-05 13:44:10*
%MOMM*%
%LPD*%
G01*
G04 APERTURE LIST*
%ADD10C,0.100000*%
%ADD11C,0.150000*%
%ADD12C,0.300000*%
%ADD13C,0.125000*%
%ADD14C,0.060000*%
%ADD15C,0.120000*%
%ADD16C,0.075000*%
%ADD17C,0.127000*%
%ADD18C,0.200000*%
G04 APERTURE END LIST*
D10*
X142600000Y-44300000D02*
G75*
G03*
X142600000Y-44300000I-2220360J0D01*
G01*
D11*
X127235000Y-42860000D02*
X124485000Y-42860000D01*
D12*
X143300000Y-101821428D02*
X143300000Y-100750000D01*
X143371428Y-100535714D01*
X143514285Y-100392857D01*
X143728571Y-100321428D01*
X143871428Y-100321428D01*
X141871428Y-101821428D02*
X142585714Y-101821428D01*
X142657142Y-101107142D01*
X142585714Y-101178571D01*
X142442857Y-101250000D01*
X142085714Y-101250000D01*
X141942857Y-101178571D01*
X141871428Y-101107142D01*
X141800000Y-100964285D01*
X141800000Y-100607142D01*
X141871428Y-100464285D01*
X141942857Y-100392857D01*
X142085714Y-100321428D01*
X142442857Y-100321428D01*
X142585714Y-100392857D01*
X142657142Y-100464285D01*
D11*
X144557142Y-43852380D02*
X145128571Y-43852380D01*
X144842857Y-44852380D02*
X144842857Y-43852380D01*
X145461904Y-44852380D02*
X145461904Y-43852380D01*
X145461904Y-44328571D02*
X146033333Y-44328571D01*
X146033333Y-44852380D02*
X146033333Y-43852380D01*
X146366666Y-43852380D02*
X146700000Y-44852380D01*
X147033333Y-43852380D01*
X147366666Y-44852380D02*
X147366666Y-43852380D01*
X147604761Y-43852380D01*
X147747619Y-43900000D01*
X147842857Y-43995238D01*
X147890476Y-44090476D01*
X147938095Y-44280952D01*
X147938095Y-44423809D01*
X147890476Y-44614285D01*
X147842857Y-44709523D01*
X147747619Y-44804761D01*
X147604761Y-44852380D01*
X147366666Y-44852380D01*
X148890476Y-44852380D02*
X148319047Y-44852380D01*
X148604761Y-44852380D02*
X148604761Y-43852380D01*
X148509523Y-43995238D01*
X148414285Y-44090476D01*
X148319047Y-44138095D01*
X149747619Y-44185714D02*
X149747619Y-44852380D01*
X149509523Y-43804761D02*
X149271428Y-44519047D01*
X149890476Y-44519047D01*
X150461904Y-43852380D02*
X150557142Y-43852380D01*
X150652380Y-43900000D01*
X150700000Y-43947619D01*
X150747619Y-44042857D01*
X150795238Y-44233333D01*
X150795238Y-44471428D01*
X150747619Y-44661904D01*
X150700000Y-44757142D01*
X150652380Y-44804761D01*
X150557142Y-44852380D01*
X150461904Y-44852380D01*
X150366666Y-44804761D01*
X150319047Y-44757142D01*
X150271428Y-44661904D01*
X150223809Y-44471428D01*
X150223809Y-44233333D01*
X150271428Y-44042857D01*
X150319047Y-43947619D01*
X150366666Y-43900000D01*
X150461904Y-43852380D01*
X151414285Y-43852380D02*
X151509523Y-43852380D01*
X151604761Y-43900000D01*
X151652380Y-43947619D01*
X151700000Y-44042857D01*
X151747619Y-44233333D01*
X151747619Y-44471428D01*
X151700000Y-44661904D01*
X151652380Y-44757142D01*
X151604761Y-44804761D01*
X151509523Y-44852380D01*
X151414285Y-44852380D01*
X151319047Y-44804761D01*
X151271428Y-44757142D01*
X151223809Y-44661904D01*
X151176190Y-44471428D01*
X151176190Y-44233333D01*
X151223809Y-44042857D01*
X151271428Y-43947619D01*
X151319047Y-43900000D01*
X151414285Y-43852380D01*
D12*
X141337500Y-100778571D02*
X141337500Y-101850000D01*
X141266071Y-102064285D01*
X141123214Y-102207142D01*
X140908928Y-102278571D01*
X140766071Y-102278571D01*
X141908928Y-100778571D02*
X142908928Y-100778571D01*
X142266071Y-102278571D01*
X131225000Y-98922321D02*
X131225000Y-99993750D01*
X131153571Y-100208035D01*
X131010714Y-100350892D01*
X130796428Y-100422321D01*
X130653571Y-100422321D01*
X131867857Y-99065178D02*
X131939285Y-98993750D01*
X132082142Y-98922321D01*
X132439285Y-98922321D01*
X132582142Y-98993750D01*
X132653571Y-99065178D01*
X132725000Y-99208035D01*
X132725000Y-99350892D01*
X132653571Y-99565178D01*
X131796428Y-100422321D01*
X132725000Y-100422321D01*
D13*
X125126190Y-40253809D02*
X124626190Y-40253809D01*
X124816666Y-40253809D02*
X124792857Y-40206190D01*
X124792857Y-40110952D01*
X124816666Y-40063333D01*
X124840476Y-40039523D01*
X124888095Y-40015714D01*
X125030952Y-40015714D01*
X125078571Y-40039523D01*
X125102380Y-40063333D01*
X125126190Y-40110952D01*
X125126190Y-40206190D01*
X125102380Y-40253809D01*
X125102380Y-39610952D02*
X125126190Y-39658571D01*
X125126190Y-39753809D01*
X125102380Y-39801428D01*
X125054761Y-39825238D01*
X124864285Y-39825238D01*
X124816666Y-39801428D01*
X124792857Y-39753809D01*
X124792857Y-39658571D01*
X124816666Y-39610952D01*
X124864285Y-39587142D01*
X124911904Y-39587142D01*
X124959523Y-39825238D01*
X125126190Y-39158571D02*
X124864285Y-39158571D01*
X124816666Y-39182380D01*
X124792857Y-39230000D01*
X124792857Y-39325238D01*
X124816666Y-39372857D01*
X125102380Y-39158571D02*
X125126190Y-39206190D01*
X125126190Y-39325238D01*
X125102380Y-39372857D01*
X125054761Y-39396666D01*
X125007142Y-39396666D01*
X124959523Y-39372857D01*
X124935714Y-39325238D01*
X124935714Y-39206190D01*
X124911904Y-39158571D01*
X125126190Y-38706190D02*
X124626190Y-38706190D01*
X125102380Y-38706190D02*
X125126190Y-38753809D01*
X125126190Y-38849047D01*
X125102380Y-38896666D01*
X125078571Y-38920476D01*
X125030952Y-38944285D01*
X124888095Y-38944285D01*
X124840476Y-38920476D01*
X124816666Y-38896666D01*
X124792857Y-38849047D01*
X124792857Y-38753809D01*
X124816666Y-38706190D01*
D14*
X135266666Y-102571428D02*
X135133333Y-102571428D01*
X135133333Y-102780952D02*
X135133333Y-102380952D01*
X135323809Y-102380952D01*
X135685714Y-102780952D02*
X135457142Y-102780952D01*
X135571428Y-102780952D02*
X135571428Y-102380952D01*
X135533333Y-102438095D01*
X135495238Y-102476190D01*
X135457142Y-102495238D01*
X134314285Y-100980952D02*
X134180952Y-100790476D01*
X134085714Y-100980952D02*
X134085714Y-100580952D01*
X134238095Y-100580952D01*
X134276190Y-100600000D01*
X134295238Y-100619047D01*
X134314285Y-100657142D01*
X134314285Y-100714285D01*
X134295238Y-100752380D01*
X134276190Y-100771428D01*
X134238095Y-100790476D01*
X134085714Y-100790476D01*
X134485714Y-100980952D02*
X134485714Y-100714285D01*
X134485714Y-100580952D02*
X134466666Y-100600000D01*
X134485714Y-100619047D01*
X134504761Y-100600000D01*
X134485714Y-100580952D01*
X134485714Y-100619047D01*
X134657142Y-100619047D02*
X134676190Y-100600000D01*
X134714285Y-100580952D01*
X134809523Y-100580952D01*
X134847619Y-100600000D01*
X134866666Y-100619047D01*
X134885714Y-100657142D01*
X134885714Y-100695238D01*
X134866666Y-100752380D01*
X134638095Y-100980952D01*
X134885714Y-100980952D01*
X135228571Y-100961904D02*
X135190476Y-100980952D01*
X135114285Y-100980952D01*
X135076190Y-100961904D01*
X135057142Y-100942857D01*
X135038095Y-100904761D01*
X135038095Y-100790476D01*
X135057142Y-100752380D01*
X135076190Y-100733333D01*
X135114285Y-100714285D01*
X135190476Y-100714285D01*
X135228571Y-100733333D01*
X135380952Y-100961904D02*
X135438095Y-100980952D01*
X135533333Y-100980952D01*
X135571428Y-100961904D01*
X135590476Y-100942857D01*
X135609523Y-100904761D01*
X135609523Y-100866666D01*
X135590476Y-100828571D01*
X135571428Y-100809523D01*
X135533333Y-100790476D01*
X135457142Y-100771428D01*
X135419047Y-100752380D01*
X135400000Y-100733333D01*
X135380952Y-100695238D01*
X135380952Y-100657142D01*
X135400000Y-100619047D01*
X135419047Y-100600000D01*
X135457142Y-100580952D01*
X135552380Y-100580952D01*
X135609523Y-100600000D01*
X135780952Y-100980952D02*
X135780952Y-100580952D01*
X135876190Y-100580952D01*
X135933333Y-100600000D01*
X135971428Y-100638095D01*
X135990476Y-100676190D01*
X136009523Y-100752380D01*
X136009523Y-100809523D01*
X135990476Y-100885714D01*
X135971428Y-100923809D01*
X135933333Y-100961904D01*
X135876190Y-100980952D01*
X135780952Y-100980952D01*
X136161904Y-100866666D02*
X136352380Y-100866666D01*
X136123809Y-100980952D02*
X136257142Y-100580952D01*
X136390476Y-100980952D01*
X136733333Y-100980952D02*
X136504761Y-100980952D01*
X136619047Y-100980952D02*
X136619047Y-100580952D01*
X136580952Y-100638095D01*
X136542857Y-100676190D01*
X136504761Y-100695238D01*
X131236309Y-99380952D02*
X131102976Y-99190476D01*
X131007738Y-99380952D02*
X131007738Y-98980952D01*
X131160119Y-98980952D01*
X131198214Y-99000000D01*
X131217261Y-99019047D01*
X131236309Y-99057142D01*
X131236309Y-99114285D01*
X131217261Y-99152380D01*
X131198214Y-99171428D01*
X131160119Y-99190476D01*
X131007738Y-99190476D01*
X131407738Y-99380952D02*
X131407738Y-99114285D01*
X131407738Y-98980952D02*
X131388690Y-99000000D01*
X131407738Y-99019047D01*
X131426785Y-99000000D01*
X131407738Y-98980952D01*
X131407738Y-99019047D01*
X131579166Y-99019047D02*
X131598214Y-99000000D01*
X131636309Y-98980952D01*
X131731547Y-98980952D01*
X131769642Y-99000000D01*
X131788690Y-99019047D01*
X131807738Y-99057142D01*
X131807738Y-99095238D01*
X131788690Y-99152380D01*
X131560119Y-99380952D01*
X131807738Y-99380952D01*
X132150595Y-99361904D02*
X132112500Y-99380952D01*
X132036309Y-99380952D01*
X131998214Y-99361904D01*
X131979166Y-99342857D01*
X131960119Y-99304761D01*
X131960119Y-99190476D01*
X131979166Y-99152380D01*
X131998214Y-99133333D01*
X132036309Y-99114285D01*
X132112500Y-99114285D01*
X132150595Y-99133333D01*
X132302976Y-99361904D02*
X132360119Y-99380952D01*
X132455357Y-99380952D01*
X132493452Y-99361904D01*
X132512500Y-99342857D01*
X132531547Y-99304761D01*
X132531547Y-99266666D01*
X132512500Y-99228571D01*
X132493452Y-99209523D01*
X132455357Y-99190476D01*
X132379166Y-99171428D01*
X132341071Y-99152380D01*
X132322023Y-99133333D01*
X132302976Y-99095238D01*
X132302976Y-99057142D01*
X132322023Y-99019047D01*
X132341071Y-99000000D01*
X132379166Y-98980952D01*
X132474404Y-98980952D01*
X132531547Y-99000000D01*
X132931547Y-99342857D02*
X132912500Y-99361904D01*
X132855357Y-99380952D01*
X132817261Y-99380952D01*
X132760119Y-99361904D01*
X132722023Y-99323809D01*
X132702976Y-99285714D01*
X132683928Y-99209523D01*
X132683928Y-99152380D01*
X132702976Y-99076190D01*
X132722023Y-99038095D01*
X132760119Y-99000000D01*
X132817261Y-98980952D01*
X132855357Y-98980952D01*
X132912500Y-99000000D01*
X132931547Y-99019047D01*
X133293452Y-99380952D02*
X133102976Y-99380952D01*
X133102976Y-98980952D01*
X133407738Y-99019047D02*
X133426785Y-99000000D01*
X133464880Y-98980952D01*
X133560119Y-98980952D01*
X133598214Y-99000000D01*
X133617261Y-99019047D01*
X133636309Y-99057142D01*
X133636309Y-99095238D01*
X133617261Y-99152380D01*
X133388690Y-99380952D01*
X133636309Y-99380952D01*
X131214285Y-100980952D02*
X131080952Y-100790476D01*
X130985714Y-100980952D02*
X130985714Y-100580952D01*
X131138095Y-100580952D01*
X131176190Y-100600000D01*
X131195238Y-100619047D01*
X131214285Y-100657142D01*
X131214285Y-100714285D01*
X131195238Y-100752380D01*
X131176190Y-100771428D01*
X131138095Y-100790476D01*
X130985714Y-100790476D01*
X131385714Y-100980952D02*
X131385714Y-100714285D01*
X131385714Y-100580952D02*
X131366666Y-100600000D01*
X131385714Y-100619047D01*
X131404761Y-100600000D01*
X131385714Y-100580952D01*
X131385714Y-100619047D01*
X131557142Y-100619047D02*
X131576190Y-100600000D01*
X131614285Y-100580952D01*
X131709523Y-100580952D01*
X131747619Y-100600000D01*
X131766666Y-100619047D01*
X131785714Y-100657142D01*
X131785714Y-100695238D01*
X131766666Y-100752380D01*
X131538095Y-100980952D01*
X131785714Y-100980952D01*
X132128571Y-100961904D02*
X132090476Y-100980952D01*
X132014285Y-100980952D01*
X131976190Y-100961904D01*
X131957142Y-100942857D01*
X131938095Y-100904761D01*
X131938095Y-100790476D01*
X131957142Y-100752380D01*
X131976190Y-100733333D01*
X132014285Y-100714285D01*
X132090476Y-100714285D01*
X132128571Y-100733333D01*
X132280952Y-100961904D02*
X132338095Y-100980952D01*
X132433333Y-100980952D01*
X132471428Y-100961904D01*
X132490476Y-100942857D01*
X132509523Y-100904761D01*
X132509523Y-100866666D01*
X132490476Y-100828571D01*
X132471428Y-100809523D01*
X132433333Y-100790476D01*
X132357142Y-100771428D01*
X132319047Y-100752380D01*
X132300000Y-100733333D01*
X132280952Y-100695238D01*
X132280952Y-100657142D01*
X132300000Y-100619047D01*
X132319047Y-100600000D01*
X132357142Y-100580952D01*
X132452380Y-100580952D01*
X132509523Y-100600000D01*
X132680952Y-100980952D02*
X132680952Y-100580952D01*
X132776190Y-100580952D01*
X132833333Y-100600000D01*
X132871428Y-100638095D01*
X132890476Y-100676190D01*
X132909523Y-100752380D01*
X132909523Y-100809523D01*
X132890476Y-100885714D01*
X132871428Y-100923809D01*
X132833333Y-100961904D01*
X132776190Y-100980952D01*
X132680952Y-100980952D01*
X133061904Y-100866666D02*
X133252380Y-100866666D01*
X133023809Y-100980952D02*
X133157142Y-100580952D01*
X133290476Y-100980952D01*
X133404761Y-100619047D02*
X133423809Y-100600000D01*
X133461904Y-100580952D01*
X133557142Y-100580952D01*
X133595238Y-100600000D01*
X133614285Y-100619047D01*
X133633333Y-100657142D01*
X133633333Y-100695238D01*
X133614285Y-100752380D01*
X133385714Y-100980952D01*
X133633333Y-100980952D01*
X134336309Y-99380952D02*
X134202976Y-99190476D01*
X134107738Y-99380952D02*
X134107738Y-98980952D01*
X134260119Y-98980952D01*
X134298214Y-99000000D01*
X134317261Y-99019047D01*
X134336309Y-99057142D01*
X134336309Y-99114285D01*
X134317261Y-99152380D01*
X134298214Y-99171428D01*
X134260119Y-99190476D01*
X134107738Y-99190476D01*
X134507738Y-99380952D02*
X134507738Y-99114285D01*
X134507738Y-98980952D02*
X134488690Y-99000000D01*
X134507738Y-99019047D01*
X134526785Y-99000000D01*
X134507738Y-98980952D01*
X134507738Y-99019047D01*
X134679166Y-99019047D02*
X134698214Y-99000000D01*
X134736309Y-98980952D01*
X134831547Y-98980952D01*
X134869642Y-99000000D01*
X134888690Y-99019047D01*
X134907738Y-99057142D01*
X134907738Y-99095238D01*
X134888690Y-99152380D01*
X134660119Y-99380952D01*
X134907738Y-99380952D01*
X135250595Y-99361904D02*
X135212500Y-99380952D01*
X135136309Y-99380952D01*
X135098214Y-99361904D01*
X135079166Y-99342857D01*
X135060119Y-99304761D01*
X135060119Y-99190476D01*
X135079166Y-99152380D01*
X135098214Y-99133333D01*
X135136309Y-99114285D01*
X135212500Y-99114285D01*
X135250595Y-99133333D01*
X135402976Y-99361904D02*
X135460119Y-99380952D01*
X135555357Y-99380952D01*
X135593452Y-99361904D01*
X135612500Y-99342857D01*
X135631547Y-99304761D01*
X135631547Y-99266666D01*
X135612500Y-99228571D01*
X135593452Y-99209523D01*
X135555357Y-99190476D01*
X135479166Y-99171428D01*
X135441071Y-99152380D01*
X135422023Y-99133333D01*
X135402976Y-99095238D01*
X135402976Y-99057142D01*
X135422023Y-99019047D01*
X135441071Y-99000000D01*
X135479166Y-98980952D01*
X135574404Y-98980952D01*
X135631547Y-99000000D01*
X136031547Y-99342857D02*
X136012500Y-99361904D01*
X135955357Y-99380952D01*
X135917261Y-99380952D01*
X135860119Y-99361904D01*
X135822023Y-99323809D01*
X135802976Y-99285714D01*
X135783928Y-99209523D01*
X135783928Y-99152380D01*
X135802976Y-99076190D01*
X135822023Y-99038095D01*
X135860119Y-99000000D01*
X135917261Y-98980952D01*
X135955357Y-98980952D01*
X136012500Y-99000000D01*
X136031547Y-99019047D01*
X136393452Y-99380952D02*
X136202976Y-99380952D01*
X136202976Y-98980952D01*
X136736309Y-99380952D02*
X136507738Y-99380952D01*
X136622023Y-99380952D02*
X136622023Y-98980952D01*
X136583928Y-99038095D01*
X136545833Y-99076190D01*
X136507738Y-99095238D01*
D11*
X142338095Y-150066130D02*
X142338095Y-149066130D01*
X142338095Y-149542321D02*
X142909523Y-149542321D01*
X142909523Y-150066130D02*
X142909523Y-149066130D01*
X143290476Y-149066130D02*
X143909523Y-149066130D01*
X143576190Y-149447083D01*
X143719047Y-149447083D01*
X143814285Y-149494702D01*
X143861904Y-149542321D01*
X143909523Y-149637559D01*
X143909523Y-149875654D01*
X143861904Y-149970892D01*
X143814285Y-150018511D01*
X143719047Y-150066130D01*
X143433333Y-150066130D01*
X143338095Y-150018511D01*
X143290476Y-149970892D01*
X135331666Y-33402380D02*
X135331666Y-34116666D01*
X135284047Y-34259523D01*
X135188809Y-34354761D01*
X135045952Y-34402380D01*
X134950714Y-34402380D01*
X136331666Y-34402380D02*
X135760238Y-34402380D01*
X136045952Y-34402380D02*
X136045952Y-33402380D01*
X135950714Y-33545238D01*
X135855476Y-33640476D01*
X135760238Y-33688095D01*
D14*
X139670357Y-49230952D02*
X139537023Y-49040476D01*
X139441785Y-49230952D02*
X139441785Y-48830952D01*
X139594166Y-48830952D01*
X139632261Y-48850000D01*
X139651309Y-48869047D01*
X139670357Y-48907142D01*
X139670357Y-48964285D01*
X139651309Y-49002380D01*
X139632261Y-49021428D01*
X139594166Y-49040476D01*
X139441785Y-49040476D01*
X140032261Y-48830952D02*
X139841785Y-48830952D01*
X139822738Y-49021428D01*
X139841785Y-49002380D01*
X139879880Y-48983333D01*
X139975119Y-48983333D01*
X140013214Y-49002380D01*
X140032261Y-49021428D01*
X140051309Y-49059523D01*
X140051309Y-49154761D01*
X140032261Y-49192857D01*
X140013214Y-49211904D01*
X139975119Y-49230952D01*
X139879880Y-49230952D01*
X139841785Y-49211904D01*
X139822738Y-49192857D01*
X140394166Y-48964285D02*
X140394166Y-49230952D01*
X140298928Y-48811904D02*
X140203690Y-49097619D01*
X140451309Y-49097619D01*
X138224857Y-127348857D02*
X138205809Y-127367904D01*
X138148666Y-127386952D01*
X138110571Y-127386952D01*
X138053428Y-127367904D01*
X138015333Y-127329809D01*
X137996285Y-127291714D01*
X137977238Y-127215523D01*
X137977238Y-127158380D01*
X137996285Y-127082190D01*
X138015333Y-127044095D01*
X138053428Y-127006000D01*
X138110571Y-126986952D01*
X138148666Y-126986952D01*
X138205809Y-127006000D01*
X138224857Y-127025047D01*
X138377238Y-127025047D02*
X138396285Y-127006000D01*
X138434380Y-126986952D01*
X138529619Y-126986952D01*
X138567714Y-127006000D01*
X138586761Y-127025047D01*
X138605809Y-127063142D01*
X138605809Y-127101238D01*
X138586761Y-127158380D01*
X138358190Y-127386952D01*
X138605809Y-127386952D01*
X138948666Y-126986952D02*
X138872476Y-126986952D01*
X138834380Y-127006000D01*
X138815333Y-127025047D01*
X138777238Y-127082190D01*
X138758190Y-127158380D01*
X138758190Y-127310761D01*
X138777238Y-127348857D01*
X138796285Y-127367904D01*
X138834380Y-127386952D01*
X138910571Y-127386952D01*
X138948666Y-127367904D01*
X138967714Y-127348857D01*
X138986761Y-127310761D01*
X138986761Y-127215523D01*
X138967714Y-127177428D01*
X138948666Y-127158380D01*
X138910571Y-127139333D01*
X138834380Y-127139333D01*
X138796285Y-127158380D01*
X138777238Y-127177428D01*
X138758190Y-127215523D01*
X129604357Y-124211952D02*
X129471023Y-124021476D01*
X129375785Y-124211952D02*
X129375785Y-123811952D01*
X129528166Y-123811952D01*
X129566261Y-123831000D01*
X129585309Y-123850047D01*
X129604357Y-123888142D01*
X129604357Y-123945285D01*
X129585309Y-123983380D01*
X129566261Y-124002428D01*
X129528166Y-124021476D01*
X129375785Y-124021476D01*
X129985309Y-124211952D02*
X129756738Y-124211952D01*
X129871023Y-124211952D02*
X129871023Y-123811952D01*
X129832928Y-123869095D01*
X129794833Y-123907190D01*
X129756738Y-123926238D01*
X130328166Y-123811952D02*
X130251976Y-123811952D01*
X130213880Y-123831000D01*
X130194833Y-123850047D01*
X130156738Y-123907190D01*
X130137690Y-123983380D01*
X130137690Y-124135761D01*
X130156738Y-124173857D01*
X130175785Y-124192904D01*
X130213880Y-124211952D01*
X130290071Y-124211952D01*
X130328166Y-124192904D01*
X130347214Y-124173857D01*
X130366261Y-124135761D01*
X130366261Y-124040523D01*
X130347214Y-124002428D01*
X130328166Y-123983380D01*
X130290071Y-123964333D01*
X130213880Y-123964333D01*
X130175785Y-123983380D01*
X130156738Y-124002428D01*
X130137690Y-124040523D01*
X136046857Y-146568142D02*
X136065904Y-146587190D01*
X136084952Y-146644333D01*
X136084952Y-146682428D01*
X136065904Y-146739571D01*
X136027809Y-146777666D01*
X135989714Y-146796714D01*
X135913523Y-146815761D01*
X135856380Y-146815761D01*
X135780190Y-146796714D01*
X135742095Y-146777666D01*
X135704000Y-146739571D01*
X135684952Y-146682428D01*
X135684952Y-146644333D01*
X135704000Y-146587190D01*
X135723047Y-146568142D01*
X135723047Y-146415761D02*
X135704000Y-146396714D01*
X135684952Y-146358619D01*
X135684952Y-146263380D01*
X135704000Y-146225285D01*
X135723047Y-146206238D01*
X135761142Y-146187190D01*
X135799238Y-146187190D01*
X135856380Y-146206238D01*
X136084952Y-146434809D01*
X136084952Y-146187190D01*
X135723047Y-146034809D02*
X135704000Y-146015761D01*
X135684952Y-145977666D01*
X135684952Y-145882428D01*
X135704000Y-145844333D01*
X135723047Y-145825285D01*
X135761142Y-145806238D01*
X135799238Y-145806238D01*
X135856380Y-145825285D01*
X136084952Y-146053857D01*
X136084952Y-145806238D01*
D15*
X139235714Y-37461904D02*
X138969047Y-37080952D01*
X138778571Y-37461904D02*
X138778571Y-36661904D01*
X139083333Y-36661904D01*
X139159523Y-36700000D01*
X139197619Y-36738095D01*
X139235714Y-36814285D01*
X139235714Y-36928571D01*
X139197619Y-37004761D01*
X139159523Y-37042857D01*
X139083333Y-37080952D01*
X138778571Y-37080952D01*
X139959523Y-36661904D02*
X139578571Y-36661904D01*
X139540476Y-37042857D01*
X139578571Y-37004761D01*
X139654761Y-36966666D01*
X139845238Y-36966666D01*
X139921428Y-37004761D01*
X139959523Y-37042857D01*
X139997619Y-37119047D01*
X139997619Y-37309523D01*
X139959523Y-37385714D01*
X139921428Y-37423809D01*
X139845238Y-37461904D01*
X139654761Y-37461904D01*
X139578571Y-37423809D01*
X139540476Y-37385714D01*
X140264285Y-36661904D02*
X140797619Y-36661904D01*
X140454761Y-37461904D01*
D14*
X136046857Y-143240142D02*
X136065904Y-143259190D01*
X136084952Y-143316333D01*
X136084952Y-143354428D01*
X136065904Y-143411571D01*
X136027809Y-143449666D01*
X135989714Y-143468714D01*
X135913523Y-143487761D01*
X135856380Y-143487761D01*
X135780190Y-143468714D01*
X135742095Y-143449666D01*
X135704000Y-143411571D01*
X135684952Y-143354428D01*
X135684952Y-143316333D01*
X135704000Y-143259190D01*
X135723047Y-143240142D01*
X135723047Y-143087761D02*
X135704000Y-143068714D01*
X135684952Y-143030619D01*
X135684952Y-142935380D01*
X135704000Y-142897285D01*
X135723047Y-142878238D01*
X135761142Y-142859190D01*
X135799238Y-142859190D01*
X135856380Y-142878238D01*
X136084952Y-143106809D01*
X136084952Y-142859190D01*
X135684952Y-142611571D02*
X135684952Y-142573476D01*
X135704000Y-142535380D01*
X135723047Y-142516333D01*
X135761142Y-142497285D01*
X135837333Y-142478238D01*
X135932571Y-142478238D01*
X136008761Y-142497285D01*
X136046857Y-142516333D01*
X136065904Y-142535380D01*
X136084952Y-142573476D01*
X136084952Y-142611571D01*
X136065904Y-142649666D01*
X136046857Y-142668714D01*
X136008761Y-142687761D01*
X135932571Y-142706809D01*
X135837333Y-142706809D01*
X135761142Y-142687761D01*
X135723047Y-142668714D01*
X135704000Y-142649666D01*
X135684952Y-142611571D01*
X132893857Y-115892857D02*
X132874809Y-115911904D01*
X132817666Y-115930952D01*
X132779571Y-115930952D01*
X132722428Y-115911904D01*
X132684333Y-115873809D01*
X132665285Y-115835714D01*
X132646238Y-115759523D01*
X132646238Y-115702380D01*
X132665285Y-115626190D01*
X132684333Y-115588095D01*
X132722428Y-115550000D01*
X132779571Y-115530952D01*
X132817666Y-115530952D01*
X132874809Y-115550000D01*
X132893857Y-115569047D01*
X133274809Y-115930952D02*
X133046238Y-115930952D01*
X133160523Y-115930952D02*
X133160523Y-115530952D01*
X133122428Y-115588095D01*
X133084333Y-115626190D01*
X133046238Y-115645238D01*
X133503380Y-115702380D02*
X133465285Y-115683333D01*
X133446238Y-115664285D01*
X133427190Y-115626190D01*
X133427190Y-115607142D01*
X133446238Y-115569047D01*
X133465285Y-115550000D01*
X133503380Y-115530952D01*
X133579571Y-115530952D01*
X133617666Y-115550000D01*
X133636714Y-115569047D01*
X133655761Y-115607142D01*
X133655761Y-115626190D01*
X133636714Y-115664285D01*
X133617666Y-115683333D01*
X133579571Y-115702380D01*
X133503380Y-115702380D01*
X133465285Y-115721428D01*
X133446238Y-115740476D01*
X133427190Y-115778571D01*
X133427190Y-115854761D01*
X133446238Y-115892857D01*
X133465285Y-115911904D01*
X133503380Y-115930952D01*
X133579571Y-115930952D01*
X133617666Y-115911904D01*
X133636714Y-115892857D01*
X133655761Y-115854761D01*
X133655761Y-115778571D01*
X133636714Y-115740476D01*
X133617666Y-115721428D01*
X133579571Y-115702380D01*
D11*
X130156333Y-127177333D02*
X130156333Y-127970666D01*
X130203000Y-128064000D01*
X130249666Y-128110666D01*
X130343000Y-128157333D01*
X130529666Y-128157333D01*
X130623000Y-128110666D01*
X130669666Y-128064000D01*
X130716333Y-127970666D01*
X130716333Y-127177333D01*
X131089666Y-127177333D02*
X131696333Y-127177333D01*
X131369666Y-127550666D01*
X131509666Y-127550666D01*
X131603000Y-127597333D01*
X131649666Y-127644000D01*
X131696333Y-127737333D01*
X131696333Y-127970666D01*
X131649666Y-128064000D01*
X131603000Y-128110666D01*
X131509666Y-128157333D01*
X131229666Y-128157333D01*
X131136333Y-128110666D01*
X131089666Y-128064000D01*
D14*
X136046857Y-137905142D02*
X136065904Y-137924190D01*
X136084952Y-137981333D01*
X136084952Y-138019428D01*
X136065904Y-138076571D01*
X136027809Y-138114666D01*
X135989714Y-138133714D01*
X135913523Y-138152761D01*
X135856380Y-138152761D01*
X135780190Y-138133714D01*
X135742095Y-138114666D01*
X135704000Y-138076571D01*
X135684952Y-138019428D01*
X135684952Y-137981333D01*
X135704000Y-137924190D01*
X135723047Y-137905142D01*
X135684952Y-137771809D02*
X135684952Y-137524190D01*
X135837333Y-137657523D01*
X135837333Y-137600380D01*
X135856380Y-137562285D01*
X135875428Y-137543238D01*
X135913523Y-137524190D01*
X136008761Y-137524190D01*
X136046857Y-137543238D01*
X136065904Y-137562285D01*
X136084952Y-137600380D01*
X136084952Y-137714666D01*
X136065904Y-137752761D01*
X136046857Y-137771809D01*
X135818285Y-137181333D02*
X136084952Y-137181333D01*
X135665904Y-137276571D02*
X135951619Y-137371809D01*
X135951619Y-137124190D01*
X133084333Y-141487857D02*
X133065285Y-141506904D01*
X133008142Y-141525952D01*
X132970047Y-141525952D01*
X132912904Y-141506904D01*
X132874809Y-141468809D01*
X132855761Y-141430714D01*
X132836714Y-141354523D01*
X132836714Y-141297380D01*
X132855761Y-141221190D01*
X132874809Y-141183095D01*
X132912904Y-141145000D01*
X132970047Y-141125952D01*
X133008142Y-141125952D01*
X133065285Y-141145000D01*
X133084333Y-141164047D01*
X133465285Y-141525952D02*
X133236714Y-141525952D01*
X133351000Y-141525952D02*
X133351000Y-141125952D01*
X133312904Y-141183095D01*
X133274809Y-141221190D01*
X133236714Y-141240238D01*
X138186857Y-142414952D02*
X138053523Y-142224476D01*
X137958285Y-142414952D02*
X137958285Y-142014952D01*
X138110666Y-142014952D01*
X138148761Y-142034000D01*
X138167809Y-142053047D01*
X138186857Y-142091142D01*
X138186857Y-142148285D01*
X138167809Y-142186380D01*
X138148761Y-142205428D01*
X138110666Y-142224476D01*
X137958285Y-142224476D01*
X138339238Y-142053047D02*
X138358285Y-142034000D01*
X138396380Y-142014952D01*
X138491619Y-142014952D01*
X138529714Y-142034000D01*
X138548761Y-142053047D01*
X138567809Y-142091142D01*
X138567809Y-142129238D01*
X138548761Y-142186380D01*
X138320190Y-142414952D01*
X138567809Y-142414952D01*
X138701142Y-142014952D02*
X138948761Y-142014952D01*
X138815428Y-142167333D01*
X138872571Y-142167333D01*
X138910666Y-142186380D01*
X138929714Y-142205428D01*
X138948761Y-142243523D01*
X138948761Y-142338761D01*
X138929714Y-142376857D01*
X138910666Y-142395904D01*
X138872571Y-142414952D01*
X138758285Y-142414952D01*
X138720190Y-142395904D01*
X138701142Y-142376857D01*
X129554357Y-107330952D02*
X129421023Y-107140476D01*
X129325785Y-107330952D02*
X129325785Y-106930952D01*
X129478166Y-106930952D01*
X129516261Y-106950000D01*
X129535309Y-106969047D01*
X129554357Y-107007142D01*
X129554357Y-107064285D01*
X129535309Y-107102380D01*
X129516261Y-107121428D01*
X129478166Y-107140476D01*
X129325785Y-107140476D01*
X129935309Y-107330952D02*
X129706738Y-107330952D01*
X129821023Y-107330952D02*
X129821023Y-106930952D01*
X129782928Y-106988095D01*
X129744833Y-107026190D01*
X129706738Y-107045238D01*
X130163880Y-107102380D02*
X130125785Y-107083333D01*
X130106738Y-107064285D01*
X130087690Y-107026190D01*
X130087690Y-107007142D01*
X130106738Y-106969047D01*
X130125785Y-106950000D01*
X130163880Y-106930952D01*
X130240071Y-106930952D01*
X130278166Y-106950000D01*
X130297214Y-106969047D01*
X130316261Y-107007142D01*
X130316261Y-107026190D01*
X130297214Y-107064285D01*
X130278166Y-107083333D01*
X130240071Y-107102380D01*
X130163880Y-107102380D01*
X130125785Y-107121428D01*
X130106738Y-107140476D01*
X130087690Y-107178571D01*
X130087690Y-107254761D01*
X130106738Y-107292857D01*
X130125785Y-107311904D01*
X130163880Y-107330952D01*
X130240071Y-107330952D01*
X130278166Y-107311904D01*
X130297214Y-107292857D01*
X130316261Y-107254761D01*
X130316261Y-107178571D01*
X130297214Y-107140476D01*
X130278166Y-107121428D01*
X130240071Y-107102380D01*
X136021857Y-108854666D02*
X136040904Y-108873714D01*
X136059952Y-108930857D01*
X136059952Y-108968952D01*
X136040904Y-109026095D01*
X136002809Y-109064190D01*
X135964714Y-109083238D01*
X135888523Y-109102285D01*
X135831380Y-109102285D01*
X135755190Y-109083238D01*
X135717095Y-109064190D01*
X135679000Y-109026095D01*
X135659952Y-108968952D01*
X135659952Y-108930857D01*
X135679000Y-108873714D01*
X135698047Y-108854666D01*
X135831380Y-108626095D02*
X135812333Y-108664190D01*
X135793285Y-108683238D01*
X135755190Y-108702285D01*
X135736142Y-108702285D01*
X135698047Y-108683238D01*
X135679000Y-108664190D01*
X135659952Y-108626095D01*
X135659952Y-108549904D01*
X135679000Y-108511809D01*
X135698047Y-108492761D01*
X135736142Y-108473714D01*
X135755190Y-108473714D01*
X135793285Y-108492761D01*
X135812333Y-108511809D01*
X135831380Y-108549904D01*
X135831380Y-108626095D01*
X135850428Y-108664190D01*
X135869476Y-108683238D01*
X135907571Y-108702285D01*
X135983761Y-108702285D01*
X136021857Y-108683238D01*
X136040904Y-108664190D01*
X136059952Y-108626095D01*
X136059952Y-108549904D01*
X136040904Y-108511809D01*
X136021857Y-108492761D01*
X135983761Y-108473714D01*
X135907571Y-108473714D01*
X135869476Y-108492761D01*
X135850428Y-108511809D01*
X135831380Y-108549904D01*
X138199857Y-119062857D02*
X138180809Y-119081904D01*
X138123666Y-119100952D01*
X138085571Y-119100952D01*
X138028428Y-119081904D01*
X137990333Y-119043809D01*
X137971285Y-119005714D01*
X137952238Y-118929523D01*
X137952238Y-118872380D01*
X137971285Y-118796190D01*
X137990333Y-118758095D01*
X138028428Y-118720000D01*
X138085571Y-118700952D01*
X138123666Y-118700952D01*
X138180809Y-118720000D01*
X138199857Y-118739047D01*
X138352238Y-118739047D02*
X138371285Y-118720000D01*
X138409380Y-118700952D01*
X138504619Y-118700952D01*
X138542714Y-118720000D01*
X138561761Y-118739047D01*
X138580809Y-118777142D01*
X138580809Y-118815238D01*
X138561761Y-118872380D01*
X138333190Y-119100952D01*
X138580809Y-119100952D01*
X138809380Y-118872380D02*
X138771285Y-118853333D01*
X138752238Y-118834285D01*
X138733190Y-118796190D01*
X138733190Y-118777142D01*
X138752238Y-118739047D01*
X138771285Y-118720000D01*
X138809380Y-118700952D01*
X138885571Y-118700952D01*
X138923666Y-118720000D01*
X138942714Y-118739047D01*
X138961761Y-118777142D01*
X138961761Y-118796190D01*
X138942714Y-118834285D01*
X138923666Y-118853333D01*
X138885571Y-118872380D01*
X138809380Y-118872380D01*
X138771285Y-118891428D01*
X138752238Y-118910476D01*
X138733190Y-118948571D01*
X138733190Y-119024761D01*
X138752238Y-119062857D01*
X138771285Y-119081904D01*
X138809380Y-119100952D01*
X138885571Y-119100952D01*
X138923666Y-119081904D01*
X138942714Y-119062857D01*
X138961761Y-119024761D01*
X138961761Y-118948571D01*
X138942714Y-118910476D01*
X138923666Y-118891428D01*
X138885571Y-118872380D01*
X138186857Y-110487857D02*
X138167809Y-110506904D01*
X138110666Y-110525952D01*
X138072571Y-110525952D01*
X138015428Y-110506904D01*
X137977333Y-110468809D01*
X137958285Y-110430714D01*
X137939238Y-110354523D01*
X137939238Y-110297380D01*
X137958285Y-110221190D01*
X137977333Y-110183095D01*
X138015428Y-110145000D01*
X138072571Y-110125952D01*
X138110666Y-110125952D01*
X138167809Y-110145000D01*
X138186857Y-110164047D01*
X138339238Y-110164047D02*
X138358285Y-110145000D01*
X138396380Y-110125952D01*
X138491619Y-110125952D01*
X138529714Y-110145000D01*
X138548761Y-110164047D01*
X138567809Y-110202142D01*
X138567809Y-110240238D01*
X138548761Y-110297380D01*
X138320190Y-110525952D01*
X138567809Y-110525952D01*
X138758285Y-110525952D02*
X138834476Y-110525952D01*
X138872571Y-110506904D01*
X138891619Y-110487857D01*
X138929714Y-110430714D01*
X138948761Y-110354523D01*
X138948761Y-110202142D01*
X138929714Y-110164047D01*
X138910666Y-110145000D01*
X138872571Y-110125952D01*
X138796380Y-110125952D01*
X138758285Y-110145000D01*
X138739238Y-110164047D01*
X138720190Y-110202142D01*
X138720190Y-110297380D01*
X138739238Y-110335476D01*
X138758285Y-110354523D01*
X138796380Y-110373571D01*
X138872571Y-110373571D01*
X138910666Y-110354523D01*
X138929714Y-110335476D01*
X138948761Y-110297380D01*
D11*
X141477380Y-127813333D02*
X142191666Y-127813333D01*
X142334523Y-127860952D01*
X142429761Y-127956190D01*
X142477380Y-128099047D01*
X142477380Y-128194285D01*
X141810714Y-126908571D02*
X142477380Y-126908571D01*
X141429761Y-127146666D02*
X142144047Y-127384761D01*
X142144047Y-126765714D01*
D14*
X141290952Y-40757142D02*
X141100476Y-40890476D01*
X141290952Y-40985714D02*
X140890952Y-40985714D01*
X140890952Y-40833333D01*
X140910000Y-40795238D01*
X140929047Y-40776190D01*
X140967142Y-40757142D01*
X141024285Y-40757142D01*
X141062380Y-40776190D01*
X141081428Y-40795238D01*
X141100476Y-40833333D01*
X141100476Y-40985714D01*
X140890952Y-40395238D02*
X140890952Y-40585714D01*
X141081428Y-40604761D01*
X141062380Y-40585714D01*
X141043333Y-40547619D01*
X141043333Y-40452380D01*
X141062380Y-40414285D01*
X141081428Y-40395238D01*
X141119523Y-40376190D01*
X141214761Y-40376190D01*
X141252857Y-40395238D01*
X141271904Y-40414285D01*
X141290952Y-40452380D01*
X141290952Y-40547619D01*
X141271904Y-40585714D01*
X141252857Y-40604761D01*
X140890952Y-40014285D02*
X140890952Y-40204761D01*
X141081428Y-40223809D01*
X141062380Y-40204761D01*
X141043333Y-40166666D01*
X141043333Y-40071428D01*
X141062380Y-40033333D01*
X141081428Y-40014285D01*
X141119523Y-39995238D01*
X141214761Y-39995238D01*
X141252857Y-40014285D01*
X141271904Y-40033333D01*
X141290952Y-40071428D01*
X141290952Y-40166666D01*
X141271904Y-40204761D01*
X141252857Y-40223809D01*
X129579357Y-132862952D02*
X129446023Y-132672476D01*
X129350785Y-132862952D02*
X129350785Y-132462952D01*
X129503166Y-132462952D01*
X129541261Y-132482000D01*
X129560309Y-132501047D01*
X129579357Y-132539142D01*
X129579357Y-132596285D01*
X129560309Y-132634380D01*
X129541261Y-132653428D01*
X129503166Y-132672476D01*
X129350785Y-132672476D01*
X129960309Y-132862952D02*
X129731738Y-132862952D01*
X129846023Y-132862952D02*
X129846023Y-132462952D01*
X129807928Y-132520095D01*
X129769833Y-132558190D01*
X129731738Y-132577238D01*
X130303166Y-132596285D02*
X130303166Y-132862952D01*
X130207928Y-132443904D02*
X130112690Y-132729619D01*
X130360309Y-132729619D01*
D11*
X141477380Y-119273333D02*
X142191666Y-119273333D01*
X142334523Y-119320952D01*
X142429761Y-119416190D01*
X142477380Y-119559047D01*
X142477380Y-119654285D01*
X141477380Y-118320952D02*
X141477380Y-118797142D01*
X141953571Y-118844761D01*
X141905952Y-118797142D01*
X141858333Y-118701904D01*
X141858333Y-118463809D01*
X141905952Y-118368571D01*
X141953571Y-118320952D01*
X142048809Y-118273333D01*
X142286904Y-118273333D01*
X142382142Y-118320952D01*
X142429761Y-118368571D01*
X142477380Y-118463809D01*
X142477380Y-118701904D01*
X142429761Y-118797142D01*
X142382142Y-118844761D01*
X127438095Y-47452380D02*
X127438095Y-46452380D01*
X127438095Y-46928571D02*
X128009523Y-46928571D01*
X128009523Y-47452380D02*
X128009523Y-46452380D01*
X129009523Y-47452380D02*
X128438095Y-47452380D01*
X128723809Y-47452380D02*
X128723809Y-46452380D01*
X128628571Y-46595238D01*
X128533333Y-46690476D01*
X128438095Y-46738095D01*
D14*
X132918857Y-124173857D02*
X132899809Y-124192904D01*
X132842666Y-124211952D01*
X132804571Y-124211952D01*
X132747428Y-124192904D01*
X132709333Y-124154809D01*
X132690285Y-124116714D01*
X132671238Y-124040523D01*
X132671238Y-123983380D01*
X132690285Y-123907190D01*
X132709333Y-123869095D01*
X132747428Y-123831000D01*
X132804571Y-123811952D01*
X132842666Y-123811952D01*
X132899809Y-123831000D01*
X132918857Y-123850047D01*
X133299809Y-124211952D02*
X133071238Y-124211952D01*
X133185523Y-124211952D02*
X133185523Y-123811952D01*
X133147428Y-123869095D01*
X133109333Y-123907190D01*
X133071238Y-123926238D01*
X133433142Y-123811952D02*
X133699809Y-123811952D01*
X133528380Y-124211952D01*
X138352333Y-108219952D02*
X138219000Y-108029476D01*
X138123761Y-108219952D02*
X138123761Y-107819952D01*
X138276142Y-107819952D01*
X138314238Y-107839000D01*
X138333285Y-107858047D01*
X138352333Y-107896142D01*
X138352333Y-107953285D01*
X138333285Y-107991380D01*
X138314238Y-108010428D01*
X138276142Y-108029476D01*
X138123761Y-108029476D01*
X138714238Y-107819952D02*
X138523761Y-107819952D01*
X138504714Y-108010428D01*
X138523761Y-107991380D01*
X138561857Y-107972333D01*
X138657095Y-107972333D01*
X138695190Y-107991380D01*
X138714238Y-108010428D01*
X138733285Y-108048523D01*
X138733285Y-108143761D01*
X138714238Y-108181857D01*
X138695190Y-108200904D01*
X138657095Y-108219952D01*
X138561857Y-108219952D01*
X138523761Y-108200904D01*
X138504714Y-108181857D01*
X136071857Y-129063666D02*
X136090904Y-129082714D01*
X136109952Y-129139857D01*
X136109952Y-129177952D01*
X136090904Y-129235095D01*
X136052809Y-129273190D01*
X136014714Y-129292238D01*
X135938523Y-129311285D01*
X135881380Y-129311285D01*
X135805190Y-129292238D01*
X135767095Y-129273190D01*
X135729000Y-129235095D01*
X135709952Y-129177952D01*
X135709952Y-129139857D01*
X135729000Y-129082714D01*
X135748047Y-129063666D01*
X135843285Y-128720809D02*
X136109952Y-128720809D01*
X135690904Y-128816047D02*
X135976619Y-128911285D01*
X135976619Y-128663666D01*
D11*
X133516666Y-74764285D02*
X133516666Y-74288095D01*
X133802380Y-74859523D02*
X132802380Y-74526190D01*
X133802380Y-74192857D01*
X133802380Y-73335714D02*
X133802380Y-73907142D01*
X133802380Y-73621428D02*
X132802380Y-73621428D01*
X132945238Y-73716666D01*
X133040476Y-73811904D01*
X133088095Y-73907142D01*
D14*
X136046857Y-134386666D02*
X136065904Y-134405714D01*
X136084952Y-134462857D01*
X136084952Y-134500952D01*
X136065904Y-134558095D01*
X136027809Y-134596190D01*
X135989714Y-134615238D01*
X135913523Y-134634285D01*
X135856380Y-134634285D01*
X135780190Y-134615238D01*
X135742095Y-134596190D01*
X135704000Y-134558095D01*
X135684952Y-134500952D01*
X135684952Y-134462857D01*
X135704000Y-134405714D01*
X135723047Y-134386666D01*
X135723047Y-134234285D02*
X135704000Y-134215238D01*
X135684952Y-134177142D01*
X135684952Y-134081904D01*
X135704000Y-134043809D01*
X135723047Y-134024761D01*
X135761142Y-134005714D01*
X135799238Y-134005714D01*
X135856380Y-134024761D01*
X136084952Y-134253333D01*
X136084952Y-134005714D01*
D11*
X141477380Y-136210333D02*
X142191666Y-136210333D01*
X142334523Y-136257952D01*
X142429761Y-136353190D01*
X142477380Y-136496047D01*
X142477380Y-136591285D01*
X141477380Y-135829380D02*
X141477380Y-135210333D01*
X141858333Y-135543666D01*
X141858333Y-135400809D01*
X141905952Y-135305571D01*
X141953571Y-135257952D01*
X142048809Y-135210333D01*
X142286904Y-135210333D01*
X142382142Y-135257952D01*
X142429761Y-135305571D01*
X142477380Y-135400809D01*
X142477380Y-135686523D01*
X142429761Y-135781761D01*
X142382142Y-135829380D01*
X130131333Y-135828333D02*
X130131333Y-136621666D01*
X130178000Y-136715000D01*
X130224666Y-136761666D01*
X130318000Y-136808333D01*
X130504666Y-136808333D01*
X130598000Y-136761666D01*
X130644666Y-136715000D01*
X130691333Y-136621666D01*
X130691333Y-135828333D01*
X131111333Y-135921666D02*
X131158000Y-135875000D01*
X131251333Y-135828333D01*
X131484666Y-135828333D01*
X131578000Y-135875000D01*
X131624666Y-135921666D01*
X131671333Y-136015000D01*
X131671333Y-136108333D01*
X131624666Y-136248333D01*
X131064666Y-136808333D01*
X131671333Y-136808333D01*
D14*
X138402333Y-125100952D02*
X138269000Y-124910476D01*
X138173761Y-125100952D02*
X138173761Y-124700952D01*
X138326142Y-124700952D01*
X138364238Y-124720000D01*
X138383285Y-124739047D01*
X138402333Y-124777142D01*
X138402333Y-124834285D01*
X138383285Y-124872380D01*
X138364238Y-124891428D01*
X138326142Y-124910476D01*
X138173761Y-124910476D01*
X138783285Y-125100952D02*
X138554714Y-125100952D01*
X138669000Y-125100952D02*
X138669000Y-124700952D01*
X138630904Y-124758095D01*
X138592809Y-124796190D01*
X138554714Y-124815238D01*
X138186857Y-133751952D02*
X138053523Y-133561476D01*
X137958285Y-133751952D02*
X137958285Y-133351952D01*
X138110666Y-133351952D01*
X138148761Y-133371000D01*
X138167809Y-133390047D01*
X138186857Y-133428142D01*
X138186857Y-133485285D01*
X138167809Y-133523380D01*
X138148761Y-133542428D01*
X138110666Y-133561476D01*
X137958285Y-133561476D01*
X138567809Y-133751952D02*
X138339238Y-133751952D01*
X138453523Y-133751952D02*
X138453523Y-133351952D01*
X138415428Y-133409095D01*
X138377333Y-133447190D01*
X138339238Y-133466238D01*
X138701142Y-133351952D02*
X138948761Y-133351952D01*
X138815428Y-133504333D01*
X138872571Y-133504333D01*
X138910666Y-133523380D01*
X138929714Y-133542428D01*
X138948761Y-133580523D01*
X138948761Y-133675761D01*
X138929714Y-133713857D01*
X138910666Y-133732904D01*
X138872571Y-133751952D01*
X138758285Y-133751952D01*
X138720190Y-133732904D01*
X138701142Y-133713857D01*
X138199857Y-144662857D02*
X138180809Y-144681904D01*
X138123666Y-144700952D01*
X138085571Y-144700952D01*
X138028428Y-144681904D01*
X137990333Y-144643809D01*
X137971285Y-144605714D01*
X137952238Y-144529523D01*
X137952238Y-144472380D01*
X137971285Y-144396190D01*
X137990333Y-144358095D01*
X138028428Y-144320000D01*
X138085571Y-144300952D01*
X138123666Y-144300952D01*
X138180809Y-144320000D01*
X138199857Y-144339047D01*
X138352238Y-144339047D02*
X138371285Y-144320000D01*
X138409380Y-144300952D01*
X138504619Y-144300952D01*
X138542714Y-144320000D01*
X138561761Y-144339047D01*
X138580809Y-144377142D01*
X138580809Y-144415238D01*
X138561761Y-144472380D01*
X138333190Y-144700952D01*
X138580809Y-144700952D01*
X138942714Y-144300952D02*
X138752238Y-144300952D01*
X138733190Y-144491428D01*
X138752238Y-144472380D01*
X138790333Y-144453333D01*
X138885571Y-144453333D01*
X138923666Y-144472380D01*
X138942714Y-144491428D01*
X138961761Y-144529523D01*
X138961761Y-144624761D01*
X138942714Y-144662857D01*
X138923666Y-144681904D01*
X138885571Y-144700952D01*
X138790333Y-144700952D01*
X138752238Y-144681904D01*
X138733190Y-144662857D01*
X136046857Y-117449666D02*
X136065904Y-117468714D01*
X136084952Y-117525857D01*
X136084952Y-117563952D01*
X136065904Y-117621095D01*
X136027809Y-117659190D01*
X135989714Y-117678238D01*
X135913523Y-117697285D01*
X135856380Y-117697285D01*
X135780190Y-117678238D01*
X135742095Y-117659190D01*
X135704000Y-117621095D01*
X135684952Y-117563952D01*
X135684952Y-117525857D01*
X135704000Y-117468714D01*
X135723047Y-117449666D01*
X135684952Y-117087761D02*
X135684952Y-117278238D01*
X135875428Y-117297285D01*
X135856380Y-117278238D01*
X135837333Y-117240142D01*
X135837333Y-117144904D01*
X135856380Y-117106809D01*
X135875428Y-117087761D01*
X135913523Y-117068714D01*
X136008761Y-117068714D01*
X136046857Y-117087761D01*
X136065904Y-117106809D01*
X136084952Y-117144904D01*
X136084952Y-117240142D01*
X136065904Y-117278238D01*
X136046857Y-117297285D01*
D11*
X130131333Y-118891333D02*
X130131333Y-119684666D01*
X130178000Y-119778000D01*
X130224666Y-119824666D01*
X130318000Y-119871333D01*
X130504666Y-119871333D01*
X130598000Y-119824666D01*
X130644666Y-119778000D01*
X130691333Y-119684666D01*
X130691333Y-118891333D01*
X131578000Y-119218000D02*
X131578000Y-119871333D01*
X131344666Y-118844666D02*
X131111333Y-119544666D01*
X131718000Y-119544666D01*
X141452380Y-144853333D02*
X142166666Y-144853333D01*
X142309523Y-144900952D01*
X142404761Y-144996190D01*
X142452380Y-145139047D01*
X142452380Y-145234285D01*
X141547619Y-144424761D02*
X141500000Y-144377142D01*
X141452380Y-144281904D01*
X141452380Y-144043809D01*
X141500000Y-143948571D01*
X141547619Y-143900952D01*
X141642857Y-143853333D01*
X141738095Y-143853333D01*
X141880952Y-143900952D01*
X142452380Y-144472380D01*
X142452380Y-143853333D01*
X141477380Y-110698333D02*
X142191666Y-110698333D01*
X142334523Y-110745952D01*
X142429761Y-110841190D01*
X142477380Y-110984047D01*
X142477380Y-111079285D01*
X141477380Y-109793571D02*
X141477380Y-109984047D01*
X141525000Y-110079285D01*
X141572619Y-110126904D01*
X141715476Y-110222142D01*
X141905952Y-110269761D01*
X142286904Y-110269761D01*
X142382142Y-110222142D01*
X142429761Y-110174523D01*
X142477380Y-110079285D01*
X142477380Y-109888809D01*
X142429761Y-109793571D01*
X142382142Y-109745952D01*
X142286904Y-109698333D01*
X142048809Y-109698333D01*
X141953571Y-109745952D01*
X141905952Y-109793571D01*
X141858333Y-109888809D01*
X141858333Y-110079285D01*
X141905952Y-110174523D01*
X141953571Y-110222142D01*
X142048809Y-110269761D01*
D14*
X136021857Y-112182666D02*
X136040904Y-112201714D01*
X136059952Y-112258857D01*
X136059952Y-112296952D01*
X136040904Y-112354095D01*
X136002809Y-112392190D01*
X135964714Y-112411238D01*
X135888523Y-112430285D01*
X135831380Y-112430285D01*
X135755190Y-112411238D01*
X135717095Y-112392190D01*
X135679000Y-112354095D01*
X135659952Y-112296952D01*
X135659952Y-112258857D01*
X135679000Y-112201714D01*
X135698047Y-112182666D01*
X136059952Y-111992190D02*
X136059952Y-111916000D01*
X136040904Y-111877904D01*
X136021857Y-111858857D01*
X135964714Y-111820761D01*
X135888523Y-111801714D01*
X135736142Y-111801714D01*
X135698047Y-111820761D01*
X135679000Y-111839809D01*
X135659952Y-111877904D01*
X135659952Y-111954095D01*
X135679000Y-111992190D01*
X135698047Y-112011238D01*
X135736142Y-112030285D01*
X135831380Y-112030285D01*
X135869476Y-112011238D01*
X135888523Y-111992190D01*
X135907571Y-111954095D01*
X135907571Y-111877904D01*
X135888523Y-111839809D01*
X135869476Y-111820761D01*
X135831380Y-111801714D01*
X138326833Y-113045952D02*
X138193500Y-112855476D01*
X138098261Y-113045952D02*
X138098261Y-112645952D01*
X138250642Y-112645952D01*
X138288738Y-112665000D01*
X138307785Y-112684047D01*
X138326833Y-112722142D01*
X138326833Y-112779285D01*
X138307785Y-112817380D01*
X138288738Y-112836428D01*
X138250642Y-112855476D01*
X138098261Y-112855476D01*
X138669690Y-112645952D02*
X138593500Y-112645952D01*
X138555404Y-112665000D01*
X138536357Y-112684047D01*
X138498261Y-112741190D01*
X138479214Y-112817380D01*
X138479214Y-112969761D01*
X138498261Y-113007857D01*
X138517309Y-113026904D01*
X138555404Y-113045952D01*
X138631595Y-113045952D01*
X138669690Y-113026904D01*
X138688738Y-113007857D01*
X138707785Y-112969761D01*
X138707785Y-112874523D01*
X138688738Y-112836428D01*
X138669690Y-112817380D01*
X138631595Y-112798333D01*
X138555404Y-112798333D01*
X138517309Y-112817380D01*
X138498261Y-112836428D01*
X138479214Y-112874523D01*
X139420952Y-40787142D02*
X139230476Y-40920476D01*
X139420952Y-41015714D02*
X139020952Y-41015714D01*
X139020952Y-40863333D01*
X139040000Y-40825238D01*
X139059047Y-40806190D01*
X139097142Y-40787142D01*
X139154285Y-40787142D01*
X139192380Y-40806190D01*
X139211428Y-40825238D01*
X139230476Y-40863333D01*
X139230476Y-41015714D01*
X139020952Y-40425238D02*
X139020952Y-40615714D01*
X139211428Y-40634761D01*
X139192380Y-40615714D01*
X139173333Y-40577619D01*
X139173333Y-40482380D01*
X139192380Y-40444285D01*
X139211428Y-40425238D01*
X139249523Y-40406190D01*
X139344761Y-40406190D01*
X139382857Y-40425238D01*
X139401904Y-40444285D01*
X139420952Y-40482380D01*
X139420952Y-40577619D01*
X139401904Y-40615714D01*
X139382857Y-40634761D01*
X139020952Y-40063333D02*
X139020952Y-40139523D01*
X139040000Y-40177619D01*
X139059047Y-40196666D01*
X139116190Y-40234761D01*
X139192380Y-40253809D01*
X139344761Y-40253809D01*
X139382857Y-40234761D01*
X139401904Y-40215714D01*
X139420952Y-40177619D01*
X139420952Y-40101428D01*
X139401904Y-40063333D01*
X139382857Y-40044285D01*
X139344761Y-40025238D01*
X139249523Y-40025238D01*
X139211428Y-40044285D01*
X139192380Y-40063333D01*
X139173333Y-40101428D01*
X139173333Y-40177619D01*
X139192380Y-40215714D01*
X139211428Y-40234761D01*
X139249523Y-40253809D01*
X129579357Y-141525952D02*
X129446023Y-141335476D01*
X129350785Y-141525952D02*
X129350785Y-141125952D01*
X129503166Y-141125952D01*
X129541261Y-141145000D01*
X129560309Y-141164047D01*
X129579357Y-141202142D01*
X129579357Y-141259285D01*
X129560309Y-141297380D01*
X129541261Y-141316428D01*
X129503166Y-141335476D01*
X129350785Y-141335476D01*
X129731738Y-141164047D02*
X129750785Y-141145000D01*
X129788880Y-141125952D01*
X129884119Y-141125952D01*
X129922214Y-141145000D01*
X129941261Y-141164047D01*
X129960309Y-141202142D01*
X129960309Y-141240238D01*
X129941261Y-141297380D01*
X129712690Y-141525952D01*
X129960309Y-141525952D01*
X130207928Y-141125952D02*
X130246023Y-141125952D01*
X130284119Y-141145000D01*
X130303166Y-141164047D01*
X130322214Y-141202142D01*
X130341261Y-141278333D01*
X130341261Y-141373571D01*
X130322214Y-141449761D01*
X130303166Y-141487857D01*
X130284119Y-141506904D01*
X130246023Y-141525952D01*
X130207928Y-141525952D01*
X130169833Y-141506904D01*
X130150785Y-141487857D01*
X130131738Y-141449761D01*
X130112690Y-141373571D01*
X130112690Y-141278333D01*
X130131738Y-141202142D01*
X130150785Y-141164047D01*
X130169833Y-141145000D01*
X130207928Y-141125952D01*
X138351833Y-121640952D02*
X138218500Y-121450476D01*
X138123261Y-121640952D02*
X138123261Y-121240952D01*
X138275642Y-121240952D01*
X138313738Y-121260000D01*
X138332785Y-121279047D01*
X138351833Y-121317142D01*
X138351833Y-121374285D01*
X138332785Y-121412380D01*
X138313738Y-121431428D01*
X138275642Y-121450476D01*
X138123261Y-121450476D01*
X138694690Y-121374285D02*
X138694690Y-121640952D01*
X138599452Y-121221904D02*
X138504214Y-121507619D01*
X138751833Y-121507619D01*
X138161357Y-138577952D02*
X138028023Y-138387476D01*
X137932785Y-138577952D02*
X137932785Y-138177952D01*
X138085166Y-138177952D01*
X138123261Y-138197000D01*
X138142309Y-138216047D01*
X138161357Y-138254142D01*
X138161357Y-138311285D01*
X138142309Y-138349380D01*
X138123261Y-138368428D01*
X138085166Y-138387476D01*
X137932785Y-138387476D01*
X138542309Y-138577952D02*
X138313738Y-138577952D01*
X138428023Y-138577952D02*
X138428023Y-138177952D01*
X138389928Y-138235095D01*
X138351833Y-138273190D01*
X138313738Y-138292238D01*
X138904214Y-138177952D02*
X138713738Y-138177952D01*
X138694690Y-138368428D01*
X138713738Y-138349380D01*
X138751833Y-138330333D01*
X138847071Y-138330333D01*
X138885166Y-138349380D01*
X138904214Y-138368428D01*
X138923261Y-138406523D01*
X138923261Y-138501761D01*
X138904214Y-138539857D01*
X138885166Y-138558904D01*
X138847071Y-138577952D01*
X138751833Y-138577952D01*
X138713738Y-138558904D01*
X138694690Y-138539857D01*
X138161357Y-147240952D02*
X138028023Y-147050476D01*
X137932785Y-147240952D02*
X137932785Y-146840952D01*
X138085166Y-146840952D01*
X138123261Y-146860000D01*
X138142309Y-146879047D01*
X138161357Y-146917142D01*
X138161357Y-146974285D01*
X138142309Y-147012380D01*
X138123261Y-147031428D01*
X138085166Y-147050476D01*
X137932785Y-147050476D01*
X138313738Y-146879047D02*
X138332785Y-146860000D01*
X138370880Y-146840952D01*
X138466119Y-146840952D01*
X138504214Y-146860000D01*
X138523261Y-146879047D01*
X138542309Y-146917142D01*
X138542309Y-146955238D01*
X138523261Y-147012380D01*
X138294690Y-147240952D01*
X138542309Y-147240952D01*
X138885166Y-146974285D02*
X138885166Y-147240952D01*
X138789928Y-146821904D02*
X138694690Y-147107619D01*
X138942309Y-147107619D01*
X138376833Y-129926952D02*
X138243500Y-129736476D01*
X138148261Y-129926952D02*
X138148261Y-129526952D01*
X138300642Y-129526952D01*
X138338738Y-129546000D01*
X138357785Y-129565047D01*
X138376833Y-129603142D01*
X138376833Y-129660285D01*
X138357785Y-129698380D01*
X138338738Y-129717428D01*
X138300642Y-129736476D01*
X138148261Y-129736476D01*
X138529214Y-129565047D02*
X138548261Y-129546000D01*
X138586357Y-129526952D01*
X138681595Y-129526952D01*
X138719690Y-129546000D01*
X138738738Y-129565047D01*
X138757785Y-129603142D01*
X138757785Y-129641238D01*
X138738738Y-129698380D01*
X138510166Y-129926952D01*
X138757785Y-129926952D01*
X138199857Y-135999857D02*
X138180809Y-136018904D01*
X138123666Y-136037952D01*
X138085571Y-136037952D01*
X138028428Y-136018904D01*
X137990333Y-135980809D01*
X137971285Y-135942714D01*
X137952238Y-135866523D01*
X137952238Y-135809380D01*
X137971285Y-135733190D01*
X137990333Y-135695095D01*
X138028428Y-135657000D01*
X138085571Y-135637952D01*
X138123666Y-135637952D01*
X138180809Y-135657000D01*
X138199857Y-135676047D01*
X138352238Y-135676047D02*
X138371285Y-135657000D01*
X138409380Y-135637952D01*
X138504619Y-135637952D01*
X138542714Y-135657000D01*
X138561761Y-135676047D01*
X138580809Y-135714142D01*
X138580809Y-135752238D01*
X138561761Y-135809380D01*
X138333190Y-136037952D01*
X138580809Y-136037952D01*
X138714142Y-135637952D02*
X138980809Y-135637952D01*
X138809380Y-136037952D01*
D11*
X130106333Y-110296333D02*
X130106333Y-111089666D01*
X130153000Y-111183000D01*
X130199666Y-111229666D01*
X130293000Y-111276333D01*
X130479666Y-111276333D01*
X130573000Y-111229666D01*
X130619666Y-111183000D01*
X130666333Y-111089666D01*
X130666333Y-110296333D01*
X131599666Y-110296333D02*
X131133000Y-110296333D01*
X131086333Y-110763000D01*
X131133000Y-110716333D01*
X131226333Y-110669666D01*
X131459666Y-110669666D01*
X131553000Y-110716333D01*
X131599666Y-110763000D01*
X131646333Y-110856333D01*
X131646333Y-111089666D01*
X131599666Y-111183000D01*
X131553000Y-111229666D01*
X131459666Y-111276333D01*
X131226333Y-111276333D01*
X131133000Y-111229666D01*
X131086333Y-111183000D01*
D14*
X136180952Y-45257142D02*
X135990476Y-45390476D01*
X136180952Y-45485714D02*
X135780952Y-45485714D01*
X135780952Y-45333333D01*
X135800000Y-45295238D01*
X135819047Y-45276190D01*
X135857142Y-45257142D01*
X135914285Y-45257142D01*
X135952380Y-45276190D01*
X135971428Y-45295238D01*
X135990476Y-45333333D01*
X135990476Y-45485714D01*
X135780952Y-44895238D02*
X135780952Y-45085714D01*
X135971428Y-45104761D01*
X135952380Y-45085714D01*
X135933333Y-45047619D01*
X135933333Y-44952380D01*
X135952380Y-44914285D01*
X135971428Y-44895238D01*
X136009523Y-44876190D01*
X136104761Y-44876190D01*
X136142857Y-44895238D01*
X136161904Y-44914285D01*
X136180952Y-44952380D01*
X136180952Y-45047619D01*
X136161904Y-45085714D01*
X136142857Y-45104761D01*
X135780952Y-44742857D02*
X135780952Y-44495238D01*
X135933333Y-44628571D01*
X135933333Y-44571428D01*
X135952380Y-44533333D01*
X135971428Y-44514285D01*
X136009523Y-44495238D01*
X136104761Y-44495238D01*
X136142857Y-44514285D01*
X136161904Y-44533333D01*
X136180952Y-44571428D01*
X136180952Y-44685714D01*
X136161904Y-44723809D01*
X136142857Y-44742857D01*
X132893857Y-132824857D02*
X132874809Y-132843904D01*
X132817666Y-132862952D01*
X132779571Y-132862952D01*
X132722428Y-132843904D01*
X132684333Y-132805809D01*
X132665285Y-132767714D01*
X132646238Y-132691523D01*
X132646238Y-132634380D01*
X132665285Y-132558190D01*
X132684333Y-132520095D01*
X132722428Y-132482000D01*
X132779571Y-132462952D01*
X132817666Y-132462952D01*
X132874809Y-132482000D01*
X132893857Y-132501047D01*
X133274809Y-132862952D02*
X133046238Y-132862952D01*
X133160523Y-132862952D02*
X133160523Y-132462952D01*
X133122428Y-132520095D01*
X133084333Y-132558190D01*
X133046238Y-132577238D01*
X133617666Y-132462952D02*
X133541476Y-132462952D01*
X133503380Y-132482000D01*
X133484333Y-132501047D01*
X133446238Y-132558190D01*
X133427190Y-132634380D01*
X133427190Y-132786761D01*
X133446238Y-132824857D01*
X133465285Y-132843904D01*
X133503380Y-132862952D01*
X133579571Y-132862952D01*
X133617666Y-132843904D01*
X133636714Y-132824857D01*
X133655761Y-132786761D01*
X133655761Y-132691523D01*
X133636714Y-132653428D01*
X133617666Y-132634380D01*
X133579571Y-132615333D01*
X133503380Y-132615333D01*
X133465285Y-132634380D01*
X133446238Y-132653428D01*
X133427190Y-132691523D01*
X132868857Y-107292857D02*
X132849809Y-107311904D01*
X132792666Y-107330952D01*
X132754571Y-107330952D01*
X132697428Y-107311904D01*
X132659333Y-107273809D01*
X132640285Y-107235714D01*
X132621238Y-107159523D01*
X132621238Y-107102380D01*
X132640285Y-107026190D01*
X132659333Y-106988095D01*
X132697428Y-106950000D01*
X132754571Y-106930952D01*
X132792666Y-106930952D01*
X132849809Y-106950000D01*
X132868857Y-106969047D01*
X133249809Y-107330952D02*
X133021238Y-107330952D01*
X133135523Y-107330952D02*
X133135523Y-106930952D01*
X133097428Y-106988095D01*
X133059333Y-107026190D01*
X133021238Y-107045238D01*
X133440285Y-107330952D02*
X133516476Y-107330952D01*
X133554571Y-107311904D01*
X133573619Y-107292857D01*
X133611714Y-107235714D01*
X133630761Y-107159523D01*
X133630761Y-107007142D01*
X133611714Y-106969047D01*
X133592666Y-106950000D01*
X133554571Y-106930952D01*
X133478380Y-106930952D01*
X133440285Y-106950000D01*
X133421238Y-106969047D01*
X133402190Y-107007142D01*
X133402190Y-107102380D01*
X133421238Y-107140476D01*
X133440285Y-107159523D01*
X133478380Y-107178571D01*
X133554571Y-107178571D01*
X133592666Y-107159523D01*
X133611714Y-107140476D01*
X133630761Y-107102380D01*
X129579357Y-115930952D02*
X129446023Y-115740476D01*
X129350785Y-115930952D02*
X129350785Y-115530952D01*
X129503166Y-115530952D01*
X129541261Y-115550000D01*
X129560309Y-115569047D01*
X129579357Y-115607142D01*
X129579357Y-115664285D01*
X129560309Y-115702380D01*
X129541261Y-115721428D01*
X129503166Y-115740476D01*
X129350785Y-115740476D01*
X129960309Y-115930952D02*
X129731738Y-115930952D01*
X129846023Y-115930952D02*
X129846023Y-115530952D01*
X129807928Y-115588095D01*
X129769833Y-115626190D01*
X129731738Y-115645238D01*
X130093642Y-115530952D02*
X130360309Y-115530952D01*
X130188880Y-115930952D01*
X136046857Y-120777666D02*
X136065904Y-120796714D01*
X136084952Y-120853857D01*
X136084952Y-120891952D01*
X136065904Y-120949095D01*
X136027809Y-120987190D01*
X135989714Y-121006238D01*
X135913523Y-121025285D01*
X135856380Y-121025285D01*
X135780190Y-121006238D01*
X135742095Y-120987190D01*
X135704000Y-120949095D01*
X135684952Y-120891952D01*
X135684952Y-120853857D01*
X135704000Y-120796714D01*
X135723047Y-120777666D01*
X135684952Y-120434809D02*
X135684952Y-120511000D01*
X135704000Y-120549095D01*
X135723047Y-120568142D01*
X135780190Y-120606238D01*
X135856380Y-120625285D01*
X136008761Y-120625285D01*
X136046857Y-120606238D01*
X136065904Y-120587190D01*
X136084952Y-120549095D01*
X136084952Y-120472904D01*
X136065904Y-120434809D01*
X136046857Y-120415761D01*
X136008761Y-120396714D01*
X135913523Y-120396714D01*
X135875428Y-120415761D01*
X135856380Y-120434809D01*
X135837333Y-120472904D01*
X135837333Y-120549095D01*
X135856380Y-120587190D01*
X135875428Y-120606238D01*
X135913523Y-120625285D01*
X138142857Y-45257142D02*
X138161904Y-45276190D01*
X138180952Y-45333333D01*
X138180952Y-45371428D01*
X138161904Y-45428571D01*
X138123809Y-45466666D01*
X138085714Y-45485714D01*
X138009523Y-45504761D01*
X137952380Y-45504761D01*
X137876190Y-45485714D01*
X137838095Y-45466666D01*
X137800000Y-45428571D01*
X137780952Y-45371428D01*
X137780952Y-45333333D01*
X137800000Y-45276190D01*
X137819047Y-45257142D01*
X137780952Y-45123809D02*
X137780952Y-44876190D01*
X137933333Y-45009523D01*
X137933333Y-44952380D01*
X137952380Y-44914285D01*
X137971428Y-44895238D01*
X138009523Y-44876190D01*
X138104761Y-44876190D01*
X138142857Y-44895238D01*
X138161904Y-44914285D01*
X138180952Y-44952380D01*
X138180952Y-45066666D01*
X138161904Y-45104761D01*
X138142857Y-45123809D01*
X137780952Y-44533333D02*
X137780952Y-44609523D01*
X137800000Y-44647619D01*
X137819047Y-44666666D01*
X137876190Y-44704761D01*
X137952380Y-44723809D01*
X138104761Y-44723809D01*
X138142857Y-44704761D01*
X138161904Y-44685714D01*
X138180952Y-44647619D01*
X138180952Y-44571428D01*
X138161904Y-44533333D01*
X138142857Y-44514285D01*
X138104761Y-44495238D01*
X138009523Y-44495238D01*
X137971428Y-44514285D01*
X137952380Y-44533333D01*
X137933333Y-44571428D01*
X137933333Y-44647619D01*
X137952380Y-44685714D01*
X137971428Y-44704761D01*
X138009523Y-44723809D01*
D11*
X130131333Y-144491333D02*
X130131333Y-145284666D01*
X130178000Y-145378000D01*
X130224666Y-145424666D01*
X130318000Y-145471333D01*
X130504666Y-145471333D01*
X130598000Y-145424666D01*
X130644666Y-145378000D01*
X130691333Y-145284666D01*
X130691333Y-144491333D01*
X131671333Y-145471333D02*
X131111333Y-145471333D01*
X131391333Y-145471333D02*
X131391333Y-144491333D01*
X131298000Y-144631333D01*
X131204666Y-144724666D01*
X131111333Y-144771333D01*
D14*
X138377333Y-116814952D02*
X138244000Y-116624476D01*
X138148761Y-116814952D02*
X138148761Y-116414952D01*
X138301142Y-116414952D01*
X138339238Y-116434000D01*
X138358285Y-116453047D01*
X138377333Y-116491142D01*
X138377333Y-116548285D01*
X138358285Y-116586380D01*
X138339238Y-116605428D01*
X138301142Y-116624476D01*
X138148761Y-116624476D01*
X138510666Y-116414952D02*
X138758285Y-116414952D01*
X138624952Y-116567333D01*
X138682095Y-116567333D01*
X138720190Y-116586380D01*
X138739238Y-116605428D01*
X138758285Y-116643523D01*
X138758285Y-116738761D01*
X138739238Y-116776857D01*
X138720190Y-116795904D01*
X138682095Y-116814952D01*
X138567809Y-116814952D01*
X138529714Y-116795904D01*
X138510666Y-116776857D01*
X136071857Y-125735666D02*
X136090904Y-125754714D01*
X136109952Y-125811857D01*
X136109952Y-125849952D01*
X136090904Y-125907095D01*
X136052809Y-125945190D01*
X136014714Y-125964238D01*
X135938523Y-125983285D01*
X135881380Y-125983285D01*
X135805190Y-125964238D01*
X135767095Y-125945190D01*
X135729000Y-125907095D01*
X135709952Y-125849952D01*
X135709952Y-125811857D01*
X135729000Y-125754714D01*
X135748047Y-125735666D01*
X135709952Y-125602333D02*
X135709952Y-125354714D01*
X135862333Y-125488047D01*
X135862333Y-125430904D01*
X135881380Y-125392809D01*
X135900428Y-125373761D01*
X135938523Y-125354714D01*
X136033761Y-125354714D01*
X136071857Y-125373761D01*
X136090904Y-125392809D01*
X136109952Y-125430904D01*
X136109952Y-125545190D01*
X136090904Y-125583285D01*
X136071857Y-125602333D01*
D16*
X130141190Y-39269047D02*
X129641190Y-39269047D01*
X129641190Y-39150000D01*
X129665000Y-39078571D01*
X129712619Y-39030952D01*
X129760238Y-39007142D01*
X129855476Y-38983333D01*
X129926904Y-38983333D01*
X130022142Y-39007142D01*
X130069761Y-39030952D01*
X130117380Y-39078571D01*
X130141190Y-39150000D01*
X130141190Y-39269047D01*
X129641190Y-38816666D02*
X129641190Y-38483333D01*
X130141190Y-38697619D01*
D10*
X127415000Y-37880000D02*
X127415000Y-41080000D01*
X125815000Y-37880000D02*
X127415000Y-37880000D01*
X125815000Y-41080000D02*
X125815000Y-37880000D01*
X127415000Y-41080000D02*
X125815000Y-41080000D01*
X134800000Y-44400000D02*
X134800000Y-47600000D01*
X133200000Y-47600000D02*
X133200000Y-44400000D01*
X133200000Y-44400000D02*
X134800000Y-44400000D01*
X134800000Y-47600000D02*
X133200000Y-47600000D01*
X136200000Y-102200000D02*
X136200000Y-103000000D01*
X134600000Y-103000000D02*
X134600000Y-102200000D01*
X134600000Y-102200000D02*
X136200000Y-102200000D01*
X136200000Y-103000000D02*
X134600000Y-103000000D01*
X134600000Y-100400000D02*
X136200000Y-100400000D01*
X136200000Y-101200000D02*
X134600000Y-101200000D01*
X134600000Y-101200000D02*
X134600000Y-100400000D01*
X136200000Y-100400000D02*
X136200000Y-101200000D01*
X131512500Y-98800000D02*
X133112500Y-98800000D01*
X133112500Y-98800000D02*
X133112500Y-99600000D01*
X131512500Y-99600000D02*
X131512500Y-98800000D01*
X133112500Y-99600000D02*
X131512500Y-99600000D01*
X131500000Y-100400000D02*
X133100000Y-100400000D01*
X133100000Y-100400000D02*
X133100000Y-101200000D01*
X131500000Y-101200000D02*
X131500000Y-100400000D01*
X133100000Y-101200000D02*
X131500000Y-101200000D01*
X134612500Y-98800000D02*
X136212500Y-98800000D01*
X136212500Y-99600000D02*
X134612500Y-99600000D01*
X136212500Y-98800000D02*
X136212500Y-99600000D01*
X134612500Y-99600000D02*
X134612500Y-98800000D01*
X127665000Y-34950000D02*
X127665000Y-33450000D01*
X128165000Y-32950000D02*
X143665000Y-32950000D01*
X143665000Y-34950000D02*
X127665000Y-34950000D01*
X127665000Y-33450000D02*
X128165000Y-32950000D01*
X143665000Y-32950000D02*
X143665000Y-34950000D01*
X139127500Y-49450000D02*
X139127500Y-48650000D01*
X140727500Y-49450000D02*
X139127500Y-49450000D01*
X139127500Y-48650000D02*
X140727500Y-48650000D01*
X140727500Y-48650000D02*
X140727500Y-49450000D01*
X137682000Y-127606000D02*
X137682000Y-126806000D01*
X139282000Y-126806000D02*
X139282000Y-127606000D01*
X139282000Y-127606000D02*
X137682000Y-127606000D01*
X137682000Y-126806000D02*
X139282000Y-126806000D01*
X129061500Y-123631000D02*
X130661500Y-123631000D01*
X129061500Y-124431000D02*
X129061500Y-123631000D01*
X130661500Y-124431000D02*
X129061500Y-124431000D01*
X130661500Y-123631000D02*
X130661500Y-124431000D01*
X135504000Y-147111000D02*
X135504000Y-145511000D01*
X136304000Y-147111000D02*
X135504000Y-147111000D01*
X136304000Y-145511000D02*
X136304000Y-147111000D01*
X135504000Y-145511000D02*
X136304000Y-145511000D01*
X138150000Y-38345000D02*
X138150000Y-35855000D01*
X141350000Y-38345000D02*
X138150000Y-38345000D01*
X138150000Y-35855000D02*
X141350000Y-35855000D01*
X141350000Y-35855000D02*
X141350000Y-38345000D01*
X136304000Y-142183000D02*
X136304000Y-143783000D01*
X135504000Y-142183000D02*
X136304000Y-142183000D01*
X136304000Y-143783000D02*
X135504000Y-143783000D01*
X135504000Y-143783000D02*
X135504000Y-142183000D01*
X133951000Y-116150000D02*
X132351000Y-116150000D01*
X132351000Y-115350000D02*
X133951000Y-115350000D01*
X132351000Y-116150000D02*
X132351000Y-115350000D01*
X133951000Y-115350000D02*
X133951000Y-116150000D01*
X132853000Y-125264000D02*
X132853000Y-129189000D01*
X131878000Y-130164000D02*
X128953000Y-130164000D01*
X128953000Y-125264000D02*
X132853000Y-125264000D01*
X132853000Y-129189000D02*
X131878000Y-130164000D01*
X128953000Y-130164000D02*
X128953000Y-125264000D01*
X135504000Y-138448000D02*
X135504000Y-136848000D01*
X136304000Y-138448000D02*
X135504000Y-138448000D01*
X136304000Y-136848000D02*
X136304000Y-138448000D01*
X135504000Y-136848000D02*
X136304000Y-136848000D01*
X133951000Y-141745000D02*
X132351000Y-141745000D01*
X132351000Y-140945000D02*
X133951000Y-140945000D01*
X132351000Y-141745000D02*
X132351000Y-140945000D01*
X133951000Y-140945000D02*
X133951000Y-141745000D01*
X137644000Y-142634000D02*
X137644000Y-141834000D01*
X139244000Y-141834000D02*
X139244000Y-142634000D01*
X139244000Y-142634000D02*
X137644000Y-142634000D01*
X137644000Y-141834000D02*
X139244000Y-141834000D01*
X130611500Y-106750000D02*
X130611500Y-107550000D01*
X129011500Y-106750000D02*
X130611500Y-106750000D01*
X129011500Y-107550000D02*
X129011500Y-106750000D01*
X130611500Y-107550000D02*
X129011500Y-107550000D01*
X135479000Y-107988000D02*
X136279000Y-107988000D01*
X135479000Y-109588000D02*
X135479000Y-107988000D01*
X136279000Y-107988000D02*
X136279000Y-109588000D01*
X136279000Y-109588000D02*
X135479000Y-109588000D01*
X137657000Y-119320000D02*
X137657000Y-118520000D01*
X137657000Y-118520000D02*
X139257000Y-118520000D01*
X139257000Y-119320000D02*
X137657000Y-119320000D01*
X139257000Y-118520000D02*
X139257000Y-119320000D01*
X137644000Y-109945000D02*
X139244000Y-109945000D01*
X139244000Y-110745000D02*
X137644000Y-110745000D01*
X139244000Y-109945000D02*
X139244000Y-110745000D01*
X137644000Y-110745000D02*
X137644000Y-109945000D01*
X143295000Y-125575000D02*
X143295000Y-130020000D01*
X140755000Y-124940000D02*
X142660000Y-124940000D01*
X143295000Y-130020000D02*
X140755000Y-130020000D01*
X140755000Y-130020000D02*
X140755000Y-124940000D01*
X142660000Y-124940000D02*
X143295000Y-125575000D01*
X140710000Y-39700000D02*
X141510000Y-39700000D01*
X141510000Y-41300000D02*
X140710000Y-41300000D01*
X140710000Y-41300000D02*
X140710000Y-39700000D01*
X141510000Y-39700000D02*
X141510000Y-41300000D01*
X129036500Y-132282000D02*
X130636500Y-132282000D01*
X129036500Y-133082000D02*
X129036500Y-132282000D01*
X130636500Y-133082000D02*
X129036500Y-133082000D01*
X130636500Y-132282000D02*
X130636500Y-133082000D01*
X140755000Y-116400000D02*
X142660000Y-116400000D01*
X142660000Y-116400000D02*
X143295000Y-117035000D01*
X143295000Y-117035000D02*
X143295000Y-121480000D01*
X140755000Y-121480000D02*
X140755000Y-116400000D01*
X143295000Y-121480000D02*
X140755000Y-121480000D01*
X133976000Y-123631000D02*
X133976000Y-124431000D01*
X132376000Y-123631000D02*
X133976000Y-123631000D01*
X133976000Y-124431000D02*
X132376000Y-124431000D01*
X132376000Y-124431000D02*
X132376000Y-123631000D01*
X137619000Y-108439000D02*
X137619000Y-107639000D01*
X137619000Y-107639000D02*
X139219000Y-107639000D01*
X139219000Y-107639000D02*
X139219000Y-108439000D01*
X139219000Y-108439000D02*
X137619000Y-108439000D01*
X135529000Y-128197000D02*
X136329000Y-128197000D01*
X135529000Y-129797000D02*
X135529000Y-128197000D01*
X136329000Y-128197000D02*
X136329000Y-129797000D01*
X136329000Y-129797000D02*
X135529000Y-129797000D01*
X143510000Y-51190000D02*
X143510000Y-94370000D01*
X127000000Y-51190000D02*
X143510000Y-51190000D01*
X143510000Y-94370000D02*
X125730000Y-94370000D01*
X125730000Y-52460000D02*
X127000000Y-51190000D01*
X130810000Y-86750000D02*
X138430000Y-86750000D01*
X138430000Y-96910000D02*
X130810000Y-96910000D01*
X138430000Y-86750000D02*
X138430000Y-96910000D01*
X125730000Y-94370000D02*
X125730000Y-52460000D01*
X130810000Y-96910000D02*
X130810000Y-86750000D01*
X136304000Y-133520000D02*
X136304000Y-135120000D01*
X135504000Y-135120000D02*
X135504000Y-133520000D01*
X136304000Y-135120000D02*
X135504000Y-135120000D01*
X135504000Y-133520000D02*
X136304000Y-133520000D01*
X142660000Y-133337000D02*
X143295000Y-133972000D01*
X140755000Y-133337000D02*
X142660000Y-133337000D01*
X140755000Y-138417000D02*
X140755000Y-133337000D01*
X143295000Y-138417000D02*
X140755000Y-138417000D01*
X143295000Y-133972000D02*
X143295000Y-138417000D01*
X132828000Y-133915000D02*
X132828000Y-137840000D01*
X131853000Y-138815000D02*
X128928000Y-138815000D01*
X132828000Y-137840000D02*
X131853000Y-138815000D01*
X128928000Y-133915000D02*
X132828000Y-133915000D01*
X128928000Y-138815000D02*
X128928000Y-133915000D01*
X137669000Y-125320000D02*
X137669000Y-124520000D01*
X139269000Y-124520000D02*
X139269000Y-125320000D01*
X139269000Y-125320000D02*
X137669000Y-125320000D01*
X137669000Y-124520000D02*
X139269000Y-124520000D01*
X137644000Y-133171000D02*
X139244000Y-133171000D01*
X137644000Y-133971000D02*
X137644000Y-133171000D01*
X139244000Y-133971000D02*
X137644000Y-133971000D01*
X139244000Y-133171000D02*
X139244000Y-133971000D01*
X137657000Y-144920000D02*
X137657000Y-144120000D01*
X139257000Y-144920000D02*
X137657000Y-144920000D01*
X139257000Y-144120000D02*
X139257000Y-144920000D01*
X137657000Y-144120000D02*
X139257000Y-144120000D01*
X136304000Y-118183000D02*
X135504000Y-118183000D01*
X135504000Y-116583000D02*
X136304000Y-116583000D01*
X136304000Y-116583000D02*
X136304000Y-118183000D01*
X135504000Y-118183000D02*
X135504000Y-116583000D01*
X132828000Y-116978000D02*
X132828000Y-120903000D01*
X131853000Y-121878000D02*
X128928000Y-121878000D01*
X132828000Y-120903000D02*
X131853000Y-121878000D01*
X128928000Y-116978000D02*
X132828000Y-116978000D01*
X128928000Y-121878000D02*
X128928000Y-116978000D01*
X143270000Y-147060000D02*
X141365000Y-147060000D01*
X143270000Y-141980000D02*
X143270000Y-147060000D01*
X140730000Y-141980000D02*
X143270000Y-141980000D01*
X140730000Y-146425000D02*
X140730000Y-141980000D01*
X141365000Y-147060000D02*
X140730000Y-146425000D01*
X143295000Y-112905000D02*
X140755000Y-112905000D01*
X140755000Y-112905000D02*
X140755000Y-107825000D01*
X142660000Y-107825000D02*
X143295000Y-108460000D01*
X140755000Y-107825000D02*
X142660000Y-107825000D01*
X143295000Y-108460000D02*
X143295000Y-112905000D01*
X136279000Y-112916000D02*
X135479000Y-112916000D01*
X136279000Y-111316000D02*
X136279000Y-112916000D01*
X135479000Y-111316000D02*
X136279000Y-111316000D01*
X135479000Y-112916000D02*
X135479000Y-111316000D01*
X137593500Y-112465000D02*
X139193500Y-112465000D01*
X139193500Y-112465000D02*
X139193500Y-113265000D01*
X137593500Y-113265000D02*
X137593500Y-112465000D01*
X139193500Y-113265000D02*
X137593500Y-113265000D01*
X139640000Y-39730000D02*
X139640000Y-41330000D01*
X139640000Y-41330000D02*
X138840000Y-41330000D01*
X138840000Y-39730000D02*
X139640000Y-39730000D01*
X138840000Y-41330000D02*
X138840000Y-39730000D01*
D17*
X141340000Y-43700000D02*
X141340000Y-44900000D01*
X139290000Y-44900000D02*
X139290000Y-43700000D01*
X141340000Y-44900000D02*
X139290000Y-44900000D01*
X139290000Y-43700000D02*
X141340000Y-43700000D01*
D18*
X139590000Y-45900000D02*
G75*
G03*
X139590000Y-45900000I-100000J0D01*
G01*
D10*
X130636500Y-140945000D02*
X130636500Y-141745000D01*
X129036500Y-141745000D02*
X129036500Y-140945000D01*
X130636500Y-141745000D02*
X129036500Y-141745000D01*
X129036500Y-140945000D02*
X130636500Y-140945000D01*
X137618500Y-121060000D02*
X139218500Y-121060000D01*
X139218500Y-121060000D02*
X139218500Y-121860000D01*
X137618500Y-121860000D02*
X137618500Y-121060000D01*
X139218500Y-121860000D02*
X137618500Y-121860000D01*
X139218500Y-138797000D02*
X137618500Y-138797000D01*
X137618500Y-138797000D02*
X137618500Y-137997000D01*
X139218500Y-137997000D02*
X139218500Y-138797000D01*
X137618500Y-137997000D02*
X139218500Y-137997000D01*
X137618500Y-147460000D02*
X137618500Y-146660000D01*
X139218500Y-146660000D02*
X139218500Y-147460000D01*
X137618500Y-146660000D02*
X139218500Y-146660000D01*
X139218500Y-147460000D02*
X137618500Y-147460000D01*
X137643500Y-130146000D02*
X137643500Y-129346000D01*
X137643500Y-129346000D02*
X139243500Y-129346000D01*
X139243500Y-130146000D02*
X137643500Y-130146000D01*
X139243500Y-129346000D02*
X139243500Y-130146000D01*
X139257000Y-135457000D02*
X139257000Y-136257000D01*
X139257000Y-136257000D02*
X137657000Y-136257000D01*
X137657000Y-136257000D02*
X137657000Y-135457000D01*
X137657000Y-135457000D02*
X139257000Y-135457000D01*
X131828000Y-113283000D02*
X128903000Y-113283000D01*
X132803000Y-108383000D02*
X132803000Y-112308000D01*
X128903000Y-108383000D02*
X132803000Y-108383000D01*
X132803000Y-112308000D02*
X131828000Y-113283000D01*
X128903000Y-113283000D02*
X128903000Y-108383000D01*
X135600000Y-44200000D02*
X136400000Y-44200000D01*
X136400000Y-45800000D02*
X135600000Y-45800000D01*
X135600000Y-45800000D02*
X135600000Y-44200000D01*
X136400000Y-44200000D02*
X136400000Y-45800000D01*
X133951000Y-133082000D02*
X132351000Y-133082000D01*
X132351000Y-132282000D02*
X133951000Y-132282000D01*
X133951000Y-132282000D02*
X133951000Y-133082000D01*
X132351000Y-133082000D02*
X132351000Y-132282000D01*
X132326000Y-107550000D02*
X132326000Y-106750000D01*
X132326000Y-106750000D02*
X133926000Y-106750000D01*
X133926000Y-106750000D02*
X133926000Y-107550000D01*
X133926000Y-107550000D02*
X132326000Y-107550000D01*
X129036500Y-116150000D02*
X129036500Y-115350000D01*
X130636500Y-115350000D02*
X130636500Y-116150000D01*
X129036500Y-115350000D02*
X130636500Y-115350000D01*
X130636500Y-116150000D02*
X129036500Y-116150000D01*
X136304000Y-121511000D02*
X135504000Y-121511000D01*
X135504000Y-119911000D02*
X136304000Y-119911000D01*
X136304000Y-119911000D02*
X136304000Y-121511000D01*
X135504000Y-121511000D02*
X135504000Y-119911000D01*
X137600000Y-45800000D02*
X137600000Y-44200000D01*
X137600000Y-44200000D02*
X138400000Y-44200000D01*
X138400000Y-45800000D02*
X137600000Y-45800000D01*
X138400000Y-44200000D02*
X138400000Y-45800000D01*
X128928000Y-142578000D02*
X132828000Y-142578000D01*
X132828000Y-146503000D02*
X131853000Y-147478000D01*
X128928000Y-147478000D02*
X128928000Y-142578000D01*
X132828000Y-142578000D02*
X132828000Y-146503000D01*
X131853000Y-147478000D02*
X128928000Y-147478000D01*
X139244000Y-116234000D02*
X139244000Y-117034000D01*
X139244000Y-117034000D02*
X137644000Y-117034000D01*
X137644000Y-117034000D02*
X137644000Y-116234000D01*
X137644000Y-116234000D02*
X139244000Y-116234000D01*
X135529000Y-126469000D02*
X135529000Y-124869000D01*
X136329000Y-124869000D02*
X136329000Y-126469000D01*
X136329000Y-126469000D02*
X135529000Y-126469000D01*
X135529000Y-124869000D02*
X136329000Y-124869000D01*
X128965000Y-39600000D02*
X128395000Y-39050000D01*
X131435000Y-39600000D02*
X131435000Y-38200000D01*
X128395000Y-38200000D02*
X131435000Y-38200000D01*
X128965000Y-39600000D02*
X131415000Y-39600000D01*
X128395000Y-39050000D02*
X128395000Y-38200000D01*
M02*
