G04 #@! TF.GenerationSoftware,KiCad,Pcbnew,(6.0.6)*
G04 #@! TF.CreationDate,2022-09-05T13:44:10+02:00*
G04 #@! TF.ProjectId,PAINTREv4,5041494e-5452-4457-9634-2e6b69636164,rev?*
G04 #@! TF.SameCoordinates,Original*
G04 #@! TF.FileFunction,Soldermask,Bot*
G04 #@! TF.FilePolarity,Negative*
%FSLAX46Y46*%
G04 Gerber Fmt 4.6, Leading zero omitted, Abs format (unit mm)*
G04 Created by KiCad (PCBNEW (6.0.6)) date 2022-09-05 13:44:10*
%MOMM*%
%LPD*%
G01*
G04 APERTURE LIST*
%ADD10C,3.200000*%
%ADD11R,1.350000X1.350000*%
%ADD12O,1.350000X1.350000*%
%ADD13R,1.700000X1.700000*%
%ADD14O,1.700000X1.700000*%
%ADD15R,1.600000X1.600000*%
%ADD16O,1.600000X1.600000*%
G04 APERTURE END LIST*
D10*
X142000000Y-151400000D03*
D11*
X128665000Y-33950000D03*
D12*
X130665000Y-33950000D03*
X132665000Y-33950000D03*
X134665000Y-33950000D03*
X136665000Y-33950000D03*
X138665000Y-33950000D03*
X140665000Y-33950000D03*
X142665000Y-33950000D03*
D13*
X142025000Y-126210000D03*
D14*
X142025000Y-128750000D03*
D13*
X142025000Y-117670000D03*
D14*
X142025000Y-120210000D03*
D10*
X127900000Y-47000000D03*
D15*
X127000000Y-55000000D03*
D16*
X127000000Y-57540000D03*
X127000000Y-60080000D03*
X127000000Y-62620000D03*
X127000000Y-65160000D03*
X127000000Y-67700000D03*
X127000000Y-70240000D03*
X127000000Y-72780000D03*
X127000000Y-75320000D03*
X127000000Y-77860000D03*
X127000000Y-80400000D03*
X127000000Y-82940000D03*
X127000000Y-85480000D03*
X127000000Y-88020000D03*
X127000000Y-90560000D03*
X142240000Y-90560000D03*
X142240000Y-88020000D03*
X142240000Y-85480000D03*
X142240000Y-82940000D03*
X142240000Y-80400000D03*
X142240000Y-77860000D03*
X142240000Y-75320000D03*
X142240000Y-72780000D03*
X142240000Y-70240000D03*
X142240000Y-67700000D03*
X142240000Y-65160000D03*
X142240000Y-62620000D03*
X142240000Y-60080000D03*
X142240000Y-57540000D03*
X142240000Y-55000000D03*
D13*
X142025000Y-134607000D03*
D14*
X142025000Y-137147000D03*
D13*
X142000000Y-145790000D03*
D14*
X142000000Y-143250000D03*
D13*
X142025000Y-109095000D03*
D14*
X142025000Y-111635000D03*
M02*
