M48
; DRILL file {KiCad (6.0.6)} date Mon Sep  5 13:44:14 2022
; FORMAT={-:-/ absolute / metric / decimal}
; #@! TF.CreationDate,2022-09-05T13:44:14+02:00
; #@! TF.GenerationSoftware,Kicad,Pcbnew,(6.0.6)
; #@! TF.FileFunction,Plated,1,4,PTH
FMAT,2
METRIC
; #@! TA.AperFunction,Plated,PTH,ViaDrill
T1C0.400
; #@! TA.AperFunction,Plated,PTH,ComponentDrill
T2C0.800
; #@! TA.AperFunction,Plated,PTH,ComponentDrill
T3C1.000
%
G90
G05
T1
X125.0Y-144.5
X125.75Y-135.75
X126.5Y-93.5
X126.5Y-127.0
X126.75Y-110.345
X127.105Y-118.574
X127.75Y-95.0
X127.805Y-107.531
X127.83Y-115.635
X127.83Y-124.67
X127.83Y-133.063
X127.83Y-141.726
X128.25Y-93.25
X128.68Y-62.62
X129.88Y-62.62
X130.853Y-111.341
X130.878Y-119.936
X130.878Y-136.873
X130.878Y-145.536
X130.903Y-128.222
X131.2Y-62.6
X132.0Y-114.215
X132.0Y-122.75
X132.0Y-131.25
X132.125Y-102.125
X132.25Y-140.25
X132.5Y-105.845
X132.515Y-35.8
X132.515Y-37.3
X132.815Y-39.8
X133.1Y-102.6
X133.5Y-122.5
X133.5Y-131.0
X133.75Y-139.5
X133.915Y-35.8
X133.915Y-37.3
X133.915Y-38.7
X134.0Y-113.965
X134.0Y-148.5
X135.215Y-35.8
X135.215Y-37.0
X135.5Y-140.75
X135.6Y-61.0
X135.6Y-62.5
X135.6Y-64.0
X135.75Y-106.845
X135.75Y-123.5
X135.75Y-132.25
X136.815Y-41.8
X137.0Y-62.5
X137.227Y-42.812
X137.24Y-40.88
X137.3Y-57.5
X137.815Y-49.0
X138.25Y-47.75
X138.5Y-99.0
X138.76Y-57.54
X139.25Y-46.25
X140.0Y-99.0
X140.16Y-57.54
X140.5Y-101.0
X141.75Y-101.0
X141.75Y-102.0
X141.815Y-49.0
X142.2Y-95.1
X142.715Y-47.0
X142.75Y-42.45
X142.75Y-43.55
X142.75Y-44.75
T2
X128.665Y-33.95
X130.665Y-33.95
X132.665Y-33.95
X134.665Y-33.95
X136.665Y-33.95
X138.665Y-33.95
X140.665Y-33.95
X142.665Y-33.95
T3
X127.0Y-55.0
X127.0Y-57.54
X127.0Y-60.08
X127.0Y-62.62
X127.0Y-65.16
X127.0Y-67.7
X127.0Y-70.24
X127.0Y-72.78
X127.0Y-75.32
X127.0Y-77.86
X127.0Y-80.4
X127.0Y-82.94
X127.0Y-85.48
X127.0Y-88.02
X127.0Y-90.56
X142.0Y-143.25
X142.0Y-145.79
X142.025Y-109.095
X142.025Y-111.635
X142.025Y-117.67
X142.025Y-120.21
X142.025Y-126.21
X142.025Y-128.75
X142.025Y-134.607
X142.025Y-137.147
X142.24Y-55.0
X142.24Y-57.54
X142.24Y-60.08
X142.24Y-62.62
X142.24Y-65.16
X142.24Y-67.7
X142.24Y-70.24
X142.24Y-72.78
X142.24Y-75.32
X142.24Y-77.86
X142.24Y-80.4
X142.24Y-82.94
X142.24Y-85.48
X142.24Y-88.02
X142.24Y-90.56
T0
M30
