%FSLAX45Y45*%
G04 Gerber Fmt 4.5, Leading zero omitted, Abs format (unit mm)*
G04 Created by KiCad (PCBNEW (6.0.6)) date 2022-09-05 13:44:15*
%MOMM*%
%LPD*%
G01*
G04 APERTURE LIST*
%TA.AperFunction,Profile*%
%ADD10C,0.150000*%
%TD*%
%TA.AperFunction,Profile*%
%ADD11C,0.100000*%
%TD*%
%ADD12C,0.200000*%
%ADD13C,0.040000*%
%ADD14C,0.080000*%
%ADD15C,0.100000*%
G04 APERTURE END LIST*
D10*
X14420000Y-3245000D02*
X14420000Y-15400000D01*
X12420000Y-15400000D02*
X12420000Y-3245000D01*
D11*
X12420000Y-15400000D02*
X14420000Y-15400000D01*
D10*
X12420000Y-3245000D02*
X14420000Y-3245000D01*
D12*
D13*
X12480000Y-14430000D02*
X12520000Y-14470000D01*
X12520000Y-14430000D02*
X12480000Y-14470000D01*
X12555000Y-13555000D02*
X12595000Y-13595000D01*
X12595000Y-13555000D02*
X12555000Y-13595000D01*
X12630000Y-9330000D02*
X12670000Y-9370000D01*
X12670000Y-9330000D02*
X12630000Y-9370000D01*
X12630000Y-12680000D02*
X12670000Y-12720000D01*
X12670000Y-12680000D02*
X12630000Y-12720000D01*
X12655000Y-11014500D02*
X12695000Y-11054500D01*
X12695000Y-11014500D02*
X12655000Y-11054500D01*
X12690550Y-11837377D02*
X12730550Y-11877377D01*
X12730550Y-11837377D02*
X12690550Y-11877377D01*
X12755000Y-9480000D02*
X12795000Y-9520000D01*
X12795000Y-9480000D02*
X12755000Y-9520000D01*
X12760500Y-10733100D02*
X12800500Y-10773100D01*
X12800500Y-10733100D02*
X12760500Y-10773100D01*
X12763000Y-11543500D02*
X12803000Y-11583500D01*
X12803000Y-11543500D02*
X12763000Y-11583500D01*
X12763000Y-12447000D02*
X12803000Y-12487000D01*
X12803000Y-12447000D02*
X12763000Y-12487000D01*
X12763000Y-13286300D02*
X12803000Y-13326300D01*
X12803000Y-13286300D02*
X12763000Y-13326300D01*
X12763000Y-14152600D02*
X12803000Y-14192600D01*
X12803000Y-14152600D02*
X12763000Y-14192600D01*
X12805000Y-9305000D02*
X12845000Y-9345000D01*
X12845000Y-9305000D02*
X12805000Y-9345000D01*
X12848000Y-6242000D02*
X12888000Y-6282000D01*
X12888000Y-6242000D02*
X12848000Y-6282000D01*
X12968000Y-6242000D02*
X13008000Y-6282000D01*
X13008000Y-6242000D02*
X12968000Y-6282000D01*
X13065300Y-11114100D02*
X13105300Y-11154100D01*
X13105300Y-11114100D02*
X13065300Y-11154100D01*
X13067800Y-11973600D02*
X13107800Y-12013600D01*
X13107800Y-11973600D02*
X13067800Y-12013600D01*
X13067800Y-13667300D02*
X13107800Y-13707300D01*
X13107800Y-13667300D02*
X13067800Y-13707300D01*
X13067800Y-14533600D02*
X13107800Y-14573600D01*
X13107800Y-14533600D02*
X13067800Y-14573600D01*
X13070300Y-12802200D02*
X13110300Y-12842200D01*
X13110300Y-12802200D02*
X13070300Y-12842200D01*
X13100000Y-6240000D02*
X13140000Y-6280000D01*
X13140000Y-6240000D02*
X13100000Y-6280000D01*
X13180000Y-11401500D02*
X13220000Y-11441500D01*
X13220000Y-11401500D02*
X13180000Y-11441500D01*
X13180000Y-12255000D02*
X13220000Y-12295000D01*
X13220000Y-12255000D02*
X13180000Y-12295000D01*
X13180000Y-13105000D02*
X13220000Y-13145000D01*
X13220000Y-13105000D02*
X13180000Y-13145000D01*
X13192500Y-10192500D02*
X13232500Y-10232500D01*
X13232500Y-10192500D02*
X13192500Y-10232500D01*
X13205000Y-14005000D02*
X13245000Y-14045000D01*
X13245000Y-14005000D02*
X13205000Y-14045000D01*
X13230000Y-10564500D02*
X13270000Y-10604500D01*
X13270000Y-10564500D02*
X13230000Y-10604500D01*
X13231500Y-3560000D02*
X13271500Y-3600000D01*
X13271500Y-3560000D02*
X13231500Y-3600000D01*
X13231500Y-3710000D02*
X13271500Y-3750000D01*
X13271500Y-3710000D02*
X13231500Y-3750000D01*
X13261500Y-3960000D02*
X13301500Y-4000000D01*
X13301500Y-3960000D02*
X13261500Y-4000000D01*
X13290000Y-10240000D02*
X13330000Y-10280000D01*
X13330000Y-10240000D02*
X13290000Y-10280000D01*
X13330000Y-12230000D02*
X13370000Y-12270000D01*
X13370000Y-12230000D02*
X13330000Y-12270000D01*
X13330000Y-13080000D02*
X13370000Y-13120000D01*
X13370000Y-13080000D02*
X13330000Y-13120000D01*
X13355000Y-13930000D02*
X13395000Y-13970000D01*
X13395000Y-13930000D02*
X13355000Y-13970000D01*
X13371500Y-3560000D02*
X13411500Y-3600000D01*
X13411500Y-3560000D02*
X13371500Y-3600000D01*
X13371500Y-3710000D02*
X13411500Y-3750000D01*
X13411500Y-3710000D02*
X13371500Y-3750000D01*
X13371500Y-3850000D02*
X13411500Y-3890000D01*
X13411500Y-3850000D02*
X13371500Y-3890000D01*
X13380000Y-11376500D02*
X13420000Y-11416500D01*
X13420000Y-11376500D02*
X13380000Y-11416500D01*
X13380000Y-14830000D02*
X13420000Y-14870000D01*
X13420000Y-14830000D02*
X13380000Y-14870000D01*
X13501500Y-3560000D02*
X13541500Y-3600000D01*
X13541500Y-3560000D02*
X13501500Y-3600000D01*
X13501500Y-3680000D02*
X13541500Y-3720000D01*
X13541500Y-3680000D02*
X13501500Y-3720000D01*
X13530000Y-14055000D02*
X13570000Y-14095000D01*
X13570000Y-14055000D02*
X13530000Y-14095000D01*
X13540000Y-6080000D02*
X13580000Y-6120000D01*
X13580000Y-6080000D02*
X13540000Y-6120000D01*
X13540000Y-6230000D02*
X13580000Y-6270000D01*
X13580000Y-6230000D02*
X13540000Y-6270000D01*
X13540000Y-6380000D02*
X13580000Y-6420000D01*
X13580000Y-6380000D02*
X13540000Y-6420000D01*
X13555000Y-10664500D02*
X13595000Y-10704500D01*
X13595000Y-10664500D02*
X13555000Y-10704500D01*
X13555000Y-12330000D02*
X13595000Y-12370000D01*
X13595000Y-12330000D02*
X13555000Y-12370000D01*
X13555000Y-13205000D02*
X13595000Y-13245000D01*
X13595000Y-13205000D02*
X13555000Y-13245000D01*
X13661500Y-4160000D02*
X13701500Y-4200000D01*
X13701500Y-4160000D02*
X13661500Y-4200000D01*
X13680000Y-6230000D02*
X13720000Y-6270000D01*
X13720000Y-6230000D02*
X13680000Y-6270000D01*
X13702750Y-4261250D02*
X13742750Y-4301250D01*
X13742750Y-4261250D02*
X13702750Y-4301250D01*
X13704000Y-4068000D02*
X13744000Y-4108000D01*
X13744000Y-4068000D02*
X13704000Y-4108000D01*
X13710000Y-5730000D02*
X13750000Y-5770000D01*
X13750000Y-5730000D02*
X13710000Y-5770000D01*
X13761500Y-4880000D02*
X13801500Y-4920000D01*
X13801500Y-4880000D02*
X13761500Y-4920000D01*
X13805000Y-4755000D02*
X13845000Y-4795000D01*
X13845000Y-4755000D02*
X13805000Y-4795000D01*
X13830000Y-9880000D02*
X13870000Y-9920000D01*
X13870000Y-9880000D02*
X13830000Y-9920000D01*
X13856000Y-5734000D02*
X13896000Y-5774000D01*
X13896000Y-5734000D02*
X13856000Y-5774000D01*
X13905000Y-4605000D02*
X13945000Y-4645000D01*
X13945000Y-4605000D02*
X13905000Y-4645000D01*
X13980000Y-9880000D02*
X14020000Y-9920000D01*
X14020000Y-9880000D02*
X13980000Y-9920000D01*
X13996000Y-5734000D02*
X14036000Y-5774000D01*
X14036000Y-5734000D02*
X13996000Y-5774000D01*
X14030000Y-10080000D02*
X14070000Y-10120000D01*
X14070000Y-10080000D02*
X14030000Y-10120000D01*
X14155000Y-10080000D02*
X14195000Y-10120000D01*
X14195000Y-10080000D02*
X14155000Y-10120000D01*
X14155000Y-10180000D02*
X14195000Y-10220000D01*
X14195000Y-10180000D02*
X14155000Y-10220000D01*
X14161500Y-4880000D02*
X14201500Y-4920000D01*
X14201500Y-4880000D02*
X14161500Y-4920000D01*
X14200000Y-9490000D02*
X14240000Y-9530000D01*
X14240000Y-9490000D02*
X14200000Y-9530000D01*
X14251500Y-4680000D02*
X14291500Y-4720000D01*
X14291500Y-4680000D02*
X14251500Y-4720000D01*
X14255000Y-4225000D02*
X14295000Y-4265000D01*
X14295000Y-4225000D02*
X14255000Y-4265000D01*
X14255000Y-4335000D02*
X14295000Y-4375000D01*
X14295000Y-4335000D02*
X14255000Y-4375000D01*
X14255000Y-4455000D02*
X14295000Y-4495000D01*
X14295000Y-4455000D02*
X14255000Y-4495000D01*
D14*
X12906500Y-3395000D02*
G75*
G03*
X12906500Y-3395000I-40000J0D01*
G01*
X13106500Y-3395000D02*
G75*
G03*
X13106500Y-3395000I-40000J0D01*
G01*
X13306500Y-3395000D02*
G75*
G03*
X13306500Y-3395000I-40000J0D01*
G01*
X13506500Y-3395000D02*
G75*
G03*
X13506500Y-3395000I-40000J0D01*
G01*
X13706500Y-3395000D02*
G75*
G03*
X13706500Y-3395000I-40000J0D01*
G01*
X13906500Y-3395000D02*
G75*
G03*
X13906500Y-3395000I-40000J0D01*
G01*
X14106500Y-3395000D02*
G75*
G03*
X14106500Y-3395000I-40000J0D01*
G01*
X14306500Y-3395000D02*
G75*
G03*
X14306500Y-3395000I-40000J0D01*
G01*
D15*
X12700000Y-5450000D02*
X12700000Y-5550000D01*
X12650000Y-5500000D02*
X12750000Y-5500000D01*
X12700000Y-5704000D02*
X12700000Y-5804000D01*
X12650000Y-5754000D02*
X12750000Y-5754000D01*
X12700000Y-5958000D02*
X12700000Y-6058000D01*
X12650000Y-6008000D02*
X12750000Y-6008000D01*
X12700000Y-6212000D02*
X12700000Y-6312000D01*
X12650000Y-6262000D02*
X12750000Y-6262000D01*
X12700000Y-6466000D02*
X12700000Y-6566000D01*
X12650000Y-6516000D02*
X12750000Y-6516000D01*
X12700000Y-6720000D02*
X12700000Y-6820000D01*
X12650000Y-6770000D02*
X12750000Y-6770000D01*
X12700000Y-6974000D02*
X12700000Y-7074000D01*
X12650000Y-7024000D02*
X12750000Y-7024000D01*
X12700000Y-7228000D02*
X12700000Y-7328000D01*
X12650000Y-7278000D02*
X12750000Y-7278000D01*
X12700000Y-7482000D02*
X12700000Y-7582000D01*
X12650000Y-7532000D02*
X12750000Y-7532000D01*
X12700000Y-7736000D02*
X12700000Y-7836000D01*
X12650000Y-7786000D02*
X12750000Y-7786000D01*
X12700000Y-7990000D02*
X12700000Y-8090000D01*
X12650000Y-8040000D02*
X12750000Y-8040000D01*
X12700000Y-8244000D02*
X12700000Y-8344000D01*
X12650000Y-8294000D02*
X12750000Y-8294000D01*
X12700000Y-8498000D02*
X12700000Y-8598000D01*
X12650000Y-8548000D02*
X12750000Y-8548000D01*
X12700000Y-8752000D02*
X12700000Y-8852000D01*
X12650000Y-8802000D02*
X12750000Y-8802000D01*
X12700000Y-9006000D02*
X12700000Y-9106000D01*
X12650000Y-9056000D02*
X12750000Y-9056000D01*
X14200000Y-14275000D02*
X14200000Y-14375000D01*
X14150000Y-14325000D02*
X14250000Y-14325000D01*
X14200000Y-14529000D02*
X14200000Y-14629000D01*
X14150000Y-14579000D02*
X14250000Y-14579000D01*
X14202500Y-10859500D02*
X14202500Y-10959500D01*
X14152500Y-10909500D02*
X14252500Y-10909500D01*
X14202500Y-11113500D02*
X14202500Y-11213500D01*
X14152500Y-11163500D02*
X14252500Y-11163500D01*
X14202500Y-11717000D02*
X14202500Y-11817000D01*
X14152500Y-11767000D02*
X14252500Y-11767000D01*
X14202500Y-11971000D02*
X14202500Y-12071000D01*
X14152500Y-12021000D02*
X14252500Y-12021000D01*
X14202500Y-12571000D02*
X14202500Y-12671000D01*
X14152500Y-12621000D02*
X14252500Y-12621000D01*
X14202500Y-12825000D02*
X14202500Y-12925000D01*
X14152500Y-12875000D02*
X14252500Y-12875000D01*
X14202500Y-13410700D02*
X14202500Y-13510700D01*
X14152500Y-13460700D02*
X14252500Y-13460700D01*
X14202500Y-13664700D02*
X14202500Y-13764700D01*
X14152500Y-13714700D02*
X14252500Y-13714700D01*
X14224000Y-5450000D02*
X14224000Y-5550000D01*
X14174000Y-5500000D02*
X14274000Y-5500000D01*
X14224000Y-5704000D02*
X14224000Y-5804000D01*
X14174000Y-5754000D02*
X14274000Y-5754000D01*
X14224000Y-5958000D02*
X14224000Y-6058000D01*
X14174000Y-6008000D02*
X14274000Y-6008000D01*
X14224000Y-6212000D02*
X14224000Y-6312000D01*
X14174000Y-6262000D02*
X14274000Y-6262000D01*
X14224000Y-6466000D02*
X14224000Y-6566000D01*
X14174000Y-6516000D02*
X14274000Y-6516000D01*
X14224000Y-6720000D02*
X14224000Y-6820000D01*
X14174000Y-6770000D02*
X14274000Y-6770000D01*
X14224000Y-6974000D02*
X14224000Y-7074000D01*
X14174000Y-7024000D02*
X14274000Y-7024000D01*
X14224000Y-7228000D02*
X14224000Y-7328000D01*
X14174000Y-7278000D02*
X14274000Y-7278000D01*
X14224000Y-7482000D02*
X14224000Y-7582000D01*
X14174000Y-7532000D02*
X14274000Y-7532000D01*
X14224000Y-7736000D02*
X14224000Y-7836000D01*
X14174000Y-7786000D02*
X14274000Y-7786000D01*
X14224000Y-7990000D02*
X14224000Y-8090000D01*
X14174000Y-8040000D02*
X14274000Y-8040000D01*
X14224000Y-8244000D02*
X14224000Y-8344000D01*
X14174000Y-8294000D02*
X14274000Y-8294000D01*
X14224000Y-8498000D02*
X14224000Y-8598000D01*
X14174000Y-8548000D02*
X14274000Y-8548000D01*
X14224000Y-8752000D02*
X14224000Y-8852000D01*
X14174000Y-8802000D02*
X14274000Y-8802000D01*
X14224000Y-9006000D02*
X14224000Y-9106000D01*
X14174000Y-9056000D02*
X14274000Y-9056000D01*
D12*
X12670119Y-15717976D02*
X12670119Y-15517976D01*
X12717738Y-15517976D01*
X12746309Y-15527500D01*
X12765357Y-15546548D01*
X12774881Y-15565595D01*
X12784405Y-15603690D01*
X12784405Y-15632262D01*
X12774881Y-15670357D01*
X12765357Y-15689405D01*
X12746309Y-15708452D01*
X12717738Y-15717976D01*
X12670119Y-15717976D01*
X12870119Y-15717976D02*
X12870119Y-15584643D01*
X12870119Y-15622738D02*
X12879643Y-15603690D01*
X12889167Y-15594167D01*
X12908214Y-15584643D01*
X12927262Y-15584643D01*
X12993928Y-15717976D02*
X12993928Y-15584643D01*
X12993928Y-15517976D02*
X12984405Y-15527500D01*
X12993928Y-15537024D01*
X13003452Y-15527500D01*
X12993928Y-15517976D01*
X12993928Y-15537024D01*
X13117738Y-15717976D02*
X13098690Y-15708452D01*
X13089167Y-15689405D01*
X13089167Y-15517976D01*
X13222500Y-15717976D02*
X13203452Y-15708452D01*
X13193928Y-15689405D01*
X13193928Y-15517976D01*
X13451071Y-15717976D02*
X13451071Y-15517976D01*
X13517738Y-15660833D01*
X13584405Y-15517976D01*
X13584405Y-15717976D01*
X13765357Y-15717976D02*
X13765357Y-15613214D01*
X13755833Y-15594167D01*
X13736786Y-15584643D01*
X13698690Y-15584643D01*
X13679643Y-15594167D01*
X13765357Y-15708452D02*
X13746309Y-15717976D01*
X13698690Y-15717976D01*
X13679643Y-15708452D01*
X13670119Y-15689405D01*
X13670119Y-15670357D01*
X13679643Y-15651309D01*
X13698690Y-15641786D01*
X13746309Y-15641786D01*
X13765357Y-15632262D01*
X13860595Y-15584643D02*
X13860595Y-15784643D01*
X13860595Y-15594167D02*
X13879643Y-15584643D01*
X13917738Y-15584643D01*
X13936786Y-15594167D01*
X13946309Y-15603690D01*
X13955833Y-15622738D01*
X13955833Y-15679881D01*
X13946309Y-15698928D01*
X13936786Y-15708452D01*
X13917738Y-15717976D01*
X13879643Y-15717976D01*
X13860595Y-15708452D01*
X14041548Y-15698928D02*
X14051071Y-15708452D01*
X14041548Y-15717976D01*
X14032024Y-15708452D01*
X14041548Y-15698928D01*
X14041548Y-15717976D01*
X14041548Y-15594167D02*
X14051071Y-15603690D01*
X14041548Y-15613214D01*
X14032024Y-15603690D01*
X14041548Y-15594167D01*
X14041548Y-15613214D01*
D13*
X12372500Y-16027500D02*
X12412500Y-16067500D01*
X12412500Y-16027500D02*
X12372500Y-16067500D01*
D12*
X12708214Y-15937976D02*
X12727262Y-15937976D01*
X12746309Y-15947500D01*
X12755833Y-15957024D01*
X12765357Y-15976071D01*
X12774881Y-16014167D01*
X12774881Y-16061786D01*
X12765357Y-16099881D01*
X12755833Y-16118928D01*
X12746309Y-16128452D01*
X12727262Y-16137976D01*
X12708214Y-16137976D01*
X12689167Y-16128452D01*
X12679643Y-16118928D01*
X12670119Y-16099881D01*
X12660595Y-16061786D01*
X12660595Y-16014167D01*
X12670119Y-15976071D01*
X12679643Y-15957024D01*
X12689167Y-15947500D01*
X12708214Y-15937976D01*
X12860595Y-16118928D02*
X12870119Y-16128452D01*
X12860595Y-16137976D01*
X12851071Y-16128452D01*
X12860595Y-16118928D01*
X12860595Y-16137976D01*
X13041548Y-16004643D02*
X13041548Y-16137976D01*
X12993928Y-15928452D02*
X12946309Y-16071309D01*
X13070119Y-16071309D01*
X13184405Y-15937976D02*
X13203452Y-15937976D01*
X13222500Y-15947500D01*
X13232024Y-15957024D01*
X13241548Y-15976071D01*
X13251071Y-16014167D01*
X13251071Y-16061786D01*
X13241548Y-16099881D01*
X13232024Y-16118928D01*
X13222500Y-16128452D01*
X13203452Y-16137976D01*
X13184405Y-16137976D01*
X13165357Y-16128452D01*
X13155833Y-16118928D01*
X13146309Y-16099881D01*
X13136786Y-16061786D01*
X13136786Y-16014167D01*
X13146309Y-15976071D01*
X13155833Y-15957024D01*
X13165357Y-15947500D01*
X13184405Y-15937976D01*
X13374881Y-15937976D02*
X13393928Y-15937976D01*
X13412976Y-15947500D01*
X13422500Y-15957024D01*
X13432024Y-15976071D01*
X13441548Y-16014167D01*
X13441548Y-16061786D01*
X13432024Y-16099881D01*
X13422500Y-16118928D01*
X13412976Y-16128452D01*
X13393928Y-16137976D01*
X13374881Y-16137976D01*
X13355833Y-16128452D01*
X13346309Y-16118928D01*
X13336786Y-16099881D01*
X13327262Y-16061786D01*
X13327262Y-16014167D01*
X13336786Y-15976071D01*
X13346309Y-15957024D01*
X13355833Y-15947500D01*
X13374881Y-15937976D01*
X13527262Y-16137976D02*
X13527262Y-16004643D01*
X13527262Y-16023690D02*
X13536786Y-16014167D01*
X13555833Y-16004643D01*
X13584405Y-16004643D01*
X13603452Y-16014167D01*
X13612976Y-16033214D01*
X13612976Y-16137976D01*
X13612976Y-16033214D02*
X13622500Y-16014167D01*
X13641548Y-16004643D01*
X13670119Y-16004643D01*
X13689167Y-16014167D01*
X13698690Y-16033214D01*
X13698690Y-16137976D01*
X13793928Y-16137976D02*
X13793928Y-16004643D01*
X13793928Y-16023690D02*
X13803452Y-16014167D01*
X13822500Y-16004643D01*
X13851071Y-16004643D01*
X13870119Y-16014167D01*
X13879643Y-16033214D01*
X13879643Y-16137976D01*
X13879643Y-16033214D02*
X13889167Y-16014167D01*
X13908214Y-16004643D01*
X13936786Y-16004643D01*
X13955833Y-16014167D01*
X13965357Y-16033214D01*
X13965357Y-16137976D01*
X14355833Y-15928452D02*
X14184405Y-16185595D01*
X14612976Y-15937976D02*
X14632024Y-15937976D01*
X14651071Y-15947500D01*
X14660595Y-15957024D01*
X14670119Y-15976071D01*
X14679643Y-16014167D01*
X14679643Y-16061786D01*
X14670119Y-16099881D01*
X14660595Y-16118928D01*
X14651071Y-16128452D01*
X14632024Y-16137976D01*
X14612976Y-16137976D01*
X14593928Y-16128452D01*
X14584405Y-16118928D01*
X14574881Y-16099881D01*
X14565357Y-16061786D01*
X14565357Y-16014167D01*
X14574881Y-15976071D01*
X14584405Y-15957024D01*
X14593928Y-15947500D01*
X14612976Y-15937976D01*
X14765357Y-16118928D02*
X14774881Y-16128452D01*
X14765357Y-16137976D01*
X14755833Y-16128452D01*
X14765357Y-16118928D01*
X14765357Y-16137976D01*
X14898690Y-15937976D02*
X14917738Y-15937976D01*
X14936786Y-15947500D01*
X14946309Y-15957024D01*
X14955833Y-15976071D01*
X14965357Y-16014167D01*
X14965357Y-16061786D01*
X14955833Y-16099881D01*
X14946309Y-16118928D01*
X14936786Y-16128452D01*
X14917738Y-16137976D01*
X14898690Y-16137976D01*
X14879643Y-16128452D01*
X14870119Y-16118928D01*
X14860595Y-16099881D01*
X14851071Y-16061786D01*
X14851071Y-16014167D01*
X14860595Y-15976071D01*
X14870119Y-15957024D01*
X14879643Y-15947500D01*
X14898690Y-15937976D01*
X15155833Y-16137976D02*
X15041548Y-16137976D01*
X15098690Y-16137976D02*
X15098690Y-15937976D01*
X15079643Y-15966548D01*
X15060595Y-15985595D01*
X15041548Y-15995119D01*
X15336786Y-15937976D02*
X15241548Y-15937976D01*
X15232024Y-16033214D01*
X15241548Y-16023690D01*
X15260595Y-16014167D01*
X15308214Y-16014167D01*
X15327262Y-16023690D01*
X15336786Y-16033214D01*
X15346309Y-16052262D01*
X15346309Y-16099881D01*
X15336786Y-16118928D01*
X15327262Y-16128452D01*
X15308214Y-16137976D01*
X15260595Y-16137976D01*
X15241548Y-16128452D01*
X15232024Y-16118928D01*
X15412976Y-15937976D02*
X15546309Y-15937976D01*
X15460595Y-16137976D01*
X15612976Y-15937976D02*
X15612976Y-15976071D01*
X15689167Y-15937976D02*
X15689167Y-15976071D01*
X15984405Y-16214167D02*
X15974881Y-16204643D01*
X15955833Y-16176071D01*
X15946309Y-16157024D01*
X15936786Y-16128452D01*
X15927262Y-16080833D01*
X15927262Y-16042738D01*
X15936786Y-15995119D01*
X15946309Y-15966548D01*
X15955833Y-15947500D01*
X15974881Y-15918928D01*
X15984405Y-15909405D01*
X16146309Y-15937976D02*
X16108214Y-15937976D01*
X16089167Y-15947500D01*
X16079643Y-15957024D01*
X16060595Y-15985595D01*
X16051071Y-16023690D01*
X16051071Y-16099881D01*
X16060595Y-16118928D01*
X16070119Y-16128452D01*
X16089167Y-16137976D01*
X16127262Y-16137976D01*
X16146309Y-16128452D01*
X16155833Y-16118928D01*
X16165357Y-16099881D01*
X16165357Y-16052262D01*
X16155833Y-16033214D01*
X16146309Y-16023690D01*
X16127262Y-16014167D01*
X16089167Y-16014167D01*
X16070119Y-16023690D01*
X16060595Y-16033214D01*
X16051071Y-16052262D01*
X16260595Y-16137976D02*
X16298690Y-16137976D01*
X16317738Y-16128452D01*
X16327262Y-16118928D01*
X16346309Y-16090357D01*
X16355833Y-16052262D01*
X16355833Y-15976071D01*
X16346309Y-15957024D01*
X16336786Y-15947500D01*
X16317738Y-15937976D01*
X16279643Y-15937976D01*
X16260595Y-15947500D01*
X16251071Y-15957024D01*
X16241548Y-15976071D01*
X16241548Y-16023690D01*
X16251071Y-16042738D01*
X16260595Y-16052262D01*
X16279643Y-16061786D01*
X16317738Y-16061786D01*
X16336786Y-16052262D01*
X16346309Y-16042738D01*
X16355833Y-16023690D01*
X16593928Y-16137976D02*
X16593928Y-15937976D01*
X16679643Y-16137976D02*
X16679643Y-16033214D01*
X16670119Y-16014167D01*
X16651071Y-16004643D01*
X16622500Y-16004643D01*
X16603452Y-16014167D01*
X16593928Y-16023690D01*
X16803452Y-16137976D02*
X16784405Y-16128452D01*
X16774881Y-16118928D01*
X16765357Y-16099881D01*
X16765357Y-16042738D01*
X16774881Y-16023690D01*
X16784405Y-16014167D01*
X16803452Y-16004643D01*
X16832024Y-16004643D01*
X16851071Y-16014167D01*
X16860595Y-16023690D01*
X16870119Y-16042738D01*
X16870119Y-16099881D01*
X16860595Y-16118928D01*
X16851071Y-16128452D01*
X16832024Y-16137976D01*
X16803452Y-16137976D01*
X16984405Y-16137976D02*
X16965357Y-16128452D01*
X16955833Y-16109405D01*
X16955833Y-15937976D01*
X17136786Y-16128452D02*
X17117738Y-16137976D01*
X17079643Y-16137976D01*
X17060595Y-16128452D01*
X17051071Y-16109405D01*
X17051071Y-16033214D01*
X17060595Y-16014167D01*
X17079643Y-16004643D01*
X17117738Y-16004643D01*
X17136786Y-16014167D01*
X17146310Y-16033214D01*
X17146310Y-16052262D01*
X17051071Y-16071309D01*
X17222500Y-16128452D02*
X17241548Y-16137976D01*
X17279643Y-16137976D01*
X17298690Y-16128452D01*
X17308214Y-16109405D01*
X17308214Y-16099881D01*
X17298690Y-16080833D01*
X17279643Y-16071309D01*
X17251071Y-16071309D01*
X17232024Y-16061786D01*
X17222500Y-16042738D01*
X17222500Y-16033214D01*
X17232024Y-16014167D01*
X17251071Y-16004643D01*
X17279643Y-16004643D01*
X17298690Y-16014167D01*
X17374881Y-16214167D02*
X17384405Y-16204643D01*
X17403452Y-16176071D01*
X17412976Y-16157024D01*
X17422500Y-16128452D01*
X17432024Y-16080833D01*
X17432024Y-16042738D01*
X17422500Y-15995119D01*
X17412976Y-15966548D01*
X17403452Y-15947500D01*
X17384405Y-15918928D01*
X17374881Y-15909405D01*
D14*
X12412500Y-16311500D02*
G75*
G03*
X12412500Y-16311500I-40000J0D01*
G01*
D12*
X12708214Y-16201976D02*
X12727262Y-16201976D01*
X12746309Y-16211500D01*
X12755833Y-16221024D01*
X12765357Y-16240071D01*
X12774881Y-16278167D01*
X12774881Y-16325786D01*
X12765357Y-16363881D01*
X12755833Y-16382928D01*
X12746309Y-16392452D01*
X12727262Y-16401976D01*
X12708214Y-16401976D01*
X12689167Y-16392452D01*
X12679643Y-16382928D01*
X12670119Y-16363881D01*
X12660595Y-16325786D01*
X12660595Y-16278167D01*
X12670119Y-16240071D01*
X12679643Y-16221024D01*
X12689167Y-16211500D01*
X12708214Y-16201976D01*
X12860595Y-16382928D02*
X12870119Y-16392452D01*
X12860595Y-16401976D01*
X12851071Y-16392452D01*
X12860595Y-16382928D01*
X12860595Y-16401976D01*
X12984405Y-16287690D02*
X12965357Y-16278167D01*
X12955833Y-16268643D01*
X12946309Y-16249595D01*
X12946309Y-16240071D01*
X12955833Y-16221024D01*
X12965357Y-16211500D01*
X12984405Y-16201976D01*
X13022500Y-16201976D01*
X13041548Y-16211500D01*
X13051071Y-16221024D01*
X13060595Y-16240071D01*
X13060595Y-16249595D01*
X13051071Y-16268643D01*
X13041548Y-16278167D01*
X13022500Y-16287690D01*
X12984405Y-16287690D01*
X12965357Y-16297214D01*
X12955833Y-16306738D01*
X12946309Y-16325786D01*
X12946309Y-16363881D01*
X12955833Y-16382928D01*
X12965357Y-16392452D01*
X12984405Y-16401976D01*
X13022500Y-16401976D01*
X13041548Y-16392452D01*
X13051071Y-16382928D01*
X13060595Y-16363881D01*
X13060595Y-16325786D01*
X13051071Y-16306738D01*
X13041548Y-16297214D01*
X13022500Y-16287690D01*
X13184405Y-16201976D02*
X13203452Y-16201976D01*
X13222500Y-16211500D01*
X13232024Y-16221024D01*
X13241548Y-16240071D01*
X13251071Y-16278167D01*
X13251071Y-16325786D01*
X13241548Y-16363881D01*
X13232024Y-16382928D01*
X13222500Y-16392452D01*
X13203452Y-16401976D01*
X13184405Y-16401976D01*
X13165357Y-16392452D01*
X13155833Y-16382928D01*
X13146309Y-16363881D01*
X13136786Y-16325786D01*
X13136786Y-16278167D01*
X13146309Y-16240071D01*
X13155833Y-16221024D01*
X13165357Y-16211500D01*
X13184405Y-16201976D01*
X13374881Y-16201976D02*
X13393928Y-16201976D01*
X13412976Y-16211500D01*
X13422500Y-16221024D01*
X13432024Y-16240071D01*
X13441548Y-16278167D01*
X13441548Y-16325786D01*
X13432024Y-16363881D01*
X13422500Y-16382928D01*
X13412976Y-16392452D01*
X13393928Y-16401976D01*
X13374881Y-16401976D01*
X13355833Y-16392452D01*
X13346309Y-16382928D01*
X13336786Y-16363881D01*
X13327262Y-16325786D01*
X13327262Y-16278167D01*
X13336786Y-16240071D01*
X13346309Y-16221024D01*
X13355833Y-16211500D01*
X13374881Y-16201976D01*
X13527262Y-16401976D02*
X13527262Y-16268643D01*
X13527262Y-16287690D02*
X13536786Y-16278167D01*
X13555833Y-16268643D01*
X13584405Y-16268643D01*
X13603452Y-16278167D01*
X13612976Y-16297214D01*
X13612976Y-16401976D01*
X13612976Y-16297214D02*
X13622500Y-16278167D01*
X13641548Y-16268643D01*
X13670119Y-16268643D01*
X13689167Y-16278167D01*
X13698690Y-16297214D01*
X13698690Y-16401976D01*
X13793928Y-16401976D02*
X13793928Y-16268643D01*
X13793928Y-16287690D02*
X13803452Y-16278167D01*
X13822500Y-16268643D01*
X13851071Y-16268643D01*
X13870119Y-16278167D01*
X13879643Y-16297214D01*
X13879643Y-16401976D01*
X13879643Y-16297214D02*
X13889167Y-16278167D01*
X13908214Y-16268643D01*
X13936786Y-16268643D01*
X13955833Y-16278167D01*
X13965357Y-16297214D01*
X13965357Y-16401976D01*
X14355833Y-16192452D02*
X14184405Y-16449595D01*
X14612976Y-16201976D02*
X14632024Y-16201976D01*
X14651071Y-16211500D01*
X14660595Y-16221024D01*
X14670119Y-16240071D01*
X14679643Y-16278167D01*
X14679643Y-16325786D01*
X14670119Y-16363881D01*
X14660595Y-16382928D01*
X14651071Y-16392452D01*
X14632024Y-16401976D01*
X14612976Y-16401976D01*
X14593928Y-16392452D01*
X14584405Y-16382928D01*
X14574881Y-16363881D01*
X14565357Y-16325786D01*
X14565357Y-16278167D01*
X14574881Y-16240071D01*
X14584405Y-16221024D01*
X14593928Y-16211500D01*
X14612976Y-16201976D01*
X14765357Y-16382928D02*
X14774881Y-16392452D01*
X14765357Y-16401976D01*
X14755833Y-16392452D01*
X14765357Y-16382928D01*
X14765357Y-16401976D01*
X14898690Y-16201976D02*
X14917738Y-16201976D01*
X14936786Y-16211500D01*
X14946309Y-16221024D01*
X14955833Y-16240071D01*
X14965357Y-16278167D01*
X14965357Y-16325786D01*
X14955833Y-16363881D01*
X14946309Y-16382928D01*
X14936786Y-16392452D01*
X14917738Y-16401976D01*
X14898690Y-16401976D01*
X14879643Y-16392452D01*
X14870119Y-16382928D01*
X14860595Y-16363881D01*
X14851071Y-16325786D01*
X14851071Y-16278167D01*
X14860595Y-16240071D01*
X14870119Y-16221024D01*
X14879643Y-16211500D01*
X14898690Y-16201976D01*
X15032024Y-16201976D02*
X15155833Y-16201976D01*
X15089167Y-16278167D01*
X15117738Y-16278167D01*
X15136786Y-16287690D01*
X15146309Y-16297214D01*
X15155833Y-16316262D01*
X15155833Y-16363881D01*
X15146309Y-16382928D01*
X15136786Y-16392452D01*
X15117738Y-16401976D01*
X15060595Y-16401976D01*
X15041548Y-16392452D01*
X15032024Y-16382928D01*
X15346309Y-16401976D02*
X15232024Y-16401976D01*
X15289167Y-16401976D02*
X15289167Y-16201976D01*
X15270119Y-16230548D01*
X15251071Y-16249595D01*
X15232024Y-16259119D01*
X15527262Y-16201976D02*
X15432024Y-16201976D01*
X15422500Y-16297214D01*
X15432024Y-16287690D01*
X15451071Y-16278167D01*
X15498690Y-16278167D01*
X15517738Y-16287690D01*
X15527262Y-16297214D01*
X15536786Y-16316262D01*
X15536786Y-16363881D01*
X15527262Y-16382928D01*
X15517738Y-16392452D01*
X15498690Y-16401976D01*
X15451071Y-16401976D01*
X15432024Y-16392452D01*
X15422500Y-16382928D01*
X15612976Y-16201976D02*
X15612976Y-16240071D01*
X15689167Y-16201976D02*
X15689167Y-16240071D01*
X15984405Y-16478167D02*
X15974881Y-16468643D01*
X15955833Y-16440071D01*
X15946309Y-16421024D01*
X15936786Y-16392452D01*
X15927262Y-16344833D01*
X15927262Y-16306738D01*
X15936786Y-16259119D01*
X15946309Y-16230548D01*
X15955833Y-16211500D01*
X15974881Y-16182928D01*
X15984405Y-16173405D01*
X16089167Y-16287690D02*
X16070119Y-16278167D01*
X16060595Y-16268643D01*
X16051071Y-16249595D01*
X16051071Y-16240071D01*
X16060595Y-16221024D01*
X16070119Y-16211500D01*
X16089167Y-16201976D01*
X16127262Y-16201976D01*
X16146309Y-16211500D01*
X16155833Y-16221024D01*
X16165357Y-16240071D01*
X16165357Y-16249595D01*
X16155833Y-16268643D01*
X16146309Y-16278167D01*
X16127262Y-16287690D01*
X16089167Y-16287690D01*
X16070119Y-16297214D01*
X16060595Y-16306738D01*
X16051071Y-16325786D01*
X16051071Y-16363881D01*
X16060595Y-16382928D01*
X16070119Y-16392452D01*
X16089167Y-16401976D01*
X16127262Y-16401976D01*
X16146309Y-16392452D01*
X16155833Y-16382928D01*
X16165357Y-16363881D01*
X16165357Y-16325786D01*
X16155833Y-16306738D01*
X16146309Y-16297214D01*
X16127262Y-16287690D01*
X16403452Y-16401976D02*
X16403452Y-16201976D01*
X16489167Y-16401976D02*
X16489167Y-16297214D01*
X16479643Y-16278167D01*
X16460595Y-16268643D01*
X16432024Y-16268643D01*
X16412976Y-16278167D01*
X16403452Y-16287690D01*
X16612976Y-16401976D02*
X16593928Y-16392452D01*
X16584405Y-16382928D01*
X16574881Y-16363881D01*
X16574881Y-16306738D01*
X16584405Y-16287690D01*
X16593928Y-16278167D01*
X16612976Y-16268643D01*
X16641548Y-16268643D01*
X16660595Y-16278167D01*
X16670119Y-16287690D01*
X16679643Y-16306738D01*
X16679643Y-16363881D01*
X16670119Y-16382928D01*
X16660595Y-16392452D01*
X16641548Y-16401976D01*
X16612976Y-16401976D01*
X16793929Y-16401976D02*
X16774881Y-16392452D01*
X16765357Y-16373405D01*
X16765357Y-16201976D01*
X16946310Y-16392452D02*
X16927262Y-16401976D01*
X16889167Y-16401976D01*
X16870119Y-16392452D01*
X16860595Y-16373405D01*
X16860595Y-16297214D01*
X16870119Y-16278167D01*
X16889167Y-16268643D01*
X16927262Y-16268643D01*
X16946310Y-16278167D01*
X16955833Y-16297214D01*
X16955833Y-16316262D01*
X16860595Y-16335309D01*
X17032024Y-16392452D02*
X17051071Y-16401976D01*
X17089167Y-16401976D01*
X17108214Y-16392452D01*
X17117738Y-16373405D01*
X17117738Y-16363881D01*
X17108214Y-16344833D01*
X17089167Y-16335309D01*
X17060595Y-16335309D01*
X17041548Y-16325786D01*
X17032024Y-16306738D01*
X17032024Y-16297214D01*
X17041548Y-16278167D01*
X17060595Y-16268643D01*
X17089167Y-16268643D01*
X17108214Y-16278167D01*
X17184405Y-16478167D02*
X17193929Y-16468643D01*
X17212976Y-16440071D01*
X17222500Y-16421024D01*
X17232024Y-16392452D01*
X17241548Y-16344833D01*
X17241548Y-16306738D01*
X17232024Y-16259119D01*
X17222500Y-16230548D01*
X17212976Y-16211500D01*
X17193929Y-16182928D01*
X17184405Y-16173405D01*
D15*
X12362500Y-16525500D02*
X12362500Y-16625500D01*
X12312500Y-16575500D02*
X12412500Y-16575500D01*
D12*
X12774881Y-16665976D02*
X12660595Y-16665976D01*
X12717738Y-16665976D02*
X12717738Y-16465976D01*
X12698690Y-16494548D01*
X12679643Y-16513595D01*
X12660595Y-16523119D01*
X12860595Y-16646928D02*
X12870119Y-16656452D01*
X12860595Y-16665976D01*
X12851071Y-16656452D01*
X12860595Y-16646928D01*
X12860595Y-16665976D01*
X12993928Y-16465976D02*
X13012976Y-16465976D01*
X13032024Y-16475500D01*
X13041548Y-16485024D01*
X13051071Y-16504071D01*
X13060595Y-16542167D01*
X13060595Y-16589786D01*
X13051071Y-16627881D01*
X13041548Y-16646928D01*
X13032024Y-16656452D01*
X13012976Y-16665976D01*
X12993928Y-16665976D01*
X12974881Y-16656452D01*
X12965357Y-16646928D01*
X12955833Y-16627881D01*
X12946309Y-16589786D01*
X12946309Y-16542167D01*
X12955833Y-16504071D01*
X12965357Y-16485024D01*
X12974881Y-16475500D01*
X12993928Y-16465976D01*
X13184405Y-16465976D02*
X13203452Y-16465976D01*
X13222500Y-16475500D01*
X13232024Y-16485024D01*
X13241548Y-16504071D01*
X13251071Y-16542167D01*
X13251071Y-16589786D01*
X13241548Y-16627881D01*
X13232024Y-16646928D01*
X13222500Y-16656452D01*
X13203452Y-16665976D01*
X13184405Y-16665976D01*
X13165357Y-16656452D01*
X13155833Y-16646928D01*
X13146309Y-16627881D01*
X13136786Y-16589786D01*
X13136786Y-16542167D01*
X13146309Y-16504071D01*
X13155833Y-16485024D01*
X13165357Y-16475500D01*
X13184405Y-16465976D01*
X13374881Y-16465976D02*
X13393928Y-16465976D01*
X13412976Y-16475500D01*
X13422500Y-16485024D01*
X13432024Y-16504071D01*
X13441548Y-16542167D01*
X13441548Y-16589786D01*
X13432024Y-16627881D01*
X13422500Y-16646928D01*
X13412976Y-16656452D01*
X13393928Y-16665976D01*
X13374881Y-16665976D01*
X13355833Y-16656452D01*
X13346309Y-16646928D01*
X13336786Y-16627881D01*
X13327262Y-16589786D01*
X13327262Y-16542167D01*
X13336786Y-16504071D01*
X13346309Y-16485024D01*
X13355833Y-16475500D01*
X13374881Y-16465976D01*
X13527262Y-16665976D02*
X13527262Y-16532643D01*
X13527262Y-16551690D02*
X13536786Y-16542167D01*
X13555833Y-16532643D01*
X13584405Y-16532643D01*
X13603452Y-16542167D01*
X13612976Y-16561214D01*
X13612976Y-16665976D01*
X13612976Y-16561214D02*
X13622500Y-16542167D01*
X13641548Y-16532643D01*
X13670119Y-16532643D01*
X13689167Y-16542167D01*
X13698690Y-16561214D01*
X13698690Y-16665976D01*
X13793928Y-16665976D02*
X13793928Y-16532643D01*
X13793928Y-16551690D02*
X13803452Y-16542167D01*
X13822500Y-16532643D01*
X13851071Y-16532643D01*
X13870119Y-16542167D01*
X13879643Y-16561214D01*
X13879643Y-16665976D01*
X13879643Y-16561214D02*
X13889167Y-16542167D01*
X13908214Y-16532643D01*
X13936786Y-16532643D01*
X13955833Y-16542167D01*
X13965357Y-16561214D01*
X13965357Y-16665976D01*
X14355833Y-16456452D02*
X14184405Y-16713595D01*
X14612976Y-16465976D02*
X14632024Y-16465976D01*
X14651071Y-16475500D01*
X14660595Y-16485024D01*
X14670119Y-16504071D01*
X14679643Y-16542167D01*
X14679643Y-16589786D01*
X14670119Y-16627881D01*
X14660595Y-16646928D01*
X14651071Y-16656452D01*
X14632024Y-16665976D01*
X14612976Y-16665976D01*
X14593928Y-16656452D01*
X14584405Y-16646928D01*
X14574881Y-16627881D01*
X14565357Y-16589786D01*
X14565357Y-16542167D01*
X14574881Y-16504071D01*
X14584405Y-16485024D01*
X14593928Y-16475500D01*
X14612976Y-16465976D01*
X14765357Y-16646928D02*
X14774881Y-16656452D01*
X14765357Y-16665976D01*
X14755833Y-16656452D01*
X14765357Y-16646928D01*
X14765357Y-16665976D01*
X14898690Y-16465976D02*
X14917738Y-16465976D01*
X14936786Y-16475500D01*
X14946309Y-16485024D01*
X14955833Y-16504071D01*
X14965357Y-16542167D01*
X14965357Y-16589786D01*
X14955833Y-16627881D01*
X14946309Y-16646928D01*
X14936786Y-16656452D01*
X14917738Y-16665976D01*
X14898690Y-16665976D01*
X14879643Y-16656452D01*
X14870119Y-16646928D01*
X14860595Y-16627881D01*
X14851071Y-16589786D01*
X14851071Y-16542167D01*
X14860595Y-16504071D01*
X14870119Y-16485024D01*
X14879643Y-16475500D01*
X14898690Y-16465976D01*
X15032024Y-16465976D02*
X15155833Y-16465976D01*
X15089167Y-16542167D01*
X15117738Y-16542167D01*
X15136786Y-16551690D01*
X15146309Y-16561214D01*
X15155833Y-16580262D01*
X15155833Y-16627881D01*
X15146309Y-16646928D01*
X15136786Y-16656452D01*
X15117738Y-16665976D01*
X15060595Y-16665976D01*
X15041548Y-16656452D01*
X15032024Y-16646928D01*
X15251071Y-16665976D02*
X15289167Y-16665976D01*
X15308214Y-16656452D01*
X15317738Y-16646928D01*
X15336786Y-16618357D01*
X15346309Y-16580262D01*
X15346309Y-16504071D01*
X15336786Y-16485024D01*
X15327262Y-16475500D01*
X15308214Y-16465976D01*
X15270119Y-16465976D01*
X15251071Y-16475500D01*
X15241548Y-16485024D01*
X15232024Y-16504071D01*
X15232024Y-16551690D01*
X15241548Y-16570738D01*
X15251071Y-16580262D01*
X15270119Y-16589786D01*
X15308214Y-16589786D01*
X15327262Y-16580262D01*
X15336786Y-16570738D01*
X15346309Y-16551690D01*
X15517738Y-16532643D02*
X15517738Y-16665976D01*
X15470119Y-16456452D02*
X15422500Y-16599309D01*
X15546309Y-16599309D01*
X15612976Y-16465976D02*
X15612976Y-16504071D01*
X15689167Y-16465976D02*
X15689167Y-16504071D01*
X15984405Y-16742167D02*
X15974881Y-16732643D01*
X15955833Y-16704071D01*
X15946309Y-16685024D01*
X15936786Y-16656452D01*
X15927262Y-16608833D01*
X15927262Y-16570738D01*
X15936786Y-16523119D01*
X15946309Y-16494548D01*
X15955833Y-16475500D01*
X15974881Y-16446928D01*
X15984405Y-16437405D01*
X16146309Y-16532643D02*
X16146309Y-16665976D01*
X16098690Y-16456452D02*
X16051071Y-16599309D01*
X16174881Y-16599309D01*
X16289167Y-16465976D02*
X16308214Y-16465976D01*
X16327262Y-16475500D01*
X16336786Y-16485024D01*
X16346309Y-16504071D01*
X16355833Y-16542167D01*
X16355833Y-16589786D01*
X16346309Y-16627881D01*
X16336786Y-16646928D01*
X16327262Y-16656452D01*
X16308214Y-16665976D01*
X16289167Y-16665976D01*
X16270119Y-16656452D01*
X16260595Y-16646928D01*
X16251071Y-16627881D01*
X16241548Y-16589786D01*
X16241548Y-16542167D01*
X16251071Y-16504071D01*
X16260595Y-16485024D01*
X16270119Y-16475500D01*
X16289167Y-16465976D01*
X16593928Y-16665976D02*
X16593928Y-16465976D01*
X16679643Y-16665976D02*
X16679643Y-16561214D01*
X16670119Y-16542167D01*
X16651071Y-16532643D01*
X16622500Y-16532643D01*
X16603452Y-16542167D01*
X16593928Y-16551690D01*
X16803452Y-16665976D02*
X16784405Y-16656452D01*
X16774881Y-16646928D01*
X16765357Y-16627881D01*
X16765357Y-16570738D01*
X16774881Y-16551690D01*
X16784405Y-16542167D01*
X16803452Y-16532643D01*
X16832024Y-16532643D01*
X16851071Y-16542167D01*
X16860595Y-16551690D01*
X16870119Y-16570738D01*
X16870119Y-16627881D01*
X16860595Y-16646928D01*
X16851071Y-16656452D01*
X16832024Y-16665976D01*
X16803452Y-16665976D01*
X16984405Y-16665976D02*
X16965357Y-16656452D01*
X16955833Y-16637405D01*
X16955833Y-16465976D01*
X17136786Y-16656452D02*
X17117738Y-16665976D01*
X17079643Y-16665976D01*
X17060595Y-16656452D01*
X17051071Y-16637405D01*
X17051071Y-16561214D01*
X17060595Y-16542167D01*
X17079643Y-16532643D01*
X17117738Y-16532643D01*
X17136786Y-16542167D01*
X17146310Y-16561214D01*
X17146310Y-16580262D01*
X17051071Y-16599309D01*
X17222500Y-16656452D02*
X17241548Y-16665976D01*
X17279643Y-16665976D01*
X17298690Y-16656452D01*
X17308214Y-16637405D01*
X17308214Y-16627881D01*
X17298690Y-16608833D01*
X17279643Y-16599309D01*
X17251071Y-16599309D01*
X17232024Y-16589786D01*
X17222500Y-16570738D01*
X17222500Y-16561214D01*
X17232024Y-16542167D01*
X17251071Y-16532643D01*
X17279643Y-16532643D01*
X17298690Y-16542167D01*
X17374881Y-16742167D02*
X17384405Y-16732643D01*
X17403452Y-16704071D01*
X17412976Y-16685024D01*
X17422500Y-16656452D01*
X17432024Y-16608833D01*
X17432024Y-16570738D01*
X17422500Y-16523119D01*
X17412976Y-16494548D01*
X17403452Y-16475500D01*
X17384405Y-16446928D01*
X17374881Y-16437405D01*
M02*
