G04 #@! TF.GenerationSoftware,KiCad,Pcbnew,(5.1.9-0-10_14)*
G04 #@! TF.CreationDate,2021-01-28T12:41:14+01:00*
G04 #@! TF.ProjectId,instrumnet,696e7374-7275-46d6-9e65-742e6b696361,rev?*
G04 #@! TF.SameCoordinates,Original*
G04 #@! TF.FileFunction,Copper,L3,Inr*
G04 #@! TF.FilePolarity,Positive*
%FSLAX46Y46*%
G04 Gerber Fmt 4.6, Leading zero omitted, Abs format (unit mm)*
G04 Created by KiCad (PCBNEW (5.1.9-0-10_14)) date 2021-01-28 12:41:14*
%MOMM*%
%LPD*%
G01*
G04 APERTURE LIST*
G04 #@! TA.AperFunction,Profile*
%ADD10C,0.150000*%
G04 #@! TD*
G04 #@! TA.AperFunction,ComponentPad*
%ADD11O,1.700000X1.700000*%
G04 #@! TD*
G04 #@! TA.AperFunction,ComponentPad*
%ADD12R,1.700000X1.700000*%
G04 #@! TD*
G04 #@! TA.AperFunction,ComponentPad*
%ADD13O,1.350000X1.350000*%
G04 #@! TD*
G04 #@! TA.AperFunction,ComponentPad*
%ADD14R,1.350000X1.350000*%
G04 #@! TD*
G04 #@! TA.AperFunction,ViaPad*
%ADD15C,0.800000*%
G04 #@! TD*
G04 #@! TA.AperFunction,Conductor*
%ADD16C,0.254000*%
G04 #@! TD*
G04 #@! TA.AperFunction,Conductor*
%ADD17C,0.100000*%
G04 #@! TD*
G04 APERTURE END LIST*
D10*
X124500000Y-63650000D02*
X144500000Y-63650000D01*
X124500000Y-147050000D02*
X124500000Y-63650000D01*
X144500000Y-147050000D02*
X124500000Y-147050000D01*
X144500000Y-63650000D02*
X144500000Y-147050000D01*
D11*
X141200000Y-110680000D03*
X141200000Y-113220000D03*
X141200000Y-115760000D03*
X141200000Y-118300000D03*
X141200000Y-120840000D03*
X141200000Y-123380000D03*
X141200000Y-125920000D03*
X141200000Y-128460000D03*
X141200000Y-131000000D03*
X141200000Y-133540000D03*
X141200000Y-136080000D03*
D12*
X141200000Y-138620000D03*
D13*
X142950000Y-65150000D03*
X140950000Y-65150000D03*
X138950000Y-65150000D03*
X136950000Y-65150000D03*
X134950000Y-65150000D03*
X132950000Y-65150000D03*
X130950000Y-65150000D03*
D14*
X128950000Y-65150000D03*
D15*
X128366689Y-78778196D03*
X128346689Y-77838196D03*
X128356689Y-76918196D03*
X143600000Y-89800000D03*
X143600000Y-88100000D03*
X129700000Y-86600000D03*
X126500000Y-86500000D03*
X128600000Y-86500000D03*
X131400000Y-80300000D03*
X126200000Y-66700000D03*
X136342085Y-75259605D03*
X125700000Y-75900000D03*
X143487340Y-82587340D03*
X131100000Y-102800000D03*
X130700000Y-77700000D03*
X135500000Y-68200000D03*
X138000000Y-97700000D03*
X132500000Y-139000000D03*
X129924495Y-142765862D03*
X130475000Y-134225000D03*
X134750000Y-143750000D03*
X130400000Y-111400000D03*
X133500000Y-138100000D03*
X133500000Y-111900000D03*
X133500000Y-118400000D03*
X133500000Y-124700000D03*
X132900000Y-126300000D03*
X132700000Y-132900000D03*
X133600000Y-131300000D03*
X132700000Y-119700000D03*
X132700000Y-113400000D03*
X130400000Y-123200000D03*
X131500000Y-107800000D03*
X129895010Y-120100012D03*
X129895010Y-131987369D03*
X143500000Y-69500000D03*
X132800000Y-67000000D03*
X134200000Y-67000000D03*
X135500000Y-67000000D03*
X132800000Y-68500000D03*
X134200000Y-68500000D03*
X134200000Y-69900000D03*
X130750000Y-135750000D03*
X126474990Y-137612961D03*
X130424826Y-112813443D03*
X134500000Y-138500000D03*
X134500000Y-132300000D03*
X134500000Y-125600000D03*
X134500000Y-119000000D03*
X134500000Y-112600000D03*
X134500000Y-106300000D03*
X130524990Y-124800000D03*
X126200000Y-132400000D03*
X125699978Y-114763679D03*
X137000000Y-70100000D03*
X131200000Y-99800000D03*
X141400000Y-89800000D03*
X130200000Y-78600000D03*
X127700000Y-80800000D03*
X129300000Y-79400000D03*
X143700000Y-101700000D03*
X135900000Y-104400000D03*
X127700000Y-79900000D03*
X127700000Y-81700000D03*
X133300000Y-71400000D03*
X132400000Y-71400000D03*
X134200000Y-71400000D03*
X136374990Y-77300000D03*
X135499999Y-101799999D03*
X135500000Y-100400000D03*
X135374977Y-77300000D03*
X137991738Y-77626069D03*
X137925010Y-92687340D03*
X138923260Y-77262351D03*
X138700000Y-98500000D03*
X126270000Y-143000000D03*
X129140000Y-88030000D03*
X127370154Y-139042538D03*
X127225010Y-116337699D03*
X127050799Y-128259266D03*
X142300000Y-87000000D03*
X126970000Y-94180000D03*
X128400000Y-134200000D03*
X128200000Y-123200000D03*
X128200000Y-92900000D03*
X128610000Y-110290000D03*
X125350000Y-133250000D03*
X125400000Y-122200000D03*
X125400000Y-110400000D03*
X125370000Y-92170000D03*
X137200000Y-76500000D03*
X136100000Y-73200000D03*
X137400000Y-96700000D03*
X140200000Y-77100000D03*
X143400000Y-80400000D03*
X143500000Y-83700000D03*
X126400000Y-88700000D03*
X126400000Y-127500000D03*
X128200000Y-89500000D03*
X127750000Y-115090000D03*
D16*
X127636928Y-64475000D02*
X127636928Y-65825000D01*
X127649188Y-65949482D01*
X127685498Y-66069180D01*
X127744463Y-66179494D01*
X127823815Y-66276185D01*
X127920506Y-66355537D01*
X128030820Y-66414502D01*
X128150518Y-66450812D01*
X128275000Y-66463072D01*
X129625000Y-66463072D01*
X129749482Y-66450812D01*
X129869180Y-66414502D01*
X129979494Y-66355537D01*
X130076185Y-66276185D01*
X130147487Y-66189303D01*
X130329482Y-66310907D01*
X130567887Y-66409658D01*
X130820976Y-66460000D01*
X131079024Y-66460000D01*
X131332113Y-66409658D01*
X131570518Y-66310907D01*
X131785077Y-66167544D01*
X131950000Y-66002621D01*
X132114923Y-66167544D01*
X132148915Y-66190257D01*
X132140226Y-66196063D01*
X131996063Y-66340226D01*
X131882795Y-66509744D01*
X131804774Y-66698102D01*
X131765000Y-66898061D01*
X131765000Y-67101939D01*
X131804774Y-67301898D01*
X131882795Y-67490256D01*
X131996063Y-67659774D01*
X132086289Y-67750000D01*
X131996063Y-67840226D01*
X131882795Y-68009744D01*
X131804774Y-68198102D01*
X131765000Y-68398061D01*
X131765000Y-68601939D01*
X131804774Y-68801898D01*
X131882795Y-68990256D01*
X131996063Y-69159774D01*
X132140226Y-69303937D01*
X132309744Y-69417205D01*
X132498102Y-69495226D01*
X132698061Y-69535000D01*
X132901939Y-69535000D01*
X133101898Y-69495226D01*
X133277519Y-69422481D01*
X133204774Y-69598102D01*
X133165000Y-69798061D01*
X133165000Y-70001939D01*
X133204774Y-70201898D01*
X133282795Y-70390256D01*
X133396063Y-70559774D01*
X133540226Y-70703937D01*
X133709744Y-70817205D01*
X133898102Y-70895226D01*
X134098061Y-70935000D01*
X134301939Y-70935000D01*
X134501898Y-70895226D01*
X134690256Y-70817205D01*
X134859774Y-70703937D01*
X135003937Y-70559774D01*
X135117205Y-70390256D01*
X135195226Y-70201898D01*
X135235000Y-70001939D01*
X135235000Y-69798061D01*
X135195226Y-69598102D01*
X135117205Y-69409744D01*
X135003937Y-69240226D01*
X134963711Y-69200000D01*
X135003937Y-69159774D01*
X135027474Y-69124549D01*
X135198102Y-69195226D01*
X135398061Y-69235000D01*
X135601939Y-69235000D01*
X135801898Y-69195226D01*
X135990256Y-69117205D01*
X136159774Y-69003937D01*
X136303937Y-68859774D01*
X136417205Y-68690256D01*
X136495226Y-68501898D01*
X136535000Y-68301939D01*
X136535000Y-68098061D01*
X136495226Y-67898102D01*
X136417205Y-67709744D01*
X136343877Y-67600000D01*
X136417205Y-67490256D01*
X136495226Y-67301898D01*
X136535000Y-67101939D01*
X136535000Y-66898061D01*
X136495226Y-66698102D01*
X136417205Y-66509744D01*
X136303937Y-66340226D01*
X136164142Y-66200431D01*
X136329482Y-66310907D01*
X136567887Y-66409658D01*
X136820976Y-66460000D01*
X137079024Y-66460000D01*
X137332113Y-66409658D01*
X137570518Y-66310907D01*
X137785077Y-66167544D01*
X137950000Y-66002621D01*
X138114923Y-66167544D01*
X138329482Y-66310907D01*
X138567887Y-66409658D01*
X138820976Y-66460000D01*
X139079024Y-66460000D01*
X139332113Y-66409658D01*
X139570518Y-66310907D01*
X139785077Y-66167544D01*
X139950000Y-66002621D01*
X140114923Y-66167544D01*
X140329482Y-66310907D01*
X140567887Y-66409658D01*
X140820976Y-66460000D01*
X141079024Y-66460000D01*
X141332113Y-66409658D01*
X141570518Y-66310907D01*
X141785077Y-66167544D01*
X141950000Y-66002621D01*
X142114923Y-66167544D01*
X142329482Y-66310907D01*
X142567887Y-66409658D01*
X142820976Y-66460000D01*
X143079024Y-66460000D01*
X143332113Y-66409658D01*
X143570518Y-66310907D01*
X143785077Y-66167544D01*
X143790000Y-66162621D01*
X143790000Y-68502407D01*
X143601939Y-68465000D01*
X143398061Y-68465000D01*
X143198102Y-68504774D01*
X143009744Y-68582795D01*
X142840226Y-68696063D01*
X142696063Y-68840226D01*
X142582795Y-69009744D01*
X142504774Y-69198102D01*
X142465000Y-69398061D01*
X142465000Y-69601939D01*
X142504774Y-69801898D01*
X142582795Y-69990256D01*
X142696063Y-70159774D01*
X142840226Y-70303937D01*
X143009744Y-70417205D01*
X143198102Y-70495226D01*
X143398061Y-70535000D01*
X143601939Y-70535000D01*
X143790000Y-70497593D01*
X143790000Y-79441267D01*
X143701898Y-79404774D01*
X143501939Y-79365000D01*
X143298061Y-79365000D01*
X143098102Y-79404774D01*
X142909744Y-79482795D01*
X142740226Y-79596063D01*
X142596063Y-79740226D01*
X142482795Y-79909744D01*
X142404774Y-80098102D01*
X142365000Y-80298061D01*
X142365000Y-80501939D01*
X142404774Y-80701898D01*
X142482795Y-80890256D01*
X142596063Y-81059774D01*
X142740226Y-81203937D01*
X142909744Y-81317205D01*
X143098102Y-81395226D01*
X143298061Y-81435000D01*
X143501939Y-81435000D01*
X143701898Y-81395226D01*
X143790000Y-81358733D01*
X143790000Y-81592430D01*
X143789238Y-81592114D01*
X143589279Y-81552340D01*
X143385401Y-81552340D01*
X143185442Y-81592114D01*
X142997084Y-81670135D01*
X142827566Y-81783403D01*
X142683403Y-81927566D01*
X142570135Y-82097084D01*
X142492114Y-82285442D01*
X142452340Y-82485401D01*
X142452340Y-82689279D01*
X142492114Y-82889238D01*
X142570135Y-83077596D01*
X142620614Y-83153144D01*
X142582795Y-83209744D01*
X142504774Y-83398102D01*
X142465000Y-83598061D01*
X142465000Y-83801939D01*
X142504774Y-84001898D01*
X142582795Y-84190256D01*
X142696063Y-84359774D01*
X142840226Y-84503937D01*
X143009744Y-84617205D01*
X143198102Y-84695226D01*
X143398061Y-84735000D01*
X143601939Y-84735000D01*
X143790000Y-84697593D01*
X143790000Y-87082516D01*
X143701939Y-87065000D01*
X143498061Y-87065000D01*
X143335000Y-87097435D01*
X143335000Y-86898061D01*
X143295226Y-86698102D01*
X143217205Y-86509744D01*
X143103937Y-86340226D01*
X142959774Y-86196063D01*
X142790256Y-86082795D01*
X142601898Y-86004774D01*
X142401939Y-85965000D01*
X142198061Y-85965000D01*
X141998102Y-86004774D01*
X141809744Y-86082795D01*
X141640226Y-86196063D01*
X141496063Y-86340226D01*
X141382795Y-86509744D01*
X141304774Y-86698102D01*
X141265000Y-86898061D01*
X141265000Y-87101939D01*
X141304774Y-87301898D01*
X141382795Y-87490256D01*
X141496063Y-87659774D01*
X141640226Y-87803937D01*
X141809744Y-87917205D01*
X141998102Y-87995226D01*
X142198061Y-88035000D01*
X142401939Y-88035000D01*
X142565000Y-88002565D01*
X142565000Y-88201939D01*
X142604774Y-88401898D01*
X142682795Y-88590256D01*
X142796063Y-88759774D01*
X142940226Y-88903937D01*
X143009164Y-88950000D01*
X142940226Y-88996063D01*
X142796063Y-89140226D01*
X142682795Y-89309744D01*
X142604774Y-89498102D01*
X142565000Y-89698061D01*
X142565000Y-89901939D01*
X142604774Y-90101898D01*
X142682795Y-90290256D01*
X142796063Y-90459774D01*
X142940226Y-90603937D01*
X143109744Y-90717205D01*
X143298102Y-90795226D01*
X143498061Y-90835000D01*
X143701939Y-90835000D01*
X143790000Y-90817484D01*
X143790001Y-146340000D01*
X125210000Y-146340000D01*
X125210000Y-142898061D01*
X125235000Y-142898061D01*
X125235000Y-143101939D01*
X125274774Y-143301898D01*
X125352795Y-143490256D01*
X125466063Y-143659774D01*
X125610226Y-143803937D01*
X125779744Y-143917205D01*
X125968102Y-143995226D01*
X126168061Y-144035000D01*
X126371939Y-144035000D01*
X126571898Y-143995226D01*
X126760256Y-143917205D01*
X126929774Y-143803937D01*
X127073937Y-143659774D01*
X127187205Y-143490256D01*
X127265226Y-143301898D01*
X127305000Y-143101939D01*
X127305000Y-142898061D01*
X127265226Y-142698102D01*
X127251069Y-142663923D01*
X128889495Y-142663923D01*
X128889495Y-142867801D01*
X128929269Y-143067760D01*
X129007290Y-143256118D01*
X129120558Y-143425636D01*
X129264721Y-143569799D01*
X129434239Y-143683067D01*
X129622597Y-143761088D01*
X129822556Y-143800862D01*
X130026434Y-143800862D01*
X130226393Y-143761088D01*
X130414751Y-143683067D01*
X130467141Y-143648061D01*
X133715000Y-143648061D01*
X133715000Y-143851939D01*
X133754774Y-144051898D01*
X133832795Y-144240256D01*
X133946063Y-144409774D01*
X134090226Y-144553937D01*
X134259744Y-144667205D01*
X134448102Y-144745226D01*
X134648061Y-144785000D01*
X134851939Y-144785000D01*
X135051898Y-144745226D01*
X135240256Y-144667205D01*
X135409774Y-144553937D01*
X135553937Y-144409774D01*
X135667205Y-144240256D01*
X135745226Y-144051898D01*
X135785000Y-143851939D01*
X135785000Y-143779872D01*
X139265000Y-143779872D01*
X139265000Y-144220128D01*
X139350890Y-144651925D01*
X139519369Y-145058669D01*
X139763962Y-145424729D01*
X140075271Y-145736038D01*
X140441331Y-145980631D01*
X140848075Y-146149110D01*
X141279872Y-146235000D01*
X141720128Y-146235000D01*
X142151925Y-146149110D01*
X142558669Y-145980631D01*
X142924729Y-145736038D01*
X143236038Y-145424729D01*
X143480631Y-145058669D01*
X143649110Y-144651925D01*
X143735000Y-144220128D01*
X143735000Y-143779872D01*
X143649110Y-143348075D01*
X143480631Y-142941331D01*
X143236038Y-142575271D01*
X142924729Y-142263962D01*
X142558669Y-142019369D01*
X142151925Y-141850890D01*
X141720128Y-141765000D01*
X141279872Y-141765000D01*
X140848075Y-141850890D01*
X140441331Y-142019369D01*
X140075271Y-142263962D01*
X139763962Y-142575271D01*
X139519369Y-142941331D01*
X139350890Y-143348075D01*
X139265000Y-143779872D01*
X135785000Y-143779872D01*
X135785000Y-143648061D01*
X135745226Y-143448102D01*
X135667205Y-143259744D01*
X135553937Y-143090226D01*
X135409774Y-142946063D01*
X135240256Y-142832795D01*
X135051898Y-142754774D01*
X134851939Y-142715000D01*
X134648061Y-142715000D01*
X134448102Y-142754774D01*
X134259744Y-142832795D01*
X134090226Y-142946063D01*
X133946063Y-143090226D01*
X133832795Y-143259744D01*
X133754774Y-143448102D01*
X133715000Y-143648061D01*
X130467141Y-143648061D01*
X130584269Y-143569799D01*
X130728432Y-143425636D01*
X130841700Y-143256118D01*
X130919721Y-143067760D01*
X130959495Y-142867801D01*
X130959495Y-142663923D01*
X130919721Y-142463964D01*
X130841700Y-142275606D01*
X130728432Y-142106088D01*
X130584269Y-141961925D01*
X130414751Y-141848657D01*
X130226393Y-141770636D01*
X130026434Y-141730862D01*
X129822556Y-141730862D01*
X129622597Y-141770636D01*
X129434239Y-141848657D01*
X129264721Y-141961925D01*
X129120558Y-142106088D01*
X129007290Y-142275606D01*
X128929269Y-142463964D01*
X128889495Y-142663923D01*
X127251069Y-142663923D01*
X127187205Y-142509744D01*
X127073937Y-142340226D01*
X126929774Y-142196063D01*
X126760256Y-142082795D01*
X126571898Y-142004774D01*
X126371939Y-141965000D01*
X126168061Y-141965000D01*
X125968102Y-142004774D01*
X125779744Y-142082795D01*
X125610226Y-142196063D01*
X125466063Y-142340226D01*
X125352795Y-142509744D01*
X125274774Y-142698102D01*
X125235000Y-142898061D01*
X125210000Y-142898061D01*
X125210000Y-138940599D01*
X126335154Y-138940599D01*
X126335154Y-139144477D01*
X126374928Y-139344436D01*
X126452949Y-139532794D01*
X126566217Y-139702312D01*
X126710380Y-139846475D01*
X126879898Y-139959743D01*
X127068256Y-140037764D01*
X127268215Y-140077538D01*
X127472093Y-140077538D01*
X127672052Y-140037764D01*
X127860410Y-139959743D01*
X128029928Y-139846475D01*
X128174091Y-139702312D01*
X128287359Y-139532794D01*
X128365380Y-139344436D01*
X128405154Y-139144477D01*
X128405154Y-138940599D01*
X128396693Y-138898061D01*
X131465000Y-138898061D01*
X131465000Y-139101939D01*
X131504774Y-139301898D01*
X131582795Y-139490256D01*
X131696063Y-139659774D01*
X131840226Y-139803937D01*
X132009744Y-139917205D01*
X132198102Y-139995226D01*
X132398061Y-140035000D01*
X132601939Y-140035000D01*
X132801898Y-139995226D01*
X132990256Y-139917205D01*
X133159774Y-139803937D01*
X133303937Y-139659774D01*
X133417205Y-139490256D01*
X133495226Y-139301898D01*
X133528424Y-139135000D01*
X133601939Y-139135000D01*
X133801898Y-139095226D01*
X133990256Y-139017205D01*
X134159774Y-138903937D01*
X134303937Y-138759774D01*
X134417205Y-138590256D01*
X134495226Y-138401898D01*
X134535000Y-138201939D01*
X134535000Y-137998061D01*
X134495226Y-137798102D01*
X134483586Y-137770000D01*
X139711928Y-137770000D01*
X139711928Y-139470000D01*
X139724188Y-139594482D01*
X139760498Y-139714180D01*
X139819463Y-139824494D01*
X139898815Y-139921185D01*
X139995506Y-140000537D01*
X140105820Y-140059502D01*
X140225518Y-140095812D01*
X140350000Y-140108072D01*
X142050000Y-140108072D01*
X142174482Y-140095812D01*
X142294180Y-140059502D01*
X142404494Y-140000537D01*
X142501185Y-139921185D01*
X142580537Y-139824494D01*
X142639502Y-139714180D01*
X142675812Y-139594482D01*
X142688072Y-139470000D01*
X142688072Y-137770000D01*
X142675812Y-137645518D01*
X142639502Y-137525820D01*
X142580537Y-137415506D01*
X142501185Y-137318815D01*
X142404494Y-137239463D01*
X142294180Y-137180498D01*
X142221620Y-137158487D01*
X142353475Y-137026632D01*
X142515990Y-136783411D01*
X142627932Y-136513158D01*
X142685000Y-136226260D01*
X142685000Y-135933740D01*
X142627932Y-135646842D01*
X142515990Y-135376589D01*
X142353475Y-135133368D01*
X142146632Y-134926525D01*
X141972240Y-134810000D01*
X142146632Y-134693475D01*
X142353475Y-134486632D01*
X142515990Y-134243411D01*
X142627932Y-133973158D01*
X142685000Y-133686260D01*
X142685000Y-133393740D01*
X142627932Y-133106842D01*
X142515990Y-132836589D01*
X142353475Y-132593368D01*
X142146632Y-132386525D01*
X141972240Y-132270000D01*
X142146632Y-132153475D01*
X142353475Y-131946632D01*
X142515990Y-131703411D01*
X142627932Y-131433158D01*
X142685000Y-131146260D01*
X142685000Y-130853740D01*
X142627932Y-130566842D01*
X142515990Y-130296589D01*
X142353475Y-130053368D01*
X142146632Y-129846525D01*
X141972240Y-129730000D01*
X142146632Y-129613475D01*
X142353475Y-129406632D01*
X142515990Y-129163411D01*
X142627932Y-128893158D01*
X142685000Y-128606260D01*
X142685000Y-128313740D01*
X142627932Y-128026842D01*
X142515990Y-127756589D01*
X142353475Y-127513368D01*
X142146632Y-127306525D01*
X141972240Y-127190000D01*
X142146632Y-127073475D01*
X142353475Y-126866632D01*
X142515990Y-126623411D01*
X142627932Y-126353158D01*
X142685000Y-126066260D01*
X142685000Y-125773740D01*
X142627932Y-125486842D01*
X142515990Y-125216589D01*
X142353475Y-124973368D01*
X142146632Y-124766525D01*
X141972240Y-124650000D01*
X142146632Y-124533475D01*
X142353475Y-124326632D01*
X142515990Y-124083411D01*
X142627932Y-123813158D01*
X142685000Y-123526260D01*
X142685000Y-123233740D01*
X142627932Y-122946842D01*
X142515990Y-122676589D01*
X142353475Y-122433368D01*
X142146632Y-122226525D01*
X141972240Y-122110000D01*
X142146632Y-121993475D01*
X142353475Y-121786632D01*
X142515990Y-121543411D01*
X142627932Y-121273158D01*
X142685000Y-120986260D01*
X142685000Y-120693740D01*
X142627932Y-120406842D01*
X142515990Y-120136589D01*
X142353475Y-119893368D01*
X142146632Y-119686525D01*
X141972240Y-119570000D01*
X142146632Y-119453475D01*
X142353475Y-119246632D01*
X142515990Y-119003411D01*
X142627932Y-118733158D01*
X142685000Y-118446260D01*
X142685000Y-118153740D01*
X142627932Y-117866842D01*
X142515990Y-117596589D01*
X142353475Y-117353368D01*
X142146632Y-117146525D01*
X141972240Y-117030000D01*
X142146632Y-116913475D01*
X142353475Y-116706632D01*
X142515990Y-116463411D01*
X142627932Y-116193158D01*
X142685000Y-115906260D01*
X142685000Y-115613740D01*
X142627932Y-115326842D01*
X142515990Y-115056589D01*
X142353475Y-114813368D01*
X142146632Y-114606525D01*
X141972240Y-114490000D01*
X142146632Y-114373475D01*
X142353475Y-114166632D01*
X142515990Y-113923411D01*
X142627932Y-113653158D01*
X142685000Y-113366260D01*
X142685000Y-113073740D01*
X142627932Y-112786842D01*
X142515990Y-112516589D01*
X142353475Y-112273368D01*
X142146632Y-112066525D01*
X141972240Y-111950000D01*
X142146632Y-111833475D01*
X142353475Y-111626632D01*
X142515990Y-111383411D01*
X142627932Y-111113158D01*
X142685000Y-110826260D01*
X142685000Y-110533740D01*
X142627932Y-110246842D01*
X142515990Y-109976589D01*
X142353475Y-109733368D01*
X142146632Y-109526525D01*
X141903411Y-109364010D01*
X141633158Y-109252068D01*
X141346260Y-109195000D01*
X141053740Y-109195000D01*
X140766842Y-109252068D01*
X140496589Y-109364010D01*
X140253368Y-109526525D01*
X140046525Y-109733368D01*
X139884010Y-109976589D01*
X139772068Y-110246842D01*
X139715000Y-110533740D01*
X139715000Y-110826260D01*
X139772068Y-111113158D01*
X139884010Y-111383411D01*
X140046525Y-111626632D01*
X140253368Y-111833475D01*
X140427760Y-111950000D01*
X140253368Y-112066525D01*
X140046525Y-112273368D01*
X139884010Y-112516589D01*
X139772068Y-112786842D01*
X139715000Y-113073740D01*
X139715000Y-113366260D01*
X139772068Y-113653158D01*
X139884010Y-113923411D01*
X140046525Y-114166632D01*
X140253368Y-114373475D01*
X140427760Y-114490000D01*
X140253368Y-114606525D01*
X140046525Y-114813368D01*
X139884010Y-115056589D01*
X139772068Y-115326842D01*
X139715000Y-115613740D01*
X139715000Y-115906260D01*
X139772068Y-116193158D01*
X139884010Y-116463411D01*
X140046525Y-116706632D01*
X140253368Y-116913475D01*
X140427760Y-117030000D01*
X140253368Y-117146525D01*
X140046525Y-117353368D01*
X139884010Y-117596589D01*
X139772068Y-117866842D01*
X139715000Y-118153740D01*
X139715000Y-118446260D01*
X139772068Y-118733158D01*
X139884010Y-119003411D01*
X140046525Y-119246632D01*
X140253368Y-119453475D01*
X140427760Y-119570000D01*
X140253368Y-119686525D01*
X140046525Y-119893368D01*
X139884010Y-120136589D01*
X139772068Y-120406842D01*
X139715000Y-120693740D01*
X139715000Y-120986260D01*
X139772068Y-121273158D01*
X139884010Y-121543411D01*
X140046525Y-121786632D01*
X140253368Y-121993475D01*
X140427760Y-122110000D01*
X140253368Y-122226525D01*
X140046525Y-122433368D01*
X139884010Y-122676589D01*
X139772068Y-122946842D01*
X139715000Y-123233740D01*
X139715000Y-123526260D01*
X139772068Y-123813158D01*
X139884010Y-124083411D01*
X140046525Y-124326632D01*
X140253368Y-124533475D01*
X140427760Y-124650000D01*
X140253368Y-124766525D01*
X140046525Y-124973368D01*
X139884010Y-125216589D01*
X139772068Y-125486842D01*
X139715000Y-125773740D01*
X139715000Y-126066260D01*
X139772068Y-126353158D01*
X139884010Y-126623411D01*
X140046525Y-126866632D01*
X140253368Y-127073475D01*
X140427760Y-127190000D01*
X140253368Y-127306525D01*
X140046525Y-127513368D01*
X139884010Y-127756589D01*
X139772068Y-128026842D01*
X139715000Y-128313740D01*
X139715000Y-128606260D01*
X139772068Y-128893158D01*
X139884010Y-129163411D01*
X140046525Y-129406632D01*
X140253368Y-129613475D01*
X140427760Y-129730000D01*
X140253368Y-129846525D01*
X140046525Y-130053368D01*
X139884010Y-130296589D01*
X139772068Y-130566842D01*
X139715000Y-130853740D01*
X139715000Y-131146260D01*
X139772068Y-131433158D01*
X139884010Y-131703411D01*
X140046525Y-131946632D01*
X140253368Y-132153475D01*
X140427760Y-132270000D01*
X140253368Y-132386525D01*
X140046525Y-132593368D01*
X139884010Y-132836589D01*
X139772068Y-133106842D01*
X139715000Y-133393740D01*
X139715000Y-133686260D01*
X139772068Y-133973158D01*
X139884010Y-134243411D01*
X140046525Y-134486632D01*
X140253368Y-134693475D01*
X140427760Y-134810000D01*
X140253368Y-134926525D01*
X140046525Y-135133368D01*
X139884010Y-135376589D01*
X139772068Y-135646842D01*
X139715000Y-135933740D01*
X139715000Y-136226260D01*
X139772068Y-136513158D01*
X139884010Y-136783411D01*
X140046525Y-137026632D01*
X140178380Y-137158487D01*
X140105820Y-137180498D01*
X139995506Y-137239463D01*
X139898815Y-137318815D01*
X139819463Y-137415506D01*
X139760498Y-137525820D01*
X139724188Y-137645518D01*
X139711928Y-137770000D01*
X134483586Y-137770000D01*
X134417205Y-137609744D01*
X134303937Y-137440226D01*
X134159774Y-137296063D01*
X133990256Y-137182795D01*
X133801898Y-137104774D01*
X133601939Y-137065000D01*
X133398061Y-137065000D01*
X133198102Y-137104774D01*
X133009744Y-137182795D01*
X132840226Y-137296063D01*
X132696063Y-137440226D01*
X132582795Y-137609744D01*
X132504774Y-137798102D01*
X132471576Y-137965000D01*
X132398061Y-137965000D01*
X132198102Y-138004774D01*
X132009744Y-138082795D01*
X131840226Y-138196063D01*
X131696063Y-138340226D01*
X131582795Y-138509744D01*
X131504774Y-138698102D01*
X131465000Y-138898061D01*
X128396693Y-138898061D01*
X128365380Y-138740640D01*
X128287359Y-138552282D01*
X128174091Y-138382764D01*
X128029928Y-138238601D01*
X127860410Y-138125333D01*
X127672052Y-138047312D01*
X127472093Y-138007538D01*
X127268215Y-138007538D01*
X127068256Y-138047312D01*
X126879898Y-138125333D01*
X126710380Y-138238601D01*
X126566217Y-138382764D01*
X126452949Y-138552282D01*
X126374928Y-138740640D01*
X126335154Y-138940599D01*
X125210000Y-138940599D01*
X125210000Y-134277429D01*
X125248061Y-134285000D01*
X125451939Y-134285000D01*
X125651898Y-134245226D01*
X125840256Y-134167205D01*
X125943737Y-134098061D01*
X127365000Y-134098061D01*
X127365000Y-134301939D01*
X127404774Y-134501898D01*
X127482795Y-134690256D01*
X127596063Y-134859774D01*
X127740226Y-135003937D01*
X127909744Y-135117205D01*
X128098102Y-135195226D01*
X128298061Y-135235000D01*
X128501939Y-135235000D01*
X128701898Y-135195226D01*
X128890256Y-135117205D01*
X129059774Y-135003937D01*
X129203937Y-134859774D01*
X129317205Y-134690256D01*
X129395226Y-134501898D01*
X129435000Y-134301939D01*
X129435000Y-134123061D01*
X129440000Y-134123061D01*
X129440000Y-134326939D01*
X129479774Y-134526898D01*
X129557795Y-134715256D01*
X129671063Y-134884774D01*
X129815226Y-135028937D01*
X129984744Y-135142205D01*
X130173102Y-135220226D01*
X130373061Y-135260000D01*
X130576939Y-135260000D01*
X130776898Y-135220226D01*
X130965256Y-135142205D01*
X131134774Y-135028937D01*
X131278937Y-134884774D01*
X131392205Y-134715256D01*
X131470226Y-134526898D01*
X131510000Y-134326939D01*
X131510000Y-134123061D01*
X131470226Y-133923102D01*
X131392205Y-133734744D01*
X131278937Y-133565226D01*
X131134774Y-133421063D01*
X130965256Y-133307795D01*
X130776898Y-133229774D01*
X130576939Y-133190000D01*
X130373061Y-133190000D01*
X130173102Y-133229774D01*
X129984744Y-133307795D01*
X129815226Y-133421063D01*
X129671063Y-133565226D01*
X129557795Y-133734744D01*
X129479774Y-133923102D01*
X129440000Y-134123061D01*
X129435000Y-134123061D01*
X129435000Y-134098061D01*
X129395226Y-133898102D01*
X129317205Y-133709744D01*
X129203937Y-133540226D01*
X129059774Y-133396063D01*
X128890256Y-133282795D01*
X128701898Y-133204774D01*
X128501939Y-133165000D01*
X128298061Y-133165000D01*
X128098102Y-133204774D01*
X127909744Y-133282795D01*
X127740226Y-133396063D01*
X127596063Y-133540226D01*
X127482795Y-133709744D01*
X127404774Y-133898102D01*
X127365000Y-134098061D01*
X125943737Y-134098061D01*
X126009774Y-134053937D01*
X126153937Y-133909774D01*
X126267205Y-133740256D01*
X126345226Y-133551898D01*
X126385000Y-133351939D01*
X126385000Y-133148061D01*
X126345226Y-132948102D01*
X126267205Y-132759744D01*
X126153937Y-132590226D01*
X126009774Y-132446063D01*
X125840256Y-132332795D01*
X125651898Y-132254774D01*
X125451939Y-132215000D01*
X125248061Y-132215000D01*
X125210000Y-132222571D01*
X125210000Y-131885430D01*
X128860010Y-131885430D01*
X128860010Y-132089308D01*
X128899784Y-132289267D01*
X128977805Y-132477625D01*
X129091073Y-132647143D01*
X129235236Y-132791306D01*
X129404754Y-132904574D01*
X129593112Y-132982595D01*
X129793071Y-133022369D01*
X129996949Y-133022369D01*
X130196908Y-132982595D01*
X130385266Y-132904574D01*
X130544674Y-132798061D01*
X131665000Y-132798061D01*
X131665000Y-133001939D01*
X131704774Y-133201898D01*
X131782795Y-133390256D01*
X131896063Y-133559774D01*
X132040226Y-133703937D01*
X132209744Y-133817205D01*
X132398102Y-133895226D01*
X132598061Y-133935000D01*
X132801939Y-133935000D01*
X133001898Y-133895226D01*
X133190256Y-133817205D01*
X133359774Y-133703937D01*
X133503937Y-133559774D01*
X133617205Y-133390256D01*
X133695226Y-133201898D01*
X133735000Y-133001939D01*
X133735000Y-132798061D01*
X133695226Y-132598102D01*
X133617205Y-132409744D01*
X133567263Y-132335000D01*
X133701939Y-132335000D01*
X133901898Y-132295226D01*
X134090256Y-132217205D01*
X134259774Y-132103937D01*
X134403937Y-131959774D01*
X134517205Y-131790256D01*
X134595226Y-131601898D01*
X134635000Y-131401939D01*
X134635000Y-131198061D01*
X134595226Y-130998102D01*
X134517205Y-130809744D01*
X134403937Y-130640226D01*
X134259774Y-130496063D01*
X134090256Y-130382795D01*
X133901898Y-130304774D01*
X133701939Y-130265000D01*
X133498061Y-130265000D01*
X133298102Y-130304774D01*
X133109744Y-130382795D01*
X132940226Y-130496063D01*
X132796063Y-130640226D01*
X132682795Y-130809744D01*
X132604774Y-130998102D01*
X132565000Y-131198061D01*
X132565000Y-131401939D01*
X132604774Y-131601898D01*
X132682795Y-131790256D01*
X132732737Y-131865000D01*
X132598061Y-131865000D01*
X132398102Y-131904774D01*
X132209744Y-131982795D01*
X132040226Y-132096063D01*
X131896063Y-132240226D01*
X131782795Y-132409744D01*
X131704774Y-132598102D01*
X131665000Y-132798061D01*
X130544674Y-132798061D01*
X130554784Y-132791306D01*
X130698947Y-132647143D01*
X130812215Y-132477625D01*
X130890236Y-132289267D01*
X130930010Y-132089308D01*
X130930010Y-131885430D01*
X130890236Y-131685471D01*
X130812215Y-131497113D01*
X130698947Y-131327595D01*
X130554784Y-131183432D01*
X130385266Y-131070164D01*
X130196908Y-130992143D01*
X129996949Y-130952369D01*
X129793071Y-130952369D01*
X129593112Y-130992143D01*
X129404754Y-131070164D01*
X129235236Y-131183432D01*
X129091073Y-131327595D01*
X128977805Y-131497113D01*
X128899784Y-131685471D01*
X128860010Y-131885430D01*
X125210000Y-131885430D01*
X125210000Y-127398061D01*
X125365000Y-127398061D01*
X125365000Y-127601939D01*
X125404774Y-127801898D01*
X125482795Y-127990256D01*
X125596063Y-128159774D01*
X125740226Y-128303937D01*
X125909744Y-128417205D01*
X126037461Y-128470107D01*
X126055573Y-128561164D01*
X126133594Y-128749522D01*
X126246862Y-128919040D01*
X126391025Y-129063203D01*
X126560543Y-129176471D01*
X126748901Y-129254492D01*
X126948860Y-129294266D01*
X127152738Y-129294266D01*
X127352697Y-129254492D01*
X127541055Y-129176471D01*
X127710573Y-129063203D01*
X127854736Y-128919040D01*
X127968004Y-128749522D01*
X128046025Y-128561164D01*
X128085799Y-128361205D01*
X128085799Y-128157327D01*
X128046025Y-127957368D01*
X127968004Y-127769010D01*
X127854736Y-127599492D01*
X127710573Y-127455329D01*
X127541055Y-127342061D01*
X127413338Y-127289159D01*
X127395226Y-127198102D01*
X127317205Y-127009744D01*
X127203937Y-126840226D01*
X127059774Y-126696063D01*
X126890256Y-126582795D01*
X126701898Y-126504774D01*
X126501939Y-126465000D01*
X126298061Y-126465000D01*
X126098102Y-126504774D01*
X125909744Y-126582795D01*
X125740226Y-126696063D01*
X125596063Y-126840226D01*
X125482795Y-127009744D01*
X125404774Y-127198102D01*
X125365000Y-127398061D01*
X125210000Y-127398061D01*
X125210000Y-126198061D01*
X131865000Y-126198061D01*
X131865000Y-126401939D01*
X131904774Y-126601898D01*
X131982795Y-126790256D01*
X132096063Y-126959774D01*
X132240226Y-127103937D01*
X132409744Y-127217205D01*
X132598102Y-127295226D01*
X132798061Y-127335000D01*
X133001939Y-127335000D01*
X133201898Y-127295226D01*
X133390256Y-127217205D01*
X133559774Y-127103937D01*
X133703937Y-126959774D01*
X133817205Y-126790256D01*
X133895226Y-126601898D01*
X133935000Y-126401939D01*
X133935000Y-126198061D01*
X133895226Y-125998102D01*
X133817205Y-125809744D01*
X133747868Y-125705973D01*
X133801898Y-125695226D01*
X133990256Y-125617205D01*
X134159774Y-125503937D01*
X134303937Y-125359774D01*
X134417205Y-125190256D01*
X134495226Y-125001898D01*
X134535000Y-124801939D01*
X134535000Y-124598061D01*
X134495226Y-124398102D01*
X134417205Y-124209744D01*
X134303937Y-124040226D01*
X134159774Y-123896063D01*
X133990256Y-123782795D01*
X133801898Y-123704774D01*
X133601939Y-123665000D01*
X133398061Y-123665000D01*
X133198102Y-123704774D01*
X133009744Y-123782795D01*
X132840226Y-123896063D01*
X132696063Y-124040226D01*
X132582795Y-124209744D01*
X132504774Y-124398102D01*
X132465000Y-124598061D01*
X132465000Y-124801939D01*
X132504774Y-125001898D01*
X132582795Y-125190256D01*
X132652132Y-125294027D01*
X132598102Y-125304774D01*
X132409744Y-125382795D01*
X132240226Y-125496063D01*
X132096063Y-125640226D01*
X131982795Y-125809744D01*
X131904774Y-125998102D01*
X131865000Y-126198061D01*
X125210000Y-126198061D01*
X125210000Y-123217484D01*
X125298061Y-123235000D01*
X125501939Y-123235000D01*
X125701898Y-123195226D01*
X125890256Y-123117205D01*
X125918907Y-123098061D01*
X127165000Y-123098061D01*
X127165000Y-123301939D01*
X127204774Y-123501898D01*
X127282795Y-123690256D01*
X127396063Y-123859774D01*
X127540226Y-124003937D01*
X127709744Y-124117205D01*
X127898102Y-124195226D01*
X128098061Y-124235000D01*
X128301939Y-124235000D01*
X128501898Y-124195226D01*
X128690256Y-124117205D01*
X128859774Y-124003937D01*
X129003937Y-123859774D01*
X129117205Y-123690256D01*
X129195226Y-123501898D01*
X129235000Y-123301939D01*
X129235000Y-123098061D01*
X129365000Y-123098061D01*
X129365000Y-123301939D01*
X129404774Y-123501898D01*
X129482795Y-123690256D01*
X129596063Y-123859774D01*
X129740226Y-124003937D01*
X129909744Y-124117205D01*
X130098102Y-124195226D01*
X130298061Y-124235000D01*
X130501939Y-124235000D01*
X130701898Y-124195226D01*
X130890256Y-124117205D01*
X131059774Y-124003937D01*
X131203937Y-123859774D01*
X131317205Y-123690256D01*
X131395226Y-123501898D01*
X131435000Y-123301939D01*
X131435000Y-123098061D01*
X131395226Y-122898102D01*
X131317205Y-122709744D01*
X131203937Y-122540226D01*
X131059774Y-122396063D01*
X130890256Y-122282795D01*
X130701898Y-122204774D01*
X130501939Y-122165000D01*
X130298061Y-122165000D01*
X130098102Y-122204774D01*
X129909744Y-122282795D01*
X129740226Y-122396063D01*
X129596063Y-122540226D01*
X129482795Y-122709744D01*
X129404774Y-122898102D01*
X129365000Y-123098061D01*
X129235000Y-123098061D01*
X129195226Y-122898102D01*
X129117205Y-122709744D01*
X129003937Y-122540226D01*
X128859774Y-122396063D01*
X128690256Y-122282795D01*
X128501898Y-122204774D01*
X128301939Y-122165000D01*
X128098061Y-122165000D01*
X127898102Y-122204774D01*
X127709744Y-122282795D01*
X127540226Y-122396063D01*
X127396063Y-122540226D01*
X127282795Y-122709744D01*
X127204774Y-122898102D01*
X127165000Y-123098061D01*
X125918907Y-123098061D01*
X126059774Y-123003937D01*
X126203937Y-122859774D01*
X126317205Y-122690256D01*
X126395226Y-122501898D01*
X126435000Y-122301939D01*
X126435000Y-122098061D01*
X126395226Y-121898102D01*
X126317205Y-121709744D01*
X126203937Y-121540226D01*
X126059774Y-121396063D01*
X125890256Y-121282795D01*
X125701898Y-121204774D01*
X125501939Y-121165000D01*
X125298061Y-121165000D01*
X125210000Y-121182516D01*
X125210000Y-119998073D01*
X128860010Y-119998073D01*
X128860010Y-120201951D01*
X128899784Y-120401910D01*
X128977805Y-120590268D01*
X129091073Y-120759786D01*
X129235236Y-120903949D01*
X129404754Y-121017217D01*
X129593112Y-121095238D01*
X129793071Y-121135012D01*
X129996949Y-121135012D01*
X130196908Y-121095238D01*
X130385266Y-121017217D01*
X130554784Y-120903949D01*
X130698947Y-120759786D01*
X130812215Y-120590268D01*
X130890236Y-120401910D01*
X130930010Y-120201951D01*
X130930010Y-119998073D01*
X130890236Y-119798114D01*
X130812215Y-119609756D01*
X130804401Y-119598061D01*
X131665000Y-119598061D01*
X131665000Y-119801939D01*
X131704774Y-120001898D01*
X131782795Y-120190256D01*
X131896063Y-120359774D01*
X132040226Y-120503937D01*
X132209744Y-120617205D01*
X132398102Y-120695226D01*
X132598061Y-120735000D01*
X132801939Y-120735000D01*
X133001898Y-120695226D01*
X133190256Y-120617205D01*
X133359774Y-120503937D01*
X133503937Y-120359774D01*
X133617205Y-120190256D01*
X133695226Y-120001898D01*
X133735000Y-119801939D01*
X133735000Y-119598061D01*
X133698736Y-119415746D01*
X133801898Y-119395226D01*
X133990256Y-119317205D01*
X134159774Y-119203937D01*
X134303937Y-119059774D01*
X134417205Y-118890256D01*
X134495226Y-118701898D01*
X134535000Y-118501939D01*
X134535000Y-118298061D01*
X134495226Y-118098102D01*
X134417205Y-117909744D01*
X134303937Y-117740226D01*
X134159774Y-117596063D01*
X133990256Y-117482795D01*
X133801898Y-117404774D01*
X133601939Y-117365000D01*
X133398061Y-117365000D01*
X133198102Y-117404774D01*
X133009744Y-117482795D01*
X132840226Y-117596063D01*
X132696063Y-117740226D01*
X132582795Y-117909744D01*
X132504774Y-118098102D01*
X132465000Y-118298061D01*
X132465000Y-118501939D01*
X132501264Y-118684254D01*
X132398102Y-118704774D01*
X132209744Y-118782795D01*
X132040226Y-118896063D01*
X131896063Y-119040226D01*
X131782795Y-119209744D01*
X131704774Y-119398102D01*
X131665000Y-119598061D01*
X130804401Y-119598061D01*
X130698947Y-119440238D01*
X130554784Y-119296075D01*
X130385266Y-119182807D01*
X130196908Y-119104786D01*
X129996949Y-119065012D01*
X129793071Y-119065012D01*
X129593112Y-119104786D01*
X129404754Y-119182807D01*
X129235236Y-119296075D01*
X129091073Y-119440238D01*
X128977805Y-119609756D01*
X128899784Y-119798114D01*
X128860010Y-119998073D01*
X125210000Y-119998073D01*
X125210000Y-116235760D01*
X126190010Y-116235760D01*
X126190010Y-116439638D01*
X126229784Y-116639597D01*
X126307805Y-116827955D01*
X126421073Y-116997473D01*
X126565236Y-117141636D01*
X126734754Y-117254904D01*
X126923112Y-117332925D01*
X127123071Y-117372699D01*
X127326949Y-117372699D01*
X127526908Y-117332925D01*
X127715266Y-117254904D01*
X127884784Y-117141636D01*
X128028947Y-116997473D01*
X128142215Y-116827955D01*
X128220236Y-116639597D01*
X128260010Y-116439638D01*
X128260010Y-116235760D01*
X128220236Y-116035801D01*
X128213058Y-116018471D01*
X128240256Y-116007205D01*
X128409774Y-115893937D01*
X128553937Y-115749774D01*
X128667205Y-115580256D01*
X128745226Y-115391898D01*
X128785000Y-115191939D01*
X128785000Y-114988061D01*
X128745226Y-114788102D01*
X128667205Y-114599744D01*
X128553937Y-114430226D01*
X128409774Y-114286063D01*
X128240256Y-114172795D01*
X128051898Y-114094774D01*
X127851939Y-114055000D01*
X127648061Y-114055000D01*
X127448102Y-114094774D01*
X127259744Y-114172795D01*
X127090226Y-114286063D01*
X126946063Y-114430226D01*
X126832795Y-114599744D01*
X126754774Y-114788102D01*
X126715000Y-114988061D01*
X126715000Y-115191939D01*
X126754774Y-115391898D01*
X126761952Y-115409228D01*
X126734754Y-115420494D01*
X126565236Y-115533762D01*
X126421073Y-115677925D01*
X126307805Y-115847443D01*
X126229784Y-116035801D01*
X126190010Y-116235760D01*
X125210000Y-116235760D01*
X125210000Y-113298061D01*
X131665000Y-113298061D01*
X131665000Y-113501939D01*
X131704774Y-113701898D01*
X131782795Y-113890256D01*
X131896063Y-114059774D01*
X132040226Y-114203937D01*
X132209744Y-114317205D01*
X132398102Y-114395226D01*
X132598061Y-114435000D01*
X132801939Y-114435000D01*
X133001898Y-114395226D01*
X133190256Y-114317205D01*
X133359774Y-114203937D01*
X133503937Y-114059774D01*
X133617205Y-113890256D01*
X133695226Y-113701898D01*
X133735000Y-113501939D01*
X133735000Y-113298061D01*
X133695226Y-113098102D01*
X133625708Y-112930272D01*
X133801898Y-112895226D01*
X133990256Y-112817205D01*
X134159774Y-112703937D01*
X134303937Y-112559774D01*
X134417205Y-112390256D01*
X134495226Y-112201898D01*
X134535000Y-112001939D01*
X134535000Y-111798061D01*
X134495226Y-111598102D01*
X134417205Y-111409744D01*
X134303937Y-111240226D01*
X134159774Y-111096063D01*
X133990256Y-110982795D01*
X133801898Y-110904774D01*
X133601939Y-110865000D01*
X133398061Y-110865000D01*
X133198102Y-110904774D01*
X133009744Y-110982795D01*
X132840226Y-111096063D01*
X132696063Y-111240226D01*
X132582795Y-111409744D01*
X132504774Y-111598102D01*
X132465000Y-111798061D01*
X132465000Y-112001939D01*
X132504774Y-112201898D01*
X132574292Y-112369728D01*
X132398102Y-112404774D01*
X132209744Y-112482795D01*
X132040226Y-112596063D01*
X131896063Y-112740226D01*
X131782795Y-112909744D01*
X131704774Y-113098102D01*
X131665000Y-113298061D01*
X125210000Y-113298061D01*
X125210000Y-111417484D01*
X125298061Y-111435000D01*
X125501939Y-111435000D01*
X125701898Y-111395226D01*
X125890256Y-111317205D01*
X126059774Y-111203937D01*
X126203937Y-111059774D01*
X126317205Y-110890256D01*
X126395226Y-110701898D01*
X126435000Y-110501939D01*
X126435000Y-110298061D01*
X126413120Y-110188061D01*
X127575000Y-110188061D01*
X127575000Y-110391939D01*
X127614774Y-110591898D01*
X127692795Y-110780256D01*
X127806063Y-110949774D01*
X127950226Y-111093937D01*
X128119744Y-111207205D01*
X128308102Y-111285226D01*
X128508061Y-111325000D01*
X128711939Y-111325000D01*
X128847371Y-111298061D01*
X129365000Y-111298061D01*
X129365000Y-111501939D01*
X129404774Y-111701898D01*
X129482795Y-111890256D01*
X129596063Y-112059774D01*
X129740226Y-112203937D01*
X129909744Y-112317205D01*
X130098102Y-112395226D01*
X130298061Y-112435000D01*
X130501939Y-112435000D01*
X130701898Y-112395226D01*
X130890256Y-112317205D01*
X131059774Y-112203937D01*
X131203937Y-112059774D01*
X131317205Y-111890256D01*
X131395226Y-111701898D01*
X131435000Y-111501939D01*
X131435000Y-111298061D01*
X131395226Y-111098102D01*
X131317205Y-110909744D01*
X131203937Y-110740226D01*
X131059774Y-110596063D01*
X130890256Y-110482795D01*
X130701898Y-110404774D01*
X130501939Y-110365000D01*
X130298061Y-110365000D01*
X130098102Y-110404774D01*
X129909744Y-110482795D01*
X129740226Y-110596063D01*
X129596063Y-110740226D01*
X129482795Y-110909744D01*
X129404774Y-111098102D01*
X129365000Y-111298061D01*
X128847371Y-111298061D01*
X128911898Y-111285226D01*
X129100256Y-111207205D01*
X129269774Y-111093937D01*
X129413937Y-110949774D01*
X129527205Y-110780256D01*
X129605226Y-110591898D01*
X129645000Y-110391939D01*
X129645000Y-110188061D01*
X129605226Y-109988102D01*
X129527205Y-109799744D01*
X129413937Y-109630226D01*
X129269774Y-109486063D01*
X129100256Y-109372795D01*
X128911898Y-109294774D01*
X128711939Y-109255000D01*
X128508061Y-109255000D01*
X128308102Y-109294774D01*
X128119744Y-109372795D01*
X127950226Y-109486063D01*
X127806063Y-109630226D01*
X127692795Y-109799744D01*
X127614774Y-109988102D01*
X127575000Y-110188061D01*
X126413120Y-110188061D01*
X126395226Y-110098102D01*
X126317205Y-109909744D01*
X126203937Y-109740226D01*
X126059774Y-109596063D01*
X125890256Y-109482795D01*
X125701898Y-109404774D01*
X125501939Y-109365000D01*
X125298061Y-109365000D01*
X125210000Y-109382516D01*
X125210000Y-107698061D01*
X130465000Y-107698061D01*
X130465000Y-107901939D01*
X130504774Y-108101898D01*
X130582795Y-108290256D01*
X130696063Y-108459774D01*
X130840226Y-108603937D01*
X131009744Y-108717205D01*
X131198102Y-108795226D01*
X131398061Y-108835000D01*
X131601939Y-108835000D01*
X131801898Y-108795226D01*
X131990256Y-108717205D01*
X132159774Y-108603937D01*
X132303937Y-108459774D01*
X132417205Y-108290256D01*
X132495226Y-108101898D01*
X132535000Y-107901939D01*
X132535000Y-107698061D01*
X132495226Y-107498102D01*
X132417205Y-107309744D01*
X132303937Y-107140226D01*
X132159774Y-106996063D01*
X131990256Y-106882795D01*
X131801898Y-106804774D01*
X131601939Y-106765000D01*
X131398061Y-106765000D01*
X131198102Y-106804774D01*
X131009744Y-106882795D01*
X130840226Y-106996063D01*
X130696063Y-107140226D01*
X130582795Y-107309744D01*
X130504774Y-107498102D01*
X130465000Y-107698061D01*
X125210000Y-107698061D01*
X125210000Y-105029872D01*
X139265000Y-105029872D01*
X139265000Y-105470128D01*
X139350890Y-105901925D01*
X139519369Y-106308669D01*
X139763962Y-106674729D01*
X140075271Y-106986038D01*
X140441331Y-107230631D01*
X140848075Y-107399110D01*
X141279872Y-107485000D01*
X141720128Y-107485000D01*
X142151925Y-107399110D01*
X142558669Y-107230631D01*
X142924729Y-106986038D01*
X143236038Y-106674729D01*
X143480631Y-106308669D01*
X143649110Y-105901925D01*
X143735000Y-105470128D01*
X143735000Y-105029872D01*
X143649110Y-104598075D01*
X143480631Y-104191331D01*
X143236038Y-103825271D01*
X142924729Y-103513962D01*
X142558669Y-103269369D01*
X142151925Y-103100890D01*
X141720128Y-103015000D01*
X141279872Y-103015000D01*
X140848075Y-103100890D01*
X140441331Y-103269369D01*
X140075271Y-103513962D01*
X139763962Y-103825271D01*
X139519369Y-104191331D01*
X139350890Y-104598075D01*
X139265000Y-105029872D01*
X125210000Y-105029872D01*
X125210000Y-102698061D01*
X130065000Y-102698061D01*
X130065000Y-102901939D01*
X130104774Y-103101898D01*
X130182795Y-103290256D01*
X130296063Y-103459774D01*
X130440226Y-103603937D01*
X130609744Y-103717205D01*
X130798102Y-103795226D01*
X130998061Y-103835000D01*
X131201939Y-103835000D01*
X131401898Y-103795226D01*
X131590256Y-103717205D01*
X131759774Y-103603937D01*
X131903937Y-103459774D01*
X132017205Y-103290256D01*
X132095226Y-103101898D01*
X132135000Y-102901939D01*
X132135000Y-102698061D01*
X132095226Y-102498102D01*
X132017205Y-102309744D01*
X131903937Y-102140226D01*
X131759774Y-101996063D01*
X131590256Y-101882795D01*
X131401898Y-101804774D01*
X131201939Y-101765000D01*
X130998061Y-101765000D01*
X130798102Y-101804774D01*
X130609744Y-101882795D01*
X130440226Y-101996063D01*
X130296063Y-102140226D01*
X130182795Y-102309744D01*
X130104774Y-102498102D01*
X130065000Y-102698061D01*
X125210000Y-102698061D01*
X125210000Y-101698060D01*
X134464999Y-101698060D01*
X134464999Y-101901938D01*
X134504773Y-102101897D01*
X134582794Y-102290255D01*
X134696062Y-102459773D01*
X134840225Y-102603936D01*
X135009743Y-102717204D01*
X135198101Y-102795225D01*
X135398060Y-102834999D01*
X135601938Y-102834999D01*
X135801897Y-102795225D01*
X135990255Y-102717204D01*
X136159773Y-102603936D01*
X136303936Y-102459773D01*
X136417204Y-102290255D01*
X136495225Y-102101897D01*
X136534999Y-101901938D01*
X136534999Y-101698060D01*
X136495225Y-101498101D01*
X136417204Y-101309743D01*
X136303936Y-101140225D01*
X136263711Y-101100000D01*
X136303937Y-101059774D01*
X136417205Y-100890256D01*
X136495226Y-100701898D01*
X136535000Y-100501939D01*
X136535000Y-100298061D01*
X136495226Y-100098102D01*
X136417205Y-99909744D01*
X136303937Y-99740226D01*
X136159774Y-99596063D01*
X135990256Y-99482795D01*
X135801898Y-99404774D01*
X135601939Y-99365000D01*
X135398061Y-99365000D01*
X135198102Y-99404774D01*
X135009744Y-99482795D01*
X134840226Y-99596063D01*
X134696063Y-99740226D01*
X134582795Y-99909744D01*
X134504774Y-100098102D01*
X134465000Y-100298061D01*
X134465000Y-100501939D01*
X134504774Y-100701898D01*
X134582795Y-100890256D01*
X134696063Y-101059774D01*
X134736288Y-101099999D01*
X134696062Y-101140225D01*
X134582794Y-101309743D01*
X134504773Y-101498101D01*
X134464999Y-101698060D01*
X125210000Y-101698060D01*
X125210000Y-96598061D01*
X136365000Y-96598061D01*
X136365000Y-96801939D01*
X136404774Y-97001898D01*
X136482795Y-97190256D01*
X136596063Y-97359774D01*
X136740226Y-97503937D01*
X136909744Y-97617205D01*
X136965000Y-97640093D01*
X136965000Y-97801939D01*
X137004774Y-98001898D01*
X137082795Y-98190256D01*
X137196063Y-98359774D01*
X137340226Y-98503937D01*
X137509744Y-98617205D01*
X137682250Y-98688660D01*
X137704774Y-98801898D01*
X137782795Y-98990256D01*
X137896063Y-99159774D01*
X138040226Y-99303937D01*
X138209744Y-99417205D01*
X138398102Y-99495226D01*
X138598061Y-99535000D01*
X138801939Y-99535000D01*
X139001898Y-99495226D01*
X139190256Y-99417205D01*
X139359774Y-99303937D01*
X139503937Y-99159774D01*
X139617205Y-98990256D01*
X139695226Y-98801898D01*
X139735000Y-98601939D01*
X139735000Y-98398061D01*
X139695226Y-98198102D01*
X139617205Y-98009744D01*
X139503937Y-97840226D01*
X139359774Y-97696063D01*
X139190256Y-97582795D01*
X139017750Y-97511340D01*
X138995226Y-97398102D01*
X138917205Y-97209744D01*
X138803937Y-97040226D01*
X138659774Y-96896063D01*
X138490256Y-96782795D01*
X138435000Y-96759907D01*
X138435000Y-96598061D01*
X138395226Y-96398102D01*
X138317205Y-96209744D01*
X138203937Y-96040226D01*
X138059774Y-95896063D01*
X137890256Y-95782795D01*
X137701898Y-95704774D01*
X137501939Y-95665000D01*
X137298061Y-95665000D01*
X137098102Y-95704774D01*
X136909744Y-95782795D01*
X136740226Y-95896063D01*
X136596063Y-96040226D01*
X136482795Y-96209744D01*
X136404774Y-96398102D01*
X136365000Y-96598061D01*
X125210000Y-96598061D01*
X125210000Y-94078061D01*
X125935000Y-94078061D01*
X125935000Y-94281939D01*
X125974774Y-94481898D01*
X126052795Y-94670256D01*
X126166063Y-94839774D01*
X126310226Y-94983937D01*
X126479744Y-95097205D01*
X126668102Y-95175226D01*
X126868061Y-95215000D01*
X127071939Y-95215000D01*
X127271898Y-95175226D01*
X127460256Y-95097205D01*
X127629774Y-94983937D01*
X127773937Y-94839774D01*
X127887205Y-94670256D01*
X127965226Y-94481898D01*
X128005000Y-94281939D01*
X128005000Y-94078061D01*
X127971538Y-93909833D01*
X128098061Y-93935000D01*
X128301939Y-93935000D01*
X128501898Y-93895226D01*
X128690256Y-93817205D01*
X128859774Y-93703937D01*
X129003937Y-93559774D01*
X129117205Y-93390256D01*
X129195226Y-93201898D01*
X129235000Y-93001939D01*
X129235000Y-92798061D01*
X129195226Y-92598102D01*
X129189966Y-92585401D01*
X136890010Y-92585401D01*
X136890010Y-92789279D01*
X136929784Y-92989238D01*
X137007805Y-93177596D01*
X137121073Y-93347114D01*
X137265236Y-93491277D01*
X137434754Y-93604545D01*
X137623112Y-93682566D01*
X137823071Y-93722340D01*
X138026949Y-93722340D01*
X138226908Y-93682566D01*
X138415266Y-93604545D01*
X138584784Y-93491277D01*
X138728947Y-93347114D01*
X138842215Y-93177596D01*
X138920236Y-92989238D01*
X138960010Y-92789279D01*
X138960010Y-92585401D01*
X138920236Y-92385442D01*
X138842215Y-92197084D01*
X138728947Y-92027566D01*
X138584784Y-91883403D01*
X138415266Y-91770135D01*
X138226908Y-91692114D01*
X138026949Y-91652340D01*
X137823071Y-91652340D01*
X137623112Y-91692114D01*
X137434754Y-91770135D01*
X137265236Y-91883403D01*
X137121073Y-92027566D01*
X137007805Y-92197084D01*
X136929784Y-92385442D01*
X136890010Y-92585401D01*
X129189966Y-92585401D01*
X129117205Y-92409744D01*
X129003937Y-92240226D01*
X128859774Y-92096063D01*
X128690256Y-91982795D01*
X128501898Y-91904774D01*
X128301939Y-91865000D01*
X128098061Y-91865000D01*
X127898102Y-91904774D01*
X127709744Y-91982795D01*
X127540226Y-92096063D01*
X127396063Y-92240226D01*
X127282795Y-92409744D01*
X127204774Y-92598102D01*
X127165000Y-92798061D01*
X127165000Y-93001939D01*
X127198462Y-93170167D01*
X127071939Y-93145000D01*
X126868061Y-93145000D01*
X126668102Y-93184774D01*
X126479744Y-93262795D01*
X126310226Y-93376063D01*
X126166063Y-93520226D01*
X126052795Y-93689744D01*
X125974774Y-93878102D01*
X125935000Y-94078061D01*
X125210000Y-94078061D01*
X125210000Y-93193451D01*
X125268061Y-93205000D01*
X125471939Y-93205000D01*
X125671898Y-93165226D01*
X125860256Y-93087205D01*
X126029774Y-92973937D01*
X126173937Y-92829774D01*
X126287205Y-92660256D01*
X126365226Y-92471898D01*
X126405000Y-92271939D01*
X126405000Y-92068061D01*
X126365226Y-91868102D01*
X126287205Y-91679744D01*
X126173937Y-91510226D01*
X126029774Y-91366063D01*
X125860256Y-91252795D01*
X125671898Y-91174774D01*
X125471939Y-91135000D01*
X125268061Y-91135000D01*
X125210000Y-91146549D01*
X125210000Y-88598061D01*
X125365000Y-88598061D01*
X125365000Y-88801939D01*
X125404774Y-89001898D01*
X125482795Y-89190256D01*
X125596063Y-89359774D01*
X125740226Y-89503937D01*
X125909744Y-89617205D01*
X126098102Y-89695226D01*
X126298061Y-89735000D01*
X126501939Y-89735000D01*
X126701898Y-89695226D01*
X126890256Y-89617205D01*
X127059774Y-89503937D01*
X127165000Y-89398711D01*
X127165000Y-89601939D01*
X127204774Y-89801898D01*
X127282795Y-89990256D01*
X127396063Y-90159774D01*
X127540226Y-90303937D01*
X127709744Y-90417205D01*
X127898102Y-90495226D01*
X128098061Y-90535000D01*
X128301939Y-90535000D01*
X128501898Y-90495226D01*
X128690256Y-90417205D01*
X128859774Y-90303937D01*
X129003937Y-90159774D01*
X129117205Y-89990256D01*
X129195226Y-89801898D01*
X129235000Y-89601939D01*
X129235000Y-89398061D01*
X129195226Y-89198102D01*
X129140093Y-89065000D01*
X129241939Y-89065000D01*
X129441898Y-89025226D01*
X129630256Y-88947205D01*
X129799774Y-88833937D01*
X129943937Y-88689774D01*
X130057205Y-88520256D01*
X130135226Y-88331898D01*
X130175000Y-88131939D01*
X130175000Y-87928061D01*
X130135226Y-87728102D01*
X130068721Y-87567547D01*
X130190256Y-87517205D01*
X130359774Y-87403937D01*
X130503937Y-87259774D01*
X130617205Y-87090256D01*
X130695226Y-86901898D01*
X130735000Y-86701939D01*
X130735000Y-86498061D01*
X130695226Y-86298102D01*
X130617205Y-86109744D01*
X130503937Y-85940226D01*
X130359774Y-85796063D01*
X130190256Y-85682795D01*
X130001898Y-85604774D01*
X129801939Y-85565000D01*
X129598061Y-85565000D01*
X129398102Y-85604774D01*
X129228370Y-85675080D01*
X129090256Y-85582795D01*
X128901898Y-85504774D01*
X128701939Y-85465000D01*
X128498061Y-85465000D01*
X128298102Y-85504774D01*
X128109744Y-85582795D01*
X127940226Y-85696063D01*
X127796063Y-85840226D01*
X127682795Y-86009744D01*
X127604774Y-86198102D01*
X127565000Y-86398061D01*
X127565000Y-86601939D01*
X127604774Y-86801898D01*
X127682795Y-86990256D01*
X127796063Y-87159774D01*
X127940226Y-87303937D01*
X128109744Y-87417205D01*
X128262417Y-87480445D01*
X128222795Y-87539744D01*
X128144774Y-87728102D01*
X128105000Y-87928061D01*
X128105000Y-88131939D01*
X128144774Y-88331898D01*
X128199907Y-88465000D01*
X128098061Y-88465000D01*
X127898102Y-88504774D01*
X127709744Y-88582795D01*
X127540226Y-88696063D01*
X127435000Y-88801289D01*
X127435000Y-88598061D01*
X127395226Y-88398102D01*
X127317205Y-88209744D01*
X127203937Y-88040226D01*
X127059774Y-87896063D01*
X126890256Y-87782795D01*
X126701898Y-87704774D01*
X126501939Y-87665000D01*
X126298061Y-87665000D01*
X126098102Y-87704774D01*
X125909744Y-87782795D01*
X125740226Y-87896063D01*
X125596063Y-88040226D01*
X125482795Y-88209744D01*
X125404774Y-88398102D01*
X125365000Y-88598061D01*
X125210000Y-88598061D01*
X125210000Y-86398061D01*
X125465000Y-86398061D01*
X125465000Y-86601939D01*
X125504774Y-86801898D01*
X125582795Y-86990256D01*
X125696063Y-87159774D01*
X125840226Y-87303937D01*
X126009744Y-87417205D01*
X126198102Y-87495226D01*
X126398061Y-87535000D01*
X126601939Y-87535000D01*
X126801898Y-87495226D01*
X126990256Y-87417205D01*
X127159774Y-87303937D01*
X127303937Y-87159774D01*
X127417205Y-86990256D01*
X127495226Y-86801898D01*
X127535000Y-86601939D01*
X127535000Y-86398061D01*
X127495226Y-86198102D01*
X127417205Y-86009744D01*
X127303937Y-85840226D01*
X127159774Y-85696063D01*
X126990256Y-85582795D01*
X126801898Y-85504774D01*
X126601939Y-85465000D01*
X126398061Y-85465000D01*
X126198102Y-85504774D01*
X126009744Y-85582795D01*
X125840226Y-85696063D01*
X125696063Y-85840226D01*
X125582795Y-86009744D01*
X125504774Y-86198102D01*
X125465000Y-86398061D01*
X125210000Y-86398061D01*
X125210000Y-80198061D01*
X130365000Y-80198061D01*
X130365000Y-80401939D01*
X130404774Y-80601898D01*
X130482795Y-80790256D01*
X130596063Y-80959774D01*
X130740226Y-81103937D01*
X130909744Y-81217205D01*
X131098102Y-81295226D01*
X131298061Y-81335000D01*
X131501939Y-81335000D01*
X131701898Y-81295226D01*
X131890256Y-81217205D01*
X132059774Y-81103937D01*
X132203937Y-80959774D01*
X132317205Y-80790256D01*
X132395226Y-80601898D01*
X132435000Y-80401939D01*
X132435000Y-80198061D01*
X132395226Y-79998102D01*
X132317205Y-79809744D01*
X132203937Y-79640226D01*
X132059774Y-79496063D01*
X131890256Y-79382795D01*
X131701898Y-79304774D01*
X131501939Y-79265000D01*
X131298061Y-79265000D01*
X131098102Y-79304774D01*
X130909744Y-79382795D01*
X130740226Y-79496063D01*
X130596063Y-79640226D01*
X130482795Y-79809744D01*
X130404774Y-79998102D01*
X130365000Y-80198061D01*
X125210000Y-80198061D01*
X125210000Y-77736257D01*
X127311689Y-77736257D01*
X127311689Y-77940135D01*
X127351463Y-78140094D01*
X127429484Y-78328452D01*
X127431471Y-78331426D01*
X127371463Y-78476298D01*
X127331689Y-78676257D01*
X127331689Y-78880135D01*
X127371463Y-79080094D01*
X127449484Y-79268452D01*
X127562752Y-79437970D01*
X127706915Y-79582133D01*
X127876433Y-79695401D01*
X128064791Y-79773422D01*
X128264750Y-79813196D01*
X128468628Y-79813196D01*
X128668587Y-79773422D01*
X128856945Y-79695401D01*
X129026463Y-79582133D01*
X129170626Y-79437970D01*
X129283894Y-79268452D01*
X129361915Y-79080094D01*
X129401689Y-78880135D01*
X129401689Y-78676257D01*
X129361915Y-78476298D01*
X129283894Y-78287940D01*
X129281907Y-78284966D01*
X129341915Y-78140094D01*
X129381689Y-77940135D01*
X129381689Y-77736257D01*
X129354201Y-77598061D01*
X129665000Y-77598061D01*
X129665000Y-77801939D01*
X129704774Y-78001898D01*
X129782795Y-78190256D01*
X129896063Y-78359774D01*
X130040226Y-78503937D01*
X130209744Y-78617205D01*
X130398102Y-78695226D01*
X130598061Y-78735000D01*
X130801939Y-78735000D01*
X131001898Y-78695226D01*
X131190256Y-78617205D01*
X131359774Y-78503937D01*
X131503937Y-78359774D01*
X131617205Y-78190256D01*
X131695226Y-78001898D01*
X131735000Y-77801939D01*
X131735000Y-77598061D01*
X131695226Y-77398102D01*
X131617205Y-77209744D01*
X131609399Y-77198061D01*
X134339977Y-77198061D01*
X134339977Y-77401939D01*
X134379751Y-77601898D01*
X134457772Y-77790256D01*
X134571040Y-77959774D01*
X134715203Y-78103937D01*
X134884721Y-78217205D01*
X135073079Y-78295226D01*
X135273038Y-78335000D01*
X135476916Y-78335000D01*
X135676875Y-78295226D01*
X135865233Y-78217205D01*
X135874983Y-78210690D01*
X135884734Y-78217205D01*
X136073092Y-78295226D01*
X136273051Y-78335000D01*
X136476929Y-78335000D01*
X136676888Y-78295226D01*
X136865246Y-78217205D01*
X137034764Y-78103937D01*
X137059256Y-78079445D01*
X137074533Y-78116325D01*
X137187801Y-78285843D01*
X137331964Y-78430006D01*
X137501482Y-78543274D01*
X137689840Y-78621295D01*
X137889799Y-78661069D01*
X138093677Y-78661069D01*
X138293636Y-78621295D01*
X138481994Y-78543274D01*
X138651512Y-78430006D01*
X138790331Y-78291187D01*
X138821321Y-78297351D01*
X139025199Y-78297351D01*
X139225158Y-78257577D01*
X139413516Y-78179556D01*
X139583034Y-78066288D01*
X139663210Y-77986112D01*
X139709744Y-78017205D01*
X139898102Y-78095226D01*
X140098061Y-78135000D01*
X140301939Y-78135000D01*
X140501898Y-78095226D01*
X140690256Y-78017205D01*
X140859774Y-77903937D01*
X141003937Y-77759774D01*
X141117205Y-77590256D01*
X141195226Y-77401898D01*
X141235000Y-77201939D01*
X141235000Y-76998061D01*
X141195226Y-76798102D01*
X141117205Y-76609744D01*
X141003937Y-76440226D01*
X140859774Y-76296063D01*
X140690256Y-76182795D01*
X140501898Y-76104774D01*
X140301939Y-76065000D01*
X140098061Y-76065000D01*
X139898102Y-76104774D01*
X139709744Y-76182795D01*
X139540226Y-76296063D01*
X139460050Y-76376239D01*
X139413516Y-76345146D01*
X139225158Y-76267125D01*
X139025199Y-76227351D01*
X138821321Y-76227351D01*
X138621362Y-76267125D01*
X138433004Y-76345146D01*
X138263486Y-76458414D01*
X138235000Y-76486900D01*
X138235000Y-76398061D01*
X138195226Y-76198102D01*
X138117205Y-76009744D01*
X138003937Y-75840226D01*
X137859774Y-75696063D01*
X137690256Y-75582795D01*
X137501898Y-75504774D01*
X137354430Y-75475441D01*
X137377085Y-75361544D01*
X137377085Y-75157666D01*
X137337311Y-74957707D01*
X137259290Y-74769349D01*
X137146022Y-74599831D01*
X137001859Y-74455668D01*
X136832341Y-74342400D01*
X136643983Y-74264379D01*
X136444024Y-74224605D01*
X136254199Y-74224605D01*
X136401898Y-74195226D01*
X136590256Y-74117205D01*
X136759774Y-74003937D01*
X136903937Y-73859774D01*
X137017205Y-73690256D01*
X137095226Y-73501898D01*
X137135000Y-73301939D01*
X137135000Y-73098061D01*
X137095226Y-72898102D01*
X137017205Y-72709744D01*
X136903937Y-72540226D01*
X136759774Y-72396063D01*
X136590256Y-72282795D01*
X136401898Y-72204774D01*
X136201939Y-72165000D01*
X135998061Y-72165000D01*
X135798102Y-72204774D01*
X135609744Y-72282795D01*
X135440226Y-72396063D01*
X135296063Y-72540226D01*
X135182795Y-72709744D01*
X135104774Y-72898102D01*
X135065000Y-73098061D01*
X135065000Y-73301939D01*
X135104774Y-73501898D01*
X135182795Y-73690256D01*
X135296063Y-73859774D01*
X135440226Y-74003937D01*
X135609744Y-74117205D01*
X135798102Y-74195226D01*
X135998061Y-74235000D01*
X136187886Y-74235000D01*
X136040187Y-74264379D01*
X135851829Y-74342400D01*
X135682311Y-74455668D01*
X135538148Y-74599831D01*
X135424880Y-74769349D01*
X135346859Y-74957707D01*
X135307085Y-75157666D01*
X135307085Y-75361544D01*
X135346859Y-75561503D01*
X135424880Y-75749861D01*
X135538148Y-75919379D01*
X135682311Y-76063542D01*
X135851829Y-76176810D01*
X136040187Y-76254831D01*
X136182181Y-76283075D01*
X136073092Y-76304774D01*
X135884734Y-76382795D01*
X135874984Y-76389310D01*
X135865233Y-76382795D01*
X135676875Y-76304774D01*
X135476916Y-76265000D01*
X135273038Y-76265000D01*
X135073079Y-76304774D01*
X134884721Y-76382795D01*
X134715203Y-76496063D01*
X134571040Y-76640226D01*
X134457772Y-76809744D01*
X134379751Y-76998102D01*
X134339977Y-77198061D01*
X131609399Y-77198061D01*
X131503937Y-77040226D01*
X131359774Y-76896063D01*
X131190256Y-76782795D01*
X131001898Y-76704774D01*
X130801939Y-76665000D01*
X130598061Y-76665000D01*
X130398102Y-76704774D01*
X130209744Y-76782795D01*
X130040226Y-76896063D01*
X129896063Y-77040226D01*
X129782795Y-77209744D01*
X129704774Y-77398102D01*
X129665000Y-77598061D01*
X129354201Y-77598061D01*
X129341915Y-77536298D01*
X129281427Y-77390267D01*
X129351915Y-77220094D01*
X129391689Y-77020135D01*
X129391689Y-76816257D01*
X129351915Y-76616298D01*
X129273894Y-76427940D01*
X129160626Y-76258422D01*
X129016463Y-76114259D01*
X128846945Y-76000991D01*
X128658587Y-75922970D01*
X128458628Y-75883196D01*
X128254750Y-75883196D01*
X128054791Y-75922970D01*
X127866433Y-76000991D01*
X127696915Y-76114259D01*
X127552752Y-76258422D01*
X127439484Y-76427940D01*
X127361463Y-76616298D01*
X127321689Y-76816257D01*
X127321689Y-77020135D01*
X127361463Y-77220094D01*
X127421951Y-77366125D01*
X127351463Y-77536298D01*
X127311689Y-77736257D01*
X125210000Y-77736257D01*
X125210000Y-76817311D01*
X125398102Y-76895226D01*
X125598061Y-76935000D01*
X125801939Y-76935000D01*
X126001898Y-76895226D01*
X126190256Y-76817205D01*
X126359774Y-76703937D01*
X126503937Y-76559774D01*
X126617205Y-76390256D01*
X126695226Y-76201898D01*
X126735000Y-76001939D01*
X126735000Y-75798061D01*
X126695226Y-75598102D01*
X126617205Y-75409744D01*
X126503937Y-75240226D01*
X126359774Y-75096063D01*
X126190256Y-74982795D01*
X126001898Y-74904774D01*
X125801939Y-74865000D01*
X125598061Y-74865000D01*
X125398102Y-74904774D01*
X125210000Y-74982689D01*
X125210000Y-67014515D01*
X125282795Y-67190256D01*
X125396063Y-67359774D01*
X125540226Y-67503937D01*
X125709744Y-67617205D01*
X125898102Y-67695226D01*
X126098061Y-67735000D01*
X126301939Y-67735000D01*
X126501898Y-67695226D01*
X126690256Y-67617205D01*
X126859774Y-67503937D01*
X127003937Y-67359774D01*
X127117205Y-67190256D01*
X127195226Y-67001898D01*
X127235000Y-66801939D01*
X127235000Y-66598061D01*
X127195226Y-66398102D01*
X127117205Y-66209744D01*
X127003937Y-66040226D01*
X126859774Y-65896063D01*
X126690256Y-65782795D01*
X126501898Y-65704774D01*
X126301939Y-65665000D01*
X126098061Y-65665000D01*
X125898102Y-65704774D01*
X125709744Y-65782795D01*
X125540226Y-65896063D01*
X125396063Y-66040226D01*
X125282795Y-66209744D01*
X125210000Y-66385485D01*
X125210000Y-64360000D01*
X127648254Y-64360000D01*
X127636928Y-64475000D01*
G04 #@! TA.AperFunction,Conductor*
D17*
G36*
X127636928Y-64475000D02*
G01*
X127636928Y-65825000D01*
X127649188Y-65949482D01*
X127685498Y-66069180D01*
X127744463Y-66179494D01*
X127823815Y-66276185D01*
X127920506Y-66355537D01*
X128030820Y-66414502D01*
X128150518Y-66450812D01*
X128275000Y-66463072D01*
X129625000Y-66463072D01*
X129749482Y-66450812D01*
X129869180Y-66414502D01*
X129979494Y-66355537D01*
X130076185Y-66276185D01*
X130147487Y-66189303D01*
X130329482Y-66310907D01*
X130567887Y-66409658D01*
X130820976Y-66460000D01*
X131079024Y-66460000D01*
X131332113Y-66409658D01*
X131570518Y-66310907D01*
X131785077Y-66167544D01*
X131950000Y-66002621D01*
X132114923Y-66167544D01*
X132148915Y-66190257D01*
X132140226Y-66196063D01*
X131996063Y-66340226D01*
X131882795Y-66509744D01*
X131804774Y-66698102D01*
X131765000Y-66898061D01*
X131765000Y-67101939D01*
X131804774Y-67301898D01*
X131882795Y-67490256D01*
X131996063Y-67659774D01*
X132086289Y-67750000D01*
X131996063Y-67840226D01*
X131882795Y-68009744D01*
X131804774Y-68198102D01*
X131765000Y-68398061D01*
X131765000Y-68601939D01*
X131804774Y-68801898D01*
X131882795Y-68990256D01*
X131996063Y-69159774D01*
X132140226Y-69303937D01*
X132309744Y-69417205D01*
X132498102Y-69495226D01*
X132698061Y-69535000D01*
X132901939Y-69535000D01*
X133101898Y-69495226D01*
X133277519Y-69422481D01*
X133204774Y-69598102D01*
X133165000Y-69798061D01*
X133165000Y-70001939D01*
X133204774Y-70201898D01*
X133282795Y-70390256D01*
X133396063Y-70559774D01*
X133540226Y-70703937D01*
X133709744Y-70817205D01*
X133898102Y-70895226D01*
X134098061Y-70935000D01*
X134301939Y-70935000D01*
X134501898Y-70895226D01*
X134690256Y-70817205D01*
X134859774Y-70703937D01*
X135003937Y-70559774D01*
X135117205Y-70390256D01*
X135195226Y-70201898D01*
X135235000Y-70001939D01*
X135235000Y-69798061D01*
X135195226Y-69598102D01*
X135117205Y-69409744D01*
X135003937Y-69240226D01*
X134963711Y-69200000D01*
X135003937Y-69159774D01*
X135027474Y-69124549D01*
X135198102Y-69195226D01*
X135398061Y-69235000D01*
X135601939Y-69235000D01*
X135801898Y-69195226D01*
X135990256Y-69117205D01*
X136159774Y-69003937D01*
X136303937Y-68859774D01*
X136417205Y-68690256D01*
X136495226Y-68501898D01*
X136535000Y-68301939D01*
X136535000Y-68098061D01*
X136495226Y-67898102D01*
X136417205Y-67709744D01*
X136343877Y-67600000D01*
X136417205Y-67490256D01*
X136495226Y-67301898D01*
X136535000Y-67101939D01*
X136535000Y-66898061D01*
X136495226Y-66698102D01*
X136417205Y-66509744D01*
X136303937Y-66340226D01*
X136164142Y-66200431D01*
X136329482Y-66310907D01*
X136567887Y-66409658D01*
X136820976Y-66460000D01*
X137079024Y-66460000D01*
X137332113Y-66409658D01*
X137570518Y-66310907D01*
X137785077Y-66167544D01*
X137950000Y-66002621D01*
X138114923Y-66167544D01*
X138329482Y-66310907D01*
X138567887Y-66409658D01*
X138820976Y-66460000D01*
X139079024Y-66460000D01*
X139332113Y-66409658D01*
X139570518Y-66310907D01*
X139785077Y-66167544D01*
X139950000Y-66002621D01*
X140114923Y-66167544D01*
X140329482Y-66310907D01*
X140567887Y-66409658D01*
X140820976Y-66460000D01*
X141079024Y-66460000D01*
X141332113Y-66409658D01*
X141570518Y-66310907D01*
X141785077Y-66167544D01*
X141950000Y-66002621D01*
X142114923Y-66167544D01*
X142329482Y-66310907D01*
X142567887Y-66409658D01*
X142820976Y-66460000D01*
X143079024Y-66460000D01*
X143332113Y-66409658D01*
X143570518Y-66310907D01*
X143785077Y-66167544D01*
X143790000Y-66162621D01*
X143790000Y-68502407D01*
X143601939Y-68465000D01*
X143398061Y-68465000D01*
X143198102Y-68504774D01*
X143009744Y-68582795D01*
X142840226Y-68696063D01*
X142696063Y-68840226D01*
X142582795Y-69009744D01*
X142504774Y-69198102D01*
X142465000Y-69398061D01*
X142465000Y-69601939D01*
X142504774Y-69801898D01*
X142582795Y-69990256D01*
X142696063Y-70159774D01*
X142840226Y-70303937D01*
X143009744Y-70417205D01*
X143198102Y-70495226D01*
X143398061Y-70535000D01*
X143601939Y-70535000D01*
X143790000Y-70497593D01*
X143790000Y-79441267D01*
X143701898Y-79404774D01*
X143501939Y-79365000D01*
X143298061Y-79365000D01*
X143098102Y-79404774D01*
X142909744Y-79482795D01*
X142740226Y-79596063D01*
X142596063Y-79740226D01*
X142482795Y-79909744D01*
X142404774Y-80098102D01*
X142365000Y-80298061D01*
X142365000Y-80501939D01*
X142404774Y-80701898D01*
X142482795Y-80890256D01*
X142596063Y-81059774D01*
X142740226Y-81203937D01*
X142909744Y-81317205D01*
X143098102Y-81395226D01*
X143298061Y-81435000D01*
X143501939Y-81435000D01*
X143701898Y-81395226D01*
X143790000Y-81358733D01*
X143790000Y-81592430D01*
X143789238Y-81592114D01*
X143589279Y-81552340D01*
X143385401Y-81552340D01*
X143185442Y-81592114D01*
X142997084Y-81670135D01*
X142827566Y-81783403D01*
X142683403Y-81927566D01*
X142570135Y-82097084D01*
X142492114Y-82285442D01*
X142452340Y-82485401D01*
X142452340Y-82689279D01*
X142492114Y-82889238D01*
X142570135Y-83077596D01*
X142620614Y-83153144D01*
X142582795Y-83209744D01*
X142504774Y-83398102D01*
X142465000Y-83598061D01*
X142465000Y-83801939D01*
X142504774Y-84001898D01*
X142582795Y-84190256D01*
X142696063Y-84359774D01*
X142840226Y-84503937D01*
X143009744Y-84617205D01*
X143198102Y-84695226D01*
X143398061Y-84735000D01*
X143601939Y-84735000D01*
X143790000Y-84697593D01*
X143790000Y-87082516D01*
X143701939Y-87065000D01*
X143498061Y-87065000D01*
X143335000Y-87097435D01*
X143335000Y-86898061D01*
X143295226Y-86698102D01*
X143217205Y-86509744D01*
X143103937Y-86340226D01*
X142959774Y-86196063D01*
X142790256Y-86082795D01*
X142601898Y-86004774D01*
X142401939Y-85965000D01*
X142198061Y-85965000D01*
X141998102Y-86004774D01*
X141809744Y-86082795D01*
X141640226Y-86196063D01*
X141496063Y-86340226D01*
X141382795Y-86509744D01*
X141304774Y-86698102D01*
X141265000Y-86898061D01*
X141265000Y-87101939D01*
X141304774Y-87301898D01*
X141382795Y-87490256D01*
X141496063Y-87659774D01*
X141640226Y-87803937D01*
X141809744Y-87917205D01*
X141998102Y-87995226D01*
X142198061Y-88035000D01*
X142401939Y-88035000D01*
X142565000Y-88002565D01*
X142565000Y-88201939D01*
X142604774Y-88401898D01*
X142682795Y-88590256D01*
X142796063Y-88759774D01*
X142940226Y-88903937D01*
X143009164Y-88950000D01*
X142940226Y-88996063D01*
X142796063Y-89140226D01*
X142682795Y-89309744D01*
X142604774Y-89498102D01*
X142565000Y-89698061D01*
X142565000Y-89901939D01*
X142604774Y-90101898D01*
X142682795Y-90290256D01*
X142796063Y-90459774D01*
X142940226Y-90603937D01*
X143109744Y-90717205D01*
X143298102Y-90795226D01*
X143498061Y-90835000D01*
X143701939Y-90835000D01*
X143790000Y-90817484D01*
X143790001Y-146340000D01*
X125210000Y-146340000D01*
X125210000Y-142898061D01*
X125235000Y-142898061D01*
X125235000Y-143101939D01*
X125274774Y-143301898D01*
X125352795Y-143490256D01*
X125466063Y-143659774D01*
X125610226Y-143803937D01*
X125779744Y-143917205D01*
X125968102Y-143995226D01*
X126168061Y-144035000D01*
X126371939Y-144035000D01*
X126571898Y-143995226D01*
X126760256Y-143917205D01*
X126929774Y-143803937D01*
X127073937Y-143659774D01*
X127187205Y-143490256D01*
X127265226Y-143301898D01*
X127305000Y-143101939D01*
X127305000Y-142898061D01*
X127265226Y-142698102D01*
X127251069Y-142663923D01*
X128889495Y-142663923D01*
X128889495Y-142867801D01*
X128929269Y-143067760D01*
X129007290Y-143256118D01*
X129120558Y-143425636D01*
X129264721Y-143569799D01*
X129434239Y-143683067D01*
X129622597Y-143761088D01*
X129822556Y-143800862D01*
X130026434Y-143800862D01*
X130226393Y-143761088D01*
X130414751Y-143683067D01*
X130467141Y-143648061D01*
X133715000Y-143648061D01*
X133715000Y-143851939D01*
X133754774Y-144051898D01*
X133832795Y-144240256D01*
X133946063Y-144409774D01*
X134090226Y-144553937D01*
X134259744Y-144667205D01*
X134448102Y-144745226D01*
X134648061Y-144785000D01*
X134851939Y-144785000D01*
X135051898Y-144745226D01*
X135240256Y-144667205D01*
X135409774Y-144553937D01*
X135553937Y-144409774D01*
X135667205Y-144240256D01*
X135745226Y-144051898D01*
X135785000Y-143851939D01*
X135785000Y-143779872D01*
X139265000Y-143779872D01*
X139265000Y-144220128D01*
X139350890Y-144651925D01*
X139519369Y-145058669D01*
X139763962Y-145424729D01*
X140075271Y-145736038D01*
X140441331Y-145980631D01*
X140848075Y-146149110D01*
X141279872Y-146235000D01*
X141720128Y-146235000D01*
X142151925Y-146149110D01*
X142558669Y-145980631D01*
X142924729Y-145736038D01*
X143236038Y-145424729D01*
X143480631Y-145058669D01*
X143649110Y-144651925D01*
X143735000Y-144220128D01*
X143735000Y-143779872D01*
X143649110Y-143348075D01*
X143480631Y-142941331D01*
X143236038Y-142575271D01*
X142924729Y-142263962D01*
X142558669Y-142019369D01*
X142151925Y-141850890D01*
X141720128Y-141765000D01*
X141279872Y-141765000D01*
X140848075Y-141850890D01*
X140441331Y-142019369D01*
X140075271Y-142263962D01*
X139763962Y-142575271D01*
X139519369Y-142941331D01*
X139350890Y-143348075D01*
X139265000Y-143779872D01*
X135785000Y-143779872D01*
X135785000Y-143648061D01*
X135745226Y-143448102D01*
X135667205Y-143259744D01*
X135553937Y-143090226D01*
X135409774Y-142946063D01*
X135240256Y-142832795D01*
X135051898Y-142754774D01*
X134851939Y-142715000D01*
X134648061Y-142715000D01*
X134448102Y-142754774D01*
X134259744Y-142832795D01*
X134090226Y-142946063D01*
X133946063Y-143090226D01*
X133832795Y-143259744D01*
X133754774Y-143448102D01*
X133715000Y-143648061D01*
X130467141Y-143648061D01*
X130584269Y-143569799D01*
X130728432Y-143425636D01*
X130841700Y-143256118D01*
X130919721Y-143067760D01*
X130959495Y-142867801D01*
X130959495Y-142663923D01*
X130919721Y-142463964D01*
X130841700Y-142275606D01*
X130728432Y-142106088D01*
X130584269Y-141961925D01*
X130414751Y-141848657D01*
X130226393Y-141770636D01*
X130026434Y-141730862D01*
X129822556Y-141730862D01*
X129622597Y-141770636D01*
X129434239Y-141848657D01*
X129264721Y-141961925D01*
X129120558Y-142106088D01*
X129007290Y-142275606D01*
X128929269Y-142463964D01*
X128889495Y-142663923D01*
X127251069Y-142663923D01*
X127187205Y-142509744D01*
X127073937Y-142340226D01*
X126929774Y-142196063D01*
X126760256Y-142082795D01*
X126571898Y-142004774D01*
X126371939Y-141965000D01*
X126168061Y-141965000D01*
X125968102Y-142004774D01*
X125779744Y-142082795D01*
X125610226Y-142196063D01*
X125466063Y-142340226D01*
X125352795Y-142509744D01*
X125274774Y-142698102D01*
X125235000Y-142898061D01*
X125210000Y-142898061D01*
X125210000Y-138940599D01*
X126335154Y-138940599D01*
X126335154Y-139144477D01*
X126374928Y-139344436D01*
X126452949Y-139532794D01*
X126566217Y-139702312D01*
X126710380Y-139846475D01*
X126879898Y-139959743D01*
X127068256Y-140037764D01*
X127268215Y-140077538D01*
X127472093Y-140077538D01*
X127672052Y-140037764D01*
X127860410Y-139959743D01*
X128029928Y-139846475D01*
X128174091Y-139702312D01*
X128287359Y-139532794D01*
X128365380Y-139344436D01*
X128405154Y-139144477D01*
X128405154Y-138940599D01*
X128396693Y-138898061D01*
X131465000Y-138898061D01*
X131465000Y-139101939D01*
X131504774Y-139301898D01*
X131582795Y-139490256D01*
X131696063Y-139659774D01*
X131840226Y-139803937D01*
X132009744Y-139917205D01*
X132198102Y-139995226D01*
X132398061Y-140035000D01*
X132601939Y-140035000D01*
X132801898Y-139995226D01*
X132990256Y-139917205D01*
X133159774Y-139803937D01*
X133303937Y-139659774D01*
X133417205Y-139490256D01*
X133495226Y-139301898D01*
X133528424Y-139135000D01*
X133601939Y-139135000D01*
X133801898Y-139095226D01*
X133990256Y-139017205D01*
X134159774Y-138903937D01*
X134303937Y-138759774D01*
X134417205Y-138590256D01*
X134495226Y-138401898D01*
X134535000Y-138201939D01*
X134535000Y-137998061D01*
X134495226Y-137798102D01*
X134483586Y-137770000D01*
X139711928Y-137770000D01*
X139711928Y-139470000D01*
X139724188Y-139594482D01*
X139760498Y-139714180D01*
X139819463Y-139824494D01*
X139898815Y-139921185D01*
X139995506Y-140000537D01*
X140105820Y-140059502D01*
X140225518Y-140095812D01*
X140350000Y-140108072D01*
X142050000Y-140108072D01*
X142174482Y-140095812D01*
X142294180Y-140059502D01*
X142404494Y-140000537D01*
X142501185Y-139921185D01*
X142580537Y-139824494D01*
X142639502Y-139714180D01*
X142675812Y-139594482D01*
X142688072Y-139470000D01*
X142688072Y-137770000D01*
X142675812Y-137645518D01*
X142639502Y-137525820D01*
X142580537Y-137415506D01*
X142501185Y-137318815D01*
X142404494Y-137239463D01*
X142294180Y-137180498D01*
X142221620Y-137158487D01*
X142353475Y-137026632D01*
X142515990Y-136783411D01*
X142627932Y-136513158D01*
X142685000Y-136226260D01*
X142685000Y-135933740D01*
X142627932Y-135646842D01*
X142515990Y-135376589D01*
X142353475Y-135133368D01*
X142146632Y-134926525D01*
X141972240Y-134810000D01*
X142146632Y-134693475D01*
X142353475Y-134486632D01*
X142515990Y-134243411D01*
X142627932Y-133973158D01*
X142685000Y-133686260D01*
X142685000Y-133393740D01*
X142627932Y-133106842D01*
X142515990Y-132836589D01*
X142353475Y-132593368D01*
X142146632Y-132386525D01*
X141972240Y-132270000D01*
X142146632Y-132153475D01*
X142353475Y-131946632D01*
X142515990Y-131703411D01*
X142627932Y-131433158D01*
X142685000Y-131146260D01*
X142685000Y-130853740D01*
X142627932Y-130566842D01*
X142515990Y-130296589D01*
X142353475Y-130053368D01*
X142146632Y-129846525D01*
X141972240Y-129730000D01*
X142146632Y-129613475D01*
X142353475Y-129406632D01*
X142515990Y-129163411D01*
X142627932Y-128893158D01*
X142685000Y-128606260D01*
X142685000Y-128313740D01*
X142627932Y-128026842D01*
X142515990Y-127756589D01*
X142353475Y-127513368D01*
X142146632Y-127306525D01*
X141972240Y-127190000D01*
X142146632Y-127073475D01*
X142353475Y-126866632D01*
X142515990Y-126623411D01*
X142627932Y-126353158D01*
X142685000Y-126066260D01*
X142685000Y-125773740D01*
X142627932Y-125486842D01*
X142515990Y-125216589D01*
X142353475Y-124973368D01*
X142146632Y-124766525D01*
X141972240Y-124650000D01*
X142146632Y-124533475D01*
X142353475Y-124326632D01*
X142515990Y-124083411D01*
X142627932Y-123813158D01*
X142685000Y-123526260D01*
X142685000Y-123233740D01*
X142627932Y-122946842D01*
X142515990Y-122676589D01*
X142353475Y-122433368D01*
X142146632Y-122226525D01*
X141972240Y-122110000D01*
X142146632Y-121993475D01*
X142353475Y-121786632D01*
X142515990Y-121543411D01*
X142627932Y-121273158D01*
X142685000Y-120986260D01*
X142685000Y-120693740D01*
X142627932Y-120406842D01*
X142515990Y-120136589D01*
X142353475Y-119893368D01*
X142146632Y-119686525D01*
X141972240Y-119570000D01*
X142146632Y-119453475D01*
X142353475Y-119246632D01*
X142515990Y-119003411D01*
X142627932Y-118733158D01*
X142685000Y-118446260D01*
X142685000Y-118153740D01*
X142627932Y-117866842D01*
X142515990Y-117596589D01*
X142353475Y-117353368D01*
X142146632Y-117146525D01*
X141972240Y-117030000D01*
X142146632Y-116913475D01*
X142353475Y-116706632D01*
X142515990Y-116463411D01*
X142627932Y-116193158D01*
X142685000Y-115906260D01*
X142685000Y-115613740D01*
X142627932Y-115326842D01*
X142515990Y-115056589D01*
X142353475Y-114813368D01*
X142146632Y-114606525D01*
X141972240Y-114490000D01*
X142146632Y-114373475D01*
X142353475Y-114166632D01*
X142515990Y-113923411D01*
X142627932Y-113653158D01*
X142685000Y-113366260D01*
X142685000Y-113073740D01*
X142627932Y-112786842D01*
X142515990Y-112516589D01*
X142353475Y-112273368D01*
X142146632Y-112066525D01*
X141972240Y-111950000D01*
X142146632Y-111833475D01*
X142353475Y-111626632D01*
X142515990Y-111383411D01*
X142627932Y-111113158D01*
X142685000Y-110826260D01*
X142685000Y-110533740D01*
X142627932Y-110246842D01*
X142515990Y-109976589D01*
X142353475Y-109733368D01*
X142146632Y-109526525D01*
X141903411Y-109364010D01*
X141633158Y-109252068D01*
X141346260Y-109195000D01*
X141053740Y-109195000D01*
X140766842Y-109252068D01*
X140496589Y-109364010D01*
X140253368Y-109526525D01*
X140046525Y-109733368D01*
X139884010Y-109976589D01*
X139772068Y-110246842D01*
X139715000Y-110533740D01*
X139715000Y-110826260D01*
X139772068Y-111113158D01*
X139884010Y-111383411D01*
X140046525Y-111626632D01*
X140253368Y-111833475D01*
X140427760Y-111950000D01*
X140253368Y-112066525D01*
X140046525Y-112273368D01*
X139884010Y-112516589D01*
X139772068Y-112786842D01*
X139715000Y-113073740D01*
X139715000Y-113366260D01*
X139772068Y-113653158D01*
X139884010Y-113923411D01*
X140046525Y-114166632D01*
X140253368Y-114373475D01*
X140427760Y-114490000D01*
X140253368Y-114606525D01*
X140046525Y-114813368D01*
X139884010Y-115056589D01*
X139772068Y-115326842D01*
X139715000Y-115613740D01*
X139715000Y-115906260D01*
X139772068Y-116193158D01*
X139884010Y-116463411D01*
X140046525Y-116706632D01*
X140253368Y-116913475D01*
X140427760Y-117030000D01*
X140253368Y-117146525D01*
X140046525Y-117353368D01*
X139884010Y-117596589D01*
X139772068Y-117866842D01*
X139715000Y-118153740D01*
X139715000Y-118446260D01*
X139772068Y-118733158D01*
X139884010Y-119003411D01*
X140046525Y-119246632D01*
X140253368Y-119453475D01*
X140427760Y-119570000D01*
X140253368Y-119686525D01*
X140046525Y-119893368D01*
X139884010Y-120136589D01*
X139772068Y-120406842D01*
X139715000Y-120693740D01*
X139715000Y-120986260D01*
X139772068Y-121273158D01*
X139884010Y-121543411D01*
X140046525Y-121786632D01*
X140253368Y-121993475D01*
X140427760Y-122110000D01*
X140253368Y-122226525D01*
X140046525Y-122433368D01*
X139884010Y-122676589D01*
X139772068Y-122946842D01*
X139715000Y-123233740D01*
X139715000Y-123526260D01*
X139772068Y-123813158D01*
X139884010Y-124083411D01*
X140046525Y-124326632D01*
X140253368Y-124533475D01*
X140427760Y-124650000D01*
X140253368Y-124766525D01*
X140046525Y-124973368D01*
X139884010Y-125216589D01*
X139772068Y-125486842D01*
X139715000Y-125773740D01*
X139715000Y-126066260D01*
X139772068Y-126353158D01*
X139884010Y-126623411D01*
X140046525Y-126866632D01*
X140253368Y-127073475D01*
X140427760Y-127190000D01*
X140253368Y-127306525D01*
X140046525Y-127513368D01*
X139884010Y-127756589D01*
X139772068Y-128026842D01*
X139715000Y-128313740D01*
X139715000Y-128606260D01*
X139772068Y-128893158D01*
X139884010Y-129163411D01*
X140046525Y-129406632D01*
X140253368Y-129613475D01*
X140427760Y-129730000D01*
X140253368Y-129846525D01*
X140046525Y-130053368D01*
X139884010Y-130296589D01*
X139772068Y-130566842D01*
X139715000Y-130853740D01*
X139715000Y-131146260D01*
X139772068Y-131433158D01*
X139884010Y-131703411D01*
X140046525Y-131946632D01*
X140253368Y-132153475D01*
X140427760Y-132270000D01*
X140253368Y-132386525D01*
X140046525Y-132593368D01*
X139884010Y-132836589D01*
X139772068Y-133106842D01*
X139715000Y-133393740D01*
X139715000Y-133686260D01*
X139772068Y-133973158D01*
X139884010Y-134243411D01*
X140046525Y-134486632D01*
X140253368Y-134693475D01*
X140427760Y-134810000D01*
X140253368Y-134926525D01*
X140046525Y-135133368D01*
X139884010Y-135376589D01*
X139772068Y-135646842D01*
X139715000Y-135933740D01*
X139715000Y-136226260D01*
X139772068Y-136513158D01*
X139884010Y-136783411D01*
X140046525Y-137026632D01*
X140178380Y-137158487D01*
X140105820Y-137180498D01*
X139995506Y-137239463D01*
X139898815Y-137318815D01*
X139819463Y-137415506D01*
X139760498Y-137525820D01*
X139724188Y-137645518D01*
X139711928Y-137770000D01*
X134483586Y-137770000D01*
X134417205Y-137609744D01*
X134303937Y-137440226D01*
X134159774Y-137296063D01*
X133990256Y-137182795D01*
X133801898Y-137104774D01*
X133601939Y-137065000D01*
X133398061Y-137065000D01*
X133198102Y-137104774D01*
X133009744Y-137182795D01*
X132840226Y-137296063D01*
X132696063Y-137440226D01*
X132582795Y-137609744D01*
X132504774Y-137798102D01*
X132471576Y-137965000D01*
X132398061Y-137965000D01*
X132198102Y-138004774D01*
X132009744Y-138082795D01*
X131840226Y-138196063D01*
X131696063Y-138340226D01*
X131582795Y-138509744D01*
X131504774Y-138698102D01*
X131465000Y-138898061D01*
X128396693Y-138898061D01*
X128365380Y-138740640D01*
X128287359Y-138552282D01*
X128174091Y-138382764D01*
X128029928Y-138238601D01*
X127860410Y-138125333D01*
X127672052Y-138047312D01*
X127472093Y-138007538D01*
X127268215Y-138007538D01*
X127068256Y-138047312D01*
X126879898Y-138125333D01*
X126710380Y-138238601D01*
X126566217Y-138382764D01*
X126452949Y-138552282D01*
X126374928Y-138740640D01*
X126335154Y-138940599D01*
X125210000Y-138940599D01*
X125210000Y-134277429D01*
X125248061Y-134285000D01*
X125451939Y-134285000D01*
X125651898Y-134245226D01*
X125840256Y-134167205D01*
X125943737Y-134098061D01*
X127365000Y-134098061D01*
X127365000Y-134301939D01*
X127404774Y-134501898D01*
X127482795Y-134690256D01*
X127596063Y-134859774D01*
X127740226Y-135003937D01*
X127909744Y-135117205D01*
X128098102Y-135195226D01*
X128298061Y-135235000D01*
X128501939Y-135235000D01*
X128701898Y-135195226D01*
X128890256Y-135117205D01*
X129059774Y-135003937D01*
X129203937Y-134859774D01*
X129317205Y-134690256D01*
X129395226Y-134501898D01*
X129435000Y-134301939D01*
X129435000Y-134123061D01*
X129440000Y-134123061D01*
X129440000Y-134326939D01*
X129479774Y-134526898D01*
X129557795Y-134715256D01*
X129671063Y-134884774D01*
X129815226Y-135028937D01*
X129984744Y-135142205D01*
X130173102Y-135220226D01*
X130373061Y-135260000D01*
X130576939Y-135260000D01*
X130776898Y-135220226D01*
X130965256Y-135142205D01*
X131134774Y-135028937D01*
X131278937Y-134884774D01*
X131392205Y-134715256D01*
X131470226Y-134526898D01*
X131510000Y-134326939D01*
X131510000Y-134123061D01*
X131470226Y-133923102D01*
X131392205Y-133734744D01*
X131278937Y-133565226D01*
X131134774Y-133421063D01*
X130965256Y-133307795D01*
X130776898Y-133229774D01*
X130576939Y-133190000D01*
X130373061Y-133190000D01*
X130173102Y-133229774D01*
X129984744Y-133307795D01*
X129815226Y-133421063D01*
X129671063Y-133565226D01*
X129557795Y-133734744D01*
X129479774Y-133923102D01*
X129440000Y-134123061D01*
X129435000Y-134123061D01*
X129435000Y-134098061D01*
X129395226Y-133898102D01*
X129317205Y-133709744D01*
X129203937Y-133540226D01*
X129059774Y-133396063D01*
X128890256Y-133282795D01*
X128701898Y-133204774D01*
X128501939Y-133165000D01*
X128298061Y-133165000D01*
X128098102Y-133204774D01*
X127909744Y-133282795D01*
X127740226Y-133396063D01*
X127596063Y-133540226D01*
X127482795Y-133709744D01*
X127404774Y-133898102D01*
X127365000Y-134098061D01*
X125943737Y-134098061D01*
X126009774Y-134053937D01*
X126153937Y-133909774D01*
X126267205Y-133740256D01*
X126345226Y-133551898D01*
X126385000Y-133351939D01*
X126385000Y-133148061D01*
X126345226Y-132948102D01*
X126267205Y-132759744D01*
X126153937Y-132590226D01*
X126009774Y-132446063D01*
X125840256Y-132332795D01*
X125651898Y-132254774D01*
X125451939Y-132215000D01*
X125248061Y-132215000D01*
X125210000Y-132222571D01*
X125210000Y-131885430D01*
X128860010Y-131885430D01*
X128860010Y-132089308D01*
X128899784Y-132289267D01*
X128977805Y-132477625D01*
X129091073Y-132647143D01*
X129235236Y-132791306D01*
X129404754Y-132904574D01*
X129593112Y-132982595D01*
X129793071Y-133022369D01*
X129996949Y-133022369D01*
X130196908Y-132982595D01*
X130385266Y-132904574D01*
X130544674Y-132798061D01*
X131665000Y-132798061D01*
X131665000Y-133001939D01*
X131704774Y-133201898D01*
X131782795Y-133390256D01*
X131896063Y-133559774D01*
X132040226Y-133703937D01*
X132209744Y-133817205D01*
X132398102Y-133895226D01*
X132598061Y-133935000D01*
X132801939Y-133935000D01*
X133001898Y-133895226D01*
X133190256Y-133817205D01*
X133359774Y-133703937D01*
X133503937Y-133559774D01*
X133617205Y-133390256D01*
X133695226Y-133201898D01*
X133735000Y-133001939D01*
X133735000Y-132798061D01*
X133695226Y-132598102D01*
X133617205Y-132409744D01*
X133567263Y-132335000D01*
X133701939Y-132335000D01*
X133901898Y-132295226D01*
X134090256Y-132217205D01*
X134259774Y-132103937D01*
X134403937Y-131959774D01*
X134517205Y-131790256D01*
X134595226Y-131601898D01*
X134635000Y-131401939D01*
X134635000Y-131198061D01*
X134595226Y-130998102D01*
X134517205Y-130809744D01*
X134403937Y-130640226D01*
X134259774Y-130496063D01*
X134090256Y-130382795D01*
X133901898Y-130304774D01*
X133701939Y-130265000D01*
X133498061Y-130265000D01*
X133298102Y-130304774D01*
X133109744Y-130382795D01*
X132940226Y-130496063D01*
X132796063Y-130640226D01*
X132682795Y-130809744D01*
X132604774Y-130998102D01*
X132565000Y-131198061D01*
X132565000Y-131401939D01*
X132604774Y-131601898D01*
X132682795Y-131790256D01*
X132732737Y-131865000D01*
X132598061Y-131865000D01*
X132398102Y-131904774D01*
X132209744Y-131982795D01*
X132040226Y-132096063D01*
X131896063Y-132240226D01*
X131782795Y-132409744D01*
X131704774Y-132598102D01*
X131665000Y-132798061D01*
X130544674Y-132798061D01*
X130554784Y-132791306D01*
X130698947Y-132647143D01*
X130812215Y-132477625D01*
X130890236Y-132289267D01*
X130930010Y-132089308D01*
X130930010Y-131885430D01*
X130890236Y-131685471D01*
X130812215Y-131497113D01*
X130698947Y-131327595D01*
X130554784Y-131183432D01*
X130385266Y-131070164D01*
X130196908Y-130992143D01*
X129996949Y-130952369D01*
X129793071Y-130952369D01*
X129593112Y-130992143D01*
X129404754Y-131070164D01*
X129235236Y-131183432D01*
X129091073Y-131327595D01*
X128977805Y-131497113D01*
X128899784Y-131685471D01*
X128860010Y-131885430D01*
X125210000Y-131885430D01*
X125210000Y-127398061D01*
X125365000Y-127398061D01*
X125365000Y-127601939D01*
X125404774Y-127801898D01*
X125482795Y-127990256D01*
X125596063Y-128159774D01*
X125740226Y-128303937D01*
X125909744Y-128417205D01*
X126037461Y-128470107D01*
X126055573Y-128561164D01*
X126133594Y-128749522D01*
X126246862Y-128919040D01*
X126391025Y-129063203D01*
X126560543Y-129176471D01*
X126748901Y-129254492D01*
X126948860Y-129294266D01*
X127152738Y-129294266D01*
X127352697Y-129254492D01*
X127541055Y-129176471D01*
X127710573Y-129063203D01*
X127854736Y-128919040D01*
X127968004Y-128749522D01*
X128046025Y-128561164D01*
X128085799Y-128361205D01*
X128085799Y-128157327D01*
X128046025Y-127957368D01*
X127968004Y-127769010D01*
X127854736Y-127599492D01*
X127710573Y-127455329D01*
X127541055Y-127342061D01*
X127413338Y-127289159D01*
X127395226Y-127198102D01*
X127317205Y-127009744D01*
X127203937Y-126840226D01*
X127059774Y-126696063D01*
X126890256Y-126582795D01*
X126701898Y-126504774D01*
X126501939Y-126465000D01*
X126298061Y-126465000D01*
X126098102Y-126504774D01*
X125909744Y-126582795D01*
X125740226Y-126696063D01*
X125596063Y-126840226D01*
X125482795Y-127009744D01*
X125404774Y-127198102D01*
X125365000Y-127398061D01*
X125210000Y-127398061D01*
X125210000Y-126198061D01*
X131865000Y-126198061D01*
X131865000Y-126401939D01*
X131904774Y-126601898D01*
X131982795Y-126790256D01*
X132096063Y-126959774D01*
X132240226Y-127103937D01*
X132409744Y-127217205D01*
X132598102Y-127295226D01*
X132798061Y-127335000D01*
X133001939Y-127335000D01*
X133201898Y-127295226D01*
X133390256Y-127217205D01*
X133559774Y-127103937D01*
X133703937Y-126959774D01*
X133817205Y-126790256D01*
X133895226Y-126601898D01*
X133935000Y-126401939D01*
X133935000Y-126198061D01*
X133895226Y-125998102D01*
X133817205Y-125809744D01*
X133747868Y-125705973D01*
X133801898Y-125695226D01*
X133990256Y-125617205D01*
X134159774Y-125503937D01*
X134303937Y-125359774D01*
X134417205Y-125190256D01*
X134495226Y-125001898D01*
X134535000Y-124801939D01*
X134535000Y-124598061D01*
X134495226Y-124398102D01*
X134417205Y-124209744D01*
X134303937Y-124040226D01*
X134159774Y-123896063D01*
X133990256Y-123782795D01*
X133801898Y-123704774D01*
X133601939Y-123665000D01*
X133398061Y-123665000D01*
X133198102Y-123704774D01*
X133009744Y-123782795D01*
X132840226Y-123896063D01*
X132696063Y-124040226D01*
X132582795Y-124209744D01*
X132504774Y-124398102D01*
X132465000Y-124598061D01*
X132465000Y-124801939D01*
X132504774Y-125001898D01*
X132582795Y-125190256D01*
X132652132Y-125294027D01*
X132598102Y-125304774D01*
X132409744Y-125382795D01*
X132240226Y-125496063D01*
X132096063Y-125640226D01*
X131982795Y-125809744D01*
X131904774Y-125998102D01*
X131865000Y-126198061D01*
X125210000Y-126198061D01*
X125210000Y-123217484D01*
X125298061Y-123235000D01*
X125501939Y-123235000D01*
X125701898Y-123195226D01*
X125890256Y-123117205D01*
X125918907Y-123098061D01*
X127165000Y-123098061D01*
X127165000Y-123301939D01*
X127204774Y-123501898D01*
X127282795Y-123690256D01*
X127396063Y-123859774D01*
X127540226Y-124003937D01*
X127709744Y-124117205D01*
X127898102Y-124195226D01*
X128098061Y-124235000D01*
X128301939Y-124235000D01*
X128501898Y-124195226D01*
X128690256Y-124117205D01*
X128859774Y-124003937D01*
X129003937Y-123859774D01*
X129117205Y-123690256D01*
X129195226Y-123501898D01*
X129235000Y-123301939D01*
X129235000Y-123098061D01*
X129365000Y-123098061D01*
X129365000Y-123301939D01*
X129404774Y-123501898D01*
X129482795Y-123690256D01*
X129596063Y-123859774D01*
X129740226Y-124003937D01*
X129909744Y-124117205D01*
X130098102Y-124195226D01*
X130298061Y-124235000D01*
X130501939Y-124235000D01*
X130701898Y-124195226D01*
X130890256Y-124117205D01*
X131059774Y-124003937D01*
X131203937Y-123859774D01*
X131317205Y-123690256D01*
X131395226Y-123501898D01*
X131435000Y-123301939D01*
X131435000Y-123098061D01*
X131395226Y-122898102D01*
X131317205Y-122709744D01*
X131203937Y-122540226D01*
X131059774Y-122396063D01*
X130890256Y-122282795D01*
X130701898Y-122204774D01*
X130501939Y-122165000D01*
X130298061Y-122165000D01*
X130098102Y-122204774D01*
X129909744Y-122282795D01*
X129740226Y-122396063D01*
X129596063Y-122540226D01*
X129482795Y-122709744D01*
X129404774Y-122898102D01*
X129365000Y-123098061D01*
X129235000Y-123098061D01*
X129195226Y-122898102D01*
X129117205Y-122709744D01*
X129003937Y-122540226D01*
X128859774Y-122396063D01*
X128690256Y-122282795D01*
X128501898Y-122204774D01*
X128301939Y-122165000D01*
X128098061Y-122165000D01*
X127898102Y-122204774D01*
X127709744Y-122282795D01*
X127540226Y-122396063D01*
X127396063Y-122540226D01*
X127282795Y-122709744D01*
X127204774Y-122898102D01*
X127165000Y-123098061D01*
X125918907Y-123098061D01*
X126059774Y-123003937D01*
X126203937Y-122859774D01*
X126317205Y-122690256D01*
X126395226Y-122501898D01*
X126435000Y-122301939D01*
X126435000Y-122098061D01*
X126395226Y-121898102D01*
X126317205Y-121709744D01*
X126203937Y-121540226D01*
X126059774Y-121396063D01*
X125890256Y-121282795D01*
X125701898Y-121204774D01*
X125501939Y-121165000D01*
X125298061Y-121165000D01*
X125210000Y-121182516D01*
X125210000Y-119998073D01*
X128860010Y-119998073D01*
X128860010Y-120201951D01*
X128899784Y-120401910D01*
X128977805Y-120590268D01*
X129091073Y-120759786D01*
X129235236Y-120903949D01*
X129404754Y-121017217D01*
X129593112Y-121095238D01*
X129793071Y-121135012D01*
X129996949Y-121135012D01*
X130196908Y-121095238D01*
X130385266Y-121017217D01*
X130554784Y-120903949D01*
X130698947Y-120759786D01*
X130812215Y-120590268D01*
X130890236Y-120401910D01*
X130930010Y-120201951D01*
X130930010Y-119998073D01*
X130890236Y-119798114D01*
X130812215Y-119609756D01*
X130804401Y-119598061D01*
X131665000Y-119598061D01*
X131665000Y-119801939D01*
X131704774Y-120001898D01*
X131782795Y-120190256D01*
X131896063Y-120359774D01*
X132040226Y-120503937D01*
X132209744Y-120617205D01*
X132398102Y-120695226D01*
X132598061Y-120735000D01*
X132801939Y-120735000D01*
X133001898Y-120695226D01*
X133190256Y-120617205D01*
X133359774Y-120503937D01*
X133503937Y-120359774D01*
X133617205Y-120190256D01*
X133695226Y-120001898D01*
X133735000Y-119801939D01*
X133735000Y-119598061D01*
X133698736Y-119415746D01*
X133801898Y-119395226D01*
X133990256Y-119317205D01*
X134159774Y-119203937D01*
X134303937Y-119059774D01*
X134417205Y-118890256D01*
X134495226Y-118701898D01*
X134535000Y-118501939D01*
X134535000Y-118298061D01*
X134495226Y-118098102D01*
X134417205Y-117909744D01*
X134303937Y-117740226D01*
X134159774Y-117596063D01*
X133990256Y-117482795D01*
X133801898Y-117404774D01*
X133601939Y-117365000D01*
X133398061Y-117365000D01*
X133198102Y-117404774D01*
X133009744Y-117482795D01*
X132840226Y-117596063D01*
X132696063Y-117740226D01*
X132582795Y-117909744D01*
X132504774Y-118098102D01*
X132465000Y-118298061D01*
X132465000Y-118501939D01*
X132501264Y-118684254D01*
X132398102Y-118704774D01*
X132209744Y-118782795D01*
X132040226Y-118896063D01*
X131896063Y-119040226D01*
X131782795Y-119209744D01*
X131704774Y-119398102D01*
X131665000Y-119598061D01*
X130804401Y-119598061D01*
X130698947Y-119440238D01*
X130554784Y-119296075D01*
X130385266Y-119182807D01*
X130196908Y-119104786D01*
X129996949Y-119065012D01*
X129793071Y-119065012D01*
X129593112Y-119104786D01*
X129404754Y-119182807D01*
X129235236Y-119296075D01*
X129091073Y-119440238D01*
X128977805Y-119609756D01*
X128899784Y-119798114D01*
X128860010Y-119998073D01*
X125210000Y-119998073D01*
X125210000Y-116235760D01*
X126190010Y-116235760D01*
X126190010Y-116439638D01*
X126229784Y-116639597D01*
X126307805Y-116827955D01*
X126421073Y-116997473D01*
X126565236Y-117141636D01*
X126734754Y-117254904D01*
X126923112Y-117332925D01*
X127123071Y-117372699D01*
X127326949Y-117372699D01*
X127526908Y-117332925D01*
X127715266Y-117254904D01*
X127884784Y-117141636D01*
X128028947Y-116997473D01*
X128142215Y-116827955D01*
X128220236Y-116639597D01*
X128260010Y-116439638D01*
X128260010Y-116235760D01*
X128220236Y-116035801D01*
X128213058Y-116018471D01*
X128240256Y-116007205D01*
X128409774Y-115893937D01*
X128553937Y-115749774D01*
X128667205Y-115580256D01*
X128745226Y-115391898D01*
X128785000Y-115191939D01*
X128785000Y-114988061D01*
X128745226Y-114788102D01*
X128667205Y-114599744D01*
X128553937Y-114430226D01*
X128409774Y-114286063D01*
X128240256Y-114172795D01*
X128051898Y-114094774D01*
X127851939Y-114055000D01*
X127648061Y-114055000D01*
X127448102Y-114094774D01*
X127259744Y-114172795D01*
X127090226Y-114286063D01*
X126946063Y-114430226D01*
X126832795Y-114599744D01*
X126754774Y-114788102D01*
X126715000Y-114988061D01*
X126715000Y-115191939D01*
X126754774Y-115391898D01*
X126761952Y-115409228D01*
X126734754Y-115420494D01*
X126565236Y-115533762D01*
X126421073Y-115677925D01*
X126307805Y-115847443D01*
X126229784Y-116035801D01*
X126190010Y-116235760D01*
X125210000Y-116235760D01*
X125210000Y-113298061D01*
X131665000Y-113298061D01*
X131665000Y-113501939D01*
X131704774Y-113701898D01*
X131782795Y-113890256D01*
X131896063Y-114059774D01*
X132040226Y-114203937D01*
X132209744Y-114317205D01*
X132398102Y-114395226D01*
X132598061Y-114435000D01*
X132801939Y-114435000D01*
X133001898Y-114395226D01*
X133190256Y-114317205D01*
X133359774Y-114203937D01*
X133503937Y-114059774D01*
X133617205Y-113890256D01*
X133695226Y-113701898D01*
X133735000Y-113501939D01*
X133735000Y-113298061D01*
X133695226Y-113098102D01*
X133625708Y-112930272D01*
X133801898Y-112895226D01*
X133990256Y-112817205D01*
X134159774Y-112703937D01*
X134303937Y-112559774D01*
X134417205Y-112390256D01*
X134495226Y-112201898D01*
X134535000Y-112001939D01*
X134535000Y-111798061D01*
X134495226Y-111598102D01*
X134417205Y-111409744D01*
X134303937Y-111240226D01*
X134159774Y-111096063D01*
X133990256Y-110982795D01*
X133801898Y-110904774D01*
X133601939Y-110865000D01*
X133398061Y-110865000D01*
X133198102Y-110904774D01*
X133009744Y-110982795D01*
X132840226Y-111096063D01*
X132696063Y-111240226D01*
X132582795Y-111409744D01*
X132504774Y-111598102D01*
X132465000Y-111798061D01*
X132465000Y-112001939D01*
X132504774Y-112201898D01*
X132574292Y-112369728D01*
X132398102Y-112404774D01*
X132209744Y-112482795D01*
X132040226Y-112596063D01*
X131896063Y-112740226D01*
X131782795Y-112909744D01*
X131704774Y-113098102D01*
X131665000Y-113298061D01*
X125210000Y-113298061D01*
X125210000Y-111417484D01*
X125298061Y-111435000D01*
X125501939Y-111435000D01*
X125701898Y-111395226D01*
X125890256Y-111317205D01*
X126059774Y-111203937D01*
X126203937Y-111059774D01*
X126317205Y-110890256D01*
X126395226Y-110701898D01*
X126435000Y-110501939D01*
X126435000Y-110298061D01*
X126413120Y-110188061D01*
X127575000Y-110188061D01*
X127575000Y-110391939D01*
X127614774Y-110591898D01*
X127692795Y-110780256D01*
X127806063Y-110949774D01*
X127950226Y-111093937D01*
X128119744Y-111207205D01*
X128308102Y-111285226D01*
X128508061Y-111325000D01*
X128711939Y-111325000D01*
X128847371Y-111298061D01*
X129365000Y-111298061D01*
X129365000Y-111501939D01*
X129404774Y-111701898D01*
X129482795Y-111890256D01*
X129596063Y-112059774D01*
X129740226Y-112203937D01*
X129909744Y-112317205D01*
X130098102Y-112395226D01*
X130298061Y-112435000D01*
X130501939Y-112435000D01*
X130701898Y-112395226D01*
X130890256Y-112317205D01*
X131059774Y-112203937D01*
X131203937Y-112059774D01*
X131317205Y-111890256D01*
X131395226Y-111701898D01*
X131435000Y-111501939D01*
X131435000Y-111298061D01*
X131395226Y-111098102D01*
X131317205Y-110909744D01*
X131203937Y-110740226D01*
X131059774Y-110596063D01*
X130890256Y-110482795D01*
X130701898Y-110404774D01*
X130501939Y-110365000D01*
X130298061Y-110365000D01*
X130098102Y-110404774D01*
X129909744Y-110482795D01*
X129740226Y-110596063D01*
X129596063Y-110740226D01*
X129482795Y-110909744D01*
X129404774Y-111098102D01*
X129365000Y-111298061D01*
X128847371Y-111298061D01*
X128911898Y-111285226D01*
X129100256Y-111207205D01*
X129269774Y-111093937D01*
X129413937Y-110949774D01*
X129527205Y-110780256D01*
X129605226Y-110591898D01*
X129645000Y-110391939D01*
X129645000Y-110188061D01*
X129605226Y-109988102D01*
X129527205Y-109799744D01*
X129413937Y-109630226D01*
X129269774Y-109486063D01*
X129100256Y-109372795D01*
X128911898Y-109294774D01*
X128711939Y-109255000D01*
X128508061Y-109255000D01*
X128308102Y-109294774D01*
X128119744Y-109372795D01*
X127950226Y-109486063D01*
X127806063Y-109630226D01*
X127692795Y-109799744D01*
X127614774Y-109988102D01*
X127575000Y-110188061D01*
X126413120Y-110188061D01*
X126395226Y-110098102D01*
X126317205Y-109909744D01*
X126203937Y-109740226D01*
X126059774Y-109596063D01*
X125890256Y-109482795D01*
X125701898Y-109404774D01*
X125501939Y-109365000D01*
X125298061Y-109365000D01*
X125210000Y-109382516D01*
X125210000Y-107698061D01*
X130465000Y-107698061D01*
X130465000Y-107901939D01*
X130504774Y-108101898D01*
X130582795Y-108290256D01*
X130696063Y-108459774D01*
X130840226Y-108603937D01*
X131009744Y-108717205D01*
X131198102Y-108795226D01*
X131398061Y-108835000D01*
X131601939Y-108835000D01*
X131801898Y-108795226D01*
X131990256Y-108717205D01*
X132159774Y-108603937D01*
X132303937Y-108459774D01*
X132417205Y-108290256D01*
X132495226Y-108101898D01*
X132535000Y-107901939D01*
X132535000Y-107698061D01*
X132495226Y-107498102D01*
X132417205Y-107309744D01*
X132303937Y-107140226D01*
X132159774Y-106996063D01*
X131990256Y-106882795D01*
X131801898Y-106804774D01*
X131601939Y-106765000D01*
X131398061Y-106765000D01*
X131198102Y-106804774D01*
X131009744Y-106882795D01*
X130840226Y-106996063D01*
X130696063Y-107140226D01*
X130582795Y-107309744D01*
X130504774Y-107498102D01*
X130465000Y-107698061D01*
X125210000Y-107698061D01*
X125210000Y-105029872D01*
X139265000Y-105029872D01*
X139265000Y-105470128D01*
X139350890Y-105901925D01*
X139519369Y-106308669D01*
X139763962Y-106674729D01*
X140075271Y-106986038D01*
X140441331Y-107230631D01*
X140848075Y-107399110D01*
X141279872Y-107485000D01*
X141720128Y-107485000D01*
X142151925Y-107399110D01*
X142558669Y-107230631D01*
X142924729Y-106986038D01*
X143236038Y-106674729D01*
X143480631Y-106308669D01*
X143649110Y-105901925D01*
X143735000Y-105470128D01*
X143735000Y-105029872D01*
X143649110Y-104598075D01*
X143480631Y-104191331D01*
X143236038Y-103825271D01*
X142924729Y-103513962D01*
X142558669Y-103269369D01*
X142151925Y-103100890D01*
X141720128Y-103015000D01*
X141279872Y-103015000D01*
X140848075Y-103100890D01*
X140441331Y-103269369D01*
X140075271Y-103513962D01*
X139763962Y-103825271D01*
X139519369Y-104191331D01*
X139350890Y-104598075D01*
X139265000Y-105029872D01*
X125210000Y-105029872D01*
X125210000Y-102698061D01*
X130065000Y-102698061D01*
X130065000Y-102901939D01*
X130104774Y-103101898D01*
X130182795Y-103290256D01*
X130296063Y-103459774D01*
X130440226Y-103603937D01*
X130609744Y-103717205D01*
X130798102Y-103795226D01*
X130998061Y-103835000D01*
X131201939Y-103835000D01*
X131401898Y-103795226D01*
X131590256Y-103717205D01*
X131759774Y-103603937D01*
X131903937Y-103459774D01*
X132017205Y-103290256D01*
X132095226Y-103101898D01*
X132135000Y-102901939D01*
X132135000Y-102698061D01*
X132095226Y-102498102D01*
X132017205Y-102309744D01*
X131903937Y-102140226D01*
X131759774Y-101996063D01*
X131590256Y-101882795D01*
X131401898Y-101804774D01*
X131201939Y-101765000D01*
X130998061Y-101765000D01*
X130798102Y-101804774D01*
X130609744Y-101882795D01*
X130440226Y-101996063D01*
X130296063Y-102140226D01*
X130182795Y-102309744D01*
X130104774Y-102498102D01*
X130065000Y-102698061D01*
X125210000Y-102698061D01*
X125210000Y-101698060D01*
X134464999Y-101698060D01*
X134464999Y-101901938D01*
X134504773Y-102101897D01*
X134582794Y-102290255D01*
X134696062Y-102459773D01*
X134840225Y-102603936D01*
X135009743Y-102717204D01*
X135198101Y-102795225D01*
X135398060Y-102834999D01*
X135601938Y-102834999D01*
X135801897Y-102795225D01*
X135990255Y-102717204D01*
X136159773Y-102603936D01*
X136303936Y-102459773D01*
X136417204Y-102290255D01*
X136495225Y-102101897D01*
X136534999Y-101901938D01*
X136534999Y-101698060D01*
X136495225Y-101498101D01*
X136417204Y-101309743D01*
X136303936Y-101140225D01*
X136263711Y-101100000D01*
X136303937Y-101059774D01*
X136417205Y-100890256D01*
X136495226Y-100701898D01*
X136535000Y-100501939D01*
X136535000Y-100298061D01*
X136495226Y-100098102D01*
X136417205Y-99909744D01*
X136303937Y-99740226D01*
X136159774Y-99596063D01*
X135990256Y-99482795D01*
X135801898Y-99404774D01*
X135601939Y-99365000D01*
X135398061Y-99365000D01*
X135198102Y-99404774D01*
X135009744Y-99482795D01*
X134840226Y-99596063D01*
X134696063Y-99740226D01*
X134582795Y-99909744D01*
X134504774Y-100098102D01*
X134465000Y-100298061D01*
X134465000Y-100501939D01*
X134504774Y-100701898D01*
X134582795Y-100890256D01*
X134696063Y-101059774D01*
X134736288Y-101099999D01*
X134696062Y-101140225D01*
X134582794Y-101309743D01*
X134504773Y-101498101D01*
X134464999Y-101698060D01*
X125210000Y-101698060D01*
X125210000Y-96598061D01*
X136365000Y-96598061D01*
X136365000Y-96801939D01*
X136404774Y-97001898D01*
X136482795Y-97190256D01*
X136596063Y-97359774D01*
X136740226Y-97503937D01*
X136909744Y-97617205D01*
X136965000Y-97640093D01*
X136965000Y-97801939D01*
X137004774Y-98001898D01*
X137082795Y-98190256D01*
X137196063Y-98359774D01*
X137340226Y-98503937D01*
X137509744Y-98617205D01*
X137682250Y-98688660D01*
X137704774Y-98801898D01*
X137782795Y-98990256D01*
X137896063Y-99159774D01*
X138040226Y-99303937D01*
X138209744Y-99417205D01*
X138398102Y-99495226D01*
X138598061Y-99535000D01*
X138801939Y-99535000D01*
X139001898Y-99495226D01*
X139190256Y-99417205D01*
X139359774Y-99303937D01*
X139503937Y-99159774D01*
X139617205Y-98990256D01*
X139695226Y-98801898D01*
X139735000Y-98601939D01*
X139735000Y-98398061D01*
X139695226Y-98198102D01*
X139617205Y-98009744D01*
X139503937Y-97840226D01*
X139359774Y-97696063D01*
X139190256Y-97582795D01*
X139017750Y-97511340D01*
X138995226Y-97398102D01*
X138917205Y-97209744D01*
X138803937Y-97040226D01*
X138659774Y-96896063D01*
X138490256Y-96782795D01*
X138435000Y-96759907D01*
X138435000Y-96598061D01*
X138395226Y-96398102D01*
X138317205Y-96209744D01*
X138203937Y-96040226D01*
X138059774Y-95896063D01*
X137890256Y-95782795D01*
X137701898Y-95704774D01*
X137501939Y-95665000D01*
X137298061Y-95665000D01*
X137098102Y-95704774D01*
X136909744Y-95782795D01*
X136740226Y-95896063D01*
X136596063Y-96040226D01*
X136482795Y-96209744D01*
X136404774Y-96398102D01*
X136365000Y-96598061D01*
X125210000Y-96598061D01*
X125210000Y-94078061D01*
X125935000Y-94078061D01*
X125935000Y-94281939D01*
X125974774Y-94481898D01*
X126052795Y-94670256D01*
X126166063Y-94839774D01*
X126310226Y-94983937D01*
X126479744Y-95097205D01*
X126668102Y-95175226D01*
X126868061Y-95215000D01*
X127071939Y-95215000D01*
X127271898Y-95175226D01*
X127460256Y-95097205D01*
X127629774Y-94983937D01*
X127773937Y-94839774D01*
X127887205Y-94670256D01*
X127965226Y-94481898D01*
X128005000Y-94281939D01*
X128005000Y-94078061D01*
X127971538Y-93909833D01*
X128098061Y-93935000D01*
X128301939Y-93935000D01*
X128501898Y-93895226D01*
X128690256Y-93817205D01*
X128859774Y-93703937D01*
X129003937Y-93559774D01*
X129117205Y-93390256D01*
X129195226Y-93201898D01*
X129235000Y-93001939D01*
X129235000Y-92798061D01*
X129195226Y-92598102D01*
X129189966Y-92585401D01*
X136890010Y-92585401D01*
X136890010Y-92789279D01*
X136929784Y-92989238D01*
X137007805Y-93177596D01*
X137121073Y-93347114D01*
X137265236Y-93491277D01*
X137434754Y-93604545D01*
X137623112Y-93682566D01*
X137823071Y-93722340D01*
X138026949Y-93722340D01*
X138226908Y-93682566D01*
X138415266Y-93604545D01*
X138584784Y-93491277D01*
X138728947Y-93347114D01*
X138842215Y-93177596D01*
X138920236Y-92989238D01*
X138960010Y-92789279D01*
X138960010Y-92585401D01*
X138920236Y-92385442D01*
X138842215Y-92197084D01*
X138728947Y-92027566D01*
X138584784Y-91883403D01*
X138415266Y-91770135D01*
X138226908Y-91692114D01*
X138026949Y-91652340D01*
X137823071Y-91652340D01*
X137623112Y-91692114D01*
X137434754Y-91770135D01*
X137265236Y-91883403D01*
X137121073Y-92027566D01*
X137007805Y-92197084D01*
X136929784Y-92385442D01*
X136890010Y-92585401D01*
X129189966Y-92585401D01*
X129117205Y-92409744D01*
X129003937Y-92240226D01*
X128859774Y-92096063D01*
X128690256Y-91982795D01*
X128501898Y-91904774D01*
X128301939Y-91865000D01*
X128098061Y-91865000D01*
X127898102Y-91904774D01*
X127709744Y-91982795D01*
X127540226Y-92096063D01*
X127396063Y-92240226D01*
X127282795Y-92409744D01*
X127204774Y-92598102D01*
X127165000Y-92798061D01*
X127165000Y-93001939D01*
X127198462Y-93170167D01*
X127071939Y-93145000D01*
X126868061Y-93145000D01*
X126668102Y-93184774D01*
X126479744Y-93262795D01*
X126310226Y-93376063D01*
X126166063Y-93520226D01*
X126052795Y-93689744D01*
X125974774Y-93878102D01*
X125935000Y-94078061D01*
X125210000Y-94078061D01*
X125210000Y-93193451D01*
X125268061Y-93205000D01*
X125471939Y-93205000D01*
X125671898Y-93165226D01*
X125860256Y-93087205D01*
X126029774Y-92973937D01*
X126173937Y-92829774D01*
X126287205Y-92660256D01*
X126365226Y-92471898D01*
X126405000Y-92271939D01*
X126405000Y-92068061D01*
X126365226Y-91868102D01*
X126287205Y-91679744D01*
X126173937Y-91510226D01*
X126029774Y-91366063D01*
X125860256Y-91252795D01*
X125671898Y-91174774D01*
X125471939Y-91135000D01*
X125268061Y-91135000D01*
X125210000Y-91146549D01*
X125210000Y-88598061D01*
X125365000Y-88598061D01*
X125365000Y-88801939D01*
X125404774Y-89001898D01*
X125482795Y-89190256D01*
X125596063Y-89359774D01*
X125740226Y-89503937D01*
X125909744Y-89617205D01*
X126098102Y-89695226D01*
X126298061Y-89735000D01*
X126501939Y-89735000D01*
X126701898Y-89695226D01*
X126890256Y-89617205D01*
X127059774Y-89503937D01*
X127165000Y-89398711D01*
X127165000Y-89601939D01*
X127204774Y-89801898D01*
X127282795Y-89990256D01*
X127396063Y-90159774D01*
X127540226Y-90303937D01*
X127709744Y-90417205D01*
X127898102Y-90495226D01*
X128098061Y-90535000D01*
X128301939Y-90535000D01*
X128501898Y-90495226D01*
X128690256Y-90417205D01*
X128859774Y-90303937D01*
X129003937Y-90159774D01*
X129117205Y-89990256D01*
X129195226Y-89801898D01*
X129235000Y-89601939D01*
X129235000Y-89398061D01*
X129195226Y-89198102D01*
X129140093Y-89065000D01*
X129241939Y-89065000D01*
X129441898Y-89025226D01*
X129630256Y-88947205D01*
X129799774Y-88833937D01*
X129943937Y-88689774D01*
X130057205Y-88520256D01*
X130135226Y-88331898D01*
X130175000Y-88131939D01*
X130175000Y-87928061D01*
X130135226Y-87728102D01*
X130068721Y-87567547D01*
X130190256Y-87517205D01*
X130359774Y-87403937D01*
X130503937Y-87259774D01*
X130617205Y-87090256D01*
X130695226Y-86901898D01*
X130735000Y-86701939D01*
X130735000Y-86498061D01*
X130695226Y-86298102D01*
X130617205Y-86109744D01*
X130503937Y-85940226D01*
X130359774Y-85796063D01*
X130190256Y-85682795D01*
X130001898Y-85604774D01*
X129801939Y-85565000D01*
X129598061Y-85565000D01*
X129398102Y-85604774D01*
X129228370Y-85675080D01*
X129090256Y-85582795D01*
X128901898Y-85504774D01*
X128701939Y-85465000D01*
X128498061Y-85465000D01*
X128298102Y-85504774D01*
X128109744Y-85582795D01*
X127940226Y-85696063D01*
X127796063Y-85840226D01*
X127682795Y-86009744D01*
X127604774Y-86198102D01*
X127565000Y-86398061D01*
X127565000Y-86601939D01*
X127604774Y-86801898D01*
X127682795Y-86990256D01*
X127796063Y-87159774D01*
X127940226Y-87303937D01*
X128109744Y-87417205D01*
X128262417Y-87480445D01*
X128222795Y-87539744D01*
X128144774Y-87728102D01*
X128105000Y-87928061D01*
X128105000Y-88131939D01*
X128144774Y-88331898D01*
X128199907Y-88465000D01*
X128098061Y-88465000D01*
X127898102Y-88504774D01*
X127709744Y-88582795D01*
X127540226Y-88696063D01*
X127435000Y-88801289D01*
X127435000Y-88598061D01*
X127395226Y-88398102D01*
X127317205Y-88209744D01*
X127203937Y-88040226D01*
X127059774Y-87896063D01*
X126890256Y-87782795D01*
X126701898Y-87704774D01*
X126501939Y-87665000D01*
X126298061Y-87665000D01*
X126098102Y-87704774D01*
X125909744Y-87782795D01*
X125740226Y-87896063D01*
X125596063Y-88040226D01*
X125482795Y-88209744D01*
X125404774Y-88398102D01*
X125365000Y-88598061D01*
X125210000Y-88598061D01*
X125210000Y-86398061D01*
X125465000Y-86398061D01*
X125465000Y-86601939D01*
X125504774Y-86801898D01*
X125582795Y-86990256D01*
X125696063Y-87159774D01*
X125840226Y-87303937D01*
X126009744Y-87417205D01*
X126198102Y-87495226D01*
X126398061Y-87535000D01*
X126601939Y-87535000D01*
X126801898Y-87495226D01*
X126990256Y-87417205D01*
X127159774Y-87303937D01*
X127303937Y-87159774D01*
X127417205Y-86990256D01*
X127495226Y-86801898D01*
X127535000Y-86601939D01*
X127535000Y-86398061D01*
X127495226Y-86198102D01*
X127417205Y-86009744D01*
X127303937Y-85840226D01*
X127159774Y-85696063D01*
X126990256Y-85582795D01*
X126801898Y-85504774D01*
X126601939Y-85465000D01*
X126398061Y-85465000D01*
X126198102Y-85504774D01*
X126009744Y-85582795D01*
X125840226Y-85696063D01*
X125696063Y-85840226D01*
X125582795Y-86009744D01*
X125504774Y-86198102D01*
X125465000Y-86398061D01*
X125210000Y-86398061D01*
X125210000Y-80198061D01*
X130365000Y-80198061D01*
X130365000Y-80401939D01*
X130404774Y-80601898D01*
X130482795Y-80790256D01*
X130596063Y-80959774D01*
X130740226Y-81103937D01*
X130909744Y-81217205D01*
X131098102Y-81295226D01*
X131298061Y-81335000D01*
X131501939Y-81335000D01*
X131701898Y-81295226D01*
X131890256Y-81217205D01*
X132059774Y-81103937D01*
X132203937Y-80959774D01*
X132317205Y-80790256D01*
X132395226Y-80601898D01*
X132435000Y-80401939D01*
X132435000Y-80198061D01*
X132395226Y-79998102D01*
X132317205Y-79809744D01*
X132203937Y-79640226D01*
X132059774Y-79496063D01*
X131890256Y-79382795D01*
X131701898Y-79304774D01*
X131501939Y-79265000D01*
X131298061Y-79265000D01*
X131098102Y-79304774D01*
X130909744Y-79382795D01*
X130740226Y-79496063D01*
X130596063Y-79640226D01*
X130482795Y-79809744D01*
X130404774Y-79998102D01*
X130365000Y-80198061D01*
X125210000Y-80198061D01*
X125210000Y-77736257D01*
X127311689Y-77736257D01*
X127311689Y-77940135D01*
X127351463Y-78140094D01*
X127429484Y-78328452D01*
X127431471Y-78331426D01*
X127371463Y-78476298D01*
X127331689Y-78676257D01*
X127331689Y-78880135D01*
X127371463Y-79080094D01*
X127449484Y-79268452D01*
X127562752Y-79437970D01*
X127706915Y-79582133D01*
X127876433Y-79695401D01*
X128064791Y-79773422D01*
X128264750Y-79813196D01*
X128468628Y-79813196D01*
X128668587Y-79773422D01*
X128856945Y-79695401D01*
X129026463Y-79582133D01*
X129170626Y-79437970D01*
X129283894Y-79268452D01*
X129361915Y-79080094D01*
X129401689Y-78880135D01*
X129401689Y-78676257D01*
X129361915Y-78476298D01*
X129283894Y-78287940D01*
X129281907Y-78284966D01*
X129341915Y-78140094D01*
X129381689Y-77940135D01*
X129381689Y-77736257D01*
X129354201Y-77598061D01*
X129665000Y-77598061D01*
X129665000Y-77801939D01*
X129704774Y-78001898D01*
X129782795Y-78190256D01*
X129896063Y-78359774D01*
X130040226Y-78503937D01*
X130209744Y-78617205D01*
X130398102Y-78695226D01*
X130598061Y-78735000D01*
X130801939Y-78735000D01*
X131001898Y-78695226D01*
X131190256Y-78617205D01*
X131359774Y-78503937D01*
X131503937Y-78359774D01*
X131617205Y-78190256D01*
X131695226Y-78001898D01*
X131735000Y-77801939D01*
X131735000Y-77598061D01*
X131695226Y-77398102D01*
X131617205Y-77209744D01*
X131609399Y-77198061D01*
X134339977Y-77198061D01*
X134339977Y-77401939D01*
X134379751Y-77601898D01*
X134457772Y-77790256D01*
X134571040Y-77959774D01*
X134715203Y-78103937D01*
X134884721Y-78217205D01*
X135073079Y-78295226D01*
X135273038Y-78335000D01*
X135476916Y-78335000D01*
X135676875Y-78295226D01*
X135865233Y-78217205D01*
X135874983Y-78210690D01*
X135884734Y-78217205D01*
X136073092Y-78295226D01*
X136273051Y-78335000D01*
X136476929Y-78335000D01*
X136676888Y-78295226D01*
X136865246Y-78217205D01*
X137034764Y-78103937D01*
X137059256Y-78079445D01*
X137074533Y-78116325D01*
X137187801Y-78285843D01*
X137331964Y-78430006D01*
X137501482Y-78543274D01*
X137689840Y-78621295D01*
X137889799Y-78661069D01*
X138093677Y-78661069D01*
X138293636Y-78621295D01*
X138481994Y-78543274D01*
X138651512Y-78430006D01*
X138790331Y-78291187D01*
X138821321Y-78297351D01*
X139025199Y-78297351D01*
X139225158Y-78257577D01*
X139413516Y-78179556D01*
X139583034Y-78066288D01*
X139663210Y-77986112D01*
X139709744Y-78017205D01*
X139898102Y-78095226D01*
X140098061Y-78135000D01*
X140301939Y-78135000D01*
X140501898Y-78095226D01*
X140690256Y-78017205D01*
X140859774Y-77903937D01*
X141003937Y-77759774D01*
X141117205Y-77590256D01*
X141195226Y-77401898D01*
X141235000Y-77201939D01*
X141235000Y-76998061D01*
X141195226Y-76798102D01*
X141117205Y-76609744D01*
X141003937Y-76440226D01*
X140859774Y-76296063D01*
X140690256Y-76182795D01*
X140501898Y-76104774D01*
X140301939Y-76065000D01*
X140098061Y-76065000D01*
X139898102Y-76104774D01*
X139709744Y-76182795D01*
X139540226Y-76296063D01*
X139460050Y-76376239D01*
X139413516Y-76345146D01*
X139225158Y-76267125D01*
X139025199Y-76227351D01*
X138821321Y-76227351D01*
X138621362Y-76267125D01*
X138433004Y-76345146D01*
X138263486Y-76458414D01*
X138235000Y-76486900D01*
X138235000Y-76398061D01*
X138195226Y-76198102D01*
X138117205Y-76009744D01*
X138003937Y-75840226D01*
X137859774Y-75696063D01*
X137690256Y-75582795D01*
X137501898Y-75504774D01*
X137354430Y-75475441D01*
X137377085Y-75361544D01*
X137377085Y-75157666D01*
X137337311Y-74957707D01*
X137259290Y-74769349D01*
X137146022Y-74599831D01*
X137001859Y-74455668D01*
X136832341Y-74342400D01*
X136643983Y-74264379D01*
X136444024Y-74224605D01*
X136254199Y-74224605D01*
X136401898Y-74195226D01*
X136590256Y-74117205D01*
X136759774Y-74003937D01*
X136903937Y-73859774D01*
X137017205Y-73690256D01*
X137095226Y-73501898D01*
X137135000Y-73301939D01*
X137135000Y-73098061D01*
X137095226Y-72898102D01*
X137017205Y-72709744D01*
X136903937Y-72540226D01*
X136759774Y-72396063D01*
X136590256Y-72282795D01*
X136401898Y-72204774D01*
X136201939Y-72165000D01*
X135998061Y-72165000D01*
X135798102Y-72204774D01*
X135609744Y-72282795D01*
X135440226Y-72396063D01*
X135296063Y-72540226D01*
X135182795Y-72709744D01*
X135104774Y-72898102D01*
X135065000Y-73098061D01*
X135065000Y-73301939D01*
X135104774Y-73501898D01*
X135182795Y-73690256D01*
X135296063Y-73859774D01*
X135440226Y-74003937D01*
X135609744Y-74117205D01*
X135798102Y-74195226D01*
X135998061Y-74235000D01*
X136187886Y-74235000D01*
X136040187Y-74264379D01*
X135851829Y-74342400D01*
X135682311Y-74455668D01*
X135538148Y-74599831D01*
X135424880Y-74769349D01*
X135346859Y-74957707D01*
X135307085Y-75157666D01*
X135307085Y-75361544D01*
X135346859Y-75561503D01*
X135424880Y-75749861D01*
X135538148Y-75919379D01*
X135682311Y-76063542D01*
X135851829Y-76176810D01*
X136040187Y-76254831D01*
X136182181Y-76283075D01*
X136073092Y-76304774D01*
X135884734Y-76382795D01*
X135874984Y-76389310D01*
X135865233Y-76382795D01*
X135676875Y-76304774D01*
X135476916Y-76265000D01*
X135273038Y-76265000D01*
X135073079Y-76304774D01*
X134884721Y-76382795D01*
X134715203Y-76496063D01*
X134571040Y-76640226D01*
X134457772Y-76809744D01*
X134379751Y-76998102D01*
X134339977Y-77198061D01*
X131609399Y-77198061D01*
X131503937Y-77040226D01*
X131359774Y-76896063D01*
X131190256Y-76782795D01*
X131001898Y-76704774D01*
X130801939Y-76665000D01*
X130598061Y-76665000D01*
X130398102Y-76704774D01*
X130209744Y-76782795D01*
X130040226Y-76896063D01*
X129896063Y-77040226D01*
X129782795Y-77209744D01*
X129704774Y-77398102D01*
X129665000Y-77598061D01*
X129354201Y-77598061D01*
X129341915Y-77536298D01*
X129281427Y-77390267D01*
X129351915Y-77220094D01*
X129391689Y-77020135D01*
X129391689Y-76816257D01*
X129351915Y-76616298D01*
X129273894Y-76427940D01*
X129160626Y-76258422D01*
X129016463Y-76114259D01*
X128846945Y-76000991D01*
X128658587Y-75922970D01*
X128458628Y-75883196D01*
X128254750Y-75883196D01*
X128054791Y-75922970D01*
X127866433Y-76000991D01*
X127696915Y-76114259D01*
X127552752Y-76258422D01*
X127439484Y-76427940D01*
X127361463Y-76616298D01*
X127321689Y-76816257D01*
X127321689Y-77020135D01*
X127361463Y-77220094D01*
X127421951Y-77366125D01*
X127351463Y-77536298D01*
X127311689Y-77736257D01*
X125210000Y-77736257D01*
X125210000Y-76817311D01*
X125398102Y-76895226D01*
X125598061Y-76935000D01*
X125801939Y-76935000D01*
X126001898Y-76895226D01*
X126190256Y-76817205D01*
X126359774Y-76703937D01*
X126503937Y-76559774D01*
X126617205Y-76390256D01*
X126695226Y-76201898D01*
X126735000Y-76001939D01*
X126735000Y-75798061D01*
X126695226Y-75598102D01*
X126617205Y-75409744D01*
X126503937Y-75240226D01*
X126359774Y-75096063D01*
X126190256Y-74982795D01*
X126001898Y-74904774D01*
X125801939Y-74865000D01*
X125598061Y-74865000D01*
X125398102Y-74904774D01*
X125210000Y-74982689D01*
X125210000Y-67014515D01*
X125282795Y-67190256D01*
X125396063Y-67359774D01*
X125540226Y-67503937D01*
X125709744Y-67617205D01*
X125898102Y-67695226D01*
X126098061Y-67735000D01*
X126301939Y-67735000D01*
X126501898Y-67695226D01*
X126690256Y-67617205D01*
X126859774Y-67503937D01*
X127003937Y-67359774D01*
X127117205Y-67190256D01*
X127195226Y-67001898D01*
X127235000Y-66801939D01*
X127235000Y-66598061D01*
X127195226Y-66398102D01*
X127117205Y-66209744D01*
X127003937Y-66040226D01*
X126859774Y-65896063D01*
X126690256Y-65782795D01*
X126501898Y-65704774D01*
X126301939Y-65665000D01*
X126098061Y-65665000D01*
X125898102Y-65704774D01*
X125709744Y-65782795D01*
X125540226Y-65896063D01*
X125396063Y-66040226D01*
X125282795Y-66209744D01*
X125210000Y-66385485D01*
X125210000Y-64360000D01*
X127648254Y-64360000D01*
X127636928Y-64475000D01*
G37*
G04 #@! TD.AperFunction*
M02*
