G04 #@! TF.GenerationSoftware,KiCad,Pcbnew,(5.1.9-0-10_14)*
G04 #@! TF.CreationDate,2021-01-28T12:41:14+01:00*
G04 #@! TF.ProjectId,instrumnet,696e7374-7275-46d6-9e65-742e6b696361,rev?*
G04 #@! TF.SameCoordinates,Original*
G04 #@! TF.FileFunction,Legend,Top*
G04 #@! TF.FilePolarity,Positive*
%FSLAX46Y46*%
G04 Gerber Fmt 4.6, Leading zero omitted, Abs format (unit mm)*
G04 Created by KiCad (PCBNEW (5.1.9-0-10_14)) date 2021-01-28 12:41:14*
%MOMM*%
%LPD*%
G01*
G04 APERTURE LIST*
%ADD10C,0.150000*%
G04 #@! TA.AperFunction,Profile*
%ADD11C,0.150000*%
G04 #@! TD*
%ADD12C,0.120000*%
%ADD13C,0.125000*%
G04 APERTURE END LIST*
D10*
X140819047Y-140821428D02*
X141580952Y-140821428D01*
X140819047Y-108171428D02*
X141580952Y-108171428D01*
X141200000Y-108552380D02*
X141200000Y-107790476D01*
X128950000Y-64090000D02*
X129950000Y-64090000D01*
X127900000Y-66200000D02*
X129950000Y-66200000D01*
X127890000Y-65150000D02*
X127900000Y-66200000D01*
X131950000Y-64100000D02*
X131950000Y-66200000D01*
X140000000Y-66200000D02*
X140000000Y-64100000D01*
X144000000Y-68000000D02*
X144000000Y-66250000D01*
X136000000Y-68000000D02*
X136000000Y-64100000D01*
X136971428Y-66978571D02*
X137114285Y-67026190D01*
X137161904Y-67073809D01*
X137209523Y-67169047D01*
X137209523Y-67311904D01*
X137161904Y-67407142D01*
X137114285Y-67454761D01*
X137019047Y-67502380D01*
X136638095Y-67502380D01*
X136638095Y-66502380D01*
X136971428Y-66502380D01*
X137066666Y-66550000D01*
X137114285Y-66597619D01*
X137161904Y-66692857D01*
X137161904Y-66788095D01*
X137114285Y-66883333D01*
X137066666Y-66930952D01*
X136971428Y-66978571D01*
X136638095Y-66978571D01*
X142711904Y-67266666D02*
X143188095Y-67266666D01*
X142616666Y-67552380D02*
X142950000Y-66552380D01*
X143283333Y-67552380D01*
X133519047Y-66671428D02*
X134280952Y-66671428D01*
X129619047Y-66671428D02*
X130380952Y-66671428D01*
X130000000Y-67052380D02*
X130000000Y-66290476D01*
X126328586Y-106275000D02*
X126239300Y-106227380D01*
X126096443Y-106227380D01*
X125947633Y-106275000D01*
X125840491Y-106370238D01*
X125780967Y-106465476D01*
X125709538Y-106655952D01*
X125691681Y-106798809D01*
X125715491Y-106989285D01*
X125751205Y-107084523D01*
X125834538Y-107179761D01*
X125971443Y-107227380D01*
X126066681Y-107227380D01*
X126215491Y-107179761D01*
X126269062Y-107132142D01*
X126310729Y-106798809D01*
X126120252Y-106798809D01*
X126751205Y-106703571D02*
X127084538Y-106703571D01*
X127161919Y-107227380D02*
X126685729Y-107227380D01*
X126810729Y-106227380D01*
X127286919Y-106227380D01*
X127715491Y-106227380D02*
X127614300Y-107036904D01*
X127650014Y-107132142D01*
X127691681Y-107179761D01*
X127780967Y-107227380D01*
X127971443Y-107227380D01*
X128072633Y-107179761D01*
X128126205Y-107132142D01*
X128185729Y-107036904D01*
X128286919Y-106227380D01*
X128596443Y-107179761D02*
X128733348Y-107227380D01*
X128971443Y-107227380D01*
X129072633Y-107179761D01*
X129126205Y-107132142D01*
X129185729Y-107036904D01*
X129197633Y-106941666D01*
X129161919Y-106846428D01*
X129120252Y-106798809D01*
X129030967Y-106751190D01*
X128846443Y-106703571D01*
X128757157Y-106655952D01*
X128715491Y-106608333D01*
X128679776Y-106513095D01*
X128691681Y-106417857D01*
X128751205Y-106322619D01*
X128804776Y-106275000D01*
X128905967Y-106227380D01*
X129144062Y-106227380D01*
X129280967Y-106275000D01*
X125798824Y-107972619D02*
X125852395Y-107925000D01*
X125953586Y-107877380D01*
X126191681Y-107877380D01*
X126280967Y-107925000D01*
X126322633Y-107972619D01*
X126358348Y-108067857D01*
X126346443Y-108163095D01*
X126280967Y-108305952D01*
X125638110Y-108877380D01*
X126257157Y-108877380D01*
X127001205Y-107877380D02*
X127096443Y-107877380D01*
X127185729Y-107925000D01*
X127227395Y-107972619D01*
X127263110Y-108067857D01*
X127286919Y-108258333D01*
X127257157Y-108496428D01*
X127185729Y-108686904D01*
X127126205Y-108782142D01*
X127072633Y-108829761D01*
X126971443Y-108877380D01*
X126876205Y-108877380D01*
X126786919Y-108829761D01*
X126745252Y-108782142D01*
X126709538Y-108686904D01*
X126685729Y-108496428D01*
X126715491Y-108258333D01*
X126786919Y-108067857D01*
X126846443Y-107972619D01*
X126900014Y-107925000D01*
X127001205Y-107877380D01*
X127703586Y-107972619D02*
X127757157Y-107925000D01*
X127858348Y-107877380D01*
X128096443Y-107877380D01*
X128185729Y-107925000D01*
X128227395Y-107972619D01*
X128263110Y-108067857D01*
X128251205Y-108163095D01*
X128185729Y-108305952D01*
X127542872Y-108877380D01*
X128161919Y-108877380D01*
X129114300Y-108877380D02*
X128542872Y-108877380D01*
X128828586Y-108877380D02*
X128953586Y-107877380D01*
X128840491Y-108020238D01*
X128733348Y-108115476D01*
X128632157Y-108163095D01*
X125709538Y-145952380D02*
X125834538Y-144952380D01*
X126215491Y-144952380D01*
X126304776Y-145000000D01*
X126346443Y-145047619D01*
X126382157Y-145142857D01*
X126364300Y-145285714D01*
X126304776Y-145380952D01*
X126251205Y-145428571D01*
X126150014Y-145476190D01*
X125769062Y-145476190D01*
X126697633Y-145666666D02*
X127173824Y-145666666D01*
X126566681Y-145952380D02*
X127025014Y-144952380D01*
X127233348Y-145952380D01*
X127566681Y-145952380D02*
X127691681Y-144952380D01*
X128042872Y-145952380D02*
X128167872Y-144952380D01*
X128614300Y-145952380D01*
X128739300Y-144952380D01*
X129072633Y-144952380D02*
X129644062Y-144952380D01*
X129233348Y-145952380D02*
X129358348Y-144952380D01*
X130423824Y-145952380D02*
X130150014Y-145476190D01*
X129852395Y-145952380D02*
X129977395Y-144952380D01*
X130358348Y-144952380D01*
X130447633Y-145000000D01*
X130489300Y-145047619D01*
X130525014Y-145142857D01*
X130507157Y-145285714D01*
X130447633Y-145380952D01*
X130394062Y-145428571D01*
X130292872Y-145476190D01*
X129911919Y-145476190D01*
X130917872Y-145428571D02*
X131251205Y-145428571D01*
X131328586Y-145952380D02*
X130852395Y-145952380D01*
X130977395Y-144952380D01*
X131453586Y-144952380D01*
X132501205Y-144952380D02*
X132709538Y-145952380D01*
X133167872Y-144952380D01*
X133900014Y-145952380D02*
X133328586Y-145952380D01*
X133614300Y-145952380D02*
X133739300Y-144952380D01*
X133626205Y-145095238D01*
X133519062Y-145190476D01*
X133417872Y-145238095D01*
X134376205Y-145571428D02*
X135138110Y-145571428D01*
X134709538Y-145952380D02*
X134804776Y-145190476D01*
X139353553Y-72250000D02*
G75*
G03*
X139353553Y-72250000I-353553J0D01*
G01*
X135250000Y-80500000D02*
G75*
G03*
X135250000Y-80500000I-250000J0D01*
G01*
X129103553Y-139750000D02*
G75*
G03*
X129103553Y-139750000I-353553J0D01*
G01*
X128853553Y-128750000D02*
G75*
G03*
X128853553Y-128750000I-353553J0D01*
G01*
X128853553Y-116750000D02*
G75*
G03*
X128853553Y-116750000I-353553J0D01*
G01*
X137271428Y-93500729D02*
X137223809Y-93637633D01*
X137176190Y-93679300D01*
X137080952Y-93715014D01*
X136938095Y-93697157D01*
X136842857Y-93637633D01*
X136795238Y-93584062D01*
X136747619Y-93482872D01*
X136747619Y-93101919D01*
X137747619Y-93226919D01*
X137747619Y-93560252D01*
X137700000Y-93649538D01*
X137652380Y-93691205D01*
X137557142Y-93726919D01*
X137461904Y-93715014D01*
X137366666Y-93655491D01*
X137319047Y-93601919D01*
X137271428Y-93500729D01*
X137271428Y-93167395D01*
X136747619Y-94101919D02*
X137747619Y-94226919D01*
X136747619Y-94673348D01*
X137747619Y-94798348D01*
X137747619Y-95465014D02*
X137747619Y-95655491D01*
X137700000Y-95744776D01*
X137604761Y-95828110D01*
X137414285Y-95851919D01*
X137080952Y-95810252D01*
X136890476Y-95738824D01*
X136795238Y-95631681D01*
X136747619Y-95530491D01*
X136747619Y-95340014D01*
X136795238Y-95250729D01*
X136890476Y-95167395D01*
X137080952Y-95143586D01*
X137414285Y-95185252D01*
X137604761Y-95256681D01*
X137700000Y-95363824D01*
X137747619Y-95465014D01*
X137747619Y-96512633D02*
X137747619Y-96607872D01*
X137700000Y-96697157D01*
X137652380Y-96738824D01*
X137557142Y-96774538D01*
X137366666Y-96798348D01*
X137128571Y-96768586D01*
X136938095Y-96697157D01*
X136842857Y-96637633D01*
X136795238Y-96584062D01*
X136747619Y-96482872D01*
X136747619Y-96387633D01*
X136795238Y-96298348D01*
X136842857Y-96256681D01*
X136938095Y-96220967D01*
X137128571Y-96197157D01*
X137366666Y-96226919D01*
X137557142Y-96298348D01*
X137652380Y-96357872D01*
X137700000Y-96411443D01*
X137747619Y-96512633D01*
X137319047Y-97363824D02*
X137366666Y-97274538D01*
X137414285Y-97232872D01*
X137509523Y-97197157D01*
X137557142Y-97203110D01*
X137652380Y-97262633D01*
X137700000Y-97316205D01*
X137747619Y-97417395D01*
X137747619Y-97607872D01*
X137700000Y-97697157D01*
X137652380Y-97738824D01*
X137557142Y-97774538D01*
X137509523Y-97768586D01*
X137414285Y-97709062D01*
X137366666Y-97655491D01*
X137319047Y-97554300D01*
X137319047Y-97363824D01*
X137271428Y-97262633D01*
X137223809Y-97209062D01*
X137128571Y-97149538D01*
X136938095Y-97125729D01*
X136842857Y-97161443D01*
X136795238Y-97203110D01*
X136747619Y-97292395D01*
X136747619Y-97482872D01*
X136795238Y-97584062D01*
X136842857Y-97637633D01*
X136938095Y-97697157D01*
X137128571Y-97720967D01*
X137223809Y-97685252D01*
X137271428Y-97643586D01*
X137319047Y-97554300D01*
X137747619Y-98417395D02*
X137747619Y-98512633D01*
X137700000Y-98601919D01*
X137652380Y-98643586D01*
X137557142Y-98679300D01*
X137366666Y-98703110D01*
X137128571Y-98673348D01*
X136938095Y-98601919D01*
X136842857Y-98542395D01*
X136795238Y-98488824D01*
X136747619Y-98387633D01*
X136747619Y-98292395D01*
X136795238Y-98203110D01*
X136842857Y-98161443D01*
X136938095Y-98125729D01*
X137128571Y-98101919D01*
X137366666Y-98131681D01*
X137557142Y-98203110D01*
X137652380Y-98262633D01*
X137700000Y-98316205D01*
X137747619Y-98417395D01*
X132768571Y-104621026D02*
X131268571Y-104433526D01*
X131268571Y-104076383D01*
X131340000Y-103871026D01*
X131482857Y-103746026D01*
X131625714Y-103692455D01*
X131911428Y-103656741D01*
X132125714Y-103683526D01*
X132411428Y-103790669D01*
X132554285Y-103879955D01*
X132697142Y-104040669D01*
X132768571Y-104263883D01*
X132768571Y-104621026D01*
X131982857Y-103022812D02*
X131982857Y-102522812D01*
X132768571Y-102406741D02*
X132768571Y-103121026D01*
X131268571Y-102933526D01*
X131268571Y-102219241D01*
X131982857Y-101165669D02*
X132054285Y-100960312D01*
X132125714Y-100897812D01*
X132268571Y-100844241D01*
X132482857Y-100871026D01*
X132625714Y-100960312D01*
X132697142Y-101040669D01*
X132768571Y-101192455D01*
X132768571Y-101763883D01*
X131268571Y-101576383D01*
X131268571Y-101076383D01*
X131340000Y-100942455D01*
X131411428Y-100879955D01*
X131554285Y-100826383D01*
X131697142Y-100844241D01*
X131840000Y-100933526D01*
X131911428Y-101013883D01*
X131982857Y-101165669D01*
X131982857Y-101665669D01*
X131268571Y-100076383D02*
X132482857Y-100228169D01*
X132625714Y-100174598D01*
X132697142Y-100112098D01*
X132768571Y-99978169D01*
X132768571Y-99692455D01*
X132697142Y-99540669D01*
X132625714Y-99460312D01*
X132482857Y-99371026D01*
X131268571Y-99219241D01*
X131340000Y-97728169D02*
X131268571Y-97862098D01*
X131268571Y-98076383D01*
X131340000Y-98299598D01*
X131482857Y-98460312D01*
X131625714Y-98549598D01*
X131911428Y-98656741D01*
X132125714Y-98683526D01*
X132411428Y-98647812D01*
X132554285Y-98594241D01*
X132697142Y-98469241D01*
X132768571Y-98263883D01*
X132768571Y-98121026D01*
X132697142Y-97897812D01*
X132625714Y-97817455D01*
X132125714Y-97754955D01*
X132125714Y-98040669D01*
X132757142Y-95130669D02*
X132828571Y-94925312D01*
X132828571Y-94568169D01*
X132757142Y-94416383D01*
X132685714Y-94336026D01*
X132542857Y-94246741D01*
X132400000Y-94228883D01*
X132257142Y-94282455D01*
X132185714Y-94344955D01*
X132114285Y-94478883D01*
X132042857Y-94755669D01*
X131971428Y-94889598D01*
X131900000Y-94952098D01*
X131757142Y-95005669D01*
X131614285Y-94987812D01*
X131471428Y-94898526D01*
X131400000Y-94818169D01*
X131328571Y-94666383D01*
X131328571Y-94309241D01*
X131400000Y-94103883D01*
X132828571Y-93639598D02*
X131328571Y-93452098D01*
X131328571Y-92880669D01*
X131400000Y-92746741D01*
X131471428Y-92684241D01*
X131614285Y-92630669D01*
X131828571Y-92657455D01*
X131971428Y-92746741D01*
X132042857Y-92827098D01*
X132114285Y-92978883D01*
X132114285Y-93550312D01*
X132828571Y-92139598D02*
X131328571Y-91952098D01*
D11*
X124500000Y-63650000D02*
X144500000Y-63650000D01*
X124500000Y-147050000D02*
X124500000Y-63650000D01*
X144500000Y-147050000D02*
X124500000Y-147050000D01*
X144500000Y-63650000D02*
X144500000Y-147050000D01*
D12*
X131590000Y-69350000D02*
X131590000Y-71350000D01*
X129450000Y-71350000D02*
X129450000Y-69350000D01*
X132130000Y-75400000D02*
X132130000Y-73400000D01*
X134270000Y-73400000D02*
X134270000Y-75400000D01*
X142200279Y-68010000D02*
X141874721Y-68010000D01*
X142200279Y-66990000D02*
X141874721Y-66990000D01*
X136490000Y-103762779D02*
X136490000Y-103437221D01*
X137510000Y-103762779D02*
X137510000Y-103437221D01*
X142975279Y-101010000D02*
X142649721Y-101010000D01*
X142975279Y-99990000D02*
X142649721Y-99990000D01*
X138100000Y-140120000D02*
X144300000Y-140120000D01*
X141200000Y-109080000D02*
X138100000Y-109080000D01*
X141200000Y-109080000D02*
X144300000Y-109080000D01*
X144300000Y-137420000D02*
X144300000Y-109420000D01*
X138100000Y-137420000D02*
X138100000Y-109420000D01*
X142530000Y-137350000D02*
X139870000Y-137350000D01*
X142530000Y-138620000D02*
X142530000Y-139950000D01*
X142530000Y-139950000D02*
X141200000Y-139950000D01*
X125190000Y-77915580D02*
X125190000Y-77634420D01*
X126210000Y-77915580D02*
X126210000Y-77634420D01*
X133084420Y-136490000D02*
X133365580Y-136490000D01*
X133084420Y-137510000D02*
X133365580Y-137510000D01*
X133084420Y-134890000D02*
X133365580Y-134890000D01*
X133084420Y-135910000D02*
X133365580Y-135910000D01*
X133084420Y-133290000D02*
X133365580Y-133290000D01*
X133084420Y-134310000D02*
X133365580Y-134310000D01*
X129240000Y-135140580D02*
X129240000Y-134859420D01*
X130260000Y-135140580D02*
X130260000Y-134859420D01*
X128890000Y-112340580D02*
X128890000Y-112059420D01*
X129910000Y-112340580D02*
X129910000Y-112059420D01*
X132884420Y-110490000D02*
X133165580Y-110490000D01*
X132884420Y-111510000D02*
X133165580Y-111510000D01*
X132884420Y-107290000D02*
X133165580Y-107290000D01*
X132884420Y-108310000D02*
X133165580Y-108310000D01*
X132884420Y-116890000D02*
X133165580Y-116890000D01*
X132884420Y-117910000D02*
X133165580Y-117910000D01*
X132834420Y-113690000D02*
X133115580Y-113690000D01*
X132834420Y-114710000D02*
X133115580Y-114710000D01*
X132884420Y-108890000D02*
X133165580Y-108890000D01*
X132884420Y-109910000D02*
X133165580Y-109910000D01*
X132884420Y-115290000D02*
X133165580Y-115290000D01*
X132884420Y-116310000D02*
X133165580Y-116310000D01*
X128990000Y-124165580D02*
X128990000Y-123884420D01*
X130010000Y-124165580D02*
X130010000Y-123884420D01*
X133059420Y-142690000D02*
X133340580Y-142690000D01*
X133059420Y-143710000D02*
X133340580Y-143710000D01*
X133059420Y-141090000D02*
X133340580Y-141090000D01*
X133059420Y-142110000D02*
X133340580Y-142110000D01*
X133084420Y-139490000D02*
X133365580Y-139490000D01*
X133084420Y-140510000D02*
X133365580Y-140510000D01*
X132859420Y-123240000D02*
X133140580Y-123240000D01*
X132859420Y-124260000D02*
X133140580Y-124260000D01*
X132884420Y-120090000D02*
X133165580Y-120090000D01*
X132884420Y-121110000D02*
X133165580Y-121110000D01*
X133059420Y-129990000D02*
X133340580Y-129990000D01*
X133059420Y-131010000D02*
X133340580Y-131010000D01*
X131510000Y-75834420D02*
X131510000Y-76115580D01*
X130490000Y-75834420D02*
X130490000Y-76115580D01*
X136010000Y-74559420D02*
X136010000Y-74840580D01*
X134990000Y-74559420D02*
X134990000Y-74840580D01*
X130890000Y-82140580D02*
X130890000Y-81859420D01*
X131910000Y-82140580D02*
X131910000Y-81859420D01*
X144110000Y-86084420D02*
X144110000Y-86365580D01*
X143090000Y-86084420D02*
X143090000Y-86365580D01*
X142684420Y-90390000D02*
X142965580Y-90390000D01*
X142684420Y-91410000D02*
X142965580Y-91410000D01*
X133059420Y-126690000D02*
X133340580Y-126690000D01*
X133059420Y-127710000D02*
X133340580Y-127710000D01*
X132884420Y-121690000D02*
X133165580Y-121690000D01*
X132884420Y-122710000D02*
X133165580Y-122710000D01*
X136365580Y-69560000D02*
X136084420Y-69560000D01*
X136365580Y-68540000D02*
X136084420Y-68540000D01*
X133059420Y-128290000D02*
X133340580Y-128290000D01*
X133059420Y-129310000D02*
X133340580Y-129310000D01*
X139125279Y-68010000D02*
X138799721Y-68010000D01*
X139125279Y-66990000D02*
X138799721Y-66990000D01*
X136490000Y-100662779D02*
X136490000Y-100337221D01*
X137510000Y-100662779D02*
X137510000Y-100337221D01*
X139875279Y-101010000D02*
X139549721Y-101010000D01*
X139875279Y-99990000D02*
X139549721Y-99990000D01*
X124890000Y-115575279D02*
X124890000Y-115249721D01*
X125910000Y-115575279D02*
X125910000Y-115249721D01*
X124890000Y-118650279D02*
X124890000Y-118324721D01*
X125910000Y-118650279D02*
X125910000Y-118324721D01*
X126490000Y-112362779D02*
X126490000Y-112037221D01*
X127510000Y-112362779D02*
X127510000Y-112037221D01*
X124890000Y-112375279D02*
X124890000Y-112049721D01*
X125910000Y-112375279D02*
X125910000Y-112049721D01*
X126390000Y-118662779D02*
X126390000Y-118337221D01*
X127410000Y-118662779D02*
X127410000Y-118337221D01*
X136350279Y-109910000D02*
X136024721Y-109910000D01*
X136350279Y-108890000D02*
X136024721Y-108890000D01*
X136350279Y-108310000D02*
X136024721Y-108310000D01*
X136350279Y-107290000D02*
X136024721Y-107290000D01*
X136362779Y-116310000D02*
X136037221Y-116310000D01*
X136362779Y-115290000D02*
X136037221Y-115290000D01*
X136350279Y-114710000D02*
X136024721Y-114710000D01*
X136350279Y-113690000D02*
X136024721Y-113690000D01*
X136350279Y-111510000D02*
X136024721Y-111510000D01*
X136350279Y-110490000D02*
X136024721Y-110490000D01*
X136037221Y-105690000D02*
X136362779Y-105690000D01*
X136037221Y-106710000D02*
X136362779Y-106710000D01*
X136375279Y-117910000D02*
X136049721Y-117910000D01*
X136375279Y-116890000D02*
X136049721Y-116890000D01*
X136037221Y-112090000D02*
X136362779Y-112090000D01*
X136037221Y-113110000D02*
X136362779Y-113110000D01*
X125910000Y-130137221D02*
X125910000Y-130462779D01*
X124890000Y-130137221D02*
X124890000Y-130462779D01*
X125910000Y-127037221D02*
X125910000Y-127362779D01*
X124890000Y-127037221D02*
X124890000Y-127362779D01*
X136362779Y-143710000D02*
X136037221Y-143710000D01*
X136362779Y-142690000D02*
X136037221Y-142690000D01*
X136362779Y-142110000D02*
X136037221Y-142110000D01*
X136362779Y-141090000D02*
X136037221Y-141090000D01*
X136362779Y-140510000D02*
X136037221Y-140510000D01*
X136362779Y-139490000D02*
X136037221Y-139490000D01*
X136037221Y-137990000D02*
X136362779Y-137990000D01*
X136037221Y-139010000D02*
X136362779Y-139010000D01*
X124840000Y-141162779D02*
X124840000Y-140837221D01*
X125860000Y-141162779D02*
X125860000Y-140837221D01*
X124840000Y-138162779D02*
X124840000Y-137837221D01*
X125860000Y-138162779D02*
X125860000Y-137837221D01*
X126590000Y-135162779D02*
X126590000Y-134837221D01*
X127610000Y-135162779D02*
X127610000Y-134837221D01*
X124840000Y-135162779D02*
X124840000Y-134837221D01*
X125860000Y-135162779D02*
X125860000Y-134837221D01*
X126590000Y-141162779D02*
X126590000Y-140837221D01*
X127610000Y-141162779D02*
X127610000Y-140837221D01*
X136375279Y-137510000D02*
X136049721Y-137510000D01*
X136375279Y-136490000D02*
X136049721Y-136490000D01*
X136362779Y-135910000D02*
X136037221Y-135910000D01*
X136362779Y-134890000D02*
X136037221Y-134890000D01*
X136010000Y-71349721D02*
X136010000Y-71675279D01*
X134990000Y-71349721D02*
X134990000Y-71675279D01*
X136362779Y-134310000D02*
X136037221Y-134310000D01*
X136362779Y-133290000D02*
X136037221Y-133290000D01*
X136037221Y-131790000D02*
X136362779Y-131790000D01*
X136037221Y-132810000D02*
X136362779Y-132810000D01*
X126490000Y-124162779D02*
X126490000Y-123837221D01*
X127510000Y-124162779D02*
X127510000Y-123837221D01*
X124890000Y-124150279D02*
X124890000Y-123824721D01*
X125910000Y-124150279D02*
X125910000Y-123824721D01*
X126490000Y-130462779D02*
X126490000Y-130137221D01*
X127510000Y-130462779D02*
X127510000Y-130137221D01*
X136362779Y-122710000D02*
X136037221Y-122710000D01*
X136362779Y-121690000D02*
X136037221Y-121690000D01*
X136362779Y-121110000D02*
X136037221Y-121110000D01*
X136362779Y-120090000D02*
X136037221Y-120090000D01*
X136362779Y-129310000D02*
X136037221Y-129310000D01*
X136362779Y-128290000D02*
X136037221Y-128290000D01*
X136362779Y-127710000D02*
X136037221Y-127710000D01*
X136362779Y-126690000D02*
X136037221Y-126690000D01*
X136400279Y-124260000D02*
X136074721Y-124260000D01*
X136400279Y-123240000D02*
X136074721Y-123240000D01*
X136024721Y-118490000D02*
X136350279Y-118490000D01*
X136024721Y-119510000D02*
X136350279Y-119510000D01*
X136362779Y-131010000D02*
X136037221Y-131010000D01*
X136362779Y-129990000D02*
X136037221Y-129990000D01*
X136037221Y-125090000D02*
X136362779Y-125090000D01*
X136037221Y-126110000D02*
X136362779Y-126110000D01*
D10*
X128050000Y-118425000D02*
X128050000Y-119500000D01*
X131125000Y-118425000D02*
X131125000Y-115175000D01*
X127875000Y-118425000D02*
X127875000Y-115175000D01*
X131125000Y-118425000D02*
X130850000Y-118425000D01*
X131125000Y-115175000D02*
X130850000Y-115175000D01*
X127875000Y-115175000D02*
X128150000Y-115175000D01*
X127875000Y-118425000D02*
X128050000Y-118425000D01*
X128150000Y-130175000D02*
X128150000Y-131250000D01*
X131225000Y-130175000D02*
X131225000Y-126925000D01*
X127975000Y-130175000D02*
X127975000Y-126925000D01*
X131225000Y-130175000D02*
X130950000Y-130175000D01*
X131225000Y-126925000D02*
X130950000Y-126925000D01*
X127975000Y-126925000D02*
X128250000Y-126925000D01*
X127975000Y-130175000D02*
X128150000Y-130175000D01*
D12*
X139875279Y-91410000D02*
X139549721Y-91410000D01*
X139875279Y-90390000D02*
X139549721Y-90390000D01*
D10*
X128300000Y-141125000D02*
X128300000Y-142200000D01*
X131375000Y-141125000D02*
X131375000Y-137875000D01*
X128125000Y-141125000D02*
X128125000Y-137875000D01*
X131375000Y-141125000D02*
X131100000Y-141125000D01*
X131375000Y-137875000D02*
X131100000Y-137875000D01*
X128125000Y-137875000D02*
X128400000Y-137875000D01*
X128125000Y-141125000D02*
X128300000Y-141125000D01*
D12*
X129950000Y-66210000D02*
X129950000Y-64090000D01*
X129950000Y-66210000D02*
X144010000Y-66210000D01*
X144010000Y-66210000D02*
X144010000Y-64090000D01*
X129950000Y-64090000D02*
X144010000Y-64090000D01*
X127890000Y-64090000D02*
X128950000Y-64090000D01*
X127890000Y-65150000D02*
X127890000Y-64090000D01*
X143060000Y-72050000D02*
X143060000Y-70100000D01*
X143060000Y-72050000D02*
X143060000Y-74000000D01*
X137940000Y-72050000D02*
X137940000Y-70100000D01*
X137940000Y-72050000D02*
X137940000Y-75500000D01*
D10*
X133875000Y-79800000D02*
X132450000Y-79800000D01*
X141125000Y-79575000D02*
X140799999Y-79575000D01*
X141125000Y-86825000D02*
X140799999Y-86825000D01*
X133875000Y-86825000D02*
X134200001Y-86825000D01*
X133875000Y-79575000D02*
X134200001Y-79575000D01*
X133875000Y-86825000D02*
X133875000Y-86499999D01*
X141125000Y-86825000D02*
X141125000Y-86499999D01*
X141125000Y-79575000D02*
X141125000Y-79900001D01*
X133875000Y-79575000D02*
X133875000Y-79800000D01*
D12*
X130237500Y-90900000D02*
G75*
G03*
X130237500Y-90900000I-250000J0D01*
G01*
X125162500Y-91500000D02*
X125162500Y-95300000D01*
X127062500Y-90400000D02*
X129412500Y-90400000D01*
X129412500Y-90400000D02*
X129412500Y-91300000D01*
X129412500Y-90900000D02*
X128212500Y-90900000D01*
X128212500Y-90900000D02*
X128212500Y-90900000D01*
X128212500Y-90900000D02*
X129412500Y-90900000D01*
X129412500Y-90900000D02*
X129412500Y-90900000D01*
X128912500Y-90900000D02*
X128912500Y-90900000D01*
X128912500Y-90900000D02*
X128912500Y-90400000D01*
X128912500Y-90400000D02*
X128912500Y-90400000D01*
X128912500Y-90400000D02*
X128912500Y-90900000D01*
X128212500Y-90900000D02*
X128212500Y-90900000D01*
X128212500Y-90900000D02*
X128212500Y-90400000D01*
X128212500Y-90400000D02*
X128212500Y-90400000D01*
X128212500Y-90400000D02*
X128212500Y-90900000D01*
X127062500Y-96400000D02*
X129412500Y-96400000D01*
X129412500Y-96400000D02*
X129412500Y-95500000D01*
X129412500Y-95900000D02*
X128212500Y-95900000D01*
X128212500Y-95900000D02*
X128212500Y-95900000D01*
X128212500Y-95900000D02*
X129412500Y-95900000D01*
X129412500Y-95900000D02*
X129412500Y-95900000D01*
X128912500Y-95900000D02*
X128912500Y-95900000D01*
X128912500Y-95900000D02*
X128912500Y-96400000D01*
X128912500Y-96400000D02*
X128912500Y-96400000D01*
X128912500Y-96400000D02*
X128912500Y-95900000D01*
X128212500Y-95900000D02*
X128212500Y-95900000D01*
X128212500Y-95900000D02*
X128212500Y-96400000D01*
X128212500Y-96400000D02*
X128212500Y-96400000D01*
X128212500Y-96400000D02*
X128212500Y-95900000D01*
X128212500Y-104300000D02*
X128212500Y-103800000D01*
X128212500Y-104300000D02*
X128212500Y-104300000D01*
X128212500Y-103800000D02*
X128212500Y-104300000D01*
X128212500Y-103800000D02*
X128212500Y-103800000D01*
X128912500Y-104300000D02*
X128912500Y-103800000D01*
X128912500Y-104300000D02*
X128912500Y-104300000D01*
X128912500Y-103800000D02*
X128912500Y-104300000D01*
X128912500Y-103800000D02*
X128912500Y-103800000D01*
X129412500Y-103800000D02*
X129412500Y-103800000D01*
X128212500Y-103800000D02*
X129412500Y-103800000D01*
X128212500Y-103800000D02*
X128212500Y-103800000D01*
X129412500Y-103800000D02*
X128212500Y-103800000D01*
X129412500Y-104300000D02*
X129412500Y-103400000D01*
X127062500Y-104300000D02*
X129412500Y-104300000D01*
X128212500Y-98300000D02*
X128212500Y-98800000D01*
X128212500Y-98300000D02*
X128212500Y-98300000D01*
X128212500Y-98800000D02*
X128212500Y-98300000D01*
X128212500Y-98800000D02*
X128212500Y-98800000D01*
X128912500Y-98300000D02*
X128912500Y-98800000D01*
X128912500Y-98300000D02*
X128912500Y-98300000D01*
X128912500Y-98800000D02*
X128912500Y-98300000D01*
X128912500Y-98800000D02*
X128912500Y-98800000D01*
X129412500Y-98800000D02*
X129412500Y-98800000D01*
X128212500Y-98800000D02*
X129412500Y-98800000D01*
X128212500Y-98800000D02*
X128212500Y-98800000D01*
X129412500Y-98800000D02*
X128212500Y-98800000D01*
X129412500Y-98300000D02*
X129412500Y-99200000D01*
X127062500Y-98300000D02*
X129412500Y-98300000D01*
X125162500Y-99400000D02*
X125162500Y-103200000D01*
X130237500Y-98800000D02*
G75*
G03*
X130237500Y-98800000I-250000J0D01*
G01*
X139162500Y-98200000D02*
G75*
G03*
X139162500Y-98200000I-250000J0D01*
G01*
X143737500Y-97600000D02*
X143737500Y-93800000D01*
X141837500Y-98700000D02*
X139487500Y-98700000D01*
X139487500Y-98700000D02*
X139487500Y-97800000D01*
X139487500Y-98200000D02*
X140687500Y-98200000D01*
X140687500Y-98200000D02*
X140687500Y-98200000D01*
X140687500Y-98200000D02*
X139487500Y-98200000D01*
X139487500Y-98200000D02*
X139487500Y-98200000D01*
X139987500Y-98200000D02*
X139987500Y-98200000D01*
X139987500Y-98200000D02*
X139987500Y-98700000D01*
X139987500Y-98700000D02*
X139987500Y-98700000D01*
X139987500Y-98700000D02*
X139987500Y-98200000D01*
X140687500Y-98200000D02*
X140687500Y-98200000D01*
X140687500Y-98200000D02*
X140687500Y-98700000D01*
X140687500Y-98700000D02*
X140687500Y-98700000D01*
X140687500Y-98700000D02*
X140687500Y-98200000D01*
X141837500Y-92700000D02*
X139487500Y-92700000D01*
X139487500Y-92700000D02*
X139487500Y-93600000D01*
X139487500Y-93200000D02*
X140687500Y-93200000D01*
X140687500Y-93200000D02*
X140687500Y-93200000D01*
X140687500Y-93200000D02*
X139487500Y-93200000D01*
X139487500Y-93200000D02*
X139487500Y-93200000D01*
X139987500Y-93200000D02*
X139987500Y-93200000D01*
X139987500Y-93200000D02*
X139987500Y-92700000D01*
X139987500Y-92700000D02*
X139987500Y-92700000D01*
X139987500Y-92700000D02*
X139987500Y-93200000D01*
X140687500Y-93200000D02*
X140687500Y-93200000D01*
X140687500Y-93200000D02*
X140687500Y-92700000D01*
X140687500Y-92700000D02*
X140687500Y-92700000D01*
X140687500Y-92700000D02*
X140687500Y-93200000D01*
X127520000Y-83800000D02*
X127520000Y-81800000D01*
X125480000Y-81800000D02*
X125480000Y-83800000D01*
X129920000Y-83800000D02*
X129920000Y-81800000D01*
X127880000Y-81800000D02*
X127880000Y-83800000D01*
X125620000Y-71450000D02*
X125620000Y-69990000D01*
X128780000Y-71450000D02*
X128780000Y-69290000D01*
X128780000Y-71450000D02*
X127850000Y-71450000D01*
X125620000Y-71450000D02*
X126550000Y-71450000D01*
D10*
X131200000Y-88000000D02*
X130550000Y-88000000D01*
X131850000Y-88000000D02*
X131200000Y-88000000D01*
X131850000Y-88000000D02*
X131850000Y-84800000D01*
X131850000Y-84800000D02*
X131200000Y-84800000D01*
X131200000Y-84800000D02*
X130550000Y-84800000D01*
X130550000Y-88000000D02*
X130550000Y-84800000D01*
D12*
X126740000Y-75950000D02*
X126740000Y-77750000D01*
X129960000Y-77750000D02*
X129960000Y-75300000D01*
D13*
X129726190Y-70752380D02*
X129726190Y-69752380D01*
X129726190Y-70133333D02*
X129773809Y-70085714D01*
X129869047Y-70085714D01*
X129916666Y-70133333D01*
X129940476Y-70180952D01*
X129964285Y-70276190D01*
X129964285Y-70561904D01*
X129940476Y-70657142D01*
X129916666Y-70704761D01*
X129869047Y-70752380D01*
X129773809Y-70752380D01*
X129726190Y-70704761D01*
X130369047Y-70704761D02*
X130321428Y-70752380D01*
X130226190Y-70752380D01*
X130178571Y-70704761D01*
X130154761Y-70609523D01*
X130154761Y-70228571D01*
X130178571Y-70133333D01*
X130226190Y-70085714D01*
X130321428Y-70085714D01*
X130369047Y-70133333D01*
X130392857Y-70228571D01*
X130392857Y-70323809D01*
X130154761Y-70419047D01*
X130821428Y-70752380D02*
X130821428Y-70228571D01*
X130797619Y-70133333D01*
X130750000Y-70085714D01*
X130654761Y-70085714D01*
X130607142Y-70133333D01*
X130821428Y-70704761D02*
X130773809Y-70752380D01*
X130654761Y-70752380D01*
X130607142Y-70704761D01*
X130583333Y-70609523D01*
X130583333Y-70514285D01*
X130607142Y-70419047D01*
X130654761Y-70371428D01*
X130773809Y-70371428D01*
X130821428Y-70323809D01*
X131273809Y-70752380D02*
X131273809Y-69752380D01*
X131273809Y-70704761D02*
X131226190Y-70752380D01*
X131130952Y-70752380D01*
X131083333Y-70704761D01*
X131059523Y-70657142D01*
X131035714Y-70561904D01*
X131035714Y-70276190D01*
X131059523Y-70180952D01*
X131083333Y-70133333D01*
X131130952Y-70085714D01*
X131226190Y-70085714D01*
X131273809Y-70133333D01*
X132426190Y-74850576D02*
X132426190Y-73850576D01*
X132426190Y-74231529D02*
X132473809Y-74183910D01*
X132569047Y-74183910D01*
X132616666Y-74231529D01*
X132640476Y-74279148D01*
X132664285Y-74374386D01*
X132664285Y-74660100D01*
X132640476Y-74755338D01*
X132616666Y-74802957D01*
X132569047Y-74850576D01*
X132473809Y-74850576D01*
X132426190Y-74802957D01*
X133069047Y-74802957D02*
X133021428Y-74850576D01*
X132926190Y-74850576D01*
X132878571Y-74802957D01*
X132854761Y-74707719D01*
X132854761Y-74326767D01*
X132878571Y-74231529D01*
X132926190Y-74183910D01*
X133021428Y-74183910D01*
X133069047Y-74231529D01*
X133092857Y-74326767D01*
X133092857Y-74422005D01*
X132854761Y-74517243D01*
X133521428Y-74850576D02*
X133521428Y-74326767D01*
X133497619Y-74231529D01*
X133450000Y-74183910D01*
X133354761Y-74183910D01*
X133307142Y-74231529D01*
X133521428Y-74802957D02*
X133473809Y-74850576D01*
X133354761Y-74850576D01*
X133307142Y-74802957D01*
X133283333Y-74707719D01*
X133283333Y-74612481D01*
X133307142Y-74517243D01*
X133354761Y-74469624D01*
X133473809Y-74469624D01*
X133521428Y-74422005D01*
X133973809Y-74850576D02*
X133973809Y-73850576D01*
X133973809Y-74802957D02*
X133926190Y-74850576D01*
X133830952Y-74850576D01*
X133783333Y-74802957D01*
X133759523Y-74755338D01*
X133735714Y-74660100D01*
X133735714Y-74374386D01*
X133759523Y-74279148D01*
X133783333Y-74231529D01*
X133830952Y-74183910D01*
X133926190Y-74183910D01*
X133973809Y-74231529D01*
D10*
X137246666Y-90918571D02*
X136913333Y-90918571D01*
X136913333Y-91442380D02*
X136913333Y-90442380D01*
X137389523Y-90442380D01*
X138294285Y-91442380D02*
X137722857Y-91442380D01*
X138008571Y-91442380D02*
X138008571Y-90442380D01*
X137913333Y-90585238D01*
X137818095Y-90680476D01*
X137722857Y-90728095D01*
X140082380Y-72831904D02*
X140891904Y-72831904D01*
X140987142Y-72784285D01*
X141034761Y-72736666D01*
X141082380Y-72641428D01*
X141082380Y-72450952D01*
X141034761Y-72355714D01*
X140987142Y-72308095D01*
X140891904Y-72260476D01*
X140082380Y-72260476D01*
X140177619Y-71831904D02*
X140130000Y-71784285D01*
X140082380Y-71689047D01*
X140082380Y-71450952D01*
X140130000Y-71355714D01*
X140177619Y-71308095D01*
X140272857Y-71260476D01*
X140368095Y-71260476D01*
X140510952Y-71308095D01*
X141082380Y-71879523D01*
X141082380Y-71260476D01*
X126760714Y-82918333D02*
X126795476Y-82952142D01*
X126830238Y-83053571D01*
X126830238Y-83121190D01*
X126795476Y-83222619D01*
X126725952Y-83290238D01*
X126656428Y-83324047D01*
X126517380Y-83357857D01*
X126413095Y-83357857D01*
X126274047Y-83324047D01*
X126204523Y-83290238D01*
X126135000Y-83222619D01*
X126100238Y-83121190D01*
X126100238Y-83053571D01*
X126135000Y-82952142D01*
X126169761Y-82918333D01*
X126100238Y-82681666D02*
X126100238Y-82208333D01*
X126830238Y-82512619D01*
X129160714Y-82918333D02*
X129195476Y-82952142D01*
X129230238Y-83053571D01*
X129230238Y-83121190D01*
X129195476Y-83222619D01*
X129125952Y-83290238D01*
X129056428Y-83324047D01*
X128917380Y-83357857D01*
X128813095Y-83357857D01*
X128674047Y-83324047D01*
X128604523Y-83290238D01*
X128535000Y-83222619D01*
X128500238Y-83121190D01*
X128500238Y-83053571D01*
X128535000Y-82952142D01*
X128569761Y-82918333D01*
X128500238Y-82309761D02*
X128500238Y-82445000D01*
X128535000Y-82512619D01*
X128569761Y-82546428D01*
X128674047Y-82614047D01*
X128813095Y-82647857D01*
X129091190Y-82647857D01*
X129160714Y-82614047D01*
X129195476Y-82580238D01*
X129230238Y-82512619D01*
X129230238Y-82377380D01*
X129195476Y-82309761D01*
X129160714Y-82275952D01*
X129091190Y-82242142D01*
X128917380Y-82242142D01*
X128847857Y-82275952D01*
X128813095Y-82309761D01*
X128778333Y-82377380D01*
X128778333Y-82512619D01*
X128813095Y-82580238D01*
X128847857Y-82614047D01*
X128917380Y-82647857D01*
M02*
