M48
; DRILL file {KiCad (5.1.9-0-10_14)} date Thursday, January 28, 2021 at 12:41:20 PM
; FORMAT={2:4/ absolute / inch / suppress leading zeros}
; #@! TF.CreationDate,2021-01-28T12:41:20+01:00
; #@! TF.GenerationSoftware,Kicad,Pcbnew,(5.1.9-0-10_14)
FMAT,2
INCH,TZ
T1C0.0157
T2C0.0315
T3C0.0394
T4C0.1260
%
G90
G05
T1
X49350Y-52461
X49358Y-36287
X49370Y-43465
X49370Y-48110
X49488Y-45183
X49488Y-29882
X49685Y-26260
X49685Y-52126
X49713Y-56299
X49764Y-34921
X49764Y-50197
X49793Y-54178
X49803Y-34055
X49988Y-37079
X50020Y-50496
X50089Y-45802
X50146Y-54741
X50276Y-31457
X50276Y-31811
X50276Y-32165
X50295Y-45311
X50472Y-35236
X50472Y-36575
X50472Y-48504
X50530Y-30645
X50534Y-30283
X50538Y-31015
X50551Y-52835
X50630Y-34055
X50634Y-43421
X50843Y-34657
X50906Y-31260
X51063Y-34094
X51140Y-47283
X51140Y-51964
X51151Y-56207
X51260Y-30945
X51339Y-43858
X51339Y-48504
X51348Y-44415
X51368Y-52844
X51388Y-49134
X51457Y-30591
X51476Y-53445
X51614Y-40472
X51654Y-39291
X51732Y-31614
X51772Y-42441
X52126Y-28110
X52165Y-54724
X52244Y-44646
X52244Y-47126
X52244Y-52323
X52283Y-26378
X52283Y-26969
X52323Y-49724
X52480Y-28110
X52559Y-44055
X52559Y-46614
X52559Y-49094
X52559Y-54370
X52598Y-51693
X52835Y-26378
X52835Y-26969
X52835Y-27520
X52835Y-28110
X52953Y-41850
X52953Y-44331
X52953Y-46850
X52953Y-49449
X52953Y-52087
X52953Y-54528
X53051Y-56594
X53297Y-30433
X53346Y-40079
X53346Y-26378
X53346Y-26850
X53346Y-39528
X53504Y-41102
X53583Y-28819
X53678Y-29630
X53691Y-30433
X53937Y-27598
X54016Y-30118
X54094Y-38071
X54301Y-36491
X54327Y-30561
X54331Y-38465
X54606Y-38780
X54694Y-30418
X55197Y-30354
X55669Y-35354
X56024Y-34252
X56457Y-31654
X56491Y-32515
X56496Y-27362
X56496Y-32953
X56535Y-34685
X56535Y-35354
X56575Y-40039
T2
X50768Y-25650
X51555Y-25650
X52343Y-25650
X53130Y-25650
X53917Y-25650
X54705Y-25650
X55492Y-25650
X56280Y-25650
T3
X55591Y-43575
X55591Y-44575
X55591Y-45575
X55591Y-46575
X55591Y-47575
X55591Y-48575
X55591Y-49575
X55591Y-50575
X55591Y-51575
X55591Y-52575
X55591Y-53575
X55591Y-54575
T4
X55709Y-41437
X55709Y-56693
T0
M30
