G04 #@! TF.GenerationSoftware,KiCad,Pcbnew,(5.1.9-0-10_14)*
G04 #@! TF.CreationDate,2021-01-28T12:41:14+01:00*
G04 #@! TF.ProjectId,instrumnet,696e7374-7275-46d6-9e65-742e6b696361,rev?*
G04 #@! TF.SameCoordinates,Original*
G04 #@! TF.FileFunction,Soldermask,Top*
G04 #@! TF.FilePolarity,Negative*
%FSLAX46Y46*%
G04 Gerber Fmt 4.6, Leading zero omitted, Abs format (unit mm)*
G04 Created by KiCad (PCBNEW (5.1.9-0-10_14)) date 2021-01-28 12:41:14*
%MOMM*%
%LPD*%
G01*
G04 APERTURE LIST*
G04 #@! TA.AperFunction,Profile*
%ADD10C,0.150000*%
G04 #@! TD*
%ADD11R,1.600000X1.800000*%
%ADD12O,1.700000X1.700000*%
%ADD13R,1.700000X1.700000*%
%ADD14R,0.250000X1.100000*%
%ADD15C,3.200000*%
%ADD16O,1.350000X1.350000*%
%ADD17R,1.350000X1.350000*%
%ADD18R,0.550000X1.600000*%
%ADD19R,1.600000X0.550000*%
%ADD20R,1.550000X0.600000*%
%ADD21R,1.800000X1.200000*%
%ADD22R,1.600000X2.000000*%
%ADD23R,2.000000X2.000000*%
%ADD24R,1.200000X3.000000*%
%ADD25R,1.500000X0.500000*%
%ADD26R,0.650000X1.560000*%
G04 APERTURE END LIST*
D10*
X124500000Y-63650000D02*
X144500000Y-63650000D01*
X124500000Y-147050000D02*
X124500000Y-63650000D01*
X144500000Y-147050000D02*
X124500000Y-147050000D01*
X144500000Y-63650000D02*
X144500000Y-147050000D01*
D11*
X130520000Y-68950000D03*
X130520000Y-71750000D03*
X133200000Y-75800000D03*
X133200000Y-73000000D03*
G36*
G01*
X143262500Y-67243750D02*
X143262500Y-67756250D01*
G75*
G02*
X143043750Y-67975000I-218750J0D01*
G01*
X142606250Y-67975000D01*
G75*
G02*
X142387500Y-67756250I0J218750D01*
G01*
X142387500Y-67243750D01*
G75*
G02*
X142606250Y-67025000I218750J0D01*
G01*
X143043750Y-67025000D01*
G75*
G02*
X143262500Y-67243750I0J-218750D01*
G01*
G37*
G36*
G01*
X141687500Y-67243750D02*
X141687500Y-67756250D01*
G75*
G02*
X141468750Y-67975000I-218750J0D01*
G01*
X141031250Y-67975000D01*
G75*
G02*
X140812500Y-67756250I0J218750D01*
G01*
X140812500Y-67243750D01*
G75*
G02*
X141031250Y-67025000I218750J0D01*
G01*
X141468750Y-67025000D01*
G75*
G02*
X141687500Y-67243750I0J-218750D01*
G01*
G37*
G36*
G01*
X137256250Y-104825000D02*
X136743750Y-104825000D01*
G75*
G02*
X136525000Y-104606250I0J218750D01*
G01*
X136525000Y-104168750D01*
G75*
G02*
X136743750Y-103950000I218750J0D01*
G01*
X137256250Y-103950000D01*
G75*
G02*
X137475000Y-104168750I0J-218750D01*
G01*
X137475000Y-104606250D01*
G75*
G02*
X137256250Y-104825000I-218750J0D01*
G01*
G37*
G36*
G01*
X137256250Y-103250000D02*
X136743750Y-103250000D01*
G75*
G02*
X136525000Y-103031250I0J218750D01*
G01*
X136525000Y-102593750D01*
G75*
G02*
X136743750Y-102375000I218750J0D01*
G01*
X137256250Y-102375000D01*
G75*
G02*
X137475000Y-102593750I0J-218750D01*
G01*
X137475000Y-103031250D01*
G75*
G02*
X137256250Y-103250000I-218750J0D01*
G01*
G37*
G36*
G01*
X144037500Y-100243750D02*
X144037500Y-100756250D01*
G75*
G02*
X143818750Y-100975000I-218750J0D01*
G01*
X143381250Y-100975000D01*
G75*
G02*
X143162500Y-100756250I0J218750D01*
G01*
X143162500Y-100243750D01*
G75*
G02*
X143381250Y-100025000I218750J0D01*
G01*
X143818750Y-100025000D01*
G75*
G02*
X144037500Y-100243750I0J-218750D01*
G01*
G37*
G36*
G01*
X142462500Y-100243750D02*
X142462500Y-100756250D01*
G75*
G02*
X142243750Y-100975000I-218750J0D01*
G01*
X141806250Y-100975000D01*
G75*
G02*
X141587500Y-100756250I0J218750D01*
G01*
X141587500Y-100243750D01*
G75*
G02*
X141806250Y-100025000I218750J0D01*
G01*
X142243750Y-100025000D01*
G75*
G02*
X142462500Y-100243750I0J-218750D01*
G01*
G37*
D12*
X141200000Y-110680000D03*
X141200000Y-113220000D03*
X141200000Y-115760000D03*
X141200000Y-118300000D03*
X141200000Y-120840000D03*
X141200000Y-123380000D03*
X141200000Y-125920000D03*
X141200000Y-128460000D03*
X141200000Y-131000000D03*
X141200000Y-133540000D03*
X141200000Y-136080000D03*
D13*
X141200000Y-138620000D03*
G36*
G01*
X125950000Y-79000000D02*
X125450000Y-79000000D01*
G75*
G02*
X125225000Y-78775000I0J225000D01*
G01*
X125225000Y-78325000D01*
G75*
G02*
X125450000Y-78100000I225000J0D01*
G01*
X125950000Y-78100000D01*
G75*
G02*
X126175000Y-78325000I0J-225000D01*
G01*
X126175000Y-78775000D01*
G75*
G02*
X125950000Y-79000000I-225000J0D01*
G01*
G37*
G36*
G01*
X125950000Y-77450000D02*
X125450000Y-77450000D01*
G75*
G02*
X125225000Y-77225000I0J225000D01*
G01*
X125225000Y-76775000D01*
G75*
G02*
X125450000Y-76550000I225000J0D01*
G01*
X125950000Y-76550000D01*
G75*
G02*
X126175000Y-76775000I0J-225000D01*
G01*
X126175000Y-77225000D01*
G75*
G02*
X125950000Y-77450000I-225000J0D01*
G01*
G37*
G36*
G01*
X132000000Y-137250000D02*
X132000000Y-136750000D01*
G75*
G02*
X132225000Y-136525000I225000J0D01*
G01*
X132675000Y-136525000D01*
G75*
G02*
X132900000Y-136750000I0J-225000D01*
G01*
X132900000Y-137250000D01*
G75*
G02*
X132675000Y-137475000I-225000J0D01*
G01*
X132225000Y-137475000D01*
G75*
G02*
X132000000Y-137250000I0J225000D01*
G01*
G37*
G36*
G01*
X133550000Y-137250000D02*
X133550000Y-136750000D01*
G75*
G02*
X133775000Y-136525000I225000J0D01*
G01*
X134225000Y-136525000D01*
G75*
G02*
X134450000Y-136750000I0J-225000D01*
G01*
X134450000Y-137250000D01*
G75*
G02*
X134225000Y-137475000I-225000J0D01*
G01*
X133775000Y-137475000D01*
G75*
G02*
X133550000Y-137250000I0J225000D01*
G01*
G37*
G36*
G01*
X132000000Y-135650000D02*
X132000000Y-135150000D01*
G75*
G02*
X132225000Y-134925000I225000J0D01*
G01*
X132675000Y-134925000D01*
G75*
G02*
X132900000Y-135150000I0J-225000D01*
G01*
X132900000Y-135650000D01*
G75*
G02*
X132675000Y-135875000I-225000J0D01*
G01*
X132225000Y-135875000D01*
G75*
G02*
X132000000Y-135650000I0J225000D01*
G01*
G37*
G36*
G01*
X133550000Y-135650000D02*
X133550000Y-135150000D01*
G75*
G02*
X133775000Y-134925000I225000J0D01*
G01*
X134225000Y-134925000D01*
G75*
G02*
X134450000Y-135150000I0J-225000D01*
G01*
X134450000Y-135650000D01*
G75*
G02*
X134225000Y-135875000I-225000J0D01*
G01*
X133775000Y-135875000D01*
G75*
G02*
X133550000Y-135650000I0J225000D01*
G01*
G37*
G36*
G01*
X132000000Y-134050000D02*
X132000000Y-133550000D01*
G75*
G02*
X132225000Y-133325000I225000J0D01*
G01*
X132675000Y-133325000D01*
G75*
G02*
X132900000Y-133550000I0J-225000D01*
G01*
X132900000Y-134050000D01*
G75*
G02*
X132675000Y-134275000I-225000J0D01*
G01*
X132225000Y-134275000D01*
G75*
G02*
X132000000Y-134050000I0J225000D01*
G01*
G37*
G36*
G01*
X133550000Y-134050000D02*
X133550000Y-133550000D01*
G75*
G02*
X133775000Y-133325000I225000J0D01*
G01*
X134225000Y-133325000D01*
G75*
G02*
X134450000Y-133550000I0J-225000D01*
G01*
X134450000Y-134050000D01*
G75*
G02*
X134225000Y-134275000I-225000J0D01*
G01*
X133775000Y-134275000D01*
G75*
G02*
X133550000Y-134050000I0J225000D01*
G01*
G37*
G36*
G01*
X130000000Y-136225000D02*
X129500000Y-136225000D01*
G75*
G02*
X129275000Y-136000000I0J225000D01*
G01*
X129275000Y-135550000D01*
G75*
G02*
X129500000Y-135325000I225000J0D01*
G01*
X130000000Y-135325000D01*
G75*
G02*
X130225000Y-135550000I0J-225000D01*
G01*
X130225000Y-136000000D01*
G75*
G02*
X130000000Y-136225000I-225000J0D01*
G01*
G37*
G36*
G01*
X130000000Y-134675000D02*
X129500000Y-134675000D01*
G75*
G02*
X129275000Y-134450000I0J225000D01*
G01*
X129275000Y-134000000D01*
G75*
G02*
X129500000Y-133775000I225000J0D01*
G01*
X130000000Y-133775000D01*
G75*
G02*
X130225000Y-134000000I0J-225000D01*
G01*
X130225000Y-134450000D01*
G75*
G02*
X130000000Y-134675000I-225000J0D01*
G01*
G37*
G36*
G01*
X129650000Y-113425000D02*
X129150000Y-113425000D01*
G75*
G02*
X128925000Y-113200000I0J225000D01*
G01*
X128925000Y-112750000D01*
G75*
G02*
X129150000Y-112525000I225000J0D01*
G01*
X129650000Y-112525000D01*
G75*
G02*
X129875000Y-112750000I0J-225000D01*
G01*
X129875000Y-113200000D01*
G75*
G02*
X129650000Y-113425000I-225000J0D01*
G01*
G37*
G36*
G01*
X129650000Y-111875000D02*
X129150000Y-111875000D01*
G75*
G02*
X128925000Y-111650000I0J225000D01*
G01*
X128925000Y-111200000D01*
G75*
G02*
X129150000Y-110975000I225000J0D01*
G01*
X129650000Y-110975000D01*
G75*
G02*
X129875000Y-111200000I0J-225000D01*
G01*
X129875000Y-111650000D01*
G75*
G02*
X129650000Y-111875000I-225000J0D01*
G01*
G37*
G36*
G01*
X131800000Y-111250000D02*
X131800000Y-110750000D01*
G75*
G02*
X132025000Y-110525000I225000J0D01*
G01*
X132475000Y-110525000D01*
G75*
G02*
X132700000Y-110750000I0J-225000D01*
G01*
X132700000Y-111250000D01*
G75*
G02*
X132475000Y-111475000I-225000J0D01*
G01*
X132025000Y-111475000D01*
G75*
G02*
X131800000Y-111250000I0J225000D01*
G01*
G37*
G36*
G01*
X133350000Y-111250000D02*
X133350000Y-110750000D01*
G75*
G02*
X133575000Y-110525000I225000J0D01*
G01*
X134025000Y-110525000D01*
G75*
G02*
X134250000Y-110750000I0J-225000D01*
G01*
X134250000Y-111250000D01*
G75*
G02*
X134025000Y-111475000I-225000J0D01*
G01*
X133575000Y-111475000D01*
G75*
G02*
X133350000Y-111250000I0J225000D01*
G01*
G37*
G36*
G01*
X131800000Y-108050000D02*
X131800000Y-107550000D01*
G75*
G02*
X132025000Y-107325000I225000J0D01*
G01*
X132475000Y-107325000D01*
G75*
G02*
X132700000Y-107550000I0J-225000D01*
G01*
X132700000Y-108050000D01*
G75*
G02*
X132475000Y-108275000I-225000J0D01*
G01*
X132025000Y-108275000D01*
G75*
G02*
X131800000Y-108050000I0J225000D01*
G01*
G37*
G36*
G01*
X133350000Y-108050000D02*
X133350000Y-107550000D01*
G75*
G02*
X133575000Y-107325000I225000J0D01*
G01*
X134025000Y-107325000D01*
G75*
G02*
X134250000Y-107550000I0J-225000D01*
G01*
X134250000Y-108050000D01*
G75*
G02*
X134025000Y-108275000I-225000J0D01*
G01*
X133575000Y-108275000D01*
G75*
G02*
X133350000Y-108050000I0J225000D01*
G01*
G37*
G36*
G01*
X131800000Y-117650000D02*
X131800000Y-117150000D01*
G75*
G02*
X132025000Y-116925000I225000J0D01*
G01*
X132475000Y-116925000D01*
G75*
G02*
X132700000Y-117150000I0J-225000D01*
G01*
X132700000Y-117650000D01*
G75*
G02*
X132475000Y-117875000I-225000J0D01*
G01*
X132025000Y-117875000D01*
G75*
G02*
X131800000Y-117650000I0J225000D01*
G01*
G37*
G36*
G01*
X133350000Y-117650000D02*
X133350000Y-117150000D01*
G75*
G02*
X133575000Y-116925000I225000J0D01*
G01*
X134025000Y-116925000D01*
G75*
G02*
X134250000Y-117150000I0J-225000D01*
G01*
X134250000Y-117650000D01*
G75*
G02*
X134025000Y-117875000I-225000J0D01*
G01*
X133575000Y-117875000D01*
G75*
G02*
X133350000Y-117650000I0J225000D01*
G01*
G37*
G36*
G01*
X131750000Y-114450000D02*
X131750000Y-113950000D01*
G75*
G02*
X131975000Y-113725000I225000J0D01*
G01*
X132425000Y-113725000D01*
G75*
G02*
X132650000Y-113950000I0J-225000D01*
G01*
X132650000Y-114450000D01*
G75*
G02*
X132425000Y-114675000I-225000J0D01*
G01*
X131975000Y-114675000D01*
G75*
G02*
X131750000Y-114450000I0J225000D01*
G01*
G37*
G36*
G01*
X133300000Y-114450000D02*
X133300000Y-113950000D01*
G75*
G02*
X133525000Y-113725000I225000J0D01*
G01*
X133975000Y-113725000D01*
G75*
G02*
X134200000Y-113950000I0J-225000D01*
G01*
X134200000Y-114450000D01*
G75*
G02*
X133975000Y-114675000I-225000J0D01*
G01*
X133525000Y-114675000D01*
G75*
G02*
X133300000Y-114450000I0J225000D01*
G01*
G37*
G36*
G01*
X131800000Y-109650000D02*
X131800000Y-109150000D01*
G75*
G02*
X132025000Y-108925000I225000J0D01*
G01*
X132475000Y-108925000D01*
G75*
G02*
X132700000Y-109150000I0J-225000D01*
G01*
X132700000Y-109650000D01*
G75*
G02*
X132475000Y-109875000I-225000J0D01*
G01*
X132025000Y-109875000D01*
G75*
G02*
X131800000Y-109650000I0J225000D01*
G01*
G37*
G36*
G01*
X133350000Y-109650000D02*
X133350000Y-109150000D01*
G75*
G02*
X133575000Y-108925000I225000J0D01*
G01*
X134025000Y-108925000D01*
G75*
G02*
X134250000Y-109150000I0J-225000D01*
G01*
X134250000Y-109650000D01*
G75*
G02*
X134025000Y-109875000I-225000J0D01*
G01*
X133575000Y-109875000D01*
G75*
G02*
X133350000Y-109650000I0J225000D01*
G01*
G37*
G36*
G01*
X131800000Y-116050000D02*
X131800000Y-115550000D01*
G75*
G02*
X132025000Y-115325000I225000J0D01*
G01*
X132475000Y-115325000D01*
G75*
G02*
X132700000Y-115550000I0J-225000D01*
G01*
X132700000Y-116050000D01*
G75*
G02*
X132475000Y-116275000I-225000J0D01*
G01*
X132025000Y-116275000D01*
G75*
G02*
X131800000Y-116050000I0J225000D01*
G01*
G37*
G36*
G01*
X133350000Y-116050000D02*
X133350000Y-115550000D01*
G75*
G02*
X133575000Y-115325000I225000J0D01*
G01*
X134025000Y-115325000D01*
G75*
G02*
X134250000Y-115550000I0J-225000D01*
G01*
X134250000Y-116050000D01*
G75*
G02*
X134025000Y-116275000I-225000J0D01*
G01*
X133575000Y-116275000D01*
G75*
G02*
X133350000Y-116050000I0J225000D01*
G01*
G37*
G36*
G01*
X129750000Y-125250000D02*
X129250000Y-125250000D01*
G75*
G02*
X129025000Y-125025000I0J225000D01*
G01*
X129025000Y-124575000D01*
G75*
G02*
X129250000Y-124350000I225000J0D01*
G01*
X129750000Y-124350000D01*
G75*
G02*
X129975000Y-124575000I0J-225000D01*
G01*
X129975000Y-125025000D01*
G75*
G02*
X129750000Y-125250000I-225000J0D01*
G01*
G37*
G36*
G01*
X129750000Y-123700000D02*
X129250000Y-123700000D01*
G75*
G02*
X129025000Y-123475000I0J225000D01*
G01*
X129025000Y-123025000D01*
G75*
G02*
X129250000Y-122800000I225000J0D01*
G01*
X129750000Y-122800000D01*
G75*
G02*
X129975000Y-123025000I0J-225000D01*
G01*
X129975000Y-123475000D01*
G75*
G02*
X129750000Y-123700000I-225000J0D01*
G01*
G37*
G36*
G01*
X131975000Y-143450000D02*
X131975000Y-142950000D01*
G75*
G02*
X132200000Y-142725000I225000J0D01*
G01*
X132650000Y-142725000D01*
G75*
G02*
X132875000Y-142950000I0J-225000D01*
G01*
X132875000Y-143450000D01*
G75*
G02*
X132650000Y-143675000I-225000J0D01*
G01*
X132200000Y-143675000D01*
G75*
G02*
X131975000Y-143450000I0J225000D01*
G01*
G37*
G36*
G01*
X133525000Y-143450000D02*
X133525000Y-142950000D01*
G75*
G02*
X133750000Y-142725000I225000J0D01*
G01*
X134200000Y-142725000D01*
G75*
G02*
X134425000Y-142950000I0J-225000D01*
G01*
X134425000Y-143450000D01*
G75*
G02*
X134200000Y-143675000I-225000J0D01*
G01*
X133750000Y-143675000D01*
G75*
G02*
X133525000Y-143450000I0J225000D01*
G01*
G37*
G36*
G01*
X131975000Y-141850000D02*
X131975000Y-141350000D01*
G75*
G02*
X132200000Y-141125000I225000J0D01*
G01*
X132650000Y-141125000D01*
G75*
G02*
X132875000Y-141350000I0J-225000D01*
G01*
X132875000Y-141850000D01*
G75*
G02*
X132650000Y-142075000I-225000J0D01*
G01*
X132200000Y-142075000D01*
G75*
G02*
X131975000Y-141850000I0J225000D01*
G01*
G37*
G36*
G01*
X133525000Y-141850000D02*
X133525000Y-141350000D01*
G75*
G02*
X133750000Y-141125000I225000J0D01*
G01*
X134200000Y-141125000D01*
G75*
G02*
X134425000Y-141350000I0J-225000D01*
G01*
X134425000Y-141850000D01*
G75*
G02*
X134200000Y-142075000I-225000J0D01*
G01*
X133750000Y-142075000D01*
G75*
G02*
X133525000Y-141850000I0J225000D01*
G01*
G37*
G36*
G01*
X132000000Y-140250000D02*
X132000000Y-139750000D01*
G75*
G02*
X132225000Y-139525000I225000J0D01*
G01*
X132675000Y-139525000D01*
G75*
G02*
X132900000Y-139750000I0J-225000D01*
G01*
X132900000Y-140250000D01*
G75*
G02*
X132675000Y-140475000I-225000J0D01*
G01*
X132225000Y-140475000D01*
G75*
G02*
X132000000Y-140250000I0J225000D01*
G01*
G37*
G36*
G01*
X133550000Y-140250000D02*
X133550000Y-139750000D01*
G75*
G02*
X133775000Y-139525000I225000J0D01*
G01*
X134225000Y-139525000D01*
G75*
G02*
X134450000Y-139750000I0J-225000D01*
G01*
X134450000Y-140250000D01*
G75*
G02*
X134225000Y-140475000I-225000J0D01*
G01*
X133775000Y-140475000D01*
G75*
G02*
X133550000Y-140250000I0J225000D01*
G01*
G37*
G36*
G01*
X131775000Y-124000000D02*
X131775000Y-123500000D01*
G75*
G02*
X132000000Y-123275000I225000J0D01*
G01*
X132450000Y-123275000D01*
G75*
G02*
X132675000Y-123500000I0J-225000D01*
G01*
X132675000Y-124000000D01*
G75*
G02*
X132450000Y-124225000I-225000J0D01*
G01*
X132000000Y-124225000D01*
G75*
G02*
X131775000Y-124000000I0J225000D01*
G01*
G37*
G36*
G01*
X133325000Y-124000000D02*
X133325000Y-123500000D01*
G75*
G02*
X133550000Y-123275000I225000J0D01*
G01*
X134000000Y-123275000D01*
G75*
G02*
X134225000Y-123500000I0J-225000D01*
G01*
X134225000Y-124000000D01*
G75*
G02*
X134000000Y-124225000I-225000J0D01*
G01*
X133550000Y-124225000D01*
G75*
G02*
X133325000Y-124000000I0J225000D01*
G01*
G37*
G36*
G01*
X131800000Y-120850000D02*
X131800000Y-120350000D01*
G75*
G02*
X132025000Y-120125000I225000J0D01*
G01*
X132475000Y-120125000D01*
G75*
G02*
X132700000Y-120350000I0J-225000D01*
G01*
X132700000Y-120850000D01*
G75*
G02*
X132475000Y-121075000I-225000J0D01*
G01*
X132025000Y-121075000D01*
G75*
G02*
X131800000Y-120850000I0J225000D01*
G01*
G37*
G36*
G01*
X133350000Y-120850000D02*
X133350000Y-120350000D01*
G75*
G02*
X133575000Y-120125000I225000J0D01*
G01*
X134025000Y-120125000D01*
G75*
G02*
X134250000Y-120350000I0J-225000D01*
G01*
X134250000Y-120850000D01*
G75*
G02*
X134025000Y-121075000I-225000J0D01*
G01*
X133575000Y-121075000D01*
G75*
G02*
X133350000Y-120850000I0J225000D01*
G01*
G37*
G36*
G01*
X131975000Y-130750000D02*
X131975000Y-130250000D01*
G75*
G02*
X132200000Y-130025000I225000J0D01*
G01*
X132650000Y-130025000D01*
G75*
G02*
X132875000Y-130250000I0J-225000D01*
G01*
X132875000Y-130750000D01*
G75*
G02*
X132650000Y-130975000I-225000J0D01*
G01*
X132200000Y-130975000D01*
G75*
G02*
X131975000Y-130750000I0J225000D01*
G01*
G37*
G36*
G01*
X133525000Y-130750000D02*
X133525000Y-130250000D01*
G75*
G02*
X133750000Y-130025000I225000J0D01*
G01*
X134200000Y-130025000D01*
G75*
G02*
X134425000Y-130250000I0J-225000D01*
G01*
X134425000Y-130750000D01*
G75*
G02*
X134200000Y-130975000I-225000J0D01*
G01*
X133750000Y-130975000D01*
G75*
G02*
X133525000Y-130750000I0J225000D01*
G01*
G37*
G36*
G01*
X130750000Y-74750000D02*
X131250000Y-74750000D01*
G75*
G02*
X131475000Y-74975000I0J-225000D01*
G01*
X131475000Y-75425000D01*
G75*
G02*
X131250000Y-75650000I-225000J0D01*
G01*
X130750000Y-75650000D01*
G75*
G02*
X130525000Y-75425000I0J225000D01*
G01*
X130525000Y-74975000D01*
G75*
G02*
X130750000Y-74750000I225000J0D01*
G01*
G37*
G36*
G01*
X130750000Y-76300000D02*
X131250000Y-76300000D01*
G75*
G02*
X131475000Y-76525000I0J-225000D01*
G01*
X131475000Y-76975000D01*
G75*
G02*
X131250000Y-77200000I-225000J0D01*
G01*
X130750000Y-77200000D01*
G75*
G02*
X130525000Y-76975000I0J225000D01*
G01*
X130525000Y-76525000D01*
G75*
G02*
X130750000Y-76300000I225000J0D01*
G01*
G37*
G36*
G01*
X135250000Y-73475000D02*
X135750000Y-73475000D01*
G75*
G02*
X135975000Y-73700000I0J-225000D01*
G01*
X135975000Y-74150000D01*
G75*
G02*
X135750000Y-74375000I-225000J0D01*
G01*
X135250000Y-74375000D01*
G75*
G02*
X135025000Y-74150000I0J225000D01*
G01*
X135025000Y-73700000D01*
G75*
G02*
X135250000Y-73475000I225000J0D01*
G01*
G37*
G36*
G01*
X135250000Y-75025000D02*
X135750000Y-75025000D01*
G75*
G02*
X135975000Y-75250000I0J-225000D01*
G01*
X135975000Y-75700000D01*
G75*
G02*
X135750000Y-75925000I-225000J0D01*
G01*
X135250000Y-75925000D01*
G75*
G02*
X135025000Y-75700000I0J225000D01*
G01*
X135025000Y-75250000D01*
G75*
G02*
X135250000Y-75025000I225000J0D01*
G01*
G37*
G36*
G01*
X131650000Y-83225000D02*
X131150000Y-83225000D01*
G75*
G02*
X130925000Y-83000000I0J225000D01*
G01*
X130925000Y-82550000D01*
G75*
G02*
X131150000Y-82325000I225000J0D01*
G01*
X131650000Y-82325000D01*
G75*
G02*
X131875000Y-82550000I0J-225000D01*
G01*
X131875000Y-83000000D01*
G75*
G02*
X131650000Y-83225000I-225000J0D01*
G01*
G37*
G36*
G01*
X131650000Y-81675000D02*
X131150000Y-81675000D01*
G75*
G02*
X130925000Y-81450000I0J225000D01*
G01*
X130925000Y-81000000D01*
G75*
G02*
X131150000Y-80775000I225000J0D01*
G01*
X131650000Y-80775000D01*
G75*
G02*
X131875000Y-81000000I0J-225000D01*
G01*
X131875000Y-81450000D01*
G75*
G02*
X131650000Y-81675000I-225000J0D01*
G01*
G37*
G36*
G01*
X143350000Y-85000000D02*
X143850000Y-85000000D01*
G75*
G02*
X144075000Y-85225000I0J-225000D01*
G01*
X144075000Y-85675000D01*
G75*
G02*
X143850000Y-85900000I-225000J0D01*
G01*
X143350000Y-85900000D01*
G75*
G02*
X143125000Y-85675000I0J225000D01*
G01*
X143125000Y-85225000D01*
G75*
G02*
X143350000Y-85000000I225000J0D01*
G01*
G37*
G36*
G01*
X143350000Y-86550000D02*
X143850000Y-86550000D01*
G75*
G02*
X144075000Y-86775000I0J-225000D01*
G01*
X144075000Y-87225000D01*
G75*
G02*
X143850000Y-87450000I-225000J0D01*
G01*
X143350000Y-87450000D01*
G75*
G02*
X143125000Y-87225000I0J225000D01*
G01*
X143125000Y-86775000D01*
G75*
G02*
X143350000Y-86550000I225000J0D01*
G01*
G37*
G36*
G01*
X141600000Y-91150000D02*
X141600000Y-90650000D01*
G75*
G02*
X141825000Y-90425000I225000J0D01*
G01*
X142275000Y-90425000D01*
G75*
G02*
X142500000Y-90650000I0J-225000D01*
G01*
X142500000Y-91150000D01*
G75*
G02*
X142275000Y-91375000I-225000J0D01*
G01*
X141825000Y-91375000D01*
G75*
G02*
X141600000Y-91150000I0J225000D01*
G01*
G37*
G36*
G01*
X143150000Y-91150000D02*
X143150000Y-90650000D01*
G75*
G02*
X143375000Y-90425000I225000J0D01*
G01*
X143825000Y-90425000D01*
G75*
G02*
X144050000Y-90650000I0J-225000D01*
G01*
X144050000Y-91150000D01*
G75*
G02*
X143825000Y-91375000I-225000J0D01*
G01*
X143375000Y-91375000D01*
G75*
G02*
X143150000Y-91150000I0J225000D01*
G01*
G37*
G36*
G01*
X131975000Y-127450000D02*
X131975000Y-126950000D01*
G75*
G02*
X132200000Y-126725000I225000J0D01*
G01*
X132650000Y-126725000D01*
G75*
G02*
X132875000Y-126950000I0J-225000D01*
G01*
X132875000Y-127450000D01*
G75*
G02*
X132650000Y-127675000I-225000J0D01*
G01*
X132200000Y-127675000D01*
G75*
G02*
X131975000Y-127450000I0J225000D01*
G01*
G37*
G36*
G01*
X133525000Y-127450000D02*
X133525000Y-126950000D01*
G75*
G02*
X133750000Y-126725000I225000J0D01*
G01*
X134200000Y-126725000D01*
G75*
G02*
X134425000Y-126950000I0J-225000D01*
G01*
X134425000Y-127450000D01*
G75*
G02*
X134200000Y-127675000I-225000J0D01*
G01*
X133750000Y-127675000D01*
G75*
G02*
X133525000Y-127450000I0J225000D01*
G01*
G37*
G36*
G01*
X131800000Y-122450000D02*
X131800000Y-121950000D01*
G75*
G02*
X132025000Y-121725000I225000J0D01*
G01*
X132475000Y-121725000D01*
G75*
G02*
X132700000Y-121950000I0J-225000D01*
G01*
X132700000Y-122450000D01*
G75*
G02*
X132475000Y-122675000I-225000J0D01*
G01*
X132025000Y-122675000D01*
G75*
G02*
X131800000Y-122450000I0J225000D01*
G01*
G37*
G36*
G01*
X133350000Y-122450000D02*
X133350000Y-121950000D01*
G75*
G02*
X133575000Y-121725000I225000J0D01*
G01*
X134025000Y-121725000D01*
G75*
G02*
X134250000Y-121950000I0J-225000D01*
G01*
X134250000Y-122450000D01*
G75*
G02*
X134025000Y-122675000I-225000J0D01*
G01*
X133575000Y-122675000D01*
G75*
G02*
X133350000Y-122450000I0J225000D01*
G01*
G37*
G36*
G01*
X137450000Y-68800000D02*
X137450000Y-69300000D01*
G75*
G02*
X137225000Y-69525000I-225000J0D01*
G01*
X136775000Y-69525000D01*
G75*
G02*
X136550000Y-69300000I0J225000D01*
G01*
X136550000Y-68800000D01*
G75*
G02*
X136775000Y-68575000I225000J0D01*
G01*
X137225000Y-68575000D01*
G75*
G02*
X137450000Y-68800000I0J-225000D01*
G01*
G37*
G36*
G01*
X135900000Y-68800000D02*
X135900000Y-69300000D01*
G75*
G02*
X135675000Y-69525000I-225000J0D01*
G01*
X135225000Y-69525000D01*
G75*
G02*
X135000000Y-69300000I0J225000D01*
G01*
X135000000Y-68800000D01*
G75*
G02*
X135225000Y-68575000I225000J0D01*
G01*
X135675000Y-68575000D01*
G75*
G02*
X135900000Y-68800000I0J-225000D01*
G01*
G37*
G36*
G01*
X131975000Y-129050000D02*
X131975000Y-128550000D01*
G75*
G02*
X132200000Y-128325000I225000J0D01*
G01*
X132650000Y-128325000D01*
G75*
G02*
X132875000Y-128550000I0J-225000D01*
G01*
X132875000Y-129050000D01*
G75*
G02*
X132650000Y-129275000I-225000J0D01*
G01*
X132200000Y-129275000D01*
G75*
G02*
X131975000Y-129050000I0J225000D01*
G01*
G37*
G36*
G01*
X133525000Y-129050000D02*
X133525000Y-128550000D01*
G75*
G02*
X133750000Y-128325000I225000J0D01*
G01*
X134200000Y-128325000D01*
G75*
G02*
X134425000Y-128550000I0J-225000D01*
G01*
X134425000Y-129050000D01*
G75*
G02*
X134200000Y-129275000I-225000J0D01*
G01*
X133750000Y-129275000D01*
G75*
G02*
X133525000Y-129050000I0J225000D01*
G01*
G37*
G36*
G01*
X140187500Y-67243750D02*
X140187500Y-67756250D01*
G75*
G02*
X139968750Y-67975000I-218750J0D01*
G01*
X139531250Y-67975000D01*
G75*
G02*
X139312500Y-67756250I0J218750D01*
G01*
X139312500Y-67243750D01*
G75*
G02*
X139531250Y-67025000I218750J0D01*
G01*
X139968750Y-67025000D01*
G75*
G02*
X140187500Y-67243750I0J-218750D01*
G01*
G37*
G36*
G01*
X138612500Y-67243750D02*
X138612500Y-67756250D01*
G75*
G02*
X138393750Y-67975000I-218750J0D01*
G01*
X137956250Y-67975000D01*
G75*
G02*
X137737500Y-67756250I0J218750D01*
G01*
X137737500Y-67243750D01*
G75*
G02*
X137956250Y-67025000I218750J0D01*
G01*
X138393750Y-67025000D01*
G75*
G02*
X138612500Y-67243750I0J-218750D01*
G01*
G37*
G36*
G01*
X137256250Y-101725000D02*
X136743750Y-101725000D01*
G75*
G02*
X136525000Y-101506250I0J218750D01*
G01*
X136525000Y-101068750D01*
G75*
G02*
X136743750Y-100850000I218750J0D01*
G01*
X137256250Y-100850000D01*
G75*
G02*
X137475000Y-101068750I0J-218750D01*
G01*
X137475000Y-101506250D01*
G75*
G02*
X137256250Y-101725000I-218750J0D01*
G01*
G37*
G36*
G01*
X137256250Y-100150000D02*
X136743750Y-100150000D01*
G75*
G02*
X136525000Y-99931250I0J218750D01*
G01*
X136525000Y-99493750D01*
G75*
G02*
X136743750Y-99275000I218750J0D01*
G01*
X137256250Y-99275000D01*
G75*
G02*
X137475000Y-99493750I0J-218750D01*
G01*
X137475000Y-99931250D01*
G75*
G02*
X137256250Y-100150000I-218750J0D01*
G01*
G37*
G36*
G01*
X140937500Y-100243750D02*
X140937500Y-100756250D01*
G75*
G02*
X140718750Y-100975000I-218750J0D01*
G01*
X140281250Y-100975000D01*
G75*
G02*
X140062500Y-100756250I0J218750D01*
G01*
X140062500Y-100243750D01*
G75*
G02*
X140281250Y-100025000I218750J0D01*
G01*
X140718750Y-100025000D01*
G75*
G02*
X140937500Y-100243750I0J-218750D01*
G01*
G37*
G36*
G01*
X139362500Y-100243750D02*
X139362500Y-100756250D01*
G75*
G02*
X139143750Y-100975000I-218750J0D01*
G01*
X138706250Y-100975000D01*
G75*
G02*
X138487500Y-100756250I0J218750D01*
G01*
X138487500Y-100243750D01*
G75*
G02*
X138706250Y-100025000I218750J0D01*
G01*
X139143750Y-100025000D01*
G75*
G02*
X139362500Y-100243750I0J-218750D01*
G01*
G37*
G36*
G01*
X125656250Y-116637500D02*
X125143750Y-116637500D01*
G75*
G02*
X124925000Y-116418750I0J218750D01*
G01*
X124925000Y-115981250D01*
G75*
G02*
X125143750Y-115762500I218750J0D01*
G01*
X125656250Y-115762500D01*
G75*
G02*
X125875000Y-115981250I0J-218750D01*
G01*
X125875000Y-116418750D01*
G75*
G02*
X125656250Y-116637500I-218750J0D01*
G01*
G37*
G36*
G01*
X125656250Y-115062500D02*
X125143750Y-115062500D01*
G75*
G02*
X124925000Y-114843750I0J218750D01*
G01*
X124925000Y-114406250D01*
G75*
G02*
X125143750Y-114187500I218750J0D01*
G01*
X125656250Y-114187500D01*
G75*
G02*
X125875000Y-114406250I0J-218750D01*
G01*
X125875000Y-114843750D01*
G75*
G02*
X125656250Y-115062500I-218750J0D01*
G01*
G37*
G36*
G01*
X125656250Y-119712500D02*
X125143750Y-119712500D01*
G75*
G02*
X124925000Y-119493750I0J218750D01*
G01*
X124925000Y-119056250D01*
G75*
G02*
X125143750Y-118837500I218750J0D01*
G01*
X125656250Y-118837500D01*
G75*
G02*
X125875000Y-119056250I0J-218750D01*
G01*
X125875000Y-119493750D01*
G75*
G02*
X125656250Y-119712500I-218750J0D01*
G01*
G37*
G36*
G01*
X125656250Y-118137500D02*
X125143750Y-118137500D01*
G75*
G02*
X124925000Y-117918750I0J218750D01*
G01*
X124925000Y-117481250D01*
G75*
G02*
X125143750Y-117262500I218750J0D01*
G01*
X125656250Y-117262500D01*
G75*
G02*
X125875000Y-117481250I0J-218750D01*
G01*
X125875000Y-117918750D01*
G75*
G02*
X125656250Y-118137500I-218750J0D01*
G01*
G37*
G36*
G01*
X127256250Y-113425000D02*
X126743750Y-113425000D01*
G75*
G02*
X126525000Y-113206250I0J218750D01*
G01*
X126525000Y-112768750D01*
G75*
G02*
X126743750Y-112550000I218750J0D01*
G01*
X127256250Y-112550000D01*
G75*
G02*
X127475000Y-112768750I0J-218750D01*
G01*
X127475000Y-113206250D01*
G75*
G02*
X127256250Y-113425000I-218750J0D01*
G01*
G37*
G36*
G01*
X127256250Y-111850000D02*
X126743750Y-111850000D01*
G75*
G02*
X126525000Y-111631250I0J218750D01*
G01*
X126525000Y-111193750D01*
G75*
G02*
X126743750Y-110975000I218750J0D01*
G01*
X127256250Y-110975000D01*
G75*
G02*
X127475000Y-111193750I0J-218750D01*
G01*
X127475000Y-111631250D01*
G75*
G02*
X127256250Y-111850000I-218750J0D01*
G01*
G37*
G36*
G01*
X125656250Y-113437500D02*
X125143750Y-113437500D01*
G75*
G02*
X124925000Y-113218750I0J218750D01*
G01*
X124925000Y-112781250D01*
G75*
G02*
X125143750Y-112562500I218750J0D01*
G01*
X125656250Y-112562500D01*
G75*
G02*
X125875000Y-112781250I0J-218750D01*
G01*
X125875000Y-113218750D01*
G75*
G02*
X125656250Y-113437500I-218750J0D01*
G01*
G37*
G36*
G01*
X125656250Y-111862500D02*
X125143750Y-111862500D01*
G75*
G02*
X124925000Y-111643750I0J218750D01*
G01*
X124925000Y-111206250D01*
G75*
G02*
X125143750Y-110987500I218750J0D01*
G01*
X125656250Y-110987500D01*
G75*
G02*
X125875000Y-111206250I0J-218750D01*
G01*
X125875000Y-111643750D01*
G75*
G02*
X125656250Y-111862500I-218750J0D01*
G01*
G37*
G36*
G01*
X127156250Y-119725000D02*
X126643750Y-119725000D01*
G75*
G02*
X126425000Y-119506250I0J218750D01*
G01*
X126425000Y-119068750D01*
G75*
G02*
X126643750Y-118850000I218750J0D01*
G01*
X127156250Y-118850000D01*
G75*
G02*
X127375000Y-119068750I0J-218750D01*
G01*
X127375000Y-119506250D01*
G75*
G02*
X127156250Y-119725000I-218750J0D01*
G01*
G37*
G36*
G01*
X127156250Y-118150000D02*
X126643750Y-118150000D01*
G75*
G02*
X126425000Y-117931250I0J218750D01*
G01*
X126425000Y-117493750D01*
G75*
G02*
X126643750Y-117275000I218750J0D01*
G01*
X127156250Y-117275000D01*
G75*
G02*
X127375000Y-117493750I0J-218750D01*
G01*
X127375000Y-117931250D01*
G75*
G02*
X127156250Y-118150000I-218750J0D01*
G01*
G37*
G36*
G01*
X137412500Y-109143750D02*
X137412500Y-109656250D01*
G75*
G02*
X137193750Y-109875000I-218750J0D01*
G01*
X136756250Y-109875000D01*
G75*
G02*
X136537500Y-109656250I0J218750D01*
G01*
X136537500Y-109143750D01*
G75*
G02*
X136756250Y-108925000I218750J0D01*
G01*
X137193750Y-108925000D01*
G75*
G02*
X137412500Y-109143750I0J-218750D01*
G01*
G37*
G36*
G01*
X135837500Y-109143750D02*
X135837500Y-109656250D01*
G75*
G02*
X135618750Y-109875000I-218750J0D01*
G01*
X135181250Y-109875000D01*
G75*
G02*
X134962500Y-109656250I0J218750D01*
G01*
X134962500Y-109143750D01*
G75*
G02*
X135181250Y-108925000I218750J0D01*
G01*
X135618750Y-108925000D01*
G75*
G02*
X135837500Y-109143750I0J-218750D01*
G01*
G37*
G36*
G01*
X137412500Y-107543750D02*
X137412500Y-108056250D01*
G75*
G02*
X137193750Y-108275000I-218750J0D01*
G01*
X136756250Y-108275000D01*
G75*
G02*
X136537500Y-108056250I0J218750D01*
G01*
X136537500Y-107543750D01*
G75*
G02*
X136756250Y-107325000I218750J0D01*
G01*
X137193750Y-107325000D01*
G75*
G02*
X137412500Y-107543750I0J-218750D01*
G01*
G37*
G36*
G01*
X135837500Y-107543750D02*
X135837500Y-108056250D01*
G75*
G02*
X135618750Y-108275000I-218750J0D01*
G01*
X135181250Y-108275000D01*
G75*
G02*
X134962500Y-108056250I0J218750D01*
G01*
X134962500Y-107543750D01*
G75*
G02*
X135181250Y-107325000I218750J0D01*
G01*
X135618750Y-107325000D01*
G75*
G02*
X135837500Y-107543750I0J-218750D01*
G01*
G37*
G36*
G01*
X137425000Y-115543750D02*
X137425000Y-116056250D01*
G75*
G02*
X137206250Y-116275000I-218750J0D01*
G01*
X136768750Y-116275000D01*
G75*
G02*
X136550000Y-116056250I0J218750D01*
G01*
X136550000Y-115543750D01*
G75*
G02*
X136768750Y-115325000I218750J0D01*
G01*
X137206250Y-115325000D01*
G75*
G02*
X137425000Y-115543750I0J-218750D01*
G01*
G37*
G36*
G01*
X135850000Y-115543750D02*
X135850000Y-116056250D01*
G75*
G02*
X135631250Y-116275000I-218750J0D01*
G01*
X135193750Y-116275000D01*
G75*
G02*
X134975000Y-116056250I0J218750D01*
G01*
X134975000Y-115543750D01*
G75*
G02*
X135193750Y-115325000I218750J0D01*
G01*
X135631250Y-115325000D01*
G75*
G02*
X135850000Y-115543750I0J-218750D01*
G01*
G37*
G36*
G01*
X137412500Y-113943750D02*
X137412500Y-114456250D01*
G75*
G02*
X137193750Y-114675000I-218750J0D01*
G01*
X136756250Y-114675000D01*
G75*
G02*
X136537500Y-114456250I0J218750D01*
G01*
X136537500Y-113943750D01*
G75*
G02*
X136756250Y-113725000I218750J0D01*
G01*
X137193750Y-113725000D01*
G75*
G02*
X137412500Y-113943750I0J-218750D01*
G01*
G37*
G36*
G01*
X135837500Y-113943750D02*
X135837500Y-114456250D01*
G75*
G02*
X135618750Y-114675000I-218750J0D01*
G01*
X135181250Y-114675000D01*
G75*
G02*
X134962500Y-114456250I0J218750D01*
G01*
X134962500Y-113943750D01*
G75*
G02*
X135181250Y-113725000I218750J0D01*
G01*
X135618750Y-113725000D01*
G75*
G02*
X135837500Y-113943750I0J-218750D01*
G01*
G37*
G36*
G01*
X137412500Y-110743750D02*
X137412500Y-111256250D01*
G75*
G02*
X137193750Y-111475000I-218750J0D01*
G01*
X136756250Y-111475000D01*
G75*
G02*
X136537500Y-111256250I0J218750D01*
G01*
X136537500Y-110743750D01*
G75*
G02*
X136756250Y-110525000I218750J0D01*
G01*
X137193750Y-110525000D01*
G75*
G02*
X137412500Y-110743750I0J-218750D01*
G01*
G37*
G36*
G01*
X135837500Y-110743750D02*
X135837500Y-111256250D01*
G75*
G02*
X135618750Y-111475000I-218750J0D01*
G01*
X135181250Y-111475000D01*
G75*
G02*
X134962500Y-111256250I0J218750D01*
G01*
X134962500Y-110743750D01*
G75*
G02*
X135181250Y-110525000I218750J0D01*
G01*
X135618750Y-110525000D01*
G75*
G02*
X135837500Y-110743750I0J-218750D01*
G01*
G37*
G36*
G01*
X134975000Y-106456250D02*
X134975000Y-105943750D01*
G75*
G02*
X135193750Y-105725000I218750J0D01*
G01*
X135631250Y-105725000D01*
G75*
G02*
X135850000Y-105943750I0J-218750D01*
G01*
X135850000Y-106456250D01*
G75*
G02*
X135631250Y-106675000I-218750J0D01*
G01*
X135193750Y-106675000D01*
G75*
G02*
X134975000Y-106456250I0J218750D01*
G01*
G37*
G36*
G01*
X136550000Y-106456250D02*
X136550000Y-105943750D01*
G75*
G02*
X136768750Y-105725000I218750J0D01*
G01*
X137206250Y-105725000D01*
G75*
G02*
X137425000Y-105943750I0J-218750D01*
G01*
X137425000Y-106456250D01*
G75*
G02*
X137206250Y-106675000I-218750J0D01*
G01*
X136768750Y-106675000D01*
G75*
G02*
X136550000Y-106456250I0J218750D01*
G01*
G37*
G36*
G01*
X137437500Y-117143750D02*
X137437500Y-117656250D01*
G75*
G02*
X137218750Y-117875000I-218750J0D01*
G01*
X136781250Y-117875000D01*
G75*
G02*
X136562500Y-117656250I0J218750D01*
G01*
X136562500Y-117143750D01*
G75*
G02*
X136781250Y-116925000I218750J0D01*
G01*
X137218750Y-116925000D01*
G75*
G02*
X137437500Y-117143750I0J-218750D01*
G01*
G37*
G36*
G01*
X135862500Y-117143750D02*
X135862500Y-117656250D01*
G75*
G02*
X135643750Y-117875000I-218750J0D01*
G01*
X135206250Y-117875000D01*
G75*
G02*
X134987500Y-117656250I0J218750D01*
G01*
X134987500Y-117143750D01*
G75*
G02*
X135206250Y-116925000I218750J0D01*
G01*
X135643750Y-116925000D01*
G75*
G02*
X135862500Y-117143750I0J-218750D01*
G01*
G37*
G36*
G01*
X134975000Y-112856250D02*
X134975000Y-112343750D01*
G75*
G02*
X135193750Y-112125000I218750J0D01*
G01*
X135631250Y-112125000D01*
G75*
G02*
X135850000Y-112343750I0J-218750D01*
G01*
X135850000Y-112856250D01*
G75*
G02*
X135631250Y-113075000I-218750J0D01*
G01*
X135193750Y-113075000D01*
G75*
G02*
X134975000Y-112856250I0J218750D01*
G01*
G37*
G36*
G01*
X136550000Y-112856250D02*
X136550000Y-112343750D01*
G75*
G02*
X136768750Y-112125000I218750J0D01*
G01*
X137206250Y-112125000D01*
G75*
G02*
X137425000Y-112343750I0J-218750D01*
G01*
X137425000Y-112856250D01*
G75*
G02*
X137206250Y-113075000I-218750J0D01*
G01*
X136768750Y-113075000D01*
G75*
G02*
X136550000Y-112856250I0J218750D01*
G01*
G37*
G36*
G01*
X125143750Y-129075000D02*
X125656250Y-129075000D01*
G75*
G02*
X125875000Y-129293750I0J-218750D01*
G01*
X125875000Y-129731250D01*
G75*
G02*
X125656250Y-129950000I-218750J0D01*
G01*
X125143750Y-129950000D01*
G75*
G02*
X124925000Y-129731250I0J218750D01*
G01*
X124925000Y-129293750D01*
G75*
G02*
X125143750Y-129075000I218750J0D01*
G01*
G37*
G36*
G01*
X125143750Y-130650000D02*
X125656250Y-130650000D01*
G75*
G02*
X125875000Y-130868750I0J-218750D01*
G01*
X125875000Y-131306250D01*
G75*
G02*
X125656250Y-131525000I-218750J0D01*
G01*
X125143750Y-131525000D01*
G75*
G02*
X124925000Y-131306250I0J218750D01*
G01*
X124925000Y-130868750D01*
G75*
G02*
X125143750Y-130650000I218750J0D01*
G01*
G37*
G36*
G01*
X125143750Y-125975000D02*
X125656250Y-125975000D01*
G75*
G02*
X125875000Y-126193750I0J-218750D01*
G01*
X125875000Y-126631250D01*
G75*
G02*
X125656250Y-126850000I-218750J0D01*
G01*
X125143750Y-126850000D01*
G75*
G02*
X124925000Y-126631250I0J218750D01*
G01*
X124925000Y-126193750D01*
G75*
G02*
X125143750Y-125975000I218750J0D01*
G01*
G37*
G36*
G01*
X125143750Y-127550000D02*
X125656250Y-127550000D01*
G75*
G02*
X125875000Y-127768750I0J-218750D01*
G01*
X125875000Y-128206250D01*
G75*
G02*
X125656250Y-128425000I-218750J0D01*
G01*
X125143750Y-128425000D01*
G75*
G02*
X124925000Y-128206250I0J218750D01*
G01*
X124925000Y-127768750D01*
G75*
G02*
X125143750Y-127550000I218750J0D01*
G01*
G37*
G36*
G01*
X137425000Y-142943750D02*
X137425000Y-143456250D01*
G75*
G02*
X137206250Y-143675000I-218750J0D01*
G01*
X136768750Y-143675000D01*
G75*
G02*
X136550000Y-143456250I0J218750D01*
G01*
X136550000Y-142943750D01*
G75*
G02*
X136768750Y-142725000I218750J0D01*
G01*
X137206250Y-142725000D01*
G75*
G02*
X137425000Y-142943750I0J-218750D01*
G01*
G37*
G36*
G01*
X135850000Y-142943750D02*
X135850000Y-143456250D01*
G75*
G02*
X135631250Y-143675000I-218750J0D01*
G01*
X135193750Y-143675000D01*
G75*
G02*
X134975000Y-143456250I0J218750D01*
G01*
X134975000Y-142943750D01*
G75*
G02*
X135193750Y-142725000I218750J0D01*
G01*
X135631250Y-142725000D01*
G75*
G02*
X135850000Y-142943750I0J-218750D01*
G01*
G37*
G36*
G01*
X137425000Y-141343750D02*
X137425000Y-141856250D01*
G75*
G02*
X137206250Y-142075000I-218750J0D01*
G01*
X136768750Y-142075000D01*
G75*
G02*
X136550000Y-141856250I0J218750D01*
G01*
X136550000Y-141343750D01*
G75*
G02*
X136768750Y-141125000I218750J0D01*
G01*
X137206250Y-141125000D01*
G75*
G02*
X137425000Y-141343750I0J-218750D01*
G01*
G37*
G36*
G01*
X135850000Y-141343750D02*
X135850000Y-141856250D01*
G75*
G02*
X135631250Y-142075000I-218750J0D01*
G01*
X135193750Y-142075000D01*
G75*
G02*
X134975000Y-141856250I0J218750D01*
G01*
X134975000Y-141343750D01*
G75*
G02*
X135193750Y-141125000I218750J0D01*
G01*
X135631250Y-141125000D01*
G75*
G02*
X135850000Y-141343750I0J-218750D01*
G01*
G37*
G36*
G01*
X137425000Y-139743750D02*
X137425000Y-140256250D01*
G75*
G02*
X137206250Y-140475000I-218750J0D01*
G01*
X136768750Y-140475000D01*
G75*
G02*
X136550000Y-140256250I0J218750D01*
G01*
X136550000Y-139743750D01*
G75*
G02*
X136768750Y-139525000I218750J0D01*
G01*
X137206250Y-139525000D01*
G75*
G02*
X137425000Y-139743750I0J-218750D01*
G01*
G37*
G36*
G01*
X135850000Y-139743750D02*
X135850000Y-140256250D01*
G75*
G02*
X135631250Y-140475000I-218750J0D01*
G01*
X135193750Y-140475000D01*
G75*
G02*
X134975000Y-140256250I0J218750D01*
G01*
X134975000Y-139743750D01*
G75*
G02*
X135193750Y-139525000I218750J0D01*
G01*
X135631250Y-139525000D01*
G75*
G02*
X135850000Y-139743750I0J-218750D01*
G01*
G37*
G36*
G01*
X134975000Y-138756250D02*
X134975000Y-138243750D01*
G75*
G02*
X135193750Y-138025000I218750J0D01*
G01*
X135631250Y-138025000D01*
G75*
G02*
X135850000Y-138243750I0J-218750D01*
G01*
X135850000Y-138756250D01*
G75*
G02*
X135631250Y-138975000I-218750J0D01*
G01*
X135193750Y-138975000D01*
G75*
G02*
X134975000Y-138756250I0J218750D01*
G01*
G37*
G36*
G01*
X136550000Y-138756250D02*
X136550000Y-138243750D01*
G75*
G02*
X136768750Y-138025000I218750J0D01*
G01*
X137206250Y-138025000D01*
G75*
G02*
X137425000Y-138243750I0J-218750D01*
G01*
X137425000Y-138756250D01*
G75*
G02*
X137206250Y-138975000I-218750J0D01*
G01*
X136768750Y-138975000D01*
G75*
G02*
X136550000Y-138756250I0J218750D01*
G01*
G37*
G36*
G01*
X125606250Y-142225000D02*
X125093750Y-142225000D01*
G75*
G02*
X124875000Y-142006250I0J218750D01*
G01*
X124875000Y-141568750D01*
G75*
G02*
X125093750Y-141350000I218750J0D01*
G01*
X125606250Y-141350000D01*
G75*
G02*
X125825000Y-141568750I0J-218750D01*
G01*
X125825000Y-142006250D01*
G75*
G02*
X125606250Y-142225000I-218750J0D01*
G01*
G37*
G36*
G01*
X125606250Y-140650000D02*
X125093750Y-140650000D01*
G75*
G02*
X124875000Y-140431250I0J218750D01*
G01*
X124875000Y-139993750D01*
G75*
G02*
X125093750Y-139775000I218750J0D01*
G01*
X125606250Y-139775000D01*
G75*
G02*
X125825000Y-139993750I0J-218750D01*
G01*
X125825000Y-140431250D01*
G75*
G02*
X125606250Y-140650000I-218750J0D01*
G01*
G37*
G36*
G01*
X125606250Y-139225000D02*
X125093750Y-139225000D01*
G75*
G02*
X124875000Y-139006250I0J218750D01*
G01*
X124875000Y-138568750D01*
G75*
G02*
X125093750Y-138350000I218750J0D01*
G01*
X125606250Y-138350000D01*
G75*
G02*
X125825000Y-138568750I0J-218750D01*
G01*
X125825000Y-139006250D01*
G75*
G02*
X125606250Y-139225000I-218750J0D01*
G01*
G37*
G36*
G01*
X125606250Y-137650000D02*
X125093750Y-137650000D01*
G75*
G02*
X124875000Y-137431250I0J218750D01*
G01*
X124875000Y-136993750D01*
G75*
G02*
X125093750Y-136775000I218750J0D01*
G01*
X125606250Y-136775000D01*
G75*
G02*
X125825000Y-136993750I0J-218750D01*
G01*
X125825000Y-137431250D01*
G75*
G02*
X125606250Y-137650000I-218750J0D01*
G01*
G37*
G36*
G01*
X127356250Y-136225000D02*
X126843750Y-136225000D01*
G75*
G02*
X126625000Y-136006250I0J218750D01*
G01*
X126625000Y-135568750D01*
G75*
G02*
X126843750Y-135350000I218750J0D01*
G01*
X127356250Y-135350000D01*
G75*
G02*
X127575000Y-135568750I0J-218750D01*
G01*
X127575000Y-136006250D01*
G75*
G02*
X127356250Y-136225000I-218750J0D01*
G01*
G37*
G36*
G01*
X127356250Y-134650000D02*
X126843750Y-134650000D01*
G75*
G02*
X126625000Y-134431250I0J218750D01*
G01*
X126625000Y-133993750D01*
G75*
G02*
X126843750Y-133775000I218750J0D01*
G01*
X127356250Y-133775000D01*
G75*
G02*
X127575000Y-133993750I0J-218750D01*
G01*
X127575000Y-134431250D01*
G75*
G02*
X127356250Y-134650000I-218750J0D01*
G01*
G37*
G36*
G01*
X125606250Y-136225000D02*
X125093750Y-136225000D01*
G75*
G02*
X124875000Y-136006250I0J218750D01*
G01*
X124875000Y-135568750D01*
G75*
G02*
X125093750Y-135350000I218750J0D01*
G01*
X125606250Y-135350000D01*
G75*
G02*
X125825000Y-135568750I0J-218750D01*
G01*
X125825000Y-136006250D01*
G75*
G02*
X125606250Y-136225000I-218750J0D01*
G01*
G37*
G36*
G01*
X125606250Y-134650000D02*
X125093750Y-134650000D01*
G75*
G02*
X124875000Y-134431250I0J218750D01*
G01*
X124875000Y-133993750D01*
G75*
G02*
X125093750Y-133775000I218750J0D01*
G01*
X125606250Y-133775000D01*
G75*
G02*
X125825000Y-133993750I0J-218750D01*
G01*
X125825000Y-134431250D01*
G75*
G02*
X125606250Y-134650000I-218750J0D01*
G01*
G37*
G36*
G01*
X127356250Y-142225000D02*
X126843750Y-142225000D01*
G75*
G02*
X126625000Y-142006250I0J218750D01*
G01*
X126625000Y-141568750D01*
G75*
G02*
X126843750Y-141350000I218750J0D01*
G01*
X127356250Y-141350000D01*
G75*
G02*
X127575000Y-141568750I0J-218750D01*
G01*
X127575000Y-142006250D01*
G75*
G02*
X127356250Y-142225000I-218750J0D01*
G01*
G37*
G36*
G01*
X127356250Y-140650000D02*
X126843750Y-140650000D01*
G75*
G02*
X126625000Y-140431250I0J218750D01*
G01*
X126625000Y-139993750D01*
G75*
G02*
X126843750Y-139775000I218750J0D01*
G01*
X127356250Y-139775000D01*
G75*
G02*
X127575000Y-139993750I0J-218750D01*
G01*
X127575000Y-140431250D01*
G75*
G02*
X127356250Y-140650000I-218750J0D01*
G01*
G37*
G36*
G01*
X137437500Y-136743750D02*
X137437500Y-137256250D01*
G75*
G02*
X137218750Y-137475000I-218750J0D01*
G01*
X136781250Y-137475000D01*
G75*
G02*
X136562500Y-137256250I0J218750D01*
G01*
X136562500Y-136743750D01*
G75*
G02*
X136781250Y-136525000I218750J0D01*
G01*
X137218750Y-136525000D01*
G75*
G02*
X137437500Y-136743750I0J-218750D01*
G01*
G37*
G36*
G01*
X135862500Y-136743750D02*
X135862500Y-137256250D01*
G75*
G02*
X135643750Y-137475000I-218750J0D01*
G01*
X135206250Y-137475000D01*
G75*
G02*
X134987500Y-137256250I0J218750D01*
G01*
X134987500Y-136743750D01*
G75*
G02*
X135206250Y-136525000I218750J0D01*
G01*
X135643750Y-136525000D01*
G75*
G02*
X135862500Y-136743750I0J-218750D01*
G01*
G37*
G36*
G01*
X137425000Y-135143750D02*
X137425000Y-135656250D01*
G75*
G02*
X137206250Y-135875000I-218750J0D01*
G01*
X136768750Y-135875000D01*
G75*
G02*
X136550000Y-135656250I0J218750D01*
G01*
X136550000Y-135143750D01*
G75*
G02*
X136768750Y-134925000I218750J0D01*
G01*
X137206250Y-134925000D01*
G75*
G02*
X137425000Y-135143750I0J-218750D01*
G01*
G37*
G36*
G01*
X135850000Y-135143750D02*
X135850000Y-135656250D01*
G75*
G02*
X135631250Y-135875000I-218750J0D01*
G01*
X135193750Y-135875000D01*
G75*
G02*
X134975000Y-135656250I0J218750D01*
G01*
X134975000Y-135143750D01*
G75*
G02*
X135193750Y-134925000I218750J0D01*
G01*
X135631250Y-134925000D01*
G75*
G02*
X135850000Y-135143750I0J-218750D01*
G01*
G37*
G36*
G01*
X135243750Y-70287500D02*
X135756250Y-70287500D01*
G75*
G02*
X135975000Y-70506250I0J-218750D01*
G01*
X135975000Y-70943750D01*
G75*
G02*
X135756250Y-71162500I-218750J0D01*
G01*
X135243750Y-71162500D01*
G75*
G02*
X135025000Y-70943750I0J218750D01*
G01*
X135025000Y-70506250D01*
G75*
G02*
X135243750Y-70287500I218750J0D01*
G01*
G37*
G36*
G01*
X135243750Y-71862500D02*
X135756250Y-71862500D01*
G75*
G02*
X135975000Y-72081250I0J-218750D01*
G01*
X135975000Y-72518750D01*
G75*
G02*
X135756250Y-72737500I-218750J0D01*
G01*
X135243750Y-72737500D01*
G75*
G02*
X135025000Y-72518750I0J218750D01*
G01*
X135025000Y-72081250D01*
G75*
G02*
X135243750Y-71862500I218750J0D01*
G01*
G37*
G36*
G01*
X137425000Y-133543750D02*
X137425000Y-134056250D01*
G75*
G02*
X137206250Y-134275000I-218750J0D01*
G01*
X136768750Y-134275000D01*
G75*
G02*
X136550000Y-134056250I0J218750D01*
G01*
X136550000Y-133543750D01*
G75*
G02*
X136768750Y-133325000I218750J0D01*
G01*
X137206250Y-133325000D01*
G75*
G02*
X137425000Y-133543750I0J-218750D01*
G01*
G37*
G36*
G01*
X135850000Y-133543750D02*
X135850000Y-134056250D01*
G75*
G02*
X135631250Y-134275000I-218750J0D01*
G01*
X135193750Y-134275000D01*
G75*
G02*
X134975000Y-134056250I0J218750D01*
G01*
X134975000Y-133543750D01*
G75*
G02*
X135193750Y-133325000I218750J0D01*
G01*
X135631250Y-133325000D01*
G75*
G02*
X135850000Y-133543750I0J-218750D01*
G01*
G37*
G36*
G01*
X134975000Y-132556250D02*
X134975000Y-132043750D01*
G75*
G02*
X135193750Y-131825000I218750J0D01*
G01*
X135631250Y-131825000D01*
G75*
G02*
X135850000Y-132043750I0J-218750D01*
G01*
X135850000Y-132556250D01*
G75*
G02*
X135631250Y-132775000I-218750J0D01*
G01*
X135193750Y-132775000D01*
G75*
G02*
X134975000Y-132556250I0J218750D01*
G01*
G37*
G36*
G01*
X136550000Y-132556250D02*
X136550000Y-132043750D01*
G75*
G02*
X136768750Y-131825000I218750J0D01*
G01*
X137206250Y-131825000D01*
G75*
G02*
X137425000Y-132043750I0J-218750D01*
G01*
X137425000Y-132556250D01*
G75*
G02*
X137206250Y-132775000I-218750J0D01*
G01*
X136768750Y-132775000D01*
G75*
G02*
X136550000Y-132556250I0J218750D01*
G01*
G37*
G36*
G01*
X127256250Y-125225000D02*
X126743750Y-125225000D01*
G75*
G02*
X126525000Y-125006250I0J218750D01*
G01*
X126525000Y-124568750D01*
G75*
G02*
X126743750Y-124350000I218750J0D01*
G01*
X127256250Y-124350000D01*
G75*
G02*
X127475000Y-124568750I0J-218750D01*
G01*
X127475000Y-125006250D01*
G75*
G02*
X127256250Y-125225000I-218750J0D01*
G01*
G37*
G36*
G01*
X127256250Y-123650000D02*
X126743750Y-123650000D01*
G75*
G02*
X126525000Y-123431250I0J218750D01*
G01*
X126525000Y-122993750D01*
G75*
G02*
X126743750Y-122775000I218750J0D01*
G01*
X127256250Y-122775000D01*
G75*
G02*
X127475000Y-122993750I0J-218750D01*
G01*
X127475000Y-123431250D01*
G75*
G02*
X127256250Y-123650000I-218750J0D01*
G01*
G37*
G36*
G01*
X125656250Y-125212500D02*
X125143750Y-125212500D01*
G75*
G02*
X124925000Y-124993750I0J218750D01*
G01*
X124925000Y-124556250D01*
G75*
G02*
X125143750Y-124337500I218750J0D01*
G01*
X125656250Y-124337500D01*
G75*
G02*
X125875000Y-124556250I0J-218750D01*
G01*
X125875000Y-124993750D01*
G75*
G02*
X125656250Y-125212500I-218750J0D01*
G01*
G37*
G36*
G01*
X125656250Y-123637500D02*
X125143750Y-123637500D01*
G75*
G02*
X124925000Y-123418750I0J218750D01*
G01*
X124925000Y-122981250D01*
G75*
G02*
X125143750Y-122762500I218750J0D01*
G01*
X125656250Y-122762500D01*
G75*
G02*
X125875000Y-122981250I0J-218750D01*
G01*
X125875000Y-123418750D01*
G75*
G02*
X125656250Y-123637500I-218750J0D01*
G01*
G37*
G36*
G01*
X127256250Y-131525000D02*
X126743750Y-131525000D01*
G75*
G02*
X126525000Y-131306250I0J218750D01*
G01*
X126525000Y-130868750D01*
G75*
G02*
X126743750Y-130650000I218750J0D01*
G01*
X127256250Y-130650000D01*
G75*
G02*
X127475000Y-130868750I0J-218750D01*
G01*
X127475000Y-131306250D01*
G75*
G02*
X127256250Y-131525000I-218750J0D01*
G01*
G37*
G36*
G01*
X127256250Y-129950000D02*
X126743750Y-129950000D01*
G75*
G02*
X126525000Y-129731250I0J218750D01*
G01*
X126525000Y-129293750D01*
G75*
G02*
X126743750Y-129075000I218750J0D01*
G01*
X127256250Y-129075000D01*
G75*
G02*
X127475000Y-129293750I0J-218750D01*
G01*
X127475000Y-129731250D01*
G75*
G02*
X127256250Y-129950000I-218750J0D01*
G01*
G37*
G36*
G01*
X137425000Y-121943750D02*
X137425000Y-122456250D01*
G75*
G02*
X137206250Y-122675000I-218750J0D01*
G01*
X136768750Y-122675000D01*
G75*
G02*
X136550000Y-122456250I0J218750D01*
G01*
X136550000Y-121943750D01*
G75*
G02*
X136768750Y-121725000I218750J0D01*
G01*
X137206250Y-121725000D01*
G75*
G02*
X137425000Y-121943750I0J-218750D01*
G01*
G37*
G36*
G01*
X135850000Y-121943750D02*
X135850000Y-122456250D01*
G75*
G02*
X135631250Y-122675000I-218750J0D01*
G01*
X135193750Y-122675000D01*
G75*
G02*
X134975000Y-122456250I0J218750D01*
G01*
X134975000Y-121943750D01*
G75*
G02*
X135193750Y-121725000I218750J0D01*
G01*
X135631250Y-121725000D01*
G75*
G02*
X135850000Y-121943750I0J-218750D01*
G01*
G37*
G36*
G01*
X137425000Y-120343750D02*
X137425000Y-120856250D01*
G75*
G02*
X137206250Y-121075000I-218750J0D01*
G01*
X136768750Y-121075000D01*
G75*
G02*
X136550000Y-120856250I0J218750D01*
G01*
X136550000Y-120343750D01*
G75*
G02*
X136768750Y-120125000I218750J0D01*
G01*
X137206250Y-120125000D01*
G75*
G02*
X137425000Y-120343750I0J-218750D01*
G01*
G37*
G36*
G01*
X135850000Y-120343750D02*
X135850000Y-120856250D01*
G75*
G02*
X135631250Y-121075000I-218750J0D01*
G01*
X135193750Y-121075000D01*
G75*
G02*
X134975000Y-120856250I0J218750D01*
G01*
X134975000Y-120343750D01*
G75*
G02*
X135193750Y-120125000I218750J0D01*
G01*
X135631250Y-120125000D01*
G75*
G02*
X135850000Y-120343750I0J-218750D01*
G01*
G37*
G36*
G01*
X137425000Y-128543750D02*
X137425000Y-129056250D01*
G75*
G02*
X137206250Y-129275000I-218750J0D01*
G01*
X136768750Y-129275000D01*
G75*
G02*
X136550000Y-129056250I0J218750D01*
G01*
X136550000Y-128543750D01*
G75*
G02*
X136768750Y-128325000I218750J0D01*
G01*
X137206250Y-128325000D01*
G75*
G02*
X137425000Y-128543750I0J-218750D01*
G01*
G37*
G36*
G01*
X135850000Y-128543750D02*
X135850000Y-129056250D01*
G75*
G02*
X135631250Y-129275000I-218750J0D01*
G01*
X135193750Y-129275000D01*
G75*
G02*
X134975000Y-129056250I0J218750D01*
G01*
X134975000Y-128543750D01*
G75*
G02*
X135193750Y-128325000I218750J0D01*
G01*
X135631250Y-128325000D01*
G75*
G02*
X135850000Y-128543750I0J-218750D01*
G01*
G37*
G36*
G01*
X137425000Y-126943750D02*
X137425000Y-127456250D01*
G75*
G02*
X137206250Y-127675000I-218750J0D01*
G01*
X136768750Y-127675000D01*
G75*
G02*
X136550000Y-127456250I0J218750D01*
G01*
X136550000Y-126943750D01*
G75*
G02*
X136768750Y-126725000I218750J0D01*
G01*
X137206250Y-126725000D01*
G75*
G02*
X137425000Y-126943750I0J-218750D01*
G01*
G37*
G36*
G01*
X135850000Y-126943750D02*
X135850000Y-127456250D01*
G75*
G02*
X135631250Y-127675000I-218750J0D01*
G01*
X135193750Y-127675000D01*
G75*
G02*
X134975000Y-127456250I0J218750D01*
G01*
X134975000Y-126943750D01*
G75*
G02*
X135193750Y-126725000I218750J0D01*
G01*
X135631250Y-126725000D01*
G75*
G02*
X135850000Y-126943750I0J-218750D01*
G01*
G37*
G36*
G01*
X137462500Y-123493750D02*
X137462500Y-124006250D01*
G75*
G02*
X137243750Y-124225000I-218750J0D01*
G01*
X136806250Y-124225000D01*
G75*
G02*
X136587500Y-124006250I0J218750D01*
G01*
X136587500Y-123493750D01*
G75*
G02*
X136806250Y-123275000I218750J0D01*
G01*
X137243750Y-123275000D01*
G75*
G02*
X137462500Y-123493750I0J-218750D01*
G01*
G37*
G36*
G01*
X135887500Y-123493750D02*
X135887500Y-124006250D01*
G75*
G02*
X135668750Y-124225000I-218750J0D01*
G01*
X135231250Y-124225000D01*
G75*
G02*
X135012500Y-124006250I0J218750D01*
G01*
X135012500Y-123493750D01*
G75*
G02*
X135231250Y-123275000I218750J0D01*
G01*
X135668750Y-123275000D01*
G75*
G02*
X135887500Y-123493750I0J-218750D01*
G01*
G37*
G36*
G01*
X134962500Y-119256250D02*
X134962500Y-118743750D01*
G75*
G02*
X135181250Y-118525000I218750J0D01*
G01*
X135618750Y-118525000D01*
G75*
G02*
X135837500Y-118743750I0J-218750D01*
G01*
X135837500Y-119256250D01*
G75*
G02*
X135618750Y-119475000I-218750J0D01*
G01*
X135181250Y-119475000D01*
G75*
G02*
X134962500Y-119256250I0J218750D01*
G01*
G37*
G36*
G01*
X136537500Y-119256250D02*
X136537500Y-118743750D01*
G75*
G02*
X136756250Y-118525000I218750J0D01*
G01*
X137193750Y-118525000D01*
G75*
G02*
X137412500Y-118743750I0J-218750D01*
G01*
X137412500Y-119256250D01*
G75*
G02*
X137193750Y-119475000I-218750J0D01*
G01*
X136756250Y-119475000D01*
G75*
G02*
X136537500Y-119256250I0J218750D01*
G01*
G37*
G36*
G01*
X137425000Y-130243750D02*
X137425000Y-130756250D01*
G75*
G02*
X137206250Y-130975000I-218750J0D01*
G01*
X136768750Y-130975000D01*
G75*
G02*
X136550000Y-130756250I0J218750D01*
G01*
X136550000Y-130243750D01*
G75*
G02*
X136768750Y-130025000I218750J0D01*
G01*
X137206250Y-130025000D01*
G75*
G02*
X137425000Y-130243750I0J-218750D01*
G01*
G37*
G36*
G01*
X135850000Y-130243750D02*
X135850000Y-130756250D01*
G75*
G02*
X135631250Y-130975000I-218750J0D01*
G01*
X135193750Y-130975000D01*
G75*
G02*
X134975000Y-130756250I0J218750D01*
G01*
X134975000Y-130243750D01*
G75*
G02*
X135193750Y-130025000I218750J0D01*
G01*
X135631250Y-130025000D01*
G75*
G02*
X135850000Y-130243750I0J-218750D01*
G01*
G37*
G36*
G01*
X134975000Y-125856250D02*
X134975000Y-125343750D01*
G75*
G02*
X135193750Y-125125000I218750J0D01*
G01*
X135631250Y-125125000D01*
G75*
G02*
X135850000Y-125343750I0J-218750D01*
G01*
X135850000Y-125856250D01*
G75*
G02*
X135631250Y-126075000I-218750J0D01*
G01*
X135193750Y-126075000D01*
G75*
G02*
X134975000Y-125856250I0J218750D01*
G01*
G37*
G36*
G01*
X136550000Y-125856250D02*
X136550000Y-125343750D01*
G75*
G02*
X136768750Y-125125000I218750J0D01*
G01*
X137206250Y-125125000D01*
G75*
G02*
X137425000Y-125343750I0J-218750D01*
G01*
X137425000Y-125856250D01*
G75*
G02*
X137206250Y-126075000I-218750J0D01*
G01*
X136768750Y-126075000D01*
G75*
G02*
X136550000Y-125856250I0J218750D01*
G01*
G37*
D14*
X128500000Y-114650000D03*
X129000000Y-114650000D03*
X129500000Y-114650000D03*
X130000000Y-114650000D03*
X130500000Y-114650000D03*
X130500000Y-118950000D03*
X130000000Y-118950000D03*
X129500000Y-118950000D03*
X129000000Y-118950000D03*
X128500000Y-118950000D03*
X128600000Y-126400000D03*
X129100000Y-126400000D03*
X129600000Y-126400000D03*
X130100000Y-126400000D03*
X130600000Y-126400000D03*
X130600000Y-130700000D03*
X130100000Y-130700000D03*
X129600000Y-130700000D03*
X129100000Y-130700000D03*
X128600000Y-130700000D03*
G36*
G01*
X139362500Y-90643750D02*
X139362500Y-91156250D01*
G75*
G02*
X139143750Y-91375000I-218750J0D01*
G01*
X138706250Y-91375000D01*
G75*
G02*
X138487500Y-91156250I0J218750D01*
G01*
X138487500Y-90643750D01*
G75*
G02*
X138706250Y-90425000I218750J0D01*
G01*
X139143750Y-90425000D01*
G75*
G02*
X139362500Y-90643750I0J-218750D01*
G01*
G37*
G36*
G01*
X140937500Y-90643750D02*
X140937500Y-91156250D01*
G75*
G02*
X140718750Y-91375000I-218750J0D01*
G01*
X140281250Y-91375000D01*
G75*
G02*
X140062500Y-91156250I0J218750D01*
G01*
X140062500Y-90643750D01*
G75*
G02*
X140281250Y-90425000I218750J0D01*
G01*
X140718750Y-90425000D01*
G75*
G02*
X140937500Y-90643750I0J-218750D01*
G01*
G37*
X128750000Y-137350000D03*
X129250000Y-137350000D03*
X129750000Y-137350000D03*
X130250000Y-137350000D03*
X130750000Y-137350000D03*
X130750000Y-141650000D03*
X130250000Y-141650000D03*
X129750000Y-141650000D03*
X129250000Y-141650000D03*
X128750000Y-141650000D03*
D15*
X141500000Y-105250000D03*
X141500000Y-144000000D03*
D16*
X142950000Y-65150000D03*
X140950000Y-65150000D03*
X138950000Y-65150000D03*
X136950000Y-65150000D03*
X134950000Y-65150000D03*
X132950000Y-65150000D03*
X130950000Y-65150000D03*
D17*
X128950000Y-65150000D03*
G36*
G01*
X138745000Y-70550000D02*
X138445000Y-70550000D01*
G75*
G02*
X138295000Y-70400000I0J150000D01*
G01*
X138295000Y-68750000D01*
G75*
G02*
X138445000Y-68600000I150000J0D01*
G01*
X138745000Y-68600000D01*
G75*
G02*
X138895000Y-68750000I0J-150000D01*
G01*
X138895000Y-70400000D01*
G75*
G02*
X138745000Y-70550000I-150000J0D01*
G01*
G37*
G36*
G01*
X140015000Y-70550000D02*
X139715000Y-70550000D01*
G75*
G02*
X139565000Y-70400000I0J150000D01*
G01*
X139565000Y-68750000D01*
G75*
G02*
X139715000Y-68600000I150000J0D01*
G01*
X140015000Y-68600000D01*
G75*
G02*
X140165000Y-68750000I0J-150000D01*
G01*
X140165000Y-70400000D01*
G75*
G02*
X140015000Y-70550000I-150000J0D01*
G01*
G37*
G36*
G01*
X141285000Y-70550000D02*
X140985000Y-70550000D01*
G75*
G02*
X140835000Y-70400000I0J150000D01*
G01*
X140835000Y-68750000D01*
G75*
G02*
X140985000Y-68600000I150000J0D01*
G01*
X141285000Y-68600000D01*
G75*
G02*
X141435000Y-68750000I0J-150000D01*
G01*
X141435000Y-70400000D01*
G75*
G02*
X141285000Y-70550000I-150000J0D01*
G01*
G37*
G36*
G01*
X142555000Y-70550000D02*
X142255000Y-70550000D01*
G75*
G02*
X142105000Y-70400000I0J150000D01*
G01*
X142105000Y-68750000D01*
G75*
G02*
X142255000Y-68600000I150000J0D01*
G01*
X142555000Y-68600000D01*
G75*
G02*
X142705000Y-68750000I0J-150000D01*
G01*
X142705000Y-70400000D01*
G75*
G02*
X142555000Y-70550000I-150000J0D01*
G01*
G37*
G36*
G01*
X142555000Y-75500000D02*
X142255000Y-75500000D01*
G75*
G02*
X142105000Y-75350000I0J150000D01*
G01*
X142105000Y-73700000D01*
G75*
G02*
X142255000Y-73550000I150000J0D01*
G01*
X142555000Y-73550000D01*
G75*
G02*
X142705000Y-73700000I0J-150000D01*
G01*
X142705000Y-75350000D01*
G75*
G02*
X142555000Y-75500000I-150000J0D01*
G01*
G37*
G36*
G01*
X141285000Y-75500000D02*
X140985000Y-75500000D01*
G75*
G02*
X140835000Y-75350000I0J150000D01*
G01*
X140835000Y-73700000D01*
G75*
G02*
X140985000Y-73550000I150000J0D01*
G01*
X141285000Y-73550000D01*
G75*
G02*
X141435000Y-73700000I0J-150000D01*
G01*
X141435000Y-75350000D01*
G75*
G02*
X141285000Y-75500000I-150000J0D01*
G01*
G37*
G36*
G01*
X140015000Y-75500000D02*
X139715000Y-75500000D01*
G75*
G02*
X139565000Y-75350000I0J150000D01*
G01*
X139565000Y-73700000D01*
G75*
G02*
X139715000Y-73550000I150000J0D01*
G01*
X140015000Y-73550000D01*
G75*
G02*
X140165000Y-73700000I0J-150000D01*
G01*
X140165000Y-75350000D01*
G75*
G02*
X140015000Y-75500000I-150000J0D01*
G01*
G37*
G36*
G01*
X138745000Y-75500000D02*
X138445000Y-75500000D01*
G75*
G02*
X138295000Y-75350000I0J150000D01*
G01*
X138295000Y-73700000D01*
G75*
G02*
X138445000Y-73550000I150000J0D01*
G01*
X138745000Y-73550000D01*
G75*
G02*
X138895000Y-73700000I0J-150000D01*
G01*
X138895000Y-75350000D01*
G75*
G02*
X138745000Y-75500000I-150000J0D01*
G01*
G37*
D18*
X134700000Y-78950000D03*
X135500000Y-78950000D03*
X136300000Y-78950000D03*
X137100000Y-78950000D03*
X137900000Y-78950000D03*
X138700000Y-78950000D03*
X139500000Y-78950000D03*
X140300000Y-78950000D03*
D19*
X141750000Y-80400000D03*
X141750000Y-81200000D03*
X141750000Y-82000000D03*
X141750000Y-82800000D03*
X141750000Y-83600000D03*
X141750000Y-84400000D03*
X141750000Y-85200000D03*
X141750000Y-86000000D03*
D18*
X140300000Y-87450000D03*
X139500000Y-87450000D03*
X138700000Y-87450000D03*
X137900000Y-87450000D03*
X137100000Y-87450000D03*
X136300000Y-87450000D03*
X135500000Y-87450000D03*
X134700000Y-87450000D03*
D19*
X133250000Y-86000000D03*
X133250000Y-85200000D03*
X133250000Y-84400000D03*
X133250000Y-83600000D03*
X133250000Y-82800000D03*
X133250000Y-82000000D03*
X133250000Y-81200000D03*
X133250000Y-80400000D03*
D20*
X129737500Y-91900000D03*
X129737500Y-92900000D03*
X129737500Y-93900000D03*
X129737500Y-94900000D03*
D21*
X125862500Y-90600000D03*
X125862500Y-96200000D03*
X125862500Y-104100000D03*
X125862500Y-98500000D03*
D20*
X129737500Y-102800000D03*
X129737500Y-101800000D03*
X129737500Y-100800000D03*
X129737500Y-99800000D03*
X139162500Y-97200000D03*
X139162500Y-96200000D03*
X139162500Y-95200000D03*
X139162500Y-94200000D03*
D21*
X143037500Y-98500000D03*
X143037500Y-92900000D03*
D22*
X126500000Y-80800000D03*
X126500000Y-84800000D03*
X128900000Y-80800000D03*
X128900000Y-84800000D03*
D23*
X127200000Y-72240000D03*
D24*
X126200000Y-68690000D03*
X128200000Y-68690000D03*
D25*
X131200000Y-85200000D03*
X131200000Y-87600000D03*
X131200000Y-86400000D03*
D26*
X129300000Y-75500000D03*
X128350000Y-75500000D03*
X127400000Y-75500000D03*
X127400000Y-78200000D03*
X129300000Y-78200000D03*
M02*
