M48
; DRILL file {KiCad (6.0.6)} date Fri Sep  2 14:12:27 2022
; FORMAT={-:-/ absolute / inch / decimal}
; #@! TF.CreationDate,2022-09-02T14:12:27+02:00
; #@! TF.GenerationSoftware,Kicad,Pcbnew,(6.0.6)
; #@! TF.FileFunction,Plated,1,4,PTH
FMAT,2
INCH
; #@! TA.AperFunction,Plated,PTH,ViaDrill
T1C0.0157
; #@! TA.AperFunction,Plated,PTH,ComponentDrill
T2C0.0315
; #@! TA.AperFunction,Plated,PTH,ComponentDrill
T3C0.0394
%
G90
G05
T1
X4.9213Y-5.689
X4.9508Y-5.3445
X4.9803Y-3.6811
X4.9803Y-5.0
X4.9902Y-4.3443
X5.0042Y-4.6683
X5.0295Y-3.7402
X5.0317Y-4.2335
X5.0327Y-4.5526
X5.0327Y-4.9083
X5.0327Y-5.2387
X5.0327Y-5.5798
X5.0492Y-3.6713
X5.0661Y-2.4654
X5.1134Y-2.4654
X5.1517Y-4.3835
X5.1527Y-4.7219
X5.1527Y-5.3887
X5.1527Y-5.7298
X5.1537Y-5.0481
X5.1654Y-2.4646
X5.1969Y-4.4967
X5.1969Y-4.8327
X5.1969Y-5.1673
X5.2018Y-4.0207
X5.2067Y-5.5217
X5.2165Y-4.1671
X5.2171Y-1.4094
X5.2171Y-1.4685
X5.2289Y-1.5669
X5.2402Y-4.0394
X5.2559Y-4.8228
X5.2559Y-5.1575
X5.2657Y-5.4921
X5.2722Y-1.4094
X5.2722Y-1.4685
X5.2722Y-1.5236
X5.2756Y-4.4868
X5.2756Y-5.8465
X5.3234Y-1.4094
X5.3234Y-1.4567
X5.3346Y-5.5413
X5.3386Y-2.4016
X5.3386Y-2.4606
X5.3386Y-2.5197
X5.3445Y-4.2065
X5.3445Y-4.8622
X5.3445Y-5.2067
X5.3864Y-1.6457
X5.3937Y-2.4606
X5.4027Y-1.6855
X5.4031Y-1.6094
X5.4055Y-2.2638
X5.4258Y-1.9291
X5.4429Y-1.8799
X5.4528Y-3.8976
X5.463Y-2.2654
X5.4823Y-1.8209
X5.5118Y-3.8976
X5.5181Y-2.2654
X5.5315Y-3.9764
X5.5807Y-3.9764
X5.5807Y-4.0157
X5.5833Y-1.9291
X5.5984Y-3.7441
X5.6187Y-1.8504
X5.6201Y-1.6713
X5.6201Y-1.7146
X5.6201Y-1.7618
T2
X5.0656Y-1.3366
X5.1443Y-1.3366
X5.223Y-1.3366
X5.3018Y-1.3366
X5.3805Y-1.3366
X5.4593Y-1.3366
X5.538Y-1.3366
X5.6167Y-1.3366
T3
X5.0Y-2.1654
X5.0Y-2.2654
X5.0Y-2.3654
X5.0Y-2.4654
X5.0Y-2.5654
X5.0Y-2.6654
X5.0Y-2.7654
X5.0Y-2.8654
X5.0Y-2.9654
X5.0Y-3.0654
X5.0Y-3.1654
X5.0Y-3.2654
X5.0Y-3.3654
X5.0Y-3.4654
X5.0Y-3.5654
X5.5906Y-5.6398
X5.5906Y-5.7398
X5.5915Y-4.2951
X5.5915Y-4.3951
X5.5915Y-4.6327
X5.5915Y-4.7327
X5.5915Y-4.9689
X5.5915Y-5.0689
X5.5915Y-5.2995
X5.5915Y-5.3995
X5.6Y-2.1654
X5.6Y-2.2654
X5.6Y-2.3654
X5.6Y-2.4654
X5.6Y-2.5654
X5.6Y-2.6654
X5.6Y-2.7654
X5.6Y-2.8654
X5.6Y-2.9654
X5.6Y-3.0654
X5.6Y-3.1654
X5.6Y-3.2654
X5.6Y-3.3654
X5.6Y-3.4654
X5.6Y-3.5654
T0
M30
