G04 #@! TF.GenerationSoftware,KiCad,Pcbnew,(6.0.6)*
G04 #@! TF.CreationDate,2022-09-02T14:12:24+02:00*
G04 #@! TF.ProjectId,PAINTREv4,5041494e-5452-4457-9634-2e6b69636164,rev?*
G04 #@! TF.SameCoordinates,Original*
G04 #@! TF.FileFunction,Legend,Top*
G04 #@! TF.FilePolarity,Positive*
%FSLAX46Y46*%
G04 Gerber Fmt 4.6, Leading zero omitted, Abs format (unit mm)*
G04 Created by KiCad (PCBNEW (6.0.6)) date 2022-09-02 14:12:24*
%MOMM*%
%LPD*%
G01*
G04 APERTURE LIST*
%ADD10C,0.150000*%
G04 #@! TA.AperFunction,Profile*
%ADD11C,0.150000*%
G04 #@! TD*
G04 #@! TA.AperFunction,Profile*
%ADD12C,0.100000*%
G04 #@! TD*
%ADD13C,0.125000*%
%ADD14C,0.120000*%
%ADD15C,0.127000*%
%ADD16C,0.200000*%
G04 APERTURE END LIST*
D10*
X142484464Y-36257142D02*
X142758273Y-36352380D01*
X142841607Y-36447619D01*
X142913035Y-36638095D01*
X142877321Y-36923809D01*
X142758273Y-37114285D01*
X142651130Y-37209523D01*
X142448750Y-37304761D01*
X141686845Y-37304761D01*
X141936845Y-35304761D01*
X142603511Y-35304761D01*
X142782083Y-35400000D01*
X142865416Y-35495238D01*
X142936845Y-35685714D01*
X142913035Y-35876190D01*
X142793988Y-36066666D01*
X142686845Y-36161904D01*
X142484464Y-36257142D01*
X141817797Y-36257142D01*
X137005892Y-36733333D02*
X137958273Y-36733333D01*
X136743988Y-37304761D02*
X137660654Y-35304761D01*
X138077321Y-37304761D01*
X142929761Y-140017916D02*
X142929761Y-141160773D01*
X142929761Y-140589345D02*
X140929761Y-140339345D01*
X141215476Y-140565535D01*
X141405952Y-140779821D01*
X141501190Y-140982202D01*
X141295238Y-132534583D02*
X141200000Y-132427440D01*
X141104761Y-132225059D01*
X141104761Y-131748869D01*
X141200000Y-131570297D01*
X141295238Y-131486964D01*
X141485714Y-131415535D01*
X141676190Y-131439345D01*
X141961904Y-131570297D01*
X143104761Y-132856011D01*
X143104761Y-131617916D01*
X141104761Y-124206011D02*
X141104761Y-122967916D01*
X141866666Y-123729821D01*
X141866666Y-123444107D01*
X141961904Y-123265535D01*
X142057142Y-123182202D01*
X142247619Y-123110773D01*
X142723809Y-123170297D01*
X142914285Y-123289345D01*
X143009523Y-123396488D01*
X143104761Y-123598869D01*
X143104761Y-124170297D01*
X143009523Y-124348869D01*
X142914285Y-124432202D01*
X141771428Y-114641726D02*
X143104761Y-114808392D01*
X141009523Y-115022678D02*
X142438095Y-115677440D01*
X142438095Y-114439345D01*
X140904761Y-106063154D02*
X140904761Y-107015535D01*
X141857142Y-107229821D01*
X141761904Y-107122678D01*
X141666666Y-106920297D01*
X141666666Y-106444107D01*
X141761904Y-106265535D01*
X141857142Y-106182202D01*
X142047619Y-106110773D01*
X142523809Y-106170297D01*
X142714285Y-106289345D01*
X142809523Y-106396488D01*
X142904761Y-106598869D01*
X142904761Y-107075059D01*
X142809523Y-107253630D01*
X142714285Y-107336964D01*
X143715000Y-36800000D02*
X143715000Y-35050000D01*
X128665000Y-32890000D02*
X129665000Y-32890000D01*
X139250000Y-45400000D02*
G75*
G03*
X139250000Y-45400000I-250000J0D01*
G01*
X131665000Y-32900000D02*
X131665000Y-35000000D01*
X127605000Y-33950000D02*
X127615000Y-35000000D01*
X139715000Y-35000000D02*
X139715000Y-32900000D01*
X127615000Y-35000000D02*
X129665000Y-35000000D01*
X135715000Y-36800000D02*
X135715000Y-32900000D01*
D11*
X144200000Y-32450000D02*
X144200000Y-154000000D01*
X124200000Y-154000000D02*
X124200000Y-32450000D01*
D12*
X124200000Y-154000000D02*
X144200000Y-154000000D01*
D11*
X124200000Y-32450000D02*
X144200000Y-32450000D01*
D10*
X142019047Y-147671428D02*
X142780952Y-147671428D01*
X133419047Y-36471428D02*
X134180952Y-36471428D01*
X129219047Y-35771428D02*
X129980952Y-35771428D01*
X129600000Y-36152380D02*
X129600000Y-35390476D01*
X122491072Y-104053959D02*
X122538691Y-103917054D01*
X122586310Y-103875387D01*
X122681548Y-103839673D01*
X122824405Y-103857530D01*
X122919643Y-103917054D01*
X122967262Y-103970626D01*
X123014881Y-104071816D01*
X123014881Y-104452768D01*
X122014881Y-104327768D01*
X122014881Y-103994435D01*
X122062501Y-103905149D01*
X122110120Y-103863483D01*
X122205358Y-103827768D01*
X122300596Y-103839673D01*
X122395834Y-103899197D01*
X122443453Y-103952768D01*
X122491072Y-104053959D01*
X122491072Y-104387292D01*
X123014881Y-103452768D02*
X122014881Y-103327768D01*
X123014881Y-102881340D01*
X122014881Y-102756340D01*
X122014881Y-102089673D02*
X122014881Y-101899197D01*
X122062501Y-101809911D01*
X122157739Y-101726578D01*
X122348215Y-101702768D01*
X122681548Y-101744435D01*
X122872024Y-101815864D01*
X122967262Y-101923006D01*
X123014881Y-102024197D01*
X123014881Y-102214673D01*
X122967262Y-102303959D01*
X122872024Y-102387292D01*
X122681548Y-102411102D01*
X122348215Y-102369435D01*
X122157739Y-102298006D01*
X122062501Y-102190864D01*
X122014881Y-102089673D01*
X122014881Y-101042054D02*
X122014881Y-100946816D01*
X122062501Y-100857530D01*
X122110120Y-100815864D01*
X122205358Y-100780149D01*
X122395834Y-100756340D01*
X122633929Y-100786102D01*
X122824405Y-100857530D01*
X122919643Y-100917054D01*
X122967262Y-100970626D01*
X123014881Y-101071816D01*
X123014881Y-101167054D01*
X122967262Y-101256340D01*
X122919643Y-101298006D01*
X122824405Y-101333721D01*
X122633929Y-101357530D01*
X122395834Y-101327768D01*
X122205358Y-101256340D01*
X122110120Y-101196816D01*
X122062501Y-101143245D01*
X122014881Y-101042054D01*
X122443453Y-100190864D02*
X122395834Y-100280149D01*
X122348215Y-100321816D01*
X122252977Y-100357530D01*
X122205358Y-100351578D01*
X122110120Y-100292054D01*
X122062501Y-100238483D01*
X122014881Y-100137292D01*
X122014881Y-99946816D01*
X122062501Y-99857530D01*
X122110120Y-99815864D01*
X122205358Y-99780149D01*
X122252977Y-99786102D01*
X122348215Y-99845626D01*
X122395834Y-99899197D01*
X122443453Y-100000387D01*
X122443453Y-100190864D01*
X122491072Y-100292054D01*
X122538691Y-100345626D01*
X122633929Y-100405149D01*
X122824405Y-100428959D01*
X122919643Y-100393245D01*
X122967262Y-100351578D01*
X123014881Y-100262292D01*
X123014881Y-100071816D01*
X122967262Y-99970626D01*
X122919643Y-99917054D01*
X122824405Y-99857530D01*
X122633929Y-99833721D01*
X122538691Y-99869435D01*
X122491072Y-99911102D01*
X122443453Y-100000387D01*
X122014881Y-99137292D02*
X122014881Y-99042054D01*
X122062501Y-98952768D01*
X122110120Y-98911102D01*
X122205358Y-98875387D01*
X122395834Y-98851578D01*
X122633929Y-98881340D01*
X122824405Y-98952768D01*
X122919643Y-99012292D01*
X122967262Y-99065864D01*
X123014881Y-99167054D01*
X123014881Y-99262292D01*
X122967262Y-99351578D01*
X122919643Y-99393245D01*
X122824405Y-99428959D01*
X122633929Y-99452768D01*
X122395834Y-99423006D01*
X122205358Y-99351578D01*
X122110120Y-99292054D01*
X122062501Y-99238483D01*
X122014881Y-99137292D01*
X126685714Y-52566666D02*
X127161904Y-52566666D01*
X126590476Y-52852380D02*
X126923809Y-51852380D01*
X127257142Y-52852380D01*
X128114285Y-52852380D02*
X127542857Y-52852380D01*
X127828571Y-52852380D02*
X127828571Y-51852380D01*
X127733333Y-51995238D01*
X127638095Y-52090476D01*
X127542857Y-52138095D01*
D13*
X125821190Y-39882380D02*
X125821190Y-38882380D01*
X125821190Y-39263333D02*
X125868809Y-39215714D01*
X125964047Y-39215714D01*
X126011666Y-39263333D01*
X126035476Y-39310952D01*
X126059285Y-39406190D01*
X126059285Y-39691904D01*
X126035476Y-39787142D01*
X126011666Y-39834761D01*
X125964047Y-39882380D01*
X125868809Y-39882380D01*
X125821190Y-39834761D01*
X126464047Y-39834761D02*
X126416428Y-39882380D01*
X126321190Y-39882380D01*
X126273571Y-39834761D01*
X126249761Y-39739523D01*
X126249761Y-39358571D01*
X126273571Y-39263333D01*
X126321190Y-39215714D01*
X126416428Y-39215714D01*
X126464047Y-39263333D01*
X126487857Y-39358571D01*
X126487857Y-39453809D01*
X126249761Y-39549047D01*
X126916428Y-39882380D02*
X126916428Y-39358571D01*
X126892619Y-39263333D01*
X126845000Y-39215714D01*
X126749761Y-39215714D01*
X126702142Y-39263333D01*
X126916428Y-39834761D02*
X126868809Y-39882380D01*
X126749761Y-39882380D01*
X126702142Y-39834761D01*
X126678333Y-39739523D01*
X126678333Y-39644285D01*
X126702142Y-39549047D01*
X126749761Y-39501428D01*
X126868809Y-39501428D01*
X126916428Y-39453809D01*
X127368809Y-39882380D02*
X127368809Y-38882380D01*
X127368809Y-39834761D02*
X127321190Y-39882380D01*
X127225952Y-39882380D01*
X127178333Y-39834761D01*
X127154523Y-39787142D01*
X127130714Y-39691904D01*
X127130714Y-39406190D01*
X127154523Y-39310952D01*
X127178333Y-39263333D01*
X127225952Y-39215714D01*
X127321190Y-39215714D01*
X127368809Y-39263333D01*
D10*
X134260714Y-46118333D02*
X134295476Y-46152142D01*
X134330238Y-46253571D01*
X134330238Y-46321190D01*
X134295476Y-46422619D01*
X134225952Y-46490238D01*
X134156428Y-46524047D01*
X134017380Y-46557857D01*
X133913095Y-46557857D01*
X133774047Y-46524047D01*
X133704523Y-46490238D01*
X133635000Y-46422619D01*
X133600238Y-46321190D01*
X133600238Y-46253571D01*
X133635000Y-46152142D01*
X133669761Y-46118333D01*
X133600238Y-45881666D02*
X133600238Y-45408333D01*
X134330238Y-45712619D01*
X135166666Y-104178571D02*
X134833333Y-104178571D01*
X134833333Y-104702380D02*
X134833333Y-103702380D01*
X135309523Y-103702380D01*
X136214285Y-104702380D02*
X135642857Y-104702380D01*
X135928571Y-104702380D02*
X135928571Y-103702380D01*
X135833333Y-103845238D01*
X135738095Y-103940476D01*
X135642857Y-103988095D01*
X125617380Y-34283333D02*
X126331666Y-34283333D01*
X126474523Y-34330952D01*
X126569761Y-34426190D01*
X126617380Y-34569047D01*
X126617380Y-34664285D01*
X126617380Y-33283333D02*
X126617380Y-33854761D01*
X126617380Y-33569047D02*
X125617380Y-33569047D01*
X125760238Y-33664285D01*
X125855476Y-33759523D01*
X125903095Y-33854761D01*
X130141095Y-130566380D02*
X130141095Y-131375904D01*
X130188714Y-131471142D01*
X130236333Y-131518761D01*
X130331571Y-131566380D01*
X130522047Y-131566380D01*
X130617285Y-131518761D01*
X130664904Y-131471142D01*
X130712523Y-131375904D01*
X130712523Y-130566380D01*
X131093476Y-130566380D02*
X131712523Y-130566380D01*
X131379190Y-130947333D01*
X131522047Y-130947333D01*
X131617285Y-130994952D01*
X131664904Y-131042571D01*
X131712523Y-131137809D01*
X131712523Y-131375904D01*
X131664904Y-131471142D01*
X131617285Y-131518761D01*
X131522047Y-131566380D01*
X131236333Y-131566380D01*
X131141095Y-131518761D01*
X131093476Y-131471142D01*
X130116095Y-139217380D02*
X130116095Y-140026904D01*
X130163714Y-140122142D01*
X130211333Y-140169761D01*
X130306571Y-140217380D01*
X130497047Y-140217380D01*
X130592285Y-140169761D01*
X130639904Y-140122142D01*
X130687523Y-140026904D01*
X130687523Y-139217380D01*
X131116095Y-139312619D02*
X131163714Y-139265000D01*
X131258952Y-139217380D01*
X131497047Y-139217380D01*
X131592285Y-139265000D01*
X131639904Y-139312619D01*
X131687523Y-139407857D01*
X131687523Y-139503095D01*
X131639904Y-139645952D01*
X131068476Y-140217380D01*
X131687523Y-140217380D01*
X130116095Y-122280380D02*
X130116095Y-123089904D01*
X130163714Y-123185142D01*
X130211333Y-123232761D01*
X130306571Y-123280380D01*
X130497047Y-123280380D01*
X130592285Y-123232761D01*
X130639904Y-123185142D01*
X130687523Y-123089904D01*
X130687523Y-122280380D01*
X131592285Y-122613714D02*
X131592285Y-123280380D01*
X131354190Y-122232761D02*
X131116095Y-122947047D01*
X131735142Y-122947047D01*
X141849523Y-44687619D02*
X142367619Y-44687619D01*
X142428571Y-44657142D01*
X142459047Y-44626666D01*
X142489523Y-44565714D01*
X142489523Y-44443809D01*
X142459047Y-44382857D01*
X142428571Y-44352380D01*
X142367619Y-44321904D01*
X141849523Y-44321904D01*
X141849523Y-43742857D02*
X141849523Y-43864761D01*
X141880000Y-43925714D01*
X141910476Y-43956190D01*
X142001904Y-44017142D01*
X142123809Y-44047619D01*
X142367619Y-44047619D01*
X142428571Y-44017142D01*
X142459047Y-43986666D01*
X142489523Y-43925714D01*
X142489523Y-43803809D01*
X142459047Y-43742857D01*
X142428571Y-43712380D01*
X142367619Y-43681904D01*
X142215238Y-43681904D01*
X142154285Y-43712380D01*
X142123809Y-43742857D01*
X142093333Y-43803809D01*
X142093333Y-43925714D01*
X142123809Y-43986666D01*
X142154285Y-44017142D01*
X142215238Y-44047619D01*
X130091095Y-113685380D02*
X130091095Y-114494904D01*
X130138714Y-114590142D01*
X130186333Y-114637761D01*
X130281571Y-114685380D01*
X130472047Y-114685380D01*
X130567285Y-114637761D01*
X130614904Y-114590142D01*
X130662523Y-114494904D01*
X130662523Y-113685380D01*
X131614904Y-113685380D02*
X131138714Y-113685380D01*
X131091095Y-114161571D01*
X131138714Y-114113952D01*
X131233952Y-114066333D01*
X131472047Y-114066333D01*
X131567285Y-114113952D01*
X131614904Y-114161571D01*
X131662523Y-114256809D01*
X131662523Y-114494904D01*
X131614904Y-114590142D01*
X131567285Y-114637761D01*
X131472047Y-114685380D01*
X131233952Y-114685380D01*
X131138714Y-114637761D01*
X131091095Y-114590142D01*
X130116095Y-147880380D02*
X130116095Y-148689904D01*
X130163714Y-148785142D01*
X130211333Y-148832761D01*
X130306571Y-148880380D01*
X130497047Y-148880380D01*
X130592285Y-148832761D01*
X130639904Y-148785142D01*
X130687523Y-148689904D01*
X130687523Y-147880380D01*
X131687523Y-148880380D02*
X131116095Y-148880380D01*
X131401809Y-148880380D02*
X131401809Y-147880380D01*
X131306571Y-148023238D01*
X131211333Y-148118476D01*
X131116095Y-148166095D01*
D14*
X125600000Y-56270000D02*
X125600000Y-94500000D01*
X125600000Y-51060000D02*
X125600000Y-53730000D01*
X140970000Y-91830000D02*
X143640000Y-91830000D01*
X143640000Y-94500000D02*
X143640000Y-51060000D01*
X128270000Y-56270000D02*
X128270000Y-53730000D01*
X143640000Y-51060000D02*
X125600000Y-51060000D01*
X125600000Y-94500000D02*
X143640000Y-94500000D01*
X140970000Y-53730000D02*
X140970000Y-91830000D01*
X128270000Y-53730000D02*
X125600000Y-53730000D01*
X128270000Y-91830000D02*
X125600000Y-91830000D01*
X128270000Y-56270000D02*
X125600000Y-56270000D01*
X140970000Y-53730000D02*
X143640000Y-53730000D01*
X128270000Y-56270000D02*
X128270000Y-91830000D01*
X135369000Y-108647420D02*
X135369000Y-108928580D01*
X136389000Y-108647420D02*
X136389000Y-108928580D01*
X125545000Y-40480000D02*
X125545000Y-38480000D01*
X127685000Y-38480000D02*
X127685000Y-40480000D01*
X135020000Y-47000000D02*
X135020000Y-45000000D01*
X132980000Y-45000000D02*
X132980000Y-47000000D01*
X135237221Y-103110000D02*
X135562779Y-103110000D01*
X135237221Y-102090000D02*
X135562779Y-102090000D01*
X135237221Y-101310000D02*
X135562779Y-101310000D01*
X135237221Y-100290000D02*
X135562779Y-100290000D01*
X132149721Y-99710000D02*
X132475279Y-99710000D01*
X132149721Y-98690000D02*
X132475279Y-98690000D01*
X132137221Y-100290000D02*
X132462779Y-100290000D01*
X132137221Y-101310000D02*
X132462779Y-101310000D01*
X135249721Y-99710000D02*
X135575279Y-99710000D01*
X135249721Y-98690000D02*
X135575279Y-98690000D01*
X127605000Y-32890000D02*
X128665000Y-32890000D01*
X127605000Y-33950000D02*
X127605000Y-32890000D01*
X143725000Y-35010000D02*
X143725000Y-32890000D01*
X129665000Y-32890000D02*
X143725000Y-32890000D01*
X129665000Y-35010000D02*
X129665000Y-32890000D01*
X129665000Y-35010000D02*
X143725000Y-35010000D01*
X138600000Y-103900000D02*
G75*
G03*
X138600000Y-103900000I-250000J0D01*
G01*
X138925000Y-104400000D02*
X138925000Y-103500000D01*
X139425000Y-103900000D02*
X139425000Y-104400000D01*
X140125000Y-98400000D02*
X140125000Y-98900000D01*
X140125000Y-98900000D02*
X140125000Y-98900000D01*
X140125000Y-98900000D02*
X138925000Y-98900000D01*
X139425000Y-98400000D02*
X139425000Y-98900000D01*
X139425000Y-98900000D02*
X139425000Y-98900000D01*
X139425000Y-98400000D02*
X139425000Y-98400000D01*
X140125000Y-104400000D02*
X140125000Y-104400000D01*
X140125000Y-98900000D02*
X140125000Y-98400000D01*
X141275000Y-104400000D02*
X138925000Y-104400000D01*
X138925000Y-98400000D02*
X138925000Y-99300000D01*
X139425000Y-104400000D02*
X139425000Y-103900000D01*
X138925000Y-103900000D02*
X138925000Y-103900000D01*
X138925000Y-98900000D02*
X138925000Y-98900000D01*
X140125000Y-103900000D02*
X140125000Y-103900000D01*
X140125000Y-98900000D02*
X140125000Y-98900000D01*
X139425000Y-98900000D02*
X139425000Y-98400000D01*
X140125000Y-98400000D02*
X140125000Y-98400000D01*
X143175000Y-103300000D02*
X143175000Y-99500000D01*
X140125000Y-103900000D02*
X138925000Y-103900000D01*
X140125000Y-103900000D02*
X140125000Y-103900000D01*
X139425000Y-103900000D02*
X139425000Y-103900000D01*
X138925000Y-103900000D02*
X140125000Y-103900000D01*
X140125000Y-103900000D02*
X140125000Y-104400000D01*
X141275000Y-98400000D02*
X138925000Y-98400000D01*
X140125000Y-104400000D02*
X140125000Y-103900000D01*
X138925000Y-98900000D02*
X140125000Y-98900000D01*
X139425000Y-104400000D02*
X139425000Y-104400000D01*
X140090279Y-48540000D02*
X139764721Y-48540000D01*
X140090279Y-49560000D02*
X139764721Y-49560000D01*
X138622580Y-127716000D02*
X138341420Y-127716000D01*
X138622580Y-126696000D02*
X138341420Y-126696000D01*
X129698721Y-123521000D02*
X130024279Y-123521000D01*
X129698721Y-124541000D02*
X130024279Y-124541000D01*
X135394000Y-146170420D02*
X135394000Y-146451580D01*
X136414000Y-146170420D02*
X136414000Y-146451580D01*
X140152779Y-36810000D02*
X139827221Y-36810000D01*
X140152779Y-35790000D02*
X139827221Y-35790000D01*
X136414000Y-142842420D02*
X136414000Y-143123580D01*
X135394000Y-142842420D02*
X135394000Y-143123580D01*
X133010420Y-115240000D02*
X133291580Y-115240000D01*
X133010420Y-116260000D02*
X133291580Y-116260000D01*
X130903000Y-130274000D02*
X128953000Y-130274000D01*
X130903000Y-125154000D02*
X132853000Y-125154000D01*
X130903000Y-130274000D02*
X134353000Y-130274000D01*
X130903000Y-125154000D02*
X128953000Y-125154000D01*
X136414000Y-137507420D02*
X136414000Y-137788580D01*
X135394000Y-137507420D02*
X135394000Y-137788580D01*
X133010420Y-141855000D02*
X133291580Y-141855000D01*
X133010420Y-140835000D02*
X133291580Y-140835000D01*
X138606779Y-141724000D02*
X138281221Y-141724000D01*
X138606779Y-142744000D02*
X138281221Y-142744000D01*
X129648721Y-106640000D02*
X129974279Y-106640000D01*
X129648721Y-107660000D02*
X129974279Y-107660000D01*
X138597580Y-119430000D02*
X138316420Y-119430000D01*
X138597580Y-118410000D02*
X138316420Y-118410000D01*
X138303420Y-110855000D02*
X138584580Y-110855000D01*
X138303420Y-109835000D02*
X138584580Y-109835000D01*
X140695000Y-127480000D02*
X143355000Y-127480000D01*
X140695000Y-130080000D02*
X143355000Y-130080000D01*
X143355000Y-124880000D02*
X143355000Y-126210000D01*
X142025000Y-124880000D02*
X143355000Y-124880000D01*
X143355000Y-127480000D02*
X143355000Y-130080000D01*
X140695000Y-127480000D02*
X140695000Y-130080000D01*
X141620000Y-38599721D02*
X141620000Y-38925279D01*
X140600000Y-38599721D02*
X140600000Y-38925279D01*
X129673721Y-133192000D02*
X129999279Y-133192000D01*
X129673721Y-132172000D02*
X129999279Y-132172000D01*
X140695000Y-121540000D02*
X143355000Y-121540000D01*
X140695000Y-118940000D02*
X143355000Y-118940000D01*
X140695000Y-118940000D02*
X140695000Y-121540000D01*
X143355000Y-116340000D02*
X143355000Y-117670000D01*
X143355000Y-118940000D02*
X143355000Y-121540000D01*
X142025000Y-116340000D02*
X143355000Y-116340000D01*
X133035420Y-123521000D02*
X133316580Y-123521000D01*
X133035420Y-124541000D02*
X133316580Y-124541000D01*
X138581779Y-107529000D02*
X138256221Y-107529000D01*
X138581779Y-108549000D02*
X138256221Y-108549000D01*
X136439000Y-128856420D02*
X136439000Y-129137580D01*
X135419000Y-128856420D02*
X135419000Y-129137580D01*
X135394000Y-134179420D02*
X135394000Y-134460580D01*
X136414000Y-134179420D02*
X136414000Y-134460580D01*
X143355000Y-135877000D02*
X143355000Y-138477000D01*
X140695000Y-135877000D02*
X140695000Y-138477000D01*
X140695000Y-135877000D02*
X143355000Y-135877000D01*
X140695000Y-138477000D02*
X143355000Y-138477000D01*
X142025000Y-133277000D02*
X143355000Y-133277000D01*
X143355000Y-133277000D02*
X143355000Y-134607000D01*
X130878000Y-138925000D02*
X134328000Y-138925000D01*
X130878000Y-138925000D02*
X128928000Y-138925000D01*
X130878000Y-133805000D02*
X132828000Y-133805000D01*
X130878000Y-133805000D02*
X128928000Y-133805000D01*
X138631779Y-124410000D02*
X138306221Y-124410000D01*
X138631779Y-125430000D02*
X138306221Y-125430000D01*
X138606779Y-134081000D02*
X138281221Y-134081000D01*
X138606779Y-133061000D02*
X138281221Y-133061000D01*
X138597580Y-144010000D02*
X138316420Y-144010000D01*
X138597580Y-145030000D02*
X138316420Y-145030000D01*
X135394000Y-117242420D02*
X135394000Y-117523580D01*
X136414000Y-117242420D02*
X136414000Y-117523580D01*
X130878000Y-121988000D02*
X128928000Y-121988000D01*
X130878000Y-121988000D02*
X134328000Y-121988000D01*
X130878000Y-116868000D02*
X132828000Y-116868000D01*
X130878000Y-116868000D02*
X128928000Y-116868000D01*
X140670000Y-144520000D02*
X140670000Y-141920000D01*
X143330000Y-144520000D02*
X140670000Y-144520000D01*
X143330000Y-144520000D02*
X143330000Y-141920000D01*
X143330000Y-141920000D02*
X140670000Y-141920000D01*
X142000000Y-147120000D02*
X140670000Y-147120000D01*
X140670000Y-147120000D02*
X140670000Y-145790000D01*
X140695000Y-112965000D02*
X143355000Y-112965000D01*
X143355000Y-107765000D02*
X143355000Y-109095000D01*
X140695000Y-110365000D02*
X143355000Y-110365000D01*
X143355000Y-110365000D02*
X143355000Y-112965000D01*
X140695000Y-110365000D02*
X140695000Y-112965000D01*
X142025000Y-107765000D02*
X143355000Y-107765000D01*
X136389000Y-111975420D02*
X136389000Y-112256580D01*
X135369000Y-111975420D02*
X135369000Y-112256580D01*
X138556279Y-113375000D02*
X138230721Y-113375000D01*
X138556279Y-112355000D02*
X138230721Y-112355000D01*
X138730000Y-38629721D02*
X138730000Y-38955279D01*
X139750000Y-38629721D02*
X139750000Y-38955279D01*
D15*
X139115000Y-44900000D02*
X139115000Y-43700000D01*
X141590000Y-44900000D02*
X141590000Y-43700000D01*
D16*
X139590000Y-45900000D02*
G75*
G03*
X139590000Y-45900000I-100000J0D01*
G01*
D14*
X129673721Y-140835000D02*
X129999279Y-140835000D01*
X129673721Y-141855000D02*
X129999279Y-141855000D01*
X138581279Y-120950000D02*
X138255721Y-120950000D01*
X138581279Y-121970000D02*
X138255721Y-121970000D01*
X138581279Y-138907000D02*
X138255721Y-138907000D01*
X138581279Y-137887000D02*
X138255721Y-137887000D01*
X138581279Y-147570000D02*
X138255721Y-147570000D01*
X138581279Y-146550000D02*
X138255721Y-146550000D01*
X138606279Y-130256000D02*
X138280721Y-130256000D01*
X138606279Y-129236000D02*
X138280721Y-129236000D01*
X138597580Y-135347000D02*
X138316420Y-135347000D01*
X138597580Y-136367000D02*
X138316420Y-136367000D01*
X130853000Y-113393000D02*
X128903000Y-113393000D01*
X130853000Y-108273000D02*
X128903000Y-108273000D01*
X130853000Y-108273000D02*
X132803000Y-108273000D01*
X130853000Y-113393000D02*
X134303000Y-113393000D01*
X136510000Y-44837221D02*
X136510000Y-45162779D01*
X135490000Y-44837221D02*
X135490000Y-45162779D01*
X133010420Y-133192000D02*
X133291580Y-133192000D01*
X133010420Y-132172000D02*
X133291580Y-132172000D01*
X132985420Y-106640000D02*
X133266580Y-106640000D01*
X132985420Y-107660000D02*
X133266580Y-107660000D01*
X129673721Y-116260000D02*
X129999279Y-116260000D01*
X129673721Y-115240000D02*
X129999279Y-115240000D01*
X135394000Y-120570420D02*
X135394000Y-120851580D01*
X136414000Y-120570420D02*
X136414000Y-120851580D01*
X138510000Y-45140580D02*
X138510000Y-44859420D01*
X137490000Y-45140580D02*
X137490000Y-44859420D01*
X130878000Y-142468000D02*
X128928000Y-142468000D01*
X130878000Y-147588000D02*
X134328000Y-147588000D01*
X130878000Y-147588000D02*
X128928000Y-147588000D01*
X130878000Y-142468000D02*
X132828000Y-142468000D01*
X138606779Y-116124000D02*
X138281221Y-116124000D01*
X138606779Y-117144000D02*
X138281221Y-117144000D01*
X136439000Y-125528420D02*
X136439000Y-125809580D01*
X135419000Y-125528420D02*
X135419000Y-125809580D01*
X128335000Y-38140000D02*
X128335000Y-40300000D01*
X131495000Y-38140000D02*
X130565000Y-38140000D01*
X131495000Y-38140000D02*
X131495000Y-39600000D01*
X128335000Y-38140000D02*
X129265000Y-38140000D01*
M02*
