%TF.GenerationSoftware,KiCad,Pcbnew,(6.0.6)*%
%TF.CreationDate,2022-09-06T13:28:06+02:00*%
%TF.ProjectId,PAINTREv4,5041494e-5452-4457-9634-2e6b69636164,rev?*%
%TF.SameCoordinates,Original*%
%TF.FileFunction,Component,L1,Top*%
%TF.FilePolarity,Positive*%
%FSLAX46Y46*%
G04 Gerber Fmt 4.6, Leading zero omitted, Abs format (unit mm)*
G04 Created by KiCad (PCBNEW (6.0.6)) date 2022-09-06 13:28:06*
%MOMM*%
%LPD*%
G01*
G04 APERTURE LIST*
%TA.AperFunction,ComponentMain*%
%ADD10C,0.300000*%
%TD*%
%TA.AperFunction,ComponentOutline,Courtyard*%
%ADD11C,0.100000*%
%TD*%
%TA.AperFunction,ComponentPin*%
%ADD12P,0.360000X4X0.000000*%
%TD*%
%TA.AperFunction,ComponentPin*%
%ADD13C,0.000000*%
%TD*%
G04 APERTURE END LIST*
D10*
%TO.C,"L5"*%
%TO.CFtp,"ferrite_bead_1206"*%
%TO.CVal,"Ferrite_Bead_Small"*%
%TO.CLbN,"Library"*%
%TO.CMnt,SMD*%
%TO.CRot,90*%
X126615000Y-39480000D03*
D11*
X127714999Y-42729999D02*
X125505001Y-42729999D01*
X125505001Y-36230001D01*
X127714999Y-36230001D01*
X127714999Y-42729999D01*
D12*
%TO.P,"L5","1"*%
X126615000Y-40880000D03*
D13*
%TO.P,"L5","2"*%
X126615000Y-38080000D03*
%TD*%
D10*
%TO.C,"C7"*%
%TO.CFtp,"C_1206_HandSoldering_silkscreenlabel"*%
%TO.CVal,"10u"*%
%TO.CLbN,"Library"*%
%TO.CMnt,SMD*%
%TO.CRot,-90*%
X134000000Y-46000000D03*
D11*
X135049999Y-49249999D02*
X132950001Y-49249999D01*
X132950001Y-42750001D01*
X135049999Y-42750001D01*
X135049999Y-49249999D01*
D12*
%TO.P,"C7","1"*%
X134000000Y-44000000D03*
D13*
%TO.P,"C7","2"*%
X134000000Y-48000000D03*
%TD*%
D10*
%TO.C,"F1"*%
%TO.CFtp,"Fuse_0603_1608Metric"*%
%TO.CVal,"Polyfuse"*%
%TO.CLbN,"Library"*%
%TO.CMnt,SMD*%
%TO.CRot,0*%
X135400000Y-102600000D03*
D11*
X136879999Y-103329999D02*
X133920001Y-103329999D01*
X133920001Y-101870001D01*
X136879999Y-101870001D01*
X136879999Y-103329999D01*
D12*
%TO.P,"F1","1"*%
X134612500Y-102600000D03*
D13*
%TO.P,"F1","2"*%
X136187500Y-102600000D03*
%TD*%
D10*
%TO.C,"Ri2cSDA1"*%
%TO.CFtp,"R_0603_1608Metric_fabdesignatorsmall"*%
%TO.CVal,"500"*%
%TO.CLbN,"Library"*%
%TO.CMnt,SMD*%
%TO.CRot,0*%
X135400000Y-100800000D03*
D11*
X136879999Y-101529999D02*
X133920001Y-101529999D01*
X133920001Y-100070001D01*
X136879999Y-100070001D01*
X136879999Y-101529999D01*
D12*
%TO.P,"Ri2cSDA1","1"*%
X134612500Y-100800000D03*
D13*
%TO.P,"Ri2cSDA1","2"*%
X136187500Y-100800000D03*
%TD*%
D10*
%TO.C,"Ri2cSCL2"*%
%TO.CFtp,"R_0603_1608Metric_fabdesignatorsmall"*%
%TO.CVal,"500"*%
%TO.CLbN,"Library"*%
%TO.CMnt,SMD*%
%TO.CRot,0*%
X132312500Y-99200000D03*
D11*
X133792499Y-99929999D02*
X130832501Y-99929999D01*
X130832501Y-98470001D01*
X133792499Y-98470001D01*
X133792499Y-99929999D01*
D12*
%TO.P,"Ri2cSCL2","1"*%
X131525000Y-99200000D03*
D13*
%TO.P,"Ri2cSCL2","2"*%
X133100000Y-99200000D03*
%TD*%
D10*
%TO.C,"Ri2cSDA2"*%
%TO.CFtp,"R_0603_1608Metric_fabdesignatorsmall"*%
%TO.CVal,"500"*%
%TO.CLbN,"Library"*%
%TO.CMnt,SMD*%
%TO.CRot,0*%
X132300000Y-100800000D03*
D11*
X133779999Y-101529999D02*
X130820001Y-101529999D01*
X130820001Y-100070001D01*
X133779999Y-100070001D01*
X133779999Y-101529999D01*
D12*
%TO.P,"Ri2cSDA2","1"*%
X131512500Y-100800000D03*
D13*
%TO.P,"Ri2cSDA2","2"*%
X133087500Y-100800000D03*
%TD*%
D10*
%TO.C,"Ri2cSCL1"*%
%TO.CFtp,"R_0603_1608Metric_fabdesignatorsmall"*%
%TO.CVal,"500"*%
%TO.CLbN,"Library"*%
%TO.CMnt,SMD*%
%TO.CRot,0*%
X135412500Y-99200000D03*
D11*
X136892499Y-99929999D02*
X133932501Y-99929999D01*
X133932501Y-98470001D01*
X136892499Y-98470001D01*
X136892499Y-99929999D01*
D12*
%TO.P,"Ri2cSCL1","1"*%
X134625000Y-99200000D03*
D13*
%TO.P,"Ri2cSCL1","2"*%
X136200000Y-99200000D03*
%TD*%
D10*
%TO.C,"J1"*%
%TO.CFtp,"PinSocket_1x08_P2.00mm_Vertical"*%
%TO.CVal,"ethernet"*%
%TO.CLbN,"Connector_PinSocket_2.00mm"*%
%TO.CMnt,TH*%
%TO.CRot,90*%
X128665000Y-33950000D03*
D11*
X144164999Y-35449999D02*
X127165001Y-35449999D01*
X127165001Y-32450001D01*
X144164999Y-32450001D01*
X144164999Y-35449999D01*
D12*
%TO.P,"J1","1","Pin_1"*%
X128665000Y-33950000D03*
D13*
%TO.P,"J1","2","Pin_2"*%
X130665000Y-33950000D03*
%TO.P,"J1","3","Pin_3"*%
X132665000Y-33950000D03*
%TO.P,"J1","4","Pin_4"*%
X134665000Y-33950000D03*
%TO.P,"J1","5","Pin_5"*%
X136665000Y-33950000D03*
%TO.P,"J1","6","Pin_6"*%
X138665000Y-33950000D03*
%TO.P,"J1","7","Pin_7"*%
X140665000Y-33950000D03*
%TO.P,"J1","8","Pin_8"*%
X142665000Y-33950000D03*
%TD*%
D10*
%TO.C,"J7"*%
%TO.CFtp,"JST_SH_SM04B-SRSS-TB_04x1.00mm_Angled"*%
%TO.CVal,"BN080"*%
%TO.CLbN,"Library"*%
%TO.CMnt,SMD*%
%TO.CRot,90*%
X140537500Y-101400000D03*
D11*
X143887499Y-105299999D02*
X137287501Y-105299999D01*
X137287501Y-97500001D01*
X143887499Y-97500001D01*
X143887499Y-105299999D01*
D12*
%TO.P,"J7","1","Pin_1"*%
X138600000Y-102900000D03*
D13*
%TO.P,"J7",*%
X142475000Y-98600000D03*
X142475000Y-104200000D03*
%TO.P,"J7","2","Pin_2"*%
X138600000Y-101900000D03*
%TO.P,"J7","3","Pin_3"*%
X138600000Y-100900000D03*
%TO.P,"J7","4","Pin_4"*%
X138600000Y-99900000D03*
%TD*%
D10*
%TO.C,"R54"*%
%TO.CFtp,"R_0603_1608Metric_fabdesignatorsmall"*%
%TO.CVal,"10k"*%
%TO.CLbN,"Library"*%
%TO.CMnt,SMD*%
%TO.CRot,180*%
X139927500Y-49050000D03*
D11*
X141407499Y-49779999D02*
X138447501Y-49779999D01*
X138447501Y-48320001D01*
X141407499Y-48320001D01*
X141407499Y-49779999D01*
D12*
%TO.P,"R54","1"*%
X140715000Y-49050000D03*
D13*
%TO.P,"R54","2"*%
X139140000Y-49050000D03*
%TD*%
D10*
%TO.C,"C26"*%
%TO.CFtp,"C_0603_1608Metric_fabdesignatorsmall"*%
%TO.CVal,".01u"*%
%TO.CLbN,"Library"*%
%TO.CMnt,SMD*%
%TO.CRot,180*%
X138482000Y-127206000D03*
D11*
X139961999Y-127935999D02*
X137002001Y-127935999D01*
X137002001Y-126476001D01*
X139961999Y-126476001D01*
X139961999Y-127935999D01*
D12*
%TO.P,"C26","1"*%
X139257000Y-127206000D03*
D13*
%TO.P,"C26","2"*%
X137707000Y-127206000D03*
%TD*%
D10*
%TO.C,"R16"*%
%TO.CFtp,"R_0603_1608Metric_fabdesignatorsmall"*%
%TO.CVal,"1M"*%
%TO.CLbN,"Library"*%
%TO.CMnt,SMD*%
%TO.CRot,0*%
X129861500Y-124031000D03*
D11*
X131341499Y-124760999D02*
X128381501Y-124760999D01*
X128381501Y-123301001D01*
X131341499Y-123301001D01*
X131341499Y-124760999D01*
D12*
%TO.P,"R16","1"*%
X129074000Y-124031000D03*
D13*
%TO.P,"R16","2"*%
X130649000Y-124031000D03*
%TD*%
D10*
%TO.C,"C22"*%
%TO.CFtp,"C_0603_1608Metric_fabdesignatorsmall"*%
%TO.CVal,".1u"*%
%TO.CLbN,"Library"*%
%TO.CMnt,SMD*%
%TO.CRot,-90*%
X135904000Y-146311000D03*
D11*
X136633999Y-147790999D02*
X135174001Y-147790999D01*
X135174001Y-144831001D01*
X136633999Y-144831001D01*
X136633999Y-147790999D01*
D12*
%TO.P,"C22","1"*%
X135904000Y-145536000D03*
D13*
%TO.P,"C22","2"*%
X135904000Y-147086000D03*
%TD*%
D10*
%TO.C,"R57"*%
%TO.CFtp,"R_1210_3225Metric_Pad1.30x2.65mm_HandSolder"*%
%TO.CVal,"120r"*%
%TO.CLbN,"Resistor_SMD"*%
%TO.CMnt,SMD*%
%TO.CRot,180*%
X139750000Y-37100000D03*
D11*
X142199999Y-38679999D02*
X137300001Y-38679999D01*
X137300001Y-35520001D01*
X142199999Y-35520001D01*
X142199999Y-38679999D01*
D12*
%TO.P,"R57","1"*%
X141300000Y-37100000D03*
D13*
%TO.P,"R57","2"*%
X138200000Y-37100000D03*
%TD*%
D10*
%TO.C,"C20"*%
%TO.CFtp,"C_0603_1608Metric_fabdesignatorsmall"*%
%TO.CVal,".1u"*%
%TO.CLbN,"Library"*%
%TO.CMnt,SMD*%
%TO.CRot,-90*%
X135904000Y-142983000D03*
D11*
X136633999Y-144462999D02*
X135174001Y-144462999D01*
X135174001Y-141503001D01*
X136633999Y-141503001D01*
X136633999Y-144462999D01*
D12*
%TO.P,"C20","1"*%
X135904000Y-142208000D03*
D13*
%TO.P,"C20","2"*%
X135904000Y-143758000D03*
%TD*%
D10*
%TO.C,"C18"*%
%TO.CFtp,"C_0603_1608Metric_fabdesignatorsmall"*%
%TO.CVal,".1u"*%
%TO.CLbN,"Library"*%
%TO.CMnt,SMD*%
%TO.CRot,0*%
X133151000Y-115750000D03*
D11*
X134630999Y-116479999D02*
X131671001Y-116479999D01*
X131671001Y-115020001D01*
X134630999Y-115020001D01*
X134630999Y-116479999D01*
D12*
%TO.P,"C18","1"*%
X132376000Y-115750000D03*
D13*
%TO.P,"C18","2"*%
X133926000Y-115750000D03*
%TD*%
D10*
%TO.C,"U3"*%
%TO.CFtp,"SOIC-8_3.9x4.9mm_P1.27mm"*%
%TO.CVal,"MAX31855KASA"*%
%TO.CLbN,"Package_SO"*%
%TO.CMnt,SMD*%
%TO.CRot,180*%
X130903000Y-127714000D03*
D11*
X134602999Y-130413999D02*
X127203001Y-130413999D01*
X127203001Y-125014001D01*
X134602999Y-125014001D01*
X134602999Y-130413999D01*
D12*
%TO.P,"U3","1","GND"*%
X133378000Y-129619000D03*
D13*
%TO.P,"U3","2","T-"*%
X133378000Y-128349000D03*
%TO.P,"U3","3","T+"*%
X133378000Y-127079000D03*
%TO.P,"U3","4","VCC"*%
X133378000Y-125809000D03*
%TO.P,"U3","5","SCK"*%
X128428000Y-125809000D03*
%TO.P,"U3","6","~{CS}"*%
X128428000Y-127079000D03*
%TO.P,"U3","7","SO"*%
X128428000Y-128349000D03*
%TO.P,"U3","8"*%
X128428000Y-129619000D03*
%TD*%
D10*
%TO.C,"C34"*%
%TO.CFtp,"C_0603_1608Metric_fabdesignatorsmall"*%
%TO.CVal,".1u"*%
%TO.CLbN,"Library"*%
%TO.CMnt,SMD*%
%TO.CRot,-90*%
X135904000Y-137648000D03*
D11*
X136633999Y-139127999D02*
X135174001Y-139127999D01*
X135174001Y-136168001D01*
X136633999Y-136168001D01*
X136633999Y-139127999D01*
D12*
%TO.P,"C34","1"*%
X135904000Y-136873000D03*
D13*
%TO.P,"C34","2"*%
X135904000Y-138423000D03*
%TD*%
D10*
%TO.C,"C1"*%
%TO.CFtp,"C_0603_1608Metric_fabdesignatorsmall"*%
%TO.CVal,".1u"*%
%TO.CLbN,"Library"*%
%TO.CMnt,SMD*%
%TO.CRot,0*%
X133151000Y-141345000D03*
D11*
X134630999Y-142074999D02*
X131671001Y-142074999D01*
X131671001Y-140615001D01*
X134630999Y-140615001D01*
X134630999Y-142074999D01*
D12*
%TO.P,"C1","1"*%
X132376000Y-141345000D03*
D13*
%TO.P,"C1","2"*%
X133926000Y-141345000D03*
%TD*%
D10*
%TO.C,"R23"*%
%TO.CFtp,"R_0603_1608Metric_fabdesignatorsmall"*%
%TO.CVal,"500"*%
%TO.CLbN,"Library"*%
%TO.CMnt,SMD*%
%TO.CRot,180*%
X138444000Y-142234000D03*
D11*
X139923999Y-142963999D02*
X136964001Y-142963999D01*
X136964001Y-141504001D01*
X139923999Y-141504001D01*
X139923999Y-142963999D01*
D12*
%TO.P,"R23","1"*%
X139231500Y-142234000D03*
D13*
%TO.P,"R23","2"*%
X137656500Y-142234000D03*
%TD*%
D10*
%TO.C,"R18"*%
%TO.CFtp,"R_0603_1608Metric_fabdesignatorsmall"*%
%TO.CVal,"1M"*%
%TO.CLbN,"Library"*%
%TO.CMnt,SMD*%
%TO.CRot,0*%
X129811500Y-107150000D03*
D11*
X131291499Y-107879999D02*
X128331501Y-107879999D01*
X128331501Y-106420001D01*
X131291499Y-106420001D01*
X131291499Y-107879999D01*
D12*
%TO.P,"R18","1"*%
X129024000Y-107150000D03*
D13*
%TO.P,"R18","2"*%
X130599000Y-107150000D03*
%TD*%
D10*
%TO.C,"C8"*%
%TO.CFtp,"C_0603_1608Metric_fabdesignatorsmall"*%
%TO.CVal,".1u"*%
%TO.CLbN,"Library"*%
%TO.CMnt,SMD*%
%TO.CRot,-90*%
X135879000Y-108788000D03*
D11*
X136608999Y-110267999D02*
X135149001Y-110267999D01*
X135149001Y-107308001D01*
X136608999Y-107308001D01*
X136608999Y-110267999D01*
D12*
%TO.P,"C8","1"*%
X135879000Y-108013000D03*
D13*
%TO.P,"C8","2"*%
X135879000Y-109563000D03*
%TD*%
D10*
%TO.C,"C28"*%
%TO.CFtp,"C_0603_1608Metric_fabdesignatorsmall"*%
%TO.CVal,".01u"*%
%TO.CLbN,"Library"*%
%TO.CMnt,SMD*%
%TO.CRot,180*%
X138457000Y-118920000D03*
D11*
X139936999Y-119649999D02*
X136977001Y-119649999D01*
X136977001Y-118190001D01*
X139936999Y-118190001D01*
X139936999Y-119649999D01*
D12*
%TO.P,"C28","1"*%
X139232000Y-118920000D03*
D13*
%TO.P,"C28","2"*%
X137682000Y-118920000D03*
%TD*%
D10*
%TO.C,"C29"*%
%TO.CFtp,"C_0603_1608Metric_fabdesignatorsmall"*%
%TO.CVal,".01u"*%
%TO.CLbN,"Library"*%
%TO.CMnt,SMD*%
%TO.CRot,0*%
X138444000Y-110345000D03*
D11*
X139923999Y-111074999D02*
X136964001Y-111074999D01*
X136964001Y-109615001D01*
X139923999Y-109615001D01*
X139923999Y-111074999D01*
D12*
%TO.P,"C29","1"*%
X137669000Y-110345000D03*
D13*
%TO.P,"C29","2"*%
X139219000Y-110345000D03*
%TD*%
D10*
%TO.C,"J4"*%
%TO.CFtp,"PinSocket_1x02_P2.54mm_Vertical"*%
%TO.CVal,"TC3"*%
%TO.CLbN,"Connector_PinSocket_2.54mm"*%
%TO.CMnt,TH*%
%TO.CRot,0*%
X142025000Y-126210000D03*
D11*
X143774999Y-130509999D02*
X140225001Y-130509999D01*
X140225001Y-124410001D01*
X143774999Y-124410001D01*
X143774999Y-130509999D01*
D12*
%TO.P,"J4","1","Pin_1"*%
X142025000Y-126210000D03*
D13*
%TO.P,"J4","2","Pin_2"*%
X142025000Y-128750000D03*
%TD*%
D10*
%TO.C,"R55"*%
%TO.CFtp,"R_0603_1608Metric_fabdesignatorsmall"*%
%TO.CVal,"10R"*%
%TO.CLbN,"Library"*%
%TO.CMnt,SMD*%
%TO.CRot,-90*%
X141110000Y-40500000D03*
D11*
X141839999Y-41979999D02*
X140380001Y-41979999D01*
X140380001Y-39020001D01*
X141839999Y-39020001D01*
X141839999Y-41979999D01*
D12*
%TO.P,"R55","1"*%
X141110000Y-39712500D03*
D13*
%TO.P,"R55","2"*%
X141110000Y-41287500D03*
%TD*%
D10*
%TO.C,"R14"*%
%TO.CFtp,"R_0603_1608Metric_fabdesignatorsmall"*%
%TO.CVal,"1M"*%
%TO.CLbN,"Library"*%
%TO.CMnt,SMD*%
%TO.CRot,0*%
X129836500Y-132682000D03*
D11*
X131316499Y-133411999D02*
X128356501Y-133411999D01*
X128356501Y-131952001D01*
X131316499Y-131952001D01*
X131316499Y-133411999D01*
D12*
%TO.P,"R14","1"*%
X129049000Y-132682000D03*
D13*
%TO.P,"R14","2"*%
X130624000Y-132682000D03*
%TD*%
D10*
%TO.C,"J5"*%
%TO.CFtp,"PinSocket_1x02_P2.54mm_Vertical"*%
%TO.CVal,"TC4"*%
%TO.CLbN,"Connector_PinSocket_2.54mm"*%
%TO.CMnt,TH*%
%TO.CRot,0*%
X142025000Y-117670000D03*
D11*
X143774999Y-121969999D02*
X140225001Y-121969999D01*
X140225001Y-115870001D01*
X143774999Y-115870001D01*
X143774999Y-121969999D01*
D12*
%TO.P,"J5","1","Pin_1"*%
X142025000Y-117670000D03*
D13*
%TO.P,"J5","2","Pin_2"*%
X142025000Y-120210000D03*
%TD*%
D10*
%TO.C,"C17"*%
%TO.CFtp,"C_0603_1608Metric_fabdesignatorsmall"*%
%TO.CVal,".1u"*%
%TO.CLbN,"Library"*%
%TO.CMnt,SMD*%
%TO.CRot,0*%
X133176000Y-124031000D03*
D11*
X134655999Y-124760999D02*
X131696001Y-124760999D01*
X131696001Y-123301001D01*
X134655999Y-123301001D01*
X134655999Y-124760999D01*
D12*
%TO.P,"C17","1"*%
X132401000Y-124031000D03*
D13*
%TO.P,"C17","2"*%
X133951000Y-124031000D03*
%TD*%
D10*
%TO.C,"R5"*%
%TO.CFtp,"R_0603_1608Metric_fabdesignatorsmall"*%
%TO.CVal,"500"*%
%TO.CLbN,"Library"*%
%TO.CMnt,SMD*%
%TO.CRot,180*%
X138419000Y-108039000D03*
D11*
X139898999Y-108768999D02*
X136939001Y-108768999D01*
X136939001Y-107309001D01*
X139898999Y-107309001D01*
X139898999Y-108768999D01*
D12*
%TO.P,"R5","1"*%
X139206500Y-108039000D03*
D13*
%TO.P,"R5","2"*%
X137631500Y-108039000D03*
%TD*%
D10*
%TO.C,"C4"*%
%TO.CFtp,"C_0603_1608Metric_fabdesignatorsmall"*%
%TO.CVal,".1u"*%
%TO.CLbN,"Library"*%
%TO.CMnt,SMD*%
%TO.CRot,-90*%
X135929000Y-128997000D03*
D11*
X136658999Y-130476999D02*
X135199001Y-130476999D01*
X135199001Y-127517001D01*
X136658999Y-127517001D01*
X136658999Y-130476999D01*
D12*
%TO.P,"C4","1"*%
X135929000Y-128222000D03*
D13*
%TO.P,"C4","2"*%
X135929000Y-129772000D03*
%TD*%
D10*
%TO.C,"A1"*%
%TO.CFtp,"Arduino_Nano"*%
%TO.CVal,"Arduino_Nano_Every"*%
%TO.CLbN,"Module"*%
%TO.CMnt,TH*%
%TO.CRot,0*%
X127000000Y-55000000D03*
D11*
X143749999Y-97159999D02*
X125470001Y-97159999D01*
X125470001Y-50940001D01*
X143749999Y-50940001D01*
X143749999Y-97159999D01*
D12*
%TO.P,"A1","1","TX1"*%
X127000000Y-55000000D03*
D13*
%TO.P,"A1","2","RX1"*%
X127000000Y-57540000D03*
%TO.P,"A1","3","~{RESET}"*%
X127000000Y-60080000D03*
%TO.P,"A1","4","GND"*%
X127000000Y-62620000D03*
%TO.P,"A1","5","D2"*%
X127000000Y-65160000D03*
%TO.P,"A1","6","D3"*%
X127000000Y-67700000D03*
%TO.P,"A1","7","D4"*%
X127000000Y-70240000D03*
%TO.P,"A1","8","D5"*%
X127000000Y-72780000D03*
%TO.P,"A1","9","D6"*%
X127000000Y-75320000D03*
%TO.P,"A1","10","D7"*%
X127000000Y-77860000D03*
%TO.P,"A1","11","D8"*%
X127000000Y-80400000D03*
%TO.P,"A1","12","D9"*%
X127000000Y-82940000D03*
%TO.P,"A1","13","D10"*%
X127000000Y-85480000D03*
%TO.P,"A1","14","MOSI"*%
X127000000Y-88020000D03*
%TO.P,"A1","15","MISO"*%
X127000000Y-90560000D03*
%TO.P,"A1","16","SCK"*%
X142240000Y-90560000D03*
%TO.P,"A1","17","3V3"*%
X142240000Y-88020000D03*
%TO.P,"A1","18","AREF"*%
X142240000Y-85480000D03*
%TO.P,"A1","19","A0"*%
X142240000Y-82940000D03*
%TO.P,"A1","20","A1"*%
X142240000Y-80400000D03*
%TO.P,"A1","21","A2"*%
X142240000Y-77860000D03*
%TO.P,"A1","22","A3"*%
X142240000Y-75320000D03*
%TO.P,"A1","23","SDA/A4"*%
X142240000Y-72780000D03*
%TO.P,"A1","24","SCL/A5"*%
X142240000Y-70240000D03*
%TO.P,"A1","25","A6"*%
X142240000Y-67700000D03*
%TO.P,"A1","26","A7"*%
X142240000Y-65160000D03*
%TO.P,"A1","27","+5V"*%
X142240000Y-62620000D03*
%TO.P,"A1","28","~{RESET}"*%
X142240000Y-60080000D03*
%TO.P,"A1","29","GND"*%
X142240000Y-57540000D03*
%TO.P,"A1","30","VIN"*%
X142240000Y-55000000D03*
%TD*%
D10*
%TO.C,"C2"*%
%TO.CFtp,"C_0603_1608Metric_fabdesignatorsmall"*%
%TO.CVal,".1u"*%
%TO.CLbN,"Library"*%
%TO.CMnt,SMD*%
%TO.CRot,-90*%
X135904000Y-134320000D03*
D11*
X136633999Y-135799999D02*
X135174001Y-135799999D01*
X135174001Y-132840001D01*
X136633999Y-132840001D01*
X136633999Y-135799999D01*
D12*
%TO.P,"C2","1"*%
X135904000Y-133545000D03*
D13*
%TO.P,"C2","2"*%
X135904000Y-135095000D03*
%TD*%
D10*
%TO.C,"J3"*%
%TO.CFtp,"PinSocket_1x02_P2.54mm_Vertical"*%
%TO.CVal,"TC2"*%
%TO.CLbN,"Connector_PinSocket_2.54mm"*%
%TO.CMnt,TH*%
%TO.CRot,0*%
X142025000Y-134607000D03*
D11*
X143774999Y-138906999D02*
X140225001Y-138906999D01*
X140225001Y-132807001D01*
X143774999Y-132807001D01*
X143774999Y-138906999D01*
D12*
%TO.P,"J3","1","Pin_1"*%
X142025000Y-134607000D03*
D13*
%TO.P,"J3","2","Pin_2"*%
X142025000Y-137147000D03*
%TD*%
D10*
%TO.C,"U2"*%
%TO.CFtp,"SOIC-8_3.9x4.9mm_P1.27mm"*%
%TO.CVal,"MAX31855KASA"*%
%TO.CLbN,"Package_SO"*%
%TO.CMnt,SMD*%
%TO.CRot,180*%
X130878000Y-136365000D03*
D11*
X134577999Y-139064999D02*
X127178001Y-139064999D01*
X127178001Y-133665001D01*
X134577999Y-133665001D01*
X134577999Y-139064999D01*
D12*
%TO.P,"U2","1","GND"*%
X133353000Y-138270000D03*
D13*
%TO.P,"U2","2","T-"*%
X133353000Y-137000000D03*
%TO.P,"U2","3","T+"*%
X133353000Y-135730000D03*
%TO.P,"U2","4","VCC"*%
X133353000Y-134460000D03*
%TO.P,"U2","5","SCK"*%
X128403000Y-134460000D03*
%TO.P,"U2","6","~{CS}"*%
X128403000Y-135730000D03*
%TO.P,"U2","7","SO"*%
X128403000Y-137000000D03*
%TO.P,"U2","8"*%
X128403000Y-138270000D03*
%TD*%
D10*
%TO.C,"R1"*%
%TO.CFtp,"R_0603_1608Metric_fabdesignatorsmall"*%
%TO.CVal,"500"*%
%TO.CLbN,"Library"*%
%TO.CMnt,SMD*%
%TO.CRot,180*%
X138469000Y-124920000D03*
D11*
X139948999Y-125649999D02*
X136989001Y-125649999D01*
X136989001Y-124190001D01*
X139948999Y-124190001D01*
X139948999Y-125649999D01*
D12*
%TO.P,"R1","1"*%
X139256500Y-124920000D03*
D13*
%TO.P,"R1","2"*%
X137681500Y-124920000D03*
%TD*%
D10*
%TO.C,"R13"*%
%TO.CFtp,"R_0603_1608Metric_fabdesignatorsmall"*%
%TO.CVal,"500"*%
%TO.CLbN,"Library"*%
%TO.CMnt,SMD*%
%TO.CRot,180*%
X138444000Y-133571000D03*
D11*
X139923999Y-134300999D02*
X136964001Y-134300999D01*
X136964001Y-132841001D01*
X139923999Y-132841001D01*
X139923999Y-134300999D01*
D12*
%TO.P,"R13","1"*%
X139231500Y-133571000D03*
D13*
%TO.P,"R13","2"*%
X137656500Y-133571000D03*
%TD*%
D10*
%TO.C,"C25"*%
%TO.CFtp,"C_0603_1608Metric_fabdesignatorsmall"*%
%TO.CVal,".01u"*%
%TO.CLbN,"Library"*%
%TO.CMnt,SMD*%
%TO.CRot,180*%
X138457000Y-144520000D03*
D11*
X139936999Y-145249999D02*
X136977001Y-145249999D01*
X136977001Y-143790001D01*
X139936999Y-143790001D01*
X139936999Y-145249999D01*
D12*
%TO.P,"C25","1"*%
X139232000Y-144520000D03*
D13*
%TO.P,"C25","2"*%
X137682000Y-144520000D03*
%TD*%
D10*
%TO.C,"C5"*%
%TO.CFtp,"C_0603_1608Metric_fabdesignatorsmall"*%
%TO.CVal,".1u"*%
%TO.CLbN,"Library"*%
%TO.CMnt,SMD*%
%TO.CRot,-90*%
X135904000Y-117383000D03*
D11*
X136633999Y-118862999D02*
X135174001Y-118862999D01*
X135174001Y-115903001D01*
X136633999Y-115903001D01*
X136633999Y-118862999D01*
D12*
%TO.P,"C5","1"*%
X135904000Y-116608000D03*
D13*
%TO.P,"C5","2"*%
X135904000Y-118158000D03*
%TD*%
D10*
%TO.C,"U4"*%
%TO.CFtp,"SOIC-8_3.9x4.9mm_P1.27mm"*%
%TO.CVal,"MAX31855KASA"*%
%TO.CLbN,"Package_SO"*%
%TO.CMnt,SMD*%
%TO.CRot,180*%
X130878000Y-119428000D03*
D11*
X134577999Y-122127999D02*
X127178001Y-122127999D01*
X127178001Y-116728001D01*
X134577999Y-116728001D01*
X134577999Y-122127999D01*
D12*
%TO.P,"U4","1","GND"*%
X133353000Y-121333000D03*
D13*
%TO.P,"U4","2","T-"*%
X133353000Y-120063000D03*
%TO.P,"U4","3","T+"*%
X133353000Y-118793000D03*
%TO.P,"U4","4","VCC"*%
X133353000Y-117523000D03*
%TO.P,"U4","5","SCK"*%
X128403000Y-117523000D03*
%TO.P,"U4","6","~{CS}"*%
X128403000Y-118793000D03*
%TO.P,"U4","7","SO"*%
X128403000Y-120063000D03*
%TO.P,"U4","8"*%
X128403000Y-121333000D03*
%TD*%
D10*
%TO.C,"J2"*%
%TO.CFtp,"PinSocket_1x02_P2.54mm_Vertical"*%
%TO.CVal,"TC1"*%
%TO.CLbN,"Connector_PinSocket_2.54mm"*%
%TO.CMnt,TH*%
%TO.CRot,180*%
X142000000Y-145790000D03*
D11*
X143799999Y-147589999D02*
X140250001Y-147589999D01*
X140250001Y-141490001D01*
X143799999Y-141490001D01*
X143799999Y-147589999D01*
D12*
%TO.P,"J2","1","Pin_1"*%
X142000000Y-145790000D03*
D13*
%TO.P,"J2","2","Pin_2"*%
X142000000Y-143250000D03*
%TD*%
D10*
%TO.C,"J6"*%
%TO.CFtp,"PinSocket_1x02_P2.54mm_Vertical"*%
%TO.CVal,"TC5"*%
%TO.CLbN,"Connector_PinSocket_2.54mm"*%
%TO.CMnt,TH*%
%TO.CRot,0*%
X142025000Y-109095000D03*
D11*
X143774999Y-113394999D02*
X140225001Y-113394999D01*
X140225001Y-107295001D01*
X143774999Y-107295001D01*
X143774999Y-113394999D01*
D12*
%TO.P,"J6","1","Pin_1"*%
X142025000Y-109095000D03*
D13*
%TO.P,"J6","2","Pin_2"*%
X142025000Y-111635000D03*
%TD*%
D10*
%TO.C,"C9"*%
%TO.CFtp,"C_0603_1608Metric_fabdesignatorsmall"*%
%TO.CVal,".1u"*%
%TO.CLbN,"Library"*%
%TO.CMnt,SMD*%
%TO.CRot,-90*%
X135879000Y-112116000D03*
D11*
X136608999Y-113595999D02*
X135149001Y-113595999D01*
X135149001Y-110636001D01*
X136608999Y-110636001D01*
X136608999Y-113595999D01*
D12*
%TO.P,"C9","1"*%
X135879000Y-111341000D03*
D13*
%TO.P,"C9","2"*%
X135879000Y-112891000D03*
%TD*%
D10*
%TO.C,"R6"*%
%TO.CFtp,"R_0603_1608Metric_fabdesignatorsmall"*%
%TO.CVal,"500"*%
%TO.CLbN,"Library"*%
%TO.CMnt,SMD*%
%TO.CRot,180*%
X138393500Y-112865000D03*
D11*
X139873499Y-113594999D02*
X136913501Y-113594999D01*
X136913501Y-112135001D01*
X139873499Y-112135001D01*
X139873499Y-113594999D01*
D12*
%TO.P,"R6","1"*%
X139181000Y-112865000D03*
D13*
%TO.P,"R6","2"*%
X137606000Y-112865000D03*
%TD*%
D10*
%TO.C,"R56"*%
%TO.CFtp,"R_0603_1608Metric_fabdesignatorsmall"*%
%TO.CVal,"10R"*%
%TO.CLbN,"Library"*%
%TO.CMnt,SMD*%
%TO.CRot,-90*%
X139240000Y-40530000D03*
D11*
X139969999Y-42009999D02*
X138510001Y-42009999D01*
X138510001Y-39050001D01*
X139969999Y-39050001D01*
X139969999Y-42009999D01*
D12*
%TO.P,"R56","1"*%
X139240000Y-39742500D03*
D13*
%TO.P,"R56","2"*%
X139240000Y-41317500D03*
%TD*%
D10*
%TO.C,"U6"*%
%TO.CFtp,"SOT-5X3-8"*%
%TO.CVal,"~"*%
%TO.CLbN,"Library"*%
%TO.CMnt,TH*%
%TO.CRot,90*%
X140090000Y-44300000D03*
D11*
X141589999Y-45614999D02*
X139040001Y-45614999D01*
X139040001Y-42985001D01*
X141589999Y-42985001D01*
X141589999Y-45614999D01*
D12*
%TO.P,"U6","1","RO"*%
X139590000Y-45035000D03*
D13*
%TO.P,"U6","2","~{RE}"*%
X140090000Y-45035000D03*
%TO.P,"U6","3","DE"*%
X140590000Y-45035000D03*
%TO.P,"U6","4","DI"*%
X141090000Y-45035000D03*
%TO.P,"U6","5","GND"*%
X141090000Y-43565000D03*
%TO.P,"U6","6","A"*%
X140590000Y-43565000D03*
%TO.P,"U6","7","B"*%
X140090000Y-43565000D03*
%TO.P,"U6","8","VCC"*%
X139590000Y-43565000D03*
%TD*%
D10*
%TO.C,"R20"*%
%TO.CFtp,"R_0603_1608Metric_fabdesignatorsmall"*%
%TO.CVal,"1M"*%
%TO.CLbN,"Library"*%
%TO.CMnt,SMD*%
%TO.CRot,0*%
X129836500Y-141345000D03*
D11*
X131316499Y-142074999D02*
X128356501Y-142074999D01*
X128356501Y-140615001D01*
X131316499Y-140615001D01*
X131316499Y-142074999D01*
D12*
%TO.P,"R20","1"*%
X129049000Y-141345000D03*
D13*
%TO.P,"R20","2"*%
X130624000Y-141345000D03*
%TD*%
D10*
%TO.C,"R4"*%
%TO.CFtp,"R_0603_1608Metric_fabdesignatorsmall"*%
%TO.CVal,"500"*%
%TO.CLbN,"Library"*%
%TO.CMnt,SMD*%
%TO.CRot,180*%
X138418500Y-121460000D03*
D11*
X139898499Y-122189999D02*
X136938501Y-122189999D01*
X136938501Y-120730001D01*
X139898499Y-120730001D01*
X139898499Y-122189999D01*
D12*
%TO.P,"R4","1"*%
X139206000Y-121460000D03*
D13*
%TO.P,"R4","2"*%
X137631000Y-121460000D03*
%TD*%
D10*
%TO.C,"R15"*%
%TO.CFtp,"R_0603_1608Metric_fabdesignatorsmall"*%
%TO.CVal,"500"*%
%TO.CLbN,"Library"*%
%TO.CMnt,SMD*%
%TO.CRot,180*%
X138418500Y-138397000D03*
D11*
X139898499Y-139126999D02*
X136938501Y-139126999D01*
X136938501Y-137667001D01*
X139898499Y-137667001D01*
X139898499Y-139126999D01*
D12*
%TO.P,"R15","1"*%
X139206000Y-138397000D03*
D13*
%TO.P,"R15","2"*%
X137631000Y-138397000D03*
%TD*%
D10*
%TO.C,"R24"*%
%TO.CFtp,"R_0603_1608Metric_fabdesignatorsmall"*%
%TO.CVal,"500"*%
%TO.CLbN,"Library"*%
%TO.CMnt,SMD*%
%TO.CRot,180*%
X138418500Y-147060000D03*
D11*
X139898499Y-147789999D02*
X136938501Y-147789999D01*
X136938501Y-146330001D01*
X139898499Y-146330001D01*
X139898499Y-147789999D01*
D12*
%TO.P,"R24","1"*%
X139206000Y-147060000D03*
D13*
%TO.P,"R24","2"*%
X137631000Y-147060000D03*
%TD*%
D10*
%TO.C,"R2"*%
%TO.CFtp,"R_0603_1608Metric_fabdesignatorsmall"*%
%TO.CVal,"500"*%
%TO.CLbN,"Library"*%
%TO.CMnt,SMD*%
%TO.CRot,180*%
X138443500Y-129746000D03*
D11*
X139923499Y-130475999D02*
X136963501Y-130475999D01*
X136963501Y-129016001D01*
X139923499Y-129016001D01*
X139923499Y-130475999D01*
D12*
%TO.P,"R2","1"*%
X139231000Y-129746000D03*
D13*
%TO.P,"R2","2"*%
X137656000Y-129746000D03*
%TD*%
D10*
%TO.C,"C27"*%
%TO.CFtp,"C_0603_1608Metric_fabdesignatorsmall"*%
%TO.CVal,".01u"*%
%TO.CLbN,"Library"*%
%TO.CMnt,SMD*%
%TO.CRot,180*%
X138457000Y-135857000D03*
D11*
X139936999Y-136586999D02*
X136977001Y-136586999D01*
X136977001Y-135127001D01*
X139936999Y-135127001D01*
X139936999Y-136586999D01*
D12*
%TO.P,"C27","1"*%
X139232000Y-135857000D03*
D13*
%TO.P,"C27","2"*%
X137682000Y-135857000D03*
%TD*%
D10*
%TO.C,"U5"*%
%TO.CFtp,"SOIC-8_3.9x4.9mm_P1.27mm"*%
%TO.CVal,"MAX31855KASA"*%
%TO.CLbN,"Package_SO"*%
%TO.CMnt,SMD*%
%TO.CRot,180*%
X130853000Y-110833000D03*
D11*
X134552999Y-113532999D02*
X127153001Y-113532999D01*
X127153001Y-108133001D01*
X134552999Y-108133001D01*
X134552999Y-113532999D01*
D12*
%TO.P,"U5","1","GND"*%
X133328000Y-112738000D03*
D13*
%TO.P,"U5","2","T-"*%
X133328000Y-111468000D03*
%TO.P,"U5","3","T+"*%
X133328000Y-110198000D03*
%TO.P,"U5","4","VCC"*%
X133328000Y-108928000D03*
%TO.P,"U5","5","SCK"*%
X128378000Y-108928000D03*
%TO.P,"U5","6","~{CS}"*%
X128378000Y-110198000D03*
%TO.P,"U5","7","SO"*%
X128378000Y-111468000D03*
%TO.P,"U5","8"*%
X128378000Y-112738000D03*
%TD*%
D10*
%TO.C,"R53"*%
%TO.CFtp,"R_0603_1608Metric_fabdesignatorsmall"*%
%TO.CVal,"10k"*%
%TO.CLbN,"Library"*%
%TO.CMnt,SMD*%
%TO.CRot,-90*%
X136000000Y-45000000D03*
D11*
X136729999Y-46479999D02*
X135270001Y-46479999D01*
X135270001Y-43520001D01*
X136729999Y-43520001D01*
X136729999Y-46479999D01*
D12*
%TO.P,"R53","1"*%
X136000000Y-44212500D03*
D13*
%TO.P,"R53","2"*%
X136000000Y-45787500D03*
%TD*%
D10*
%TO.C,"C16"*%
%TO.CFtp,"C_0603_1608Metric_fabdesignatorsmall"*%
%TO.CVal,".1u"*%
%TO.CLbN,"Library"*%
%TO.CMnt,SMD*%
%TO.CRot,0*%
X133151000Y-132682000D03*
D11*
X134630999Y-133411999D02*
X131671001Y-133411999D01*
X131671001Y-131952001D01*
X134630999Y-131952001D01*
X134630999Y-133411999D01*
D12*
%TO.P,"C16","1"*%
X132376000Y-132682000D03*
D13*
%TO.P,"C16","2"*%
X133926000Y-132682000D03*
%TD*%
D10*
%TO.C,"C19"*%
%TO.CFtp,"C_0603_1608Metric_fabdesignatorsmall"*%
%TO.CVal,".1u"*%
%TO.CLbN,"Library"*%
%TO.CMnt,SMD*%
%TO.CRot,0*%
X133126000Y-107150000D03*
D11*
X134605999Y-107879999D02*
X131646001Y-107879999D01*
X131646001Y-106420001D01*
X134605999Y-106420001D01*
X134605999Y-107879999D01*
D12*
%TO.P,"C19","1"*%
X132351000Y-107150000D03*
D13*
%TO.P,"C19","2"*%
X133901000Y-107150000D03*
%TD*%
D10*
%TO.C,"R17"*%
%TO.CFtp,"R_0603_1608Metric_fabdesignatorsmall"*%
%TO.CVal,"1M"*%
%TO.CLbN,"Library"*%
%TO.CMnt,SMD*%
%TO.CRot,0*%
X129836500Y-115750000D03*
D11*
X131316499Y-116479999D02*
X128356501Y-116479999D01*
X128356501Y-115020001D01*
X131316499Y-115020001D01*
X131316499Y-116479999D01*
D12*
%TO.P,"R17","1"*%
X129049000Y-115750000D03*
D13*
%TO.P,"R17","2"*%
X130624000Y-115750000D03*
%TD*%
D10*
%TO.C,"C6"*%
%TO.CFtp,"C_0603_1608Metric_fabdesignatorsmall"*%
%TO.CVal,".1u"*%
%TO.CLbN,"Library"*%
%TO.CMnt,SMD*%
%TO.CRot,-90*%
X135904000Y-120711000D03*
D11*
X136633999Y-122190999D02*
X135174001Y-122190999D01*
X135174001Y-119231001D01*
X136633999Y-119231001D01*
X136633999Y-122190999D01*
D12*
%TO.P,"C6","1"*%
X135904000Y-119936000D03*
D13*
%TO.P,"C6","2"*%
X135904000Y-121486000D03*
%TD*%
D10*
%TO.C,"C36"*%
%TO.CFtp,"C_0603_1608Metric_fabdesignatorsmall"*%
%TO.CVal,".1u"*%
%TO.CLbN,"Library"*%
%TO.CMnt,SMD*%
%TO.CRot,90*%
X138000000Y-45000000D03*
D11*
X138729999Y-46479999D02*
X137270001Y-46479999D01*
X137270001Y-43520001D01*
X138729999Y-43520001D01*
X138729999Y-46479999D01*
D12*
%TO.P,"C36","1"*%
X138000000Y-45775000D03*
D13*
%TO.P,"C36","2"*%
X138000000Y-44225000D03*
%TD*%
D10*
%TO.C,"U1"*%
%TO.CFtp,"SOIC-8_3.9x4.9mm_P1.27mm"*%
%TO.CVal,"MAX31855KASA"*%
%TO.CLbN,"Package_SO"*%
%TO.CMnt,SMD*%
%TO.CRot,180*%
X130878000Y-145028000D03*
D11*
X134577999Y-147727999D02*
X127178001Y-147727999D01*
X127178001Y-142328001D01*
X134577999Y-142328001D01*
X134577999Y-147727999D01*
D12*
%TO.P,"U1","1","GND"*%
X133353000Y-146933000D03*
D13*
%TO.P,"U1","2","T-"*%
X133353000Y-145663000D03*
%TO.P,"U1","3","T+"*%
X133353000Y-144393000D03*
%TO.P,"U1","4","VCC"*%
X133353000Y-143123000D03*
%TO.P,"U1","5","SCK"*%
X128403000Y-143123000D03*
%TO.P,"U1","6","~{CS}"*%
X128403000Y-144393000D03*
%TO.P,"U1","7","SO"*%
X128403000Y-145663000D03*
%TO.P,"U1","8"*%
X128403000Y-146933000D03*
%TD*%
D10*
%TO.C,"R3"*%
%TO.CFtp,"R_0603_1608Metric_fabdesignatorsmall"*%
%TO.CVal,"500"*%
%TO.CLbN,"Library"*%
%TO.CMnt,SMD*%
%TO.CRot,180*%
X138444000Y-116634000D03*
D11*
X139923999Y-117363999D02*
X136964001Y-117363999D01*
X136964001Y-115904001D01*
X139923999Y-115904001D01*
X139923999Y-117363999D01*
D12*
%TO.P,"R3","1"*%
X139231500Y-116634000D03*
D13*
%TO.P,"R3","2"*%
X137656500Y-116634000D03*
%TD*%
D10*
%TO.C,"C3"*%
%TO.CFtp,"C_0603_1608Metric_fabdesignatorsmall"*%
%TO.CVal,".1u"*%
%TO.CLbN,"Library"*%
%TO.CMnt,SMD*%
%TO.CRot,-90*%
X135929000Y-125669000D03*
D11*
X136658999Y-127148999D02*
X135199001Y-127148999D01*
X135199001Y-124189001D01*
X136658999Y-124189001D01*
X136658999Y-127148999D01*
D12*
%TO.P,"C3","1"*%
X135929000Y-124894000D03*
D13*
%TO.P,"C3","2"*%
X135929000Y-126444000D03*
%TD*%
D10*
%TO.C,"D7"*%
%TO.CFtp,"SOT-23_handsoldering"*%
%TO.CVal,"AQ12"*%
%TO.CLbN,"Library"*%
%TO.CMnt,SMD*%
%TO.CRot,90*%
X129915000Y-38900000D03*
D11*
X131664999Y-40599999D02*
X128165001Y-40599999D01*
X128165001Y-37200001D01*
X131664999Y-37200001D01*
X131664999Y-40599999D01*
D12*
%TO.P,"D7","1","A1"*%
X128915000Y-40900000D03*
D13*
%TO.P,"D7","2","A2"*%
X130915000Y-40900000D03*
%TO.P,"D7","3"*%
X129915000Y-37350000D03*
%TD*%
M02*
